<svg width="319" height="313" viewBox="0 0 319 313" fill="none" xmlns="http://www.w3.org/2000/svg">
<path fill-rule="evenodd" clip-rule="evenodd" d="M160.806 242.47C128.541 238.209 89.9444 268.572 65.5024 246.871C42.1619 226.148 54.806 185.233 61.2711 154.098C66.5091 128.874 87.0575 111.711 98.3703 88.589C111.954 60.827 107.364 20.3694 134.017 5.41804C160.405 -9.38454 192.303 9.71903 220.348 20.164C245.848 29.6608 271.075 40.9849 287.84 62.706C304.475 84.2584 308.561 111.935 312.241 139.223C316.299 169.313 326.199 202.415 310.168 228.251C294.096 254.151 261.602 265.997 231.815 268.833C205.985 271.292 186.469 245.858 160.806 242.47Z" fill="url(#paint0_linear_509_1058)"/>
<path fill-rule="evenodd" clip-rule="evenodd" d="M244.216 128.142C232.287 148.967 54.0793 197.365 33.2542 185.436L40.6672 212.731C52.5967 191.906 230.804 143.508 251.629 155.437L244.216 128.142Z" fill="url(#paint1_radial_509_1058)"/>
<path fill-rule="evenodd" clip-rule="evenodd" d="M221.087 248.368C196.441 244.418 84.4752 99.5207 86.87 74.6758L63.7971 92.5049C88.4426 96.455 200.409 241.352 198.014 266.197L221.087 248.368Z" fill="url(#paint2_radial_509_1058)"/>
<path fill-rule="evenodd" clip-rule="evenodd" d="M138.392 44.8293C134.442 69.4747 46.7637 137.226 21.9188 134.831L39.7479 157.904C43.698 133.258 131.376 65.5074 156.221 67.9022L138.392 44.8293Z" fill="url(#paint3_radial_509_1058)"/>
<path fill-rule="evenodd" clip-rule="evenodd" d="M133.701 274.127C110.3 265.445 47.2825 138.743 54.4783 114.843L28.3705 127.828C51.7718 136.511 114.789 263.212 107.593 287.113L133.701 274.127Z" fill="url(#paint4_radial_509_1058)"/>
<path fill-rule="evenodd" clip-rule="evenodd" d="M184.345 67.9551C190.127 92.2362 99.1072 251.129 75.2371 258.424L100.539 272.918C94.7566 248.637 185.777 89.744 209.647 82.4488L184.345 67.9551Z" fill="url(#paint5_radial_509_1058)"/>
<path fill-rule="evenodd" clip-rule="evenodd" d="M144.536 62.6558C162.834 79.6325 175.103 257.582 159.309 276.91L188.399 274.904C170.101 257.927 157.832 79.9773 173.626 60.6501L144.536 62.6558Z" fill="url(#paint6_radial_509_1058)"/>
<path fill-rule="evenodd" clip-rule="evenodd" d="M241.217 213.618C218.53 224.025 49.4306 167.262 37.6187 145.274L28.3396 172.917C51.0261 162.509 220.126 219.272 231.938 241.26L241.217 213.618Z" fill="url(#paint7_radial_509_1058)"/>
<path fill-rule="evenodd" clip-rule="evenodd" d="M247.85 175.653C234.77 196.91 76.1908 239.978 54.1536 228.258L61.7958 256.397C74.8767 235.14 233.455 192.072 255.493 203.792L247.85 175.653Z" fill="url(#paint8_radial_509_1058)"/>
<path fill-rule="evenodd" clip-rule="evenodd" d="M253.231 119.904C230.545 130.312 96.393 85.2805 84.5811 63.2923L75.302 90.9352C97.9885 80.5273 232.14 125.559 243.952 147.547L253.231 119.904Z" fill="url(#paint9_radial_509_1058)"/>
<path fill-rule="evenodd" clip-rule="evenodd" d="M185.05 56.3651C176.368 79.7663 49.666 142.784 25.7657 135.588L38.7509 161.696C47.4332 138.294 174.135 75.2771 198.035 82.4729L185.05 56.3651Z" fill="url(#paint10_radial_509_1058)"/>
<path fill-rule="evenodd" clip-rule="evenodd" d="M220.284 92.4135C217.232 116.219 71.1108 229.13 47.3057 226.078L64.6 248.459C67.652 224.654 213.773 111.742 237.578 114.794L220.284 92.4135Z" fill="url(#paint11_radial_509_1058)"/>
<circle cx="66.9623" cy="72.7569" r="20" fill="url(#paint12_linear_509_1058)"/>
<circle cx="35.3274" cy="109.077" r="20" fill="url(#paint13_linear_509_1058)"/>
<circle cx="19.9999" cy="154.739" r="20" fill="url(#paint14_linear_509_1058)"/>
<circle cx="23.313" cy="202.79" r="20" fill="url(#paint15_linear_509_1058)"/>
<circle cx="44.7625" cy="245.916" r="20" fill="url(#paint16_linear_509_1058)"/>
<circle cx="81.0825" cy="277.551" r="20" fill="url(#paint17_linear_509_1058)"/>
<circle cx="126.744" cy="292.878" r="20" fill="url(#paint18_linear_509_1058)"/>
<circle cx="217.921" cy="268.116" r="20" fill="url(#paint19_linear_509_1058)"/>
<circle cx="249.556" cy="231.796" r="20" fill="url(#paint20_linear_509_1058)"/>
<circle cx="264.884" cy="186.134" r="20" fill="url(#paint21_linear_509_1058)"/>
<circle cx="261.571" cy="138.083" r="20" fill="url(#paint22_linear_509_1058)"/>
<circle cx="240.121" cy="94.9568" r="20" fill="url(#paint23_linear_509_1058)"/>
<circle cx="203.801" cy="63.3221" r="20" fill="url(#paint24_linear_509_1058)"/>
<circle cx="158.14" cy="47.9944" r="20" fill="url(#paint25_linear_509_1058)"/>
<circle cx="174.796" cy="289.565" r="20" fill="url(#paint26_linear_509_1058)"/>
<circle cx="110.088" cy="51.3077" r="20" fill="url(#paint27_linear_509_1058)"/>
<g filter="url(#filter0_d_509_1058)">
<path fill-rule="evenodd" clip-rule="evenodd" d="M156.189 154.114C160.509 150.754 167.949 148.034 178.509 148.034C194.829 148.034 205.469 153.474 205.469 166.994C205.469 180.034 194.829 186.594 175.069 186.594C151.069 186.594 141.469 177.234 141.469 159.154C141.469 135.954 155.229 128.994 171.709 128.994C185.629 128.994 194.909 130.914 201.709 132.354V143.794C200.861 143.632 200.011 143.465 199.155 143.298C192.016 141.902 184.516 140.434 175.229 140.434C163.869 140.434 157.629 142.754 156.189 154.114ZM155.869 165.794C155.869 171.634 160.749 175.154 173.469 175.154C187.069 175.154 191.069 171.634 191.069 165.794C191.069 159.954 187.149 156.514 173.469 156.514C161.149 156.514 155.869 159.874 155.869 165.794ZM119.6 129.794V173.714H138.8V185.794H85.9999V173.714H105.28L105.36 147.314C99.2799 152.674 91.8399 152.674 85.9999 152.674V140.514C94.2399 140.514 105.2 140.514 105.2 129.794H119.6ZM157.962 214.994V195.794H162.066V214.994H157.962ZM89.5839 215.234C95.4159 215.234 99.3759 213.122 99.3759 207.938C99.3759 202.73 95.4159 200.618 89.5839 200.618C83.7279 200.618 79.7919 202.73 79.7919 207.938C79.7919 213.122 83.7279 215.234 89.5839 215.234ZM89.5839 211.802C85.7679 211.802 83.8959 210.866 83.8959 207.938C83.8959 204.986 85.7679 204.05 89.5839 204.05C93.3759 204.05 95.2479 204.986 95.2479 207.938C95.2479 210.866 93.3759 211.802 89.5839 211.802ZM112.29 200.618C109.65 200.618 107.154 201.362 105.042 203.258V200.858H100.938V214.994H105.042V206.522C107.538 204.578 110.178 204.05 112.482 204.05C113.682 204.05 114.762 204.194 116.106 204.53V201.098C115.146 200.858 113.97 200.618 112.29 200.618ZM117.507 202.082C120.387 201.146 123.219 200.618 126.171 200.618C132.075 200.618 135.435 202.514 135.483 207.866V214.994H131.355V213.242C128.859 214.466 126.099 215.234 122.763 215.234C118.803 215.234 116.331 213.962 116.331 210.77C116.331 207.098 120.363 205.946 124.851 205.946C127.275 205.946 129.507 206.33 131.355 206.954C131.355 204.266 127.899 204.05 125.979 204.05C124.131 204.05 121.875 204.218 118.971 205.082L117.507 202.082ZM123.939 212.21C126.171 212.21 129.243 211.514 131.355 210.602V209.498C129.915 209.042 127.971 208.634 125.355 208.634C122.283 208.634 120.435 209.162 120.435 210.602C120.435 212.09 121.803 212.21 123.939 212.21ZM136.932 207.938C136.932 213.122 140.868 215.234 146.724 215.234C152.004 215.234 155.725 213.507 156.396 209.354H152.196C151.644 211.178 149.7 211.802 146.724 211.802C143.196 211.802 141.036 210.866 141.036 207.938C141.036 204.986 143.196 204.05 146.724 204.05C149.7 204.05 151.644 204.674 152.196 206.498H156.396C155.725 202.346 152.004 200.618 146.724 200.618C140.868 200.618 136.932 202.73 136.932 207.938ZM173.18 211.898C170.444 211.898 168.284 211.154 167.828 208.898H183.092C183.092 202.466 178.796 200.618 173.42 200.618C167.684 200.618 163.628 202.73 163.628 207.938C163.628 213.122 167.804 215.234 173.18 215.234C178.412 215.234 181.916 213.53 182.852 209.93H178.772C177.74 211.37 176.012 211.898 173.18 211.898ZM173.396 203.738C175.988 203.738 178.004 204.29 178.7 206.282H167.972C168.62 204.29 170.588 203.738 173.396 203.738ZM194.506 215.234C189.058 215.234 184.018 214.538 184.018 210.026H188.122C188.122 211.538 189.682 212.114 194.266 212.114C198.706 212.114 199.426 211.826 199.426 210.722C199.426 209.642 198.754 209.57 193.786 209.258C187.57 208.898 184.522 208.418 184.522 205.01C184.522 201.314 188.842 200.618 193.882 200.618C199.21 200.618 203.074 201.314 203.074 205.202H198.946C198.946 204.026 197.458 203.738 193.642 203.738C189.754 203.738 188.65 204.026 188.65 204.842C188.65 205.73 189.394 205.874 194.266 206.234C194.445 206.248 194.623 206.261 194.798 206.273L194.818 206.275C200.036 206.656 203.554 206.913 203.554 210.554C203.554 214.538 199.954 215.234 194.506 215.234Z" fill="white"/>
</g>
<defs>
<filter id="filter0_d_509_1058" x="66.7919" y="118.994" width="157.677" height="118.24" filterUnits="userSpaceOnUse" color-interpolation-filters="sRGB">
<feFlood flood-opacity="0" result="BackgroundImageFix"/>
<feColorMatrix in="SourceAlpha" type="matrix" values="0 0 0 0 0 0 0 0 0 0 0 0 0 0 0 0 0 0 127 0" result="hardAlpha"/>
<feOffset dx="3" dy="6"/>
<feGaussianBlur stdDeviation="8"/>
<feComposite in2="hardAlpha" operator="out"/>
<feColorMatrix type="matrix" values="0 0 0 0 0 0 0 0 0 0 0 0 0 0 0 0 0 0 1 0"/>
<feBlend mode="normal" in2="BackgroundImageFix" result="effect1_dropShadow_509_1058"/>
<feBlend mode="normal" in="SourceGraphic" in2="effect1_dropShadow_509_1058" result="shape"/>
</filter>
<linearGradient id="paint0_linear_509_1058" x1="383.318" y1="107.462" x2="108.07" y2="317.194" gradientUnits="userSpaceOnUse">
<stop stop-color="#540B8D"/>
<stop offset="1" stop-color="#080E1E" stop-opacity="0"/>
</linearGradient>
<radialGradient id="paint1_radial_509_1058" cx="0" cy="0" r="1" gradientUnits="userSpaceOnUse" gradientTransform="translate(142.442 170.437) rotate(90) scale(42.295 109.188)">
<stop stop-color="#2761E4"/>
<stop offset="1" stop-color="#001441"/>
</radialGradient>
<radialGradient id="paint2_radial_509_1058" cx="0" cy="0" r="1" gradientUnits="userSpaceOnUse" gradientTransform="translate(142.442 170.436) rotate(90) scale(95.7606 78.6447)">
<stop stop-color="#2761E4"/>
<stop offset="1" stop-color="#001441"/>
</radialGradient>
<radialGradient id="paint3_radial_509_1058" cx="0" cy="0" r="1" gradientUnits="userSpaceOnUse" gradientTransform="translate(89.0698 101.367) rotate(90) scale(56.5373 67.1509)">
<stop stop-color="#2761E4"/>
<stop offset="1" stop-color="#001441"/>
</radialGradient>
<radialGradient id="paint4_radial_509_1058" cx="0" cy="0" r="1" gradientUnits="userSpaceOnUse" gradientTransform="translate(81.0358 200.978) rotate(90) scale(86.1348 52.6653)">
<stop stop-color="#2761E4"/>
<stop offset="1" stop-color="#001441"/>
</radialGradient>
<radialGradient id="paint5_radial_509_1058" cx="0" cy="0" r="1" gradientUnits="userSpaceOnUse" gradientTransform="translate(142.442 170.437) rotate(90) scale(102.481 67.2048)">
<stop stop-color="#2761E4"/>
<stop offset="1" stop-color="#001441"/>
</radialGradient>
<radialGradient id="paint6_radial_509_1058" cx="0" cy="0" r="1" gradientUnits="userSpaceOnUse" gradientTransform="translate(166.468 168.78) rotate(90) scale(108.13 21.9311)">
<stop stop-color="#2761E4"/>
<stop offset="1" stop-color="#001441"/>
</radialGradient>
<radialGradient id="paint7_radial_509_1058" cx="0" cy="0" r="1" gradientUnits="userSpaceOnUse" gradientTransform="translate(134.778 193.267) rotate(90) scale(47.9932 106.439)">
<stop stop-color="#2761E4"/>
<stop offset="1" stop-color="#001441"/>
</radialGradient>
<radialGradient id="paint8_radial_509_1058" cx="0" cy="0" r="1" gradientUnits="userSpaceOnUse" gradientTransform="translate(154.823 216.025) rotate(90) scale(40.3724 100.67)">
<stop stop-color="#2761E4"/>
<stop offset="1" stop-color="#001441"/>
</radialGradient>
<radialGradient id="paint9_radial_509_1058" cx="0" cy="0" r="1" gradientUnits="userSpaceOnUse" gradientTransform="translate(164.267 105.42) rotate(90) scale(42.1275 88.9646)">
<stop stop-color="#2761E4"/>
<stop offset="1" stop-color="#001441"/>
</radialGradient>
<radialGradient id="paint10_radial_509_1058" cx="0" cy="0" r="1" gradientUnits="userSpaceOnUse" gradientTransform="translate(111.901 109.03) rotate(90) scale(52.6653 86.1348)">
<stop stop-color="#2761E4"/>
<stop offset="1" stop-color="#001441"/>
</radialGradient>
<radialGradient id="paint11_radial_509_1058" cx="0" cy="0" r="1" gradientUnits="userSpaceOnUse" gradientTransform="translate(142.442 170.436) rotate(90) scale(78.0229 95.1362)">
<stop stop-color="#2761E4"/>
<stop offset="1" stop-color="#001441"/>
</radialGradient>
<linearGradient id="paint12_linear_509_1058" x1="66.9623" y1="52.7569" x2="66.9623" y2="92.7569" gradientUnits="userSpaceOnUse">
<stop stop-color="#1058FB"/>
<stop offset="1" stop-color="#001441"/>
</linearGradient>
<linearGradient id="paint13_linear_509_1058" x1="35.3274" y1="89.0772" x2="35.3274" y2="129.077" gradientUnits="userSpaceOnUse">
<stop stop-color="#1058FB"/>
<stop offset="1" stop-color="#001441"/>
</linearGradient>
<linearGradient id="paint14_linear_509_1058" x1="19.9999" y1="134.739" x2="19.9999" y2="174.739" gradientUnits="userSpaceOnUse">
<stop stop-color="#1058FB"/>
<stop offset="1" stop-color="#001441"/>
</linearGradient>
<linearGradient id="paint15_linear_509_1058" x1="23.313" y1="182.79" x2="23.313" y2="222.79" gradientUnits="userSpaceOnUse">
<stop stop-color="#1058FB"/>
<stop offset="1" stop-color="#001441"/>
</linearGradient>
<linearGradient id="paint16_linear_509_1058" x1="44.7625" y1="225.916" x2="44.7625" y2="265.916" gradientUnits="userSpaceOnUse">
<stop stop-color="#1058FB"/>
<stop offset="1" stop-color="#001441"/>
</linearGradient>
<linearGradient id="paint17_linear_509_1058" x1="81.0825" y1="257.551" x2="81.0825" y2="297.551" gradientUnits="userSpaceOnUse">
<stop stop-color="#1058FB"/>
<stop offset="1" stop-color="#001441"/>
</linearGradient>
<linearGradient id="paint18_linear_509_1058" x1="126.744" y1="272.879" x2="126.744" y2="312.879" gradientUnits="userSpaceOnUse">
<stop stop-color="#1058FB"/>
<stop offset="1" stop-color="#001441"/>
</linearGradient>
<linearGradient id="paint19_linear_509_1058" x1="217.921" y1="248.116" x2="217.921" y2="288.116" gradientUnits="userSpaceOnUse">
<stop stop-color="#1058FB"/>
<stop offset="1" stop-color="#001441"/>
</linearGradient>
<linearGradient id="paint20_linear_509_1058" x1="249.556" y1="211.796" x2="249.556" y2="251.796" gradientUnits="userSpaceOnUse">
<stop stop-color="#1058FB"/>
<stop offset="1" stop-color="#001441"/>
</linearGradient>
<linearGradient id="paint21_linear_509_1058" x1="264.884" y1="166.134" x2="264.884" y2="206.134" gradientUnits="userSpaceOnUse">
<stop stop-color="#1058FB"/>
<stop offset="1" stop-color="#001441"/>
</linearGradient>
<linearGradient id="paint22_linear_509_1058" x1="261.571" y1="118.083" x2="261.571" y2="158.083" gradientUnits="userSpaceOnUse">
<stop stop-color="#1058FB"/>
<stop offset="1" stop-color="#001441"/>
</linearGradient>
<linearGradient id="paint23_linear_509_1058" x1="240.121" y1="74.9568" x2="240.121" y2="114.957" gradientUnits="userSpaceOnUse">
<stop stop-color="#1058FB"/>
<stop offset="1" stop-color="#001441"/>
</linearGradient>
<linearGradient id="paint24_linear_509_1058" x1="203.801" y1="43.3221" x2="203.801" y2="83.3221" gradientUnits="userSpaceOnUse">
<stop stop-color="#1058FB"/>
<stop offset="1" stop-color="#001441"/>
</linearGradient>
<linearGradient id="paint25_linear_509_1058" x1="158.14" y1="27.9944" x2="158.14" y2="67.9945" gradientUnits="userSpaceOnUse">
<stop stop-color="#1058FB"/>
<stop offset="1" stop-color="#001441"/>
</linearGradient>
<linearGradient id="paint26_linear_509_1058" x1="174.796" y1="269.565" x2="174.796" y2="309.565" gradientUnits="userSpaceOnUse">
<stop stop-color="#1058FB"/>
<stop offset="1" stop-color="#001441"/>
</linearGradient>
<linearGradient id="paint27_linear_509_1058" x1="110.088" y1="31.3077" x2="110.088" y2="71.3077" gradientUnits="userSpaceOnUse">
<stop stop-color="#1058FB"/>
<stop offset="1" stop-color="#001441"/>
</linearGradient>
</defs>
</svg>
