<svg width="302" height="229" viewBox="0 0 302 229" fill="none" xmlns="http://www.w3.org/2000/svg">
<path fill-rule="evenodd" clip-rule="evenodd" d="M176.884 23.9536C202.195 26.6608 230.18 5.89079 251.282 20.1601C272.361 34.4132 267.217 66.5952 275.556 90.6742C284.141 115.465 307.506 137.811 300.81 163.18C294.087 188.65 266.316 201.886 242.995 214.034C222.526 224.697 199.553 232.012 176.884 227.733C156.225 223.834 141.763 206.763 126.683 192.08C113.783 179.52 89.9821 192.08 59.4098 170.803C34.6557 146.049 27.2046 110.493 25.9918 81.6885C24.7161 51.3936 62.2451 15.0017 89.9821 2.90781C117.995 -9.30646 146.508 20.7047 176.884 23.9536Z" fill="url(#paint0_linear_509_1132)"/>
<circle cx="229.844" cy="113.844" r="40.8443" fill="url(#paint1_radial_509_1132)"/>
<path d="M228.598 100.854C229.197 99.0115 231.803 99.0115 232.402 100.854L234.204 106.401C234.472 107.225 235.24 107.783 236.107 107.783H241.939C243.877 107.783 244.682 110.262 243.115 111.401L238.396 114.83C237.695 115.339 237.402 116.242 237.67 117.066L239.472 122.613C240.071 124.455 237.962 125.988 236.394 124.849L231.676 121.42C230.975 120.911 230.025 120.911 229.324 121.42L224.606 124.849C223.038 125.988 220.929 124.455 221.528 122.613L223.33 117.066C223.598 116.242 223.305 115.339 222.604 114.83L217.885 111.401C216.318 110.262 217.123 107.783 219.061 107.783H224.893C225.76 107.783 226.528 107.225 226.796 106.401L228.598 100.854Z" fill="white"/>
<path fill-rule="evenodd" clip-rule="evenodd" d="M235.164 216.598C235.164 219.333 232.947 221.549 230.213 221.549C227.37 221.549 224.551 221.439 221.762 221.222C219.036 221.01 216.997 218.629 217.209 215.903C217.421 213.177 219.803 211.138 222.529 211.35C225.063 211.547 227.626 211.648 230.213 211.648C232.947 211.648 235.164 213.864 235.164 216.598ZM211.036 214.934C210.4 217.593 207.728 219.233 205.069 218.597C199.532 217.272 194.161 215.519 188.993 213.376C186.467 212.329 185.269 209.432 186.316 206.907C187.364 204.381 190.26 203.183 192.786 204.23C197.475 206.175 202.349 207.765 207.373 208.967C210.032 209.603 211.672 212.274 211.036 214.934ZM180.75 204.064C179.319 206.394 176.27 207.123 173.94 205.692C169.122 202.733 164.555 199.406 160.278 195.75C158.2 193.973 157.955 190.848 159.732 188.77C161.509 186.692 164.634 186.447 166.712 188.224C170.598 191.545 174.746 194.568 179.122 197.255C181.452 198.685 182.181 201.734 180.75 204.064ZM155.312 184.35C153.234 186.127 150.109 185.882 148.332 183.804C144.676 179.527 141.349 174.96 138.39 170.142C136.959 167.812 137.688 164.763 140.018 163.332C142.348 161.901 145.397 162.63 146.827 164.96C149.514 169.336 152.537 173.484 155.858 177.37C157.635 179.448 157.39 182.574 155.312 184.35ZM137.175 157.766C134.65 158.813 131.753 157.615 130.706 155.089C128.563 149.921 126.81 144.55 125.485 139.013C124.849 136.354 126.489 133.682 129.148 133.046C131.808 132.41 134.479 134.05 135.115 136.709C136.317 141.733 137.907 146.607 139.852 151.296C140.899 153.822 139.701 156.718 137.175 157.766ZM128.179 126.873C125.453 127.085 123.072 125.046 122.86 122.32C122.643 119.531 122.533 116.712 122.533 113.869C122.533 111.026 122.643 108.207 122.86 105.417C123.072 102.691 125.453 100.653 128.179 100.865C130.905 101.077 132.944 103.458 132.732 106.184C132.535 108.719 132.434 111.282 132.434 113.869C132.434 116.456 132.535 119.019 132.732 121.553C132.944 124.279 130.905 126.661 128.179 126.873ZM129.148 94.6917C126.489 94.0555 124.849 91.384 125.485 88.7248C126.81 83.1877 128.563 77.8166 130.706 72.6488C131.753 70.1231 134.65 68.9247 137.175 69.972C139.701 71.0194 140.899 73.916 139.852 76.4417C137.907 81.1311 136.317 86.0045 135.115 91.0287C134.479 93.688 131.808 95.3279 129.148 94.6917ZM140.018 64.4054C137.688 62.9746 136.959 59.9258 138.39 57.5958C141.349 52.7773 144.676 48.2102 148.332 43.9336C150.109 41.8552 153.234 41.6108 155.312 43.3875C157.391 45.1642 157.635 48.2893 155.858 50.3677C152.537 54.2533 149.514 58.4018 146.827 62.7773C145.397 65.1073 142.348 65.8362 140.018 64.4054ZM159.732 38.9679C157.955 36.8895 158.2 33.7644 160.278 31.9877C164.555 28.3316 169.122 25.0044 173.94 22.0455C176.27 20.6146 179.319 21.3436 180.75 23.6736C182.181 26.0036 181.452 29.0523 179.122 30.4832C174.746 33.1701 170.598 36.1923 166.712 39.514C164.634 41.2907 161.509 41.0462 159.732 38.9679ZM186.316 20.831C185.269 18.3052 186.467 15.4087 188.993 14.3613C194.161 12.2183 199.532 10.4659 205.069 9.14115C207.728 8.50493 210.4 10.1449 211.036 12.8041C211.672 15.4633 210.032 18.1348 207.373 18.771C202.349 19.9731 197.475 21.5631 192.786 23.5077C190.26 24.5551 187.364 23.3567 186.316 20.831ZM217.209 11.835C216.997 9.10894 219.036 6.72735 221.762 6.51556C224.551 6.29885 227.37 6.18854 230.213 6.18854C232.947 6.18854 235.164 8.4051 235.164 11.1394C235.164 13.8736 232.947 16.0902 230.213 16.0902C227.626 16.0902 225.063 16.1906 222.529 16.3875C219.803 16.5992 217.421 14.561 217.209 11.835Z" fill="url(#paint2_linear_509_1132)"/>
<circle cx="40.8443" cy="113.844" r="40.8443" fill="url(#paint3_radial_509_1132)"/>
<path d="M38.5979 100.854C39.1966 99.0115 41.8034 99.0115 42.4021 100.854L44.2045 106.401C44.4722 107.225 45.2401 107.783 46.1066 107.783H51.9392C53.8766 107.783 54.6822 110.262 53.1147 111.401L48.3961 114.83C47.6951 115.339 47.4018 116.242 47.6695 117.066L49.4719 122.613C50.0706 124.455 47.9617 125.988 46.3942 124.849L41.6756 121.42C40.9746 120.911 40.0254 120.911 39.3244 121.42L34.6058 124.849C33.0383 125.988 30.9294 124.455 31.5281 122.613L33.3305 117.066C33.5982 116.242 33.3049 115.339 32.6039 114.83L27.8853 111.401C26.3178 110.262 27.1234 107.783 29.0608 107.783H34.8934C35.7599 107.783 36.5278 107.225 36.7955 106.401L38.5979 100.854Z" fill="white"/>
<path fill-rule="evenodd" clip-rule="evenodd" d="M35.8934 11.1394C35.8934 8.40509 38.11 6.18854 40.8443 6.18854C43.6876 6.18854 46.5061 6.29885 49.2957 6.51557C52.0218 6.72735 54.06 9.10893 53.8482 11.835C53.6365 14.561 51.2549 16.5992 48.5288 16.3875C45.9941 16.1905 43.4314 16.0902 40.8443 16.0902C38.11 16.0902 35.8934 13.8736 35.8934 11.1394ZM60.0214 12.8041C60.6576 10.1449 63.3291 8.50494 65.9883 9.14116C71.5254 10.4659 76.8965 12.2183 82.0643 14.3613C84.59 15.4087 85.7884 18.3052 84.7411 20.831C83.6937 23.3567 80.7971 24.5551 78.2714 23.5077C73.582 21.5631 68.7086 19.9731 63.6844 18.771C61.0251 18.1348 59.3852 15.4633 60.0214 12.8041ZM90.3077 23.6736C91.7385 21.3436 94.7873 20.6146 97.1173 22.0455C101.936 25.0044 106.503 28.3316 110.78 31.9877C112.858 33.7644 113.102 36.8896 111.326 38.9679C109.549 41.0462 106.424 41.2907 104.345 39.514C100.46 36.1923 96.3113 33.1701 91.9358 30.4832C89.6058 29.0523 88.8769 26.0036 90.3077 23.6736ZM115.745 43.3875C117.824 41.6108 120.949 41.8553 122.725 43.9336C126.381 48.2103 129.709 52.7774 132.668 57.5958C134.098 59.9258 133.37 62.9746 131.04 64.4054C128.71 65.8362 125.661 65.1073 124.23 62.7773C121.543 58.4018 118.521 54.2533 115.199 50.3677C113.422 48.2893 113.667 45.1642 115.745 43.3875ZM133.882 69.9721C136.408 68.9247 139.304 70.1231 140.352 72.6488C142.495 77.8167 144.247 83.1877 145.572 88.7248C146.208 91.384 144.568 94.0555 141.909 94.6917C139.25 95.3279 136.578 93.688 135.942 91.0288C134.74 86.0045 133.15 81.1311 131.205 76.4417C130.158 73.916 131.356 71.0194 133.882 69.9721ZM142.878 100.865C145.604 100.653 147.986 102.691 148.198 105.417C148.414 108.207 148.525 111.026 148.525 113.869C148.525 116.712 148.414 119.531 148.198 122.32C147.986 125.046 145.604 127.085 142.878 126.873C140.152 126.661 138.114 124.279 138.326 121.553C138.523 119.019 138.623 116.456 138.623 113.869C138.623 111.282 138.523 108.719 138.326 106.184C138.114 103.458 140.152 101.077 142.878 100.865ZM141.909 133.046C144.568 133.682 146.208 136.354 145.572 139.013C144.247 144.55 142.495 149.921 140.352 155.089C139.304 157.615 136.408 158.813 133.882 157.766C131.356 156.718 130.158 153.822 131.205 151.296C133.15 146.607 134.74 141.733 135.942 136.709C136.578 134.05 139.25 132.41 141.909 133.046ZM131.04 163.332C133.37 164.763 134.098 167.812 132.668 170.142C129.709 174.96 126.381 179.527 122.725 183.804C120.949 185.882 117.824 186.127 115.745 184.35C113.667 182.574 113.422 179.448 115.199 177.37C118.521 173.484 121.543 169.336 124.23 164.96C125.661 162.63 128.71 161.901 131.04 163.332ZM111.326 188.77C113.102 190.848 112.858 193.973 110.78 195.75C106.503 199.406 101.936 202.733 97.1173 205.692C94.7873 207.123 91.7385 206.394 90.3077 204.064C88.8769 201.734 89.6058 198.685 91.9358 197.255C96.3113 194.568 100.46 191.545 104.345 188.224C106.424 186.447 109.549 186.692 111.326 188.77ZM84.7411 206.907C85.7884 209.432 84.59 212.329 82.0643 213.376C76.8965 215.519 71.5254 217.272 65.9883 218.597C63.3291 219.233 60.6576 217.593 60.0214 214.934C59.3852 212.274 61.0251 209.603 63.6844 208.967C68.7086 207.765 73.582 206.175 78.2714 204.23C80.7971 203.183 83.6937 204.381 84.7411 206.907ZM53.8482 215.903C54.06 218.629 52.0218 221.01 49.2958 221.222C46.5061 221.439 43.6876 221.549 40.8443 221.549C38.11 221.549 35.8934 219.333 35.8934 216.598C35.8934 213.864 38.11 211.648 40.8443 211.648C43.4314 211.648 45.9941 211.547 48.5288 211.35C51.2549 211.138 53.6365 213.177 53.8482 215.903Z" fill="url(#paint4_radial_509_1132)"/>
<path d="M129.148 94.6918C126.489 94.0556 124.849 91.3841 125.485 88.7249C126.81 83.1878 128.563 77.8168 130.706 72.6489C131.753 70.1232 134.649 68.9248 137.175 69.9722C139.701 71.0195 140.899 73.9161 139.852 76.4418C137.907 81.1313 136.317 86.0047 135.115 91.0289C134.479 93.6881 131.808 95.328 129.148 94.6918Z" fill="url(#paint5_linear_509_1132)"/>
<defs>
<linearGradient id="paint0_linear_509_1132" x1="148.242" y1="-60.9814" x2="327.168" y2="194.411" gradientUnits="userSpaceOnUse">
<stop stop-color="#540B8D"/>
<stop offset="1" stop-color="#080E1E" stop-opacity="0"/>
</linearGradient>
<radialGradient id="paint1_radial_509_1132" cx="0" cy="0" r="1" gradientUnits="userSpaceOnUse" gradientTransform="translate(218.359 86.079) rotate(64.4861) scale(93.7198)">
<stop stop-color="#D15C22"/>
<stop offset="1" stop-color="#080E1E"/>
</radialGradient>
<linearGradient id="paint2_linear_509_1132" x1="178.848" y1="221.549" x2="178.848" y2="6.18853" gradientUnits="userSpaceOnUse">
<stop stop-color="#D15C22"/>
<stop offset="1" stop-color="#7B3613"/>
</linearGradient>
<radialGradient id="paint3_radial_509_1132" cx="0" cy="0" r="1" gradientUnits="userSpaceOnUse" gradientTransform="translate(22.2655 89.1083) rotate(60.6728) scale(79.9184)">
<stop stop-color="#627EEA"/>
<stop offset="1" stop-color="#080E1E"/>
</radialGradient>
<radialGradient id="paint4_radial_509_1132" cx="0" cy="0" r="1" gradientUnits="userSpaceOnUse" gradientTransform="translate(66.5928 48.6559) rotate(73.6265) scale(191.455 121.263)">
<stop stop-color="#627EEA"/>
<stop offset="1" stop-color="#080E1E"/>
</radialGradient>
<linearGradient id="paint5_linear_509_1132" x1="178.848" y1="221.549" x2="178.848" y2="6.18868" gradientUnits="userSpaceOnUse">
<stop stop-color="#D15C22"/>
<stop offset="1" stop-color="#7B3613"/>
</linearGradient>
</defs>
</svg>
