<svg width="326" height="319" viewBox="0 0 326 319" fill="none" xmlns="http://www.w3.org/2000/svg">
<path fill-rule="evenodd" clip-rule="evenodd" d="M292.467 154.988C286.07 186.717 291.505 221.48 269.896 245.634C247.31 270.88 212.856 283.483 178.96 281.861C146.455 280.306 121.752 257.612 96.3526 237.332C65.9403 213.05 27.0533 193.199 20.0602 154.988C12.2359 112.235 26.9802 64.8525 59.4865 35.8937C90.8998 7.90855 136.924 16.2427 178.96 13.4287C226.251 10.2628 286.043 -18.1604 315.636 18.7459C345.628 56.1502 301.931 108.042 292.467 154.988Z" fill="url(#paint0_linear_509_1016)"/>
<g clip-path="url(#clip0_509_1016)">
<path d="M257.777 62.0001H85.8838C78.5784 62.0001 72.6613 67.8979 72.6613 75.1795V286.05C72.6613 293.332 78.5784 299.229 85.8838 299.229H257.777C265.083 299.229 271 293.332 271 286.05V75.1795C271 67.8979 265.083 62.0001 257.777 62.0001Z" fill="url(#paint1_linear_509_1016)"/>
<path d="M244.555 75.1795V94.9486C244.555 98.5862 241.593 101.538 237.944 101.538H59.4387C55.7893 101.538 52.8274 98.5862 52.8274 94.9486V75.1795C52.8274 67.8979 58.7445 62.0001 66.05 62.0001H257.777C250.472 62.0001 244.555 67.8979 244.555 75.1795Z" fill="url(#paint2_linear_509_1016)"/>
<path d="M234.638 174.025H109.023C107.199 174.025 105.718 175.501 105.718 177.32V190.499C105.718 192.318 107.199 193.794 109.023 193.794H234.638C236.463 193.794 237.944 192.318 237.944 190.499V177.32C237.944 175.501 236.463 174.025 234.638 174.025Z" fill="#0F51E8"/>
<path d="M234.638 134.487H109.023C107.199 134.487 105.718 135.963 105.718 137.782V150.961C105.718 152.78 107.199 154.256 109.023 154.256H234.638C236.463 154.256 237.944 152.78 237.944 150.961V137.782C237.944 135.963 236.463 134.487 234.638 134.487Z" fill="#0F51E8"/>
<path d="M219.584 318.439L204.887 308.673L190.19 318.439C187.995 319.902 185.053 318.334 185.053 315.698V255.956H224.721V315.698C224.721 318.334 221.779 319.902 219.584 318.439Z" fill="url(#paint3_linear_509_1016)"/>
<path d="M236.172 243.388L233.858 242.005C232.873 241.411 232.206 240.443 231.908 239.342C231.901 239.323 231.895 239.303 231.888 239.283C231.577 238.169 231.67 236.983 232.239 235.975L233.548 233.622C234.89 231.217 233.171 228.258 230.414 228.212L227.69 228.166C226.533 228.146 225.469 227.632 224.655 226.822C224.649 226.809 224.642 226.802 224.629 226.795C223.809 225.985 223.3 224.917 223.28 223.771L223.234 221.056C223.188 218.308 220.219 216.601 217.806 217.932L215.466 219.25C214.448 219.81 213.264 219.903 212.147 219.6C212.127 219.593 212.107 219.586 212.081 219.58C210.97 219.277 209.998 218.618 209.41 217.636L208.021 215.329C206.6 212.97 203.175 212.97 201.754 215.329L200.372 217.623C199.777 218.611 198.792 219.283 197.681 219.586C197.668 219.593 197.662 219.593 197.648 219.6C196.518 219.909 195.321 219.817 194.303 219.25L191.956 217.952C189.543 216.614 186.574 218.328 186.528 221.076L186.475 223.784C186.455 224.931 185.94 225.998 185.127 226.809C185.113 226.815 185.107 226.828 185.1 226.835C184.287 227.652 183.216 228.16 182.066 228.179L179.342 228.225C176.585 228.272 174.872 231.23 176.208 233.636L177.517 235.988C178.079 237.003 178.171 238.182 177.867 239.296C177.861 239.316 177.854 239.342 177.848 239.355C177.543 240.463 176.876 241.431 175.897 242.018L173.583 243.402C171.216 244.818 171.216 248.232 173.583 249.649L175.897 251.032C176.882 251.625 177.55 252.594 177.848 253.695C177.854 253.714 177.861 253.734 177.867 253.754C178.178 254.868 178.086 256.054 177.517 257.062L176.208 259.415C174.866 261.82 176.585 264.779 179.342 264.825L182.066 264.871C183.223 264.891 184.287 265.405 185.1 266.215C185.107 266.222 185.113 266.228 185.127 266.241C185.946 267.052 186.455 268.12 186.475 269.266L186.522 271.981C186.568 274.729 189.536 276.436 191.949 275.105L194.31 273.8C195.328 273.24 196.511 273.147 197.629 273.451C197.648 273.457 197.675 273.457 197.695 273.464C198.805 273.767 199.777 274.426 200.366 275.408L201.754 277.714C203.175 280.073 206.6 280.073 208.021 277.714L209.41 275.408C210.005 274.426 210.977 273.76 212.081 273.464C212.101 273.457 212.127 273.457 212.147 273.451C213.264 273.141 214.454 273.233 215.466 273.8L217.826 275.105C220.239 276.442 223.208 274.729 223.254 271.981L223.3 269.266C223.32 268.113 223.836 267.052 224.649 266.241C224.662 266.235 224.669 266.228 224.675 266.215C225.488 265.398 226.56 264.891 227.71 264.871L230.434 264.825C233.191 264.779 234.903 261.82 233.567 259.415L232.258 257.062C231.696 256.047 231.604 254.868 231.908 253.754C231.915 253.734 231.915 253.714 231.921 253.695C232.225 252.588 232.887 251.619 233.872 251.032L236.186 249.649C238.539 248.219 238.539 244.805 236.172 243.388Z" fill="url(#paint4_linear_509_1016)"/>
<path d="M137.914 161.393C129.69 164.352 120.13 162.329 113.843 155.508C107.555 148.688 106.339 139.027 109.982 131.107C100.263 125.308 89.2157 121.736 77.6129 120.952C76.0791 129.545 69.5405 136.807 60.4632 138.83C51.3793 140.853 42.3681 137.057 37.3105 129.927C27.1489 135.555 18.6732 143.476 12.3594 152.846C19.0368 158.467 22.0582 167.732 19.2815 176.562C16.5047 185.399 8.71662 191.284 0.00954554 192.094C-0.0764013 197.682 0.412832 203.35 1.68881 209.043C2.96479 214.737 4.94818 220.074 7.40758 225.096C15.632 222.137 25.192 224.16 31.4793 230.98C37.7666 237.794 38.9831 247.461 35.3403 255.382C45.0589 261.181 56.1064 264.752 67.7092 265.537C69.243 256.944 75.7816 249.682 84.8589 247.659C93.9362 245.636 102.954 249.431 108.012 256.561C118.173 250.934 126.649 243.013 132.963 233.642C126.285 228.021 123.264 218.756 126.041 209.926C128.817 201.089 136.605 195.205 145.313 194.394C145.398 188.806 144.909 183.139 143.633 177.445C142.357 171.752 140.38 166.414 137.914 161.393Z" fill="url(#paint5_linear_509_1016)"/>
<path d="M72.6606 232.279C94.2874 232.279 111.819 214.804 111.819 193.248C111.819 171.692 94.2874 154.217 72.6606 154.217C51.0339 154.217 33.502 171.692 33.502 193.248C33.502 214.804 51.0339 232.279 72.6606 232.279Z" fill="url(#paint6_linear_509_1016)"/>
<path d="M72.6613 217.004C85.8243 217.004 96.495 206.368 96.495 193.248C96.495 180.128 85.8243 169.492 72.6613 169.492C59.4983 169.492 48.8276 180.128 48.8276 193.248C48.8276 206.368 59.4983 217.004 72.6613 217.004Z" fill="url(#paint7_linear_509_1016)"/>
<path d="M137.914 161.393C129.69 164.352 120.13 162.329 113.843 155.508C107.555 148.688 106.339 139.027 109.982 131.107C100.263 125.308 89.2157 121.736 77.6129 120.952C76.0791 129.545 69.5405 136.807 60.4632 138.83C51.3793 140.853 42.3681 137.057 37.3105 129.927C27.1489 135.555 18.6732 143.476 12.3594 152.846C19.0368 158.467 22.0582 167.732 19.2815 176.562C16.5047 185.399 8.71662 191.284 0.00954554 192.094C-0.0764013 197.682 0.412832 203.35 1.68881 209.043C2.96479 214.737 4.94818 220.074 7.40758 225.096C15.632 222.137 25.192 224.16 31.4793 230.98C37.7666 237.794 38.9831 247.461 35.3403 255.382C45.0589 261.181 56.1064 264.752 67.7092 265.537C69.243 256.944 75.7816 249.682 84.8589 247.659C93.9362 245.636 102.954 249.431 108.012 256.561C118.173 250.934 126.649 243.013 132.963 233.642C126.285 228.021 123.264 218.756 126.041 209.926C128.817 201.089 136.605 195.205 145.313 194.394C145.398 188.806 144.909 183.139 143.633 177.445C142.357 171.752 140.38 166.414 137.914 161.393Z" fill="url(#paint8_linear_509_1016)"/>
<path d="M72.6613 233.333C94.5692 233.333 112.329 215.631 112.329 193.795C112.329 171.958 94.5692 154.256 72.6613 154.256C50.7534 154.256 32.9935 171.958 32.9935 193.795C32.9935 215.631 50.7534 233.333 72.6613 233.333Z" fill="url(#paint9_linear_509_1016)"/>
<path d="M72.6612 220.153C87.2665 220.153 99.1064 208.352 99.1064 193.795C99.1064 179.237 87.2665 167.436 72.6612 167.436C58.056 167.436 46.2161 179.237 46.2161 193.795C46.2161 208.352 58.056 220.153 72.6612 220.153Z" fill="url(#paint10_linear_509_1016)"/>
</g>
<defs>
<linearGradient id="paint0_linear_509_1016" x1="408.027" y1="111.94" x2="111.298" y2="364.768" gradientUnits="userSpaceOnUse">
<stop stop-color="#540B8D"/>
<stop offset="1" stop-color="#080E1E" stop-opacity="0"/>
</linearGradient>
<linearGradient id="paint1_linear_509_1016" x1="171.831" y1="62.0001" x2="171.831" y2="299.229" gradientUnits="userSpaceOnUse">
<stop stop-color="#1058FB"/>
<stop offset="1" stop-color="#001441"/>
</linearGradient>
<linearGradient id="paint2_linear_509_1016" x1="155.302" y1="62.0001" x2="155.302" y2="101.538" gradientUnits="userSpaceOnUse">
<stop stop-color="#1058FB"/>
<stop offset="1" stop-color="#001441"/>
</linearGradient>
<linearGradient id="paint3_linear_509_1016" x1="204.887" y1="255.956" x2="204.887" y2="319.309" gradientUnits="userSpaceOnUse">
<stop stop-color="#8C20E5"/>
<stop offset="0.427" stop-color="#9E32EB"/>
<stop offset="1" stop-color="#BD4FF4"/>
</linearGradient>
<linearGradient id="paint4_linear_509_1016" x1="188.082" y1="217.399" x2="221.397" y2="275.489" gradientUnits="userSpaceOnUse">
<stop stop-color="#FFDA1C"/>
<stop offset="1" stop-color="#FEB705"/>
</linearGradient>
<linearGradient id="paint5_linear_509_1016" x1="13.5517" y1="155.716" x2="136.94" y2="234.302" gradientUnits="userSpaceOnUse">
<stop stop-color="#889097"/>
<stop offset="0.331" stop-color="#848C94"/>
<stop offset="0.669" stop-color="#78828B"/>
<stop offset="1" stop-color="#64717C"/>
</linearGradient>
<linearGradient id="paint6_linear_509_1016" x1="105.267" y1="213.748" x2="39.8024" y2="172.055" gradientUnits="userSpaceOnUse">
<stop stop-color="white"/>
<stop offset="0.242" stop-color="#F2F2F2"/>
<stop offset="1" stop-color="#CCCCCC"/>
</linearGradient>
<linearGradient id="paint7_linear_509_1016" x1="46.0578" y1="176.284" x2="92.6841" y2="205.98" gradientUnits="userSpaceOnUse">
<stop stop-color="#0D61A9"/>
<stop offset="0.363" stop-color="#0E5FA4"/>
<stop offset="0.78" stop-color="#135796"/>
<stop offset="1" stop-color="#16528C"/>
</linearGradient>
<linearGradient id="paint8_linear_509_1016" x1="13.5517" y1="155.716" x2="136.94" y2="234.302" gradientUnits="userSpaceOnUse">
<stop stop-color="#889097"/>
<stop offset="0.331" stop-color="#848C94"/>
<stop offset="0.669" stop-color="#78828B"/>
<stop offset="1" stop-color="#64717C"/>
</linearGradient>
<linearGradient id="paint9_linear_509_1016" x1="100.296" y1="221.34" x2="44.8378" y2="165.699" gradientUnits="userSpaceOnUse">
<stop stop-color="white"/>
<stop offset="0.242" stop-color="#F2F2F2"/>
<stop offset="1" stop-color="#CCCCCC"/>
</linearGradient>
<linearGradient id="paint10_linear_509_1016" x1="72.6612" y1="167.436" x2="72.6612" y2="220.153" gradientUnits="userSpaceOnUse">
<stop stop-color="#1058FB"/>
<stop offset="1" stop-color="#001441"/>
</linearGradient>
<clipPath id="clip0_509_1016">
<rect width="271" height="257" fill="white" transform="translate(0 62.0001)"/>
</clipPath>
</defs>
</svg>
