<svg width="431" height="351" viewBox="0 0 431 351" fill="none" xmlns="http://www.w3.org/2000/svg">
<circle cx="183" cy="179.001" r="61" fill="#FFA724"/>
<path fill-rule="evenodd" clip-rule="evenodd" d="M194.028 321.042C157.904 312.497 117.564 320.956 86.9687 299.994C53.4585 277.035 31.4631 240.35 19.6998 201.602C7.01418 159.815 -7.41368 108.755 18.1663 73.3562C44.3728 37.0898 100.639 45.5885 143.043 30.9113C172.703 20.6452 198.574 1.02991 229.974 0.0433931C261.415 -0.944432 289.153 15.1582 318.901 25.3861C357.237 38.5667 419.956 29.6298 429.865 68.7694C440.816 112.029 369.217 135.191 357.598 178.244C348.742 211.056 385.227 244.895 373.702 276.872C361.452 310.86 331.129 340.754 295.903 349.414C260.987 357.998 229.043 329.324 194.028 321.042Z" fill="url(#paint0_linear_509_1094)"/>
<circle r="80" transform="matrix(-1 0 0 1 144 179.001)" fill="#1058FB" stroke="#1C294C" stroke-width="10"/>
<path fill-rule="evenodd" clip-rule="evenodd" d="M187.916 239.806C206.748 226.181 219 204.022 219 179.001C219 153.981 206.748 131.822 187.916 118.197C186.294 118.067 184.655 118.001 183 118.001C149.311 118.001 122 145.312 122 179.001C122 212.691 149.311 240.001 183 240.001C184.655 240.001 186.294 239.936 187.916 239.806Z" fill="#FFA724"/>
<path fill-rule="evenodd" clip-rule="evenodd" d="M218.93 175.74C218.82 173.162 218.58 170.619 218.216 168.116C214.02 167.835 210 166.634 210 161.501H201V188.951H189V196.501H216.947C217.538 194.03 218.007 191.511 218.346 188.951H209.95L209.9 172.451C212.696 174.916 215.951 175.567 218.93 175.74ZM146.686 178.951C146.686 190.551 153.336 197.001 167.186 197.001C181.086 197.001 187.686 190.601 187.686 178.951C187.686 167.351 181.086 161.001 167.186 161.001C153.336 161.001 146.686 167.401 146.686 178.951ZM178.686 178.951C178.686 185.551 175.086 189.451 167.186 189.451C159.286 189.451 155.686 185.501 155.686 178.951C155.686 172.451 159.286 168.551 167.186 168.551C175.086 168.551 178.686 172.401 178.686 178.951Z" fill="white"/>
<circle opacity="0.4" r="75" transform="matrix(-1 0 0 1 144 179.001)" fill="url(#paint1_linear_509_1094)"/>
<circle cx="61" cy="179.001" r="61" fill="#FFA724"/>
<path d="M45 188.951V161.501H36C36 168.201 29.15 168.201 24 168.201V175.801C27.65 175.801 32.3 175.801 36.1 172.451L36.05 188.951H24V196.501H57V188.951H45Z" fill="white"/>
<path d="M78.8145 197.001C92.6645 197.001 99.3145 190.551 99.3145 178.951C99.3145 167.401 92.6645 161.001 78.8145 161.001C64.9145 161.001 58.3145 167.351 58.3145 178.951C58.3145 190.601 64.9145 197.001 78.8145 197.001ZM78.8145 189.451C70.9145 189.451 67.3145 185.551 67.3145 178.951C67.3145 172.401 70.9145 168.551 78.8145 168.551C86.7145 168.551 90.3145 172.451 90.3145 178.951C90.3145 185.501 86.7145 189.451 78.8145 189.451Z" fill="white"/>
<path d="M16 200.001C10.5 200.001 6 204.501 6 210.001V214.001H10V210.001C10 206.701 12.7 204.001 16 204.001C19.3 204.001 22 206.701 22 210.001V214.001H26V210.001C26 204.501 21.5 200.001 16 200.001Z" fill="#1C294C"/>
<path d="M28 240.001H4C1.8 240.001 0 238.201 0 236.001V218.001C0 215.801 1.8 214.001 4 214.001H28C30.2 214.001 32 215.801 32 218.001V236.001C32 238.201 30.2 240.001 28 240.001Z" fill="#1058FB"/>
<path d="M16 224.001C15.2044 224.001 14.4413 224.317 13.8787 224.88C13.3161 225.442 13 226.205 13 227.001C13 227.797 13.3161 228.56 13.8787 229.122C14.4413 229.685 15.2044 230.001 16 230.001C16.7956 230.001 17.5587 229.685 18.1213 229.122C18.6839 228.56 19 227.797 19 227.001C19 226.205 18.6839 225.442 18.1213 224.88C17.5587 224.317 16.7956 224.001 16 224.001Z" fill="white"/>
<defs>
<linearGradient id="paint0_linear_509_1094" x1="90.0263" y1="365.954" x2="359.491" y2="213.171" gradientUnits="userSpaceOnUse">
<stop stop-color="#540B8D"/>
<stop offset="1" stop-color="#080E1E" stop-opacity="0"/>
</linearGradient>
<linearGradient id="paint1_linear_509_1094" x1="102" y1="0" x2="102" y2="136" gradientUnits="userSpaceOnUse">
<stop stop-color="white"/>
<stop offset="1" stop-color="white" stop-opacity="0"/>
</linearGradient>
</defs>
</svg>
