<svg width="144" height="144" viewBox="0 0 144 144" fill="none" xmlns="http://www.w3.org/2000/svg">
<path d="M75 27H69V48H75V27Z" fill="#99260F"/>
<path d="M93 27H87V48H93V27Z" fill="#99260F"/>
<path d="M111 27H105V48H111V27Z" fill="#99260F"/>
<path d="M129 27H123V48H129V27Z" fill="#99260F"/>
<path d="M21 27H15V48H21V27Z" fill="#99260F"/>
<path d="M39 27H33V48H39V27Z" fill="#99260F"/>
<path d="M57 27H51V48H57V27Z" fill="#99260F"/>
<path d="M135 48H9V60C18.942 60 27 68.058 27 78V105H45V87C45 72.087 57.087 60 72 60C86.913 60 99 72.087 99 87V105H117V78C117 68.058 125.058 60 135 60V48Z" fill="#B63016"/>
<path d="M126 99C121.029 99 117 96 117 96C117 96 112.971 99 108 99C103.029 99 99 96 99 96C99 96 94.971 99 90 99C85.029 99 81 96 81 96C81 96 76.971 99 72 99C67.029 99 63 96 63 96C63 96 58.971 99 54 99C49.029 99 45 96 45 96C45 96 40.971 99 36 99C31.029 99 27 96 27 96C27 96 22.971 99 18 99C13.029 99 9 96 9 96V120C9 123.315 11.685 126 15 126H81H108H129C132.315 126 135 123.315 135 120V96C135 96 130.971 99 126 99Z" fill="url(#paint0_linear_509_1233)"/>
<path d="M135 21H9V27H135V21Z" fill="#D35230"/>
<defs>
<linearGradient id="paint0_linear_509_1233" x1="72" y1="95.853" x2="72" y2="125.982" gradientUnits="userSpaceOnUse">
<stop stop-color="#2AA4F4"/>
<stop offset="1" stop-color="#007AD9"/>
</linearGradient>
</defs>
</svg>
