<svg width="423" height="418" viewBox="0 0 423 418" fill="none" xmlns="http://www.w3.org/2000/svg">
<path fill-rule="evenodd" clip-rule="evenodd" d="M0.599782 215.528C-2.39913 169.74 5.31454 120.153 35.8807 85.9698C65.399 52.9584 115.234 54.685 157.141 40.4621C199.787 25.9884 239.475 -8.70927 283.208 2.02839C327.612 12.9309 354.494 56.7323 379.507 95.0591C403.389 131.655 426.577 171.997 422.539 215.528C418.651 257.445 391.577 294.696 358.57 320.763C330.314 343.077 289.162 331.572 256.486 346.665C216.309 365.222 192.434 420.778 148.285 417.892C104.633 415.037 77.8926 368.67 52.0798 333.3C26.1966 297.834 3.47078 259.363 0.599782 215.528Z" fill="url(#paint0_linear_509_995)"/>
<defs>
<linearGradient id="paint0_linear_509_995" x1="-74.1623" y1="152.625" x2="142.027" y2="425.8" gradientUnits="userSpaceOnUse">
<stop stop-color="#540B8D"/>
<stop offset="1" stop-color="#080E1E" stop-opacity="0"/>
</linearGradient>
</defs>
</svg>
