<svg width="424" height="391" viewBox="0 0 424 391" fill="none" xmlns="http://www.w3.org/2000/svg">
<path fill-rule="evenodd" clip-rule="evenodd" d="M400.966 205.503C389.203 231.298 361.083 244.805 345.187 268.278C331.93 287.852 329.32 312.534 315.493 331.71C299.136 354.394 284.649 385.763 257.088 390.46C229.066 395.236 206.435 367.076 180.863 354.656C160.283 344.661 141.626 332.557 120.381 324.067C90.6417 312.182 50.9201 318.93 30.2446 294.463C10.7419 271.384 24.0603 235.475 20.19 205.503C15.7894 171.424 -11.7193 134.328 5.74538 104.739C23.7704 74.201 73.2088 84.3475 103.025 65.1646C129.101 48.3874 137.324 4.24242 168.075 0.299076C199.872 -3.77823 221.194 34.9905 251.244 46.1582C276.701 55.6186 304.878 51.2859 330.382 60.6176C362.021 72.1941 403.8 77.0813 418.559 107.378C433.297 137.628 414.928 174.886 400.966 205.503Z" fill="url(#paint0_linear_509_994)"/>
<defs>
<linearGradient id="paint0_linear_509_994" x1="498.338" y1="248.234" x2="299.745" y2="-20.669" gradientUnits="userSpaceOnUse">
<stop stop-color="#540B8D"/>
<stop offset="1" stop-color="#080E1E" stop-opacity="0"/>
</linearGradient>
</defs>
</svg>
