<svg width="455" height="407" viewBox="0 0 455 407" fill="none" xmlns="http://www.w3.org/2000/svg">
<path fill-rule="evenodd" clip-rule="evenodd" d="M416.195 143.404C428.716 170.577 451.242 193.773 454.422 223.525C457.687 254.073 446.602 284.283 434.257 312.386C421.614 341.167 410.906 378.111 381.593 389.315C349.375 401.629 315.307 369.087 280.871 371.012C255.156 372.45 235.102 394.528 209.726 398.925C179.759 404.117 145.885 414.126 119.473 398.977C93.3146 383.974 92.513 345.736 74.6109 321.431C55.6549 295.695 23.2171 280.79 10.7374 251.351C-2.30104 220.593 -1.55887 185.607 3.00766 152.52C7.81706 117.673 12.91 78.8399 37.946 54.2068C63.1721 29.3867 103.32 30.2578 137.282 20.4066C166.284 11.994 194.37 -1.14412 224.547 0.0797652C253.81 1.2666 280.117 15.909 307.122 27.2949C333.378 38.3652 362.528 45.6993 382.059 66.4902C401.464 87.1472 404.326 117.648 416.195 143.404Z" fill="url(#paint0_linear_509_996)"/>
<defs>
<linearGradient id="paint0_linear_509_996" x1="488.002" y1="98.856" x2="63.4078" y2="319.537" gradientUnits="userSpaceOnUse">
<stop stop-color="#540B8D"/>
<stop offset="1" stop-color="#080E1E" stop-opacity="0"/>
</linearGradient>
</defs>
</svg>
