<svg width="270" height="217" viewBox="0 0 270 217" fill="none" xmlns="http://www.w3.org/2000/svg">
<path fill-rule="evenodd" clip-rule="evenodd" d="M134.119 207.5C111.913 202.511 94.6469 188.372 74.5194 177.74C49.8478 164.709 13.5308 164.135 3.03791 138.263C-7.37507 112.589 11.0452 83.401 27.103 60.8294C40.2415 42.3612 63.4891 36.641 83.2355 25.5337C100.107 16.0435 114.912 3.01324 134.119 0.633527C155.12 -1.96854 175.421 3.78486 195.058 11.6788C220.767 22.0135 252.457 28.2987 264.754 53.1479C277.276 78.4538 264.506 108.349 256.261 135.356C247.865 162.856 241.688 195.129 216.947 209.743C192.564 224.145 161.743 213.708 134.119 207.5Z" fill="url(#paint0_linear_509_1033)"/>
<defs>
<linearGradient id="paint0_linear_509_1033" x1="107.861" y1="-52.2737" x2="265.871" y2="203.824" gradientUnits="userSpaceOnUse">
<stop stop-color="#540B8D"/>
<stop offset="1" stop-color="#080E1E" stop-opacity="0"/>
</linearGradient>
</defs>
</svg>
