<svg width="1135" height="728" viewBox="0 0 1135 728" fill="none" xmlns="http://www.w3.org/2000/svg">
<path fill-rule="evenodd" clip-rule="evenodd" d="M1134.48 363.074C1135.93 407.304 1127.04 451.918 1100.56 492.94C1074.2 533.783 1029.39 568.475 981.201 600.588C933.344 632.484 879.252 660.148 818.007 681.256C755.652 702.746 689.274 720.961 618.472 725.599C547.437 730.252 474.443 724.31 407.87 708.123C342.932 692.333 292.646 660.824 238.684 633.252C186.001 606.335 128.736 582.033 91.437 546.447C53.8626 510.597 36.6851 468.431 22.0357 426.552C7.15869 384.023 -7.56066 340.421 4.36423 297.529C16.324 254.511 52.7796 216.07 90.7405 179.431C128.334 143.147 173.07 110.239 226.684 82.953C281.14 55.2385 341.18 31.734 407.873 18.0316C475.513 4.13459 547.891 -4.56163 618.181 2.51852C687.59 9.51008 743.872 39.3775 807.359 58.2715C871.73 77.4285 947.916 84.2685 998.489 115.699C1049.24 147.242 1068.86 192.925 1092.13 235.252C1114.95 276.752 1133.05 319.196 1134.48 363.074Z" fill="url(#paint0_linear_509_1007)"/>
<defs>
<linearGradient id="paint0_linear_509_1007" x1="410.355" y1="-152.305" x2="396.577" y2="389.337" gradientUnits="userSpaceOnUse">
<stop stop-color="#540B8D"/>
<stop offset="1" stop-color="#080E1E" stop-opacity="0"/>
</linearGradient>
</defs>
</svg>
