<svg width="144" height="144" viewBox="0 0 144 144" fill="none" xmlns="http://www.w3.org/2000/svg">
<path d="M129 126H15C13.341 126 12 124.659 12 123C12 121.341 13.341 120 15 120H129C130.659 120 132 121.341 132 123C132 124.659 130.659 126 129 126Z" fill="#64717C"/>
<path d="M15.003 105C14.136 105 13.278 104.628 12.687 103.908C11.631 102.627 11.817 100.737 13.095 99.687C13.218 99.585 17.976 95.61 23.781 88.989C22.68 87.438 21.627 85.755 20.628 83.946C15.222 74.172 12 61.854 12 51C12 29.13 20.244 15 33 15C46.113 15 51 31.563 51 42C51 60.918 40.806 77.781 31.557 89.184C35.4 93.36 39.933 96 45 96C53.25 96 59.865 93.321 64.941 89.013C59.832 82.569 57 72.543 57 62.718C57 46.488 62.889 36 72 36C79.404 36 84 44.049 84 57C84 68.55 80.43 80.172 73.446 88.707C74.856 89.541 76.38 90 78 90C93.6 90 95.988 63.027 96.009 62.754C96.138 61.197 97.437 60 99 60C104.937 60 106.704 66.459 108.261 72.162C109.395 76.305 110.679 81 112.881 81C114.318 81 115.545 76.08 116.355 72.825C118.02 66.147 120.3 57 129 57C130.659 57 132 58.341 132 60C132 61.659 130.659 63 129 63C125.265 63 123.873 67.464 122.178 74.277C120.69 80.241 119.007 87 112.881 87C106.095 87 104.088 79.65 102.474 73.743C102.111 72.423 101.64 70.689 101.103 69.201C99.225 78.669 93.648 96 78 96C74.727 96 71.787 94.95 69.207 93.126C63.021 98.595 54.93 102 45 102C38.784 102 32.85 99.129 27.678 93.735C22.011 100.065 17.409 103.902 16.908 104.316C16.347 104.778 15.675 105 15.003 105ZM72 42C66.786 42 63 50.712 63 62.718C63 70.851 65.298 79.335 69.165 84.642C75.153 77.124 78 66.864 78 57C78 48.168 75.534 42 72 42ZM33 21C22.638 21 18 36.066 18 51C18 61.341 21.588 74.739 27.744 84.216C36.132 73.575 45 58.437 45 42C45 35.421 41.979 21 33 21Z" fill="#0D62AB"/>
<path d="M125.369 88.9505C123.558 89.6054 121.453 89.1576 120.068 87.6481C118.684 86.1386 118.416 84.0005 119.218 82.2475C117.078 80.964 114.645 80.1736 112.09 80C111.753 81.9018 110.313 83.509 108.314 83.9568C106.314 84.4045 104.329 83.5645 103.216 81.9864C100.978 83.2319 99.1119 84.985 97.7216 87.0589C99.1919 88.303 99.8572 90.3536 99.2458 92.3079C98.6344 94.2637 96.9194 95.5661 95.0021 95.7455C94.9832 96.9823 95.0909 98.2365 95.3719 99.4966C95.6528 100.757 96.0896 101.938 96.6312 103.049C98.4422 102.395 100.547 102.842 101.932 104.352C103.316 105.86 103.584 107.999 102.782 109.753C104.922 111.036 107.355 111.826 109.91 112C110.247 110.098 111.687 108.491 113.686 108.043C115.685 107.595 117.671 108.436 118.784 110.014C121.022 108.768 122.888 107.015 124.278 104.941C122.808 103.697 122.143 101.646 122.754 99.6921C123.366 97.7363 125.081 96.4339 126.998 96.2545C127.017 95.0177 126.909 93.7635 126.628 92.5033C126.347 91.2432 125.912 90.0619 125.369 88.9505Z" fill="url(#paint0_linear_509_1198)"/>
<path d="M110.724 104.276C115.447 104.276 119.276 100.447 119.276 95.7242C119.276 91.0012 115.447 87.1725 110.724 87.1725C106.001 87.1725 102.172 91.0012 102.172 95.7242C102.172 100.447 106.001 104.276 110.724 104.276Z" fill="url(#paint1_linear_509_1198)"/>
<path d="M110.724 100.965C113.619 100.965 115.966 98.6188 115.966 95.724C115.966 92.8293 113.619 90.4827 110.724 90.4827C107.829 90.4827 105.483 92.8293 105.483 95.724C105.483 98.6188 107.829 100.965 110.724 100.965Z" fill="url(#paint2_linear_509_1198)"/>
<path d="M125.369 88.9505C123.558 89.6054 121.453 89.1576 120.068 87.6481C118.684 86.1386 118.416 84.0005 119.218 82.2475C117.078 80.964 114.645 80.1736 112.09 80C111.753 81.9018 110.313 83.509 108.314 83.9568C106.314 84.4045 104.329 83.5645 103.216 81.9864C100.978 83.2319 99.1119 84.985 97.7216 87.0589C99.1919 88.303 99.8572 90.3536 99.2458 92.3079C98.6344 94.2637 96.9194 95.5661 95.0021 95.7455C94.9832 96.9823 95.0909 98.2365 95.3719 99.4966C95.6528 100.757 96.0896 101.938 96.6312 103.049C98.4422 102.395 100.547 102.842 101.932 104.352C103.316 105.86 103.584 107.999 102.782 109.753C104.922 111.036 107.355 111.826 109.91 112C110.247 110.098 111.687 108.491 113.686 108.043C115.685 107.595 117.671 108.436 118.784 110.014C121.022 108.768 122.888 107.015 124.278 104.941C122.808 103.697 122.143 101.646 122.754 99.6921C123.366 97.7363 125.081 96.4339 126.998 96.2545C127.017 95.0177 126.909 93.7635 126.628 92.5033C126.347 91.2432 125.912 90.0619 125.369 88.9505Z" fill="url(#paint3_linear_509_1198)"/>
<path d="M111 104.828C115.875 104.828 119.828 100.875 119.828 96.0001C119.828 91.1247 115.875 87.1725 111 87.1725C106.125 87.1725 102.172 91.1247 102.172 96.0001C102.172 100.875 106.125 104.828 111 104.828Z" fill="url(#paint4_linear_509_1198)"/>
<path d="M111 102.069C114.352 102.069 117.069 99.3518 117.069 96C117.069 92.6482 114.352 89.931 111 89.931C107.648 89.931 104.931 92.6482 104.931 96C104.931 99.3518 107.648 102.069 111 102.069Z" fill="url(#paint5_linear_509_1198)"/>
<defs>
<linearGradient id="paint0_linear_509_1198" x1="97.9841" y1="87.6941" x2="125.234" y2="104.961" gradientUnits="userSpaceOnUse">
<stop stop-color="#889097"/>
<stop offset="0.331" stop-color="#848C94"/>
<stop offset="0.669" stop-color="#78828B"/>
<stop offset="1" stop-color="#64717C"/>
</linearGradient>
<linearGradient id="paint1_linear_509_1198" x1="117.845" y1="100.216" x2="103.521" y2="91.1232" gradientUnits="userSpaceOnUse">
<stop stop-color="white"/>
<stop offset="0.242" stop-color="#F2F2F2"/>
<stop offset="1" stop-color="#CCCCCC"/>
</linearGradient>
<linearGradient id="paint2_linear_509_1198" x1="104.874" y1="91.9812" x2="115.147" y2="98.5028" gradientUnits="userSpaceOnUse">
<stop stop-color="#0D61A9"/>
<stop offset="0.363" stop-color="#0E5FA4"/>
<stop offset="0.78" stop-color="#135796"/>
<stop offset="1" stop-color="#16528C"/>
</linearGradient>
<linearGradient id="paint3_linear_509_1198" x1="97.9841" y1="87.6941" x2="125.234" y2="104.961" gradientUnits="userSpaceOnUse">
<stop stop-color="#889097"/>
<stop offset="0.331" stop-color="#848C94"/>
<stop offset="0.669" stop-color="#78828B"/>
<stop offset="1" stop-color="#64717C"/>
</linearGradient>
<linearGradient id="paint4_linear_509_1198" x1="117.15" y1="102.15" x2="104.768" y2="89.7678" gradientUnits="userSpaceOnUse">
<stop stop-color="white"/>
<stop offset="0.242" stop-color="#F2F2F2"/>
<stop offset="1" stop-color="#CCCCCC"/>
</linearGradient>
<linearGradient id="paint5_linear_509_1198" x1="111" y1="89.931" x2="111" y2="102.069" gradientUnits="userSpaceOnUse">
<stop stop-color="#1058FB"/>
<stop offset="1" stop-color="#001441"/>
</linearGradient>
</defs>
</svg>
