<svg width="211" height="138" viewBox="0 0 211 138" fill="none" xmlns="http://www.w3.org/2000/svg">
<path fill-rule="evenodd" clip-rule="evenodd" d="M103.14 137.365C64.262 137.063 15.7598 141.173 2.88149 104.826C-10.4361 67.2384 24.8478 33.4367 58.7047 11.9515C85.8432 -5.27026 118.953 -3.23745 146.133 13.9201C181.004 35.9332 221.847 67.6958 208.36 106.422C195.166 144.306 143.587 137.68 103.14 137.365Z" fill="url(#paint0_linear_5_49)"/>
<path d="M48.997 83.9998C47.488 83.9998 46.186 82.8658 46.018 81.3298C45.835 79.6828 47.023 78.2008 48.67 78.0178L74.734 75.1228L98.026 54.7408C98.296 54.5038 98.608 54.3148 98.947 54.1888L122.341 45.4168L145.882 21.8758C147.055 20.7028 148.951 20.7028 150.124 21.8758C151.297 23.0488 151.297 24.9448 150.124 26.1178L126.124 50.1178C125.821 50.4208 125.455 50.6548 125.059 50.8048L101.569 59.6128L77.98 80.2558C77.521 80.6578 76.945 80.9128 76.336 80.9788L49.336 83.9788C49.219 83.9938 49.105 83.9998 48.997 83.9998Z" fill="#107C42"/>
<path d="M160 65.9999V138H136V65.9999C136 64.3439 137.344 62.9999 139 62.9999H157C158.656 62.9999 160 64.3439 160 65.9999Z" fill="#61E3A7"/>
<path d="M136 83.9999V138H112V86.9999C112 85.3439 113.344 83.9999 115 83.9999H136Z" fill="#33C481"/>
<path d="M112 95.9999V138H88V98.9999C88 97.3439 89.344 95.9999 91 95.9999H112Z" fill="#21A366"/>
<path d="M88 108V138H64V111C64 109.344 65.344 108 67 108H88Z" fill="#107C42"/>
<path d="M64 120V138H40V123C40 121.344 41.344 120 43 120H64Z" fill="#185C37"/>
<path d="M124 53.9999C127.314 53.9999 130 51.3136 130 47.9999C130 44.6862 127.314 41.9999 124 41.9999C120.686 41.9999 118 44.6862 118 47.9999C118 51.3136 120.686 53.9999 124 53.9999Z" fill="#33C481"/>
<path d="M100 62.9999C103.314 62.9999 106 60.3136 106 56.9999C106 53.6862 103.314 50.9999 100 50.9999C96.6863 50.9999 94 53.6862 94 56.9999C94 60.3136 96.6863 62.9999 100 62.9999Z" fill="#33C481"/>
<path d="M76 83.9999C79.3137 83.9999 82 81.3136 82 77.9999C82 74.6862 79.3137 71.9999 76 71.9999C72.6863 71.9999 70 74.6862 70 77.9999C70 81.3136 72.6863 83.9999 76 83.9999Z" fill="#33C481"/>
<path d="M49 86.9999C52.3137 86.9999 55 84.3136 55 80.9999C55 77.6862 52.3137 74.9999 49 74.9999C45.6863 74.9999 43 77.6862 43 80.9999C43 84.3136 45.6863 86.9999 49 86.9999Z" fill="#33C481"/>
<path d="M151.042 35.7479L153.61 20.3429C153.802 19.1939 152.806 18.1979 151.657 18.3899L136.252 20.9579C134.89 21.1859 134.356 22.8569 135.331 23.8319L148.168 36.6689C149.143 37.6439 150.814 37.1099 151.042 35.7479Z" fill="#33C481"/>
<defs>
<linearGradient id="paint0_linear_5_49" x1="83.7566" y1="-36.7525" x2="176.654" y2="145.32" gradientUnits="userSpaceOnUse">
<stop stop-color="#540B8D"/>
<stop offset="1" stop-color="#080E1E" stop-opacity="0"/>
</linearGradient>
</defs>
</svg>
