<svg width="178" height="170" viewBox="0 0 178 170" fill="none" xmlns="http://www.w3.org/2000/svg">
<path fill-rule="evenodd" clip-rule="evenodd" d="M79.7012 0.0479724C125.229 -1.61081 136.828 40.1026 150.445 70.161C163.346 98.6379 181.221 131.93 148.138 151.114C109.69 173.408 48.7355 174.061 11.9319 150.479C-18.092 131.242 16.547 101.608 28.7157 74.5962C41.7857 45.5838 35.7793 1.64823 79.7012 0.0479724Z" fill="url(#paint0_linear_5_63)"/>
<path d="M112 71H106V89H112V71Z" fill="url(#paint1_linear_5_63)"/>
<path d="M55 128H61V158H55C53.0302 158 51.0796 157.612 49.2597 156.858C47.4399 156.104 45.7863 154.999 44.3934 153.607C41.5804 150.794 40 146.978 40 143C40 139.022 41.5804 135.206 44.3934 132.393C47.2064 129.58 51.0218 128 55 128Z" fill="url(#paint2_linear_5_63)"/>
<path d="M157 128H163C166.978 128 170.794 129.58 173.607 132.393C176.42 135.206 178 139.022 178 143C178 146.978 176.42 150.794 173.607 153.607C170.794 156.42 166.978 158 163 158H157V128Z" fill="url(#paint3_linear_5_63)"/>
<path d="M109 86C123.322 86 137.057 91.6893 147.184 101.816C157.311 111.943 163 125.678 163 140V164C163 165.591 162.368 167.117 161.243 168.243C160.117 169.368 158.591 170 157 170H61C59.4087 170 57.8826 169.368 56.7574 168.243C55.6321 167.117 55 165.591 55 164V140C55 125.678 60.6893 111.943 70.8162 101.816C80.9432 91.6893 94.6783 86 109 86Z" fill="#199BE2"/>
<path d="M85 158C94.9411 158 103 149.941 103 140C103 130.059 94.9411 122 85 122C75.0589 122 67 130.059 67 140C67 149.941 75.0589 158 85 158Z" fill="url(#paint4_linear_5_63)"/>
<path d="M133 158C142.941 158 151 149.941 151 140C151 130.059 142.941 122 133 122C123.059 122 115 130.059 115 140C115 149.941 123.059 158 133 158Z" fill="url(#paint5_linear_5_63)"/>
<path d="M133 152C139.627 152 145 146.627 145 140C145 133.373 139.627 128 133 128C126.373 128 121 133.373 121 140C121 146.627 126.373 152 133 152Z" fill="#50E6FF"/>
<path d="M133 146C136.314 146 139 143.314 139 140C139 136.686 136.314 134 133 134C129.686 134 127 136.686 127 140C127 143.314 129.686 146 133 146Z" fill="url(#paint6_linear_5_63)"/>
<path d="M85 152C91.6274 152 97 146.627 97 140C97 133.373 91.6274 128 85 128C78.3726 128 73 133.373 73 140C73 146.627 78.3726 152 85 152Z" fill="#50E6FF"/>
<path d="M85 146C88.3137 146 91 143.314 91 140C91 136.686 88.3137 134 85 134C81.6863 134 79 136.686 79 140C79 143.314 81.6863 146 85 146Z" fill="url(#paint7_linear_5_63)"/>
<path d="M109 77C112.314 77 115 74.3137 115 71C115 67.6863 112.314 65 109 65C105.686 65 103 67.6863 103 71C103 74.3137 105.686 77 109 77Z" fill="#199BE2"/>
<defs>
<linearGradient id="paint0_linear_5_63" x1="66.2908" y1="-44.7422" x2="201.965" y2="128.137" gradientUnits="userSpaceOnUse">
<stop stop-color="#540B8D"/>
<stop offset="1" stop-color="#080E1E" stop-opacity="0"/>
</linearGradient>
<linearGradient id="paint1_linear_5_63" x1="109" y1="74.327" x2="109" y2="87.704" gradientUnits="userSpaceOnUse">
<stop stop-color="#0077D2"/>
<stop offset="1" stop-color="#0B59A2"/>
</linearGradient>
<linearGradient id="paint2_linear_5_63" x1="134.5" y1="929.51" x2="134.5" y2="1381.58" gradientUnits="userSpaceOnUse">
<stop stop-color="#0077D2"/>
<stop offset="1" stop-color="#0B59A2"/>
</linearGradient>
<linearGradient id="paint3_linear_5_63" x1="1070.5" y1="929.51" x2="1070.5" y2="1381.58" gradientUnits="userSpaceOnUse">
<stop stop-color="#0077D2"/>
<stop offset="1" stop-color="#0B59A2"/>
</linearGradient>
<linearGradient id="paint4_linear_5_63" x1="643" y1="1023.94" x2="643" y2="1687.82" gradientUnits="userSpaceOnUse">
<stop stop-color="#0077D2"/>
<stop offset="1" stop-color="#0B59A2"/>
</linearGradient>
<linearGradient id="paint5_linear_5_63" x1="1267" y1="1023.94" x2="1267" y2="1687.82" gradientUnits="userSpaceOnUse">
<stop stop-color="#0077D2"/>
<stop offset="1" stop-color="#0B59A2"/>
</linearGradient>
<linearGradient id="paint6_linear_5_63" x1="511" y1="434.648" x2="511" y2="655.94" gradientUnits="userSpaceOnUse">
<stop stop-color="#0077D2"/>
<stop offset="1" stop-color="#0B59A2"/>
</linearGradient>
<linearGradient id="paint7_linear_5_63" x1="271" y1="434.648" x2="271" y2="655.94" gradientUnits="userSpaceOnUse">
<stop stop-color="#0077D2"/>
<stop offset="1" stop-color="#0B59A2"/>
</linearGradient>
</defs>
</svg>
