<svg width="187" height="151" viewBox="0 0 187 151" fill="none" xmlns="http://www.w3.org/2000/svg">
<path fill-rule="evenodd" clip-rule="evenodd" d="M89.1877 0.00664828C140.594 -0.551248 177.007 34.0962 186.273 68.8413C192.906 93.7113 152.767 107.741 121.468 121.04C99.4466 130.397 73.7256 135.297 51.5911 126.068C21.6904 113.6 -5.9171 94.3925 1.10401 70.8509C11.1362 37.213 39.2171 0.54896 89.1877 0.00664828Z" fill="url(#paint0_linear_5_71)"/>
<path d="M127.006 150.602C129.715 150.602 132.175 148.751 132.832 146C133.606 142.778 131.623 139.538 128.398 138.764L53.398 120.764C50.158 119.999 46.936 121.979 46.165 125.198C45.391 128.42 47.374 131.66 50.599 132.434L125.599 150.434C126.07 150.548 126.544 150.602 127.006 150.602Z" fill="url(#paint1_linear_5_71)"/>
<path d="M60.994 150.602C58.285 150.602 55.825 148.751 55.168 146C54.394 142.778 56.377 139.538 59.602 138.764L134.602 120.764C137.842 119.999 141.064 121.979 141.835 125.198C142.609 128.42 140.626 131.66 137.401 132.434L62.401 150.434C61.93 150.548 61.459 150.602 60.994 150.602Z" fill="#D6742D"/>
<path d="M86.266 32.201C86.224 32.054 86.2 31.793 86.2 31.601C86.2 30.164 87.364 29 88.801 29C89.413 29 89.839 29.228 90.007 29.294C93.187 30.536 115.021 40.832 109.972 70.601C117.304 66.182 114.682 57.602 117.082 57.602C117.982 57.602 118.351 57.938 118.903 58.727C126.925 70.175 133 83.828 133 96.602C133 118.142 115.54 135.602 94 135.602C70.315 135.602 55 115.652 55 96.602C55 64.916 92.344 59.066 86.266 32.201Z" fill="url(#paint2_linear_5_71)"/>
<path d="M92.998 67.166C92.998 67.166 92.335 66.6021 91.375 66.6021C89.926 66.6021 88.75 67.7781 88.75 69.2271C91.375 84.9771 73 90.2271 73 108.602C73 120.2 82.402 129.602 94 129.602C105.598 129.602 115 120.2 115 108.602C115 93.6381 101.821 73.6671 92.998 67.166Z" fill="url(#paint3_linear_5_71)"/>
<defs>
<linearGradient id="paint0_linear_5_71" x1="74.2298" y1="-34.8883" x2="165.897" y2="132.846" gradientUnits="userSpaceOnUse">
<stop stop-color="#540B8D"/>
<stop offset="1" stop-color="#080E1E" stop-opacity="0"/>
</linearGradient>
<linearGradient id="paint1_linear_5_71" x1="46" y1="135.602" x2="133" y2="135.602" gradientUnits="userSpaceOnUse">
<stop stop-color="#C26715"/>
<stop offset="0.508" stop-color="#B85515"/>
<stop offset="1" stop-color="#AD3F16"/>
</linearGradient>
<linearGradient id="paint2_linear_5_71" x1="81.865" y1="29.657" x2="100.882" y2="134.063" gradientUnits="userSpaceOnUse">
<stop stop-color="#F44F5A"/>
<stop offset="0.443" stop-color="#EE3D4A"/>
<stop offset="1" stop-color="#E52030"/>
</linearGradient>
<linearGradient id="paint3_linear_5_71" x1="85.423" y1="61.4121" x2="101.521" y2="149.324" gradientUnits="userSpaceOnUse">
<stop stop-color="#FED100"/>
<stop offset="1" stop-color="#E36001"/>
</linearGradient>
</defs>
</svg>
