<svg width="207" height="165" viewBox="0 0 207 165" fill="none" xmlns="http://www.w3.org/2000/svg">
<path fill-rule="evenodd" clip-rule="evenodd" d="M121.487 0.151268C161.487 1.83292 184.016 28.1296 196.623 54.3625C209.549 81.2612 215.23 112.156 184.263 130.783C143.538 155.278 84.0433 170.133 39.925 148.614C-5.39497 126.508 -8.0225 82.3834 11.6439 46.5858C28.4653 15.9667 74.0946 -1.84114 121.487 0.151268Z" fill="url(#paint0_linear_5_96)"/>
<path d="M38 156H158V162C158 163.656 156.656 165 155 165H41C39.344 165 38 163.656 38 162V156Z" fill="#52BF8D"/>
<path d="M143 165V156H53V165H143Z" fill="#107C42"/>
<path d="M38 150H158V156C158 157.656 156.656 159 155 159H41C39.344 159 38 157.656 38 156V150Z" fill="#59D19A"/>
<path d="M143 159V150H53V159H143Z" fill="#21A366"/>
<path d="M155 153H41C39.344 153 38 151.656 38 150V96C38 94.344 39.344 93 41 93H155C156.656 93 158 94.344 158 96V150C158 151.656 156.656 153 155 153Z" fill="#61E3A7"/>
<path d="M53 93V153H143V93H53ZM86 144C74.402 144 65 134.598 65 123C65 111.402 74.402 102 86 102C97.598 102 107 111.402 107 123C107 134.598 97.598 144 86 144ZM135.5 144C133.016 144 131 141.984 131 139.5C131 137.016 133.016 135 135.5 135C137.984 135 140 137.016 140 139.5C140 141.984 137.984 144 135.5 144ZM123.5 144C121.016 144 119 141.984 119 139.5C119 137.016 121.016 135 123.5 135C125.984 135 128 137.016 128 139.5C128 141.984 125.984 144 123.5 144Z" fill="#33C481"/>
<path d="M95.0583 81.1789L95.0582 67.9999L113.058 67.9999C114.714 67.9999 116.058 66.6559 116.058 64.9999L116.058 52.9999C116.058 51.3439 114.714 49.9999 113.058 49.9999L95.0582 49.9999L95.0582 36.8209C95.0582 35.2009 93.0992 34.3909 91.9562 35.5369L71.0642 56.4289C69.6452 57.8479 69.6452 60.1519 71.0642 61.5709L91.9562 82.4629C93.0992 83.6089 95.0583 82.7989 95.0583 81.1789Z" fill="url(#paint1_linear_5_96)"/>
<defs>
<linearGradient id="paint0_linear_5_96" x1="82.1688" y1="-42.3453" x2="198.74" y2="152.192" gradientUnits="userSpaceOnUse">
<stop stop-color="#540B8D"/>
<stop offset="1" stop-color="#080E1E" stop-opacity="0"/>
</linearGradient>
<linearGradient id="paint1_linear_5_96" x1="70.0862" y1="58.9999" x2="116.379" y2="58.9999" gradientUnits="userSpaceOnUse">
<stop stop-color="#0370C8"/>
<stop offset="0.484" stop-color="#036FC5"/>
<stop offset="0.775" stop-color="#036ABD"/>
<stop offset="1" stop-color="#0362B0"/>
</linearGradient>
</defs>
</svg>
