<svg width="341" height="172" viewBox="0 0 341 172" fill="none" xmlns="http://www.w3.org/2000/svg">
<rect opacity="0.1" x="29" y="45" width="105.043" height="105.043" rx="52.5214" fill="white"/>
<rect opacity="0.1" x="247" y="21" width="68" height="68" rx="34" fill="white"/>
<g clip-path="url(#clip0_19:2)">
<path d="M50.3161 58.6789C52.983 57.9643 55.6092 59.1148 56.181 61.2485C54.8081 56.1249 51.4561 51.7565 46.8625 49.1044C42.2688 46.4522 36.8097 45.7335 31.6861 47.1064C26.5625 48.4792 22.1941 51.8312 19.542 56.4249C16.8898 61.0186 16.1711 66.4777 17.5439 71.6013C16.9722 69.4675 18.6714 67.1581 21.3383 66.4435C24.0052 65.7289 26.6315 66.8793 27.2032 69.0131C26.6315 66.8793 28.3306 64.5699 30.9976 63.8553C33.6645 63.1407 36.2907 64.2911 36.8625 66.4249C36.2907 64.2911 37.9899 61.9817 40.6568 61.2671C43.3237 60.5525 45.95 61.7029 46.5217 63.8367C45.95 61.7029 47.6492 59.3935 50.3161 58.6789Z" fill="#ADE8F4"/>
<path d="M56.181 61.2485C55.609 59.1138 52.982 57.9645 50.3161 58.6789C47.6501 59.3932 45.9497 61.702 46.5217 63.8367C45.9497 61.702 43.3228 60.5527 40.6568 61.2671C37.9909 61.9814 36.2905 64.2902 36.8625 66.4249C36.2905 64.2902 33.6635 63.1409 30.9976 63.8553C28.3316 64.5696 26.6312 66.8784 27.2032 69.0131C26.6312 66.8784 24.0043 65.7291 21.3383 66.4435C18.6723 67.1578 16.972 69.4666 17.5439 71.6012C16.6993 68.4705 16.6315 65.1809 17.3464 62.0179C18.0612 58.855 19.5372 55.9143 21.6461 53.4511C25.0491 58.1919 32.6263 60.313 40.3633 58.2399C44.3558 57.2278 47.9664 55.0731 50.7526 52.0397C53.3711 54.5543 55.2488 57.7398 56.181 61.2485Z" fill="#48CAE4"/>
<path d="M31.6861 47.1063C37.0209 45.6769 43.6628 53.1671 46.5217 63.8367C45.95 61.7029 47.6492 59.3935 50.3161 58.6789C52.983 57.9643 55.6092 59.1148 56.181 61.2485C54.8081 56.1249 51.4561 51.7565 46.8625 49.1044C42.2688 46.4522 36.8097 45.7335 31.6861 47.1063Z" fill="#EF5350"/>
<path d="M30.9976 63.8553C33.6645 63.1407 36.2907 64.2911 36.8625 66.4249L31.6861 47.1064C26.3513 48.5358 24.3443 58.3434 27.2032 69.0131C26.6315 66.8793 28.3306 64.5699 30.9976 63.8553Z" fill="#EF5350"/>
<path d="M56.181 61.2485C55.609 59.1138 52.982 57.9645 50.3161 58.6789C47.6501 59.3932 45.9497 61.702 46.5217 63.8367C45.8968 61.4637 45.0365 59.159 43.9536 56.9569C46.5396 55.8126 48.856 54.1372 50.7526 52.0397C53.3711 54.5543 55.2488 57.7398 56.181 61.2485Z" fill="#E53935"/>
<path d="M34.8799 59.0259L36.8625 66.4249C36.2905 64.2902 33.6635 63.1409 30.9976 63.8553C28.3316 64.5696 26.6312 66.8784 27.2032 69.0131C26.125 65.1452 25.7225 61.1203 26.0134 57.1156C28.7638 58.4806 31.8115 59.1372 34.8799 59.0259Z" fill="#E53935"/>
<path d="M51.6288 79.0327L30.3784 84.7267L36.0724 105.977L57.3228 100.283L51.6288 79.0327Z" fill="#EDB88E"/>
<path d="M56.2875 96.4193L57.3228 100.283L36.0724 105.977L30.3784 84.7267L41.0036 81.8797L43.5918 91.5389C44.1409 93.5884 45.4817 95.3357 47.3192 96.3966C49.1566 97.4575 51.3403 97.7449 53.3897 97.1958L56.2875 96.4193Z" fill="#DA9367"/>
<path d="M43.9013 81.1032L38.1058 82.6561L39.1411 86.5198L44.9366 84.9669L43.9013 81.1032Z" fill="#F9DBAF"/>
<path d="M41.0036 81.8797L38.1058 82.6561L39.1411 86.5198L42.0388 85.7434L41.0036 81.8797Z" fill="#EDB88E"/>
<path d="M57.1469 60.9897C56.1175 57.1516 54.0203 53.6844 51.0989 50.9908C48.1775 48.2972 44.5518 46.4878 40.643 45.7727C36.7343 45.0575 32.7028 45.4661 29.0169 46.9509C25.3311 48.4357 22.1422 50.9358 19.8206 54.1607C19.6706 54.3762 19.6113 54.6421 19.6556 54.9009C19.7 55.1597 19.8443 55.3906 20.0574 55.5439C20.2706 55.6972 20.5355 55.7606 20.7949 55.7202C21.0544 55.6799 21.2876 55.5391 21.4441 55.3283C22.8745 53.3503 24.6732 51.6669 26.7414 50.3704C24.893 54.0046 24.3654 59.5387 25.4675 65.7615C24.0796 65.1709 22.5319 65.0707 21.0795 65.4775C19.8684 65.7942 18.7687 66.44 17.9022 67.3435C17.7532 64.3475 18.3153 61.3588 19.5427 58.6217C19.5998 58.5016 19.6323 58.3713 19.6385 58.2385C19.6446 58.1057 19.6242 57.973 19.5785 57.8482C19.5327 57.7234 19.4626 57.6089 19.372 57.5115C19.2815 57.4141 19.1725 57.3358 19.0514 57.281C18.9302 57.2263 18.7993 57.1962 18.6664 57.1927C18.5335 57.1891 18.4013 57.212 18.2773 57.2602C18.1534 57.3084 18.0403 57.3808 17.9447 57.4731C17.8491 57.5655 17.7729 57.676 17.7205 57.7982C15.7325 62.2143 15.329 67.181 16.578 71.8601C16.6376 72.0817 16.7715 72.2761 16.9574 72.4106L31.9548 83.269L30.1196 83.7608C29.8634 83.8294 29.645 83.997 29.5124 84.2267C29.3798 84.4564 29.3438 84.7293 29.4125 84.9855L35.1065 106.236C35.1751 106.492 35.3427 106.71 35.5724 106.843C35.8021 106.976 36.075 107.012 36.3312 106.943L57.5816 101.249C57.8378 101.18 58.0562 101.013 58.1888 100.783C58.3214 100.553 58.3573 100.28 58.2887 100.024L55.4417 89.399C55.373 89.1429 55.2054 88.9244 54.9758 88.7918C54.7461 88.6592 54.4731 88.6233 54.2169 88.6919C53.9608 88.7606 53.7423 88.9282 53.6097 89.1579C53.4771 89.3875 53.4412 89.6605 53.5098 89.9167L56.098 99.5759L36.7795 104.752L31.6031 85.4338L37.3987 83.8809L38.1751 86.7787C38.2438 87.0348 38.4114 87.2533 38.6411 87.3859C38.8708 87.5185 39.1437 87.5544 39.3999 87.4858L45.1954 85.9329C45.4516 85.8642 45.67 85.6966 45.8026 85.4669C45.9353 85.2372 45.9712 84.9643 45.9025 84.7081L45.1261 81.8103L50.9216 80.2574L52.4746 86.053C52.5432 86.3092 52.7108 86.5276 52.9405 86.6602C53.1702 86.7928 53.4431 86.8287 53.6993 86.7601C53.9555 86.6914 54.1739 86.5238 54.3065 86.2942C54.4391 86.0645 54.4751 85.7915 54.4064 85.5353L52.5947 78.7739C52.526 78.5177 52.3584 78.2993 52.1288 78.1666C51.8991 78.034 51.6261 77.9981 51.3699 78.0667L49.5347 78.5585L57.0936 61.6562C57.1873 61.4467 57.2061 61.2114 57.1469 60.9897ZM53.7621 57.7462C52.5543 57.3909 51.2713 57.3794 50.0573 57.713C48.5981 58.0872 47.3097 58.9464 46.4034 60.1497C45.6205 57.9804 44.6277 55.8928 43.4392 53.9165C43.3015 53.6898 43.0795 53.527 42.8218 53.464C42.5642 53.401 42.2921 53.443 42.0654 53.5806C41.8387 53.7182 41.6759 53.9403 41.6129 54.1979C41.55 54.4555 41.5919 54.7276 41.7295 54.9543C42.7711 56.6946 43.6532 58.5255 44.3651 60.4246C43.0445 59.9817 41.6205 59.95 40.2815 60.3337C38.9425 60.7175 37.7514 61.4986 36.8658 62.5738L32.9468 47.9477C34.9685 47.9237 37.2913 49.2786 39.4839 51.8322C39.567 51.9392 39.671 52.0283 39.7896 52.0939C39.9082 52.1595 40.0389 52.2004 40.1738 52.2139C40.3086 52.2275 40.4449 52.2135 40.5741 52.1728C40.7034 52.1321 40.8231 52.0656 40.9259 51.9772C41.0286 51.8888 41.1124 51.7805 41.172 51.6587C41.2316 51.537 41.2658 51.4044 41.2726 51.2691C41.2794 51.1337 41.2586 50.9983 41.2115 50.8713C41.1643 50.7442 41.0919 50.628 40.9984 50.5298C40.0022 49.3407 38.8423 48.2991 37.5533 47.436C40.9258 47.5662 44.2034 48.5892 47.0511 50.4006C49.8988 52.212 52.2147 54.7468 53.7621 57.7462ZM43.0108 80.3066L41.7107 80.6549L37.8284 66.166C37.4003 64.5684 38.7848 62.804 40.9156 62.233C42.976 61.6809 44.9753 62.4507 45.4931 63.9466L43.0108 80.3066ZM28.149 68.594C27.8494 67.0396 29.1961 65.3732 31.2564 64.8212C33.3872 64.2502 35.4685 65.086 35.8965 66.6837L39.7788 81.1726L38.4787 81.5209L28.149 68.594ZM34.934 63.0914C33.6295 62.603 32.2076 62.5219 30.8561 62.8587C29.5045 63.1955 28.287 63.9344 27.3643 64.9779C26.096 57.1535 27.5726 50.3391 31.0108 48.4499L34.934 63.0914ZM18.4718 71.042C18.2799 69.5261 19.6006 67.9444 21.5971 67.4094C23.728 66.8384 25.8092 67.6742 26.2373 69.2719C26.2734 69.4049 26.337 69.529 26.4239 69.636L36.3701 82.0859L34.4382 82.6036L18.4718 71.042ZM43.7119 84.2598L39.8482 85.2951L39.3305 83.3632L43.1942 82.328L43.7119 84.2598ZM45.1194 79.7416L47.51 63.986C47.5311 63.8499 47.5234 63.7109 47.4876 63.5779C47.0596 61.9802 48.4441 60.2158 50.5749 59.6448C52.5715 59.1098 54.506 59.8193 55.0978 61.2281L47.0464 79.2252L45.1194 79.7416Z" fill="#465377"/>
</g>
<g clip-path="url(#clip1_19:2)">
<path d="M328.563 16.6499C330.156 16.984 331.231 18.2883 330.963 19.5628C331.605 16.5024 331.005 13.3124 329.295 10.6944C327.585 8.07654 324.905 6.2452 321.845 5.60331C318.784 4.96141 315.594 5.56154 312.976 7.27167C310.358 8.9818 308.527 11.6618 307.885 14.7222C308.152 13.4477 309.661 12.6853 311.254 13.0195C312.847 13.3536 313.922 14.6579 313.655 15.9324C313.922 14.6579 315.431 13.8955 317.024 14.2296C318.617 14.5637 319.692 15.868 319.424 17.1425C319.692 15.868 321.2 15.1056 322.793 15.4397C324.386 15.7738 325.461 17.0781 325.194 18.3526C325.461 17.0781 326.97 16.3157 328.563 16.6499Z" fill="#ADE8F4"/>
<path d="M330.963 19.5628C331.231 18.2877 330.155 16.9839 328.563 16.6499C326.97 16.3159 325.461 17.0776 325.194 18.3526C325.461 17.0776 324.386 15.7737 322.793 15.4397C321.201 15.1057 319.692 15.8674 319.424 17.1425C319.692 15.8674 318.616 14.5636 317.024 14.2296C315.431 13.8956 313.922 14.6573 313.655 15.9324C313.922 14.6573 312.846 13.3535 311.254 13.0195C309.662 12.6855 308.153 13.4471 307.885 14.7222C308.274 12.8507 309.114 11.1023 310.332 9.629C311.55 8.15567 313.11 7.00186 314.875 6.26768C315.402 9.66717 318.823 12.8 323.445 13.7694C325.814 14.2999 328.287 14.1277 330.56 13.274C331.268 15.2937 331.407 17.4691 330.963 19.5628Z" fill="#48CAE4"/>
<path d="M321.845 5.60331C325.031 6.27166 326.531 11.9795 325.194 18.3526C325.461 17.0781 326.97 16.3157 328.563 16.6499C330.156 16.984 331.231 18.2883 330.963 19.5628C331.605 16.5024 331.005 13.3124 329.295 10.6944C327.585 8.07654 324.905 6.2452 321.845 5.60331Z" fill="#EF5350"/>
<path d="M317.024 14.2296C318.617 14.5637 319.692 15.868 319.424 17.1425L321.845 5.60331C318.658 4.93495 314.991 9.55927 313.655 15.9324C313.922 14.6579 315.431 13.8955 317.024 14.2296Z" fill="#EF5350"/>
<path d="M330.963 19.5628C331.231 18.2877 330.155 16.9839 328.563 16.6499C326.97 16.3159 325.461 17.0775 325.194 18.3526C325.497 16.9381 325.658 15.4969 325.675 14.0503C327.339 14.1369 329.004 13.8723 330.56 13.274C331.268 15.2937 331.407 17.4691 330.963 19.5628Z" fill="#E53935"/>
<path d="M320.351 12.723L319.424 17.1425C319.692 15.8674 318.616 14.5636 317.024 14.2296C315.431 13.8956 313.922 14.6573 313.655 15.9324C314.117 13.6109 314.977 11.3868 316.196 9.3578C317.279 10.8079 318.708 11.9647 320.351 12.723Z" fill="#E53935"/>
<path d="M323.835 27.705L311.142 25.0427L308.479 37.7358L321.172 40.3981L323.835 27.705Z" fill="#EDB88E"/>
<path d="M321.656 38.0903L321.172 40.3981L308.479 37.7358L311.142 25.0427L317.488 26.3738L316.278 32.1434C316.021 33.3676 316.261 34.6436 316.945 35.6908C317.629 36.7379 318.701 37.4705 319.926 37.7272L321.656 38.0903Z" fill="#DA9367"/>
<path d="M319.219 26.7369L315.757 26.0108L315.273 28.3186L318.735 29.0447L319.219 26.7369Z" fill="#F9DBAF"/>
<path d="M317.488 26.3739L315.757 26.0108L315.273 28.3186L317.004 28.6817L317.488 26.3739Z" fill="#EDB88E"/>
<path d="M331.54 19.6838C332.021 17.391 331.841 15.009 331.021 12.8145C330.202 10.62 328.776 8.70305 326.911 7.28632C325.045 5.86958 322.816 5.01123 320.482 4.81097C318.148 4.61071 315.805 5.07675 313.726 6.15496C313.589 6.22837 313.487 6.35242 313.442 6.50034C313.396 6.64826 313.411 6.80817 313.482 6.94555C313.553 7.08293 313.676 7.18676 313.823 7.23461C313.97 7.28246 314.13 7.27049 314.269 7.2013C315.548 6.54173 316.942 6.13511 318.375 6.00374C316.435 7.4232 314.684 10.1936 313.607 13.76C313.035 13.0799 312.247 12.6152 311.375 12.4425C310.654 12.2867 309.903 12.3336 309.207 12.5781C309.926 10.9626 311.018 9.54026 312.392 8.42734C312.454 8.37938 312.506 8.31954 312.544 8.25132C312.583 8.1831 312.607 8.10788 312.617 8.03004C312.626 7.9522 312.619 7.87331 312.598 7.79799C312.576 7.72267 312.539 7.65243 312.49 7.59138C312.441 7.53033 312.38 7.47969 312.311 7.44243C312.242 7.40517 312.167 7.38204 312.089 7.37438C312.011 7.36672 311.932 7.37469 311.857 7.39783C311.782 7.42096 311.713 7.4588 311.653 7.50912C309.431 9.30265 307.897 11.8076 307.308 14.6012C307.28 14.7336 307.299 14.8716 307.361 14.9918L312.359 24.6957L311.263 24.4657C311.109 24.4337 310.95 24.4637 310.819 24.5492C310.688 24.6347 310.597 24.7687 310.565 24.9217L307.902 37.6148C307.87 37.7678 307.9 37.9273 307.986 38.0582C308.071 38.1891 308.205 38.2807 308.358 38.3128L321.051 40.9751C321.204 41.0072 321.364 40.9772 321.495 40.8917C321.626 40.8062 321.717 40.6721 321.749 40.5191L323.08 34.1726C323.113 34.0196 323.083 33.8601 322.997 33.7292C322.911 33.5983 322.777 33.5067 322.624 33.4746C322.471 33.4425 322.312 33.4725 322.181 33.558C322.05 33.6435 321.959 33.7775 321.927 33.9305L320.716 39.7001L309.177 37.2799L311.597 25.7407L315.059 26.4668L314.696 28.1976C314.664 28.3507 314.694 28.5102 314.78 28.6411C314.865 28.772 314.999 28.8635 315.152 28.8956L318.614 29.6217C318.767 29.6538 318.926 29.6238 319.057 29.5383C319.188 29.4528 319.28 29.3188 319.312 29.1657L319.675 27.4349L323.137 28.1609L322.411 31.6227C322.378 31.7757 322.408 31.9352 322.494 32.0661C322.579 32.197 322.713 32.2886 322.867 32.3207C323.02 32.3528 323.179 32.3228 323.31 32.2373C323.441 32.1518 323.532 32.0178 323.564 31.8647L324.412 27.826C324.444 27.673 324.414 27.5135 324.328 27.3826C324.243 27.2517 324.109 27.1601 323.956 27.128L322.859 26.8981L331.335 20.0202C331.44 19.9349 331.513 19.8162 331.54 19.6838ZM330.624 17.0767C330.083 16.5683 329.411 16.2207 328.684 16.0729C327.817 15.8813 326.91 15.9902 326.113 16.3818C326.279 15.0325 326.312 13.6701 326.213 12.3142C326.201 12.1583 326.128 12.0136 326.009 11.9119C325.89 11.8101 325.736 11.7598 325.58 11.7718C325.424 11.7838 325.28 11.8573 325.178 11.976C325.076 12.0948 325.026 12.249 325.038 12.4049C325.122 13.5976 325.099 14.7954 324.968 15.9838C324.391 15.3993 323.651 15.0035 322.844 14.8489C322.038 14.6943 321.203 14.788 320.451 15.1178L322.284 6.38148C323.353 6.90702 324.214 8.23809 324.688 10.1649C324.703 10.2433 324.734 10.3179 324.779 10.384C324.824 10.4501 324.882 10.5063 324.949 10.5494C325.016 10.5924 325.092 10.6213 325.171 10.6343C325.25 10.6473 325.33 10.6442 325.408 10.6251C325.485 10.6059 325.558 10.5712 325.622 10.5231C325.686 10.4749 325.739 10.4143 325.779 10.3449C325.818 10.2755 325.843 10.1988 325.852 10.1194C325.861 10.04 325.854 9.95961 325.831 9.88308C325.624 8.99246 325.291 8.13578 324.843 7.33868C326.582 8.30495 328.034 9.71557 329.049 11.4264C330.065 13.1373 330.608 15.0871 330.624 17.0767ZM318.963 26.0808L318.186 25.9179L320.001 17.2635C320.201 16.3092 321.399 15.7497 322.672 16.0167C323.903 16.2748 324.749 17.212 324.624 18.1366L318.963 26.0808ZM314.264 15.9637C314.52 15.0664 315.672 14.5484 316.903 14.8066C318.175 15.0735 319.047 16.0672 318.847 17.0215L317.032 25.6759L316.256 25.513L314.264 15.9637ZM319.297 14.8758C318.741 14.2716 318.015 13.8504 317.214 13.6677C316.414 13.4851 315.577 13.5496 314.814 13.8528C316.23 9.39973 318.82 6.20862 321.132 6.13022L319.297 14.8758ZM308.522 14.6751C308.825 13.8267 309.94 13.3463 311.133 13.5964C312.406 13.8634 313.278 14.8571 313.078 15.8114C313.061 15.891 313.062 15.9731 313.079 16.0525L314.996 25.2488L313.842 25.0068L308.522 14.6751ZM318.279 28.3468L315.971 27.8627L316.213 26.7088L318.521 27.1928L318.279 28.3468ZM320.222 26.345L325.674 18.6943C325.721 18.6283 325.754 18.5531 325.771 18.4736C325.971 17.5194 327.169 16.9599 328.442 17.2268C329.634 17.477 330.463 18.3651 330.399 19.2637L321.373 26.5864L320.222 26.345Z" fill="#465377"/>
</g>
<g clip-path="url(#clip2_19:2)">
<path d="M283.201 147.366C284.58 147.655 285.511 148.785 285.28 149.889C285.836 147.238 285.316 144.476 283.835 142.208C282.354 139.941 280.033 138.355 277.382 137.799C274.732 137.243 271.969 137.763 269.702 139.244C267.435 140.725 265.849 143.046 265.293 145.697C265.525 144.593 266.831 143.933 268.211 144.222C269.59 144.511 270.521 145.641 270.29 146.745C270.521 145.641 271.828 144.981 273.207 145.27C274.587 145.559 275.518 146.689 275.286 147.793C275.518 146.689 276.824 146.029 278.204 146.318C279.584 146.607 280.515 147.737 280.283 148.841C280.515 147.737 281.821 147.077 283.201 147.366Z" fill="#ADE8F4"/>
<path d="M285.28 149.889C285.511 148.784 284.58 147.655 283.201 147.366C281.822 147.077 280.515 147.736 280.283 148.841C280.515 147.736 279.583 146.607 278.204 146.318C276.825 146.029 275.518 146.688 275.286 147.793C275.518 146.688 274.586 145.559 273.207 145.27C271.828 144.981 270.521 145.64 270.29 146.745C270.521 145.64 269.59 144.511 268.211 144.222C266.831 143.933 265.525 144.592 265.293 145.697C265.63 144.076 266.358 142.562 267.412 141.286C268.467 140.01 269.818 139.01 271.346 138.375C271.803 141.319 274.766 144.032 278.768 144.871C280.82 145.331 282.962 145.182 284.93 144.442C285.543 146.192 285.664 148.075 285.28 149.889Z" fill="#48CAE4"/>
<path d="M277.382 137.799C280.142 138.378 281.441 143.321 280.283 148.841C280.515 147.737 281.821 147.077 283.201 147.366C284.58 147.655 285.511 148.785 285.28 149.889C285.836 147.238 285.316 144.476 283.835 142.208C282.354 139.941 280.033 138.355 277.382 137.799Z" fill="#EF5350"/>
<path d="M273.207 145.27C274.587 145.559 275.518 146.689 275.286 147.793L277.382 137.799C274.623 137.22 271.447 141.225 270.29 146.745C270.521 145.641 271.828 144.981 273.207 145.27Z" fill="#EF5350"/>
<path d="M285.28 149.889C285.511 148.784 284.58 147.655 283.201 147.366C281.822 147.077 280.515 147.736 280.283 148.841C280.546 147.616 280.685 146.367 280.699 145.115C282.141 145.19 283.583 144.961 284.93 144.442C285.543 146.192 285.664 148.075 285.28 149.889Z" fill="#E53935"/>
<path d="M276.089 143.965L275.286 147.793C275.518 146.688 274.586 145.559 273.207 145.27C271.828 144.981 270.521 145.64 270.29 146.745C270.69 144.734 271.435 142.808 272.491 141.051C273.429 142.307 274.666 143.308 276.089 143.965Z" fill="#E53935"/>
<path d="M279.106 156.94L268.113 154.635L265.808 165.627L276.8 167.933L279.106 156.94Z" fill="#EDB88E"/>
<path d="M277.22 165.934L276.8 167.933L265.808 165.627L268.113 154.635L273.61 155.787L272.562 160.784C272.339 161.844 272.547 162.949 273.14 163.856C273.732 164.763 274.66 165.398 275.721 165.62L277.22 165.934Z" fill="#DA9367"/>
<path d="M275.109 156.102L272.111 155.473L271.691 157.472L274.689 158.1L275.109 156.102Z" fill="#F9DBAF"/>
<path d="M273.61 155.787L272.111 155.473L271.691 157.472L273.19 157.786L273.61 155.787Z" fill="#EDB88E"/>
<path d="M285.78 149.993C286.196 148.008 286.04 145.945 285.33 144.044C284.62 142.144 283.386 140.484 281.77 139.257C280.154 138.03 278.224 137.286 276.202 137.113C274.181 136.94 272.152 137.343 270.351 138.277C270.233 138.341 270.145 138.448 270.105 138.576C270.066 138.704 270.078 138.843 270.14 138.962C270.202 139.081 270.308 139.171 270.435 139.212C270.563 139.253 270.702 139.243 270.821 139.183C271.929 138.612 273.136 138.26 274.378 138.146C272.698 139.375 271.181 141.775 270.249 144.863C269.753 144.274 269.071 143.872 268.315 143.722C267.691 143.587 267.041 143.628 266.438 143.84C267.061 142.441 268.006 141.209 269.196 140.245C269.25 140.203 269.295 140.152 269.328 140.092C269.361 140.033 269.383 139.968 269.391 139.901C269.399 139.833 269.393 139.765 269.374 139.7C269.355 139.635 269.324 139.574 269.281 139.521C269.239 139.468 269.186 139.424 269.126 139.392C269.067 139.36 269.001 139.34 268.933 139.333C268.866 139.326 268.798 139.333 268.733 139.353C268.668 139.373 268.608 139.406 268.556 139.45C266.632 141.003 265.303 143.172 264.793 145.592C264.769 145.706 264.786 145.826 264.839 145.93L269.167 154.334L268.218 154.135C268.085 154.107 267.947 154.133 267.834 154.207C267.721 154.281 267.641 154.397 267.614 154.53L265.308 165.523C265.28 165.655 265.306 165.793 265.38 165.907C265.454 166.02 265.57 166.099 265.703 166.127L276.696 168.433C276.828 168.46 276.966 168.434 277.08 168.36C277.193 168.286 277.272 168.17 277.3 168.038L278.453 162.541C278.481 162.409 278.455 162.271 278.381 162.157C278.307 162.044 278.19 161.965 278.058 161.937C277.925 161.909 277.787 161.935 277.674 162.009C277.561 162.083 277.481 162.199 277.453 162.332L276.405 167.328L266.412 165.232L268.508 155.239L271.506 155.868L271.192 157.367C271.164 157.499 271.19 157.637 271.264 157.751C271.338 157.864 271.454 157.944 271.587 157.971L274.585 158.6C274.717 158.628 274.855 158.602 274.969 158.528C275.082 158.454 275.161 158.338 275.189 158.205L275.503 156.706L278.502 157.335L277.873 160.333C277.845 160.466 277.871 160.604 277.945 160.717C278.019 160.83 278.135 160.91 278.268 160.938C278.4 160.965 278.538 160.939 278.652 160.865C278.765 160.791 278.844 160.675 278.872 160.543L279.606 157.045C279.633 156.912 279.607 156.774 279.533 156.661C279.459 156.548 279.343 156.468 279.211 156.441L278.261 156.241L285.602 150.285C285.693 150.211 285.755 150.108 285.78 149.993ZM284.985 147.736C284.517 147.295 283.935 146.994 283.306 146.866C282.555 146.7 281.77 146.795 281.079 147.134C281.223 145.965 281.252 144.785 281.166 143.611C281.156 143.476 281.092 143.351 280.989 143.263C280.886 143.175 280.753 143.131 280.618 143.141C280.483 143.152 280.357 143.215 280.269 143.318C280.181 143.421 280.138 143.555 280.148 143.69C280.221 144.723 280.201 145.76 280.087 146.789C279.588 146.283 278.947 145.94 278.248 145.806C277.55 145.672 276.827 145.754 276.176 146.039L277.763 138.473C278.689 138.928 279.435 140.081 279.845 141.75C279.858 141.818 279.885 141.882 279.924 141.939C279.963 141.997 280.013 142.045 280.071 142.083C280.13 142.12 280.195 142.145 280.263 142.156C280.331 142.168 280.401 142.165 280.468 142.148C280.536 142.132 280.599 142.102 280.654 142.06C280.709 142.018 280.755 141.966 280.79 141.906C280.824 141.846 280.846 141.779 280.853 141.71C280.861 141.642 280.855 141.572 280.835 141.506C280.656 140.734 280.367 139.992 279.979 139.302C281.485 140.139 282.742 141.361 283.622 142.842C284.502 144.324 284.972 146.013 284.985 147.736ZM274.887 155.534L274.214 155.392L275.786 147.897C275.959 147.071 276.997 146.586 278.099 146.818C279.165 147.041 279.898 147.853 279.789 148.654L274.887 155.534ZM270.817 146.772C271.039 145.995 272.037 145.546 273.102 145.77C274.205 146.001 274.96 146.861 274.787 147.688L273.215 155.183L272.542 155.042L270.817 146.772ZM275.177 145.83C274.695 145.306 274.066 144.942 273.373 144.783C272.679 144.625 271.954 144.681 271.293 144.944C272.52 141.087 274.763 138.323 276.765 138.256L275.177 145.83ZM265.845 145.656C266.107 144.921 267.073 144.505 268.106 144.722C269.208 144.953 269.963 145.813 269.79 146.64C269.776 146.709 269.776 146.78 269.791 146.849L271.451 154.813L270.452 154.603L265.845 145.656ZM274.295 157.496L272.296 157.077L272.505 156.077L274.504 156.497L274.295 157.496ZM275.977 155.762L280.699 149.137C280.74 149.079 280.768 149.014 280.783 148.945C280.956 148.119 281.994 147.634 283.096 147.866C284.129 148.082 284.846 148.851 284.791 149.63L276.974 155.971L275.977 155.762Z" fill="#465377"/>
</g>
<defs>
<clipPath id="clip0_19:2">
<rect width="64" height="64" fill="white" transform="translate(0 52.4908) rotate(-15)"/>
</clipPath>
<clipPath id="clip1_19:2">
<rect width="37.7289" height="37.7289" fill="white" transform="translate(303.745) rotate(11.8457)"/>
</clipPath>
<clipPath id="clip2_19:2">
<rect width="32.6748" height="32.6748" fill="white" transform="translate(261.707 132.946) rotate(11.8457)"/>
</clipPath>
</defs>
</svg>
