<svg width="48" height="48" viewBox="0 0 48 48" fill="none" xmlns="http://www.w3.org/2000/svg">
<rect width="48" height="48" rx="24" fill="#D15C22"/>
<path d="M17.8588 10.8342L17.9471 10.8409C18.4531 10.8794 18.7065 10.9004 19.0125 10.932C21.593 11.1984 23.5484 11.9616 25.8338 13.8939L25.9567 14.0069L27.842 15.8928L28.8604 14.8753C29.3922 14.3448 30.0811 14.0555 30.783 14.0072L30.9938 14C31.7671 14 32.5391 14.2911 33.1233 14.8753C34.2922 16.0443 34.2922 17.9694 33.1233 19.1384L32.105 20.1559L34.2063 22.2565L34.3025 22.3597C36.3042 24.666 37.0449 26.6284 37.2977 29.3443L37.3156 29.5445C37.3301 29.7123 37.3443 29.8944 37.3658 30.1799L37.379 30.3544C37.5198 32.205 35.2829 33.2327 33.9706 31.9203L27.156 25.1059L14.5518 37.711C14.1907 38.0681 13.6259 38.0941 13.2352 37.79L13.1413 37.7071L10.2929 34.8585C10.1047 34.6702 9.99927 34.4147 10 34.1485C10.0007 33.8823 10.1075 33.6273 10.2968 33.4401L22.893 20.8429L16.2929 14.2426C14.9805 12.9303 16.0082 10.6935 17.8588 10.8342ZM24.302 22.2519L12 34.5682C12.1672 34.7238 12.6611 35.2011 13.4818 36L25.758 23.7079L24.302 22.2519ZM17.7071 12.8284L35.3848 30.5061C35.3736 30.3588 35.3627 30.2121 35.3513 30.0657L35.3152 29.6272C35.1525 27.802 34.8015 25.9858 32.7921 23.6707L24.5425 15.4212C22.0117 13.2814 20.1196 13.0194 18.1471 12.8623L17.7071 12.8284ZM30.9681 16C30.7073 16 30.4452 16.1036 30.2391 16.3094L29.249 17.2999L30.704 18.7549L31.6932 17.765C32.0708 17.387 32.0999 16.8155 31.7803 16.4077L31.6932 16.3094C31.4883 16.1043 31.2289 16 30.9681 16Z" fill="#F5ECE9"/>
</svg>
