<svg width="48" height="48" viewBox="0 0 48 48" fill="none" xmlns="http://www.w3.org/2000/svg">
<rect width="48" height="48" rx="24" fill="#D15C22"/>
<path d="M14.8125 14C13.5156 14 12.4141 14.8359 12 16H36C35.5859 14.8359 34.4844 14 33.1875 14H14.8125ZM13 18C11.3516 18 10 19.3516 10 21V31C10 32.6484 11.3516 34 13 34H35C36.6484 34 38 32.6484 38 31V21C38 19.3516 36.6484 18 35 18H13ZM14 20H34C34 21.0938 34.9062 22 36 22V30C34.9062 30 34 30.9062 34 32H14C14 30.9062 13.0938 30 12 30V22C13.0938 22 14 21.0938 14 20ZM24 22C21.8047 22 20 23.8047 20 26C20 28.1953 21.8047 30 24 30C26.1953 30 28 28.1953 28 26C28 23.8047 26.1953 22 24 22ZM16 24C14.8984 24 14 24.8984 14 26C14 27.1016 14.8984 28 16 28C17.1016 28 18 27.1016 18 26C18 24.8984 17.1016 24 16 24ZM24 24C25.1172 24 26 24.8828 26 26C26 27.1172 25.1172 28 24 28C22.8828 28 22 27.1172 22 26C22 24.8828 22.8828 24 24 24ZM32 24C30.8984 24 30 24.8984 30 26C30 27.1016 30.8984 28 32 28C33.1016 28 34 27.1016 34 26C34 24.8984 33.1016 24 32 24Z" fill="#F5ECE9"/>
</svg>
