<svg width="48" height="48" viewBox="0 0 48 48" fill="none" xmlns="http://www.w3.org/2000/svg">
<rect width="48" height="48" rx="24" fill="#D15C22"/>
<path d="M16 12C14.3549 12 13 13.3549 13 15V21.1953C10.6208 22.5842 9 25.1378 9 28.082C9 32.4885 12.5936 36.082 17 36.082C20.7122 36.082 23.819 33.5203 24.7148 30.082H29.1016C29.0352 30.4055 29 30.7397 29 31.082C29 33.8316 31.2504 36.082 34 36.082C36.7496 36.082 39 33.8316 39 31.082C39 29.4616 38.2048 28.0285 37 27.1133V23.082C37 21.437 35.6451 20.082 34 20.082H31V18.082C31 16.9671 31.8851 16.082 33 16.082V14.082C30.8029 14.082 29 15.885 29 18.082V20.082H25.6719L23.1328 13.8672C23.1328 13.8659 23.1328 13.8646 23.1328 13.8633C22.6722 12.7386 21.5714 12 20.3555 12H16ZM16 14H20.3555C20.7635 14 21.1259 14.2457 21.2812 14.625L24.0742 21.4609C24.1495 21.6447 24.2777 21.8018 24.4425 21.9124C24.6074 22.0231 24.8015 22.0821 25 22.082H34C34.5629 22.082 35 22.5191 35 23.082V26.1836C34.6765 26.1172 34.3424 26.082 34 26.082C32.3795 26.082 30.9465 26.8772 30.0312 28.082H25C25 23.6756 21.4064 20.082 17 20.082C16.3058 20.082 15.643 20.1997 15 20.3672V15C15 14.4371 15.4371 14 16 14ZM17 22.082C20.3256 22.082 23 24.7565 23 28.082C23 31.4076 20.3256 34.082 17 34.082C13.6744 34.082 11 31.4076 11 28.082C11 24.7565 13.6744 22.082 17 22.082ZM17 26.082C16.4696 26.082 15.9609 26.2927 15.5858 26.6678C15.2107 27.0429 15 27.5516 15 28.082C15 28.6125 15.2107 29.1212 15.5858 29.4962C15.9609 29.8713 16.4696 30.082 17 30.082C17.5304 30.082 18.0391 29.8713 18.4142 29.4962C18.7893 29.1212 19 28.6125 19 28.082C19 27.5516 18.7893 27.0429 18.4142 26.6678C18.0391 26.2927 17.5304 26.082 17 26.082ZM34 28.082C35.6687 28.082 37 29.4133 37 31.082C37 32.7507 35.6687 34.082 34 34.082C32.3313 34.082 31 32.7507 31 31.082C31 29.4133 32.3313 28.082 34 28.082Z" fill="#F5ECE9"/>
</svg>
