<svg width="48" height="48" viewBox="0 0 48 48" xmlns="http://www.w3.org/2000/svg">
    <rect fill="#F5ECE9" width="48" height="48" rx="24"/>
    <path d="M12 15c-1.645 0-3 1.355-3 3v10c0 1.645 1.355 3 3 3h11.1016c-.0376.333-.1016.6573-.1016 1 0 4.9587 4.0413 9 9 9s9-4.0413 9-9c0-2.1192-.7676-4.0457-2-5.586V18c0-1.645-1.355-3-3-3H12zm0 2h24c.563 0 1 .437 1 1v6.5234c-.6342-.4258-1.3405-.7373-2.0742-.9921A2 2 0 0035 23c0-1.1046-.8954-2-2-2s-2 .8954-2 2a2 2 0 00.004.1016c-.7253.0815-1.4267.2322-2.09.4765A2 2 0 0029 23c0-1.1046-.8954-2-2-2s-2 .8954-2 2a2 2 0 001.496 1.9336c-1.336 1.0438-2.365 2.441-2.9452 4.0664H12c-.563 0-1-.437-1-1V18c0-.563.437-1 1-1zm3 4c-1.1046 0-2 .8954-2 2s.8954 2 2 2 2-.8954 2-2-.8954-2-2-2zm6 0c-1.1046 0-2 .8954-2 2s.8954 2 2 2 2-.8954 2-2-.8954-2-2-2zm11 4c3.8778 0 7 3.1222 7 7s-3.1222 7-7 7-7-3.1222-7-7 3.1222-7 7-7zm3.004 3.7227l-3.6837 3.6836-2.293-2.293-1.414 1.414 3.707 3.707 5.0977-5.0976-1.414-1.414z" fill="#BC7962"/>
</svg>
