<svg width="48" height="48" viewBox="0 0 48 48" xmlns="http://www.w3.org/2000/svg">
    <rect fill="#F5ECE9" width="48" height="48" rx="24"/>
    <path d="M12.9861 12c-1.5008 2-1.0005 5.25-.2658 6.2031C11.032 19.9766 10 22.375 10 25.4688 9.9844 31.75 14.9403 36 24 36c9.0598 0 14-4.25 14-10.5313 0-3.1953-.985-5.5937-2.5952-7.328C35.9988 17.25 36.4992 14 34.9983 12c-3.752 0-6.0033 2.75-6.0033 2.75S27.244 14 23.9922 14s-5.0106.7969-5.0106.7969S16.7382 12 12.9861 12zm5.503 11c2.4311 0 2.517.9531 5.3311.9922.0626 0 .133-.0078.2033-.0078h.3986C26.9704 23.8828 27.1424 23 29.4953 23c2.4857 0 4.5025 2.0156 4.5025 4.5 0 1.5703 0 6.5-10.0056 6.5-10.0055 0-10.0055-4.8047-10.0055-6.5 0-2.4844 2.0167-4.5 4.5025-4.5zm.5003 3c-.555 0-1.0005.8984-1.0005 2s.4455 2 1.0005 2c.555 0 1.0006-.8984 1.0006-2s-.4456-2-1.0006-2zm10.0056 0c-.555 0-1.0006.8984-1.0006 2s.4456 2 1.0006 2c.555 0 1.0006-.8984 1.0006-2s-.4456-2-1.0006-2z" fill="#BC7962"/>
</svg>
