<svg width="48" height="48" viewBox="0 0 48 48" xmlns="http://www.w3.org/2000/svg">
    <rect fill="#F5ECE9" width="48" height="48" rx="24"/>
    <path d="M24 11c-7.1719 0-13 5.8281-13 13 0 4.5156 2.3125 8.5 5.8203 10.836l.25.164h13.8594l.25-.164C34.6875 32.5 37 28.5155 37 24c0-7.1719-5.8281-13-13-13zm0 2c6.086 0 11 4.914 11 11 0 3.75-1.9063 7.0156-4.7734 9h-12.461C14.9063 31.0156 13 27.75 13 24c0-6.086 4.914-11 11-11zm0 2a.997.997 0 00-1 1c0 .5547.4453 1 1 1a.997.997 0 001-1 .997.997 0 00-1-1zm5.9766 1.9922c-.2579.0078-.5.1172-.6875.3047l-5.9922 6c-.2657.25-.3672.6172-.2813.9687a1.013 1.013 0 00.7188.7188c.3515.086.7187-.0157.9687-.2813l6.0078-6c.2891-.2812.375-.7187.2188-1.1015a1.0188 1.0188 0 00-.9531-.6094zM18 17a.997.997 0 00-1 1c0 .5547.4453 1 1 1a.997.997 0 001-1 .997.997 0 00-1-1zm-2 6a.997.997 0 00-1 1c0 .5547.4453 1 1 1a.997.997 0 001-1 .997.997 0 00-1-1zm16 0a.997.997 0 00-1 1c0 .5547.4453 1 1 1a.997.997 0 001-1 .997.997 0 00-1-1zm-14 6a.997.997 0 00-1 1c0 .5547.4453 1 1 1a.997.997 0 001-1 .997.997 0 00-1-1zm12 0a.997.997 0 00-1 1c0 .5547.4453 1 1 1a.997.997 0 001-1 .997.997 0 00-1-1z" fill="#BC7962"/>
</svg>
