<svg width="48" height="48" viewBox="0 0 48 48" xmlns="http://www.w3.org/2000/svg">
    <rect fill="#F5ECE9" width="48" height="48" rx="24"/>
    <path d="M14 11c-1.6484 0-3 1.3582-3 3.0148V30.094c0 1.6566 1.3516 3.0149 3 3.0149h9.6953L31 38v-4.8912h3c1.6484 0 3-1.3583 3-3.0149V14.015C37 12.3581 35.6484 11 34 11H14zm0 2.0099h20c.5625 0 1 .4396 1 1.005v16.079c0 .5653-.4375 1.005-1 1.005h-5v3.1483l-4.6953-3.1483H14c-.5625 0-1-.4397-1-1.005V14.015c0-.5654.4375-1.005 1-1.005zm3 4.0198v2.0098h14v-2.0098H17zm0 4.0197v2.01h14v-2.01H17zm0 4.0198v2.0099h8v-2.0099h-8z" fill="#BC7962"/>
</svg>
