<?xml version="1.0" encoding="UTF-8"?>
<svg width="48px" height="48px" viewBox="0 0 48 48" version="1.1" xmlns="http://www.w3.org/2000/svg" xmlns:xlink="http://www.w3.org/1999/xlink">
    <!-- Generator: Sketch 63.1 (92452) - https://sketch.com -->
    <title>icon_4</title>
    <desc>Created with Sketch.</desc>
    <g id="Page-1" stroke="none" stroke-width="1" fill="none" fill-rule="evenodd">
        <g id="landing" transform="translate(-536.000000, -715.000000)" fill-rule="nonzero">
            <g id="Group-4" transform="translate(536.000000, 715.000000)">
                <g id="icon_4">
                    <rect id="Rectangle" fill="#F5ECE9" x="0" y="0" width="48" height="48" rx="24"></rect>
                    <path d="M12.9861062,12 C11.4852725,14 11.9855504,17.25 12.7203345,18.203126 C11.0318967,19.976562 10.0000367,22.375 10.0000367,25.46875 C9.9844389,31.75 14.9403176,36 24.0000367,36 C33.059756,36 38,31.75 38,25.46875 C38,22.273438 37.0150789,19.875 35.4048085,18.140626 C35.9988885,17.25 36.4991664,14 34.9983327,12 C31.2462487,12 28.9949982,14.75 28.9949982,14.75 C28.9949982,14.75 27.2440256,14 23.9922195,14 C20.7404133,14 18.9816243,14.796876 18.9816243,14.796876 C18.9816243,14.796876 16.7381902,12 12.9861062,12 Z M18.4891628,23 C20.9202011,23 21.0061869,23.953126 23.8202499,23.992188 C23.8827847,23.992188 23.9531357,23.984376 24.0234868,23.984376 C24.1329236,23.984376 24.2892604,23.984376 24.4221463,23.984376 C26.9704357,23.882812 27.1424072,23 29.4952761,23 C31.9810328,23 33.997777,25.015626 33.997777,27.5 C33.997777,29.070312 33.997777,34 23.9922195,34 C13.9866619,34 13.9866619,29.195312 13.9866619,27.5 C13.9866619,25.015626 16.0034081,23 18.4891628,23 Z M18.9894407,26 C18.4344444,26 17.9888849,26.898438 17.9888849,28 C17.9888849,29.101562 18.4344444,30 18.9894407,30 C19.544437,30 19.9899964,29.101562 19.9899964,28 C19.9899964,26.898438 19.544437,26 18.9894407,26 Z M28.9949982,26 C28.4400019,26 27.9944425,26.898438 27.9944425,28 C27.9944425,29.101562 28.4400019,30 28.9949982,30 C29.5499945,30 29.995554,29.101562 29.995554,28 C29.995554,26.898438 29.5499945,26 28.9949982,26 Z" id="Shape" fill="#BC7962"></path>
                </g>
            </g>
        </g>
    </g>
</svg>