<svg width="48" height="48" viewBox="0 0 48 48" xmlns="http://www.w3.org/2000/svg">
    <rect fill="#F5ECE9" width="48" height="48" rx="24"/>
    <path d="M29.9325 11c-4.4435 0-8.0676 3.5946-8.0676 8.0018 0 .7111.1891 1.3519.3624 1.9848l-.4884.4845-3.9077-3.8837v-3.1413l-.4727-.2891-4.7113-2.9226L10 13.8131l3.2302 5.1887h3.175l3.9156 3.8759-7.3585 7.2985c-1.5678 1.555-1.5678 4.1025 0 5.6575 1.5678 1.555 4.1362 1.555 5.704 0l5.2155-5.173 5.2156 5.173c1.5678 1.555 4.1361 1.555 5.704 0 1.5678-1.555 1.5678-4.1025 0-5.6575l-3.3563-3.3289C35.1716 26.144 38 22.8933 38 19.0018c0-1.3362-.3624-2.5787-.9297-3.6649l-.6381-1.2112-.969.969-4.3332 4.29-1.5836-1.5707 5.3022-5.2668-1.2211-.6251C32.5324 11.3595 31.2797 11 29.9325 11zm0 2.0005c.457 0 .8508.2188 1.2842.3282l-4.5223 4.4853 4.4356 4.3995L35.66 17.728c.1024.4298.323.8205.323 1.2737 0 3.3289-2.6944 6.0014-6.0506 6.0014-.6933 0-1.3551-.1407-2.017-.3751l-.5987-.2032-10.0765 9.9944c-.7957.7893-2.0563.7893-2.852 0-.7957-.7892-.7957-2.0395 0-2.8287l10.0765-9.9945-.2048-.5938c-.2364-.6564-.3782-1.3128-.3782-2.0005 0-3.3289 2.6945-6.0013 6.0507-6.0013zm-17.0017.7657l2.8835 1.7895v1.2816l-.1655.164h-1.2841l-1.8042-2.8834.3703-.3517zm15.0005 12.878c.2049.0546.4097.1015.6146.1562l4.8295 4.7902c.7957.7892.7957 2.0395 0 2.8287-.7958.7893-2.0563.7893-2.852 0l-5.2156-5.173 2.6235-2.6021z" fill="#BC7962"/>
</svg>
