<svg width="36" height="36" viewBox="0 0 36 36" fill="none" xmlns="http://www.w3.org/2000/svg">
    <rect width="36" height="36" fill="#D15C22"/>
    <path d="M7 6C5.35156 6 4 7.35156 4 9V27C4 28.6484 5.35156 30 7 30H29C30.6484 30 32 28.6484 32 27V9C32 7.35156 30.6484 6 29 6H7ZM7 8H29C29.5625 8 30 8.4375 30 9V10H6V9C6 8.4375 6.4375 8 7 8ZM6 12H30V27C30 27.5625 29.5625 28 29 28H7C6.4375 28 6 27.5625 6 27V12ZM11.3203 15.2969L9.90625 16.7031L13.2031 20L9.90625 23.2891L11.3203 24.7109L16.0312 20L11.3203 15.2969ZM18 22V24H26V22H18Z" fill="white"/>
</svg>
