<svg width="1274" height="520" viewBox="0 0 1274 520" fill="none" xmlns="http://www.w3.org/2000/svg">
<path fill-rule="evenodd" clip-rule="evenodd" d="M1250.97 315.503C1239.2 341.298 1211.08 354.805 1195.19 378.278C1181.93 397.852 1179.32 422.534 1165.49 441.71C1149.14 464.394 1134.65 495.763 1107.09 500.46C1079.07 505.236 1056.43 477.076 1030.86 464.656C1010.28 454.661 991.626 442.557 970.381 434.067C940.642 422.182 900.92 428.93 880.245 404.463C860.742 381.384 874.06 345.475 870.19 315.503C865.789 281.424 838.281 244.328 855.745 214.739C873.77 184.201 923.209 194.347 953.025 175.165C979.101 158.387 987.324 114.242 1018.08 110.299C1049.87 106.222 1071.19 144.99 1101.24 156.158C1126.7 165.619 1154.88 161.286 1180.38 170.618C1212.02 182.194 1253.8 187.081 1268.56 217.378C1283.3 247.628 1264.93 284.886 1250.97 315.503Z" fill="url(#paint0_linear)"/>
<path fill-rule="evenodd" clip-rule="evenodd" d="M592.6 215.528C589.601 169.74 597.315 120.153 627.881 85.9698C657.399 52.9584 707.234 54.685 749.141 40.4621C791.787 25.9884 831.475 -8.70927 875.208 2.02839C919.612 12.9309 946.494 56.7323 971.507 95.0591C995.389 131.655 1018.58 171.997 1014.54 215.528C1010.65 257.445 983.577 294.696 950.57 320.763C922.314 343.077 881.162 331.572 848.486 346.665C808.309 365.222 784.434 420.778 740.285 417.892C696.633 415.037 669.893 368.67 644.08 333.3C618.197 297.834 595.471 259.363 592.6 215.528Z" fill="url(#paint1_linear)"/>
<path fill-rule="evenodd" clip-rule="evenodd" d="M416.195 181.404C428.716 208.577 451.242 231.773 454.422 261.525C457.687 292.073 446.602 322.283 434.257 350.386C421.614 379.167 410.906 416.111 381.593 427.315C349.375 439.629 315.307 407.087 280.871 409.012C255.156 410.45 235.102 432.528 209.726 436.925C179.759 442.117 145.885 452.126 119.473 436.977C93.3146 421.974 92.513 383.736 74.6109 359.431C55.6549 333.695 23.2171 318.79 10.7374 289.351C-2.30104 258.593 -1.55887 223.607 3.00766 190.52C7.81706 155.673 12.91 116.84 37.946 92.2068C63.1721 67.3867 103.32 68.2578 137.282 58.4066C166.284 49.994 194.37 36.8559 224.547 38.0798C253.81 39.2666 280.117 53.909 307.122 65.2949C333.378 76.3652 362.528 83.6993 382.059 104.49C401.464 125.147 404.326 155.648 416.195 181.404Z" fill="url(#paint2_linear)"/>
<path fill-rule="evenodd" clip-rule="evenodd" d="M935.211 289C928.598 253.091 973.207 221.702 1006 251.145L973.512 195C982.797 238.274 933.749 261.992 906 238.519L935.211 289Z" fill="url(#paint3_linear)"/>
<path fill-rule="evenodd" clip-rule="evenodd" d="M971 366.614C950.877 382.336 920.785 359.8 930.121 336L903 372.386C923.123 356.664 953.215 379.2 943.879 403L971 366.614Z" fill="url(#paint4_linear)"/>
<circle cx="1075.5" cy="173.5" r="104.5" fill="url(#paint5_radial)"/>
<circle cx="1024" cy="434" r="86" fill="url(#paint6_radial)"/>
<circle cx="850" cy="304" r="86" fill="url(#paint7_radial)"/>
<circle cx="885.5" cy="141.5" r="63.5" fill="url(#paint8_radial)"/>
<path fill-rule="evenodd" clip-rule="evenodd" d="M904 126.056C904 124.368 902.714 123 901.128 123C899.541 123 898.255 124.368 898.255 126.056V155.943C898.255 157.631 899.541 159 901.128 159C902.714 159 904 157.631 904 155.943V126.056ZM885.774 136.376L890.106 132.151C891.228 131.057 893.046 131.057 894.168 132.151C895.29 133.245 895.29 135.019 894.168 136.114L888.027 142.104C887.962 142.183 887.892 142.259 887.817 142.332C886.696 143.426 884.877 143.426 883.755 142.332L868.841 127.783C867.719 126.689 867.719 124.915 868.841 123.821C869.963 122.727 871.782 122.727 872.903 123.821L885.774 136.376ZM870.872 134.332C872.459 134.332 873.745 135.76 873.745 137.521V155.81C873.745 157.571 872.459 158.999 870.872 158.999C869.286 158.999 868 157.571 868 155.81V137.521C868 135.76 869.286 134.332 870.872 134.332Z" fill="white"/>
<path fill-rule="evenodd" clip-rule="evenodd" d="M834.817 287C833.261 287 832 288.261 832 289.817V320.182C832 321.738 833.261 323 834.817 323C836.373 323 837.635 321.738 837.635 320.182V307.8C837.737 307.811 837.842 307.817 837.948 307.817H855.791C857.347 307.817 858.609 306.556 858.609 305C858.609 303.444 857.347 302.182 855.791 302.182H837.948C837.842 302.182 837.737 302.188 837.635 302.199V289.817C837.635 288.261 836.373 287 834.817 287ZM862.365 289.817C862.365 288.261 863.627 287 865.183 287C866.739 287 868 288.261 868 289.817V320.182C868 321.738 866.739 323 865.183 323C863.627 323 862.365 321.738 862.365 320.182V289.817Z" fill="white"/>
<path fill-rule="evenodd" clip-rule="evenodd" d="M1015.84 431.648L1024 423.492L1032.16 431.652L1036.91 426.907L1024 414L1011.1 426.902L1015.84 431.648ZM1012.49 434.999L1007.75 430.253L1003 434.999L1007.75 439.745L1012.49 434.999ZM1024 446.507L1015.84 438.351L1011.09 443.09L1011.1 443.097L1024 455.999L1036.91 443.092L1036.91 443.09L1032.16 438.347L1024 446.507ZM1040.25 439.747L1045 435.001L1040.25 430.255L1035.51 435.001L1040.25 439.747ZM1028.82 434.997H1028.81L1028.82 434.999L1028.82 435.002L1024 439.818L1019.19 435.006L1019.18 434.999L1019.19 434.993L1020.03 434.149L1020.44 433.74H1020.44L1024 430.181L1028.82 434.997Z" fill="white"/>
<path d="M1074.98 145C1074.76 145.003 1074.54 145.069 1074.35 145.189C1074.17 145.309 1074.02 145.479 1073.92 145.679L1057.2 171.947C1057.18 171.987 1057.15 172.029 1057.13 172.073C1057.13 172.074 1057.13 172.075 1057.13 172.075C1057.11 172.111 1057.09 172.147 1057.08 172.183C1057.05 172.258 1057.03 172.336 1057.02 172.415C1057 172.494 1057 172.574 1057 172.654C1057 172.655 1057 172.656 1057 172.657C1057 172.696 1057 172.735 1057.01 172.774C1057.01 172.782 1057.01 172.789 1057.01 172.797C1057.02 172.857 1057.04 172.916 1057.06 172.973C1057.06 172.984 1057.06 172.995 1057.07 173.006C1057.07 173.007 1057.07 173.007 1057.07 173.008C1057.08 173.046 1057.09 173.082 1057.11 173.118C1057.11 173.119 1057.11 173.12 1057.11 173.121C1057.13 173.156 1057.15 173.19 1057.17 173.224C1057.17 173.225 1057.17 173.225 1057.17 173.226C1057.19 173.26 1057.21 173.293 1057.23 173.325C1057.24 173.339 1057.26 173.353 1057.27 173.367C1057.28 173.384 1057.3 173.401 1057.31 173.418C1057.34 173.448 1057.36 173.476 1057.39 173.503C1057.39 173.503 1057.39 173.504 1057.39 173.505C1057.45 173.558 1057.52 173.605 1057.58 173.646C1057.58 173.646 1057.59 173.647 1057.59 173.648C1057.59 173.651 1057.6 173.654 1057.61 173.657C1057.61 173.658 1057.61 173.659 1057.61 173.66L1074.25 183.172C1074.46 183.339 1074.73 183.43 1074.99 183.43C1075.26 183.431 1075.52 183.342 1075.74 183.177L1092.37 173.671C1092.38 173.667 1092.39 173.662 1092.39 173.657C1092.42 173.642 1092.45 173.626 1092.47 173.608C1092.48 173.603 1092.49 173.597 1092.49 173.592C1092.5 173.587 1092.51 173.582 1092.51 173.578C1092.54 173.561 1092.56 173.543 1092.58 173.524C1092.58 173.522 1092.59 173.521 1092.59 173.519C1092.59 173.515 1092.6 173.511 1092.6 173.507C1092.63 173.484 1092.65 173.46 1092.67 173.435C1092.7 173.406 1092.73 173.375 1092.75 173.343C1092.78 173.312 1092.8 173.28 1092.82 173.247C1092.82 173.246 1092.82 173.246 1092.82 173.245C1092.82 173.243 1092.82 173.24 1092.82 173.238C1092.84 173.207 1092.86 173.175 1092.88 173.142C1092.88 173.141 1092.88 173.14 1092.88 173.139C1092.89 173.112 1092.9 173.084 1092.92 173.055C1092.92 173.046 1092.92 173.038 1092.93 173.029C1092.93 173.02 1092.93 173.011 1092.93 173.001C1092.94 172.974 1092.95 172.947 1092.96 172.919C1092.96 172.918 1092.96 172.916 1092.96 172.914C1092.96 172.912 1092.96 172.91 1092.96 172.907C1092.97 172.871 1092.98 172.834 1092.98 172.797C1092.99 172.767 1092.99 172.736 1093 172.706C1093 172.703 1093 172.7 1093 172.696C1093 172.66 1093 172.623 1093 172.586C1093 172.563 1093 172.539 1092.99 172.516C1092.99 172.491 1092.99 172.466 1092.99 172.441C1092.99 172.44 1092.99 172.439 1092.99 172.439C1092.99 172.435 1092.98 172.431 1092.98 172.427C1092.98 172.393 1092.97 172.359 1092.96 172.326C1092.96 172.325 1092.96 172.323 1092.96 172.321C1092.96 172.291 1092.95 172.262 1092.94 172.232C1092.93 172.224 1092.93 172.215 1092.93 172.207C1092.92 172.197 1092.92 172.188 1092.92 172.179C1092.91 172.152 1092.9 172.125 1092.88 172.099C1092.88 172.098 1092.88 172.097 1092.88 172.097C1092.88 172.094 1092.88 172.092 1092.88 172.089C1092.86 172.056 1092.84 172.023 1092.82 171.991C1092.82 171.987 1092.82 171.983 1092.82 171.979C1092.81 171.976 1092.81 171.973 1092.81 171.97L1092.77 171.914L1076.08 145.672C1075.98 145.468 1075.82 145.296 1075.63 145.177C1075.43 145.058 1075.21 144.997 1074.98 145ZM1073.8 150.339V164.623L1061.3 169.978L1073.8 150.339ZM1076.2 150.339L1088.7 169.978L1076.2 164.623V150.339ZM1073.8 167.234V180.144L1060.89 172.769L1073.8 167.234ZM1076.2 167.234L1089.11 172.769L1076.2 180.144V167.234ZM1091.81 177.412C1091.6 177.411 1091.39 177.466 1091.2 177.571L1075 186.831L1058.8 177.571C1058.62 177.472 1058.42 177.418 1058.22 177.414C1058 177.41 1057.78 177.468 1057.59 177.583C1057.39 177.697 1057.24 177.864 1057.13 178.063C1057.03 178.262 1056.99 178.486 1057 178.709C1057.02 178.932 1057.1 179.146 1057.23 179.327L1073.95 202.017C1074.06 202.202 1074.21 202.356 1074.39 202.463C1074.58 202.57 1074.79 202.627 1075 202.627C1075.21 202.627 1075.42 202.571 1075.6 202.464C1075.79 202.358 1075.94 202.204 1076.04 202.02L1092.76 179.327C1092.9 179.148 1092.98 178.937 1093 178.717C1093.01 178.496 1092.97 178.274 1092.87 178.076C1092.77 177.877 1092.62 177.71 1092.43 177.593C1092.25 177.476 1092.03 177.413 1091.81 177.412ZM1062.54 182.474L1073.8 188.912V197.761L1062.54 182.474ZM1087.46 182.474L1076.2 197.761V188.912L1087.46 182.474Z" fill="white"/>
<path fill-rule="evenodd" clip-rule="evenodd" d="M861.583 200C869.194 202.98 867.059 218.621 856 217.865L880.403 223C870.019 219.244 874.797 204.159 883 204.507L861.583 200Z" fill="url(#paint9_linear)"/>
<defs>
<linearGradient id="paint0_linear" x1="1348.34" y1="358.234" x2="1149.75" y2="89.331" gradientUnits="userSpaceOnUse">
<stop stop-color="#540B8D"/>
<stop offset="1" stop-color="#080E1E" stop-opacity="0"/>
</linearGradient>
<linearGradient id="paint1_linear" x1="517.838" y1="152.625" x2="734.027" y2="425.8" gradientUnits="userSpaceOnUse">
<stop stop-color="#540B8D"/>
<stop offset="1" stop-color="#080E1E" stop-opacity="0"/>
</linearGradient>
<linearGradient id="paint2_linear" x1="488.002" y1="136.856" x2="63.4078" y2="357.537" gradientUnits="userSpaceOnUse">
<stop stop-color="#540B8D"/>
<stop offset="1" stop-color="#080E1E" stop-opacity="0"/>
</linearGradient>
<linearGradient id="paint3_linear" x1="994.463" y1="220.871" x2="910.91" y2="264.734" gradientUnits="userSpaceOnUse">
<stop stop-color="#2D3C72"/>
<stop offset="1" stop-color="#0A2053"/>
</linearGradient>
<linearGradient id="paint4_linear" x1="921.154" y1="357.778" x2="962.886" y2="398.633" gradientUnits="userSpaceOnUse">
<stop stop-color="#091430"/>
<stop offset="1" stop-color="#BE932B"/>
</linearGradient>
<radialGradient id="paint5_radial" cx="0" cy="0" r="1" gradientUnits="userSpaceOnUse" gradientTransform="translate(1027.97 110.213) rotate(60.6728) scale(204.471)">
<stop stop-color="#627EEA"/>
<stop offset="1" stop-color="#080E1E"/>
</radialGradient>
<radialGradient id="paint6_radial" cx="0" cy="0" r="1" gradientUnits="userSpaceOnUse" gradientTransform="translate(993.605 379.542) rotate(68.7174) scale(184.43)">
<stop stop-color="#F3BA2F"/>
<stop offset="1" stop-color="#080E1E"/>
</radialGradient>
<radialGradient id="paint7_radial" cx="0" cy="0" r="1" gradientUnits="userSpaceOnUse" gradientTransform="translate(810.613 275.519) rotate(62.7341) scale(146.124)">
<stop stop-color="#1058FB"/>
<stop offset="1" stop-color="#080E1E"/>
</radialGradient>
<radialGradient id="paint8_radial" cx="0" cy="0" r="1" gradientUnits="userSpaceOnUse" gradientTransform="translate(867.644 98.3338) rotate(64.4861) scale(145.705)">
<stop stop-color="#D15C22"/>
<stop offset="1" stop-color="#080E1E"/>
</radialGradient>
<linearGradient id="paint9_linear" x1="874.755" y1="199.593" x2="860.42" y2="239.718" gradientUnits="userSpaceOnUse">
<stop stop-color="#4E2920"/>
<stop offset="1" stop-color="#0C2D7A"/>
</linearGradient>
</defs>
</svg>
