<svg width="163" height="32" viewBox="0 0 163 32" fill="none" xmlns="http://www.w3.org/2000/svg">
<path d="M0.797373 0.455352C0.341731 0.455352 0 0.797597 0 1.25393V30.7441C0 31.2575 0.341731 31.5427 0.797373 31.5427H5.80943C6.32203 31.5427 6.6068 31.2575 6.6068 30.7441V18.5373H20.7317V30.7441C20.7317 31.2004 21.0734 31.5427 21.5291 31.5427H26.5411C27.0537 31.5427 27.3385 31.2004 27.3385 30.7441V1.25393C27.3385 0.740557 27.0537 0.455352 26.5411 0.455352H21.5291C21.0734 0.455352 20.7317 0.797597 20.7317 1.25393V12.2628H6.6068V1.25393C6.6068 0.740557 6.32203 0.455352 5.80943 0.455352H0.797373Z" fill="white"/>
<path d="M49.3579 6.21649C54.9965 6.21649 58.9833 10.2664 58.9833 16.0275C58.9833 21.6746 54.9965 25.7816 49.3579 25.7816C43.6624 25.7816 39.6755 21.6746 39.6755 16.0275C39.6755 10.2664 43.6624 6.21649 49.3579 6.21649ZM33.0118 16.0275C33.0118 25.1541 40.359 31.999 49.3579 31.999C58.2999 31.999 65.6471 25.1541 65.6471 16.0275C65.6471 6.90098 58.2999 -0.000976562 49.3579 -0.000976562C40.359 -0.000976562 33.0118 6.90098 33.0118 16.0275Z" fill="white"/>
<path d="M98.8702 31.5427C99.3259 31.5427 99.6676 31.2575 99.6676 30.7441V1.25393C99.6676 0.740557 99.3259 0.455352 98.8702 0.455352H94.029C93.5164 0.455352 93.2317 0.740557 93.2317 1.25393V12.1488L93.6303 21.7887L93.3456 21.8457L86.1692 11.6924L77.6259 0.854637C77.3981 0.626473 76.9425 0.455352 76.5438 0.455352H72.1582C71.6456 0.455352 71.3609 0.740557 71.3609 1.25393V30.7441C71.3609 31.2575 71.6456 31.5427 72.1582 31.5427H76.9994C77.512 31.5427 77.7968 31.2575 77.7968 30.7441V19.7922L77.3981 10.2094L77.6829 10.1523L85.5427 21.2753L93.3456 31.1434C93.5164 31.3716 93.8012 31.5427 94.1999 31.5427H98.8702Z" fill="white"/>
<path d="M107.31 0.455352C106.912 0.455352 106.513 0.797597 106.513 1.25393V30.7441C106.513 31.2575 106.798 31.5427 107.31 31.5427H130.833C131.288 31.5427 131.63 31.2004 131.63 30.7441V26.1238C131.63 25.6675 131.345 25.3252 130.833 25.3252H113.12V18.5944H128.27C128.782 18.5944 129.067 18.2521 129.067 17.7958V13.2325C129.067 12.7762 128.782 12.434 128.27 12.434H113.12V6.61578H130.377C130.833 6.61578 131.174 6.27353 131.174 5.8172V1.25393C131.174 0.797597 130.833 0.455352 130.377 0.455352H107.31Z" fill="white"/>
<path d="M138.68 0.455352C138.281 0.455352 137.883 0.797597 137.883 1.25393V30.7441C137.883 31.2575 138.168 31.5427 138.68 31.5427H162.203C162.658 31.5427 163 31.2004 163 30.7441V26.1238C163 25.6675 162.715 25.3252 162.203 25.3252H144.49V18.5944H159.64C160.152 18.5944 160.437 18.2521 160.437 17.7958V13.2325C160.437 12.7762 160.152 12.434 159.64 12.434H144.49V6.61578H161.747C162.203 6.61578 162.544 6.27353 162.544 5.8172V1.25393C162.544 0.797597 162.203 0.455352 161.747 0.455352H138.68Z" fill="white"/>
</svg>
