<svg width="32" height="32" viewBox="0 0 32 32" fill="none" xmlns="http://www.w3.org/2000/svg">
<path fill-rule="evenodd" clip-rule="evenodd" d="M16 0.493752C7.43752 0.493752 0.493774 7.4375 0.493774 16C0.493774 24.5625 7.43752 31.5063 16 31.5063C24.5625 31.5063 31.5063 24.5625 31.5063 16C31.5063 7.4375 24.5625 0.493752 16 0.493752ZM14.4062 23.125C16.3875 24.7563 18.4812 23.5313 19.6625 21.6C20.2812 20.5875 21.8687 21.5063 21.25 22.5188C19.7 25.05 16.5062 26.95 13.7375 24.9125C11.8187 23.5 10.7875 21.3625 10.35 19.0875C9.94061 19.0875 9.52967 19.0891 9.11873 19.0906C8.7078 19.0922 8.29686 19.0938 7.88748 19.0938C7.54998 19.0938 7.30623 18.7 7.49373 18.4063C8.05938 17.5219 8.62346 16.6359 9.18754 15.7499C9.75158 14.864 10.3156 13.9781 10.8812 13.0938C11.0687 12.8 11.4812 12.8 11.675 13.0938C12.2438 13.9751 12.8126 14.8579 13.3814 15.7408C13.9501 16.6236 14.5188 17.5063 15.0875 18.3875C15.2125 18.5813 15.1687 18.7688 15.05 18.9C14.975 19.0063 14.8562 19.0813 14.6875 19.0813C14.275 19.0813 13.8609 19.0828 13.4469 19.0844C13.0328 19.0859 12.6187 19.0875 12.2062 19.0875C12.5375 20.6375 13.2062 22.1313 14.4062 23.125ZM22.9062 12.8156C23.3172 12.8141 23.7281 12.8125 24.1375 12.8125C24.475 12.8063 24.7187 13.2063 24.5375 13.5C23.9719 14.3844 23.4078 15.2703 22.8438 16.1562C22.2797 17.0421 21.7156 17.9281 21.15 18.8125C20.9625 19.1063 20.55 19.1125 20.3562 18.8125L20.3552 18.8109C19.218 17.0489 18.0809 15.287 16.9437 13.5188C16.8125 13.325 16.8625 13.1375 16.9812 13.0063C17.05 12.9 17.1687 12.825 17.3375 12.825C17.75 12.825 18.164 12.8234 18.5781 12.8219C18.9922 12.8203 19.4062 12.8188 19.8187 12.8188C19.4875 11.2688 18.8187 9.775 17.6187 8.78125C15.6375 7.15 13.5437 8.375 12.3625 10.3063C11.75 11.3125 10.1562 10.4 10.775 9.3875C12.325 6.85625 15.5187 4.95625 18.2875 6.99375C20.2062 8.40625 21.2375 10.5438 21.675 12.8188C22.0844 12.8188 22.4953 12.8172 22.9062 12.8156Z" fill="white"/>
</svg>
