<svg width="1106" height="740" viewBox="0 0 1106 740" fill="none" xmlns="http://www.w3.org/2000/svg">
<path fill-rule="evenodd" clip-rule="evenodd" d="M541.034 3.33513C629.408 -3.46253 716.27 -1.02551 799.888 21.5346C911.029 51.5205 1057.74 69.8975 1097.59 153.495C1137.3 236.771 1026.05 315.494 978.641 396.457C937.137 467.334 909.205 540.985 837.949 596.891C754.596 662.288 661.34 735.406 541.034 739.794C419.334 744.233 318.161 676.038 222.435 619.339C130.328 564.783 22.4121 507.98 2.86576 421.033C-16.1195 336.583 63.1302 259.631 125.455 187.949C173.733 132.422 242.035 92.3421 317.986 58.6022C387.079 27.9091 461.207 9.4754 541.034 3.33513Z" fill="url(#paint0_linear)"/>
<defs>
<linearGradient id="paint0_linear" x1="400" y1="-155" x2="385.361" y2="396.193" gradientUnits="userSpaceOnUse">
<stop stop-color="#540B8D"/>
<stop offset="1" stop-color="#080E1E" stop-opacity="0"/>
</linearGradient>
</defs>
</svg>
