<svg width="316" height="302" viewBox="0 0 316 302" fill="none" xmlns="http://www.w3.org/2000/svg">
<path fill-rule="evenodd" clip-rule="evenodd" d="M156.136 0.327248C185.514 3.68995 198.647 38.778 223.903 54.1612C252.832 71.7821 301.007 64.8346 313.646 96.2671C326.087 127.207 285.561 154.525 277.247 186.821C268.018 222.667 291.874 271.399 262.697 294.167C233.78 316.731 192.74 283.601 156.136 281.327C122.933 279.264 86.0412 300.566 58.778 281.497C31.4982 262.418 35.1968 221.77 25.4596 189.93C15.9461 158.822 -7.71888 128.41 2.5178 97.5319C12.7462 66.6793 48.6174 54.6181 76.0797 37.2408C101.535 21.1334 126.21 -3.09821 156.136 0.327248Z" fill="url(#paint0_linear)"/>
<path d="M164.506 57.1216C156.807 61.5664 154.17 71.4088 158.614 79.1076L145.202 55.8766C140.757 48.1779 130.915 45.5406 123.216 49.9855C115.517 54.4304 112.88 64.2728 117.325 71.9715L122.69 81.2639C118.245 73.5651 108.403 70.9279 100.704 75.3727C93.0051 79.8176 90.3679 89.66 94.8127 97.3587L102.86 111.297C98.4153 103.599 88.5729 100.961 80.8742 105.406C73.1755 109.851 70.5382 119.693 74.9831 127.392L144.727 248.193L256.236 183.814L186.492 63.0127C182.047 55.314 172.204 52.6767 164.506 57.1216Z" fill="url(#paint1_linear)"/>
<path d="M140.753 262.768L143.53 267.578C147.948 275.231 157.734 277.853 165.386 273.435L267.767 214.325C275.419 209.907 278.041 200.121 273.623 192.469L270.846 187.658C266.428 180.006 256.642 177.384 248.989 181.802L146.609 240.911C138.956 245.33 136.334 255.115 140.753 262.768Z" fill="url(#paint2_linear)"/>
<path d="M219.015 44.2353L42.4598 146.169L96.1094 239.093L272.664 137.159L219.015 44.2353Z" fill="#0DC10A"/>
<path d="M213.124 66.2208L64.4458 152.06L102 217.107L250.678 131.267L213.124 66.2208Z" fill="#7EED7B"/>
<path d="M170.974 164.895C183.805 157.488 188.2 141.082 180.793 128.252C173.386 115.422 156.98 111.026 144.15 118.433C131.32 125.841 126.924 142.247 134.331 155.077C141.739 167.907 158.144 172.303 170.974 164.895Z" fill="#0DC10A"/>
<path d="M119.674 151.149L87.1505 169.927L97.8804 188.512L130.404 169.734L119.674 151.149Z" fill="#0DC10A"/>
<path d="M217.244 94.8176L194.013 108.23L204.743 126.815L227.974 113.402L217.244 94.8176Z" fill="#0DC10A"/>
<path d="M213.316 109.475L248.189 169.875L220.311 185.97L185.439 125.569C180.994 117.871 183.632 108.028 191.33 103.583C199.029 99.1386 208.872 101.776 213.316 109.475Z" fill="url(#paint3_linear)"/>
<defs>
<linearGradient id="paint0_linear" x1="126.238" y1="-72.7496" x2="360.937" y2="247.148" gradientUnits="userSpaceOnUse">
<stop stop-color="#540B8D"/>
<stop offset="1" stop-color="#080E1E" stop-opacity="0"/>
</linearGradient>
<linearGradient id="paint1_linear" x1="169" y1="116.066" x2="128" y2="248.066" gradientUnits="userSpaceOnUse">
<stop stop-color="#F2C194"/>
<stop offset="1" stop-color="#E1A46C"/>
</linearGradient>
<linearGradient id="paint2_linear" x1="216" y1="174.066" x2="188" y2="319.066" gradientUnits="userSpaceOnUse">
<stop stop-color="#1058FB"/>
<stop offset="1" stop-color="#001441"/>
</linearGradient>
<linearGradient id="paint3_linear" x1="209" y1="112.566" x2="196.701" y2="159.783" gradientUnits="userSpaceOnUse">
<stop stop-color="#F2C194"/>
<stop offset="1" stop-color="#EDB887"/>
</linearGradient>
</defs>
</svg>
