<svg width="220" height="40" viewBox="0 0 220 40" fill="none" xmlns="http://www.w3.org/2000/svg">
<circle cx="20" cy="20" r="20" fill="#1058FB"/>
<rect x="12.4" y="18.56" width="12" height="2.88" rx="1.44" fill="white"/>
<rect x="26.32" y="10.8" width="2.88" height="18.4" rx="1.44" fill="white"/>
<rect x="10.8" y="10.8" width="2.88" height="18.4" rx="1.44" fill="white"/>
<path d="M57.8963 9.18182V31H62.3707V16.7457H62.5518L68.1982 30.8935H71.245L76.8913 16.799H77.0724V31H81.5469V9.18182H75.858L69.8494 23.8409H69.5938L63.5852 9.18182H57.8963ZM85.2623 31H89.8006V14.6364H85.2623V31ZM87.5421 12.527C88.8951 12.527 90.003 11.4936 90.003 10.2259C90.003 8.96875 88.8951 7.93537 87.5421 7.93537C86.1998 7.93537 85.0918 8.96875 85.0918 10.2259C85.0918 11.4936 86.1998 12.527 87.5421 12.527ZM97.9744 21.5398C97.9851 19.4304 99.2422 18.1946 101.075 18.1946C102.896 18.1946 103.994 19.3878 103.983 21.3906V31H108.521V20.581C108.521 16.767 106.284 14.4233 102.875 14.4233C100.446 14.4233 98.6882 15.6165 97.9531 17.5234H97.7614V14.6364H93.4361V31H97.9744V21.5398ZM120.802 14.6364H117.723V10.7159H113.185V14.6364H110.948V18.0455H113.185V26.5682C113.164 29.7749 115.347 31.3622 118.639 31.2237C119.811 31.1811 120.642 30.9467 121.1 30.7976L120.387 27.4205C120.163 27.4631 119.683 27.5696 119.257 27.5696C118.352 27.5696 117.723 27.2287 117.723 25.9716V18.0455H120.802V14.6364ZM131.04 31.3196C135.088 31.3196 137.816 29.3487 138.455 26.3125L134.257 26.0355C133.799 27.282 132.627 27.9318 131.115 27.9318C128.845 27.9318 127.407 26.4297 127.407 23.9901V23.9794H138.551V22.733C138.551 17.1719 135.184 14.4233 130.859 14.4233C126.044 14.4233 122.922 17.843 122.922 22.8928C122.922 28.081 126.001 31.3196 131.04 31.3196ZM127.407 21.1669C127.503 19.3026 128.92 17.8111 130.933 17.8111C132.904 17.8111 134.268 19.2173 134.279 21.1669H127.407ZM141.512 31H146.051V21.7422C146.051 19.7287 147.521 18.3438 149.524 18.3438C150.152 18.3438 151.015 18.4503 151.441 18.5888V14.5618C151.036 14.4659 150.472 14.402 150.014 14.402C148.181 14.402 146.679 15.4673 146.083 17.4915H145.912V14.6364H141.512V31ZM160.816 31H165.429V21.9872H174.794V31H179.396V9.18182H174.794V18.1839H165.429V9.18182H160.816V31ZM193.607 24.0327C193.618 26.2273 192.116 27.3778 190.486 27.3778C188.771 27.3778 187.663 26.174 187.652 24.2457V14.6364H183.114V25.0554C183.124 28.88 185.362 31.2131 188.654 31.2131C191.115 31.2131 192.883 29.9453 193.618 28.0277H193.789V31H198.146V14.6364H193.607V24.0327ZM201.861 31H206.336V28.3793H206.538C207.167 29.7429 208.541 31.2663 211.183 31.2663C214.912 31.2663 217.82 28.3153 217.82 22.8395C217.82 17.2145 214.784 14.4233 211.194 14.4233C208.456 14.4233 207.145 16.0533 206.538 17.3849H206.4V9.18182H201.861V31ZM206.304 22.8182C206.304 19.8991 207.539 18.0348 209.745 18.0348C211.993 18.0348 213.186 19.9844 213.186 22.8182C213.186 25.6733 211.971 27.6548 209.745 27.6548C207.561 27.6548 206.304 25.7372 206.304 22.8182Z" fill="white"/>
</svg>
