<svg width="154" height="48" viewBox="0 0 154 48" fill="none" xmlns="http://www.w3.org/2000/svg">
<path d="M16.9399 39.1971L9.22905 18.9763H3.83546L1.52588e-05 47.444H5.55342L7.99052 29.1264L14.6626 47.444H19.4968L26.1689 29.1264L28.606 47.444H33.8798L30.0443 18.9763H24.6507L16.9399 39.1971Z" fill="white"/>
<path d="M39.1937 47.444H44.2677V27.025H39.1937V47.444ZM38.3148 20.7605C38.3148 22.624 39.833 24.1306 41.7108 24.1306C43.5885 24.1306 45.1067 22.624 45.1067 20.7605C45.1067 18.897 43.5885 17.3904 41.7108 17.3904C39.833 17.3904 38.3148 18.897 38.3148 20.7605Z" fill="white"/>
<path d="M69.5667 35.5891C69.5667 29.2453 65.0521 26.4699 60.8171 26.4699C57.8606 26.4699 55.863 27.5801 55.3037 29.0867V27.025H50.3895V47.444H55.4635V34.9151C55.8231 33.1309 57.9006 31.8225 60.058 31.8225C62.5351 31.8225 64.4927 33.4877 64.4927 36.4217V47.444H69.5667V35.5891Z" fill="white"/>
<path d="M87.5472 41.1002C86.6283 42.1311 85.7893 42.6465 84.391 42.6465C83.0326 42.6465 81.834 41.9328 81.834 39.9108V32.3775H88.3862V27.025H81.874V21.8707H80.3158L73.2442 30.7519V32.3775H76.76V41.0209C76.76 45.4219 78.9574 47.9991 83.512 47.9991C85.8293 47.9991 87.6671 46.9682 88.6259 45.6202L87.5472 41.1002Z" fill="white"/>
<path d="M103.214 42.9241C100.097 42.9241 97.7002 41.695 97.2207 39.0385H112.483C112.562 38.5627 112.602 37.849 112.602 37.2543C112.602 31.5449 108.647 26.4699 102.574 26.4699C96.1021 26.4699 92.0269 31.4656 92.0269 37.2543C92.0269 43.8756 96.7812 47.9991 103.054 47.9991C106.849 47.9991 109.806 46.3735 111.084 44.2721L109.526 40.3866C108.367 41.9328 105.771 42.9241 103.214 42.9241ZM97.4205 34.9151C97.86 32.7344 100.057 31.5846 102.574 31.5846C105.051 31.5846 107.089 32.774 107.409 34.9151H97.4205Z" fill="white"/>
<path d="M130.087 28.0162C129.568 27.1836 128.289 26.4699 126.771 26.4699C124.454 26.4699 122.816 27.818 122.216 29.7211V27.025H117.302V47.444H122.376V35.1529C122.776 33.2895 124.294 31.8225 126.651 31.8225C127.81 31.8225 128.769 32.2586 129.368 32.6551L130.087 28.0162Z" fill="white"/>
<circle cx="141.913" cy="11.1295" r="11.1304" fill="#D15C22"/>
<path fill-rule="evenodd" clip-rule="evenodd" d="M147.478 7.14574C147.478 6.65643 147.167 6.25977 146.783 6.25977C146.398 6.25977 146.087 6.65643 146.087 7.14574V15.8086C146.087 16.2979 146.398 16.6945 146.783 16.6945C147.167 16.6945 147.478 16.2979 147.478 15.8086V7.14574ZM142.079 9.95395L143.306 8.78709C143.624 8.48492 144.14 8.48492 144.457 8.78709C144.775 9.08927 144.775 9.5792 144.457 9.88138L142.718 11.5357C142.699 11.5574 142.679 11.5784 142.658 11.5986C142.34 11.9008 141.825 11.9008 141.507 11.5986L137.282 7.58092C136.964 7.27875 136.964 6.78882 137.282 6.48664C137.6 6.18447 138.115 6.18447 138.433 6.48664L142.079 9.95395ZM137.739 9.73804C138.123 9.73804 138.435 10.1408 138.435 10.6376V15.795C138.435 16.2918 138.123 16.6946 137.739 16.6946C137.355 16.6946 137.044 16.2918 137.044 15.795V10.6376C137.044 10.1408 137.355 9.73804 137.739 9.73804Z" fill="white"/>
</svg>
