<svg width="319" height="313" viewBox="0 0 319 313" fill="none" xmlns="http://www.w3.org/2000/svg">
<path fill-rule="evenodd" clip-rule="evenodd" d="M160.806 242.47C128.541 238.209 89.9444 268.572 65.5024 246.871C42.1619 226.148 54.806 185.233 61.2711 154.098C66.5091 128.874 87.0575 111.711 98.3703 88.589C111.954 60.827 107.364 20.3694 134.017 5.41804C160.405 -9.38454 192.303 9.71903 220.348 20.164C245.848 29.6608 271.075 40.9849 287.84 62.706C304.475 84.2584 308.561 111.935 312.241 139.223C316.299 169.313 326.199 202.415 310.168 228.251C294.096 254.151 261.602 265.997 231.815 268.833C205.985 271.292 186.469 245.858 160.806 242.47Z" fill="url(#paint0_linear)"/>
<path fill-rule="evenodd" clip-rule="evenodd" d="M244.216 128.142C232.287 148.967 54.0794 197.365 33.2542 185.436L40.6673 212.732C52.5968 191.906 230.804 143.508 251.63 155.437L244.216 128.142Z" fill="url(#paint1_radial)"/>
<path fill-rule="evenodd" clip-rule="evenodd" d="M221.087 248.368C196.441 244.418 84.4752 99.5208 86.87 74.6759L63.7971 92.5049C88.4426 96.455 200.409 241.352 198.014 266.197L221.087 248.368Z" fill="url(#paint2_radial)"/>
<path fill-rule="evenodd" clip-rule="evenodd" d="M138.392 44.8293C134.442 69.4748 46.7637 137.226 21.9188 134.831L39.7479 157.904C43.698 133.258 131.376 65.5074 156.221 67.9022L138.392 44.8293Z" fill="url(#paint3_radial)"/>
<path fill-rule="evenodd" clip-rule="evenodd" d="M133.701 274.128C110.3 265.445 47.2825 138.743 54.4783 114.843L28.3705 127.828C51.7718 136.511 114.789 263.212 107.593 287.113L133.701 274.128Z" fill="url(#paint4_radial)"/>
<path fill-rule="evenodd" clip-rule="evenodd" d="M184.345 67.9552C190.127 92.2363 99.1072 251.129 75.2371 258.424L100.539 272.918C94.7566 248.637 185.777 89.7441 209.647 82.4489L184.345 67.9552Z" fill="url(#paint5_radial)"/>
<path fill-rule="evenodd" clip-rule="evenodd" d="M144.536 62.6559C162.834 79.6325 175.103 257.582 159.309 276.91L188.399 274.904C170.101 257.927 157.832 79.9774 173.626 60.6501L144.536 62.6559Z" fill="url(#paint6_radial)"/>
<path fill-rule="evenodd" clip-rule="evenodd" d="M241.217 213.618C218.53 224.025 49.4305 167.262 37.6187 145.274L28.3395 172.917C51.026 162.509 220.126 219.272 231.938 241.261L241.217 213.618Z" fill="url(#paint7_radial)"/>
<path fill-rule="evenodd" clip-rule="evenodd" d="M247.85 175.653C234.77 196.91 76.1908 239.978 54.1536 228.258L61.7958 256.398C74.8767 235.14 233.455 192.072 255.493 203.792L247.85 175.653Z" fill="url(#paint8_radial)"/>
<path fill-rule="evenodd" clip-rule="evenodd" d="M253.231 119.904C230.545 130.312 96.3929 85.2806 84.5811 63.2924L75.3019 90.9353C97.9884 80.5274 232.14 125.559 243.952 147.547L253.231 119.904Z" fill="url(#paint9_radial)"/>
<path fill-rule="evenodd" clip-rule="evenodd" d="M185.05 56.3651C176.368 79.7664 49.666 142.784 25.7657 135.588L38.7509 161.696C47.4332 138.294 174.135 75.2771 198.035 82.4729L185.05 56.3651Z" fill="url(#paint10_radial)"/>
<path fill-rule="evenodd" clip-rule="evenodd" d="M220.284 92.4136C217.232 116.219 71.1108 229.13 47.3057 226.078L64.6 248.459C67.652 224.654 213.773 111.743 237.578 114.794L220.284 92.4136Z" fill="url(#paint11_radial)"/>
<circle cx="66.9623" cy="72.757" r="20" fill="url(#paint12_linear)"/>
<circle cx="35.3275" cy="109.077" r="20" fill="url(#paint13_linear)"/>
<circle cx="19.9999" cy="154.739" r="20" fill="url(#paint14_linear)"/>
<circle cx="23.313" cy="202.79" r="20" fill="url(#paint15_linear)"/>
<circle cx="44.7624" cy="245.916" r="20" fill="url(#paint16_linear)"/>
<circle cx="81.0826" cy="277.551" r="20" fill="url(#paint17_linear)"/>
<circle cx="126.744" cy="292.879" r="20" fill="url(#paint18_linear)"/>
<circle cx="217.921" cy="268.116" r="20" fill="url(#paint19_linear)"/>
<circle cx="249.556" cy="231.796" r="20" fill="url(#paint20_linear)"/>
<circle cx="264.884" cy="186.134" r="20" fill="url(#paint21_linear)"/>
<circle cx="261.571" cy="138.083" r="20" fill="url(#paint22_linear)"/>
<circle cx="240.121" cy="94.9569" r="20" fill="url(#paint23_linear)"/>
<circle cx="203.801" cy="63.3221" r="20" fill="url(#paint24_linear)"/>
<circle cx="158.14" cy="47.9945" r="20" fill="url(#paint25_linear)"/>
<circle cx="174.796" cy="289.565" r="20" fill="url(#paint26_linear)"/>
<circle cx="110.088" cy="51.3077" r="20" fill="url(#paint27_linear)"/>
<g filter="url(#filter0_d)">
<path fill-rule="evenodd" clip-rule="evenodd" d="M156.189 154.115C160.509 150.755 167.949 148.035 178.509 148.035C194.829 148.035 205.469 153.475 205.469 166.995C205.469 180.035 194.829 186.595 175.069 186.595C151.069 186.595 141.469 177.235 141.469 159.155C141.469 135.955 155.229 128.995 171.709 128.995C185.629 128.995 194.909 130.915 201.709 132.355V143.795C200.861 143.632 200.011 143.465 199.155 143.298C192.016 141.902 184.516 140.435 175.229 140.435C163.869 140.435 157.629 142.755 156.189 154.115ZM155.869 165.795C155.869 171.635 160.749 175.155 173.469 175.155C187.069 175.155 191.069 171.635 191.069 165.795C191.069 159.955 187.149 156.515 173.469 156.515C161.149 156.515 155.869 159.875 155.869 165.795ZM119.6 129.795V173.715H138.8V185.795H85.9999V173.715H105.28L105.36 147.315C99.2799 152.675 91.8399 152.675 85.9999 152.675V140.515C94.2399 140.515 105.2 140.515 105.2 129.795H119.6ZM157.962 214.995V195.795H162.066V214.995H157.962ZM89.5839 215.235C95.4159 215.235 99.3759 213.123 99.3759 207.939C99.3759 202.731 95.4159 200.619 89.5839 200.619C83.7279 200.619 79.7919 202.731 79.7919 207.939C79.7919 213.123 83.7279 215.235 89.5839 215.235ZM89.5839 211.803C85.7679 211.803 83.8959 210.867 83.8959 207.939C83.8959 204.987 85.7679 204.051 89.5839 204.051C93.3759 204.051 95.2479 204.987 95.2479 207.939C95.2479 210.867 93.3759 211.803 89.5839 211.803ZM112.29 200.619C109.65 200.619 107.154 201.363 105.042 203.259V200.859H100.938V214.995H105.042V206.523C107.538 204.579 110.178 204.051 112.482 204.051C113.682 204.051 114.762 204.195 116.106 204.531V201.099C115.146 200.859 113.97 200.619 112.29 200.619ZM117.507 202.083C120.387 201.147 123.219 200.619 126.171 200.619C132.075 200.619 135.435 202.515 135.483 207.867V214.995H131.355V213.243C128.859 214.467 126.099 215.235 122.763 215.235C118.803 215.235 116.331 213.963 116.331 210.771C116.331 207.099 120.363 205.947 124.851 205.947C127.275 205.947 129.507 206.331 131.355 206.955C131.355 204.267 127.899 204.051 125.979 204.051C124.131 204.051 121.875 204.219 118.971 205.083L117.507 202.083ZM123.939 212.211C126.171 212.211 129.243 211.515 131.355 210.603V209.499C129.915 209.043 127.971 208.635 125.355 208.635C122.283 208.635 120.435 209.163 120.435 210.603C120.435 212.091 121.803 212.211 123.939 212.211ZM136.932 207.939C136.932 213.123 140.868 215.235 146.724 215.235C152.004 215.235 155.725 213.507 156.396 209.355H152.196C151.644 211.179 149.7 211.803 146.724 211.803C143.196 211.803 141.036 210.867 141.036 207.939C141.036 204.987 143.196 204.051 146.724 204.051C149.7 204.051 151.644 204.675 152.196 206.499H156.396C155.725 202.347 152.004 200.619 146.724 200.619C140.868 200.619 136.932 202.731 136.932 207.939ZM173.18 211.899C170.444 211.899 168.284 211.155 167.828 208.899H183.092C183.092 202.467 178.796 200.619 173.42 200.619C167.684 200.619 163.628 202.731 163.628 207.939C163.628 213.123 167.804 215.235 173.18 215.235C178.412 215.235 181.916 213.531 182.852 209.931H178.772C177.74 211.371 176.012 211.899 173.18 211.899ZM173.396 203.739C175.988 203.739 178.004 204.291 178.7 206.283H167.972C168.62 204.291 170.588 203.739 173.396 203.739ZM194.506 215.235C189.058 215.235 184.018 214.539 184.018 210.027H188.122C188.122 211.539 189.682 212.115 194.266 212.115C198.706 212.115 199.426 211.827 199.426 210.723C199.426 209.643 198.754 209.571 193.786 209.259C187.57 208.899 184.522 208.419 184.522 205.011C184.522 201.315 188.842 200.619 193.882 200.619C199.21 200.619 203.074 201.315 203.074 205.203H198.946C198.946 204.027 197.458 203.739 193.642 203.739C189.754 203.739 188.65 204.027 188.65 204.843C188.65 205.731 189.394 205.875 194.266 206.235L194.798 206.274L194.818 206.275C200.036 206.656 203.554 206.914 203.554 210.555C203.554 214.539 199.954 215.235 194.506 215.235Z" fill="white"/>
</g>
<defs>
<filter id="filter0_d" x="66.7919" y="118.995" width="157.677" height="118.24" filterUnits="userSpaceOnUse" color-interpolation-filters="sRGB">
<feFlood flood-opacity="0" result="BackgroundImageFix"/>
<feColorMatrix in="SourceAlpha" type="matrix" values="0 0 0 0 0 0 0 0 0 0 0 0 0 0 0 0 0 0 127 0" result="hardAlpha"/>
<feOffset dx="3" dy="6"/>
<feGaussianBlur stdDeviation="8"/>
<feComposite in2="hardAlpha" operator="out"/>
<feColorMatrix type="matrix" values="0 0 0 0 0 0 0 0 0 0 0 0 0 0 0 0 0 0 1 0"/>
<feBlend mode="normal" in2="BackgroundImageFix" result="effect1_dropShadow"/>
<feBlend mode="normal" in="SourceGraphic" in2="effect1_dropShadow" result="shape"/>
</filter>
<linearGradient id="paint0_linear" x1="383.318" y1="107.462" x2="108.07" y2="317.194" gradientUnits="userSpaceOnUse">
<stop stop-color="#540B8D"/>
<stop offset="1" stop-color="#080E1E" stop-opacity="0"/>
</linearGradient>
<radialGradient id="paint1_radial" cx="0" cy="0" r="1" gradientUnits="userSpaceOnUse" gradientTransform="translate(142.442 170.437) rotate(90) scale(42.295 109.188)">
<stop stop-color="#2761E4"/>
<stop offset="1" stop-color="#001441"/>
</radialGradient>
<radialGradient id="paint2_radial" cx="0" cy="0" r="1" gradientUnits="userSpaceOnUse" gradientTransform="translate(142.442 170.437) rotate(90) scale(95.7606 78.6447)">
<stop stop-color="#2761E4"/>
<stop offset="1" stop-color="#001441"/>
</radialGradient>
<radialGradient id="paint3_radial" cx="0" cy="0" r="1" gradientUnits="userSpaceOnUse" gradientTransform="translate(89.0698 101.367) rotate(90) scale(56.5373 67.1509)">
<stop stop-color="#2761E4"/>
<stop offset="1" stop-color="#001441"/>
</radialGradient>
<radialGradient id="paint4_radial" cx="0" cy="0" r="1" gradientUnits="userSpaceOnUse" gradientTransform="translate(81.0358 200.978) rotate(90) scale(86.1348 52.6653)">
<stop stop-color="#2761E4"/>
<stop offset="1" stop-color="#001441"/>
</radialGradient>
<radialGradient id="paint5_radial" cx="0" cy="0" r="1" gradientUnits="userSpaceOnUse" gradientTransform="translate(142.442 170.437) rotate(90) scale(102.481 67.2048)">
<stop stop-color="#2761E4"/>
<stop offset="1" stop-color="#001441"/>
</radialGradient>
<radialGradient id="paint6_radial" cx="0" cy="0" r="1" gradientUnits="userSpaceOnUse" gradientTransform="translate(166.468 168.78) rotate(90) scale(108.13 21.9311)">
<stop stop-color="#2761E4"/>
<stop offset="1" stop-color="#001441"/>
</radialGradient>
<radialGradient id="paint7_radial" cx="0" cy="0" r="1" gradientUnits="userSpaceOnUse" gradientTransform="translate(134.778 193.267) rotate(90) scale(47.9932 106.439)">
<stop stop-color="#2761E4"/>
<stop offset="1" stop-color="#001441"/>
</radialGradient>
<radialGradient id="paint8_radial" cx="0" cy="0" r="1" gradientUnits="userSpaceOnUse" gradientTransform="translate(154.823 216.025) rotate(90) scale(40.3724 100.67)">
<stop stop-color="#2761E4"/>
<stop offset="1" stop-color="#001441"/>
</radialGradient>
<radialGradient id="paint9_radial" cx="0" cy="0" r="1" gradientUnits="userSpaceOnUse" gradientTransform="translate(164.267 105.42) rotate(90) scale(42.1275 88.9646)">
<stop stop-color="#2761E4"/>
<stop offset="1" stop-color="#001441"/>
</radialGradient>
<radialGradient id="paint10_radial" cx="0" cy="0" r="1" gradientUnits="userSpaceOnUse" gradientTransform="translate(111.901 109.03) rotate(90) scale(52.6653 86.1348)">
<stop stop-color="#2761E4"/>
<stop offset="1" stop-color="#001441"/>
</radialGradient>
<radialGradient id="paint11_radial" cx="0" cy="0" r="1" gradientUnits="userSpaceOnUse" gradientTransform="translate(142.442 170.436) rotate(90) scale(78.0229 95.1362)">
<stop stop-color="#2761E4"/>
<stop offset="1" stop-color="#001441"/>
</radialGradient>
<linearGradient id="paint12_linear" x1="66.9623" y1="52.757" x2="66.9623" y2="92.757" gradientUnits="userSpaceOnUse">
<stop stop-color="#1058FB"/>
<stop offset="1" stop-color="#001441"/>
</linearGradient>
<linearGradient id="paint13_linear" x1="35.3275" y1="89.0773" x2="35.3275" y2="129.077" gradientUnits="userSpaceOnUse">
<stop stop-color="#1058FB"/>
<stop offset="1" stop-color="#001441"/>
</linearGradient>
<linearGradient id="paint14_linear" x1="19.9999" y1="134.739" x2="19.9999" y2="174.739" gradientUnits="userSpaceOnUse">
<stop stop-color="#1058FB"/>
<stop offset="1" stop-color="#001441"/>
</linearGradient>
<linearGradient id="paint15_linear" x1="23.313" y1="182.79" x2="23.313" y2="222.79" gradientUnits="userSpaceOnUse">
<stop stop-color="#1058FB"/>
<stop offset="1" stop-color="#001441"/>
</linearGradient>
<linearGradient id="paint16_linear" x1="44.7624" y1="225.916" x2="44.7624" y2="265.916" gradientUnits="userSpaceOnUse">
<stop stop-color="#1058FB"/>
<stop offset="1" stop-color="#001441"/>
</linearGradient>
<linearGradient id="paint17_linear" x1="81.0826" y1="257.551" x2="81.0826" y2="297.551" gradientUnits="userSpaceOnUse">
<stop stop-color="#1058FB"/>
<stop offset="1" stop-color="#001441"/>
</linearGradient>
<linearGradient id="paint18_linear" x1="126.744" y1="272.879" x2="126.744" y2="312.879" gradientUnits="userSpaceOnUse">
<stop stop-color="#1058FB"/>
<stop offset="1" stop-color="#001441"/>
</linearGradient>
<linearGradient id="paint19_linear" x1="217.921" y1="248.116" x2="217.921" y2="288.116" gradientUnits="userSpaceOnUse">
<stop stop-color="#1058FB"/>
<stop offset="1" stop-color="#001441"/>
</linearGradient>
<linearGradient id="paint20_linear" x1="249.556" y1="211.796" x2="249.556" y2="251.796" gradientUnits="userSpaceOnUse">
<stop stop-color="#1058FB"/>
<stop offset="1" stop-color="#001441"/>
</linearGradient>
<linearGradient id="paint21_linear" x1="264.884" y1="166.134" x2="264.884" y2="206.134" gradientUnits="userSpaceOnUse">
<stop stop-color="#1058FB"/>
<stop offset="1" stop-color="#001441"/>
</linearGradient>
<linearGradient id="paint22_linear" x1="261.571" y1="118.083" x2="261.571" y2="158.083" gradientUnits="userSpaceOnUse">
<stop stop-color="#1058FB"/>
<stop offset="1" stop-color="#001441"/>
</linearGradient>
<linearGradient id="paint23_linear" x1="240.121" y1="74.9569" x2="240.121" y2="114.957" gradientUnits="userSpaceOnUse">
<stop stop-color="#1058FB"/>
<stop offset="1" stop-color="#001441"/>
</linearGradient>
<linearGradient id="paint24_linear" x1="203.801" y1="43.3221" x2="203.801" y2="83.3221" gradientUnits="userSpaceOnUse">
<stop stop-color="#1058FB"/>
<stop offset="1" stop-color="#001441"/>
</linearGradient>
<linearGradient id="paint25_linear" x1="158.14" y1="27.9945" x2="158.14" y2="67.9945" gradientUnits="userSpaceOnUse">
<stop stop-color="#1058FB"/>
<stop offset="1" stop-color="#001441"/>
</linearGradient>
<linearGradient id="paint26_linear" x1="174.796" y1="269.565" x2="174.796" y2="309.565" gradientUnits="userSpaceOnUse">
<stop stop-color="#1058FB"/>
<stop offset="1" stop-color="#001441"/>
</linearGradient>
<linearGradient id="paint27_linear" x1="110.088" y1="31.3077" x2="110.088" y2="71.3077" gradientUnits="userSpaceOnUse">
<stop stop-color="#1058FB"/>
<stop offset="1" stop-color="#001441"/>
</linearGradient>
</defs>
</svg>
