<svg width="633" height="217" viewBox="0 0 633 217" fill="none" xmlns="http://www.w3.org/2000/svg">
<path fill-rule="evenodd" clip-rule="evenodd" d="M134.118 207.5C111.913 202.511 94.6469 188.372 74.5194 177.74C49.8478 164.709 13.5308 164.135 3.03789 138.263C-7.37508 112.589 11.0451 83.401 27.1029 60.8294C40.2415 42.3612 63.4891 36.641 83.2355 25.5337C100.107 16.0435 114.912 3.01324 134.119 0.633527C155.12 -1.96854 175.421 3.78486 195.058 11.6788C220.767 22.0135 252.457 28.2987 264.754 53.1479C277.276 78.4538 264.506 108.349 256.261 135.356C247.865 162.856 241.688 195.129 216.947 209.743C192.563 224.145 161.743 213.708 134.118 207.5Z" fill="url(#paint0_linear)"/>
<path fill-rule="evenodd" clip-rule="evenodd" d="M352.295 93.483C350.312 69.1712 375.625 65.226 403 49C429.872 33.0724 442.086 16.646 477.953 19.0021C508.733 21.024 537.894 25.0879 562.917 37.1435C593.713 51.9803 628.546 68.3813 632.549 93.4829C636.782 120.024 610.53 143.67 583.012 163.147C554.354 183.431 519.792 204.592 477.953 202.905C437.268 201.265 409.632 176.664 384.939 155.16C364.244 137.14 354.139 116.1 352.295 93.483Z" fill="url(#paint1_linear)"/>
<defs>
<linearGradient id="paint0_linear" x1="107.861" y1="-52.2737" x2="265.871" y2="203.824" gradientUnits="userSpaceOnUse">
<stop stop-color="#540B8D"/>
<stop offset="1" stop-color="#080E1E" stop-opacity="0"/>
</linearGradient>
<linearGradient id="paint1_linear" x1="463.655" y1="-30.2878" x2="587.892" y2="212.463" gradientUnits="userSpaceOnUse">
<stop stop-color="#540B8D"/>
<stop offset="1" stop-color="#080E1E" stop-opacity="0"/>
</linearGradient>
</defs>
</svg>
