<svg width="256" height="191" viewBox="0 0 256 191" fill="none" xmlns="http://www.w3.org/2000/svg">
<path fill-rule="evenodd" clip-rule="evenodd" d="M16.9385 112.293C9.16028 88.8224 17.2617 58.603 36.0643 42.5092C54.6066 26.6381 83.8928 42.4734 107.165 35.0639C130.217 27.725 144.826 -3.09219 168.789 0.252876C192.506 3.56373 205.59 29.781 217.568 50.4757C228.506 69.3717 238.769 91.0794 233.64 112.293C228.824 132.215 207.31 141.861 192.135 155.669C180.515 166.242 170.12 177.723 155.469 183.423C140.096 189.404 123.053 194 107.462 188.61C91.9947 183.263 85.8612 165.579 73.3569 155.037C54.8675 139.449 24.5386 135.225 16.9385 112.293Z" fill="url(#paint0_linear)"/>
<path fill-rule="evenodd" clip-rule="evenodd" d="M28.4445 106.702L24.9336 103.147C23.6 104.391 22.252 105.377 20.8884 106.103C19.526 106.828 17.8962 107.191 16.0002 107.191C14.5185 107.191 13.1483 106.903 11.889 106.325C10.6298 105.747 9.54085 104.955 8.6222 103.947C7.70355 102.939 6.99298 101.762 6.48868 100.414C5.985 99.066 5.73375 97.621 5.73375 96.0812C5.73375 94.5403 5.985 93.103 6.48868 91.7695C6.99298 90.4366 7.70355 89.274 8.6222 88.281C9.54085 87.2887 10.6298 86.5038 11.889 85.9258C13.1483 85.3484 14.5185 85.0594 16.0002 85.0594C17.7775 85.0594 19.3629 85.4149 20.7553 86.1261C22.1483 86.8366 23.4669 87.7702 24.7105 88.9256L28.222 84.8819C27.4815 84.1708 26.6965 83.519 25.8665 82.926C25.0373 82.3336 24.1337 81.8221 23.1556 81.3928C22.1776 80.9629 21.1037 80.6301 19.9332 80.3933C18.7627 80.1558 17.4663 80.0371 16.0445 80.0371C13.6742 80.0371 11.5113 80.4598 9.55583 81.3041C7.59983 82.1483 5.91123 83.3037 4.4889 84.7704C3.06655 86.237 1.96322 87.9476 1.17769 89.9035C0.392163 91.8588 0 93.9479 0 96.17C0 98.4215 0.399958 100.525 1.19988 102.481C1.9998 104.435 3.10373 106.132 4.51108 107.569C5.91843 109.006 7.58483 110.139 9.51088 110.969C11.4369 111.799 13.541 112.213 15.8221 112.213C17.2744 112.213 18.6002 112.087 19.8001 111.835C20.9999 111.583 22.1039 111.213 23.1113 110.725C24.1187 110.235 25.0595 109.657 25.9338 108.991C26.8075 108.324 27.6445 107.561 28.4445 106.702Z" fill="white"/>
<path fill-rule="evenodd" clip-rule="evenodd" d="M98.9672 88.8462C98.9672 87.8113 99.4092 86.9319 100.294 86.208C101.177 85.483 102.415 85.121 104.007 85.121C105.421 85.121 106.821 85.395 108.206 85.9418C109.591 86.4886 110.991 87.2795 112.405 88.3138L115.322 84.1902C113.732 82.919 112.03 81.951 110.217 81.2864C108.404 80.6212 106.364 80.2886 104.095 80.2886C102.563 80.2886 101.148 80.5027 99.859 80.9317C98.5622 81.36 97.458 81.9732 96.5365 82.7712C95.6157 83.5698 94.8935 84.5228 94.3632 85.6313C93.8402 86.7399 93.575 87.974 93.575 89.3338C93.575 90.7821 93.8032 92.009 94.26 93.0141C94.717 94.0191 95.3872 94.8764 96.2567 95.5859C97.1257 96.2954 98.2087 96.8864 99.4902 97.3596C100.78 97.8329 102.246 98.2606 103.903 98.6451C105.348 98.9999 106.518 99.3396 107.425 99.6646C108.324 99.9899 109.031 100.338 109.554 100.707C110.069 101.076 110.424 101.483 110.615 101.926C110.806 102.37 110.902 102.872 110.902 103.433C110.902 104.646 110.409 105.607 109.422 106.316C108.434 107.026 107.101 107.38 105.421 107.38C103.476 107.38 101.737 107.032 100.205 106.338C98.6727 105.643 97.1555 104.646 95.652 103.345L92.3815 107.247C94.238 108.932 96.2567 110.181 98.4372 110.994C100.618 111.807 102.901 112.213 105.288 112.213C106.909 112.213 108.398 112.006 109.753 111.593C111.101 111.178 112.265 110.572 113.223 109.774C114.188 108.976 114.939 108.001 115.484 106.848C116.022 105.695 116.295 104.38 116.295 102.902C116.295 101.601 116.081 100.47 115.654 99.5096C115.226 98.5489 114.593 97.7071 113.768 96.9821C112.943 96.2583 111.897 95.6445 110.644 95.142C109.392 94.6401 107.948 94.1818 106.327 93.7678C104.846 93.4131 103.631 93.0727 102.666 92.7479C101.708 92.423 100.957 92.0683 100.404 91.6836C99.859 91.2995 99.4837 90.8856 99.2767 90.4423C99.071 89.9984 98.9672 89.4666 98.9672 88.8462Z" fill="white"/>
<path fill-rule="evenodd" clip-rule="evenodd" d="M159.476 89.2856V111.459H164.877V80.54H159.077L149.648 95.1604L140.218 80.54H134.419V111.459H139.82V89.3738L149.514 103.862H149.692L159.476 89.2856Z" fill="white"/>
<path fill-rule="evenodd" clip-rule="evenodd" d="M210.254 96.17C210.254 97.681 209.995 99.1105 209.478 100.459C208.961 101.807 208.244 102.977 207.326 103.969C206.41 104.961 205.308 105.747 204.022 106.325C202.735 106.903 201.323 107.191 199.785 107.191C198.247 107.191 196.828 106.895 195.526 106.303C194.225 105.71 193.108 104.91 192.177 103.903C191.246 102.895 190.521 101.717 190.003 100.369C189.486 99.0217 189.227 97.5917 189.227 96.0812C189.227 94.5696 189.486 93.1402 190.003 91.7923C190.521 90.4438 191.238 89.274 192.155 88.281C193.072 87.2887 194.174 86.5038 195.46 85.9258C196.746 85.3484 198.159 85.0593 199.696 85.0593C201.234 85.0593 202.654 85.3556 203.955 85.9486C205.256 86.541 206.373 87.3408 207.304 88.3482C208.236 89.3549 208.961 90.5331 209.478 91.881C209.995 93.2289 210.254 94.659 210.254 96.17ZM215.977 96.0812C215.977 93.8885 215.577 91.8145 214.779 89.8586C213.981 87.9039 212.871 86.1998 211.452 84.7482C210.033 83.2959 208.332 82.1483 206.35 81.3041C204.369 80.4598 202.181 80.0371 199.785 80.0371C197.39 80.0371 195.201 80.467 193.22 81.3262C191.238 82.1855 189.523 83.3481 188.074 84.8147C186.624 86.2814 185.501 87.9926 184.702 89.9479C183.904 91.9032 183.505 93.9772 183.505 96.17C183.505 98.3622 183.904 100.435 184.702 102.391C185.501 104.347 186.61 106.051 188.029 107.502C189.448 108.954 191.149 110.102 193.131 110.946C195.112 111.791 197.3 112.213 199.696 112.213C202.091 112.213 204.28 111.783 206.261 110.924C208.244 110.065 209.958 108.902 211.408 107.435C212.857 105.969 213.981 104.258 214.779 102.303C215.577 100.347 215.977 98.2735 215.977 96.0812Z" fill="white"/>
<path fill-rule="evenodd" clip-rule="evenodd" d="M238.672 88.8462C238.672 87.8113 239.114 86.9319 239.998 86.208C240.883 85.483 242.12 85.121 243.712 85.121C245.126 85.121 246.526 85.395 247.911 85.9418C249.296 86.4886 250.695 87.2795 252.11 88.3138L255.028 84.1902C253.435 82.919 251.735 81.951 249.922 81.2864C248.11 80.6212 246.069 80.2886 243.8 80.2886C242.268 80.2886 240.853 80.5027 239.564 80.9317C238.268 81.36 237.163 81.9732 236.242 82.7712C235.321 83.5698 234.599 84.5228 234.068 85.6313C233.545 86.7399 233.28 87.974 233.28 89.3338C233.28 90.7821 233.508 92.009 233.965 93.0141C234.422 94.0191 235.092 94.8764 235.961 95.5859C236.831 96.2954 237.914 96.8864 239.196 97.3596C240.485 97.8329 241.951 98.2606 243.609 98.6451C245.052 98.9999 246.224 99.3396 247.13 99.6646C248.028 99.9899 248.736 100.338 249.259 100.707C249.775 101.076 250.128 101.483 250.32 101.926C250.513 102.37 250.608 102.872 250.608 103.433C250.608 104.646 250.113 105.607 249.127 106.316C248.139 107.026 246.806 107.38 245.126 107.38C243.181 107.38 241.442 107.032 239.911 106.338C238.378 105.643 236.861 104.646 235.357 103.345L232.087 107.247C233.943 108.932 235.961 110.181 238.142 110.994C240.323 111.807 242.606 112.213 244.993 112.213C246.614 112.213 248.102 112.006 249.458 111.593C250.805 111.178 251.97 110.572 252.928 109.774C253.893 108.976 254.645 108.001 255.19 106.848C255.728 105.695 256 104.38 256 102.902C256 101.601 255.785 100.47 255.36 99.5096C254.933 98.5489 254.298 97.7071 253.473 96.9821C252.648 96.2583 251.603 95.6445 250.35 95.142C249.097 94.6401 247.653 94.1818 246.032 93.7678C244.552 93.4131 243.336 93.0727 242.371 92.7479C241.413 92.423 240.662 92.0683 240.109 91.6836C239.564 91.2995 239.188 90.8856 238.982 90.4423C238.776 89.9984 238.672 89.4666 238.672 88.8462Z" fill="white"/>
<path fill-rule="evenodd" clip-rule="evenodd" d="M65.4932 86.7295L50.6947 101.508C50.504 101.139 50.3317 100.753 50.1775 100.354C49.6607 99.0107 49.4022 97.586 49.4022 96.0814C49.4022 94.5755 49.6607 93.1515 50.1775 91.8086C50.6947 90.4652 51.4115 89.2999 52.3277 88.3106C53.2442 87.3221 54.3455 86.5401 55.6307 85.9643C56.917 85.3891 58.328 85.1012 59.8647 85.1012C61.402 85.1012 62.8207 85.3962 64.1205 85.987C64.604 86.2063 65.0615 86.4535 65.4932 86.7295ZM64.1875 106.286C62.9015 106.862 61.4905 107.15 59.9537 107.15C58.4165 107.15 56.9977 106.854 55.6972 106.264C55.2145 106.045 54.757 105.797 54.3257 105.521L69.1235 90.743C69.3145 91.1122 69.4867 91.4969 69.641 91.8971C70.1577 93.2399 70.4162 94.6645 70.4162 96.1698C70.4162 97.6752 70.1577 99.0992 69.641 100.442C69.1235 101.785 68.407 102.951 67.4905 103.94C66.5742 104.928 65.4735 105.711 64.1875 106.286ZM66.4265 110.868C68.407 110.013 70.1212 108.854 71.5695 107.393C73.0175 105.932 74.1402 104.227 74.9382 102.279C75.7367 100.331 76.1357 98.2652 76.1357 96.0814C76.1357 93.8969 75.7367 91.8307 74.9382 89.8822C74.4652 88.727 73.8825 87.6601 73.191 86.6811L82.816 77.0694L78.9915 73.25L69.3372 82.891C68.4705 82.3008 67.5295 81.7907 66.515 81.3601C64.5345 80.519 62.3475 80.0979 59.9537 80.0979C57.5592 80.0979 55.3725 80.5261 53.392 81.3821C51.4115 82.2381 49.697 83.3963 48.249 84.8574C46.8007 86.3185 45.6775 88.0233 44.8795 89.9713C44.0815 91.9192 43.6825 93.9853 43.6825 96.1698C43.6825 98.3538 44.0815 100.419 44.8795 102.368C45.3532 103.524 45.9357 104.59 46.6272 105.57L37.003 115.181L40.8275 119L50.4812 109.36C51.348 109.95 52.289 110.46 53.3035 110.89C55.284 111.731 57.4707 112.152 59.8647 112.152C62.259 112.152 64.446 111.724 66.4265 110.868Z" fill="white"/>
<defs>
<linearGradient id="paint0_linear" x1="102.286" y1="-46.0105" x2="245.661" y2="170.087" gradientUnits="userSpaceOnUse">
<stop stop-color="#540B8D"/>
<stop offset="1" stop-color="#080E1E" stop-opacity="0"/>
</linearGradient>
</defs>
</svg>
