<svg width="79" height="79" viewBox="0 0 79 79" fill="none" xmlns="http://www.w3.org/2000/svg">
<path fill-rule="evenodd" clip-rule="evenodd" d="M77.0612 33.2287C77.7097 40.3423 80.0097 47.1092 78.4905 54.084C76.7624 62.0176 74.4977 70.6432 67.8907 75.3298C61.2022 80.0742 52.3047 78.3425 44.107 78.4735C35.1875 78.6159 25.8868 80.5059 18.1003 76.125C9.60195 71.3436 2.03059 63.4116 0.261677 53.8048C-1.46823 44.4098 5.82251 36.2737 9.11338 27.3175C12.463 18.2013 10.9184 5.06144 19.6874 0.937251C28.6982 -3.30068 37.7573 8.14731 47.6643 9.18632C56.715 10.1355 67.1087 0.87862 74.1664 6.6508C81.2301 12.4278 76.2319 24.1313 77.0612 33.2287Z" fill="url(#paint0_linear)"/>
<path d="M59.6681 43.9322L65.92 34.808L55.0301 32.8727L52.9999 22L43.9316 28.3309L34.8076 22.0788L32.8725 32.969L22 34.9993L28.3319 44.0678L22.08 53.192L32.9699 55.1273L35.0001 66L44.0684 59.6691L53.1924 65.9212L55.1275 55.031L66 53.0007L59.6681 43.9322Z" fill="#FF9900"/>
<path d="M58.6166 50.0539L68 44L58.6166 37.9461L60.9709 27.0302L50.055 29.3846L44 20L37.9461 29.3834L27.0291 27.0291L29.3834 37.945L20 44L29.3834 50.0539L27.0291 60.9698L37.945 58.6154L44 68L50.0539 58.6154L60.9698 60.9698L58.6166 50.0539Z" fill="#FF9900"/>
<path d="M59.0987 50.2535L63 47.7369L60.3419 43.9286L62.8984 40.1978L59.0987 37.7465L60.077 33.2066L55.5045 32.3939L54.6749 27.9484L50.2535 28.9013L47.7369 25L43.9286 27.6581L40.1978 25.1016L37.7465 28.9013L33.2066 27.923L32.3939 32.4943L27.9484 33.3251L28.9013 37.7465L25 40.2631L27.6581 44.0714L25.1016 47.8022L28.9013 50.2535L27.923 54.7934L32.4955 55.6061L33.3251 60.0516L37.7465 59.0975L40.2631 63L44.0714 60.3419L47.8022 62.8984L50.2535 59.0975L54.7934 60.077L55.6061 55.5045L60.0516 54.6749L59.0987 50.2535Z" fill="url(#paint1_linear)"/>
<path fill-rule="evenodd" clip-rule="evenodd" d="M49.849 35L35 49.8495L37.8285 52.6779L52.6775 37.8284L49.849 35ZM37.5 40.8495C38.8807 40.8495 40 39.7302 40 38.3495C40 36.9688 38.8807 35.8495 37.5 35.8495C36.1193 35.8495 35 36.9688 35 38.3495C35 39.7302 36.1193 40.8495 37.5 40.8495ZM52 50.3495C52 51.7302 50.8807 52.8495 49.5 52.8495C48.1193 52.8495 47 51.7302 47 50.3495C47 48.9688 48.1193 47.8495 49.5 47.8495C50.8807 47.8495 52 48.9688 52 50.3495Z" fill="white"/>
<defs>
<linearGradient id="paint0_linear" x1="31.5594" y1="-19.0305" x2="93.7365" y2="61.9627" gradientUnits="userSpaceOnUse">
<stop stop-color="#540B8D"/>
<stop offset="1" stop-color="#080E1E" stop-opacity="0"/>
</linearGradient>
<linearGradient id="paint1_linear" x1="44" y1="25" x2="55" y2="69" gradientUnits="userSpaceOnUse">
<stop stop-color="#F3BA2F"/>
<stop offset="1" stop-color="#FF5C00"/>
</linearGradient>
</defs>
</svg>
