<svg width="81" height="84" viewBox="0 0 81 84" fill="none" xmlns="http://www.w3.org/2000/svg">
<path fill-rule="evenodd" clip-rule="evenodd" d="M39.5902 0.266309C47.9689 -1.52333 55.7392 6.06348 61.5765 12.3552C66.7083 17.8863 66.821 25.9353 69.8323 32.8623C73.3198 40.8846 83.1127 47.7131 80.5896 56.0913C78.0762 64.4371 66.0451 64.4381 58.8511 69.3265C52.0174 73.97 47.8142 83.2578 39.5902 83.9509C31.2671 84.6524 24.6024 77.684 17.8261 72.7839C11.0199 67.8623 2.03481 63.7712 0.294599 55.5358C-1.43089 47.37 4.7909 39.8302 9.39345 32.8771C12.9365 27.5246 19.1343 25.1968 23.4931 20.4895C29.4922 14.0108 30.9702 2.10748 39.5902 0.266309Z" fill="url(#paint0_linear)"/>
<path fill-rule="evenodd" clip-rule="evenodd" d="M43.8182 27.3635H48.1818V41.7325L58.342 31.572L61.4276 34.6575L51.2673 44.8181H65.6364V49.1818H51.2675L61.428 59.3419L58.3425 62.4275L48.1818 52.2672V66.6363H43.8182V52.2675L33.658 62.428L30.5724 59.3425L40.7329 49.1818H26.3636V44.8181H40.7325L30.572 34.658L33.6575 31.5723L43.8182 41.7327V27.3635Z" fill="#1058FB"/>
<path d="M46 58C52.0748 58 57 53.0748 57 47C57 40.9253 52.0748 36 46 36C39.9253 36 35 40.9253 35 47C35 53.0757 39.9243 58 46 58Z" fill="#FFA724"/>
<path d="M53.305 47.2168C52.6488 44.7676 50.3508 44.9646 46.6943 45.7189L46.1025 43.5102C47.961 43.1249 48.8442 43.2748 49.0978 44.2214L51.8205 43.4918C51.1884 41.1328 48.914 40.6311 45.5268 41.3615L45.1564 39.9792L43.3412 40.4655L43.7076 41.8329C40.2224 42.8633 38.3443 44.204 38.9241 46.3677C39.5159 48.5764 41.3246 48.9131 45.3905 48.1135L46.0185 50.4575C43.4945 51.0211 42.6618 50.6967 42.4001 49.72L39.6774 50.4496C40.4262 53.2443 42.845 53.498 46.5983 52.6212L46.9647 53.9885L48.7798 53.5021L48.4134 52.1348C51.8724 51.1275 54.0055 49.8312 53.305 47.2168ZM41.6831 45.7733C41.4858 45.0371 41.973 44.6167 44.2793 43.9665L44.8469 46.0851C42.447 46.5671 41.8803 46.5096 41.6831 45.7733ZM47.8417 50.0012L47.2298 47.7173C49.8607 47.1895 50.3971 47.2551 50.6064 48.0365C50.8117 48.8028 50.1702 49.3128 47.8417 50.0012Z" fill="white"/>
<path d="M46 71C48.41 71 50.3636 69.0463 50.3636 66.6363C50.3636 64.2264 48.41 62.2727 46 62.2727C43.59 62.2727 41.6364 64.2264 41.6364 66.6363C41.6364 69.0463 43.59 71 46 71Z" fill="white"/>
<path d="M46 31.7273C48.41 31.7273 50.3636 29.7736 50.3636 27.3636C50.3636 24.9537 48.41 23 46 23C43.59 23 41.6364 24.9537 41.6364 27.3636C41.6364 29.7736 43.59 31.7273 46 31.7273Z" fill="white"/>
<path d="M31.5149 36.0298C33.4561 36.0298 35.0298 34.4561 35.0298 32.5149C35.0298 30.5737 33.4561 29 31.5149 29C29.5737 29 28 30.5737 28 32.5149C28 34.4561 29.5737 36.0298 31.5149 36.0298Z" fill="white"/>
<path d="M60.4851 65.0003C62.4263 65.0003 64 63.4266 64 61.4854C64 59.5441 62.4263 57.9705 60.4851 57.9705C58.5439 57.9705 56.9702 59.5441 56.9702 61.4854C56.9702 63.4266 58.5439 65.0003 60.4851 65.0003Z" fill="white"/>
<path d="M26.3636 51.3637C28.7736 51.3637 30.7273 49.4101 30.7273 47.0001C30.7273 44.5901 28.7736 42.6365 26.3636 42.6365C23.9537 42.6365 22 44.5901 22 47.0001C22 49.4101 23.9537 51.3637 26.3636 51.3637Z" fill="white"/>
<path d="M65.6364 51.3637C68.0463 51.3637 70 49.4101 70 47.0001C70 44.5901 68.0463 42.6365 65.6364 42.6365C63.2264 42.6365 61.2727 44.5901 61.2727 47.0001C61.2727 49.4101 63.2264 51.3637 65.6364 51.3637Z" fill="white"/>
<path d="M31.5149 65.0003C33.4561 65.0003 35.0298 63.4266 35.0298 61.4854C35.0298 59.5441 33.4561 57.9705 31.5149 57.9705C29.5737 57.9705 28 59.5441 28 61.4854C28 63.4266 29.5737 65.0003 31.5149 65.0003Z" fill="white"/>
<path d="M60.4851 36.0298C62.4263 36.0298 64 34.4561 64 32.5149C64 30.5737 62.4263 29 60.4851 29C58.5439 29 56.9702 30.5737 56.9702 32.5149C56.9702 34.4561 58.5439 36.0298 60.4851 36.0298Z" fill="white"/>
<defs>
<linearGradient id="paint0_linear" x1="32.3583" y1="-20.235" x2="99.0535" y2="63.5407" gradientUnits="userSpaceOnUse">
<stop stop-color="#540B8D"/>
<stop offset="1" stop-color="#080E1E" stop-opacity="0"/>
</linearGradient>
</defs>
</svg>
