<svg width="75" height="67" viewBox="0 0 75 67" fill="none" xmlns="http://www.w3.org/2000/svg">
<path fill-rule="evenodd" clip-rule="evenodd" d="M32.7228 5.5932C38.9758 6.57245 45.1773 5.66915 51.0999 7.9094C58.9072 10.8626 68.0442 13.1339 72.0664 20.4752C76.2776 28.1614 75.6707 38.166 72.0518 46.1507C68.6031 53.7598 61.0555 58.689 53.3329 61.8084C46.7987 64.4478 39.7372 61.4022 32.7228 62.037C24.6251 62.7699 16.3456 69.7424 9.22519 65.8002C2.16879 61.8935 0.919533 52.0166 0.0845843 43.9671C-0.631566 37.0629 3.39198 31.0108 4.91424 24.2398C6.66108 16.4698 3.05456 5.84098 9.65036 1.41827C16.3128 -3.04914 24.8078 4.35368 32.7228 5.5932Z" fill="url(#paint0_linear)"/>
<path d="M36.5668 13.6124C36.9354 13.2288 37.4397 13.0086 37.9688 13.0002C38.236 12.996 38.5014 13.046 38.7492 13.1473C38.997 13.2486 39.2221 13.3991 39.4113 13.5899C39.6005 13.7808 39.7499 14.008 39.8506 14.2582C39.9513 14.5084 40.0013 14.7765 39.9976 15.0465V17.0652C40.0014 17.3327 39.9525 17.5983 39.8538 17.8465C39.755 18.0948 39.6085 18.3207 39.4226 18.5112C39.2368 18.7017 39.0153 18.853 38.7711 18.9562C38.5268 19.0595 38.2647 19.1127 38 19.1127C37.7353 19.1127 37.4732 19.0595 37.2289 18.9562C36.9847 18.853 36.7632 18.7017 36.5774 18.5112C36.3915 18.3207 36.245 18.0948 36.1462 17.8465C36.0475 17.5983 35.9986 17.3327 36.0024 17.0652V15.0465C35.9951 14.5118 36.1981 13.996 36.5668 13.6124Z" fill="white"/>
<path d="M21.3238 19.8547C21.6537 19.6299 22.0425 19.5098 22.4403 19.5097C22.7083 19.5097 22.9734 19.5642 23.2201 19.6698C23.4667 19.7755 23.6899 19.9302 23.8761 20.1248L25.2885 21.5521C25.4802 21.7381 25.6333 21.9609 25.7387 22.2074C25.8442 22.454 25.8999 22.7193 25.9026 22.9878C25.9053 23.2564 25.8549 23.5228 25.7545 23.7715C25.654 24.0201 25.5055 24.246 25.3175 24.4359C25.1296 24.6258 24.9061 24.776 24.66 24.8775C24.4139 24.979 24.1503 25.0299 23.8846 25.0271C23.6188 25.0244 23.3562 24.9681 23.1123 24.8616C22.8683 24.755 22.6478 24.6003 22.4638 24.4066L21.0514 22.9793C20.7655 22.6997 20.5687 22.3402 20.4863 21.9468C20.4038 21.5535 20.4395 21.1442 20.5887 20.7715C20.7379 20.3988 20.9939 20.0795 21.3238 19.8547Z" fill="white"/>
<path d="M52.1239 20.1248C52.4857 19.7485 52.9783 19.5293 53.4972 19.5137C53.8996 19.5017 54.2962 19.6128 54.635 19.8325C54.9738 20.0522 55.2391 20.3702 55.396 20.7448C55.5529 21.1195 55.5941 21.5333 55.5143 21.932C55.4345 22.3307 55.2373 22.6958 54.9486 22.9793L53.5363 24.4066C53.3522 24.6003 53.1317 24.755 52.8877 24.8616C52.6438 24.9681 52.3812 25.0244 52.1155 25.0271C51.8497 25.0299 51.5861 24.979 51.34 24.8775C51.0939 24.7759 50.8704 24.6258 50.6825 24.4359C50.4945 24.246 50.346 24.0201 50.2455 23.7715C50.1451 23.5228 50.0947 23.2564 50.0974 22.9878C50.1001 22.7193 50.1558 22.454 50.2613 22.2074C50.3667 21.9609 50.5198 21.7381 50.7115 21.5521L52.1239 20.1248Z" fill="white"/>
<path d="M15.2529 35.3788C15.4986 35.279 15.7614 35.2296 16.0261 35.2334H18.0237C18.2884 35.2296 18.5512 35.279 18.7969 35.3788C19.0425 35.4785 19.2661 35.6266 19.4546 35.8145C19.6431 36.0023 19.7928 36.2261 19.895 36.4729C19.9972 36.7197 20.0498 36.9846 20.0498 37.2521C20.0498 37.5196 19.9972 37.7845 19.895 38.0313C19.7928 38.2781 19.6431 38.5019 19.4546 38.6897C19.2661 38.8775 19.0425 39.0256 18.7969 39.1254C18.5512 39.2251 18.2884 39.2745 18.0237 39.2708H16.0261C15.7614 39.2745 15.4986 39.2251 15.2529 39.1254C15.0073 39.0256 14.7837 38.8775 14.5952 38.6897C14.4067 38.5019 14.257 38.2781 14.1548 38.0313C14.0526 37.7845 14 37.5196 14 37.2521C14 36.9846 14.0526 36.7197 14.1548 36.4729C14.257 36.2261 14.4067 36.0023 14.5952 35.8145C14.7837 35.6266 15.0073 35.4785 15.2529 35.3788Z" fill="white"/>
<path d="M57.2031 35.3788C57.4488 35.279 57.7116 35.2296 57.9763 35.2334H59.9739C60.2386 35.2296 60.5014 35.279 60.7471 35.3788C60.9927 35.4785 61.2163 35.6266 61.4048 35.8145C61.5933 36.0023 61.743 36.2261 61.8452 36.4729C61.9474 36.7197 62 36.9846 62 37.2521C62 37.5196 61.9474 37.7845 61.8452 38.0313C61.743 38.2781 61.5933 38.5019 61.4048 38.6897C61.2163 38.8775 60.9927 39.0256 60.7471 39.1254C60.5014 39.2251 60.2386 39.2745 59.9739 39.2708H57.9763C57.7116 39.2745 57.4488 39.2251 57.2031 39.1254C56.9575 39.0256 56.7339 38.8775 56.5454 38.6897C56.3569 38.5019 56.2072 38.2781 56.105 38.0313C56.0028 37.7845 55.9502 37.5196 55.9502 37.2521C55.9502 36.9846 56.0028 36.7197 56.105 36.4729C56.2072 36.2261 56.3569 36.0023 56.5454 35.8145C56.7339 35.6266 56.9575 35.4785 57.2031 35.3788Z" fill="white"/>
<path d="M22.4638 50.0975C22.8256 49.7212 23.3181 49.502 23.8371 49.4864C24.2395 49.4744 24.6361 49.5856 24.9749 49.8053C25.3137 50.0249 25.579 50.3429 25.7359 50.7176C25.8928 51.0922 25.934 51.506 25.8542 51.9048C25.7744 52.3035 25.5772 52.6685 25.2885 52.9521L23.8761 54.3794C23.6921 54.5731 23.4716 54.7278 23.2276 54.8343C22.9837 54.9409 22.7211 54.9972 22.4553 54.9999C22.1896 55.0026 21.9259 54.9517 21.6799 54.8502C21.4338 54.7487 21.2103 54.5986 21.0224 54.4087C20.8344 54.2188 20.6859 53.9929 20.5854 53.7442C20.485 53.4956 20.4346 53.2292 20.4373 52.9606C20.44 52.692 20.4957 52.4267 20.6012 52.1802C20.7066 51.9336 20.8597 51.7108 21.0514 51.5248L22.4638 50.0975Z" fill="white"/>
<path d="M50.989 49.8307C51.3186 49.6064 51.707 49.4865 52.1044 49.4864C52.3713 49.4864 52.6356 49.5405 52.8815 49.6455C53.1275 49.7505 53.3501 49.9042 53.5363 50.0975L54.9486 51.5248C55.1403 51.7108 55.2934 51.9336 55.3988 52.1802C55.5043 52.4267 55.56 52.692 55.5627 52.9606C55.5654 53.2291 55.515 53.4956 55.4146 53.7442C55.3141 53.9929 55.1656 54.2188 54.9776 54.4087C54.7897 54.5986 54.5662 54.7487 54.3201 54.8502C54.074 54.9517 53.8104 55.0026 53.5447 54.9999C53.2789 54.9972 53.0163 54.9409 52.7724 54.8343C52.5284 54.7278 52.3079 54.5731 52.1239 54.3794L50.7115 52.9521C50.4267 52.672 50.231 52.3125 50.1495 51.9194C50.068 51.5264 50.1044 51.1177 50.2539 50.7456C50.4034 50.3735 50.6594 50.055 50.989 49.8307Z" fill="white"/>
<path d="M44.2593 49.2734C48.2773 46.8917 51 42.2883 51 37C51 29.268 45.1797 24 38 24C30.8203 24 25 29.268 25 37C25 42.2883 27.7227 46.8917 31.7407 49.2734L32 52H44L44.2593 49.2734Z" fill="url(#paint1_radial)"/>
<path d="M44 56.3077L38 58L32 56.3077V52H44V56.3077Z" fill="#1058FB"/>
<defs>
<linearGradient id="paint0_linear" x1="29.9614" y1="-16.1398" x2="80.8824" y2="58.111" gradientUnits="userSpaceOnUse">
<stop stop-color="#540B8D"/>
<stop offset="1" stop-color="#080E1E" stop-opacity="0"/>
</linearGradient>
<radialGradient id="paint1_radial" cx="0" cy="0" r="1" gradientUnits="userSpaceOnUse" gradientTransform="translate(38.6842 16.913) rotate(79.389) scale(29.7257 27.4072)">
<stop stop-color="white"/>
<stop offset="1" stop-color="#FF9900"/>
</radialGradient>
</defs>
</svg>
