<svg width="104" height="106" viewBox="0 0 104 106" fill="none" xmlns="http://www.w3.org/2000/svg">
<path fill-rule="evenodd" clip-rule="evenodd" d="M103.329 87.2603C99.6321 98.6649 84.9571 102.763 73.2125 105.426C62.8874 107.768 53.0184 102.265 42.4822 101.059C30.2799 99.6634 15.1094 106.743 6.68769 97.8159C-1.70146 88.9234 6.7314 74.3473 5.82872 62.2068C4.97126 50.6744 -3.37891 39.0746 1.54324 28.6258C6.52471 18.051 19.6724 14.8594 30.3827 10.0832C41.1401 5.2861 52.4148 -2.73269 63.6515 0.929332C74.7932 4.56038 79.6022 17.3808 84.8329 27.8285C88.8594 35.8711 87.3459 45.0107 90.0158 53.5894C93.6903 65.3966 107.132 75.5274 103.329 87.2603Z" fill="url(#paint0_linear)"/>
<defs>
<linearGradient id="paint0_linear" x1="-4.05328" y1="21.7652" x2="56.5468" y2="140.548" gradientUnits="userSpaceOnUse">
<stop stop-color="#540B8D"/>
<stop offset="1" stop-color="#080E1E" stop-opacity="0"/>
</linearGradient>
</defs>
</svg>
