<svg width="80" height="80" viewBox="0 0 80 80" fill="none" xmlns="http://www.w3.org/2000/svg">
<path d="M35.389 10.2275C18.5378 12.0884 4.99302 25.844 3.20951 42.8804C2.35342 51.0717 4.16348 58.7852 7.85991 65.2632C8.46548 66.3227 9.56047 67 10.7716 67H68.2272C69.3819 67 70.4786 66.4099 71.0609 65.4023C74.1982 59.9588 76 53.6351 76 46.8822C76 25.1449 57.3868 7.79827 35.389 10.2275Z" fill="url(#paint0_radial_87_440)"/>
<path d="M36.8964 15.1956C22.2096 16.7858 10.2379 28.543 8.29287 43.2793C7.20952 51.4904 9.19454 59.1731 13.2079 65.4131C13.8362 66.3894 14.8912 67 16.0463 67H24.273C25.5363 67 26.6897 66.2821 27.2547 65.1448L27.9113 63.8213C28.4763 62.6856 29.6314 61.9677 30.893 61.9677H50.1065C51.3698 61.9677 52.5232 62.6856 53.0882 63.8229L53.7449 65.1464C54.3099 66.2821 55.4649 67 56.7266 67H64.9516C66.1033 67 67.16 66.3928 67.7866 65.4198C71.0717 60.3154 73 54.2447 73 47.7094C73 28.4491 56.4599 13.077 36.8964 15.1956Z" fill="url(#paint1_linear_87_440)"/>
<path d="M38.363 44.3028L59.103 34.0634C59.4158 33.9098 59.7892 34.0448 59.9383 34.3671C60.0742 34.6591 59.9776 35.0017 59.727 35.1789L40.7509 48.5676C39.6585 49.3389 38.1681 49.0503 37.4196 47.9246C36.6711 46.7989 36.9512 45.2631 38.0436 44.4918C38.1435 44.4209 38.2582 44.3551 38.363 44.3028Z" fill="#CF2E2E"/>
<path d="M40.5 50C42.433 50 44 48.433 44 46.5C44 44.567 42.433 43 40.5 43C38.567 43 37 44.567 37 46.5C37 48.433 38.567 50 40.5 50Z" fill="#ED5555"/>
<path d="M39.5 25C40.3284 25 41 24.3284 41 23.5C41 22.6716 40.3284 22 39.5 22C38.6716 22 38 22.6716 38 23.5C38 24.3284 38.6716 25 39.5 25Z" fill="#666666"/>
<path d="M63.5 48C64.3284 48 65 47.3284 65 46.5C65 45.6716 64.3284 45 63.5 45C62.6716 45 62 45.6716 62 46.5C62 47.3284 62.6716 48 63.5 48Z" fill="#666666"/>
<path d="M16.5 48C17.3284 48 18 47.3284 18 46.5C18 45.6716 17.3284 45 16.5 45C15.6716 45 15 45.6716 15 46.5C15 47.3284 15.6716 48 16.5 48Z" fill="#666666"/>
<path d="M28.5 28C29.3284 28 30 27.3284 30 26.5C30 25.6716 29.3284 25 28.5 25C27.6716 25 27 25.6716 27 26.5C27 27.3284 27.6716 28 28.5 28Z" fill="#666666"/>
<path d="M19.5 60C20.3284 60 21 59.3284 21 58.5C21 57.6716 20.3284 57 19.5 57C18.6716 57 18 57.6716 18 58.5C18 59.3284 18.6716 60 19.5 60Z" fill="#666666"/>
<path d="M19.5 36C20.3284 36 21 35.3284 21 34.5C21 33.6716 20.3284 33 19.5 33C18.6716 33 18 33.6716 18 34.5C18 35.3284 18.6716 36 19.5 36Z" fill="#666666"/>
<path d="M60.5 60C61.3284 60 62 59.3284 62 58.5C62 57.6716 61.3284 57 60.5 57C59.6716 57 59 57.6716 59 58.5C59 59.3284 59.6716 60 60.5 60Z" fill="#666666"/>
<path d="M51.5 28C52.3284 28 53 27.3284 53 26.5C53 25.6716 52.3284 25 51.5 25C50.6716 25 50 25.6716 50 26.5C50 27.3284 50.6716 28 51.5 28Z" fill="#666666"/>
<defs>
<radialGradient id="paint0_radial_87_440" cx="0" cy="0" r="1" gradientUnits="userSpaceOnUse" gradientTransform="translate(56.7298 64.6026) scale(57.9102 58.5177)">
<stop stop-color="#9E6FD9"/>
<stop offset="0.173" stop-color="#AA73C7"/>
<stop offset="0.522" stop-color="#CA7F97"/>
<stop offset="1" stop-color="#FC914D"/>
</radialGradient>
<linearGradient id="paint1_linear_87_440" x1="32.443" y1="16.0041" x2="48.1264" y2="76.8887" gradientUnits="userSpaceOnUse">
<stop stop-color="#4B4B4B"/>
<stop offset="0.531" stop-color="#393939"/>
<stop offset="1" stop-color="#252525"/>
</linearGradient>
</defs>
</svg>
