<svg width="80" height="80" viewBox="0 0 80 80" fill="none" xmlns="http://www.w3.org/2000/svg">
<path d="M66.9919 43.85H58.9449V10.35C58.9449 8.49912 57.4442 7 55.5913 7H25.4087C23.5558 7 22.0551 8.49912 22.0551 10.35V43.85H14.0081C12.2223 43.85 11.3285 46.0057 12.5912 47.267L38.5415 73.1893C39.0814 73.7303 39.7907 74 40.5 74C40.8538 74 41.2093 73.933 41.543 73.7973C41.8767 73.6617 42.1885 73.459 42.4585 73.1893L68.4088 47.267C69.6715 46.0057 68.7777 43.85 66.9919 43.85Z" fill="url(#paint0_linear_87_457)"/>
<path opacity="0.05" d="M37.5452 27.2942C37.5452 26.3473 38.3712 25.8681 40 25.8681C42.2425 25.8681 44.0969 26.5737 45.0026 26.9938C45.5649 27.2548 47.547 27.6191 47.547 25.4119V23.1768C47.547 21.5407 46.5485 20.9795 46.1205 20.8137C45.0772 20.4133 43.7735 20.159 42.1563 20.0457V18.6C42.1563 17.7171 41.4314 17 40.5391 17H39.4609C38.5686 17 37.8437 17.7171 37.8437 18.6V20.1705C34.3754 20.7973 31 23.0291 31 27.6634C31 36.9368 42.4548 36.1376 42.4548 38.2332C42.4548 38.6123 42.4548 39.6199 40 39.6199C37.1504 39.6199 34.6474 38.4663 33.9491 38.1118C33.3985 37.8328 31.3749 37.6293 31.3749 39.679V42.2209C31.3749 43.1333 31.9272 43.9555 32.7814 44.3149C34.2278 44.9221 36.0922 45.4078 37.8437 45.6408V47.4C37.8437 48.2829 38.5686 49 39.4609 49H40.5391C41.4314 49 42.1563 48.2829 42.1563 47.4V45.631C47.1854 44.8039 49 41.087 49 38.0051C49 28.9499 37.5452 30.3875 37.5452 27.2942Z" fill="black"/>
<path opacity="0.07" d="M36.4923 27.7775C36.4923 26.1167 38.2586 25.8141 39.5 25.8141C41.6412 25.8141 43.5542 26.4357 44.7556 26.9932C45.2739 27.2332 46.5403 27.2546 46.5403 25.8914V23.6534C46.5403 22.4579 45.8954 21.9548 45.4522 21.7837C44.4157 21.3858 43.026 21.1161 41.1247 21.024V19.0689C41.1247 18.4785 40.6398 18 40.0416 18H38.9584C38.3602 18 37.8753 18.4785 37.8753 19.0689V21.1079C34.446 21.5848 31 23.6435 31 28.1525C31 36.7855 42.5077 35.595 42.5077 38.744C42.5077 39.5941 42.0812 40.6679 39.5 40.6679C36.7139 40.6679 34.2144 39.6237 33.1746 39.0991C32.6663 38.8426 31.3766 38.91 31.3766 40.1943V42.7415C31.3766 43.4436 31.8032 44.0718 32.4597 44.348C34.0011 44.9943 36.0323 45.4958 37.8753 45.6882V47.9311C37.8753 48.5215 38.3602 49 38.9584 49H40.0416C40.6398 49 41.1247 48.5215 41.1247 47.9311V45.6816C46.1754 45.0584 48 41.5279 48 38.5121C48 30.129 36.4923 31.6007 36.4923 27.7775Z" fill="black"/>
<path d="M48 38.0275C48 30.3165 36.4334 31.8231 36.4334 27.267C36.4334 24.8885 39.15 24.7632 39.9992 24.7632C42.0408 24.7632 44.0105 25.3022 45.5145 25.9962C45.9885 26.2154 46.5311 25.8907 46.5311 25.3764V23.133C46.5311 22.3813 46.2431 21.9346 45.7842 21.7582C44.7541 21.3643 43.2752 21.0758 41.0878 21.0049V18.5357C41.0878 18.239 40.8433 18 40.5435 18H39.4548C39.155 18 38.9105 18.239 38.9105 18.5357V21.0445C35.5172 21.3709 32 23.2549 32 27.6396C32 35.6324 43.5666 34.0467 43.5666 38.2566C43.5666 39.5802 42.7074 40.7209 40.0008 40.7209C37.2792 40.7209 34.7786 39.7863 33.3952 39.089C32.9296 38.8549 32.3802 39.1945 32.3802 39.7088V42.2621C32.3802 42.7516 32.68 43.1868 33.1389 43.3797C34.7786 44.0654 36.9777 44.5846 38.9122 44.7363V47.4643C38.9122 47.7593 39.1567 48 39.4565 48H40.5452C40.845 48 41.0895 47.7593 41.0895 47.4643V44.7412C46.166 44.3242 48 40.9797 48 38.0275Z" fill="white"/>
<defs>
<linearGradient id="paint0_linear_87_457" x1="17.6652" y1="8.6884" x2="55.0114" y2="48.9286" gradientUnits="userSpaceOnUse">
<stop stop-color="#21AD64"/>
<stop offset="1" stop-color="#088242"/>
</linearGradient>
</defs>
</svg>
