<svg width="80" height="80" viewBox="0 0 80 80" fill="none" xmlns="http://www.w3.org/2000/svg">
<path d="M46.6667 14.1428C46.4 14.0434 46.1167 13.9441 45.8333 13.8613C45.55 13.7784 45.2667 13.6956 45 13.6294C41.7201 12.7902 38.2799 12.7902 35 13.6294C34.7333 13.6956 34.45 13.7784 34.1667 13.8613C33.8833 13.9441 33.6 14.0434 33.3333 14.1428C29.4355 15.5133 26.0607 18.0502 23.6731 21.4047C21.2854 24.7591 20.0023 28.7662 20 32.875V46.125C20.0023 50.2338 21.2855 54.2409 23.6731 57.5953C26.0608 60.9497 29.4355 63.4867 33.3333 64.8572C33.6 64.9566 33.8833 65.0559 34.1667 65.1388C34.45 65.2216 34.7333 65.3044 35 65.3706C38.2799 66.2098 41.7201 66.2098 45 65.3706C45.2667 65.3044 45.55 65.2216 45.8333 65.1388C46.1167 65.0559 46.4 64.9566 46.6667 64.8572C50.5645 63.4867 53.9392 60.9497 56.3269 57.5953C58.7145 54.2409 59.9977 50.2338 60 46.125V32.875C59.9977 28.7662 58.7146 24.7591 56.3269 21.4047C53.9393 18.0502 50.5645 15.5133 46.6667 14.1428ZM50 46.125C50.0027 47.5207 49.707 48.901 49.1323 50.1745C48.5576 51.448 47.7172 52.5856 46.6667 53.5119C46.4048 53.7569 46.1264 53.9838 45.8333 54.1909C45.5697 54.3887 45.2911 54.5659 45 54.7209C43.482 55.5996 41.7567 56.0625 40 56.0625C38.2433 56.0625 36.518 55.5996 35 54.7209C34.7089 54.5659 34.4303 54.3887 34.1667 54.1909C33.8736 53.9838 33.5952 53.7569 33.3333 53.5119C32.2828 52.5856 31.4424 51.448 30.8677 50.1745C30.293 48.901 29.9973 47.5207 30 46.125V32.875C29.9973 31.4793 30.2931 30.099 30.8677 28.8255C31.4424 27.552 32.2828 26.4144 33.3333 25.4881C33.5952 25.2431 33.8736 25.0162 34.1667 24.8091C34.4302 24.6113 34.7089 24.4341 35 24.2791C36.518 23.4004 38.2433 22.9375 40 22.9375C41.7567 22.9375 43.482 23.4004 45 24.2791C45.2911 24.4341 45.5698 24.6113 45.8333 24.8091C46.1264 25.0162 46.4048 25.2431 46.6667 25.4881C47.7172 26.4144 48.5576 27.552 49.1323 28.8255C49.7069 30.099 50.0027 31.4793 50 32.875V46.125Z" fill="#0078D4"/>
<path d="M35 3H45V26.0588C45 27.3693 44.4732 28.6261 43.5355 29.5528C42.5979 30.4794 41.3261 31 40 31C38.6739 31 37.4021 30.4794 36.4645 29.5528C35.5268 28.6261 35 27.3693 35 26.0588V3Z" fill="#1B9DE2"/>
<path d="M40 48C41.3261 48 42.5979 48.5206 43.5355 49.4472C44.4732 50.3739 45 51.6307 45 52.9412V76H35V52.9412C35 51.6307 35.5268 50.3739 36.4645 49.4472C37.4021 48.5206 38.6739 48 40 48Z" fill="#1B9DE2"/>
<path opacity="0.05" d="M33.8125 14.2346C33.5362 14.3185 33.26 14.419 33 14.5196V26C33.2553 25.7521 33.5268 25.5225 33.8125 25.3128C34.0695 25.1127 34.3411 24.9334 34.625 24.7765V14C34.365 14.067 34.0888 14.1508 33.8125 14.2346ZM45.1875 14.2346C44.9113 14.1508 44.635 14.067 44.375 14V24.7765C44.6589 24.9334 44.9305 25.1127 45.1875 25.3128C45.4732 25.5225 45.7447 25.7521 46 26V14.5196C45.74 14.419 45.4637 14.3184 45.1875 14.2346Z" fill="black"/>
<path opacity="0.07" d="M34 14.2281V25C34.2711 24.8054 34.5577 24.631 34.8571 24.4785V14C34.5829 14.0652 34.2914 14.1467 34 14.2281ZM45.1429 14V24.4785C45.4423 24.631 45.7289 24.8054 46 25V14.2281C45.7086 14.1467 45.4171 14.0652 45.1429 14Z" fill="black"/>
<path opacity="0.05" d="M45.1875 54.6872C44.9305 54.8873 44.6588 55.0666 44.375 55.2235V66C44.635 65.933 44.9113 65.8492 45.1875 65.7654C45.4637 65.6816 45.74 65.581 46 65.4805V54C45.7447 54.2479 45.4732 54.4775 45.1875 54.6872ZM33 54V65.4805C33.26 65.581 33.5362 65.6816 33.8125 65.7654C34.0888 65.8492 34.365 65.933 34.625 66V55.2235C34.3412 55.0666 34.0695 54.8873 33.8125 54.6872C33.5268 54.4775 33.2553 54.2479 33 54Z" fill="black"/>
<path opacity="0.07" d="M45.1429 55.5215V66C45.4171 65.9348 45.7086 65.8533 46 65.7719V55C45.7289 55.1946 45.4423 55.3689 45.1429 55.5215ZM34 65.7719C34.2914 65.8533 34.5829 65.9348 34.8571 66V55.5215C34.5577 55.3689 34.2711 55.1946 34 55V65.7719Z" fill="black"/>
</svg>
