<svg width="80" height="80" viewBox="0 0 80 80" fill="none" xmlns="http://www.w3.org/2000/svg">
<path d="M70 64.4C70 63.0752 68.88 62 67.5 62C66.12 62 65 63.0752 65 64.4C65 65.0176 65 66.9824 65 67.6C65 68.9248 66.12 70 67.5 70C68.88 70 70 68.9248 70 67.6C70 66.9824 70 65.0176 70 64.4Z" fill="#424A52"/>
<path d="M15 64.4C15 63.0752 13.88 62 12.5 62C11.12 62 10 63.0752 10 64.4C10 65.0176 10 66.9824 10 67.6C10 68.9248 11.12 70 12.5 70C13.88 70 15 68.9248 15 67.6C15 66.9824 15 65.0176 15 64.4Z" fill="#424A52"/>
<path d="M71.6667 13H8.33333C6.49167 13 5 14.4823 5 16.3125V62.6875C5 64.5177 6.49167 66 8.33333 66H71.6667C73.5083 66 75 64.5177 75 62.6875V16.3125C75 14.4823 73.5083 13 71.6667 13Z" fill="url(#paint0_linear_87_406)"/>
<path opacity="0.3" d="M75 18H70V61H75V18Z" fill="black"/>
<path d="M70 18H10V61H70V18Z" fill="url(#paint1_linear_87_406)"/>
<path d="M70 17.9688L55 13V66L70 61.0312V17.9688Z" fill="url(#paint2_linear_87_406)"/>
<path d="M55 13H49.75C48.784 13 48 13.742 48 14.6562V64.3438C48 65.258 48.784 66 49.75 66H55V13Z" fill="#939CA3"/>
<path d="M59 31C58.448 31 58 31.3665 58 31.8182V48.1818C58 48.6335 58.448 49 59 49C59.552 49 60 48.6335 60 48.1818V31.8182C60 31.3665 59.552 31 59 31Z" fill="#E6E6E6"/>
<path d="M68.6 28.6875C68.6 28.6875 66.8384 27 66.2 27C64.432 27 63 33.0446 63 40.5C63 47.9554 64.432 54 66.2 54C66.8384 54 68.6 52.3125 68.6 52.3125C69.9248 52.3125 71 47.0239 71 40.5C71 33.9761 69.9248 28.6875 68.6 28.6875Z" fill="url(#paint3_linear_87_406)"/>
<path d="M68.3608 40.0306L66.5625 38.2317L65.1649 39.6308C64.945 39.8508 64.945 40.2103 65.1649 40.4303L66.5625 41.8294L68.3608 40.0306ZM65.9159 33.1578C65.6755 33.3123 65.6196 33.6532 65.7929 33.9203L66.8943 35.6083L68.8584 34.3519L67.4421 32.1803L65.9159 33.1578ZM67.813 28.3979L67.9005 30.1866L69 30.7745L68.8882 28.4735L68.0328 28.0166C67.8968 27.9444 67.798 28.114 67.813 28.3979ZM67.4421 47.8187L68.8584 45.647L66.8943 44.3907L65.7929 46.0787C65.6196 46.3457 65.6737 46.6867 65.9159 46.8412L67.4421 47.8187ZM68.0328 51.984L68.8882 51.5272L69 49.2262L67.9005 49.814L67.813 51.6028C67.798 51.8849 67.8968 52.0546 68.0328 51.984Z" fill="#E6E6E6"/>
<path d="M69.5 51C70.8807 51 72 45.8513 72 39.5C72 33.1487 70.8807 28 69.5 28C68.1193 28 67 33.1487 67 39.5C67 45.8513 68.1193 51 69.5 51Z" fill="url(#paint4_linear_87_406)"/>
<path d="M51.5 41C52.3284 41 53 40.3284 53 39.5C53 38.6716 52.3284 38 51.5 38C50.6716 38 50 38.6716 50 39.5C50 40.3284 50.6716 41 51.5 41Z" fill="url(#paint5_linear_87_406)"/>
<path d="M51.5 31C52.3284 31 53 30.3284 53 29.5C53 28.6716 52.3284 28 51.5 28C50.6716 28 50 28.6716 50 29.5C50 30.3284 50.6716 31 51.5 31Z" fill="url(#paint6_linear_87_406)"/>
<path d="M51.5 51C52.3284 51 53 50.3284 53 49.5C53 48.6716 52.3284 48 51.5 48C50.6716 48 50 48.6716 50 49.5C50 50.3284 50.6716 51 51.5 51Z" fill="url(#paint7_linear_87_406)"/>
<path d="M33.2694 31.0116V36.6666H14.6891C13.7567 36.6666 13 37.4133 13 38.3333V41.6667C13 42.5867 13.7567 43.3334 14.6891 43.3334H33.2694V48.9884C33.2694 49.8884 34.3724 50.3384 35.016 49.7017L43.4008 41.4283C44.1997 40.64 44.1997 39.36 43.4008 38.5717L35.016 30.2983C34.3724 29.6616 33.2694 30.1116 33.2694 31.0116Z" fill="#50E6FF"/>
<defs>
<linearGradient id="paint0_linear_87_406" x1="40" y1="13.8033" x2="40" y2="67.8931" gradientUnits="userSpaceOnUse">
<stop stop-color="#889097"/>
<stop offset="1" stop-color="#64717C"/>
</linearGradient>
<linearGradient id="paint1_linear_87_406" x1="9.89667" y1="39.5" x2="49.7717" y2="39.5" gradientUnits="userSpaceOnUse">
<stop stop-color="#4C4C4C"/>
<stop offset="0.289" stop-color="#464646"/>
<stop offset="0.998" stop-color="#3B3B3B"/>
</linearGradient>
<linearGradient id="paint2_linear_87_406" x1="69.7417" y1="39.5" x2="55.0617" y2="39.5" gradientUnits="userSpaceOnUse">
<stop stop-color="#5D6771"/>
<stop offset="1" stop-color="#545F69"/>
</linearGradient>
<linearGradient id="paint3_linear_87_406" x1="70.9872" y1="40.5" x2="63.016" y2="40.5" gradientUnits="userSpaceOnUse">
<stop stop-color="#3B3B3B"/>
<stop offset="1" stop-color="#4F4F4F"/>
</linearGradient>
<linearGradient id="paint4_linear_87_406" x1="67" y1="39.5" x2="72.7467" y2="39.5" gradientUnits="userSpaceOnUse">
<stop stop-color="#889097"/>
<stop offset="1" stop-color="#889097"/>
</linearGradient>
<linearGradient id="paint5_linear_87_406" x1="52.949" y1="39.5" x2="50.012" y2="39.5" gradientUnits="userSpaceOnUse">
<stop stop-color="#5D6771"/>
<stop offset="1" stop-color="#545F69"/>
</linearGradient>
<linearGradient id="paint6_linear_87_406" x1="52.949" y1="29.5" x2="50.012" y2="29.5" gradientUnits="userSpaceOnUse">
<stop stop-color="#5D6771"/>
<stop offset="1" stop-color="#545F69"/>
</linearGradient>
<linearGradient id="paint7_linear_87_406" x1="52.949" y1="49.5" x2="50.012" y2="49.5" gradientUnits="userSpaceOnUse">
<stop stop-color="#5D6771"/>
<stop offset="1" stop-color="#545F69"/>
</linearGradient>
</defs>
</svg>
