<svg width="80" height="80" viewBox="0 0 80 80" fill="none" xmlns="http://www.w3.org/2000/svg">
<path d="M59.6667 70H16.3333C14.4917 70 13 68.5083 13 66.6667V13.3333C13 11.4917 14.4917 10 16.3333 10H59.6667C61.5083 10 63 11.4917 63 13.3333V66.6667C63 68.5083 61.5083 70 59.6667 70Z" fill="url(#paint0_linear_87_426)"/>
<path d="M56.6875 66.8V62H7V66.8C7 68.568 8.48234 70 10.3125 70H60C58.1698 70 56.6875 68.568 56.6875 66.8Z" fill="url(#paint1_linear_87_426)"/>
<path d="M54.1786 32H32.8214C32.368 32 32 31.6267 32 31.1667V27.8333C32 27.3733 32.368 27 32.8214 27H54.1786C54.632 27 55 27.3733 55 27.8333V31.1667C55 31.6267 54.632 32 54.1786 32Z" fill="#057093"/>
<path d="M54.1786 42H32.8214C32.368 42 32 41.6267 32 41.1667V37.8333C32 37.3733 32.368 37 32.8214 37H54.1786C54.632 37 55 37.3733 55 37.8333V41.1667C55 41.6267 54.632 42 54.1786 42Z" fill="#057093"/>
<path d="M54.1786 52H32.8214C32.368 52 32 51.6267 32 51.1667V47.8333C32 47.3733 32.368 47 32.8214 47H54.1786C54.632 47 55 47.3733 55 47.8333V51.1667C55 51.6267 54.632 52 54.1786 52Z" fill="#057093"/>
<path d="M26.1667 32H22.8333C22.3733 32 22 31.6267 22 31.1667V27.8333C22 27.3733 22.3733 27 22.8333 27H26.1667C26.6267 27 27 27.3733 27 27.8333V31.1667C27 31.6267 26.6267 32 26.1667 32Z" fill="#057093"/>
<path d="M26.1667 42H22.8333C22.3733 42 22 41.6267 22 41.1667V37.8333C22 37.3733 22.3733 37 22.8333 37H26.1667C26.6267 37 27 37.3733 27 37.8333V41.1667C27 41.6267 26.6267 42 26.1667 42Z" fill="#057093"/>
<path d="M26.1667 52H22.8333C22.3733 52 22 51.6267 22 51.1667V47.8333C22 47.3733 22.3733 47 22.8333 47H26.1667C26.6267 47 27 47.3733 27 47.8333V51.1667C27 51.6267 26.6267 52 26.1667 52Z" fill="#057093"/>
<defs>
<linearGradient id="paint0_linear_87_426" x1="21.2533" y1="12.3833" x2="56.9767" y2="71.295" gradientUnits="userSpaceOnUse">
<stop stop-color="#7DD8F3"/>
<stop offset="1" stop-color="#45B0D0"/>
</linearGradient>
<linearGradient id="paint1_linear_87_426" x1="33.5" y1="62.4544" x2="33.5" y2="70.016" gradientUnits="userSpaceOnUse">
<stop stop-color="#0176D0"/>
<stop offset="1" stop-color="#16538C"/>
</linearGradient>
</defs>
</svg>
