<svg width="80" height="80" viewBox="0 0 80 80" fill="none" xmlns="http://www.w3.org/2000/svg">
<path d="M74 40.5C74 59.0004 59.0004 74 40.5 74C21.9996 74 7 59.0004 7 40.5C7 21.9996 21.9996 7 40.5 7C59.0004 7 74 21.9996 74 40.5Z" fill="url(#paint0_linear_87_396)"/>
<path opacity="0.05" d="M56.6667 35H45V23.3333C45 21.4917 43.5083 20 41.6667 20H38.3333C36.4917 20 35 21.4917 35 23.3333V35H23.3333C21.4917 35 20 36.4917 20 38.3333V41.6667C20 43.5083 21.4917 45 23.3333 45H35V56.6667C35 58.5083 36.4917 60 38.3333 60H41.6667C43.5083 60 45 58.5083 45 56.6667V45H56.6667C58.5083 45 60 43.5083 60 41.6667V38.3333C60 36.4917 58.5083 35 56.6667 35Z" fill="black"/>
<path opacity="0.07" d="M56.5217 35.8696H44.1304V23.4783C44.1304 22.1103 43.0202 21 41.6522 21H38.3478C36.9798 21 35.8696 22.1103 35.8696 23.4783V35.8696H23.4783C22.1103 35.8696 21 36.9798 21 38.3478V41.6522C21 43.0202 22.1103 44.1304 23.4783 44.1304H35.8696V56.5217C35.8696 57.8897 36.9798 59 38.3478 59H41.6522C43.0202 59 44.1304 57.8897 44.1304 56.5217V44.1304H56.5217C57.8897 44.1304 59 43.0202 59 41.6522V38.3478C59 36.9798 57.8897 35.8696 56.5217 35.8696Z" fill="black"/>
<path d="M38.75 22H42.25C43.216 22 44 22.7535 44 23.6818V57.3182C44 58.2465 43.216 59 42.25 59H38.75C37.784 59 37 58.2465 37 57.3182V23.6818C37 22.7535 37.784 22 38.75 22Z" fill="url(#paint1_linear_87_396)"/>
<path d="M59 38.75V42.25C59 43.216 58.2465 44 57.3182 44H23.6818C22.7535 44 22 43.216 22 42.25V38.75C22 37.784 22.7535 37 23.6818 37H57.3182C58.2465 37 59 37.784 59 38.75Z" fill="url(#paint2_linear_87_396)"/>
<defs>
<linearGradient id="paint0_linear_87_396" x1="16.8122" y1="16.8122" x2="64.1878" y2="64.1878" gradientUnits="userSpaceOnUse">
<stop stop-color="#9DFFCE"/>
<stop offset="1" stop-color="#50D18D"/>
</linearGradient>
<linearGradient id="paint1_linear_87_396" x1="37" y1="40.5" x2="44" y2="40.5" gradientUnits="userSpaceOnUse">
<stop offset="0.824" stop-color="#135D36"/>
<stop offset="0.931" stop-color="#125933"/>
<stop offset="1" stop-color="#11522F"/>
</linearGradient>
<linearGradient id="paint2_linear_87_396" x1="22" y1="40.5" x2="59" y2="40.5" gradientUnits="userSpaceOnUse">
<stop offset="0.824" stop-color="#135D36"/>
<stop offset="0.931" stop-color="#125933"/>
<stop offset="1" stop-color="#11522F"/>
</linearGradient>
</defs>
</svg>
