<svg width="74" height="70" viewBox="0 0 74 70" fill="none" xmlns="http://www.w3.org/2000/svg">
<g clip-path="url(#clip0_90_918)">
<path d="M70.4377 0H24.1282C22.16 0 20.5659 1.59411 20.5659 3.56227V60.5585C20.5659 62.5267 22.16 64.1208 24.1282 64.1208H70.4377C72.4058 64.1208 73.9999 62.5267 73.9999 60.5585V3.56227C73.9999 1.59411 72.4058 0 70.4377 0Z" fill="url(#paint0_linear_90_918)"/>
<path d="M66.8755 3.56227V8.90567C66.8755 9.88885 66.0776 10.6868 65.0944 10.6868H17.0038C16.0206 10.6868 15.2227 9.88885 15.2227 8.90567V3.56227C15.2227 1.59411 16.8168 0 18.7849 0H70.4378C68.4697 0 66.8755 1.59411 66.8755 3.56227Z" fill="url(#paint1_linear_90_918)"/>
<path d="M64.2038 30.2793H30.3622C29.8707 30.2793 29.4717 30.6783 29.4717 31.1699V34.7321C29.4717 35.2237 29.8707 35.6227 30.3622 35.6227H64.2038C64.6954 35.6227 65.0944 35.2237 65.0944 34.7321V31.1699C65.0944 30.6783 64.6954 30.2793 64.2038 30.2793Z" fill="#66D7FF"/>
<path d="M64.2038 19.5925H30.3622C29.8707 19.5925 29.4717 19.9914 29.4717 20.483V24.0453C29.4717 24.5369 29.8707 24.9359 30.3622 24.9359H64.2038C64.6954 24.9359 65.0944 24.5369 65.0944 24.0453V20.483C65.0944 19.9914 64.6954 19.5925 64.2038 19.5925Z" fill="#66D7FF"/>
<path d="M60.1481 69.313L56.1886 66.6734L52.2292 69.313C51.6378 69.7084 50.8452 69.2845 50.8452 68.5721V52.4243H61.532V68.5721C61.532 69.2845 60.7394 69.7084 60.1481 69.313Z" fill="url(#paint2_linear_90_918)"/>
<path d="M64.6171 49.0275L63.9937 48.6535C63.7283 48.4932 63.5484 48.2313 63.4683 47.9339C63.4665 47.9286 63.4647 47.9232 63.4629 47.9179C63.3792 47.6169 63.4041 47.2963 63.5573 47.0237L63.91 46.3879C64.2715 45.7378 63.8084 44.938 63.0657 44.9256L62.3319 44.9131C62.0202 44.9077 61.7334 44.7688 61.5143 44.5497C61.5126 44.5462 61.5108 44.5444 61.5072 44.5426C61.2864 44.3235 61.1492 44.035 61.1439 43.7251L61.1314 42.9912C61.1189 42.2485 60.3192 41.7872 59.6691 42.147L59.0386 42.5032C58.7643 42.6546 58.4455 42.6796 58.1444 42.5976C58.1391 42.5958 58.1338 42.5941 58.1266 42.5923C57.8274 42.5103 57.5656 42.3322 57.4071 42.0668L57.033 41.4434C56.6501 40.8058 55.7274 40.8058 55.3445 41.4434L54.9722 42.0633C54.8119 42.3304 54.5466 42.5121 54.2473 42.5941C54.2438 42.5958 54.242 42.5958 54.2384 42.5976C53.9338 42.6813 53.6115 42.6564 53.3372 42.5032L52.7049 42.1523C52.0547 41.7908 51.255 42.2539 51.2426 42.9966L51.2283 43.7286C51.223 44.0386 51.084 44.3271 50.8649 44.5462C50.8614 44.548 50.8596 44.5515 50.8578 44.5533C50.6387 44.7742 50.3502 44.9113 50.0403 44.9167L49.3065 44.9291C48.5637 44.9416 48.1024 45.7413 48.4622 46.3914L48.8149 47.0273C48.9663 47.3016 48.9912 47.6204 48.9093 47.9214C48.9075 47.9268 48.9057 47.9339 48.9039 47.9375C48.822 48.2367 48.6421 48.4985 48.3785 48.657L47.7551 49.0311C47.1174 49.414 47.1174 50.3366 47.7551 50.7196L48.3785 51.0936C48.6439 51.2539 48.8238 51.5158 48.9039 51.8132C48.9057 51.8185 48.9075 51.8239 48.9093 51.8292C48.993 52.1302 48.968 52.4509 48.8149 52.7234L48.4622 53.3592C48.1006 54.0093 48.5637 54.8091 49.3065 54.8215L50.0403 54.834C50.352 54.8393 50.6387 54.9783 50.8578 55.1974C50.8596 55.1991 50.8614 55.2009 50.8649 55.2045C51.0858 55.4236 51.223 55.7121 51.2283 56.022L51.2408 56.7559C51.2532 57.4986 52.053 57.9599 52.7031 57.6001L53.3389 57.2474C53.6132 57.096 53.9321 57.0711 54.2331 57.153C54.2384 57.1548 54.2455 57.1548 54.2509 57.1566C54.5501 57.2385 54.8119 57.4166 54.9705 57.682L55.3445 58.3054C55.7274 58.9431 56.6501 58.9431 57.033 58.3054L57.4071 57.682C57.5674 57.4166 57.8292 57.2368 58.1266 57.1566C58.132 57.1548 58.1391 57.1548 58.1444 57.153C58.4455 57.0693 58.7661 57.0943 59.0386 57.2474L59.6744 57.6001C60.3246 57.9617 61.1243 57.4986 61.1367 56.7559L61.1492 56.022C61.1546 55.7103 61.2935 55.4236 61.5126 55.2045C61.5161 55.2027 61.5179 55.2009 61.5197 55.1974C61.7388 54.9765 62.0273 54.8393 62.3372 54.834L63.0711 54.8215C63.8138 54.8091 64.2751 54.0093 63.9153 53.3592L63.5627 52.7234C63.4113 52.4491 63.3863 52.1302 63.4683 51.8292C63.47 51.8239 63.47 51.8185 63.4718 51.8132C63.5537 51.514 63.7319 51.2521 63.9972 51.0936L64.6206 50.7196C65.2547 50.3331 65.2547 49.4105 64.6171 49.0275Z" fill="url(#paint3_linear_90_918)"/>
<path d="M38.1457 26.8649C35.93 27.6646 33.3545 27.1178 31.6606 25.2743C29.9668 23.4309 29.639 20.8197 30.6204 18.6788C28.0022 17.1114 25.0259 16.146 21.9 15.9341C21.4868 18.2567 19.7252 20.2195 17.2797 20.7663C14.8325 21.3131 12.4048 20.2872 11.0422 18.36C8.30461 19.8811 6.02119 22.022 4.32021 24.5548C6.11915 26.0741 6.93313 28.5784 6.18506 30.9651C5.43698 33.3536 3.3388 34.9441 0.99305 35.1632C0.969895 36.6736 1.1017 38.2054 1.44546 39.7443C1.78922 41.2832 2.32356 42.7259 2.98614 44.0831C5.20187 43.2834 7.77739 43.8302 9.47125 45.6737C11.1651 47.5154 11.4928 50.1283 10.5114 52.2692C13.1297 53.8366 16.106 54.802 19.2319 55.0139C19.6451 52.6913 21.4066 50.7285 23.8521 50.1817C26.2976 49.6349 28.7271 50.6609 30.0897 52.588C32.8273 51.0669 35.1107 48.926 36.8116 46.3933C35.0127 44.8739 34.1987 42.3697 34.9468 39.9829C35.6949 37.5944 37.7931 36.0039 40.1388 35.7848C40.162 34.2744 40.0302 32.7426 39.6864 31.2037C39.3426 29.6648 38.8101 28.2221 38.1457 26.8649Z" fill="url(#paint4_linear_90_918)"/>
<path d="M20.5658 46.0246C26.3922 46.0246 31.1154 41.3014 31.1154 35.4749C31.1154 29.6485 26.3922 24.9253 20.5658 24.9253C14.7394 24.9253 10.0161 29.6485 10.0161 35.4749C10.0161 41.3014 14.7394 46.0246 20.5658 46.0246Z" fill="url(#paint5_linear_90_918)"/>
<path d="M20.566 41.8959C24.1122 41.8959 26.987 39.0212 26.987 35.4749C26.987 31.9287 24.1122 29.054 20.566 29.054C17.0198 29.054 14.145 31.9287 14.145 35.4749C14.145 39.0212 17.0198 41.8959 20.566 41.8959Z" fill="url(#paint6_linear_90_918)"/>
<path d="M38.1457 26.8649C35.93 27.6646 33.3545 27.1178 31.6606 25.2743C29.9668 23.4309 29.639 20.8197 30.6204 18.6788C28.0022 17.1114 25.0259 16.146 21.9 15.9341C21.4868 18.2567 19.7252 20.2195 17.2797 20.7663C14.8325 21.3131 12.4048 20.2872 11.0422 18.36C8.30461 19.8811 6.02119 22.022 4.32021 24.5548C6.11915 26.0741 6.93313 28.5784 6.18506 30.9651C5.43698 33.3536 3.3388 34.9441 0.99305 35.1632C0.969895 36.6736 1.1017 38.2054 1.44546 39.7443C1.78922 41.2832 2.32356 42.7259 2.98614 44.0831C5.20187 43.2834 7.77739 43.8302 9.47125 45.6737C11.1651 47.5154 11.4928 50.1283 10.5114 52.2692C13.1297 53.8366 16.106 54.802 19.2319 55.0139C19.6451 52.6913 21.4066 50.7285 23.8521 50.1817C26.2976 49.6349 28.7271 50.6609 30.0897 52.588C32.8273 51.0669 35.1107 48.926 36.8116 46.3933C35.0127 44.8739 34.1987 42.3697 34.9468 39.9829C35.6949 37.5944 37.7931 36.0039 40.1388 35.7848C40.162 34.2744 40.0302 32.7426 39.6864 31.2037C39.3426 29.6648 38.8101 28.2221 38.1457 26.8649Z" fill="url(#paint7_linear_90_918)"/>
<path d="M20.566 46.3096C26.4681 46.3096 31.2528 41.5249 31.2528 35.6228C31.2528 29.7206 26.4681 24.936 20.566 24.936C14.6638 24.936 9.87915 29.7206 9.87915 35.6228C9.87915 41.5249 14.6638 46.3096 20.566 46.3096Z" fill="url(#paint8_linear_90_918)"/>
<path d="M20.5659 42.7473C24.5007 42.7473 27.6905 39.5575 27.6905 35.6228C27.6905 31.688 24.5007 28.4982 20.5659 28.4982C16.6312 28.4982 13.4414 31.688 13.4414 35.6228C13.4414 39.5575 16.6312 42.7473 20.5659 42.7473Z" fill="url(#paint9_linear_90_918)"/>
</g>
<defs>
<linearGradient id="paint0_linear_90_918" x1="47.2829" y1="63.0521" x2="47.2829" y2="4.24266" gradientUnits="userSpaceOnUse">
<stop stop-color="#199AE0"/>
<stop offset="1" stop-color="#0782D8"/>
</linearGradient>
<linearGradient id="paint1_linear_90_918" x1="42.8302" y1="0.258264" x2="42.8302" y2="10.1863" gradientUnits="userSpaceOnUse">
<stop stop-color="#66D7FF"/>
<stop offset="1" stop-color="#42BCF1"/>
</linearGradient>
<linearGradient id="paint2_linear_90_918" x1="56.1886" y1="52.4243" x2="56.1886" y2="69.5481" gradientUnits="userSpaceOnUse">
<stop stop-color="#8C20E5"/>
<stop offset="0.427" stop-color="#9E32EB"/>
<stop offset="1" stop-color="#BD4FF4"/>
</linearGradient>
<linearGradient id="paint3_linear_90_918" x1="51.6611" y1="42.0027" x2="60.6808" y2="57.6785" gradientUnits="userSpaceOnUse">
<stop stop-color="#FFDA1C"/>
<stop offset="1" stop-color="#FEB705"/>
</linearGradient>
<linearGradient id="paint4_linear_90_918" x1="4.64141" y1="25.3305" x2="37.946" y2="46.4727" gradientUnits="userSpaceOnUse">
<stop stop-color="#889097"/>
<stop offset="0.331" stop-color="#848C94"/>
<stop offset="0.669" stop-color="#78828B"/>
<stop offset="1" stop-color="#64717C"/>
</linearGradient>
<linearGradient id="paint5_linear_90_918" x1="29.3501" y1="41.0161" x2="11.6803" y2="29.799" gradientUnits="userSpaceOnUse">
<stop stop-color="white"/>
<stop offset="0.242" stop-color="#F2F2F2"/>
<stop offset="1" stop-color="#CCCCCC"/>
</linearGradient>
<linearGradient id="paint6_linear_90_918" x1="13.3988" y1="30.8898" x2="25.984" y2="38.8791" gradientUnits="userSpaceOnUse">
<stop stop-color="#0D61A9"/>
<stop offset="0.363" stop-color="#0E5FA4"/>
<stop offset="0.78" stop-color="#135796"/>
<stop offset="1" stop-color="#16528C"/>
</linearGradient>
<linearGradient id="paint7_linear_90_918" x1="4.64141" y1="25.3305" x2="37.946" y2="46.4727" gradientUnits="userSpaceOnUse">
<stop stop-color="#889097"/>
<stop offset="0.331" stop-color="#848C94"/>
<stop offset="0.669" stop-color="#78828B"/>
<stop offset="1" stop-color="#64717C"/>
</linearGradient>
<linearGradient id="paint8_linear_90_918" x1="28.0111" y1="43.0679" x2="13.0211" y2="28.0779" gradientUnits="userSpaceOnUse">
<stop stop-color="white"/>
<stop offset="0.242" stop-color="#F2F2F2"/>
<stop offset="1" stop-color="#CCCCCC"/>
</linearGradient>
<linearGradient id="paint9_linear_90_918" x1="13.8992" y1="28.956" x2="25.5941" y2="40.6509" gradientUnits="userSpaceOnUse">
<stop stop-color="#0D61A9"/>
<stop offset="0.363" stop-color="#0E5FA4"/>
<stop offset="0.78" stop-color="#135796"/>
<stop offset="1" stop-color="#16528C"/>
</linearGradient>
<clipPath id="clip0_90_918">
<rect width="73.0095" height="69.4646" fill="white" transform="translate(0.990479)"/>
</clipPath>
</defs>
</svg>
