<svg width="80" height="80" viewBox="0 0 80 80" fill="none" xmlns="http://www.w3.org/2000/svg">
<path d="M62.17 74.9883C62.21 74.9883 62.245 75 62.285 75C62.2883 75 62.2917 74.9983 62.295 74.9983C62.2983 74.9983 62.3017 75 62.3067 75V74.9983C66.53 74.9867 69.9483 71.6767 69.9917 67.5783H70C70 67.565 69.9967 67.55 69.9967 67.5367C69.9967 67.525 70 67.5133 70 67.5017C70 67.35 69.9633 67.2083 69.9533 67.0583C69.93 66.72 69.9083 66.3817 69.8467 66.0233C69.8417 66 69.8367 65.9767 69.8317 65.9517C69.22 62.51 67.0617 58.2367 67.0467 54.22C67.0283 49.45 68.015 44.71 70 40C68.015 35.29 67.0283 30.55 67.0467 25.78C67.0617 21.7633 69.2217 17.4883 69.8317 14.0483C69.8367 14.025 69.8417 14.0017 69.8467 13.9767C69.9083 13.6183 69.9317 13.28 69.9533 12.9417C69.9633 12.7933 70 12.6517 70 12.5C70 12.4883 69.9967 12.4767 69.9967 12.465C69.9967 12.4517 70 12.4367 70 12.4217H69.9917C69.9467 8.32333 66.53 5.01333 62.3067 5.00167V5C62.3033 5 62.2983 5.00167 62.295 5.00167C62.2917 5.00167 62.2883 5 62.285 5C62.2483 5 62.2133 5.01 62.1767 5.01C58.2067 5.07167 53.3083 7.855 49.8133 7.87167C46.2117 7.88833 43.5867 6.93 40.0333 5.005V5C40.0317 5.00167 40.03 5.00167 40.0283 5.00333C40.0267 5.00167 40.025 5.00167 40.0233 5V5.005C36.4617 6.93 33.83 7.88833 30.2217 7.87167C26.6967 7.855 21.775 5.03167 17.7617 5.005C17.745 5.005 17.73 5 17.715 5C17.7133 5 17.7117 5 17.7117 5C17.71 5 17.7083 5 17.7067 5V5.00167C13.4767 5.00667 10.0533 8.32 10.0083 12.4217H10C10 12.435 10.0033 12.45 10.0033 12.4633C10.0033 12.4767 10 12.4883 10 12.5C10 12.6517 10.0367 12.7933 10.0467 12.9433C10.07 13.2817 10.0917 13.62 10.1533 13.9783C10.1583 14.0017 10.1633 14.025 10.1683 14.05C10.78 17.4917 12.94 21.765 12.9533 25.7817C12.9717 30.55 11.985 35.29 10 40C11.985 44.71 12.9717 49.45 12.9533 54.22C12.9383 58.2367 10.78 62.51 10.1683 65.9517C10.1633 65.975 10.1583 65.9983 10.1533 66.0233C10.0917 66.3817 10.0683 66.72 10.0467 67.0583C10.0367 67.2067 10 67.3483 10 67.5C10 67.5117 10.0033 67.5233 10.0033 67.535C10.0033 67.5483 10 67.565 10 67.5783H10.0083C10.0533 71.68 13.4767 74.9933 17.705 74.9983V75C17.7067 75 17.7083 75 17.71 75C17.7117 75 17.7133 75 17.7133 75C17.7283 75 17.7433 74.995 17.76 74.995C21.7733 74.9683 26.695 72.1433 30.22 72.1283C33.83 72.1117 36.46 73.07 40.0217 74.995V75C40.0233 74.9983 40.025 74.9983 40.0267 74.9967C40.0283 74.9983 40.03 74.9983 40.0317 75V74.995C43.585 73.07 46.21 72.1117 49.8117 72.1283C53.3067 72.145 58.2033 74.925 62.17 74.9883Z" fill="#35C1F1"/>
<path d="M20 63.3333V18.3333C20 16.4917 21.4917 15 23.3333 15H56.6667C58.5083 15 60 16.4917 60 18.3333V63.3333C60 65.175 58.5083 66.6667 56.6667 66.6667H23.3333C21.4917 66.6667 20 65.175 20 63.3333Z" fill="url(#paint0_linear_90_975)"/>
<path d="M48 50H32V59H48V50Z" fill="#EBA600"/>
<path d="M50.0722 42H29.9277C29.4664 42 29.0114 42.1064 28.5979 42.3109C28.1844 42.5153 27.8236 42.8124 27.5436 43.179C27.2636 43.5456 27.0719 43.9718 26.9834 44.4246C26.895 44.8773 26.9121 45.3443 27.0334 45.7894L28.3971 50.7893C28.5702 51.4243 28.9474 51.9846 29.4704 52.3841C29.9934 52.7836 30.6333 53 31.2914 53H48.7086C49.3667 53 50.0066 52.7836 50.5296 52.3841C51.0526 51.9846 51.4297 51.4243 51.6029 50.7893L52.9665 45.7894C53.0879 45.3443 53.105 44.8773 53.0165 44.4246C52.928 43.9718 52.7364 43.5456 52.4564 43.179C52.1763 42.8124 51.8156 42.5153 51.4021 42.3109C50.9886 42.1064 50.5335 42 50.0722 42Z" fill="url(#paint1_radial_90_975)"/>
<path d="M44.0234 41.7812C44.0234 43.3077 41.7462 45 40 45C38.2538 45 35.9766 43.3077 35.9766 41.7812V36.1202H44.0234V41.7812Z" fill="#EBA600"/>
<path d="M47.1746 29.4609H46.7505V32.6797H47.3162C47.5027 32.6905 47.6874 32.6374 47.8397 32.5292C47.992 32.4209 48.1028 32.2639 48.1539 32.0842L48.4307 30.7138C48.4473 30.5449 48.4263 30.3743 48.369 30.2145C48.3117 30.0547 48.2197 29.9096 48.0995 29.7897C47.9793 29.6699 47.834 29.5782 47.674 29.5213C47.514 29.4644 47.3435 29.4438 47.1746 29.4609Z" fill="#EBA600"/>
<path d="M32.8254 29.4609H33.2494V32.6797H32.6838C32.4972 32.6905 32.3125 32.6374 32.1602 32.5292C32.0079 32.4209 31.8971 32.2639 31.8461 32.0842L31.5693 30.7138C31.5526 30.5449 31.5737 30.3743 31.6309 30.2145C31.6882 30.0547 31.7803 29.9096 31.9005 29.7897C32.0207 29.6699 32.166 29.5782 32.3259 29.5213C32.4859 29.4644 32.6565 29.4438 32.8254 29.4609Z" fill="#EBA600"/>
<path d="M40 20.1266C36.4264 20.1266 32.7578 20.6698 32.7578 28.3948V33.7845C32.7578 36.5422 37.1031 39.9219 40 39.9219C42.8969 39.9219 47.2422 36.5422 47.2422 33.7845V28.3948C47.2422 20.6698 43.5736 20.1266 40 20.1266Z" fill="url(#paint2_radial_90_975)"/>
<path d="M40 19.4385C36.4964 19.4385 35.9766 20.755 35.9766 20.755C34.5523 20.965 31.9531 23.0516 31.9531 25.4367C32.0583 27.334 32.3275 29.2186 32.7578 31.0695C33.1964 25.8028 34.5676 23.8273 35.9766 23.8273C36.9961 23.8273 37.8056 24.632 40 24.632C41.8532 24.632 42.3135 23.8273 44.0234 23.8273C46.4375 23.8273 47.2422 30.2391 47.2422 31.0695C47.6634 29.2169 47.9325 27.3331 48.0469 25.4367C48.0469 22.6774 44.9963 19.4385 40 19.4385Z" fill="url(#paint3_linear_90_975)"/>
<path d="M40.1763 19C36.8256 19 35.979 20.7558 35.979 20.7558C35.9761 21.3663 36.1202 21.9686 36.399 22.5117C36.399 22.5117 37.0106 23.8281 40.503 23.8281C42.6112 23.8281 45.6328 22.5125 45.6328 19H40.1763Z" fill="url(#paint4_linear_90_975)"/>
<path d="M49 58H31C29.8954 58 29 58.8954 29 60C29 61.1046 29.8954 62 31 62H49C50.1046 62 51 61.1046 51 60C51 58.8954 50.1046 58 49 58Z" fill="url(#paint5_linear_90_975)"/>
<path opacity="0.05" d="M32 53V54H48V53H32Z" fill="black"/>
<path opacity="0.07" d="M32 53V53.5H48V53H32Z" fill="black"/>
<path opacity="0.05" d="M48 58V57H32V58H48Z" fill="black"/>
<path opacity="0.07" d="M48 58V57.5H32V58H48Z" fill="black"/>
<defs>
<linearGradient id="paint0_linear_90_975" x1="40.2133" y1="23.7033" x2="39.715" y2="63.7" gradientUnits="userSpaceOnUse">
<stop stop-color="#007AD9"/>
<stop offset="1" stop-color="#0D62AB"/>
</linearGradient>
<radialGradient id="paint1_radial_90_975" cx="0" cy="0" r="1" gradientUnits="userSpaceOnUse" gradientTransform="translate(32.37 45.543) scale(19.891)">
<stop stop-color="#FFD869"/>
<stop offset="1" stop-color="#FEC52B"/>
</radialGradient>
<radialGradient id="paint2_radial_90_975" cx="0" cy="0" r="1" gradientUnits="userSpaceOnUse" gradientTransform="translate(1275.76 10233.9) scale(125.613 171.671)">
<stop stop-color="#FFD869"/>
<stop offset="1" stop-color="#FEC52B"/>
</radialGradient>
<linearGradient id="paint3_linear_90_975" x1="418.203" y1="86.7004" x2="418.203" y2="369.833" gradientUnits="userSpaceOnUse">
<stop stop-color="#FFD869"/>
<stop offset="1" stop-color="#FEC52B"/>
</linearGradient>
<linearGradient id="paint4_linear_90_975" x1="226.121" y1="45.1395" x2="342.343" y2="45.1395" gradientUnits="userSpaceOnUse">
<stop stop-color="#FFD869"/>
<stop offset="1" stop-color="#FEC52B"/>
</linearGradient>
<linearGradient id="paint5_linear_90_975" x1="557" y1="216.784" x2="557" y2="248.872" gradientUnits="userSpaceOnUse">
<stop stop-color="#FFD869"/>
<stop offset="1" stop-color="#FEC52B"/>
</linearGradient>
</defs>
</svg>
