<svg width="80" height="80" viewBox="0 0 80 80" fill="none" xmlns="http://www.w3.org/2000/svg">
<path d="M71.6666 55H8.33329C7.41329 55 6.66663 54.2534 6.66663 53.3334V23.3334C6.66663 22.4134 7.41329 21.6667 8.33329 21.6667H71.6666C72.5866 21.6667 73.3333 22.4134 73.3333 23.3334V53.3334C73.3333 54.2534 72.5866 55 71.6666 55Z" fill="#61E3A7"/>
<path d="M15 21.6667V55H65V21.6667H15ZM33.3333 50C26.89 50 21.6667 44.7767 21.6667 38.3334C21.6667 31.89 26.89 26.6667 33.3333 26.6667C39.7767 26.6667 45 31.89 45 38.3334C45 44.7767 39.7767 50 33.3333 50ZM60.8333 50C59.4533 50 58.3333 48.88 58.3333 47.5C58.3333 46.12 59.4533 45 60.8333 45C62.2133 45 63.3333 46.12 63.3333 47.5C63.3333 48.88 62.2133 50 60.8333 50ZM50.8333 50C49.4533 50 48.3333 48.88 48.3333 47.5C48.3333 46.12 49.4533 45 50.8333 45C52.2133 45 53.3333 46.12 53.3333 47.5C53.3333 48.88 52.2133 50 50.8333 50Z" fill="#33C481"/>
<path opacity="0.018" d="M65 35C59.96 35 55.5667 38.0067 55.1667 46.82C49.5067 49.58 46.8767 55 46.8767 55H65.8767L67.675 51.375C68.0067 50.7083 68.1817 49.9633 68.1817 49.2183C68.1817 49.2183 68.1817 38.3333 68.1817 38.1817C68.1817 36.3083 66.5034 35 65 35Z" fill="black"/>
<path opacity="0.036" d="M65.0001 35C59.7534 35 55.6767 38.4233 55.3167 46.9233C49.7901 49.5433 47.0551 55 47.0551 55H65.7067L67.5401 51.3083C67.8617 50.6617 68.0301 49.94 68.0301 49.2183C68.0301 49.2183 68.0301 38.3333 68.0301 38.03C68.0301 36.2483 66.4301 35 65.0001 35Z" fill="black"/>
<path opacity="0.054" d="M65 35C59.5467 35 55.7867 38.84 55.4667 47.0267C50.0733 49.5067 47.235 55 47.235 55H65.5383L67.405 51.24C67.7167 50.615 67.88 49.9167 67.88 49.2183C67.88 49.2183 67.88 38.3333 67.88 37.8783C67.8783 36.1883 66.355 35 65 35Z" fill="black"/>
<path opacity="0.073" d="M65 35C59.34 35 55.8967 39.2583 55.6167 47.1317C50.3584 49.4683 47.415 55 47.415 55H65.3684L67.2684 51.1733C67.5684 50.5683 67.7267 49.895 67.7267 49.2183C67.7267 49.2183 67.7267 38.3333 67.7267 37.7283C67.7267 36.1283 66.2817 35 65 35Z" fill="black"/>
<path opacity="0.091" d="M65.0001 35C59.1334 35 56.0067 39.675 55.7667 47.235C50.6417 49.4317 47.5934 55 47.5934 55H65.2001L67.1334 51.105C67.4234 50.52 67.5767 49.87 67.5767 49.2183C67.5767 49.2183 67.5767 38.3333 67.5767 37.5767C67.5751 36.0683 66.2084 35 65.0001 35Z" fill="black"/>
<path opacity="0.109" d="M65 35C58.9267 35 56.1166 40.0917 55.9166 47.3383C50.925 49.395 47.7733 55 47.7733 55H65.03L66.9967 51.0383C67.2767 50.475 67.4233 49.8483 67.4233 49.2183C67.4233 49.2183 67.4233 38.3333 67.4233 37.425C67.425 36.0083 66.1333 35 65 35Z" fill="black"/>
<path opacity="0.127" d="M65 35C58.7217 35 56.2267 40.5083 56.0667 47.4417C51.21 49.3583 47.9534 55 47.9534 55H64.8617L66.8617 50.97C67.1317 50.4267 67.2734 49.825 67.2734 49.2183C67.2734 49.2183 67.2734 38.3333 67.2734 37.2733C67.2734 35.9483 66.06 35 65 35Z" fill="black"/>
<path opacity="0.145" d="M65 35C58.515 35 56.3367 40.9267 56.2167 47.5467C51.4934 49.32 48.1317 55 48.1317 55H64.6917L66.725 50.9033C66.985 50.38 67.12 49.8017 67.12 49.2183C67.12 49.2183 67.12 38.3333 67.12 37.1217C67.1217 35.8883 65.9867 35 65 35Z" fill="black"/>
<path opacity="0.164" d="M65 35C58.3083 35 56.4466 41.3433 56.3666 47.65C51.7766 49.2833 48.3116 55 48.3116 55H64.5216L66.59 50.835C66.84 50.3333 66.97 49.7783 66.97 49.2183C66.97 49.2183 66.97 38.3333 66.97 36.97C66.97 35.8283 65.9116 35 65 35Z" fill="black"/>
<path opacity="0.182" d="M65 35C58.1017 35 56.5567 41.76 56.5167 47.7533C52.06 49.2467 48.4917 55 48.4917 55H64.3534L66.455 50.7683C66.6934 50.2867 66.8184 49.7567 66.8184 49.2183C66.8184 49.2183 66.8184 38.3333 66.8184 36.8183C66.8184 35.7683 65.8384 35 65 35Z" fill="black"/>
<path opacity="0.2" d="M65 35C57.895 35 56.6666 42.1767 56.6666 47.8567C52.345 49.2083 48.6716 55 48.6716 55H64.185L66.32 50.7C66.5483 50.24 66.6666 49.7317 66.6666 49.2183C66.6666 49.2183 66.6666 38.3333 66.6666 36.6667C66.6666 35.7083 65.765 35 65 35Z" fill="black"/>
<path d="M65 35C57.895 35 56.6667 42.1767 56.6667 47.8567C52.345 49.2083 48.6717 55 48.6717 55H18.3334C18.3384 61.7683 21.4017 65.415 22.3684 68.3333C23.765 72.5517 26.4417 73.3333 28.22 73.3333C29.9984 73.3333 48.3334 73.3333 48.3334 73.3333C53.0334 73.3333 55.8334 70.4267 58.035 65.7183L64.1834 55L66.3184 50.7C66.5484 50.24 66.6667 49.7317 66.6667 49.2183C66.6667 49.2183 66.6667 38.3333 66.6667 36.6667C66.6667 35.7083 65.765 35 65 35Z" fill="url(#paint0_linear_90_946)"/>
<path d="M66.6667 36.7117H66.0567C64.5534 36.7117 63.3334 37.9317 63.3334 39.435V42.4283C63.3334 43.055 63.8417 43.5633 64.4684 43.5633H66.6667V36.7117Z" fill="#FFDE87"/>
<path d="M28.22 73.3333C30 73.3333 36.6667 73.3333 36.6667 73.3333L48.6717 55H18.3334C18.3384 61.7683 21.4017 65.415 22.3684 68.3333C23.765 72.5517 26.4417 73.3333 28.22 73.3333Z" fill="url(#paint1_linear_90_946)"/>
<path d="M53.3333 17.5C53.3333 15.1983 51.4683 13.3333 49.1667 13.3333C46.865 13.3333 45 15.1983 45 17.5C45 17.785 45 21.6666 45 21.6666H53.3333C53.3333 21.6666 53.3333 17.785 53.3333 17.5Z" fill="url(#paint2_linear_90_946)"/>
<path d="M36.6667 14.1667C36.6667 11.865 34.8017 10 32.5 10C30.1984 10 28.3334 11.865 28.3334 14.1667C28.3334 14.4517 28.3334 21.6667 28.3334 21.6667H36.6667C36.6667 21.6667 36.6667 14.4517 36.6667 14.1667Z" fill="url(#paint3_linear_90_946)"/>
<path d="M28.3333 20.8334C28.3333 18.5317 26.4683 16.6667 24.1667 16.6667C21.865 16.6667 20 18.5317 20 20.8334C20 21.1184 20 21.6667 20 21.6667H28.3333C28.3333 21.6667 28.3333 21.1184 28.3333 20.8334Z" fill="url(#paint4_linear_90_946)"/>
<path d="M45 10.8334C45 8.53169 43.135 6.66669 40.8333 6.66669C38.5316 6.66669 36.6666 8.53169 36.6666 10.8334C36.6666 11.1184 36.6666 21.6667 36.6666 21.6667H45C45 21.6667 45 11.1184 45 10.8334Z" fill="url(#paint5_linear_90_946)"/>
<defs>
<linearGradient id="paint0_linear_90_946" x1="36.5717" y1="33.565" x2="53.455" y2="73.9717" gradientUnits="userSpaceOnUse">
<stop stop-color="#FFCF54"/>
<stop offset="0.261" stop-color="#FDCB4D"/>
<stop offset="0.639" stop-color="#F7C13A"/>
<stop offset="1" stop-color="#F0B421"/>
</linearGradient>
<linearGradient id="paint1_linear_90_946" x1="34.1617" y1="60.44" x2="33.065" y2="52.63" gradientUnits="userSpaceOnUse">
<stop offset="0.325" stop-color="#8F6B13" stop-opacity="0"/>
<stop offset="1" stop-color="#8F6B13"/>
</linearGradient>
<linearGradient id="paint2_linear_90_946" x1="46.01" y1="14.275" x2="51.0367" y2="21.7116" gradientUnits="userSpaceOnUse">
<stop stop-color="#FFCF54"/>
<stop offset="0.261" stop-color="#FDCB4D"/>
<stop offset="0.639" stop-color="#F7C13A"/>
<stop offset="1" stop-color="#F0B421"/>
</linearGradient>
<linearGradient id="paint3_linear_90_946" x1="29.1334" y1="11.04" x2="34.915" y2="21.96" gradientUnits="userSpaceOnUse">
<stop stop-color="#FFCF54"/>
<stop offset="0.261" stop-color="#FDCB4D"/>
<stop offset="0.639" stop-color="#F7C13A"/>
<stop offset="1" stop-color="#F0B421"/>
</linearGradient>
<linearGradient id="paint4_linear_90_946" x1="21.9033" y1="16.4167" x2="24.8483" y2="22.0367" gradientUnits="userSpaceOnUse">
<stop stop-color="#FFCF54"/>
<stop offset="0.261" stop-color="#FDCB4D"/>
<stop offset="0.639" stop-color="#F7C13A"/>
<stop offset="1" stop-color="#F0B421"/>
</linearGradient>
<linearGradient id="paint5_linear_90_946" x1="36.77" y1="7.57335" x2="43.7833" y2="21.705" gradientUnits="userSpaceOnUse">
<stop stop-color="#FFCF54"/>
<stop offset="0.261" stop-color="#FDCB4D"/>
<stop offset="0.639" stop-color="#F7C13A"/>
<stop offset="1" stop-color="#F0B421"/>
</linearGradient>
</defs>
</svg>
