<svg width="144" height="144" viewBox="0 0 144 144" fill="none" xmlns="http://www.w3.org/2000/svg">
<path d="M64.287 30.222C80.901 46.806 73.233 69.768 73.233 69.768L22.11 18.741C22.11 18.741 47.67 13.638 64.287 30.222Z" fill="#21A366"/>
<path d="M22.11 18.741C22.11 18.741 15.738 42.963 33.612 60.837C49.413 76.638 69 69.906 69 83.004V93H75V76.47C75 73.281 73.731 70.224 71.475 67.974L22.11 18.741Z" fill="#33C481"/>
<path d="M102.99 129H41.01C38.109 129 35.625 126.927 35.106 124.074L30 96H114L108.894 124.074C108.375 126.927 105.891 129 102.99 129Z" fill="url(#paint0_linear_87_501)"/>
<path d="M27 96V90C27 88.344 28.344 87 30 87H114C115.656 87 117 88.344 117 90V96C117 97.656 115.656 99 114 99H30C28.344 99 27 97.656 27 96Z" fill="#D43A02"/>
<path d="M75 54C88.2548 54 99 43.2548 99 30C99 16.7452 88.2548 6 75 6C61.7452 6 51 16.7452 51 30C51 43.2548 61.7452 54 75 54Z" fill="url(#paint1_linear_87_501)"/>
<path d="M75 48C84.9411 48 93 39.9411 93 30C93 20.0589 84.9411 12 75 12C65.0589 12 57 20.0589 57 30C57 39.9411 65.0589 48 75 48Z" fill="#F5BE00"/>
<path d="M109.137 71.478C94.395 86.247 73.986 79.431 73.986 79.431L119.343 33.987C119.343 33.987 123.876 56.709 109.137 71.478Z" fill="#21A366"/>
<path d="M119.34 33.984C119.34 33.984 97.797 28.302 81.921 44.208C71.745 54.405 71.361 65.976 72.39 72.987C70.2 76.026 69 79.653 69 83.475V87H75V83.475C75 80.316 76.281 77.226 78.513 74.991L119.34 33.984Z" fill="#33C481"/>
<defs>
<linearGradient id="paint0_linear_87_501" x1="30" y1="112.5" x2="114" y2="112.5" gradientUnits="userSpaceOnUse">
<stop stop-color="#B9360C"/>
<stop offset="0.537" stop-color="#B5350C"/>
<stop offset="0.999" stop-color="#AB320B"/>
</linearGradient>
<linearGradient id="paint1_linear_87_501" x1="58.527" y1="13.527" x2="91.935" y2="46.935" gradientUnits="userSpaceOnUse">
<stop stop-color="#FEDE00"/>
<stop offset="1" stop-color="#FFD000"/>
</linearGradient>
</defs>
</svg>
