<svg width="512" height="512" viewBox="0 0 512 512" fill="none" xmlns="http://www.w3.org/2000/svg">
<rect width="512" height="512" fill="#FF8A00"/>
<path d="M124.167 97C119.5 97 116 100.501 116 105.169V406.831C116 412.083 119.5 415 124.167 415H175.5C180.75 415 183.667 412.083 183.667 406.831V281.965H328.333V406.831C328.333 411.499 331.833 415 336.5 415H387.833C393.083 415 396 411.499 396 406.831V105.169C396 99.9174 393.083 97 387.833 97H336.5C331.833 97 328.333 100.501 328.333 105.169V217.782H183.667V105.169C183.667 99.9174 180.75 97 175.5 97H124.167Z" fill="white"/>
</svg>
