<svg width="144" height="144" viewBox="0 0 144 144" fill="none" xmlns="http://www.w3.org/2000/svg">
<path d="M115.98 40.2L115.2 41.04L114.12 42.18L113.1 43.26L102.42 54.6L101.4 55.71L100.32 56.82L38.55 122.43C38.52 122.46 38.49 122.49 38.46 122.52L38.4 122.58V122.55C36.24 124.68 33.27 126 30 126C23.37 126 18 120.63 18 114C18 110.43 19.59 107.28 22.05 105.06L22.02 105.03L87.24 43.62L88.38 42.54L89.46 41.52L100.8 30.84L101.88 29.82L103.02 28.77L103.8 28.02C105.3 26.61 107.64 26.67 109.11 28.11L115.89 34.89C117.33 36.36 117.39 38.7 115.98 40.2Z" fill="url(#paint0_linear_87_557)"/>
<path d="M119.493 99.888C117.327 89.7 114.834 79.971 111.138 70.959C107.496 61.974 102.732 53.724 96.501 47.421C90.243 41.136 82.059 36.36 73.077 32.754C64.077 29.088 54.315 26.673 44.112 24.51L44.079 24.504C42.663 24.204 41.757 22.812 42.057 21.393C42.282 20.337 43.116 19.563 44.112 19.365C54.819 17.235 66.048 17.565 77.034 20.139C87.954 22.773 98.877 27.954 107.454 36.546C115.977 45.195 121.071 56.076 123.744 66.966C126.342 77.922 126.768 89.157 124.635 99.888C124.353 101.31 122.973 102.231 121.551 101.949C120.492 101.739 119.709 100.917 119.496 99.924L119.493 99.888Z" fill="url(#paint1_radial_87_557)"/>
<path opacity="0.05" d="M109.59 34.44C107.55 32.4 105.36 30.51 103.02 28.77L101.88 29.82L100.8 30.84C103.14 32.55 105.36 34.44 107.46 36.54C109.56 38.64 111.42 40.92 113.1 43.26L114.12 42.18L115.2 41.04C113.49 38.67 111.6 36.48 109.59 34.44ZM89.46 41.52L88.38 42.54L87.24 43.62C89.91 45.45 92.28 47.43 94.38 49.53C96.48 51.66 98.46 54.09 100.32 56.82L101.4 55.71L102.42 54.6C100.62 52.02 98.64 49.59 96.51 47.43C94.38 45.27 92.01 43.32 89.46 41.52Z" fill="black"/>
<path opacity="0.07" d="M108.51 35.49C106.47 33.45 104.25 31.56 101.88 29.82L100.8 30.84C103.14 32.55 105.36 34.44 107.46 36.54C109.56 38.64 111.42 40.92 113.1 43.26L114.12 42.18C112.41 39.78 110.52 37.53 108.51 35.49ZM89.46 41.52L88.38 42.54C90.99 44.43 93.36 46.38 95.43 48.48C97.53 50.58 99.51 53.01 101.4 55.71L102.42 54.6C100.62 52.02 98.64 49.59 96.51 47.43C94.38 45.27 92.01 43.32 89.46 41.52Z" fill="black"/>
<circle cx="81" cy="106" r="20" fill="#093AAA"/>
<circle cx="81" cy="106" r="17" fill="#0948D7"/>
<path d="M81 88C69.9538 88 61 97.0201 61 108.148C61 111.465 61.81 114.585 63.22 117.346C66.685 120.251 71.1388 122 76 122C87.0462 122 96 112.98 96 101.852C96 98.535 95.19 95.4145 93.78 92.6542C90.315 89.7491 85.8612 88 81 88Z" fill="url(#paint2_radial_87_557)"/>
<circle cx="73" cy="98" r="20" fill="#0948D7"/>
<path d="M73 115C82.3888 115 90 107.389 90 98C90 88.6112 82.3888 81 73 81C63.6112 81 56 88.6112 56 98C56 107.389 63.6112 115 73 115Z" fill="#1058FB"/>
<path fill-rule="evenodd" clip-rule="evenodd" d="M66.2522 90C65.5606 90 65 90.5606 65 91.2522V104.748C65 105.439 65.5606 106 66.2522 106C66.9437 106 67.5043 105.439 67.5043 104.748V99.2446C67.55 99.2497 67.5964 99.2522 67.6434 99.2522H75.5739C76.2654 99.2522 76.826 98.6916 76.826 98.0001C76.826 97.3085 76.2654 96.7479 75.5739 96.7479H67.6434C67.5964 96.7479 67.55 96.7505 67.5043 96.7555V91.2522C67.5043 90.5606 66.9437 90 66.2522 90ZM78.4956 91.2522C78.4956 90.5606 79.0563 90 79.7478 90C80.4394 90 81 90.5606 81 91.2522V104.748C81 105.439 80.4394 106 79.7478 106C79.0563 106 78.4956 105.439 78.4956 104.748V91.2522Z" fill="white"/>
<defs>
<linearGradient id="paint0_linear_87_557" x1="24.717" y1="34.701" x2="86.475" y2="96.462" gradientUnits="userSpaceOnUse">
<stop stop-color="#C26715"/>
<stop offset="0.346" stop-color="#BE6015"/>
<stop offset="0.686" stop-color="#B54E16"/>
<stop offset="0.979" stop-color="#AD3F16"/>
</linearGradient>
<radialGradient id="paint1_radial_87_557" cx="0" cy="0" r="1" gradientUnits="userSpaceOnUse" gradientTransform="translate(70.827 33.066) scale(84.75)">
<stop stop-color="#A1AAB3"/>
<stop offset="1" stop-color="#8F979E"/>
</radialGradient>
<radialGradient id="paint2_radial_87_557" cx="0" cy="0" r="1" gradientUnits="userSpaceOnUse" gradientTransform="translate(75.3087 101.142) scale(20.0575 20.2061)">
<stop/>
<stop offset="1" stop-opacity="0"/>
</radialGradient>
</defs>
</svg>
