<svg width="40" height="40" viewBox="0 0 40 40" fill="none" xmlns="http://www.w3.org/2000/svg">
<rect width="40" height="40" fill="#1058FB"/>
<path d="M12.4 20C12.4 19.2047 13.0447 18.56 13.84 18.56H22.96C23.7553 18.56 24.4 19.2047 24.4 20C24.4 20.7953 23.7553 21.44 22.96 21.44H13.84C13.0447 21.44 12.4 20.7953 12.4 20Z" fill="white"/>
<path d="M26.32 12.24C26.32 11.4447 26.9647 10.8 27.76 10.8C28.5553 10.8 29.2 11.4447 29.2 12.24V27.76C29.2 28.5553 28.5553 29.2 27.76 29.2C26.9647 29.2 26.32 28.5553 26.32 27.76V12.24Z" fill="white"/>
<path d="M10.8 12.24C10.8 11.4447 11.4447 10.8 12.24 10.8C13.0353 10.8 13.68 11.4447 13.68 12.24V27.76C13.68 28.5553 13.0353 29.2 12.24 29.2C11.4447 29.2 10.8 28.5553 10.8 27.76V12.24Z" fill="white"/>
</svg>
