<svg width="32" height="32" viewBox="0 0 32 32" fill="none" xmlns="http://www.w3.org/2000/svg">
<rect width="32" height="32" fill="#D15C22"/>
<path d="M9.84615 8C8.83381 8 8 8.83381 8 9.84615V11.6923H9.23077V9.84615C9.23077 9.49973 9.49973 9.23077 9.84615 9.23077H22.1538C22.5003 9.23077 22.7692 9.49973 22.7692 9.84615V11.6923H24V9.84615C24 8.83381 23.1662 8 22.1538 8H9.84615ZM12.3077 12.9231C11.2953 12.9231 10.4615 13.7569 10.4615 14.7692V19.0769H11.6923V17.8462H12.9231V19.0769H14.1538V14.7692C14.1538 13.7569 13.32 12.9231 12.3077 12.9231ZM15.3846 12.9231V19.0769H16.6154V16.6154H17.2308C18.2431 16.6154 19.0769 15.7816 19.0769 14.7692C19.0769 13.7569 18.2431 12.9231 17.2308 12.9231H16.6154H15.8462H15.3846ZM20.3077 12.9231V19.0769H21.5385V12.9231H20.3077ZM12.3077 14.1538C12.6541 14.1538 12.9231 14.4228 12.9231 14.7692V16.6154H11.6923V14.7692C11.6923 14.4228 11.9613 14.1538 12.3077 14.1538ZM16.6154 14.1538H17.2308C17.5772 14.1538 17.8462 14.4228 17.8462 14.7692C17.8462 15.1157 17.5772 15.3846 17.2308 15.3846H16.6154V14.1538ZM8 20.3077V22.1538C8 23.1662 8.83381 24 9.84615 24H22.1538C23.1662 24 24 23.1662 24 22.1538V20.3077H22.7692V22.1538C22.7692 22.5003 22.5003 22.7692 22.1538 22.7692H9.84615C9.49973 22.7692 9.23077 22.5003 9.23077 22.1538V20.3077H8Z" fill="white"/>
</svg>
