<svg width="32" height="32" viewBox="0 0 32 32" fill="none" xmlns="http://www.w3.org/2000/svg">
<rect width="32" height="32" fill="#D15C22"/>
<path d="M9.71429 9C8.77232 9 8 9.78841 8 10.75V21.25C8 22.2116 8.77232 23 9.71429 23H22.2857C23.2277 23 24 22.2116 24 21.25V10.75C24 9.78841 23.2277 9 22.2857 9H9.71429ZM9.71429 10.1667H22.2857C22.6071 10.1667 22.8571 10.4219 22.8571 10.75V11.3333H9.14286V10.75C9.14286 10.4219 9.39286 10.1667 9.71429 10.1667ZM9.14286 12.5H22.8571V21.25C22.8571 21.5781 22.6071 21.8333 22.2857 21.8333H9.71429C9.39286 21.8333 9.14286 21.5781 9.14286 21.25V12.5ZM12.183 14.4232L11.375 15.2435L13.2589 17.1667L11.375 19.0853L12.183 19.9147L14.875 17.1667L12.183 14.4232ZM16 18.3333V19.5H20.5714V18.3333H16Z" fill="white"/>
</svg>
