<svg width="32" height="32" viewBox="0 0 32 32" fill="none" xmlns="http://www.w3.org/2000/svg">
<rect width="32" height="32" fill="#D15C22"/>
<path d="M11.1 8C9.94609 8 9 8.90104 9 10V22C9 23.099 9.94609 24 11.1 24H20.9C22.0539 24 23 23.099 23 22V12.3906L18.3898 8H11.1ZM11.1 9.33333H17.4V13.3333H21.6V22C21.6 22.375 21.2937 22.6667 20.9 22.6667H11.1C10.7062 22.6667 10.4 22.375 10.4 22V10C10.4 9.625 10.7062 9.33333 11.1 9.33333ZM18.8 10.276L20.6102 12H18.8V10.276ZM13.2 16V17.3333H18.8V16H13.2ZM13.2 18.6667V20H17.4V18.6667H13.2Z" fill="white"/>
</svg>
