<svg width="32" height="32" viewBox="0 0 32 32" fill="none" xmlns="http://www.w3.org/2000/svg">
<rect width="32" height="32" fill="#D15C22"/>
<path d="M15.9898 8C15.9466 8 15.9034 8.0048 15.8601 8.01921C11.5621 8.09124 8.08524 11.5726 8.01801 15.8703C7.994 15.9568 7.994 16.0528 8.01801 16.1393C8.09004 20.437 11.5717 23.9136 15.8697 23.9856C15.9562 24.0048 16.0522 24.0048 16.1387 23.9856C20.4367 23.9088 23.9136 20.4274 23.9856 16.1297C24.0048 16.0432 24.0048 15.9472 23.9856 15.8607C23.9088 11.5678 20.4367 8.09124 16.1435 8.01921C16.0906 8.0048 16.0426 8 15.9898 8ZM15.3847 9.26771V10.4682C15.3799 10.6891 15.5 10.8956 15.6873 11.006C15.8793 11.1212 16.1195 11.1212 16.3115 11.006C16.4988 10.8956 16.6189 10.6891 16.6141 10.4682V9.26771C19.8604 9.56062 22.4393 12.1393 22.7274 15.3854H21.5316C21.3107 15.3806 21.1042 15.5006 20.9938 15.6879C20.8785 15.88 20.8785 16.12 20.9938 16.3121C21.1042 16.4994 21.3107 16.6194 21.5316 16.6146H22.7274C22.4393 19.8607 19.8604 22.4394 16.6141 22.7275V21.5318C16.6189 21.3637 16.5517 21.2053 16.4364 21.0852C16.3164 20.97 16.1579 20.9028 15.9898 20.9076C15.6488 20.9124 15.3799 21.1909 15.3847 21.5318V22.7275C12.1384 22.4394 9.55954 19.8607 9.2666 16.6146H10.4672C10.6881 16.6194 10.8946 16.4994 11.005 16.3121C11.1203 16.12 11.1203 15.88 11.005 15.6879C10.8946 15.5006 10.6881 15.3806 10.4672 15.3854H9.2666C9.55954 12.1393 12.1384 9.56062 15.3847 9.26771ZM19.0729 12.9268L14.77 14.7707L12.9259 19.0732L17.2288 17.2293L19.0729 12.9268Z" fill="white"/>
</svg>
