<svg width="30" height="30" viewBox="0 0 30 30" fill="none" xmlns="http://www.w3.org/2000/svg">
<g clip-path="url(#clip0_136_225)">
<rect x="-1" y="-2" width="32" height="32" fill="white"/>
<path d="M15 3C8.373 3 3 8.45713 3 15.1879C3 20.8989 6.872 25.6776 12.092 27C12.036 26.8355 12 26.6445 12 26.4079V24.3248C11.513 24.3248 10.697 24.3248 10.492 24.3248C9.671 24.3248 8.941 23.9662 8.587 23.3C8.194 22.5595 8.126 21.4271 7.152 20.7344C6.863 20.5039 7.083 20.2408 7.416 20.2763C8.031 20.4531 8.541 20.8817 9.021 21.5175C9.499 22.1543 9.724 22.2985 10.617 22.2985C11.05 22.2985 11.698 22.2731 12.308 22.1756C12.636 21.3296 13.203 20.5506 13.896 20.1829C9.9 19.7655 7.993 17.7463 7.993 15.0051C7.993 13.8249 8.488 12.6833 9.329 11.7215C9.053 10.7667 8.706 8.81972 9.435 8.07829C11.233 8.07829 12.32 9.26255 12.581 9.58248C13.477 9.27067 14.461 9.09395 15.495 9.09395C16.531 9.09395 17.519 9.27067 18.417 9.58451C18.675 9.26661 19.763 8.07829 21.565 8.07829C22.297 8.82074 21.946 10.7759 21.667 11.7286C22.503 12.6884 22.995 13.8269 22.995 15.0051C22.995 17.7443 21.091 19.7624 17.101 20.1819C18.199 20.7639 19 22.3991 19 23.6311V26.4079C19 26.5135 18.977 26.5897 18.965 26.6801C23.641 25.0154 27 20.5059 27 15.1879C27 8.45713 21.627 3 15 3Z" fill="black"/>
</g>
<defs>
<clipPath id="clip0_136_225">
<rect width="30" height="30" fill="white"/>
</clipPath>
</defs>
</svg>
