<svg width="32" height="32" viewBox="0 0 32 32" fill="none" xmlns="http://www.w3.org/2000/svg">
<rect width="32" height="32" fill="#D15C22"/>
<path d="M20.3636 7C19.9602 7 19.6364 7.30829 19.6364 7.69231V24.3077C19.6364 24.6917 19.9602 25 20.3636 25H23.2727C23.6761 25 24 24.6917 24 24.3077V7.69231C24 7.30829 23.6761 7 23.2727 7H20.3636ZM21.0909 8.38462H22.5455V23.6154H21.0909V8.38462ZM14.5455 12.5385C14.142 12.5385 13.8182 12.8468 13.8182 13.2308V24.3077C13.8182 24.6917 14.142 25 14.5455 25H17.4545C17.858 25 18.1818 24.6917 18.1818 24.3077V13.2308C18.1818 12.8468 17.858 12.5385 17.4545 12.5385H14.5455ZM8.72727 16.6923C8.32386 16.6923 8 17.0006 8 17.3846V24.3077C8 24.6917 8.32386 25 8.72727 25H11.6364C12.0398 25 12.3636 24.6917 12.3636 24.3077V17.3846C12.3636 17.0006 12.0398 16.6923 11.6364 16.6923H8.72727Z" fill="white"/>
</svg>
