<svg width="32" height="32" viewBox="0 0 32 32" fill="none" xmlns="http://www.w3.org/2000/svg">
<rect width="32" height="32" fill="#D15C22"/>
<path d="M11 10V12H10.5C9.67747 12 9 12.6775 9 13.5V20.5C9 21.3225 9.67747 22 10.5 22H21.5C22.3225 22 23 21.3225 23 20.5V13.5C23 12.6775 22.3225 12 21.5 12H21V10H17V12H15V10H11ZM12 11H14V12H12V11ZM18 11H20V12H18V11ZM10.5 13H21.5C21.7815 13 22 13.2185 22 13.5V20.5C22 20.7815 21.7815 21 21.5 21H10.5C10.2185 21 10 20.7815 10 20.5V13.5C10 13.2185 10.2185 13 10.5 13Z" fill="white"/>
</svg>
