<svg width="32" height="32" viewBox="0 0 32 32" fill="none" xmlns="http://www.w3.org/2000/svg">
<rect width="32" height="32" fill="#D15C22"/>
<path d="M10.5 11C9.67747 11 9 11.6775 9 12.5V17.5C9 18.3225 9.67747 19 10.5 19H16.0508C16.032 19.1665 16 19.3286 16 19.5C16 21.9794 18.0206 24 20.5 24C22.9794 24 25 21.9794 25 19.5C25 18.4404 24.6162 17.4772 24 16.707V12.5C24 11.6775 23.3225 11 22.5 11H10.5ZM10.5 12H22.5C22.7815 12 23 12.2185 23 12.5V15.7617C22.6829 15.5488 22.3297 15.3931 21.9629 15.2656C21.9871 15.1792 21.9996 15.0898 22 15C22 14.7348 21.8946 14.4804 21.7071 14.2929C21.5196 14.1054 21.2652 14 21 14C20.7348 14 20.4804 14.1054 20.2929 14.2929C20.1054 14.4804 20 14.7348 20 15C20.0002 15.0169 20.0009 15.0339 20.002 15.0508C19.6393 15.0916 19.2886 15.1669 18.957 15.2891C18.9854 15.1953 18.9999 15.0979 19 15C19 14.7348 18.8946 14.4804 18.7071 14.2929C18.5196 14.1054 18.2652 14 18 14C17.7348 14 17.4804 14.1054 17.2929 14.2929C17.1054 14.4804 17 14.7348 17 15C17.0002 15.2212 17.0737 15.4361 17.2091 15.611C17.3445 15.7859 17.534 15.9111 17.748 15.9668C17.08 16.4887 16.5655 17.1873 16.2754 18H10.5C10.2185 18 10 17.7815 10 17.5V12.5C10 12.2185 10.2185 12 10.5 12ZM12 14C11.7348 14 11.4804 14.1054 11.2929 14.2929C11.1054 14.4804 11 14.7348 11 15C11 15.2652 11.1054 15.5196 11.2929 15.7071C11.4804 15.8946 11.7348 16 12 16C12.2652 16 12.5196 15.8946 12.7071 15.7071C12.8946 15.5196 13 15.2652 13 15C13 14.7348 12.8946 14.4804 12.7071 14.2929C12.5196 14.1054 12.2652 14 12 14ZM15 14C14.7348 14 14.4804 14.1054 14.2929 14.2929C14.1054 14.4804 14 14.7348 14 15C14 15.2652 14.1054 15.5196 14.2929 15.7071C14.4804 15.8946 14.7348 16 15 16C15.2652 16 15.5196 15.8946 15.7071 15.7071C15.8946 15.5196 16 15.2652 16 15C16 14.7348 15.8946 14.4804 15.7071 14.2929C15.5196 14.1054 15.2652 14 15 14ZM20.5 16C22.4389 16 24 17.5611 24 19.5C24 21.4389 22.4389 23 20.5 23C18.5611 23 17 21.4389 17 19.5C17 17.5611 18.5611 16 20.5 16ZM22.002 17.8613L20.1602 19.7031L19.0137 18.5566L18.3066 19.2637L20.1602 21.1172L22.709 18.5684L22.002 17.8613Z" fill="white"/>
</svg>
