<svg width="32" height="32" viewBox="0 0 32 32" fill="none" xmlns="http://www.w3.org/2000/svg">
<rect width="32" height="32" fill="#D15C22"/>
<path d="M10.5455 8V20H8V22C8 22.5498 8.18499 23.0725 8.53693 23.4401C8.88887 23.8078 9.38732 24 9.90909 24H20.0909C20.6127 24 21.1111 23.8078 21.4631 23.4401C21.815 23.0725 22 22.5498 22 22V8H10.5455ZM11.8182 9.33333H20.7273V22C20.7273 22.2542 20.657 22.3968 20.5632 22.4948C20.4694 22.5928 20.3315 22.6667 20.0909 22.6667C19.6983 22.6667 19.4545 22.3418 19.4545 21.8333V20H11.8182V9.33333ZM9.27273 21.3333H18.1818V21.8333C18.1818 22.1399 18.366 22.3876 18.4776 22.6667H9.90909C9.6685 22.6667 9.53062 22.5928 9.43679 22.4948C9.34296 22.3968 9.27273 22.2542 9.27273 22V21.3333Z" fill="white"/>
</svg>
