<svg width="333" height="318" viewBox="0 0 333 318" fill="none" xmlns="http://www.w3.org/2000/svg">
<path fill-rule="evenodd" clip-rule="evenodd" d="M141.433 0.00226654C175.624 -0.214908 205.801 15.201 233.69 34.9638C269.561 60.3833 317.707 83.3107 320.841 127.137C324.028 171.703 278.548 200.97 247.887 233.495C215.665 267.677 188.223 313.048 141.433 317.457C92.192 322.097 40.4305 296.636 12.807 255.647C-12.0868 218.708 5.66699 171.033 13.1726 127.137C18.9134 93.5626 26.1401 60.1177 50.3417 36.1284C74.4506 12.2311 107.472 0.217977 141.433 0.00226654Z" fill="url(#paint0_linear_87_190)"/>
<path d="M265.96 316.861L157.972 288.111L215.472 72.1343L323.461 100.884C330.09 102.649 334.03 109.448 332.265 116.078L281.154 308.057C279.389 314.686 272.59 318.626 265.96 316.861Z" fill="#35C1F1"/>
<path d="M176.19 37.4169C175.458 36.7657 174.596 36.3114 173.678 36.067L116.178 252.044C117.096 252.288 117.958 252.742 118.69 253.394L157.972 288.111L215.472 72.1343L176.19 37.4169Z" fill="#199BE2"/>
<path d="M170.827 35.989L127.001 45.0276C122.392 45.9784 118.718 49.4523 117.508 53.9939L64.5666 252.848C63.3799 257.306 67.2983 261.459 71.8198 260.523L113.328 251.96C114.286 251.765 115.261 251.793 116.179 252.038L173.679 36.061C172.76 35.8226 171.786 35.7882 170.827 35.989Z" fill="#50E6FF"/>
<path d="M241.495 143.309C264.647 149.472 278.474 173.333 272.31 196.485C266.147 219.636 242.286 233.463 219.134 227.299L201.136 222.508C197.819 221.625 194.423 223.592 193.54 226.91C192.656 230.228 194.624 233.623 197.942 234.507L215.94 239.298C245.715 247.225 276.382 229.454 284.309 199.679C292.236 169.904 274.465 139.237 244.69 131.31L204.11 120.506L202.883 119.421L199.5 132.128L241.495 143.309Z" fill="#1A7ECF"/>
<path d="M157.706 96.0606L198.084 131.751L199.5 132.128L202.883 119.421L161.277 82.646L157.706 96.0606Z" fill="#235199"/>
<path d="M274.317 213.08C282.6 215.286 291.103 210.358 293.308 202.075C295.513 193.792 290.586 185.289 282.303 183.083C274.019 180.878 265.517 185.805 263.311 194.089C261.106 202.372 266.033 210.875 274.317 213.08Z" fill="url(#paint1_linear_87_190)"/>
<path d="M195.546 243.506C203.829 245.711 212.332 240.784 214.537 232.5C216.743 224.217 211.815 215.714 203.532 213.509C195.249 211.303 186.746 216.231 184.541 224.514C182.335 232.797 187.262 241.3 195.546 243.506Z" fill="url(#paint2_linear_87_190)"/>
<path d="M193.457 119.424C191.066 128.405 184.411 131.445 178.588 126.214C172.766 120.982 169.989 109.456 172.381 100.469C174.774 91.4818 181.428 88.4478 187.25 93.6791C193.072 98.9104 195.848 110.443 193.457 119.424Z" fill="url(#paint3_linear_87_190)"/>
<path d="M120.484 91.0787L116.911 104.499L157.706 96.0606L161.277 82.646L120.484 91.0787Z" fill="#199BE2"/>
<defs>
<linearGradient id="paint0_linear_87_190" x1="127.421" y1="-84.6906" x2="383.269" y2="246.362" gradientUnits="userSpaceOnUse">
<stop stop-color="#540B8D"/>
<stop offset="1" stop-color="#080E1E" stop-opacity="0"/>
</linearGradient>
<linearGradient id="paint1_linear_87_190" x1="64.3521" y1="176.57" x2="332.686" y2="176.57" gradientUnits="userSpaceOnUse">
<stop stop-color="#C965EB"/>
<stop offset="1" stop-color="#C767E5"/>
</linearGradient>
<linearGradient id="paint2_linear_87_190" x1="64.3521" y1="176.57" x2="332.686" y2="176.57" gradientUnits="userSpaceOnUse">
<stop stop-color="#C965EB"/>
<stop offset="1" stop-color="#C767E5"/>
</linearGradient>
<linearGradient id="paint3_linear_87_190" x1="64.2861" y1="176.597" x2="332.752" y2="176.597" gradientUnits="userSpaceOnUse">
<stop stop-color="#AE4CD5"/>
<stop offset="1" stop-color="#AC4AD5"/>
</linearGradient>
</defs>
</svg>
