<svg width="100" height="100" viewBox="0 0 100 100" fill="none" xmlns="http://www.w3.org/2000/svg">
<g clip-path="url(#clip0_2_7)">
<path d="M100 0H0V100H100V0Z" fill="black"/>
<path fill-rule="evenodd" clip-rule="evenodd" d="M18.75 47.2539C18.75 37.1207 26.8988 28.9062 36.9508 28.9062C47.0027 28.9062 55.1516 37.1207 55.1516 47.2539V67.9688H44.5836V47.2539C44.5836 43.0043 41.166 39.5598 36.9508 39.5598C32.7354 39.5598 29.3182 43.0043 29.3182 47.2539V67.9688H18.75V47.2539Z" fill="#42DF81"/>
<path fill-rule="evenodd" clip-rule="evenodd" d="M44.8484 47.2539C44.8484 37.1207 52.9973 28.9062 63.0492 28.9062C73.1012 28.9062 81.25 37.1207 81.25 47.2539V67.9688H70.6817V47.2539C70.6817 43.0043 67.2645 39.5598 63.0492 39.5598C58.834 39.5598 55.4164 43.0043 55.4164 47.2539V67.9688H44.8484V47.2539Z" fill="#42DF81"/>
</g>
<defs>
<clipPath id="clip0_2_7">
<rect width="100" height="100" fill="white"/>
</clipPath>
</defs>
</svg>
