<svg width="24" height="24" viewBox="0 0 24 24" fill="none" xmlns="http://www.w3.org/2000/svg">
<path d="M22 12C22 17.5225 17.5225 22 12 22C6.4775 22 2 17.5225 2 12C2 6.4775 6.4775 2 12 2C17.5225 2 22 6.4775 22 12Z" fill="url(#paint0_linear_87_304)"/>
<path opacity="0.05" d="M16.596 14.475L14.1215 12L16.5965 9.52497C16.987 9.13447 16.987 8.50147 16.5965 8.11097L15.8895 7.40397C15.499 7.01347 14.866 7.01347 14.4755 7.40397L12 9.87847L9.52496 7.40347C9.13446 7.01297 8.50146 7.01297 8.11096 7.40347L7.40396 8.11047C7.01346 8.50097 7.01346 9.13397 7.40396 9.52447L9.87896 11.9995L7.40396 14.4745C7.01346 14.865 7.01346 15.498 7.40396 15.8885L8.11096 16.5955C8.50146 16.986 9.13446 16.986 9.52496 16.5955L12 14.1205L14.475 16.5955C14.8655 16.986 15.4985 16.986 15.889 16.5955L16.596 15.8885C16.9865 15.4985 16.9865 14.8655 16.596 14.475Z" fill="black"/>
<path opacity="0.07" d="M16.4195 14.6515L13.768 12L16.4195 9.34847C16.7125 9.05547 16.7125 8.58047 16.4195 8.28797L15.7125 7.58097C15.4195 7.28797 14.9445 7.28797 14.652 7.58097L12 10.232L9.34847 7.58047C9.05547 7.28747 8.58047 7.28747 8.28797 7.58047L7.58097 8.28747C7.28797 8.58047 7.28797 9.05547 7.58097 9.34797L10.232 12L7.58047 14.6515C7.28747 14.9445 7.28747 15.4195 7.58047 15.712L8.28747 16.419C8.58047 16.712 9.05547 16.712 9.34797 16.419L12 13.768L14.6515 16.4195C14.9445 16.7125 15.4195 16.7125 15.712 16.4195L16.419 15.7125C16.7125 15.4195 16.7125 14.9445 16.4195 14.6515Z" fill="black"/>
<path d="M15.5355 7.75746L16.2425 8.46446C16.438 8.65996 16.438 8.97646 16.2425 9.17146L9.17146 16.2425C8.97596 16.438 8.65946 16.438 8.46446 16.2425L7.75746 15.5355C7.56196 15.34 7.56196 15.0235 7.75746 14.8285L14.8285 7.75746C15.0235 7.56196 15.3405 7.56196 15.5355 7.75746Z" fill="white"/>
<path d="M16.2425 15.5355L15.5355 16.2425C15.34 16.438 15.0235 16.438 14.8285 16.2425L7.75746 9.17146C7.56196 8.97596 7.56196 8.65946 7.75746 8.46446L8.46446 7.75746C8.65996 7.56196 8.97646 7.56196 9.17146 7.75746L16.2425 14.8285C16.438 15.0235 16.438 15.3405 16.2425 15.5355Z" fill="white"/>
<defs>
<linearGradient id="paint0_linear_87_304" x1="4.929" y1="4.929" x2="19.071" y2="19.071" gradientUnits="userSpaceOnUse">
<stop stop-color="#F44F5A"/>
<stop offset="0.443" stop-color="#EE3D4A"/>
<stop offset="1" stop-color="#E52030"/>
</linearGradient>
</defs>
</svg>
