<svg width="144" height="144" viewBox="0 0 144 144" fill="none" xmlns="http://www.w3.org/2000/svg">
<path d="M123.666 46.476L37.557 110.676C36.426 111.519 34.821 111.288 33.978 110.154L6.61804 73.458C5.68804 72.21 5.94604 70.446 7.19104 69.516L93.093 5.47199C94.224 4.62899 95.829 4.85999 96.672 5.99399L124.188 42.897C125.031 44.028 124.797 45.63 123.666 46.476Z" fill="#52BF8D"/>
<path d="M15.186 63.558L45.759 104.562L115.464 52.59L84.891 11.586L15.186 63.558ZM65.775 80.07C57.849 85.98 46.632 84.345 40.722 76.419C34.812 68.493 36.447 57.276 44.373 51.366C52.299 45.456 63.516 47.091 69.426 55.017C75.336 62.943 73.701 74.16 65.775 80.07ZM103.701 51.789C102.003 53.055 99.6 52.704 98.334 51.006C97.068 49.308 97.419 46.905 99.117 45.639C100.815 44.373 103.218 44.724 104.484 46.422C105.75 48.12 105.402 50.523 103.701 51.789ZM95.502 57.903C93.804 59.169 91.401 58.818 90.135 57.12C88.869 55.422 89.22 53.019 90.918 51.753C92.616 50.487 95.019 50.838 96.285 52.536C97.551 54.234 97.2 56.637 95.502 57.903Z" fill="#107C42"/>
<path d="M136.143 82.998L26.2139 121.551C24.7679 122.058 23.1869 121.296 22.6799 119.853L6.18588 72.825C5.66388 71.334 6.44688 69.699 7.94088 69.177L117.786 30.654C119.232 30.147 120.813 30.909 121.32 32.352L137.841 79.464C138.351 80.91 137.589 82.491 136.143 82.998Z" fill="#59D19A"/>
<path d="M18.3269 65.532L36.6839 117.879L125.673 86.67L107.316 34.323L18.3269 65.532ZM65.3399 99.012C55.2209 102.561 44.1419 97.236 40.5929 87.117C37.0439 76.998 42.3689 65.919 52.4879 62.37C62.6069 58.821 73.6859 64.146 77.2349 74.265C80.7839 84.384 75.4559 95.463 65.3399 99.012ZM113.76 82.032C111.591 82.791 109.218 81.651 108.456 79.482C107.697 77.313 108.837 74.94 111.006 74.178C113.175 73.416 115.548 74.559 116.31 76.728C117.069 78.897 115.929 81.27 113.76 82.032ZM103.29 85.704C101.121 86.463 98.7479 85.323 97.9859 83.154C97.2269 80.985 98.3669 78.612 100.536 77.85C102.705 77.088 105.078 78.231 105.84 80.4C106.599 82.569 105.459 84.942 103.29 85.704Z" fill="#21A366"/>
<path opacity="0.05" d="M132 66H11.901C7.632 69.243 6.021 70.287 6 71.919V84H138V72C138 68.685 135.315 66 132 66Z" fill="black"/>
<path opacity="0.07" d="M133.5 67.5H10.452C7.488 69.123 6.009 70.314 6 71.961V82.5H138V72C138 69.516 135.984 67.5 133.5 67.5Z" fill="black"/>
<path d="M135 129H9C7.344 129 6 127.656 6 126V72C6 70.344 7.344 69 9 69H135C136.656 69 138 70.344 138 72V126C138 127.656 136.656 129 135 129Z" fill="#61E3A7"/>
<path d="M21 69V129H123V69H21ZM57 120C45.402 120 36 110.598 36 99C36 87.402 45.402 78 57 78C68.598 78 78 87.402 78 99C78 110.598 68.598 120 57 120ZM112.5 120C110.016 120 108 117.984 108 115.5C108 113.016 110.016 111 112.5 111C114.984 111 117 113.016 117 115.5C117 117.984 114.984 120 112.5 120ZM100.5 120C98.016 120 96 117.984 96 115.5C96 113.016 98.016 111 100.5 111C102.984 111 105 113.016 105 115.5C105 117.984 102.984 120 100.5 120Z" fill="#33C481"/>
</svg>
