<svg width="129" height="129" viewBox="0 0 129 129" fill="none" xmlns="http://www.w3.org/2000/svg">
<rect width="129" height="129" fill="white"/>
<path fill-rule="evenodd" clip-rule="evenodd" d="M94.8253 63.6923C94.8253 46.9046 81.2159 33.2952 64.4282 33.2952C47.6404 33.2952 34.031 46.9046 34.031 63.6923C34.031 80.4801 47.6404 94.0895 64.4282 94.0895C81.2159 94.0895 94.8253 80.4801 94.8253 63.6923" fill="#FFFF00"/>
<path fill-rule="evenodd" clip-rule="evenodd" d="M36.2448 33.6043C35.646 33.8238 35.0697 34.0445 34.5177 34.2646C33.9675 34.4846 33.441 34.7047 32.9394 34.9242C32.4391 35.1431 31.9649 35.3619 31.5169 35.5796C31.0694 35.7966 30.6487 36.013 30.2554 36.2276C29.186 37.9542 28.2455 39.7975 27.4467 41.7417C26.6448 43.6926 25.9864 45.7456 25.483 47.8825C24.9778 50.0267 24.6289 52.2548 24.4477 54.5504C24.2665 56.8515 24.2544 59.2194 24.424 61.6354C24.6884 61.5089 24.9632 61.3819 25.2484 61.2536C25.5335 61.1253 25.8277 60.9958 26.1317 60.8657C26.4357 60.7356 26.75 60.6055 27.0728 60.4736C27.3962 60.3423 27.7288 60.2104 28.0704 60.0772C28.0285 59.5611 27.995 59.048 27.9683 58.5367C27.9415 58.0254 27.9221 57.5178 27.9099 57.0126C27.8984 56.5074 27.8935 56.0058 27.8966 55.5067C27.8984 55.0082 27.9081 54.5121 27.9251 54.0197C28.2054 53.9072 28.4917 53.7941 28.7848 53.6811C29.0772 53.568 29.3763 53.4549 29.6809 53.3412C29.9861 53.2275 30.2979 53.1132 30.6147 52.9996C30.932 52.8853 31.2554 52.771 31.5843 52.6561C40.0262 49.1665 42.81 35.644 38.5769 33.5697C37.6729 33.1265 36.6357 33.4736 36.2448 33.6043M33.3595 45.6738C30.4019 46.7225 30.225 46.7852 28.5981 47.4496C28.71 46.8083 28.8352 46.1748 28.972 45.5492C29.1094 44.9249 29.2595 44.3084 29.4213 43.7011C29.5836 43.0943 29.7574 42.4961 29.9441 41.9082C30.1301 41.3198 30.3283 40.7416 30.5374 40.1726C30.7776 40.0698 31.022 39.9671 31.2718 39.8643C31.5217 39.761 31.777 39.6582 32.0372 39.5549C32.2974 39.4522 32.5625 39.3488 32.8336 39.2455C33.1036 39.1421 33.379 39.0381 33.6598 38.9354C36.1299 38.3317 35.8922 41.8292 33.9115 44.8799C33.7535 45.1231 33.5899 45.4975 33.3595 45.6738" fill="black"/>
<path fill-rule="evenodd" clip-rule="evenodd" d="M60.4569 27.6572C60.2405 27.6919 60.0228 27.7265 59.8052 27.7618C59.5863 27.7977 59.3681 27.8335 59.1498 27.87C58.9304 27.9065 58.7109 27.9436 58.4914 27.9813C58.2707 28.019 58.0507 28.0566 57.83 28.0956C57.602 28.1357 57.3746 28.1758 57.1479 28.2159C56.9217 28.2567 56.6956 28.298 56.4694 28.3393C56.2439 28.3807 56.0195 28.4226 55.7952 28.4646C55.5709 28.5065 55.3477 28.5491 55.1246 28.5922C55.2614 29.985 55.4353 31.531 55.6444 33.2175C55.8548 34.9142 56.101 36.7527 56.3819 38.7188C56.6639 40.6946 56.9807 42.7974 57.3309 45.0134C57.6835 47.2379 58.0683 49.573 58.4853 52.0053C58.793 51.947 59.1006 51.8886 59.4094 51.8309C59.7183 51.7725 60.0283 51.7154 60.339 51.6582C60.649 51.6005 60.9609 51.5439 61.2734 51.4874C61.5846 51.4308 61.8983 51.3749 62.212 51.3196C62.5166 51.2655 62.82 51.212 63.1227 51.1597C63.4255 51.1068 63.7276 51.0545 64.0292 51.0035C64.3307 50.9518 64.6316 50.9007 64.9314 50.8509C65.2317 50.8004 65.5308 50.7512 65.8287 50.7019C65.3594 48.2805 64.8894 45.9618 64.4213 43.7598C63.9556 41.5651 63.4924 39.4896 63.0376 37.546C62.5847 35.6109 62.1403 33.8096 61.7074 32.153C61.277 30.5054 60.8588 29.0026 60.4569 27.6572" fill="black"/>
<path fill-rule="evenodd" clip-rule="evenodd" d="M87.245 26.7247C87.0674 26.6809 86.8832 26.6389 86.6929 26.5988C86.5014 26.5593 86.3039 26.521 86.0996 26.4845C85.8953 26.4487 85.6844 26.4146 85.4667 26.3824C85.2497 26.3502 85.0254 26.3198 84.795 26.2912C85.7695 27.0651 86.7148 27.8986 87.6255 28.7892C88.5387 29.6823 89.4178 30.6325 90.2585 31.6375C91.1005 32.6442 91.9042 33.7063 92.666 34.82C93.429 35.9362 94.1488 37.1047 94.8224 38.323C91.3328 35.0194 86.9902 30.9085 77.8103 26C77.4832 26.0055 77.1513 26.0134 76.8145 26.0225C76.4765 26.0322 76.1348 26.0438 75.7871 26.0578C75.4399 26.0717 75.0879 26.0875 74.7311 26.1058C74.3742 26.124 74.0131 26.1441 73.6477 26.1666C74.6952 27.4275 75.7086 28.8482 76.6771 30.4185C77.6504 31.9961 78.5769 33.7239 79.4463 35.5897C80.3187 37.4634 81.1321 39.4744 81.8756 41.6108C82.6216 43.7544 83.2952 46.022 83.8867 48.4003C84.3834 48.3583 84.874 48.3182 85.3579 48.2811C85.8412 48.244 86.3185 48.2094 86.7884 48.1778C87.2577 48.1455 87.721 48.1164 88.1769 48.0896C88.6323 48.0629 89.0816 48.0391 89.5223 48.0173C89.1472 46.605 88.7338 45.2323 88.2845 43.9027C87.8359 42.575 87.352 41.2898 86.8346 40.0502C86.3191 38.813 85.7707 37.622 85.1932 36.4785C84.6168 35.338 84.0113 34.2461 83.3797 33.2047C87.3532 36.1332 93.3572 40.559 98.8348 48.013C99.1375 48.0337 99.4318 48.0568 99.7163 48.0823C100 48.1078 100.276 48.1364 100.542 48.1668C100.808 48.1972 101.064 48.23 101.312 48.2653C101.558 48.3006 101.796 48.3383 102.024 48.379C101.33 46.0834 100.477 43.8936 99.4816 41.8205C98.4883 39.7523 97.3538 37.8014 96.0954 35.9794C94.84 34.1622 93.4624 32.474 91.9784 30.9262C90.4999 29.382 88.9156 27.9782 87.245 26.7247" fill="black"/>
<path fill-rule="evenodd" clip-rule="evenodd" d="M34.4008 68.7892C33.028 69.2227 29.3834 70.3741 26.2094 71.7748C26.8684 74.1634 27.6879 76.4803 28.6521 78.7084C29.6163 80.9365 30.7233 83.0753 31.9568 85.1082C33.1898 87.1394 34.5473 89.0641 36.013 90.8673C37.4764 92.668 39.0461 94.3465 40.7045 95.8889C40.9118 95.8159 41.1264 95.7418 41.3477 95.667C41.5696 95.5922 41.7976 95.5168 42.0329 95.4402C42.2682 95.3636 42.5107 95.2864 42.7594 95.2092C43.008 95.1308 43.2634 95.0524 43.526 94.9727C43.2007 94.6341 42.8785 94.29 42.5606 93.9398C42.242 93.589 41.9277 93.2328 41.6171 92.8698C41.3058 92.5075 40.9994 92.1397 40.6954 91.7652C40.392 91.3913 40.0923 91.012 39.7975 90.6265C40.0413 90.5499 40.2905 90.4727 40.5446 90.3949C40.7988 90.3171 41.0584 90.2387 41.3228 90.1602C41.5873 90.0812 41.8572 90.0022 42.1314 89.9225C42.4056 89.8429 42.6852 89.7626 42.9691 89.6824C50.6857 86.8853 46.097 72.1505 38.4478 69.0567C36.4228 68.2378 34.9005 68.653 34.4008 68.7892M35.9845 84.9524C35.6276 84.342 35.2787 83.7226 34.9413 83.0939C34.6026 82.4653 34.2749 81.827 33.9576 81.1807C33.6409 80.5345 33.3339 79.8797 33.039 79.2165C32.7429 78.5538 32.459 77.8827 32.1854 77.2042C32.4694 77.1051 32.7587 77.0066 33.0542 76.9069C33.3497 76.8072 33.6524 76.7069 33.9594 76.6066C34.2677 76.5057 34.582 76.4047 34.9017 76.3032C35.2221 76.2017 35.548 76.1002 35.8799 75.998C38.46 75.5913 41.7077 78.6329 40.7356 83.5061C40.3009 83.6301 39.8759 83.753 39.4595 83.8751C39.0443 83.9973 38.6382 84.1183 38.2412 84.2393C37.8454 84.3597 37.4587 84.4794 37.0824 84.5986C36.7067 84.7171 36.3407 84.8357 35.9845 84.9524" fill="black"/>
<path fill-rule="evenodd" clip-rule="evenodd" d="M63.9389 61.0146C49.0449 64.4848 48.3804 81.1533 59.5866 87.9143C63.2823 90.1442 69.0687 91.7297 75.6527 86.6242C78.8438 84.1493 81.5996 77.4248 80.4524 71.7321C78.9557 64.3042 71.8561 59.6966 63.9389 61.0146M68.0333 84.3183C59.8668 85.3852 55.6933 76.3859 59.9763 71.0043C62.1691 68.2498 65.9615 67.1591 69.6377 68.2267C74.0745 69.5155 74.7085 73.9729 74.7967 75.308C75.0453 79.0517 72.5832 83.4453 68.0333 84.3183" fill="black"/>
<path fill-rule="evenodd" clip-rule="evenodd" d="M103.89 58.3682C103.662 58.3372 103.424 58.3087 103.178 58.2819C102.931 58.2558 102.675 58.2314 102.409 58.2102C102.143 58.1883 101.868 58.1688 101.584 58.1524C101.299 58.1354 101.005 58.1208 100.703 58.1086C100.843 59.6425 100.917 61.1721 100.928 62.6919C100.938 64.2124 100.884 65.7237 100.769 67.2199C100.654 68.716 100.477 70.197 100.24 71.6579C100.004 73.1181 99.7102 74.5584 99.3594 75.9737C98.5825 71.9971 97.6146 67.0484 91.3826 58.3068C90.9406 58.3354 90.4913 58.3664 90.0354 58.3998C89.5788 58.4327 89.115 58.4692 88.645 58.5075C88.1739 58.5458 87.696 58.5859 87.2121 58.6296C86.7276 58.6728 86.2357 58.7184 85.7384 58.7664C86.0582 61.2876 86.2716 63.7923 86.3823 66.2599C86.4929 68.7258 86.5002 71.1508 86.4114 73.5151C86.3227 75.8746 86.136 78.1708 85.8588 80.3825C85.5816 82.5881 85.2138 84.7086 84.7615 86.7233C85.1281 86.6771 85.4898 86.6321 85.8479 86.5889C86.2047 86.5458 86.5573 86.5038 86.9051 86.4637C87.2522 86.423 87.5945 86.3847 87.9319 86.3476C88.2693 86.3105 88.6012 86.2746 88.9283 86.2406C89.3174 85.0284 89.6712 83.7796 89.9867 82.4987C90.3029 81.2153 90.5807 79.8997 90.8196 78.5568C91.0586 77.212 91.2573 75.8393 91.4142 74.4441C91.5723 73.047 91.6884 71.6275 91.7607 70.1897C93.7177 73.8981 96.3969 78.9775 95.8668 85.7159C96.0941 85.708 96.3142 85.7013 96.5288 85.6965C96.7428 85.6916 96.9501 85.6886 97.1507 85.6874C97.3508 85.6855 97.5447 85.6855 97.7319 85.6874C97.9186 85.6892 98.0985 85.6922 98.2712 85.6971C99.3497 83.6885 100.292 81.5868 101.085 79.4104C101.879 77.2327 102.524 74.9809 103.008 72.6756C103.492 70.369 103.815 68.0102 103.966 65.618C104.117 63.2263 104.095 60.803 103.89 58.3682" fill="black"/>
</svg>
