<svg width="36" height="36" viewBox="0 0 36 36" fill="none" xmlns="http://www.w3.org/2000/svg">
<path d="M24.3749 17.797C24.6876 18.1105 25.2307 17.8795 25.2307 17.434C25.2307 17.1536 25.0003 16.9391 24.7205 16.9226C24.2761 16.9391 24.0621 17.4835 24.3749 17.797Z" fill="white"/>
<path d="M22.7455 29.2474C27.2551 27.35 30.1683 22.9282 30.1518 18.028C30.1189 11.3459 24.6876 5.96715 18.0054 6.00015C13.1336 6.03315 8.73917 8.98649 6.8958 13.5237C5.3291 17.366 5.85485 21.6969 8.18002 25.0274C8.16882 25.0097 8.1577 24.9919 8.14666 24.9741C9.17726 22.6765 9.3453 20.6528 9.56441 18.0139L9.58032 17.8224C9.73007 15.083 10.3543 12.8024 14.9605 11.5274C15.981 11.2799 17.0508 11.3789 18.1206 11.6264C19.0916 11.3954 20.2273 11.3789 20.8198 11.9068C21.2313 12.2698 21.4452 12.5503 21.4946 12.7813L21.659 12.8461C22.5239 13.1871 23.3734 13.522 24.1938 13.7547C28.8107 15.0181 28.3689 17.5515 26.1134 19.6691C25.7989 19.9935 25.4707 20.3081 25.1718 20.5946C24.9284 20.8279 24.7042 21.0427 24.523 21.2288C22.7989 22.99 19.7153 26.4426 20.2072 29.981C20.2096 29.9869 20.2108 29.9899 20.2108 29.9899L20.2085 29.9904L20.2099 30C21.068 29.8453 21.9181 29.5955 22.7455 29.2474Z" fill="white"/>
<path fill-rule="evenodd" clip-rule="evenodd" d="M17.2483 17.269C18.1206 16.9061 18.6966 16.0481 18.6966 15.1077C18.6966 14.4807 18.4498 13.8867 17.9889 13.4248C17.561 12.9958 16.9685 12.7483 16.343 12.7483C15.4049 12.7483 14.5491 13.3258 14.187 14.2002C13.8249 15.0747 14.0224 16.0811 14.6972 16.7576C15.372 17.434 16.376 17.632 17.2483 17.269ZM16.9849 16.6421C17.6104 16.3946 18.0054 15.7841 18.0054 15.1242C18.0054 14.2167 17.2647 13.4743 16.343 13.4578C15.6847 13.4578 15.0757 13.8702 14.8289 14.4807C14.582 15.1077 14.7136 15.8006 15.1909 16.2791C15.6682 16.7576 16.376 16.8896 16.9849 16.6421Z" fill="white"/>
<path d="M26.9405 18.6462C26.9744 18.6166 27.0079 18.5865 27.0412 18.556H27.0576C27.0189 18.5866 26.9798 18.6167 26.9405 18.6462Z" fill="white"/>
<path d="M26.9405 18.6462C26.3445 19.0937 25.6796 19.4158 25.0003 19.6944C24.2761 19.9914 23.519 20.2224 22.7619 20.3874C22.0048 20.5359 21.2313 20.5854 20.4577 20.5689C19.7006 20.5359 18.9271 20.3874 18.2687 19.9584L18.2358 19.9914C18.7789 20.6019 19.6019 20.8824 20.4248 20.9484C21.2313 21.0143 22.0377 20.8659 22.8113 20.6679C23.5848 20.4534 24.3255 20.1894 25.0497 19.8429C25.7177 19.5159 26.371 19.1447 26.9405 18.6462Z" fill="white"/>
</svg>
