<svg width="48" height="49" viewBox="0 0 48 49" fill="none" xmlns="http://www.w3.org/2000/svg">
<path fill-rule="evenodd" clip-rule="evenodd" d="M28.8 11.6454C28.0312 11.7205 27.3313 12.1647 26.9 12.8468L22.45 19.9053C21.7 18.7351 21.1188 17.8278 20.7 17.2521C20.1562 16.5012 19.8 16.2134 19.5 16.1007L11.35 12.0959C10.5625 11.7142 9.725 11.7205 9.05 12.146C8.38125 12.5652 8 13.2848 8 14.1484V31.9697C8 33.0523 8.71875 34.1474 9.7 34.6229L17.15 38.2773C18.2688 38.6966 19.1688 38.5401 19.65 38.2272C20.3562 37.7642 20.75 36.9632 20.75 36.0246V30.7182L27.6 34.0222L36 38.1271C36.7 38.4337 37.9375 38.5213 38.8 38.0771C39.5375 37.6954 39.9 36.8631 39.9 35.9745C39.9 35.9745 39.9062 20.919 39.9 18.1031C39.8938 17.5087 39.6 16.7578 38.55 16.1508C37.4 15.4937 35.0875 14.3111 30.2 11.8957C29.7625 11.6829 29.2625 11.6016 28.8 11.6454ZM29.3 15.0495C31.4312 16.1007 34.25 17.5024 35.95 18.3534L28.7 29.7671L24.35 22.8588L29.3 15.0495ZM11.2 15.5501L17.5 18.6538L17.55 34.9233L11.2 31.8196V15.5501ZM20.7 23.1592C20.8062 23.3219 24.35 28.866 24.35 28.866L20.7 27.1139V23.1592ZM36.7 23.1592V34.8732L31 32.1199L36.7 23.1592Z" fill="white"/>
</svg>
