<svg width="36" height="36" viewBox="0 0 36 36" fill="none" xmlns="http://www.w3.org/2000/svg">
<path d="M26.8623 20.3427C26.4758 20.6048 25.973 20.6375 25.5532 20.4287C25.0712 20.1584 24.8094 19.5276 24.8094 18.6717V16.0382C24.8094 14.7727 24.3023 13.8758 23.4504 13.63C22.0166 13.2164 20.9444 14.9488 20.533 15.6L17.9938 19.6505V14.7072C17.9647 13.5686 17.5906 12.8846 16.8758 12.6799C16.4062 12.5447 15.6997 12.598 15.014 13.63L9.33714 22.6116C8.58078 21.1904 8.18597 19.6055 8.19429 18C8.19429 12.5857 12.5829 8.18294 17.9938 8.18294C23.4047 8.18294 27.8057 12.5857 27.8057 18V18.0287C27.8057 18.0287 27.8057 18.0491 27.8057 18.0573C27.8597 19.1017 27.5148 19.9372 26.8623 20.3427ZM30 18V17.9468C29.9543 11.3529 24.5849 6 17.9938 6C11.4026 6 6 11.3816 6 18C6 24.6184 11.3777 30 17.9938 30C21.0275 30 23.9449 28.8532 26.1475 26.7973C26.5922 26.3836 26.6171 25.6956 26.2057 25.2532C25.8068 24.8191 25.1294 24.7863 24.6847 25.1795L24.6805 25.1836C20.7948 28.8164 14.6566 28.6567 10.9704 24.8273C10.879 24.7331 10.7917 24.6389 10.7044 24.5406L15.8119 16.4437V20.1788C15.8119 21.9727 16.5184 22.5543 17.1086 22.7263C17.6987 22.8983 18.6088 22.7795 19.5564 21.2601L22.3823 16.7549C22.4696 16.6116 22.5527 16.4846 22.6317 16.3782V18.6676C22.6317 20.3468 23.3132 21.686 24.5143 22.3495C25.6239 22.9393 26.9704 22.886 28.0301 22.2102C29.3475 21.3666 30.0665 19.8389 29.9917 18H30Z" fill="white"/>
</svg>
