<svg width="48" height="49" viewBox="0 0 48 49" fill="none" xmlns="http://www.w3.org/2000/svg">
<path fill-rule="evenodd" clip-rule="evenodd" d="M40 38.777C40 39.7536 39.2092 40.5454 38.234 40.5454L30.0795 40.5454V28.1383H34.239L34.8618 23.3031H30.0795V20.2161C30.0795 18.8162 30.4678 17.8622 32.4729 17.8622L35.0302 17.8611V13.5364C34.5879 13.4774 33.0699 13.3458 31.3037 13.3458C27.6166 13.3458 25.0922 15.5991 25.0922 19.7372V23.3031H20.9221V28.1383H25.0922V40.5454L9.76615 40.5454C8.79045 40.5454 8 39.7535 8 38.777V10.2752C8 9.29847 8.79057 8.50696 9.76615 8.50696H38.234C39.2093 8.50696 40 9.29847 40 10.2752V38.777Z" fill="white"/>
<mask id="mask0" mask-type="alpha" maskUnits="userSpaceOnUse" x="8" y="8" width="32" height="33">
<path fill-rule="evenodd" clip-rule="evenodd" d="M40 38.777C40 39.7536 39.2092 40.5454 38.234 40.5454L30.0795 40.5454V28.1383H34.239L34.8618 23.3031H30.0795V20.2161C30.0795 18.8162 30.4678 17.8622 32.4729 17.8622L35.0302 17.8611V13.5364C34.5879 13.4774 33.0699 13.3458 31.3037 13.3458C27.6166 13.3458 25.0922 15.5991 25.0922 19.7372V23.3031H20.9221V28.1383H25.0922V40.5454L9.76615 40.5454C8.79045 40.5454 8 39.7535 8 38.777V10.2752C8 9.29847 8.79057 8.50696 9.76615 8.50696H38.234C39.2093 8.50696 40 9.29847 40 10.2752V38.777Z" fill="white"/>
</mask>
<g mask="url(#mask0)">
</g>
</svg>
