<svg width="48" height="48" viewBox="0 0 48 48" fill="none" xmlns="http://www.w3.org/2000/svg">
<path d="M24.0018 8C15.1608 7.99643 8 15.1536 8 23.9875C8 30.9731 12.4795 36.9112 18.7179 39.0919C19.558 39.3029 19.4293 38.7058 19.4293 38.2983V35.5277C14.578 36.0961 14.3814 32.8857 14.0561 32.3495C13.3983 31.2269 11.8431 30.9409 12.3079 30.4047C13.4126 29.8362 14.5387 30.5477 15.8436 32.4746C16.7874 33.8724 18.6285 33.6365 19.5616 33.4041C19.7654 32.564 20.2015 31.8132 20.8021 31.2305C15.7757 30.3296 13.6807 27.2622 13.6807 23.6157C13.6807 21.8461 14.2634 20.2194 15.4074 18.9074C14.6781 16.7445 15.4754 14.8926 15.5826 14.6174C17.6597 14.4315 19.819 16.1046 19.987 16.2368C21.1668 15.9187 22.5146 15.7506 24.0232 15.7506C25.539 15.7506 26.8904 15.9258 28.0809 16.2476C28.4849 15.9401 30.4869 14.503 32.4174 14.6781C32.5211 14.9534 33.3004 16.7624 32.614 18.8967C33.7723 20.2123 34.3622 21.8532 34.3622 23.6264C34.3622 27.2801 32.2529 30.351 27.2122 31.2376C27.6439 31.6622 27.9867 32.1686 28.2206 32.7272C28.4545 33.2858 28.5747 33.8853 28.5742 34.4909V38.5128C28.6028 38.8345 28.5742 39.1527 29.1105 39.1527C35.4419 37.0184 40 31.0374 40 23.9911C40 15.1536 32.8357 8 24.0018 8V8Z" fill="white"/>
</svg>
