<svg width="512" height="512" viewBox="0 0 512 512" fill="none" xmlns="http://www.w3.org/2000/svg">
<path d="M0 71.8596C0 32.1727 32.1727 0 71.8596 0L440.14 0C479.827 0 512 32.1727 512 71.8596V440.14C512 479.827 479.827 512 440.14 512H71.8596C32.1727 512 0 479.827 0 440.14L0 71.8596Z" fill="white"/>
<path d="M86.4561 425.544H66.2456V445.754H86.4561V425.544Z" fill="black"/>
<path fill-rule="evenodd" clip-rule="evenodd" d="M58.6667 395.228C46.1087 395.228 35.9298 405.407 35.9298 417.965V453.333C35.9298 465.891 46.1087 476.07 58.6667 476.07H94.0351C106.593 476.07 116.772 465.891 116.772 453.333L116.772 417.965C116.772 405.407 106.593 395.228 94.0351 395.228H58.6667ZM51.0877 417.965C51.0877 413.778 54.4802 410.386 58.6667 410.386H94.0351C98.2215 410.386 101.614 413.778 101.614 417.965L101.614 453.333C101.614 457.52 98.2215 460.912 94.0351 460.912H58.6667C54.4802 460.912 51.0877 457.52 51.0877 453.333V417.965Z" fill="black"/>
<path d="M187.509 324.491H167.298V344.702H187.509V324.491Z" fill="black"/>
<path fill-rule="evenodd" clip-rule="evenodd" d="M159.719 294.175C147.161 294.175 136.982 304.354 136.982 316.912V352.281C136.982 364.839 147.161 375.018 159.719 375.018H195.088C207.646 375.018 217.825 364.839 217.825 352.281V316.912C217.825 304.354 207.646 294.175 195.088 294.175H159.719ZM152.14 316.912C152.14 312.726 155.533 309.333 159.719 309.333H195.088C199.274 309.333 202.667 312.726 202.667 316.912V352.281C202.667 356.467 199.274 359.86 195.088 359.86H159.719C155.533 359.86 152.14 356.467 152.14 352.281V316.912Z" fill="black"/>
<path d="M136.982 395.228H164.772V423.018H136.982V395.228Z" fill="black"/>
<path d="M190.035 423.018H164.772V448.281H136.982V476.07H164.772V448.281H190.035V476.07H217.825V448.281H190.035V423.018Z" fill="black"/>
<path d="M190.035 423.018H217.825V395.228H190.035V423.018Z" fill="black"/>
<path d="M35.9298 294.175H63.7193V321.965H35.9298V294.175Z" fill="black"/>
<path d="M88.9824 321.965H63.7193V347.228H35.9298L35.9298 375.018H63.7193V347.228H88.9824V375.018H116.772V347.228H88.9824V321.965Z" fill="black"/>
<path d="M88.9824 321.965H116.772V294.175H88.9824V321.965Z" fill="black"/>
<path d="M71.8596 0C32.1727 0 0 32.1727 0 71.8596L0 307.07L189.652 512H440.14C479.827 512 512 479.827 512 440.14V71.8596C512 32.1727 479.827 0 440.14 0L71.8596 0Z" fill="#12B03E"/>
<path d="M236.092 397.544C234.3 399.33 232.589 399.33 230.96 397.544L220.698 386.827C210.598 391.861 199.766 394.377 188.2 394.377C178.589 394.377 169.467 392.673 160.833 389.263C152.363 385.853 144.951 381.144 138.598 375.136C132.245 368.966 127.195 361.74 123.448 353.459C119.865 345.016 118.073 335.923 118.073 326.181C118.073 316.438 119.865 307.426 123.448 299.145C127.195 290.702 132.245 283.476 138.598 277.469C144.951 271.298 152.363 266.508 160.833 263.098C169.467 259.526 178.589 257.74 188.2 257.74C197.811 257.74 206.852 259.526 215.322 263.098C223.793 266.508 231.205 271.298 237.558 277.469C243.911 283.476 248.879 290.702 252.463 299.145C256.209 307.426 258.083 316.438 258.083 326.181C258.083 334.949 256.617 343.149 253.684 350.78C250.752 358.249 246.68 364.907 241.467 370.752L250.019 379.764C251.648 381.388 251.73 382.93 250.264 384.391L236.092 397.544ZM205.548 338.115C207.177 336.491 208.806 336.41 210.435 337.871L222.408 350.537C224.689 347.289 226.399 343.636 227.54 339.576C228.843 335.355 229.494 330.889 229.494 326.181C229.494 320.01 228.435 314.409 226.318 309.375C224.363 304.179 221.512 299.714 217.766 295.979C214.182 292.244 209.865 289.403 204.815 287.454C199.766 285.344 194.227 284.288 188.2 284.288C182.01 284.288 176.39 285.344 171.34 287.454C166.29 289.403 161.892 292.244 158.145 295.979C154.562 299.714 151.711 304.179 149.593 309.375C147.639 314.409 146.661 320.01 146.661 326.181C146.661 332.188 147.639 337.79 149.593 342.986C151.711 348.02 154.562 352.404 158.145 356.139C161.892 359.711 166.29 362.552 171.34 364.663C176.39 366.774 182.01 367.829 188.2 367.829C192.924 367.829 197.241 367.261 201.15 366.124L191.621 355.895C189.992 354.271 189.992 352.647 191.621 351.024L205.548 338.115Z" fill="white"/>
<path d="M342.268 259.689C349.598 259.689 356.44 260.906 362.793 263.342C369.309 265.778 374.847 269.187 379.408 273.572C384.132 277.956 387.797 283.152 390.404 289.159C393.173 295.005 394.558 301.337 394.558 308.157C394.558 316.925 392.359 324.882 387.96 332.026C383.725 339.17 378.105 344.772 371.101 348.832L392.114 389.019C392.603 389.831 392.603 390.643 392.114 391.455C391.626 392.104 390.893 392.429 389.915 392.429H365.969C364.015 392.429 362.548 391.617 361.571 389.993L345.2 356.869C344.385 357.032 343.652 357.113 343.001 357.113C342.349 357.113 341.779 357.113 341.29 357.113H307.082V389.019C307.082 391.292 305.942 392.429 303.661 392.429H282.159C279.878 392.429 278.738 391.292 278.738 389.019V263.098C278.738 260.825 279.878 259.689 282.159 259.689H342.268ZM342.268 330.321C349.924 330.321 355.788 328.21 359.861 323.989C364.096 319.604 366.214 314.327 366.214 308.157C366.214 301.987 364.096 296.872 359.861 292.813C355.788 288.591 349.924 286.48 342.268 286.48H307.082V330.321H342.268Z" fill="white"/>
<path d="M169.432 115.362C179.176 115.362 188.476 116.976 197.334 120.203C206.191 123.283 214.163 127.757 221.249 133.625C222.725 134.798 222.947 136.119 221.913 137.586L210.841 151.228C209.513 152.841 207.963 152.914 206.191 151.448C201.172 147.487 195.488 144.48 189.14 142.426C182.792 140.226 175.78 139.126 168.104 139.126C160.575 139.126 154.817 140.153 150.832 142.206C146.846 144.113 144.853 146.754 144.853 150.127C144.853 153.648 146.772 156.362 150.61 158.269C154.596 160.175 161.608 161.642 171.647 162.669C179.323 163.403 186.409 164.649 192.905 166.41C199.548 168.17 205.232 170.59 209.956 173.671C214.68 176.604 218.37 180.345 221.027 184.892C223.685 189.293 225.013 194.647 225.013 200.955C225.013 206.969 223.685 212.323 221.027 217.017C218.37 221.711 214.68 225.671 209.956 228.899C205.232 232.126 199.622 234.619 193.126 236.38C186.631 237.993 179.619 238.8 172.09 238.8C161.018 238.8 150.979 237.407 141.974 234.619C133.117 231.686 124.702 226.918 116.73 220.317C115.254 219.144 115.18 217.677 116.509 215.917L126.916 202.055C128.245 200.295 129.721 200.074 131.345 201.395C137.398 206.089 143.598 209.536 149.946 211.736C156.294 213.936 163.823 215.037 172.533 215.037C181.833 215.037 188.624 213.79 192.905 211.296C197.334 208.802 199.548 205.502 199.548 201.395C199.548 197.141 197.186 193.987 192.462 191.933C187.886 189.733 179.988 188.119 168.768 187.093C161.387 186.506 154.596 185.479 148.396 184.012C142.343 182.399 137.176 180.198 132.895 177.411C128.614 174.624 125.292 171.104 122.93 166.85C120.568 162.596 119.387 157.315 119.387 151.007C119.387 145.58 120.642 140.666 123.152 136.265C125.661 131.865 129.131 128.124 133.559 125.044C137.988 121.963 143.229 119.616 149.282 118.003C155.482 116.242 162.199 115.362 169.432 115.362Z" fill="white"/>
<path d="M344.714 117.123C346.78 117.123 347.814 118.149 347.814 120.203V138.246C347.814 140.299 346.78 141.326 344.714 141.326H306.184V233.959C306.184 236.013 305.15 237.04 303.083 237.04H283.597C281.53 237.04 280.497 236.013 280.497 233.959V141.326H241.967C239.9 141.326 238.866 140.299 238.866 138.246V120.203C238.866 118.149 239.9 117.123 241.967 117.123L344.714 117.123Z" fill="white"/>
<path d="M392.128 117.123C394.195 117.123 395.228 118.149 395.228 120.203V233.959C395.228 236.013 394.195 237.04 392.128 237.04H372.641C370.575 237.04 369.541 236.013 369.541 233.959V120.203C369.541 118.149 370.575 117.123 372.641 117.123H392.128Z" fill="white"/>
<path d="M0 307.07H117.793C157.48 307.07 189.652 339.242 189.652 378.929V512L0 307.07Z" fill="#A9E0B8"/>
</svg>
