<svg width="144" height="144" viewBox="0 0 144 144" fill="none" xmlns="http://www.w3.org/2000/svg">
<path fill-rule="evenodd" clip-rule="evenodd" d="M102 24C102 25.6569 100.657 27 99 27C97.3431 27 96 25.6569 96 24C96 22.3431 97.3431 21 99 21C100.657 21 102 22.3431 102 24ZM102 36C102 37.6569 100.657 39 99 39C97.3431 39 96 37.6569 96 36C96 34.3431 97.3431 33 99 33C100.657 33 102 34.3431 102 36ZM102 60C102 61.6569 100.657 63 99 63C97.3431 63 96 61.6569 96 60C96 58.3431 97.3431 57 99 57C100.657 57 102 58.3431 102 60ZM45 75C46.6569 75 48 73.6569 48 72C48 70.3431 46.6569 69 45 69C43.3431 69 42 70.3431 42 72C42 73.6569 43.3431 75 45 75ZM102 84C102 85.6569 100.657 87 99 87C97.3431 87 96 85.6569 96 84C96 82.3431 97.3431 81 99 81C100.657 81 102 82.3431 102 84ZM102 96C102 97.6569 100.657 99 99 99C97.3431 99 96 97.6569 96 96C96 94.3431 97.3431 93 99 93C100.657 93 102 94.3431 102 96ZM102 108C102 109.657 100.657 111 99 111C97.3431 111 96 109.657 96 108C96 106.343 97.3431 105 99 105C100.657 105 102 106.343 102 108ZM48 120H96C96 118.343 97.3431 117 99 117C100.657 117 102 118.343 102 120H126C127.657 120 129 121.343 129 123C129 124.657 127.657 126 126 126H18C16.3431 126 15 124.657 15 123C15 121.343 16.3431 120 18 120H42C42 118.343 43.3431 117 45 117C46.6569 117 48 118.343 48 120ZM45 111C46.6569 111 48 109.657 48 108C48 106.343 46.6569 105 45 105C43.3431 105 42 106.343 42 108C42 109.657 43.3431 111 45 111ZM45 99C46.6569 99 48 97.6569 48 96C48 94.3431 46.6569 93 45 93C43.3431 93 42 94.3431 42 96C42 97.6569 43.3431 99 45 99ZM45 63C46.6569 63 48 61.6569 48 60C48 58.3431 46.6569 57 45 57C43.3431 57 42 58.3431 42 60C42 61.6569 43.3431 63 45 63ZM45 39C46.6569 39 48 37.6569 48 36C48 34.3431 46.6569 33 45 33C43.3431 33 42 34.3431 42 36C42 37.6569 43.3431 39 45 39ZM45 27C46.6569 27 48 25.6569 48 24C48 22.3431 46.6569 21 45 21C43.3431 21 42 22.3431 42 24C42 25.6569 43.3431 27 45 27Z" fill="#4D4183"/>
<path d="M18 60C17.343 60 16.68 59.784 16.128 59.343C14.832 58.308 14.625 56.421 15.66 55.128L27.66 40.128C28.482 39.096 29.886 38.73 31.116 39.216L45.576 45H54C54.321 45 54.642 45.051 54.948 45.153L62.19 47.568L78.879 30.879C79.977 29.781 81.732 29.7 82.92 30.696L99.099 44.178L109.2 36.6C110.112 35.919 111.324 35.805 112.341 36.315L115.971 38.13L126.501 22.332C127.419 20.952 129.279 20.577 130.662 21.501C132.039 22.419 132.411 24.282 131.493 25.662L119.493 43.662C118.653 44.922 117.012 45.354 115.656 44.682L111.315 42.51L100.8 50.4C99.687 51.234 98.151 51.198 97.08 50.304L81.186 37.059L65.124 53.121C64.32 53.925 63.135 54.207 62.055 53.847L53.514 51H45C44.619 51 44.241 50.928 43.884 50.787L30.951 45.612L20.34 58.872C19.749 59.616 18.876 60 18 60Z" fill="#33C481"/>
<path d="M27 96C26.418 96 25.836 95.829 25.335 95.496L16.335 89.496C14.958 88.578 14.586 86.715 15.504 85.335C16.422 83.955 18.282 83.58 19.665 84.504L27.216 89.538L43.659 81.315C44.37 80.961 45.195 80.901 45.951 81.153L53.559 83.688L61.338 78.501C61.827 78.177 62.409 78 63 78H80.292L97.659 69.315C98.502 68.892 99.498 68.892 100.344 69.315L110.409 74.349L114.879 69.879C115.263 69.495 115.746 69.222 116.271 69.09L128.271 66.09C129.876 65.685 131.508 66.666 131.91 68.274C132.312 69.882 131.334 71.511 129.726 71.913L118.533 74.712L113.121 80.124C112.212 81.036 110.817 81.264 109.659 80.688L99 75.354L82.341 83.682C81.927 83.892 81.465 84 81 84H63.909L55.665 89.496C54.897 90.009 53.934 90.138 53.052 89.847L45.231 87.24L28.344 95.685C27.918 95.895 27.459 96 27 96Z" fill="#FFDD01"/>
</svg>
