<svg width="24" height="24" viewBox="0 0 24 24" fill="none" xmlns="http://www.w3.org/2000/svg">
<path d="M21.3731 16.68C20.8556 17.8294 20.6063 18.3431 19.9406 19.3575C19.0088 20.775 17.6944 22.545 16.0706 22.5562C14.625 22.5694 14.2519 21.6131 12.2888 21.63C10.3275 21.6394 9.91877 22.575 8.47127 22.56C6.84565 22.545 5.60252 20.9512 4.67064 19.5356C2.06439 15.5662 1.78877 10.9125 3.39939 8.43748C4.53939 6.68248 6.34127 5.65123 8.0344 5.65123C9.7594 5.65123 10.8431 6.59811 12.2681 6.59811C13.6519 6.59811 14.4938 5.64936 16.4888 5.64936C17.9963 5.64936 19.59 6.47061 20.73 7.88811C17.0025 9.93186 17.6081 15.255 21.3731 16.68ZM14.9738 4.06498C15.6994 3.13311 16.2506 1.81873 16.05 0.47998C14.8669 0.560606 13.4831 1.31623 12.675 2.29498C11.9419 3.18748 11.3344 4.51123 11.5706 5.79186C12.8625 5.83311 14.1994 5.06248 14.9738 4.06498Z" fill="white"/>
</svg>
