<svg width="24" height="24" viewBox="0 0 24 24" fill="none" xmlns="http://www.w3.org/2000/svg">
<g clip-path="url(#clip0)">
<path d="M24 11.947C24.0105 14.3203 23.3169 16.6434 22.0071 18.6226C20.6972 20.6018 18.8299 22.1481 16.6412 23.066C14.4526 23.984 12.0408 24.2323 9.71106 23.7795C7.38128 23.3268 5.23806 22.1934 3.55244 20.5226C1.86681 18.8518 0.714484 16.7187 0.241173 14.393C-0.232138 12.0673 -0.00517571 9.65348 0.89336 7.45678C1.7919 5.26008 3.32165 3.37915 5.28917 2.05186C7.2567 0.724563 9.57362 0.0105097 11.947 -4.30933e-06C13.5228 -0.00698549 15.0846 0.296496 16.5432 0.893111C18.0018 1.48973 19.3286 2.36779 20.4478 3.47717C21.5671 4.58655 22.4568 5.90552 23.0663 7.35877C23.6758 8.81202 23.9931 10.3711 24 11.947Z" fill="#8DC63F"/>
<path d="M23.1 11.9513C23.1108 14.1465 22.4704 16.2956 21.2597 18.1267C20.0491 19.9579 18.3225 21.3889 16.2985 22.2388C14.2745 23.0886 12.0439 23.3192 9.88886 22.9012C7.73381 22.4833 5.75111 21.4356 4.19153 19.8907C2.63194 18.3459 1.56553 16.3732 1.12717 14.2222C0.688799 12.0712 0.898171 9.83855 1.7288 7.80656C2.55943 5.77457 3.97401 4.03456 5.79362 2.80658C7.61323 1.5786 9.75614 0.917825 11.9513 0.907822C14.8939 0.894875 17.7212 2.05087 19.8117 4.12171C21.9023 6.19254 23.085 9.00875 23.1 11.9513Z" fill="#F9E988"/>
<path d="M12.2044 1.6226C12.9099 1.49738 13.6319 1.49738 14.3374 1.6226C15.0497 1.73554 15.7382 1.96623 16.3748 2.30521C17.0078 2.65304 17.5548 3.12521 18.0991 3.56782C18.6435 4.01043 19.1852 4.46347 19.7009 4.95913C20.2273 5.44701 20.6867 6.00258 21.067 6.6113C21.4584 7.21524 21.7794 7.86207 22.0235 8.53913C22.487 9.90086 22.6478 11.3678 22.4165 12.767H22.3478C22.1157 11.38 21.8009 10.0583 21.3044 8.80087C21.0713 8.16883 20.7971 7.55273 20.4835 6.95652C20.1564 6.35698 19.7959 5.77635 19.4035 5.21739C19.0046 4.65433 18.5157 4.16078 17.9565 3.75652C17.3931 3.35478 16.7452 3.09478 16.1183 2.84782C15.4913 2.60087 14.8696 2.34782 14.2157 2.16C13.5618 1.97217 12.8974 1.8313 12.2035 1.69478L12.2044 1.6226Z" fill="white"/>
<path d="M17.6296 8.034C16.8243 7.80096 15.9896 7.47053 15.1443 7.13661C15.0957 6.92444 14.9078 6.66009 14.5278 6.33748C13.9757 5.85835 12.9383 5.87053 12.0417 6.0827C11.0522 5.84966 10.0748 5.76705 9.13652 5.99574C1.46261 8.10966 5.81391 13.267 2.99652 18.4514C3.39739 19.3018 7.71826 24.2636 13.9704 22.9323C13.9704 22.9323 11.8322 17.794 16.6574 15.3279C20.5713 13.3201 23.3991 9.60531 17.6296 8.034Z" fill="#8BC53F"/>
<path d="M18.5774 11.4087C18.5779 11.5007 18.5511 11.5908 18.5004 11.6676C18.4497 11.7443 18.3774 11.8044 18.2926 11.8401C18.2078 11.8758 18.1143 11.8855 18.024 11.868C17.9336 11.8506 17.8505 11.8068 17.7851 11.7421C17.7197 11.6774 17.6749 11.5947 17.6564 11.5046C17.638 11.4144 17.6467 11.3208 17.6814 11.2356C17.7161 11.1504 17.7753 11.0775 17.8516 11.0259C17.9278 10.9744 18.0176 10.9466 18.1096 10.946C18.2329 10.9456 18.3514 10.994 18.439 11.0807C18.5267 11.1674 18.5765 11.2853 18.5774 11.4087Z" fill="white"/>
<path d="M12.0417 6.07914C12.6009 6.11914 14.6226 6.77479 15.1444 7.13305C14.7096 5.87218 13.2461 5.70435 12.0417 6.07914Z" fill="#009345"/>
<path d="M12.5739 9.26778C12.5741 9.69223 12.4484 10.1072 12.2127 10.4602C11.977 10.8132 11.642 11.0884 11.2499 11.251C10.8578 11.4136 10.4263 11.4563 10.01 11.3737C9.59367 11.291 9.21119 11.0868 8.91093 10.7868C8.61067 10.4868 8.40612 10.1044 8.32315 9.68818C8.24017 9.27191 8.28249 8.84039 8.44477 8.44818C8.60704 8.05597 8.88197 7.72068 9.2348 7.48472C9.58763 7.24876 10.0025 7.12273 10.427 7.12256C10.9958 7.12256 11.5414 7.34842 11.9439 7.75052C12.3463 8.15261 12.5726 8.69803 12.573 9.26691L12.5739 9.26778Z" fill="white"/>
<path d="M11.9374 9.28691C11.9374 9.58547 11.8489 9.87733 11.683 10.1256C11.5171 10.3738 11.2814 10.5673 11.0055 10.6816C10.7297 10.7958 10.4262 10.8257 10.1333 10.7675C9.84051 10.7092 9.57153 10.5654 9.36042 10.3543C9.1493 10.1432 9.00553 9.87423 8.94728 9.58141C8.88903 9.28858 8.91893 8.98506 9.03318 8.70922C9.14744 8.43339 9.34092 8.19762 9.58917 8.03175C9.83742 7.86588 10.1293 7.77734 10.4278 7.77734C10.8282 7.77734 11.2122 7.93639 11.4953 8.21948C11.7784 8.50258 11.9374 8.88655 11.9374 9.28691Z" fill="#58595B"/>
<path d="M20.3157 12.3549C18.5765 13.5801 16.5991 14.5096 13.7939 14.5096C12.4809 14.5096 12.2148 13.1183 11.347 13.7983C10.8991 14.1514 9.32001 14.9409 8.06696 14.8809C6.81392 14.8209 4.78261 14.087 4.21653 11.4114C3.99218 14.087 3.87739 16.0566 2.86957 18.3149C4.86957 21.5175 9.63827 23.9879 13.967 22.9236C13.5052 19.6757 16.3478 16.4949 17.9426 14.8696C18.5513 14.2531 19.7078 13.247 20.3157 12.3557V12.3549Z" fill="#8BC53F"/>
<path d="M20.2479 12.4348C19.7079 12.927 19.0652 13.2913 18.4113 13.6131C17.7493 13.927 17.0593 14.1783 16.3505 14.3635C15.6409 14.547 14.9009 14.6852 14.1513 14.6174C13.4018 14.5496 12.6357 14.2948 12.1392 13.7331L12.1626 13.7061C12.7713 14.1009 13.4739 14.24 14.1731 14.26C14.8817 14.2818 15.5906 14.2234 16.2861 14.0861C16.9887 13.9388 17.676 13.7263 18.3392 13.4513C19.0026 13.1774 19.6592 12.86 20.2244 12.4078L20.2479 12.4348Z" fill="#58595B"/>
</g>
<defs>
<clipPath id="clip0">
<rect width="24" height="24" fill="white"/>
</clipPath>
</defs>
</svg>
