<svg width="24" height="24" viewBox="0 0 24 24" fill="none" xmlns="http://www.w3.org/2000/svg">
<g clip-path="url(#clip0)">
<path d="M20.8698 14.3407C20.6799 14.4696 20.4581 14.5457 20.228 14.5609C19.9978 14.5762 19.7677 14.53 19.5619 14.4272C19.0789 14.1584 18.8186 13.528 18.8186 12.669V10.0363C18.8186 8.7725 18.3105 7.87331 17.4605 7.6292C16.024 7.21514 14.9514 8.94863 14.5374 9.60062L11.9969 13.6516V8.70761C11.9686 7.5674 11.5923 6.88451 10.8803 6.68057C10.4098 6.54461 9.70413 6.60023 9.01725 7.63229L3.33717 16.6149C2.58141 15.1904 2.18954 13.6058 2.1955 11.9985C2.1955 6.58478 6.58651 2.18154 11.9969 2.18154C17.4072 2.18154 21.8139 6.58478 21.8139 11.9985V12.0263C21.8139 12.0263 21.8139 12.0448 21.8139 12.0541C21.8672 13.1016 21.5222 13.9359 20.873 14.3407H20.8698ZM24.0063 12.0015V11.949C23.9624 5.35187 18.5928 0 11.9969 0C5.40094 0 0 5.38277 0 11.9985C0 18.6141 5.38212 24 11.9969 24C15.0307 23.9999 17.9491 22.8542 20.1516 20.7988C20.3654 20.6003 20.4912 20.3269 20.5018 20.0377C20.5123 19.7485 20.4068 19.4668 20.2081 19.2538C20.1129 19.1501 19.998 19.066 19.8697 19.0063C19.7415 18.9466 19.6026 18.9125 19.4609 18.9059C19.3192 18.8993 19.1776 18.9203 19.0443 18.9678C18.9109 19.0153 18.7884 19.0884 18.6837 19.1827C17.7355 20.0689 16.6152 20.7571 15.3902 21.2062C14.1653 21.6552 12.8608 21.8557 11.5552 21.7957C10.2496 21.7357 8.96977 21.4163 7.79255 20.8568C6.61534 20.2974 5.56502 19.5093 4.70465 18.54L9.81704 10.4442V14.18C9.81704 15.9753 10.5227 16.5562 11.1155 16.7262C11.7083 16.8961 12.6147 16.7787 13.5651 15.2584L16.3879 10.7563C16.4757 10.611 16.5604 10.4874 16.6357 10.3793V12.669C16.6357 14.3469 17.3194 15.6879 18.5175 16.3492C19.0623 16.6389 19.6762 16.7789 20.2948 16.7544C20.9134 16.73 21.514 16.542 22.0335 16.2101C23.3508 15.3666 24.069 13.8401 23.9937 12.0015H24.0063Z" fill="white"/>
</g>
<defs>
<clipPath id="clip0">
<rect width="24" height="24" fill="white"/>
</clipPath>
</defs>
</svg>
