<svg width="713" height="312" viewBox="0 0 713 312" fill="none" xmlns="http://www.w3.org/2000/svg">
<path opacity="0.2" d="M0 311H712" stroke="white"/>
<path opacity="0.2" d="M0 269H712" stroke="white"/>
<path opacity="0.2" d="M0 227H712" stroke="white"/>
<path opacity="0.2" d="M0 185H712" stroke="white"/>
<path opacity="0.2" d="M0 143H712" stroke="white"/>
<path opacity="0.2" d="M0 101H712" stroke="white"/>
<path opacity="0.2" d="M0 59H712" stroke="white"/>
<path opacity="0.2" d="M0 17H712" stroke="white"/>
<path opacity="0.6" d="M2.87287 304.909H3.71094L3.71804 304.089C5.25568 303.972 6.14702 303.155 6.15057 301.923C6.14702 300.712 5.23438 300.069 3.97017 299.785L3.76065 299.735L3.77486 297.96C4.24716 298.07 4.5348 298.371 4.57741 298.819H6.05114C6.03338 297.643 5.15625 296.802 3.78906 296.653L3.79616 295.818H2.9581L2.95099 296.646C1.5625 296.781 0.582386 297.619 0.589489 298.83C0.585938 299.902 1.34233 300.516 2.57102 300.811L2.91193 300.896L2.89418 302.775C2.31534 302.665 1.92472 302.31 1.88565 301.717H0.397727C0.433239 303.151 1.37429 303.954 2.87997 304.085L2.87287 304.909ZM3.73224 302.775L3.74645 301.116C4.29688 301.29 4.59517 301.514 4.59872 301.919C4.59517 302.349 4.26847 302.668 3.73224 302.775ZM2.92259 299.518C2.47869 299.366 2.15909 299.135 2.16619 298.727C2.16619 298.347 2.43608 298.052 2.93679 297.949L2.92259 299.518ZM9.79847 304.099C11.4178 304.099 12.5186 303.045 12.5151 301.575C12.5186 300.183 11.5456 299.181 10.2353 299.181C9.59606 299.181 9.04563 299.447 8.78995 299.806H8.74734L8.93555 297.984H12.1138V296.727H7.66779L7.32333 300.562L8.69052 300.808C8.91424 300.506 9.34748 300.317 9.77717 300.317C10.5087 300.321 11.0343 300.85 11.0343 301.614C11.0343 302.37 10.5194 302.892 9.79847 302.892C9.18768 302.892 8.69407 302.509 8.65856 301.944H7.16708C7.19549 303.201 8.29279 304.099 9.79847 304.099ZM16.4391 304.16C18.2679 304.16 19.3723 302.768 19.3759 300.371C19.3794 297.991 18.2608 296.628 16.4391 296.628C14.6138 296.628 13.5059 297.988 13.5023 300.371C13.4952 302.761 14.6067 304.156 16.4391 304.16ZM16.4391 302.885C15.6046 302.885 15.0648 302.047 15.0684 300.371C15.0719 298.719 15.6081 297.888 16.4391 297.888C17.2665 297.888 17.8063 298.719 17.8063 300.371C17.8098 302.047 17.2701 302.885 16.4391 302.885ZM21.068 304.092C21.5225 304.092 21.9167 303.712 21.9203 303.24C21.9167 302.775 21.5225 302.395 21.068 302.395C20.5993 302.395 20.2122 302.775 20.2157 303.24C20.2122 303.712 20.5993 304.092 21.068 304.092ZM25.6969 304.16C27.5257 304.16 28.6301 302.768 28.6337 300.371C28.6373 297.991 27.5186 296.628 25.6969 296.628C23.8716 296.628 22.7637 297.988 22.7601 300.371C22.753 302.761 23.8645 304.156 25.6969 304.16ZM25.6969 302.885C24.8624 302.885 24.3226 302.047 24.3262 300.371C24.3297 298.719 24.8659 297.888 25.6969 297.888C26.5243 297.888 27.0641 298.719 27.0641 300.371C27.0676 302.047 26.5279 302.885 25.6969 302.885ZM32.5817 304.16C34.4105 304.16 35.5149 302.768 35.5185 300.371C35.522 297.991 34.4034 296.628 32.5817 296.628C30.7564 296.628 29.6484 297.988 29.6449 300.371C29.6378 302.761 30.7493 304.156 32.5817 304.16ZM32.5817 302.885C31.7472 302.885 31.2074 302.047 31.2109 300.371C31.2145 298.719 31.7507 297.888 32.5817 297.888C33.4091 297.888 33.9489 298.719 33.9489 300.371C33.9524 302.047 33.4126 302.885 32.5817 302.885Z" fill="white"/>
<path opacity="0.6" d="M2.87287 262.909H3.71094L3.71804 262.089C5.25568 261.972 6.14702 261.155 6.15057 259.923C6.14702 258.712 5.23438 258.069 3.97017 257.785L3.76065 257.735L3.77486 255.96C4.24716 256.07 4.5348 256.371 4.57741 256.819H6.05114C6.03338 255.643 5.15625 254.802 3.78906 254.653L3.79616 253.818H2.9581L2.95099 254.646C1.5625 254.781 0.582386 255.619 0.589489 256.83C0.585938 257.902 1.34233 258.516 2.57102 258.811L2.91193 258.896L2.89418 260.775C2.31534 260.665 1.92472 260.31 1.88565 259.717H0.397727C0.433239 261.151 1.37429 261.954 2.87997 262.085L2.87287 262.909ZM3.73224 260.775L3.74645 259.116C4.29688 259.29 4.59517 259.514 4.59872 259.919C4.59517 260.349 4.26847 260.668 3.73224 260.775ZM2.92259 257.518C2.47869 257.366 2.15909 257.135 2.16619 256.727C2.16619 256.347 2.43608 256.052 2.93679 255.949L2.92259 257.518ZM7.42987 262H9.01722L12.0357 256.002V254.727H6.93271V255.984H10.4448V256.034L7.42987 262ZM15.6481 262.099C17.2674 262.099 18.3683 261.045 18.3647 259.575C18.3683 258.183 17.3952 257.181 16.0849 257.181C15.4457 257.181 14.8952 257.447 14.6396 257.806H14.5969L14.7852 255.984H17.9634V254.727H13.5174L13.1729 258.562L14.5401 258.808C14.7638 258.506 15.1971 258.317 15.6268 258.317C16.3583 258.321 16.8839 258.85 16.8839 259.614C16.8839 260.37 16.369 260.892 15.6481 260.892C15.0373 260.892 14.5437 260.509 14.5082 259.944H13.0167C13.0451 261.201 14.1424 262.099 15.6481 262.099ZM20.111 262.092C20.5655 262.092 20.9597 261.712 20.9632 261.24C20.9597 260.775 20.5655 260.395 20.111 260.395C19.6422 260.395 19.2551 260.775 19.2587 261.24C19.2551 261.712 19.6422 262.092 20.111 262.092ZM24.7399 262.16C26.5687 262.16 27.6731 260.768 27.6767 258.371C27.6802 255.991 26.5616 254.628 24.7399 254.628C22.9146 254.628 21.8066 255.988 21.8031 258.371C21.796 260.761 22.9075 262.156 24.7399 262.16ZM24.7399 260.885C23.9054 260.885 23.3656 260.047 23.3691 258.371C23.3727 256.719 23.9089 255.888 24.7399 255.888C25.5673 255.888 26.1071 256.719 26.1071 258.371C26.1106 260.047 25.5708 260.885 24.7399 260.885ZM31.6246 262.16C33.4535 262.16 34.5579 260.768 34.5614 258.371C34.565 255.991 33.4464 254.628 31.6246 254.628C29.7994 254.628 28.6914 255.988 28.6879 258.371C28.6808 260.761 29.7923 262.156 31.6246 262.16ZM31.6246 260.885C30.7901 260.885 30.2504 260.047 30.2539 258.371C30.2575 256.719 30.7937 255.888 31.6246 255.888C32.4521 255.888 32.9918 256.719 32.9918 258.371C32.9954 260.047 32.4556 260.885 31.6246 260.885Z" fill="white"/>
<path opacity="0.6" d="M2.87287 220.909H3.71094L3.71804 220.089C5.25568 219.972 6.14702 219.155 6.15057 217.923C6.14702 216.712 5.23438 216.069 3.97017 215.785L3.76065 215.735L3.77486 213.96C4.24716 214.07 4.5348 214.371 4.57741 214.819H6.05114C6.03338 213.643 5.15625 212.802 3.78906 212.653L3.79616 211.818H2.9581L2.95099 212.646C1.5625 212.781 0.582386 213.619 0.589489 214.83C0.585938 215.902 1.34233 216.516 2.57102 216.811L2.91193 216.896L2.89418 218.775C2.31534 218.665 1.92472 218.31 1.88565 217.717H0.397727C0.433239 219.151 1.37429 219.954 2.87997 220.085L2.87287 220.909ZM3.73224 218.775L3.74645 217.116C4.29688 217.29 4.59517 217.514 4.59872 217.919C4.59517 218.349 4.26847 218.668 3.73224 218.775ZM2.92259 215.518C2.47869 215.366 2.15909 215.135 2.16619 214.727C2.16619 214.347 2.43608 214.052 2.93679 213.949L2.92259 215.518ZM10.3063 212.727H8.86097L7.06055 213.867V215.231L8.72603 214.187H8.76864V220H10.3063V212.727ZM14.8864 220.16C16.7152 220.16 17.8196 218.768 17.8232 216.371C17.8267 213.991 16.7081 212.628 14.8864 212.628C13.0611 212.628 11.9531 213.988 11.9496 216.371C11.9425 218.761 13.054 220.156 14.8864 220.16ZM14.8864 218.885C14.0518 218.885 13.5121 218.047 13.5156 216.371C13.5192 214.719 14.0554 213.888 14.8864 213.888C15.7138 213.888 16.2536 214.719 16.2536 216.371C16.2571 218.047 15.7173 218.885 14.8864 218.885ZM21.7711 220.16C23.6 220.16 24.7044 218.768 24.7079 216.371C24.7115 213.991 23.5929 212.628 21.7711 212.628C19.9458 212.628 18.8379 213.988 18.8343 216.371C18.8272 218.761 19.9387 220.156 21.7711 220.16ZM21.7711 218.885C20.9366 218.885 20.3968 218.047 20.4004 216.371C20.4039 214.719 20.9402 213.888 21.7711 213.888C22.5985 213.888 23.1383 214.719 23.1383 216.371C23.1419 218.047 22.6021 218.885 21.7711 218.885ZM26.4 220.092C26.8546 220.092 27.2488 219.712 27.2523 219.24C27.2488 218.775 26.8546 218.395 26.4 218.395C25.9313 218.395 25.5442 218.775 25.5478 219.24C25.5442 219.712 25.9313 220.092 26.4 220.092ZM31.0289 220.16C32.8578 220.16 33.9622 218.768 33.9657 216.371C33.9693 213.991 32.8507 212.628 31.0289 212.628C29.2037 212.628 28.0957 213.988 28.0922 216.371C28.085 218.761 29.1966 220.156 31.0289 220.16ZM31.0289 218.885C30.1944 218.885 29.6547 218.047 29.6582 216.371C29.6618 214.719 30.198 213.888 31.0289 213.888C31.8564 213.888 32.3961 214.719 32.3961 216.371C32.3997 218.047 31.8599 218.885 31.0289 218.885ZM37.9137 220.16C39.7425 220.16 40.8469 218.768 40.8505 216.371C40.854 213.991 39.7354 212.628 37.9137 212.628C36.0884 212.628 34.9805 213.988 34.9769 216.371C34.9698 218.761 36.0813 220.156 37.9137 220.16ZM37.9137 218.885C37.0792 218.885 36.5394 218.047 36.543 216.371C36.5465 214.719 37.0827 213.888 37.9137 213.888C38.7411 213.888 39.2809 214.719 39.2809 216.371C39.2844 218.047 38.7447 218.885 37.9137 218.885Z" fill="white"/>
<path opacity="0.6" d="M2.87287 178.909H3.71094L3.71804 178.089C5.25568 177.972 6.14702 177.155 6.15057 175.923C6.14702 174.712 5.23438 174.069 3.97017 173.785L3.76065 173.735L3.77486 171.96C4.24716 172.07 4.5348 172.371 4.57741 172.819H6.05114C6.03338 171.643 5.15625 170.802 3.78906 170.653L3.79616 169.818H2.9581L2.95099 170.646C1.5625 170.781 0.582386 171.619 0.589489 172.83C0.585938 173.902 1.34233 174.516 2.57102 174.811L2.91193 174.896L2.89418 176.775C2.31534 176.665 1.92472 176.31 1.88565 175.717H0.397727C0.433239 177.151 1.37429 177.954 2.87997 178.085L2.87287 178.909ZM3.73224 176.775L3.74645 175.116C4.29688 175.29 4.59517 175.514 4.59872 175.919C4.59517 176.349 4.26847 176.668 3.73224 176.775ZM2.92259 173.518C2.47869 173.366 2.15909 173.135 2.16619 172.727C2.16619 172.347 2.43608 172.052 2.93679 171.949L2.92259 173.518ZM10.3063 170.727H8.86097L7.06055 171.867V173.231L8.72603 172.187H8.76864V178H10.3063V170.727ZM12.0348 178H17.2195V176.743H14.1655V176.693L15.2273 175.653C16.7223 174.289 17.1236 173.607 17.1236 172.78C17.1236 171.519 16.0938 170.628 14.5348 170.628C13.0078 170.628 11.9602 171.54 11.9638 172.968H13.4233C13.4197 172.272 13.8601 171.846 14.5241 171.846C15.1634 171.846 15.6392 172.244 15.6392 172.883C15.6392 173.462 15.2841 173.859 14.6236 174.495L12.0348 176.892V178ZM20.9899 178.099C22.6092 178.099 23.71 177.045 23.7065 175.575C23.71 174.183 22.737 173.181 21.4267 173.181C20.7875 173.181 20.237 173.447 19.9814 173.806H19.9387L20.127 171.984H23.3052V170.727H18.8592L18.5147 174.562L19.8819 174.808C20.1056 174.506 20.5389 174.317 20.9686 174.317C21.7001 174.321 22.2257 174.85 22.2257 175.614C22.2257 176.37 21.7108 176.892 20.9899 176.892C20.3791 176.892 19.8855 176.509 19.85 175.944H18.3585C18.3869 177.201 19.4842 178.099 20.9899 178.099ZM25.4528 178.092C25.9073 178.092 26.3015 177.712 26.305 177.24C26.3015 176.775 25.9073 176.395 25.4528 176.395C24.984 176.395 24.5969 176.775 24.6005 177.24C24.5969 177.712 24.984 178.092 25.4528 178.092ZM30.0817 178.16C31.9105 178.16 33.0149 176.768 33.0185 174.371C33.022 171.991 31.9034 170.628 30.0817 170.628C28.2564 170.628 27.1484 171.988 27.1449 174.371C27.1378 176.761 28.2493 178.156 30.0817 178.16ZM30.0817 176.885C29.2472 176.885 28.7074 176.047 28.7109 174.371C28.7145 172.719 29.2507 171.888 30.0817 171.888C30.9091 171.888 31.4489 172.719 31.4489 174.371C31.4524 176.047 30.9126 176.885 30.0817 176.885ZM36.9664 178.16C38.7953 178.16 39.8997 176.768 39.9032 174.371C39.9068 171.991 38.7882 170.628 36.9664 170.628C35.1412 170.628 34.0332 171.988 34.0297 174.371C34.0225 176.761 35.1341 178.156 36.9664 178.16ZM36.9664 176.885C36.1319 176.885 35.5922 176.047 35.5957 174.371C35.5993 172.719 36.1355 171.888 36.9664 171.888C37.7939 171.888 38.3336 172.719 38.3336 174.371C38.3372 176.047 37.7974 176.885 36.9664 176.885Z" fill="white"/>
<path opacity="0.6" d="M2.87287 136.909H3.71094L3.71804 136.089C5.25568 135.972 6.14702 135.155 6.15057 133.923C6.14702 132.712 5.23438 132.069 3.97017 131.785L3.76065 131.735L3.77486 129.96C4.24716 130.07 4.5348 130.371 4.57741 130.819H6.05114C6.03338 129.643 5.15625 128.802 3.78906 128.653L3.79616 127.818H2.9581L2.95099 128.646C1.5625 128.781 0.582386 129.619 0.589489 130.83C0.585938 131.902 1.34233 132.516 2.57102 132.811L2.91193 132.896L2.89418 134.775C2.31534 134.665 1.92472 134.31 1.88565 133.717H0.397727C0.433239 135.151 1.37429 135.954 2.87997 136.085L2.87287 136.909ZM3.73224 134.775L3.74645 133.116C4.29688 133.29 4.59517 133.514 4.59872 133.919C4.59517 134.349 4.26847 134.668 3.73224 134.775ZM2.92259 131.518C2.47869 131.366 2.15909 131.135 2.16619 130.727C2.16619 130.347 2.43608 130.052 2.93679 129.949L2.92259 131.518ZM10.3063 128.727H8.86097L7.06055 129.867V131.231L8.72603 130.187H8.76864V136H10.3063V128.727ZM14.6911 136.099C16.3104 136.099 17.4112 135.045 17.4077 133.575C17.4112 132.183 16.4382 131.181 15.1278 131.181C14.4886 131.181 13.9382 131.447 13.6825 131.806H13.6399L13.8281 129.984H17.0064V128.727H12.5604L12.2159 132.562L13.5831 132.808C13.8068 132.506 14.2401 132.317 14.6697 132.317C15.4013 132.321 15.9268 132.85 15.9268 133.614C15.9268 134.37 15.4119 134.892 14.6911 134.892C14.0803 134.892 13.5866 134.509 13.5511 133.944H12.0597C12.0881 135.201 13.1854 136.099 14.6911 136.099ZM21.3317 136.16C23.1605 136.16 24.2649 134.768 24.2685 132.371C24.272 129.991 23.1534 128.628 21.3317 128.628C19.5064 128.628 18.3984 129.988 18.3949 132.371C18.3878 134.761 19.4993 136.156 21.3317 136.16ZM21.3317 134.885C20.4972 134.885 19.9574 134.047 19.9609 132.371C19.9645 130.719 20.5007 129.888 21.3317 129.888C22.1591 129.888 22.6989 130.719 22.6989 132.371C22.7024 134.047 22.1626 134.885 21.3317 134.885ZM25.9606 136.092C26.4151 136.092 26.8093 135.712 26.8129 135.24C26.8093 134.775 26.4151 134.395 25.9606 134.395C25.4918 134.395 25.1048 134.775 25.1083 135.24C25.1048 135.712 25.4918 136.092 25.9606 136.092ZM30.5895 136.16C32.4183 136.16 33.5227 134.768 33.5263 132.371C33.5298 129.991 32.4112 128.628 30.5895 128.628C28.7642 128.628 27.6562 129.988 27.6527 132.371C27.6456 134.761 28.7571 136.156 30.5895 136.16ZM30.5895 134.885C29.755 134.885 29.2152 134.047 29.2188 132.371C29.2223 130.719 29.7585 129.888 30.5895 129.888C31.4169 129.888 31.9567 130.719 31.9567 132.371C31.9602 134.047 31.4205 134.885 30.5895 134.885ZM37.4743 136.16C39.3031 136.16 40.4075 134.768 40.411 132.371C40.4146 129.991 39.296 128.628 37.4743 128.628C35.649 128.628 34.541 129.988 34.5375 132.371C34.5304 134.761 35.6419 136.156 37.4743 136.16ZM37.4743 134.885C36.6397 134.885 36.1 134.047 36.1035 132.371C36.1071 130.719 36.6433 129.888 37.4743 129.888C38.3017 129.888 38.8414 130.719 38.8414 132.371C38.845 134.047 38.3052 134.885 37.4743 134.885Z" fill="white"/>
<path opacity="0.6" d="M2.87287 94.9091H3.71094L3.71804 94.0888C5.25568 93.9716 6.14702 93.1548 6.15057 91.9226C6.14702 90.7116 5.23438 90.0689 3.97017 89.7848L3.76065 89.7351L3.77486 87.9595C4.24716 88.0696 4.5348 88.3714 4.57741 88.8189H6.05114C6.03338 87.6435 5.15625 86.8018 3.78906 86.6527L3.79616 85.8182H2.9581L2.95099 86.6456C1.5625 86.7805 0.582386 87.6186 0.589489 88.8295C0.585938 89.902 1.34233 90.5163 2.57102 90.8111L2.91193 90.8963L2.89418 92.7749C2.31534 92.6648 1.92472 92.3097 1.88565 91.7166H0.397727C0.433239 93.1513 1.37429 93.9538 2.87997 94.0852L2.87287 94.9091ZM3.73224 92.7749L3.74645 91.1165C4.29688 91.2905 4.59517 91.5142 4.59872 91.919C4.59517 92.3487 4.26847 92.6683 3.73224 92.7749ZM2.92259 89.5185C2.47869 89.3658 2.15909 89.1349 2.16619 88.7266C2.16619 88.3466 2.43608 88.0518 2.93679 87.9489L2.92259 89.5185ZM10.3063 86.7273H8.86097L7.06055 87.8672V89.2308L8.72603 88.1868H8.76864V94H10.3063V86.7273ZM12.3224 94H13.9098L16.9283 88.0021V86.7273H11.8253V87.9844H15.3374V88.0341L12.3224 94ZM20.5407 94.0994C22.16 94.0994 23.2608 93.0447 23.2573 91.5746C23.2608 90.1825 22.2878 89.1811 20.9775 89.1811C20.3382 89.1811 19.7878 89.4474 19.5321 89.8061H19.4895L19.6777 87.9844H22.856V86.7273H18.41L18.0655 90.5625L19.4327 90.8075C19.6564 90.5057 20.0897 90.3175 20.5194 90.3175C21.2509 90.321 21.7765 90.8501 21.7765 91.6136C21.7765 92.37 21.2615 92.892 20.5407 92.892C19.9299 92.892 19.4363 92.5085 19.4007 91.9439H17.9093C17.9377 93.201 19.035 94.0994 20.5407 94.0994ZM25.0036 94.0923C25.4581 94.0923 25.8523 93.7124 25.8558 93.2401C25.8523 92.7749 25.4581 92.3949 25.0036 92.3949C24.5348 92.3949 24.1477 92.7749 24.1513 93.2401C24.1477 93.7124 24.5348 94.0923 25.0036 94.0923ZM29.6325 94.1598C31.4613 94.1598 32.5657 92.7678 32.5692 90.3707C32.5728 87.9915 31.4542 86.6278 29.6325 86.6278C27.8072 86.6278 26.6992 87.9879 26.6957 90.3707C26.6886 92.7607 27.8001 94.1562 29.6325 94.1598ZM29.6325 92.8849C28.7979 92.8849 28.2582 92.0469 28.2617 90.3707C28.2653 88.7195 28.8015 87.8885 29.6325 87.8885C30.4599 87.8885 30.9996 88.7195 30.9996 90.3707C31.0032 92.0469 30.4634 92.8849 29.6325 92.8849ZM36.5172 94.1598C38.3461 94.1598 39.4505 92.7678 39.454 90.3707C39.4576 87.9915 38.339 86.6278 36.5172 86.6278C34.6919 86.6278 33.584 87.9879 33.5804 90.3707C33.5733 92.7607 34.6848 94.1562 36.5172 94.1598ZM36.5172 92.8849C35.6827 92.8849 35.1429 92.0469 35.1465 90.3707C35.15 88.7195 35.6863 87.8885 36.5172 87.8885C37.3446 87.8885 37.8844 88.7195 37.8844 90.3707C37.888 92.0469 37.3482 92.8849 36.5172 92.8849Z" fill="white"/>
<path opacity="0.6" d="M2.87287 52.9091H3.71094L3.71804 52.0888C5.25568 51.9716 6.14702 51.1548 6.15057 49.9226C6.14702 48.7116 5.23438 48.0689 3.97017 47.7848L3.76065 47.7351L3.77486 45.9595C4.24716 46.0696 4.5348 46.3714 4.57741 46.8189H6.05114C6.03338 45.6435 5.15625 44.8018 3.78906 44.6527L3.79616 43.8182H2.9581L2.95099 44.6456C1.5625 44.7805 0.582386 45.6186 0.589489 46.8295C0.585938 47.902 1.34233 48.5163 2.57102 48.8111L2.91193 48.8963L2.89418 50.7749C2.31534 50.6648 1.92472 50.3097 1.88565 49.7166H0.397727C0.433239 51.1513 1.37429 51.9538 2.87997 52.0852L2.87287 52.9091ZM3.73224 50.7749L3.74645 49.1165C4.29688 49.2905 4.59517 49.5142 4.59872 49.919C4.59517 50.3487 4.26847 50.6683 3.73224 50.7749ZM2.92259 47.5185C2.47869 47.3658 2.15909 47.1349 2.16619 46.7266C2.16619 46.3466 2.43608 46.0518 2.93679 45.9489L2.92259 47.5185ZM7.14222 52H12.3269V50.7429H9.2729V50.6932L10.3347 49.6527C11.8297 48.2891 12.231 47.6072 12.231 46.7798C12.231 45.5192 11.2012 44.6278 9.64222 44.6278C8.11523 44.6278 7.06765 45.5405 7.0712 46.968H8.53072C8.52717 46.272 8.96751 45.8459 9.63157 45.8459C10.2708 45.8459 10.7466 46.2436 10.7466 46.8828C10.7466 47.4616 10.3915 47.8594 9.731 48.495L7.14222 50.892V52ZM16.2926 52.1598C18.1214 52.1598 19.2259 50.7678 19.2294 48.3707C19.233 45.9915 18.1143 44.6278 16.2926 44.6278C14.4673 44.6278 13.3594 45.9879 13.3558 48.3707C13.3487 50.7607 14.4602 52.1562 16.2926 52.1598ZM16.2926 50.8849C15.4581 50.8849 14.9183 50.0469 14.9219 48.3707C14.9254 46.7195 15.4616 45.8885 16.2926 45.8885C17.12 45.8885 17.6598 46.7195 17.6598 48.3707C17.6634 50.0469 17.1236 50.8849 16.2926 50.8849ZM23.1774 52.1598C25.0062 52.1598 26.1106 50.7678 26.1142 48.3707C26.1177 45.9915 24.9991 44.6278 23.1774 44.6278C21.3521 44.6278 20.2441 45.9879 20.2406 48.3707C20.2335 50.7607 21.345 52.1562 23.1774 52.1598ZM23.1774 50.8849C22.3429 50.8849 21.8031 50.0469 21.8066 48.3707C21.8102 46.7195 22.3464 45.8885 23.1774 45.8885C24.0048 45.8885 24.5446 46.7195 24.5446 48.3707C24.5481 50.0469 24.0083 50.8849 23.1774 50.8849ZM27.8063 52.0923C28.2608 52.0923 28.655 51.7124 28.6586 51.2401C28.655 50.7749 28.2608 50.3949 27.8063 50.3949C27.3375 50.3949 26.9505 50.7749 26.954 51.2401C26.9505 51.7124 27.3375 52.0923 27.8063 52.0923ZM32.4352 52.1598C34.264 52.1598 35.3684 50.7678 35.372 48.3707C35.3755 45.9915 34.2569 44.6278 32.4352 44.6278C30.6099 44.6278 29.502 45.9879 29.4984 48.3707C29.4913 50.7607 30.6028 52.1562 32.4352 52.1598ZM32.4352 50.8849C31.6007 50.8849 31.0609 50.0469 31.0645 48.3707C31.068 46.7195 31.6042 45.8885 32.4352 45.8885C33.2626 45.8885 33.8024 46.7195 33.8024 48.3707C33.8059 50.0469 33.2662 50.8849 32.4352 50.8849ZM39.32 52.1598C41.1488 52.1598 42.2532 50.7678 42.2567 48.3707C42.2603 45.9915 41.1417 44.6278 39.32 44.6278C37.4947 44.6278 36.3867 45.9879 36.3832 48.3707C36.3761 50.7607 37.4876 52.1562 39.32 52.1598ZM39.32 50.8849C38.4854 50.8849 37.9457 50.0469 37.9492 48.3707C37.9528 46.7195 38.489 45.8885 39.32 45.8885C40.1474 45.8885 40.6871 46.7195 40.6871 48.3707C40.6907 50.0469 40.1509 50.8849 39.32 50.8849Z" fill="white"/>
<path opacity="0.6" d="M2.87287 10.9091H3.71094L3.71804 10.0888C5.25568 9.97159 6.14702 9.15483 6.15057 7.92259C6.14702 6.71165 5.23438 6.06889 3.97017 5.7848L3.76065 5.73509L3.77486 3.95952C4.24716 4.0696 4.5348 4.37145 4.57741 4.81889H6.05114C6.03338 3.64347 5.15625 2.80185 3.78906 2.6527L3.79616 1.81818H2.9581L2.95099 2.6456C1.5625 2.78054 0.582386 3.61861 0.589489 4.82955C0.585938 5.90199 1.34233 6.51634 2.57102 6.81108L2.91193 6.89631L2.89418 8.77486C2.31534 8.66477 1.92472 8.30966 1.88565 7.71662H0.397727C0.433239 9.15128 1.37429 9.95384 2.87997 10.0852L2.87287 10.9091ZM3.73224 8.77486L3.74645 7.11648C4.29688 7.29048 4.59517 7.5142 4.59872 7.91903C4.59517 8.34872 4.26847 8.66832 3.73224 8.77486ZM2.92259 5.51847C2.47869 5.36577 2.15909 5.13494 2.16619 4.72656C2.16619 4.34659 2.43608 4.05185 2.93679 3.94886L2.92259 5.51847ZM7.14222 10H12.3269V8.7429H9.2729V8.69318L10.3347 7.6527C11.8297 6.28906 12.231 5.60724 12.231 4.77983C12.231 3.51918 11.2012 2.62784 9.64222 2.62784C8.11523 2.62784 7.06765 3.54048 7.0712 4.96804H8.53072C8.52717 4.27202 8.96751 3.84588 9.63157 3.84588C10.2708 3.84588 10.7466 4.24361 10.7466 4.88281C10.7466 5.46165 10.3915 5.85938 9.731 6.49503L7.14222 8.89205V10ZM13.4411 10H18.6257V8.7429H15.5717V8.69318L16.6335 7.6527C18.1286 6.28906 18.5298 5.60724 18.5298 4.77983C18.5298 3.51918 17.5 2.62784 15.9411 2.62784C14.4141 2.62784 13.3665 3.54048 13.37 4.96804H14.8295C14.826 4.27202 15.2663 3.84588 15.9304 3.84588C16.5696 3.84588 17.0455 4.24361 17.0455 4.88281C17.0455 5.46165 16.6903 5.85938 16.0298 6.49503L13.4411 8.89205V10ZM22.3961 10.0994C24.0154 10.0994 25.1163 9.04474 25.1127 7.57457C25.1163 6.18253 24.1433 5.18111 22.8329 5.18111C22.1937 5.18111 21.6433 5.44744 21.3876 5.80611H21.345L21.5332 3.98438H24.7115V2.72727H20.2654L19.921 6.5625L21.2882 6.80753C21.5119 6.50568 21.9451 6.31747 22.3748 6.31747C23.1064 6.32102 23.6319 6.85014 23.6319 7.61364C23.6319 8.37003 23.117 8.89205 22.3961 8.89205C21.7853 8.89205 21.2917 8.50852 21.2562 7.94389H19.7647C19.7931 9.20099 20.8904 10.0994 22.3961 10.0994ZM26.859 10.0923C27.3136 10.0923 27.7077 9.71236 27.7113 9.24006C27.7077 8.77486 27.3136 8.39489 26.859 8.39489C26.3903 8.39489 26.0032 8.77486 26.0067 9.24006C26.0032 9.71236 26.3903 10.0923 26.859 10.0923ZM31.4879 10.1598C33.3168 10.1598 34.4212 8.76776 34.4247 6.37074C34.4283 3.99148 33.3097 2.62784 31.4879 2.62784C29.6626 2.62784 28.5547 3.98793 28.5511 6.37074C28.544 8.76065 29.6555 10.1562 31.4879 10.1598ZM31.4879 8.88494C30.6534 8.88494 30.1136 8.04688 30.1172 6.37074C30.1207 4.71946 30.657 3.88849 31.4879 3.88849C32.3153 3.88849 32.8551 4.71946 32.8551 6.37074C32.8587 8.04688 32.3189 8.88494 31.4879 8.88494ZM38.3727 10.1598C40.2015 10.1598 41.3059 8.76776 41.3095 6.37074C41.313 3.99148 40.1944 2.62784 38.3727 2.62784C36.5474 2.62784 35.4395 3.98793 35.4359 6.37074C35.4288 8.76065 36.5403 10.1562 38.3727 10.1598ZM38.3727 8.88494C37.5382 8.88494 36.9984 8.04688 37.002 6.37074C37.0055 4.71946 37.5417 3.88849 38.3727 3.88849C39.2001 3.88849 39.7399 4.71946 39.7399 6.37074C39.7434 8.04688 39.2037 8.88494 38.3727 8.88494Z" fill="white"/>
<path d="M90 259L98.254 248L106.508 259H115.941L121.837 272L128.912 259V248L144.241 239L152.495 259V272L159.57 259H165.465V254L177.257 259L189.048 272H197.302L213.81 279L219.706 272L226.781 279L233.266 259L243.289 268H250.954L258.618 259L272.178 132L280.432 146.5L291.634 116.5H296.351L307.553 59L315.807 91L329.367 71L334.673 94C337.621 99 343.634 109.5 344.106 111.5C344.578 113.5 349.019 112.333 351.181 111.5C351.181 117.833 351.181 131.5 351.181 135.5C351.181 139.5 355.505 165.5 357.666 178L365.331 116.5L369.458 151.5L380.07 143L384.787 158C385.966 163.833 388.442 176.6 388.914 181C389.385 185.4 392.255 197.833 393.63 203.5L410.138 161.5L422.519 186L429.005 191L436.669 219L443.154 203.5L446.692 212.5L473.223 161.5H483.245L490.32 199.5H499.164H505.649L518.62 158L527.463 212.5L536.307 206L543.972 216L560.48 206L572.861 226.5H582.883L593.496 243L598.802 234.5L607.645 248C609.021 248.333 612.008 250 612.952 254C613.895 258 618.847 262.667 621.206 264.5L625.333 254H630.049L645.378 226.5H650.684L657.17 216L665.424 226.5L678.984 212.5H684.88L688.417 206L712 226.5" stroke="#1058FB" stroke-width="3"/>
</svg>
