<svg width="56" height="56" viewBox="0 0 56 56" fill="none" xmlns="http://www.w3.org/2000/svg">
<path d="M56 28C56 43.464 43.464 56 28 56C12.536 56 0 43.464 0 28C0 12.536 12.536 0 28 0C43.464 0 56 12.536 56 28Z" fill="#1058FB"/>
<path d="M17.1613 27.5483C17.1613 26.3013 18.0833 25.2903 19.2206 25.2903H32.2632C33.4005 25.2903 34.3225 26.3013 34.3225 27.5483C34.3225 28.7954 33.4005 29.8064 32.2632 29.8064H19.2206C18.0833 29.8064 17.1613 28.7954 17.1613 27.5483Z" fill="white"/>
<path d="M37.0323 16.5016C37.0323 15.3694 37.8411 14.4517 38.8388 14.4517C39.8365 14.4517 40.6453 15.3694 40.6453 16.5016V38.5953C40.6453 39.7274 39.8365 40.6452 38.8388 40.6452C37.8411 40.6452 37.0323 39.7274 37.0323 38.5953V16.5016Z" fill="white"/>
<path d="M15.3549 16.5016C15.3549 15.3694 16.1636 14.4517 17.1613 14.4517C18.159 14.4517 18.9678 15.3694 18.9678 16.5016V38.5953C18.9678 39.7274 18.159 40.6452 17.1613 40.6452C16.1636 40.6452 15.3549 39.7274 15.3549 38.5953V16.5016Z" fill="white"/>
</svg>
