<svg width="155" height="48" viewBox="0 0 155 48" fill="none" xmlns="http://www.w3.org/2000/svg">
<ellipse cx="144.162" cy="10.7389" rx="10.8374" ry="10.7389" fill="#D15C22"/>
<path fill-rule="evenodd" clip-rule="evenodd" d="M144.1 9.46563L145.303 8.30218C145.615 8.00089 146.12 8.00089 146.432 8.30218C146.744 8.60348 146.744 9.09197 146.432 9.39327L144.726 11.0427C144.708 11.0644 144.688 11.0854 144.667 11.1055C144.356 11.4068 143.85 11.4068 143.539 11.1055L139.394 7.09953C139.083 6.79823 139.083 6.30974 139.394 6.00844C139.706 5.70715 140.211 5.70715 140.523 6.00844L144.1 9.46563ZM139.959 8.90282C140.4 8.90282 140.757 9.29606 140.757 9.78115V14.8169C140.757 15.302 140.4 15.6953 139.959 15.6953C139.518 15.6953 139.161 15.302 139.161 14.8169V9.78115C139.161 9.29606 139.518 8.90282 139.959 8.90282ZM149.164 6.62412C149.164 6.15929 148.807 5.78247 148.366 5.78247C147.925 5.78247 147.568 6.15929 147.568 6.62412V14.8536C147.568 15.3185 147.925 15.6953 148.366 15.6953C148.807 15.6953 149.164 15.3185 149.164 14.8536V6.62412Z" fill="white"/>
<path d="M41.3883 16.7611C42.2654 16.5031 43.2523 16.5658 44.0591 17.0136C45.2153 17.6299 45.9482 18.9681 45.7879 20.2722C45.6961 21.3435 45.0442 22.3413 44.1041 22.868C43.0776 23.4699 41.7359 23.4431 40.7166 22.8393C39.7351 22.2858 39.103 21.2056 39.0616 20.0895C38.9661 18.6223 39.9908 17.2017 41.3883 16.7611Z" fill="white"/>
<path d="M3.93353 18.2837C5.77945 18.3128 7.62721 18.2655 9.47497 18.3092C12.0611 25.1356 14.7063 31.9421 17.3164 38.7613C19.9727 31.9512 22.5847 25.1229 25.1837 18.291C27.0278 18.2946 28.8737 18.2855 30.7196 18.2982C31.9933 27.9204 33.339 37.5317 34.6164 47.1539C32.8203 47.1521 31.0261 47.1684 29.2318 47.1448C28.4049 40.9659 27.6056 34.7796 26.7325 28.6062C24.4749 34.7924 22.2063 40.975 19.9303 47.1539C18.2837 47.1539 16.639 47.1648 14.9924 47.1484C12.7367 40.9477 10.4515 34.7578 8.18283 28.5625C7.37247 34.7596 6.52151 40.9531 5.70192 47.1503C3.80062 47.1666 1.90117 47.143 -0.00012207 47.163V47.0338C0.472433 44.3236 0.754858 41.5843 1.15542 38.8632C2.07284 32.0021 3.03641 25.1465 3.93353 18.2837Z" fill="white"/>
<path d="M81.694 21.2449C82.2111 21.2982 82.8345 21.0868 83.2819 21.3441C83.3021 23.0646 83.2819 24.7851 83.2893 26.5056C85.4878 26.5332 87.6881 26.5111 89.8885 26.5166C89.8976 28.3437 89.8958 30.1708 89.8885 31.9979C87.6753 32.0053 85.4621 31.9942 83.2471 32.0016C83.2508 34.5143 83.2453 37.0289 83.2489 39.5416C83.2563 40.3669 83.3791 41.2915 84.019 41.8815C84.8093 42.6094 86.003 42.6333 86.9895 42.3723C87.8275 42.1665 88.4582 41.547 89.067 40.9735C89.3952 42.5194 89.7931 44.0469 90.136 45.589C89.0395 47.0504 87.2572 47.883 85.4566 47.9841C83.9402 48.0632 82.3596 47.8591 81.0266 47.089C79.853 46.4327 78.9912 45.2931 78.5787 44.0193C78.1111 42.7032 78.0891 41.286 78.1019 39.9037C78.1019 37.2697 78.1038 34.6356 78.1038 32.0016C76.9174 31.9961 75.7311 32.0016 74.5447 31.9998C74.6107 31.3307 74.3137 30.5274 74.8143 29.9815C77.1081 27.0699 79.4111 24.1638 81.694 21.2449Z" fill="white"/>
<path d="M60.3829 25.9294C63.1229 25.5058 66.0971 26.2854 68.105 28.239C69.9005 29.9608 70.6986 32.4877 70.7095 34.9288C70.7242 39.0059 70.7095 43.0811 70.7169 47.1581C69.0055 47.1654 67.2923 47.1636 65.581 47.1581C65.57 43.4444 65.5865 39.7307 65.5737 36.017C65.57 34.6878 65.1655 33.2911 64.1478 32.38C62.1729 30.6126 58.7887 31.0417 57.1213 33.0263C56.7332 33.5102 56.4129 34.0981 56.4349 34.7353C56.4386 38.8762 56.4331 43.0172 56.4367 47.1581C54.7254 47.1654 53.014 47.1636 51.3027 47.1581C51.2972 40.2328 51.2954 33.3075 51.3027 26.3804C52.9591 26.3767 54.6156 26.3822 56.2702 26.3767C56.2775 27.0486 56.2738 27.7223 56.2757 28.3942C57.0389 26.8606 58.7594 26.1266 60.3829 25.9294Z" fill="white"/>
<path fill-rule="evenodd" clip-rule="evenodd" d="M106.438 26.0829C103.169 25.3441 99.5067 26.1519 97.0187 28.4462C93.044 32.0401 92.4152 38.5727 95.3067 43.0088C96.9514 45.5118 99.792 47.0728 102.733 47.4558C105.768 47.8678 109.11 47.3015 111.471 45.2396C111.534 45.175 111.6 45.1102 111.667 45.0449C112.053 44.6641 112.46 44.2638 112.632 43.7603C112.361 43.01 112.061 42.2698 111.762 41.5296C111.55 41.0055 111.338 40.4815 111.136 39.954C111.023 40.0514 110.911 40.1508 110.8 40.2502C110.288 40.7044 109.775 41.1604 109.144 41.4478C106.765 42.6022 103.868 42.8237 101.399 41.8235C100.005 41.2663 99.0196 39.9721 98.7161 38.52C100.599 38.514 102.482 38.5178 104.365 38.5216C107.613 38.5281 110.862 38.5346 114.109 38.491C114.428 35.6376 113.911 32.6264 112.294 30.2177C110.951 28.1757 108.839 26.6183 106.438 26.0829ZM98.936 34.3471C99.2541 32.7571 100.648 31.6317 102.166 31.2414C103.925 30.7931 105.942 30.8875 107.476 31.9439C108.287 32.4957 108.797 33.3851 108.977 34.338C106.587 34.3575 104.197 34.3538 101.806 34.3501C100.849 34.3486 99.8925 34.3471 98.936 34.3471Z" fill="white"/>
<path d="M126.452 26.4484C128.065 25.5629 130.233 25.5775 131.728 26.6949C132.012 26.9286 132.391 27.2061 132.306 27.6224C132.157 29.1305 131.819 30.6167 131.654 32.1229C130.435 31.3196 128.865 31.0512 127.451 31.4565C125.687 31.9148 124.296 33.6584 124.455 35.4769C124.464 39.3712 124.455 43.2638 124.461 47.1581C122.725 47.1654 120.99 47.1636 119.255 47.1581C119.248 40.233 119.248 33.3078 119.255 26.3809C120.935 26.3772 122.612 26.3827 124.292 26.3772C124.307 27.2481 124.286 28.119 124.301 28.9881C124.76 27.9693 125.426 26.9852 126.452 26.4484Z" fill="white"/>
<path d="M39.8998 26.6545C41.5717 26.6748 43.2454 26.6619 44.9173 26.6619C44.9244 33.6354 44.9244 40.6071 44.9173 47.5787C43.2489 47.5787 41.5788 47.5879 39.9087 47.5732C39.9087 40.6016 39.9265 33.628 39.8998 26.6545Z" fill="white"/>
</svg>
