<svg width="48" height="48" viewBox="0 0 48 48" fill="none" xmlns="http://www.w3.org/2000/svg">
<path d="M43.794 26.736C43.25 25.102 41.722 24 40 24H38V10C38 7.79 36.21 6 34 6H14C11.79 6 10 7.79 10 10V24H8.00002C6.27802 24 4.75002 25.102 4.20602 26.736C3.66002 28.368 4.22202 30.166 5.60002 31.2L21.6 43.2C22.312 43.734 23.156 44 24 44C24.844 44 25.688 43.734 26.4 43.2L42.4 31.2C43.778 30.166 44.34 28.368 43.794 26.736Z" fill="white"/>
<path d="M28.788 27.3919C28.788 22.1779 23.032 22.8899 23.032 20.1719C23.032 18.5719 24.29 18.4039 24.726 18.4039C25.156 18.4039 25.534 18.5059 25.856 18.6519C26.612 18.9939 27.51 18.6759 27.99 17.9979C28.604 17.1279 28.286 15.9059 27.316 15.4699C26.784 15.2299 26.12 15.0379 25.316 14.9619V14.2019C25.316 13.5059 24.752 12.9399 24.054 12.9399C23.356 12.9399 22.792 13.5039 22.792 14.2019V15.2259C20.68 15.9299 19.308 17.8639 19.308 20.3379C19.308 25.8099 24.992 24.8219 24.992 27.6659C24.992 28.2139 24.734 29.4059 23.322 29.4059C22.694 29.4059 22.154 29.2299 21.714 28.9979C20.966 28.6059 20.038 28.8959 19.562 29.5919L19.512 29.6659C18.962 30.4719 19.184 31.5999 20.032 32.0799C20.746 32.4839 21.616 32.7979 22.668 32.9099V33.7959C22.668 34.4919 23.232 35.0579 23.93 35.0579C24.626 35.0579 25.192 34.4939 25.192 33.7959V32.6839C27.528 31.9679 28.788 29.8379 28.788 27.3919Z" fill="#D15C22"/>
</svg>
