<svg width="50" height="50" viewBox="0 0 50 50" fill="none" xmlns="http://www.w3.org/2000/svg">
<path d="M10.4167 8.33337H39.5834C43.0354 8.33337 45.8334 11.1313 45.8334 14.5834V35.4167C45.8334 38.8688 43.0354 41.6667 39.5834 41.6667H10.4167C6.9646 41.6667 4.16669 38.8688 4.16669 35.4167V14.5834C4.16669 11.1313 6.9646 8.33337 10.4167 8.33337Z" fill="white"/>
<path d="M14.5834 41.6666H10.4167C10.4167 42.8166 11.35 43.75 12.5 43.75C13.65 43.75 14.5834 42.8166 14.5834 41.6666Z" fill="#D15C22"/>
<path d="M39.5833 41.6666H35.4166C35.4166 42.8166 36.35 43.75 37.5 43.75C38.65 43.75 39.5833 42.8166 39.5833 41.6666Z" fill="#D15C22"/>
<path d="M40.7083 25C40.7083 23.9 41.1312 23.0271 41.6667 22.9167C41.5292 21.5313 41.2563 20.2417 40.8771 19.1063C40.4604 19.7855 39.8521 19.7646 39.4646 18.9875C39.075 18.2105 39.0667 16.9959 39.4042 16.1605C38.8375 15.4042 38.1937 14.8584 37.5 14.5834C37.4458 15.6542 37.0083 16.498 36.4583 16.498C35.9083 16.498 35.4729 15.6542 35.4167 14.5834C34.7229 14.8584 34.0792 15.4042 33.5125 16.1625C33.8521 16.998 33.8417 18.2125 33.4521 18.9896C33.0646 19.7667 32.4562 19.7875 32.0396 19.1084C31.6604 20.2417 31.3875 21.5313 31.25 22.9167C31.7854 23.0271 32.2083 23.9 32.2083 25C32.2083 26.1 31.7854 26.973 31.25 27.0834C31.3875 28.4709 31.6604 29.7584 32.0396 30.8938C32.4562 30.2146 33.0646 30.2355 33.4521 31.0125C33.8417 31.7896 33.85 33.0042 33.5125 33.8396C34.0792 34.5959 34.7229 35.1417 35.4167 35.4167C35.4708 34.3459 35.9083 33.5021 36.4583 33.5021C37.0083 33.5021 37.4437 34.3459 37.5 35.4167C38.1937 35.1417 38.8375 34.5959 39.4042 33.8375C39.0646 33.0021 39.075 31.7875 39.4646 31.0105C39.8521 30.2334 40.4604 30.2125 40.8771 30.8917C41.2563 29.7584 41.5292 28.4688 41.6667 27.0834C41.1312 26.973 40.7083 26.1 40.7083 25Z" fill="#D15C22"/>
<path d="M25 12.5H10.4166C9.26665 12.5 8.33331 13.4333 8.33331 14.5833V20.8333C8.33331 21.9833 9.26665 22.9167 10.4166 22.9167H14.5833V20.6979C14.5833 19.8958 15.5521 19.4917 16.1229 20.0562L20.1791 24.0729C20.6958 24.5833 20.6958 25.4187 20.1791 25.9292L16.1229 29.9458C15.5521 30.5104 14.5833 30.1062 14.5833 29.3021V27.0833H10.4166C9.26665 27.0833 8.33331 28.0167 8.33331 29.1667V35.4167C8.33331 36.5667 9.26665 37.5 10.4166 37.5H25C26.15 37.5 27.0833 36.5667 27.0833 35.4167V14.5833C27.0833 13.4333 26.15 12.5 25 12.5Z" fill="#D15C22"/>
</svg>
