<svg width="48" height="48" viewBox="0 0 48 48" fill="none" xmlns="http://www.w3.org/2000/svg">
<path d="M47.966 16.33C47.972 16.218 48 16.114 48 16C48 13.208 46.566 10.756 44.398 9.326C44.398 9.324 44.404 9.31 44.404 9.31C44.404 9.31 36 2 22 2C19.79 2 18 3.79 18 6C18 8.21 19.79 10 22 10C22.336 10 22.658 9.946 22.972 9.868C23.884 9.662 28.036 8.866 32.418 10.284C31.6 11.084 30.974 12.066 30.554 13.154C25.948 12.52 17.144 11.552 13.91 12.216C10.102 12.998 7.008 16.058 6.22 19.866C6.168 20.118 6.142 20.366 6.108 20.614C5.496 20.23 4.776 20 4 20C1.79 20 0 21.79 0 24C0 26.21 1.79 28 4 28C5.246 28 6.346 27.418 7.08 26.524C7.258 26.874 7.456 27.208 7.672 27.532C7.706 27.594 7.746 27.65 7.788 27.724C8.936 29.766 7.916 33.596 6.546 35.412C5.548 36.734 6.564 38.106 8.352 38.614C13.596 40.106 15.758 41.08 20.426 45.34C21.838 46.512 24.256 45.902 25.286 44.656C26.196 43.436 26.196 41.538 24.544 40.132C21.704 37.812 19.86 36.154 17.102 35.06C19.974 33.83 22.16 32.042 23.574 29.692C23.578 29.69 23.582 29.688 23.586 29.686C24.4 28.346 27.022 28.83 26.874 30.468C26.738 31.966 25.872 32.414 24.768 33.362C22.696 35.142 25.088 39.66 28.598 37.702C35.302 33.964 37.226 27.26 37.778 23.978C37.852 23.98 37.922 24 38 24H40C43.554 24 46.53 21.668 47.574 18.464C47.822 17.932 48 17.364 48 16.712C48 16.588 47.974 16.458 47.966 16.33Z" fill="white"/>
<path d="M12 8H6C4.896 8 4 7.104 4 6C4 4.896 4.896 4 6 4H12C13.104 4 14 4.896 14 6C14 7.104 13.104 8 12 8Z" fill="#D15C22"/>
<path d="M6 14H2C0.896 14 0 13.104 0 12C0 10.896 0.896 10 2 10H6C7.104 10 8 10.896 8 12C8 13.104 7.104 14 6 14Z" fill="#D15C22"/>
<path d="M42 16C43.1046 16 44 15.1046 44 14C44 12.8954 43.1046 12 42 12C40.8954 12 40 12.8954 40 14C40 15.1046 40.8954 16 42 16Z" fill="#D15C22"/>
</svg>
