<svg width="48" height="48" viewBox="0 0 48 48" fill="none" xmlns="http://www.w3.org/2000/svg">
<path d="M40 36C40 39.314 37.314 42 34 42H16C12.686 42 10 39.314 10 36V12C10 8.686 12.686 6 16 6H34C37.314 6 40 8.686 40 12V36Z" fill="white"/>
<path d="M28 36V34C28 31.79 26.21 30 24 30H8C5.79 30 4 31.79 4 34V36C4 39.314 6.686 42 10 42H34C30.686 42 28 39.314 28 36Z" fill="#D15C22"/>
<path d="M32 18H26C24.894 18 24 17.104 24 16C24 14.896 24.894 14 26 14H32C33.106 14 34 14.896 34 16C34 17.104 33.106 18 32 18Z" fill="#D15C22"/>
<path d="M32 26H26C24.894 26 24 25.104 24 24C24 22.896 24.894 22 26 22H32C33.106 22 34 22.896 34 24C34 25.104 33.106 26 32 26Z" fill="#D15C22"/>
<path d="M18 18C19.1046 18 20 17.1046 20 16C20 14.8954 19.1046 14 18 14C16.8954 14 16 14.8954 16 16C16 17.1046 16.8954 18 18 18Z" fill="#D15C22"/>
<path d="M18 26C19.1046 26 20 25.1046 20 24C20 22.8954 19.1046 22 18 22C16.8954 22 16 22.8954 16 24C16 25.1046 16.8954 26 18 26Z" fill="#D15C22"/>
</svg>
