<svg width="48" height="48" viewBox="0 0 48 48" fill="none" xmlns="http://www.w3.org/2000/svg">
<path d="M24 44C35.0457 44 44 35.0457 44 24C44 12.9543 35.0457 4 24 4C12.9543 4 4 12.9543 4 24C4 35.0457 12.9543 44 24 44Z" fill="white"/>
<path d="M34 26H14C12.896 26 12 25.104 12 24C12 22.896 12.896 22 14 22H34C35.104 22 36 22.896 36 24C36 25.104 35.104 26 34 26Z" fill="#D15C22"/>
<path d="M22 34V14C22 12.896 22.896 12 24 12C25.104 12 26 12.896 26 14V34C26 35.104 25.104 36 24 36C22.896 36 22 35.104 22 34Z" fill="#D15C22"/>
</svg>
