<svg width="48" height="48" viewBox="0 0 48 48" fill="none" xmlns="http://www.w3.org/2000/svg">
<path d="M24 42C33.9411 42 42 33.9411 42 24C42 14.0589 33.9411 6 24 6C14.0589 6 6 14.0589 6 24C6 33.9411 14.0589 42 24 42Z" fill="#D15C22"/>
<path d="M24 4C12.972 4 4 12.972 4 24C4 35.028 12.972 44 24 44C35.028 44 44 35.028 44 24C44 12.972 35.028 4 24 4ZM39.862 22H33.954C33.732 17.116 32.706 12.846 31.122 9.692C35.806 12.034 39.182 16.598 39.862 22ZM24 40C21.726 40 18.498 34.606 18.056 26H29.946C29.502 34.606 26.274 40 24 40ZM18.056 22C18.498 13.394 21.726 8 24 8C26.274 8 29.502 13.394 29.944 22H18.056ZM16.88 9.692C15.296 12.846 14.268 17.116 14.048 22H8.138C8.818 16.598 12.194 12.034 16.88 9.692ZM8.138 26H14.046C14.268 30.884 15.294 35.154 16.878 38.308C12.194 35.966 8.818 31.402 8.138 26ZM31.12 38.308C32.704 35.154 33.73 30.886 33.952 26H39.86C39.182 31.402 35.806 35.966 31.12 38.308Z" fill="white"/>
</svg>
