<svg width="48" height="48" viewBox="0 0 48 48" fill="none" xmlns="http://www.w3.org/2000/svg">
<path d="M24 42C15.178 42 8 34.822 8 26V22C8 13.178 15.178 6 24 6C32.822 6 40 13.178 40 22V26C40 34.822 32.822 42 24 42ZM24 14C19.588 14 16 17.588 16 22V26C16 30.412 19.588 34 24 34C28.412 34 32 30.412 32 26V22C32 17.588 28.412 14 24 14Z" fill="white"/>
<path d="M24 20C21.79 20 20 18.21 20 16V6C20 3.79 21.79 2 24 2C26.21 2 28 3.79 28 6V16C28 18.21 26.21 20 24 20Z" fill="#D15C22"/>
<path d="M24 46C21.79 46 20 44.21 20 42V32C20 29.79 21.79 28 24 28C26.21 28 28 29.79 28 32V42C28 44.21 26.21 46 24 46Z" fill="#D15C22"/>
</svg>
