<svg width="48" height="49" viewBox="0 0 48 49" fill="none" xmlns="http://www.w3.org/2000/svg">
<path fill-rule="evenodd" clip-rule="evenodd" d="M27.2233 8.43005C24.5046 8.43005 22.4233 10.6953 22.4233 13.2358V16.4897C19.0358 16.7212 15.9858 17.6974 13.5233 19.193C12.6296 18.4921 11.5733 18.0916 10.5233 18.0916C9.36082 18.0916 8.22957 18.5359 7.42332 19.4433C5.89207 21.3581 6.02957 24.4868 8.17332 26.1012C8.07332 26.6081 8.02332 27.1212 8.02332 27.6531C8.02332 30.9445 10.0108 33.8105 12.9233 35.7628C15.8358 37.7152 19.7358 38.8665 24.0233 38.8665C28.3108 38.8665 32.2108 37.7152 35.1233 35.7628C38.0358 33.8105 40.0233 30.9445 40.0233 27.6531C40.0233 27.1212 39.9233 26.6081 39.8233 26.1012C42.0046 24.3617 42.2296 21.2517 40.6233 19.4433C39.8171 18.5359 38.6858 18.0916 37.5233 18.0916C36.4733 18.0916 35.4171 18.4921 34.5233 19.193C32.0608 17.6974 29.0108 16.7212 25.6233 16.4897V13.2358C25.6233 12.2534 26.1046 11.6339 27.2233 11.6339C27.7358 11.6339 28.4608 11.9092 29.6733 12.3347C30.7483 12.7102 32.1733 13.0982 34.0233 13.1858C34.5671 14.1744 35.6233 14.8377 36.8233 14.8377C38.5858 14.8377 40.0233 13.3985 40.0233 11.6339C40.0233 9.86928 38.5858 8.43005 36.8233 8.43005C35.6608 8.43005 34.6358 9.04329 34.0733 9.98191C32.6546 9.91308 31.6546 9.65652 30.7233 9.33113C29.6546 8.95568 28.6296 8.43005 27.2233 8.43005ZM36.8233 10.032C37.7858 10.032 38.4233 10.6702 38.4233 11.6339C38.4233 12.5975 37.7858 13.2358 36.8233 13.2358C35.8608 13.2358 35.2233 12.5975 35.2233 11.6339C35.2233 10.6702 35.8608 10.032 36.8233 10.032ZM24.0233 19.6435C27.7358 19.6435 31.0358 20.6635 33.3233 22.1966C35.6108 23.7297 36.8233 25.657 36.8233 27.6531C36.8233 29.6492 35.6108 31.5766 33.3233 33.1096C31.0358 34.6427 27.7358 35.6627 24.0233 35.6627C20.3108 35.6627 17.0108 34.6427 14.7233 33.1096C12.4358 31.5766 11.2233 29.6492 11.2233 27.6531C11.2233 25.657 12.4358 23.7297 14.7233 22.1966C17.0108 20.6635 20.3108 19.6435 24.0233 19.6435ZM10.5733 19.6936C11.1046 19.6936 11.6671 19.8062 12.1733 20.094C10.6296 21.283 9.42957 22.7472 8.72332 24.3992C7.79207 23.2979 7.81082 21.552 8.62332 20.4945C9.09832 19.9564 9.81707 19.6936 10.5733 19.6936ZM37.4733 19.6936C38.2296 19.6936 38.9483 19.9564 39.4233 20.4945C40.2108 21.3831 40.2733 23.1289 39.3233 24.3491C38.6171 22.7097 37.4046 21.2767 35.8733 20.094C36.3796 19.8062 36.9421 19.6936 37.4733 19.6936ZM19.2233 22.8474C17.8983 22.8474 16.8233 23.9236 16.8233 25.2502C16.8233 26.5768 17.8983 27.6531 19.2233 27.6531C20.5483 27.6531 21.6233 26.5768 21.6233 25.2502C21.6233 23.9236 20.5483 22.8474 19.2233 22.8474ZM28.8233 22.8474C27.4983 22.8474 26.4233 23.9236 26.4233 25.2502C26.4233 26.5768 27.4983 27.6531 28.8233 27.6531C30.1483 27.6531 31.2233 26.5768 31.2233 25.2502C31.2233 23.9236 30.1483 22.8474 28.8233 22.8474ZM30.5733 29.9058C29.1358 31.1886 26.7421 31.9583 24.0233 31.9583C21.3046 31.9583 18.9108 31.1761 17.4733 30.056C18.2733 32.1397 20.8233 34.0608 24.0233 34.0608C27.2233 34.0608 29.7733 32.146 30.5733 29.9058Z" fill="white"/>
</svg>
