<svg width="48" height="49" viewBox="0 0 48 49" fill="none" xmlns="http://www.w3.org/2000/svg">
<path fill-rule="evenodd" clip-rule="evenodd" d="M21.4079 28.3511L21.4075 28.3508L21.4079 28.3505L21.4079 28.3502L21.4081 28.3503L32.9536 18.1745C33.4604 17.7353 32.843 17.5211 32.1703 17.9195L17.9208 26.6995L11.7658 24.8233C10.4366 24.4258 10.4271 23.5337 12.0642 22.8924L36.0489 13.8599C37.1443 13.3741 38.2016 14.1168 37.7834 15.7543L33.6988 34.5531C33.4136 35.889 32.5872 36.2085 31.4421 35.5914L25.22 31.1018L22.2292 33.942C22.2198 33.951 22.2104 33.9599 22.2011 33.9688C21.8666 34.2868 21.5898 34.55 20.9842 34.55L21.4079 28.3511Z" fill="white"/>
<mask id="mask0" mask-type="alpha" maskUnits="userSpaceOnUse" x="10" y="13" width="28" height="23">
<path fill-rule="evenodd" clip-rule="evenodd" d="M21.4079 28.3511L21.4075 28.3508L21.4079 28.3505L21.4079 28.3502L21.4081 28.3503L32.9536 18.1745C33.4604 17.7353 32.843 17.5211 32.1703 17.9195L17.9208 26.6995L11.7658 24.8233C10.4366 24.4258 10.4271 23.5337 12.0642 22.8924L36.0489 13.8599C37.1443 13.3741 38.2016 14.1168 37.7834 15.7543L33.6988 34.5531C33.4136 35.889 32.5872 36.2085 31.4421 35.5914L25.22 31.1018L22.2292 33.942C22.2198 33.951 22.2104 33.9599 22.2011 33.9688C21.8666 34.2868 21.5898 34.55 20.9842 34.55L21.4079 28.3511Z" fill="white"/>
</mask>
<g mask="url(#mask0)">
</g>
</svg>
