<svg width="48" height="49" viewBox="0 0 48 49" fill="none" xmlns="http://www.w3.org/2000/svg">
<path fill-rule="evenodd" clip-rule="evenodd" d="M41.6 14.6674C40.4228 15.1826 39.1576 15.5293 37.8289 15.6882C39.182 14.8841 40.2274 13.6177 40.7158 12.1058C39.4458 12.8473 38.039 13.3866 36.5443 13.6755C35.3475 12.4188 33.6427 11.6339 31.7523 11.6339C28.1278 11.6339 25.1872 14.5326 25.1872 18.1054C25.1872 18.611 25.2458 19.1069 25.3582 19.5788C19.9019 19.3092 15.066 16.7283 11.8274 12.8136C11.2608 13.7718 10.9384 14.8841 10.9384 16.0734C10.9384 18.3173 12.0961 20.2963 13.8595 21.4567C12.7799 21.423 11.7688 21.1341 10.8847 20.6478C10.8847 20.6767 10.8847 20.7007 10.8847 20.7296C10.8847 23.8642 13.1463 26.4788 16.1504 27.0759C15.5984 27.2252 15.022 27.3022 14.4212 27.3022C13.9963 27.3022 13.5859 27.2637 13.1854 27.1867C14.0207 29.7531 16.4435 31.631 19.3157 31.6791C17.0736 33.4174 14.2405 34.4478 11.1631 34.4478C10.6307 34.4478 10.1129 34.4189 9.59998 34.3611C12.5015 36.1957 15.955 37.2646 19.6626 37.2646C31.7377 37.2646 38.3418 27.4033 38.3418 18.8565C38.3418 18.5725 38.337 18.2932 38.3223 18.0139C39.607 17.1087 40.7207 15.9675 41.6 14.6674Z" fill="white"/>
<mask id="mask0" mask-type="alpha" maskUnits="userSpaceOnUse" x="9" y="11" width="33" height="27">
<path fill-rule="evenodd" clip-rule="evenodd" d="M41.6 14.6674C40.4228 15.1826 39.1576 15.5293 37.8289 15.6882C39.182 14.8841 40.2274 13.6177 40.7158 12.1058C39.4458 12.8473 38.039 13.3866 36.5443 13.6755C35.3475 12.4188 33.6427 11.6339 31.7523 11.6339C28.1278 11.6339 25.1872 14.5326 25.1872 18.1054C25.1872 18.611 25.2458 19.1069 25.3582 19.5788C19.9019 19.3092 15.066 16.7283 11.8274 12.8136C11.2608 13.7718 10.9384 14.8841 10.9384 16.0734C10.9384 18.3173 12.0961 20.2963 13.8595 21.4567C12.7799 21.423 11.7688 21.1341 10.8847 20.6478C10.8847 20.6767 10.8847 20.7007 10.8847 20.7296C10.8847 23.8642 13.1463 26.4788 16.1504 27.0759C15.5984 27.2252 15.022 27.3022 14.4212 27.3022C13.9963 27.3022 13.5859 27.2637 13.1854 27.1867C14.0207 29.7531 16.4435 31.631 19.3157 31.6791C17.0736 33.4174 14.2405 34.4478 11.1631 34.4478C10.6307 34.4478 10.1129 34.4189 9.59998 34.3611C12.5015 36.1957 15.955 37.2646 19.6626 37.2646C31.7377 37.2646 38.3418 27.4033 38.3418 18.8565C38.3418 18.5725 38.337 18.2932 38.3223 18.0139C39.607 17.1087 40.7207 15.9675 41.6 14.6674Z" fill="white"/>
</mask>
<g mask="url(#mask0)">
</g>
</svg>
