<svg width="50" height="50" viewBox="0 0 50 50" fill="none" xmlns="http://www.w3.org/2000/svg">
<path d="M39.5834 31.25V12.5C39.5834 9.04792 36.7855 6.25 33.3334 6.25H16.6667C13.2147 6.25 10.4167 9.04792 10.4167 12.5V39.5833C10.4167 43.0354 13.2147 45.8333 16.6667 45.8333H33.3334C33.5751 45.8333 33.8042 45.7896 34.0376 45.7625C35.5126 47.0875 37.4438 47.9167 39.5834 47.9167C44.1855 47.9167 47.9167 44.1854 47.9167 39.5833C47.9167 34.9812 44.1855 31.25 39.5834 31.25Z" fill="white"/>
<path d="M25.0001 27.0833C27.8766 27.0833 30.2084 24.7515 30.2084 21.875C30.2084 18.9985 27.8766 16.6667 25.0001 16.6667C22.1236 16.6667 19.7917 18.9985 19.7917 21.875C19.7917 24.7515 22.1236 27.0833 25.0001 27.0833Z" fill="#D15C22"/>
<path d="M27.6251 31.25C25.9584 33.6042 25.0001 36.4792 25.0001 39.5833H20.8334C18.5417 39.5833 16.6667 37.7083 16.6667 35.4167C16.6667 33.125 18.5417 31.25 20.8334 31.25H27.6251Z" fill="#D15C22"/>
<path d="M23.7791 2.08334H26.2208C27.8478 2.08334 29.1666 3.40209 29.1666 5.02917V7.47084C29.1666 9.09792 27.8478 10.4167 26.2208 10.4167H23.7791C22.152 10.4167 20.8333 9.09792 20.8333 7.47084V5.02917C20.8333 3.40209 22.152 2.08334 23.7791 2.08334Z" fill="#D15C22"/>
<path d="M46.9499 32.2167C42.8833 28.15 36.2854 28.15 32.2187 32.2167C28.152 36.2833 28.152 42.8813 32.2187 46.9479C36.2854 51.0146 42.8833 51.0146 46.9499 46.9479C51.0166 42.8813 51.0145 36.2833 46.9499 32.2167ZM41.7937 44.7396L39.5833 42.5292L37.3729 44.7396C36.5624 45.55 35.2374 45.55 34.427 44.7396C33.6166 43.9292 33.6166 42.6042 34.427 41.7938L36.6375 39.5833L34.427 37.3729C33.6166 36.5625 33.6166 35.2375 34.427 34.4271C35.2374 33.6167 36.5624 33.6167 37.3729 34.4271L39.5833 36.6375L41.7937 34.4271C42.6041 33.6167 43.9291 33.6167 44.7395 34.4271C45.55 35.2375 45.55 36.5625 44.7395 37.3729L42.5291 39.5833L44.7395 41.7938C45.55 42.6042 45.55 43.9292 44.7395 44.7396C43.9291 45.55 42.6041 45.55 41.7937 44.7396Z" fill="#D15C22"/>
</svg>
