<svg width="50" height="50" viewBox="0 0 50 50" fill="none" xmlns="http://www.w3.org/2000/svg">
<path d="M45.0002 19.1671L36.6668 12.9171C36.597 12.8784 36.5248 12.844 36.4508 12.8142C36.2106 12.6611 35.9364 12.5695 35.6524 12.5475C35.5748 12.5269 35.4961 12.511 35.4166 12.5H33.3338V6.24999C33.3338 5.14493 32.8948 4.08512 32.1134 3.30372C31.332 2.52232 30.2722 2.08333 29.1671 2.08333H20.8338C19.7287 2.08333 18.6689 2.52232 17.8875 3.30372C17.1061 4.08512 16.6671 5.14493 16.6671 6.24999V12.5H14.5833C14.5037 12.511 14.4249 12.5269 14.3473 12.5477C14.0632 12.5697 13.7889 12.6613 13.5486 12.8145C13.4748 12.8443 13.4028 12.8785 13.3331 12.9171L4.99975 19.1671C4.7409 19.3609 4.53082 19.6125 4.3862 19.9017C4.24157 20.191 4.16639 20.5099 4.16663 20.8333V29.1667C4.16663 29.7192 4.38612 30.2491 4.77682 30.6398C5.16752 31.0305 5.69743 31.25 6.24996 31.25C6.80249 31.25 7.3324 31.0305 7.7231 30.6398C8.1138 30.2491 8.33329 29.7192 8.33329 29.1667V21.875L12.5 18.7499V27.0833C12.5 28.1884 12.9389 29.2482 13.7203 30.0296C14.5017 30.811 15.5616 31.25 16.6666 31.25V43.75C16.1141 43.75 15.5842 43.9695 15.1935 44.3602C14.8028 44.7509 14.5833 45.2808 14.5833 45.8333C14.5833 46.3859 14.8028 46.9158 15.1935 47.3065C15.5842 47.6972 16.1141 47.9167 16.6666 47.9167H20.8333C21.3858 47.9167 21.9157 47.6972 22.3064 47.3065C22.6971 46.9158 22.9166 46.3859 22.9166 45.8333C22.9166 45.2808 22.6971 44.7509 22.3064 44.3602C21.9157 43.9695 21.3858 43.75 20.8333 43.75V31.25H29.1666V43.75C28.6141 43.75 28.0842 43.9695 27.6935 44.3602C27.3028 44.7509 27.0833 45.2808 27.0833 45.8333C27.0833 46.3859 27.3028 46.9158 27.6935 47.3065C28.0842 47.6972 28.6141 47.9167 29.1666 47.9167H33.3333C33.8858 47.9167 34.4157 47.6972 34.8064 47.3065C35.1971 46.9158 35.4166 46.3859 35.4166 45.8333C35.4166 45.2808 35.1971 44.7509 34.8064 44.3602C34.4157 43.9695 33.8858 43.75 33.3333 43.75V31.25C34.4384 31.25 35.4982 30.811 36.2796 30.0296C37.061 29.2482 37.5 28.1884 37.5 27.0833V18.7499L41.6666 21.875V29.1667C41.6666 29.7192 41.8861 30.2491 42.2768 30.6398C42.6675 31.0305 43.1974 31.25 43.75 31.25C44.3025 31.25 44.8324 31.0305 45.2231 30.6398C45.6138 30.2491 45.8333 29.7192 45.8333 29.1667V20.8333C45.8335 20.5099 45.7583 20.191 45.6137 19.9017C45.4691 19.6125 45.259 19.3609 45.0002 19.1671Z" fill="white"/>
<path d="M20.8333 10.4167C21.9839 10.4167 22.9167 9.48393 22.9167 8.33333C22.9167 7.18274 21.9839 6.25 20.8333 6.25C19.6827 6.25 18.75 7.18274 18.75 8.33333C18.75 9.48393 19.6827 10.4167 20.8333 10.4167Z" fill="#D15C22"/>
<path d="M29.1666 10.4167C30.3172 10.4167 31.2499 9.48393 31.2499 8.33333C31.2499 7.18274 30.3172 6.25 29.1666 6.25C28.016 6.25 27.0833 7.18274 27.0833 8.33333C27.0833 9.48393 28.016 10.4167 29.1666 10.4167Z" fill="#D15C22"/>
<path d="M6.24996 22.9167C7.40055 22.9167 8.33329 21.9839 8.33329 20.8333C8.33329 19.6827 7.40055 18.75 6.24996 18.75C5.09937 18.75 4.16663 19.6827 4.16663 20.8333C4.16663 21.9839 5.09937 22.9167 6.24996 22.9167Z" fill="#D15C22"/>
<path d="M43.75 22.9167C44.9006 22.9167 45.8333 21.9839 45.8333 20.8333C45.8333 19.6827 44.9006 18.75 43.75 18.75C42.5994 18.75 41.6666 19.6827 41.6666 20.8333C41.6666 21.9839 42.5994 22.9167 43.75 22.9167Z" fill="#D15C22"/>
<path d="M31.25 39.5833C32.4006 39.5833 33.3333 38.6506 33.3333 37.5C33.3333 36.3494 32.4006 35.4167 31.25 35.4167C30.0994 35.4167 29.1666 36.3494 29.1666 37.5C29.1666 38.6506 30.0994 39.5833 31.25 39.5833Z" fill="#D15C22"/>
<path d="M18.75 39.5833C19.9006 39.5833 20.8333 38.6506 20.8333 37.5C20.8333 36.3494 19.9006 35.4167 18.75 35.4167C17.5994 35.4167 16.6666 36.3494 16.6666 37.5C16.6666 38.6506 17.5994 39.5833 18.75 39.5833Z" fill="#D15C22"/>
<path d="M31.25 16.6667H18.75C17.5994 16.6667 16.6666 17.5994 16.6666 18.75V25C16.6666 26.1506 17.5994 27.0833 18.75 27.0833H31.25C32.4006 27.0833 33.3333 26.1506 33.3333 25V18.75C33.3333 17.5994 32.4006 16.6667 31.25 16.6667Z" fill="#D15C22"/>
<path d="M6.24996 37.5C6.80249 37.5 7.3324 37.2805 7.7231 36.8898C8.1138 36.4991 8.33329 35.9692 8.33329 35.4167V34.196L8.94371 34.8064C9.33521 35.193 9.86375 35.409 10.414 35.4072C10.9642 35.4055 11.4913 35.1861 11.8804 34.7971C12.2694 34.408 12.4887 33.8808 12.4904 33.3306C12.4922 32.7804 12.2761 32.2519 11.8895 31.8604L7.72288 27.6937C7.43155 27.4024 7.06037 27.204 6.65627 27.1236C6.25217 27.0432 5.83331 27.0844 5.45265 27.2421C5.07199 27.3997 4.74663 27.6667 4.51772 28.0093C4.2888 28.3519 4.16662 28.7546 4.16663 29.1667V35.4167C4.16663 35.9692 4.38612 36.4991 4.77682 36.8898C5.16752 37.2805 5.69742 37.5 6.24996 37.5Z" fill="#D15C22"/>
<path d="M43.75 37.5C43.1975 37.5 42.6676 37.2805 42.2769 36.8898C41.8862 36.4991 41.6667 35.9692 41.6667 35.4167V34.196L41.0563 34.8064C40.6648 35.193 40.1362 35.409 39.586 35.4072C39.0358 35.4055 38.5087 35.1861 38.1196 34.7971C37.7306 34.408 37.5113 33.8808 37.5095 33.3306C37.5078 32.7804 37.7238 32.2519 38.1104 31.8604L42.2771 27.6937C42.5684 27.4024 42.9396 27.204 43.3437 27.1236C43.7478 27.0432 44.1667 27.0844 44.5473 27.2421C44.928 27.3997 45.2534 27.6667 45.4823 28.0093C45.7112 28.3519 45.8334 28.7546 45.8334 29.1667V35.4167C45.8334 35.9692 45.6139 36.4991 45.2232 36.8898C44.8325 37.2805 44.3026 37.5 43.75 37.5Z" fill="#D15C22"/>
</svg>
