<svg width="50" height="50" viewBox="0 0 50 50" fill="none" xmlns="http://www.w3.org/2000/svg">
<path d="M35.4167 43.75H14.5834C11.1313 43.75 8.33337 40.9521 8.33337 37.5H41.6667C41.6667 40.9521 38.8688 43.75 35.4167 43.75Z" fill="#D15C22"/>
<path d="M41.6667 31.25H8.33337V37.5H41.6667V31.25Z" fill="white"/>
<path d="M33.3333 4.16666C30.0041 4.16666 27.7312 5.74166 26.4833 6.92916C27.7458 7.63541 28.6874 8.83541 29.0229 10.2833C29.527 9.69999 30.9583 8.33332 33.3333 8.33332C34.4854 8.33332 35.4166 7.39999 35.4166 6.24999C35.4166 5.09999 34.4854 4.16666 33.3333 4.16666Z" fill="white"/>
<path d="M25 18.75C28.4518 18.75 31.25 15.9518 31.25 12.5C31.25 9.04822 28.4518 6.25 25 6.25C21.5482 6.25 18.75 9.04822 18.75 12.5C18.75 15.9518 21.5482 18.75 25 18.75Z" fill="#D15C22"/>
<path d="M35.4167 14.5833H14.5834C11.1313 14.5833 8.33337 17.3813 8.33337 20.8333V31.25H41.6667V20.8333C41.6667 17.3813 38.8688 14.5833 35.4167 14.5833Z" fill="white"/>
<path d="M36.4584 25C34.7459 25 33.2417 24.1625 32.2917 22.8875C31.3417 24.1625 29.8375 25 28.125 25C26.948 25 25.873 24.5938 25 23.9354C24.1271 24.5938 23.0521 25 21.875 25C20.1625 25 18.6584 24.1625 17.7084 22.8875C16.7584 24.1625 15.2542 25 13.5417 25C10.6646 25 8.33337 23.7104 8.33337 20.8333V31.25H41.6667V20.8333C41.6667 23.7104 39.3355 25 36.4584 25Z" fill="#D15C22"/>
</svg>
