<svg width="50" height="50" viewBox="0 0 50 50" fill="none" xmlns="http://www.w3.org/2000/svg">
<path d="M39.5833 41.6667H10.4166C6.96454 41.6667 4.16663 38.8687 4.16663 35.4167V14.5833C4.16663 11.1312 6.96454 8.33333 10.4166 8.33333H39.5833C43.0354 8.33333 45.8333 11.1312 45.8333 14.5833V35.4167C45.8333 38.8687 43.0354 41.6667 39.5833 41.6667Z" fill="white"/>
<path d="M16.6666 35.4167C16.1333 35.4167 15.6 35.2125 15.1937 34.8062C14.3791 33.9917 14.3791 32.675 15.1937 31.8604L31.8604 15.1937C32.675 14.3792 33.9916 14.3792 34.8062 15.1937C35.6208 16.0083 35.6208 17.325 34.8062 18.1396L18.1395 34.8062C17.7333 35.2125 17.2 35.4167 16.6666 35.4167Z" fill="#D15C22"/>
<path d="M32.2916 35.4167C34.0175 35.4167 35.4166 34.0176 35.4166 32.2917C35.4166 30.5658 34.0175 29.1667 32.2916 29.1667C30.5657 29.1667 29.1666 30.5658 29.1666 32.2917C29.1666 34.0176 30.5657 35.4167 32.2916 35.4167Z" fill="#D15C22"/>
<path d="M17.7084 20.8333C19.4343 20.8333 20.8334 19.4342 20.8334 17.7083C20.8334 15.9824 19.4343 14.5833 17.7084 14.5833C15.9825 14.5833 14.5834 15.9824 14.5834 17.7083C14.5834 19.4342 15.9825 20.8333 17.7084 20.8333Z" fill="#D15C22"/>
</svg>
