<svg width="50" height="50" viewBox="0 0 50 50" fill="none" xmlns="http://www.w3.org/2000/svg">
<path d="M35.4167 23.8354C40.5265 23.8354 44.6688 19.6931 44.6688 14.5833C44.6688 9.47354 40.5265 5.33124 35.4167 5.33124C30.3069 5.33124 26.1646 9.47354 26.1646 14.5833C26.1646 19.6931 30.3069 23.8354 35.4167 23.8354Z" fill="white"/>
<path d="M4.16669 39.4375V27.3521C4.16669 25.9313 5.14377 24.6958 6.5271 24.3667L11.3292 23.2313C13.7834 22.65 16.3604 22.8771 18.6771 23.875L27.8 27.8083C30.6938 29.0563 31.9979 32.4396 30.6875 35.3063L31.4646 36.325L41.1584 32.8646C42.9979 32.1812 45.0375 33.1583 45.6584 35.0188C46.2042 36.6562 45.4625 38.4458 43.9188 39.2188L34.2875 44.0688C32.3688 45.0271 30.1479 45.1854 28.1125 44.5083L15.3209 40.2437C13.4979 39.6354 11.5292 39.6313 9.7021 40.2271L6.63544 41.2292C5.41877 41.6271 4.16669 40.7188 4.16669 39.4375Z" fill="white"/>
<path d="M35.4167 4.16666C29.6646 4.16666 25 8.83124 25 14.5833C25 20.3354 29.6646 25 35.4167 25C41.1687 25 45.8333 20.3354 45.8333 14.5833C45.8333 8.83124 41.1687 4.16666 35.4167 4.16666ZM36.3062 21.2062V22.0375C36.3062 22.5583 35.8854 22.9792 35.3646 22.9792C34.8438 22.9792 34.4229 22.5583 34.4229 22.0375V21.375C33.6375 21.2917 32.9875 21.0583 32.4542 20.7562C31.8208 20.3958 31.6542 19.5542 32.0667 18.9542L32.1042 18.8979C32.4604 18.3771 33.1521 18.1625 33.7104 18.4542C34.0396 18.625 34.4438 18.7583 34.9104 18.7583C35.9646 18.7583 36.1562 17.8687 36.1562 17.4583C36.1562 15.3333 31.9125 16.0729 31.9125 11.9854C31.9125 10.1375 32.9375 8.69374 34.5146 8.16874V7.40624C34.5146 6.88541 34.9354 6.46457 35.4562 6.46457C35.9771 6.46457 36.3979 6.88541 36.3979 7.40624V7.97082C36.9979 8.02707 37.4937 8.17082 37.8917 8.34999C38.6167 8.67707 38.8521 9.58957 38.3938 10.2375C38.0354 10.7437 37.3667 10.9812 36.8 10.725C36.5625 10.6187 36.2792 10.5417 35.9583 10.5417C35.6333 10.5417 34.6937 10.6667 34.6937 11.8625C34.6937 13.8917 38.9917 13.3604 38.9917 17.2542C38.9917 19.0812 38.0521 20.6708 36.3062 21.2062Z" fill="#D15C22"/>
</svg>
