<svg width="48" height="48" viewBox="0 0 48 48" fill="none" xmlns="http://www.w3.org/2000/svg">
<path d="M35.094 12.906C36.064 13.876 36.894 14.922 37.66 15.998L37.938 15.72C39.5 14.158 39.5 11.626 37.938 10.064C36.376 8.50199 33.844 8.50199 32.282 10.064L32.002 10.34C33.078 11.106 34.124 11.936 35.094 12.906Z" fill="white"/>
<path d="M29.41 18.59C28.45 17.63 27.456 16.742 26.446 15.898L6.12603 36.218C4.56403 37.78 4.56403 40.312 6.12603 41.874C7.68803 43.436 10.22 43.436 11.782 41.874L32.102 21.554C31.258 20.544 30.37 19.55 29.41 18.59Z" fill="white"/>
<path d="M29.41 18.59C34.086 23.266 37.39 28.596 39.184 33.81C39.566 34.922 41.148 34.866 41.42 33.722C43.08 26.742 40.928 18.742 35.094 12.908C29.26 7.07401 21.26 4.91801 14.278 6.58001C13.134 6.85201 13.078 8.43401 14.19 8.81601C19.404 10.61 24.734 13.914 29.41 18.59Z" fill="#D15C22"/>
</svg>
