<svg width="24" height="24" viewBox="0 0 24 24" fill="none" xmlns="http://www.w3.org/2000/svg">
<g clip-path="url(#clip0)">
<path d="M7.81502 0.0150056C7.75315 0.0262556 7.6894 0.0375056 7.63502 0.0750056C7.41565 0.223131 7.3669 0.530631 7.51502 0.750006L8.55002 2.29501C6.95065 3.14251 5.75815 4.55063 5.37002 6.24001H18.63C18.2419 4.55063 17.0494 3.14251 15.45 2.29501L16.485 0.750006C16.6331 0.530631 16.5844 0.223131 16.365 0.0750056C16.1438 -0.0731195 15.8381 -0.00936944 15.69 0.210006L14.55 1.89001C13.7588 1.60126 12.9 1.44001 12 1.44001C11.1 1.44001 10.2413 1.60126 9.45002 1.89001L8.31002 0.210006C8.1994 0.0450056 7.99877 -0.0206194 7.81502 0.0150056ZM9.36002 3.84001C9.75752 3.84001 10.08 4.16251 10.08 4.56001C10.08 4.95938 9.75752 5.28001 9.36002 5.28001C8.96065 5.28001 8.64002 4.95938 8.64002 4.56001C8.64002 4.16251 8.96065 3.84001 9.36002 3.84001ZM14.64 3.84001C15.0394 3.84001 15.36 4.16251 15.36 4.56001C15.36 4.95938 15.0394 5.28001 14.64 5.28001C14.2425 5.28001 13.92 4.95938 13.92 4.56001C13.92 4.16251 14.2425 3.84001 14.64 3.84001ZM3.84002 7.20001C3.04502 7.20001 2.40002 7.84501 2.40002 8.64001V15.36C2.40002 16.155 3.04502 16.8 3.84002 16.8C4.00877 16.8 4.17002 16.7644 4.32002 16.71V7.29001C4.17002 7.23563 4.00877 7.20001 3.84002 7.20001ZM5.28002 7.20001V17.76C5.28002 18.5531 5.9269 19.2 6.72002 19.2H17.28C18.0731 19.2 18.72 18.5531 18.72 17.76V7.20001H5.28002ZM20.16 7.20001C19.9913 7.20001 19.83 7.23563 19.68 7.29001V16.71C19.83 16.7625 19.9913 16.8 20.16 16.8C20.955 16.8 21.6 16.155 21.6 15.36V8.64001C21.6 7.84501 20.955 7.20001 20.16 7.20001ZM7.20002 20.16V22.08C7.20002 23.1394 8.06065 24 9.12002 24C10.1794 24 11.04 23.1394 11.04 22.08V20.16H7.20002ZM12.96 20.16V22.08C12.96 23.1394 13.8206 24 14.88 24C15.9394 24 16.8 23.1394 16.8 22.08V20.16H12.96Z" fill="white"/>
</g>
<defs>
<clipPath id="clip0">
<rect width="24" height="24" fill="white"/>
</clipPath>
</defs>
</svg>
