<?xml version="1.0" encoding="UTF-8"?>
<svg width="75px" height="75px" viewBox="0 0 75 75" version="1.1" xmlns="http://www.w3.org/2000/svg" xmlns:xlink="http://www.w3.org/1999/xlink">
    <!-- Generator: Sketch 49.3 (51167) - http://www.bohemiancoding.com/sketch -->
    <title>Group 27</title>
    <desc>Created with Sketch.</desc>
    <defs></defs>
    <g id="Landing-3.0" stroke="none" stroke-width="1" fill="none" fill-rule="evenodd">
        <g id="Landing/minter-landing-3-en" transform="translate(-210.000000, -853.000000)">
            <g id="2">
                <g id="Group-9" transform="translate(122.000000, 853.000000)">
                    <g id="Group-27" transform="translate(88.000000, 2.000000)">
                        <path d="M53.2016245,34 L50.2181543,34 C49.0730314,27.7252782 43.692766,23.0002608 37.1937577,23.0002608 C29.8559627,23.0002608 23.9443196,29.0236474 23.9443196,36.5001434 C23.9443196,43.9766424 29.8559627,50.0000261 37.1937577,50.0000261 C38.2495721,50.0000261 39.2758599,49.875321 40.2592593,49.6395255 L40.2592593,52.7030813 C39.2663,52.8979436 38.2414398,53 37.1937577,53 C28.268789,53 21,45.5938144 21,36.5001434 C21,27.9103751 27.4867041,20.8440295 35.7215979,20.0706002 L35.7215979,17.0003129 L34.2494381,17.0003129 C33.7203822,17.0120308 33.2258278,16.7190654 32.9612983,16.2620373 C32.6852684,15.7932914 32.6852684,15.2073605 32.9612983,14.7386146 C33.2258278,14.2815866 33.7203822,13.9886211 34.2494381,14.000339 L40.1380773,14.000339 C40.6671362,13.9886211 41.1616877,14.2815866 41.4262171,14.7386146 C41.7022471,15.2073605 41.7022471,15.7932914 41.4262171,16.2620373 C41.1616877,16.7190654 40.6671362,17.0120308 40.1380773,17.0003129 L38.6659175,17.0003129 L38.6659175,20.0706002 C46.0860887,20.76751 52.0868742,26.5737478 53.2016245,34 Z M48.9595356,19.9768511 C49.3505766,19.9768511 49.73012,20.1526285 50.0176504,20.445597 L53.14599,23.6330693 C53.5255305,24.008066 53.6750459,24.5588402 53.5485344,25.0861816 C53.4105194,25.6135201 53.007975,26.0236735 52.4904196,26.1642973 C51.9728612,26.2932001 51.4323047,26.1408585 51.0527613,25.7424259 L47.9244218,22.5549536 C47.4988763,22.1330823 47.3608613,21.4885559 47.5908863,20.9260608 C47.8094107,20.3518478 48.3499702,19.988569 48.9595356,19.9768511 Z M31.2821175,28.9767728 C31.684659,28.9767728 32.0642024,29.1525503 32.3402324,29.4455187 L38.2288716,35.4454666 C38.6199125,35.8204633 38.769428,36.3712375 38.6429165,36.898579 C38.5049015,37.4259174 38.1023571,37.8360708 37.5848017,37.9766946 C37.0672433,38.1055975 36.5266868,37.9532558 36.1586469,37.5548233 L30.2700077,31.5548754 C29.8329588,31.1330041 29.6949438,30.4884777 29.9249688,29.9259826 C30.1434932,29.3517696 30.6840526,28.9884907 31.2821175,28.9767728 Z M47.5014753,49.709 C46.6014487,49.709 45.8234253,49.5552929 45.1673818,49.2478742 C44.5113382,48.9404555 44.0152467,48.5342297 43.6790921,48.0291846 C43.3429376,47.5241395 43.1640193,46.9806753 43.142332,46.3987755 L43.142332,46.365838 C43.142332,46.278004 43.1775734,46.2038953 43.2480574,46.1435095 C43.3185415,46.0831236 43.3971571,46.0529312 43.4839066,46.0529312 L45.0291253,46.0529312 C45.2785303,46.0529312 45.4357615,46.1627219 45.5008237,46.3823068 C45.6526354,46.8653933 45.9047475,47.2222133 46.2571676,47.4527774 C46.6095877,47.6833414 47.0243527,47.7986217 47.5014753,47.7986217 C48.1087222,47.7986217 48.6102355,47.6119774 49.0060304,47.2386832 C49.4018252,46.8653891 49.5997197,46.3493725 49.5997197,45.6906181 C49.5997197,45.0977391 49.4018252,44.6174045 49.0060304,44.2495999 C48.6102355,43.8817954 48.1087222,43.6978959 47.5014753,43.6978959 C47.1761645,43.6978959 46.9104979,43.7418122 46.7044677,43.8296461 C46.4984375,43.91748 46.2978322,44.0382498 46.1026457,44.1919592 C46.0809583,44.2029385 46.0321624,44.2358757 45.9562566,44.2907719 C45.8803507,44.3456681 45.8125786,44.3840949 45.7529383,44.4060533 C45.693298,44.4280118 45.6309477,44.4389909 45.5658855,44.4389909 L44.0369323,44.4389909 C43.939339,44.4389909 43.8553016,44.4033089 43.7848176,44.3319438 C43.7143336,44.2605788 43.6790921,44.1754909 43.6790921,44.0766778 L44.2321178,38.4608243 C44.2429615,38.3180942 44.2944683,38.2055587 44.3866397,38.1232144 C44.4788111,38.04087 44.5899573,37.9996985 44.7200816,37.9996985 L50.8358946,37.9996985 C50.9551753,37.9996985 51.0500562,38.0353805 51.1205402,38.1067456 C51.1910242,38.1781106 51.2262657,38.2741775 51.2262657,38.3949492 L51.2262657,39.5148261 C51.2262657,39.6246185 51.1910242,39.7179407 51.1205402,39.7947954 C51.0500562,39.87165 50.9551753,39.9100768 50.8358946,39.9100768 L46.1351766,39.9100768 L45.8749293,42.5780189 C46.1243342,42.4133303 46.4116878,42.2788366 46.7369987,42.1745339 C47.0623095,42.0702311 47.4852072,42.0180805 48.0057046,42.0180805 C48.7105447,42.0180805 49.3638675,42.1690428 49.9656925,42.4709719 C50.5675176,42.772901 51.0500547,43.2065745 51.4133185,43.7720054 C51.7765822,44.3374363 51.9582114,44.993436 51.9582114,45.7400244 C51.9582114,46.5415089 51.7738714,47.241425 51.4051857,47.8397936 C51.0365001,48.4381623 50.5160106,48.8992834 49.8437016,49.223171 C49.1713925,49.5470586 48.3906582,49.709 47.5014753,49.709 Z M57.2101478,49.6925312 C56.386027,49.6925312 55.6974627,49.5662718 55.1444343,49.3137493 C54.5914059,49.0612268 54.1820626,48.7675365 53.9163921,48.4326697 C53.6507216,48.0978028 53.5178883,47.8096021 53.5178883,47.5680588 C53.5178883,47.4582664 53.5531298,47.3704338 53.6236138,47.3045583 C53.6940978,47.2386829 53.7781352,47.2057457 53.8757284,47.2057457 L55.2094962,47.2057457 C55.2962457,47.2057457 55.3721504,47.249662 55.4372126,47.3374959 C55.4914311,47.3814129 55.6134208,47.4857141 55.8031855,47.6504027 C55.9929501,47.8150913 56.2098207,47.9440954 56.4538039,48.037419 C56.697787,48.1307425 56.9661644,48.1774036 57.2589442,48.1774036 C57.6926919,48.1774036 58.0451067,48.0923158 58.3161991,47.9221375 C58.5872914,47.7519593 58.7228356,47.5076749 58.7228356,47.1892769 C58.7228356,46.9696921 58.6604853,46.7912821 58.5357828,46.6540416 C58.4110803,46.5168011 58.1887879,46.3905417 57.8688989,46.2752597 C57.5490099,46.1599777 57.0691836,46.0309735 56.4294057,45.8882434 C55.5076917,45.6906171 54.82726,45.3886925 54.3880904,44.9824606 C53.9489208,44.5762287 53.7293393,44.038254 53.7293393,43.3685203 C53.7293393,42.9293507 53.8594617,42.5148906 54.1197103,42.1251275 C54.379959,41.7353645 54.7676153,41.4169713 55.2826907,41.1699384 C55.7977662,40.9229055 56.4131366,40.7993909 57.1288205,40.7993909 C57.8661917,40.7993909 58.5005383,40.9174159 59.0318793,41.1534696 C59.5632203,41.3895233 59.9671419,41.6722345 60.2436561,42.0016117 C60.5201703,42.3309889 60.6584253,42.6219344 60.6584253,42.8744569 C60.6584253,42.9732701 60.6231839,43.0583579 60.5526998,43.129723 C60.4822158,43.2010881 60.3981785,43.2367701 60.3005852,43.2367701 L59.0806757,43.2367701 C58.9613951,43.2367701 58.869225,43.1928538 58.8041629,43.1050198 C58.728257,43.0501236 58.6062673,42.9485672 58.43819,42.8003474 C58.2701128,42.6521277 58.0830618,42.5341026 57.8770316,42.4462687 C57.6710014,42.3584348 57.4216002,42.3145185 57.1288205,42.3145185 C56.7276038,42.3145185 56.4185631,42.4023511 56.2016892,42.5780189 C55.9848154,42.7536868 55.87638,42.9842474 55.87638,43.2697076 C55.87638,43.467334 55.9278868,43.6320201 56.0309019,43.763771 C56.133917,43.8955219 56.342655,44.0190365 56.6571221,44.1343185 C56.9715893,44.2496005 57.4432829,44.3676256 58.0722172,44.4883972 C60.0240821,44.8726706 61,45.7345281 61,47.0739954 C61,47.8535215 60.6665614,48.4848184 59.9996742,48.967905 C59.332787,49.4509916 58.4029542,49.6925312 57.2101478,49.6925312 Z" id="Combined-Shape" fill="#FFFFFF" fill-rule="nonzero"></path>
                    </g>
                </g>
            </g>
        </g>
    </g>
</svg>
