<?xml version="1.0" encoding="UTF-8"?>
<svg width="75px" height="75px" viewBox="0 0 75 75" version="1.1" xmlns="http://www.w3.org/2000/svg" xmlns:xlink="http://www.w3.org/1999/xlink">
    <!-- Generator: Sketch 49.3 (51167) - http://www.bohemiancoding.com/sketch -->
    <title>Group 30</title>
    <desc>Created with Sketch.</desc>
    <defs></defs>
    <g id="Landing-3.0" stroke="none" stroke-width="1" fill="none" fill-rule="evenodd">
        <g id="Landing/minter-landing-3-en" transform="translate(-210.000000, -1128.000000)">
            <g id="2">
                <g id="Group-4" transform="translate(122.000000, 1128.000000)">
                    <g id="Group-30" transform="translate(88.000000, 0.000000)">
                        <path d="M37.929689,17.058593 C37.589843,17.082032 37.273439,17.222657 37.015625,17.445314 L33.394532,20.726564 L28.613282,19.695314 C27.863282,19.542968 27.101564,19.976564 26.867189,20.703125 L25.367189,25.367189 L20.703125,26.867189 C19.976564,27.101564 19.542968,27.851564 19.695314,28.601564 L20.726564,33.394532 L17.445314,37.015625 C16.929689,37.589843 16.929689,38.46875 17.445314,39.03125 L20.726564,42.664064 L19.695314,47.457032 C19.542968,48.207032 19.976564,48.957032 20.703125,49.191407 L25.367189,50.691407 L26.867189,55.34375 C27.101564,56.082032 27.851564,56.515625 28.601564,56.363282 L33.394532,55.332032 L37.015625,58.613282 C37.589843,59.128907 38.46875,59.128907 39.03125,58.613282 L42.664064,55.332032 L47.457032,56.363282 C48.207032,56.515625 48.957032,56.082032 49.191407,55.34375 L50.691407,50.691407 L55.34375,49.191407 C56.082032,48.957032 56.515625,48.207032 56.363282,47.457032 L55.332032,42.664064 L58.613282,39.03125 C59.128907,38.46875 59.128907,37.589843 58.613282,37.015625 L55.332032,33.394532 L56.363282,28.601564 C56.515625,27.851564 56.082032,27.101564 55.34375,26.867189 L50.691407,25.367189 L49.191407,20.703125 C48.957032,19.976564 48.207032,19.542968 47.457032,19.695314 L42.664064,20.726564 L39.03125,17.445314 C38.773439,17.210939 38.433593,17.070314 38.082032,17.058593 C38.035157,17.058593 37.976564,17.058593 37.929689,17.058593 Z M38.023439,20.585939 L41.222657,23.46875 C41.585939,23.796875 42.078125,23.925782 42.546875,23.820314 L46.753907,22.917968 L48.078125,27.019532 C48.21875,27.476564 48.582032,27.839843 49.039064,27.992189 L53.140625,29.304689 L52.238282,33.523439 C52.132814,33.992189 52.273439,34.472657 52.589843,34.835939 L55.484375,38.023439 L52.589843,41.222657 C52.261718,41.585939 52.132814,42.078125 52.238282,42.546875 L53.140625,46.753907 L49.039064,48.078125 C48.582032,48.21875 48.21875,48.582032 48.078125,49.039064 L46.753907,53.140625 L42.546875,52.238282 C42.078125,52.132814 41.585939,52.261718 41.222657,52.589843 L38.023439,55.484375 L34.835939,52.589843 C34.472657,52.273439 33.992189,52.132814 33.523439,52.238282 L29.304689,53.140625 L27.992189,49.039064 C27.839843,48.582032 27.476564,48.21875 27.019532,48.078125 L22.929689,46.753907 L23.820314,42.546875 C23.925782,42.078125 23.796875,41.585939 23.46875,41.222657 L20.585939,38.023439 L23.46875,34.835939 C23.796875,34.484375 23.925782,33.992189 23.820314,33.523439 L22.929689,29.304689 L27.019532,27.992189 C27.476564,27.839843 27.839843,27.476564 27.992189,27.019532 L29.304689,22.917968 L33.511718,23.820314 C33.980468,23.925782 34.472657,23.796875 34.835939,23.46875 L38.023439,20.585939 Z M45.957032,30.921875 L36.488282,40.050782 L31.15625,35.035157 L29.09375,37.214843 L36.511718,44.199218 L48.042968,33.078125 L45.957032,30.921875 Z" id="Shape" fill="#FFFFFF" fill-rule="nonzero"></path>
                    </g>
                </g>
            </g>
        </g>
    </g>
</svg>
