<?xml version="1.0" encoding="UTF-8"?>
<svg width="75px" height="75px" viewBox="0 0 75 75" version="1.1" xmlns="http://www.w3.org/2000/svg" xmlns:xlink="http://www.w3.org/1999/xlink">
    <!-- Generator: Sketch 49.3 (51167) - http://www.bohemiancoding.com/sketch -->
    <title>Group 35</title>
    <desc>Created with Sketch.</desc>
    <defs></defs>
    <g id="Landing-3.0" stroke="none" stroke-width="1" fill="none" fill-rule="evenodd">
        <g id="Landing/minter-landing-3-en" transform="translate(-740.000000, -1403.000000)">
            <g id="2">
                <g id="Group" transform="translate(652.000000, 1403.000000)">
                    <g id="Group-35" transform="translate(88.000000, 0.000000)">
                        <path d="M37.9002518,17 C37.5599311,17.0234717 37.243085,17.1642932 36.9849108,17.3872613 L33.358759,20.6730952 L28.5708293,19.6404045 C27.8197815,19.4878457 27.0569993,19.9220474 26.8222969,20.6496234 L25.3202013,25.3202031 L20.6496214,26.8222986 C19.9220453,27.0570011 19.4878436,27.8080488 19.6404024,28.5590966 L20.6730931,33.3587603 L17.387259,36.984912 C16.8709137,37.5599322 16.8709137,38.440067 17.387259,39.0033529 L20.6730931,42.6412419 L19.6404024,47.4409057 C19.4878436,48.1919534 19.9220453,48.9430012 20.6496214,49.1777036 L25.3202013,50.6797991 L26.8222969,55.3386415 C27.0569993,56.0779548 27.8080471,56.5121536 28.5590949,56.3595977 L33.358759,55.3269071 L36.9849108,58.612741 C37.5599311,59.1290863 38.4400659,59.1290863 39.0033518,58.612741 L42.641241,55.3269071 L47.4409051,56.3595977 C48.1919529,56.5121536 48.9430007,56.0779548 49.1777031,55.3386415 L50.6797987,50.6797991 L55.3386413,49.1777036 C56.0779547,48.9430012 56.5121534,48.1919534 56.3595976,47.4409057 L55.3269069,42.6412419 L58.612741,39.0033529 C59.1290863,38.440067 59.1290863,37.5599322 58.612741,36.984912 L55.3269069,33.3587603 L56.3595976,28.5590966 C56.5121534,27.8080488 56.0779547,27.0570011 55.3386413,26.8222986 L50.6797987,25.3202031 L49.1777031,20.6496234 C48.9430007,19.9220474 48.1919529,19.4878457 47.4409051,19.6404045 L42.641241,20.6730952 L39.0033518,17.3872613 C38.7451806,17.1525588 38.4048598,17.0117374 38.0528077,17 C38.0058672,17 37.9471923,17 37.9002518,17 Z M37.9941328,20.5322737 L41.1978203,23.419112 C41.5616098,23.7476954 42.0544834,23.8767825 42.5238883,23.7711671 L46.7367978,22.8675606 L48.0628658,26.9748545 C48.2036872,27.4325249 48.5674768,27.7963114 49.0251473,27.9488703 L53.1324384,29.2632038 L52.2288347,33.4878474 C52.1232194,33.9572523 52.2640409,34.4383915 52.5808869,34.802181 L55.4794627,37.9941339 L52.5808869,41.1978213 C52.2523035,41.5616108 52.1232194,42.0544843 52.2288347,42.5238892 L53.1324384,46.7367984 L49.0251473,48.0628664 C48.5674768,48.2036878 48.2036872,48.5674773 48.0628658,49.0251478 L46.7367978,53.1324387 L42.5238883,52.2288351 C42.0544834,52.1232198 41.5616098,52.2523039 41.1978203,52.5808872 L37.9941328,55.4794629 L34.8021797,52.5808872 C34.4383902,52.2640412 33.9572509,52.1232198 33.4878461,52.2288351 L29.2632022,53.1324387 L27.9488686,49.0251478 C27.7963098,48.5674773 27.4325232,48.2036878 26.9748527,48.0628664 L22.879296,46.7367984 L23.7711653,42.5238892 C23.8767806,42.0544843 23.7476935,41.5616108 23.4191101,41.1978213 L20.5322716,37.9941339 L23.4191101,34.802181 C23.7476935,34.4501259 23.8767806,33.9572523 23.7711653,33.4878474 L22.879296,29.2632038 L26.9748527,27.9488703 C27.4325232,27.7963114 27.7963098,27.4325249 27.9488686,26.9748545 L29.2632022,22.8675606 L33.4761087,23.7711671 C33.9455136,23.8767825 34.4383902,23.7476954 34.8021797,23.419112 L37.9941328,20.5322737 Z M31.9622787,28.9580892 C30.3076273,28.9580892 28.9580876,30.3076289 28.9580876,31.9622802 C28.9580876,33.6169315 30.3076273,34.9664712 31.9622787,34.9664712 C33.6169301,34.9664712 34.9664699,33.6169315 34.9664699,31.9622802 C34.9664699,30.3076289 33.6169301,28.9580892 31.9622787,28.9580892 Z M40.9748522,28.9580892 L31.9622787,43.9790442 L31.9622787,46.9832352 L34.9664699,46.9832352 L43.9790434,31.9622802 L43.9790434,28.9580892 L40.9748522,28.9580892 Z M43.9790434,40.9748532 C42.324392,40.9748532 40.9748522,42.3243929 40.9748522,43.9790442 C40.9748522,45.6336955 42.324392,46.9832352 43.9790434,46.9832352 C45.6336948,46.9832352 46.9832346,45.6336955 46.9832346,43.9790442 C46.9832346,42.3243929 45.6336948,40.9748532 43.9790434,40.9748532 Z" id="Shape" fill="#FFFFFF" fill-rule="nonzero"></path>
                    </g>
                </g>
            </g>
        </g>
    </g>
</svg>
