<?xml version="1.0" encoding="UTF-8"?>
<svg width="75px" height="75px" viewBox="0 0 75 75" version="1.1" xmlns="http://www.w3.org/2000/svg" xmlns:xlink="http://www.w3.org/1999/xlink">
    <!-- Generator: Sketch 49.3 (51167) - http://www.bohemiancoding.com/sketch -->
    <title>Group 33</title>
    <desc>Created with Sketch.</desc>
    <defs></defs>
    <g id="Landing-3.0" stroke="none" stroke-width="1" fill="none" fill-rule="evenodd">
        <g id="Landing/minter-landing-3-en" transform="translate(-210.000000, -1403.000000)">
            <g id="2">
                <g id="Group-3" transform="translate(122.000000, 1403.000000)">
                    <g id="Group-33" transform="translate(88.000000, 0.000000)">
                        <path d="M27.5,20 C25.027343,20 23,22.027343 23,24.5 L23,51.5 C23,53.972657 25.027343,56 27.5,56 L48.5,56 C50.972657,56 53,53.972657 53,51.5 L53,29.878907 L43.121093,20 L27.5,20 Z M27.5,23 L41,23 L41,32 L50,32 L50,51.5 C50,52.34375 49.34375,53 48.5,53 L27.5,53 C26.65625,53 26,52.34375 26,51.5 L26,24.5 C26,23.65625 26.65625,23 27.5,23 Z M44,25.121093 L47.878907,29 L44,29 L44,25.121093 Z M32,38 L32,41 L44,41 L44,38 L32,38 Z M32,44 L32,47 L41,47 L41,44 L32,44 Z" id="Shape" fill="#FFFFFF" fill-rule="nonzero"></path>
                    </g>
                </g>
            </g>
        </g>
    </g>
</svg>
