<?xml version="1.0" encoding="UTF-8"?>
<svg width="75px" height="75px" viewBox="0 0 75 75" version="1.1" xmlns="http://www.w3.org/2000/svg" xmlns:xlink="http://www.w3.org/1999/xlink">
    <!-- Generator: Sketch 49.3 (51167) - http://www.bohemiancoding.com/sketch -->
    <title>Group 31</title>
    <desc>Created with Sketch.</desc>
    <defs></defs>
    <g id="Landing-3.0" stroke="none" stroke-width="1" fill="none" fill-rule="evenodd">
        <g id="Landing/minter-landing-3-en" transform="translate(-475.000000, -1128.000000)">
            <g id="2">
                <g id="Group-5" transform="translate(387.000000, 1128.000000)">
                    <g id="Group-31" transform="translate(88.000000, 0.000000)">
                        <path d="M31.2167968,18 L29.8105468,27 L32.8457032,27 L33.7832032,21 L37,21 L37,27 L40,27 L40,21 L43.2167968,21 L44.1542968,27 L47.189452,27 L45.7832032,18 L31.2167968,18 Z M19,30 L19,33 L22,33 L22,36 L25,36 L25,33 L52,33 L52,36 L55,36 L55,33 L58,33 L58,30 L19,30 Z M28.4042968,36 L25.1230468,57 L51.876952,57 L48.595702,36 L45.5605468,36 L48.373048,54 L40,54 L40,36 L37,36 L37,54 L28.6269532,54 L31.4394532,36 L28.4042968,36 Z" id="Shape" fill="#FFFFFF" fill-rule="nonzero"></path>
                    </g>
                </g>
            </g>
        </g>
    </g>
</svg>
