<?xml version="1.0" encoding="UTF-8"?>
<svg width="75px" height="75px" viewBox="0 0 75 75" version="1.1" xmlns="http://www.w3.org/2000/svg" xmlns:xlink="http://www.w3.org/1999/xlink">
    <!-- Generator: Sketch 49.3 (51167) - http://www.bohemiancoding.com/sketch -->
    <title>Group 32</title>
    <desc>Created with Sketch.</desc>
    <defs></defs>
    <g id="Landing-3.0" stroke="none" stroke-width="1" fill="none" fill-rule="evenodd">
        <g id="Landing/minter-landing-3-en" transform="translate(-740.000000, -1128.000000)">
            <g id="2">
                <g id="Group-6" transform="translate(652.000000, 1128.000000)">
                    <g id="Group-32" transform="translate(88.000000, 0.000000)">

                        <path d="M23,20 L23,26 L21.5,26 C19.0324058,26 17,28.0324058 17,30.5 L17,51.5 C17,53.967593 19.0324058,56 21.5,56 L54.5,56 C56.967593,56 59,53.967593 59,51.5 L59,30.5 C59,28.0324058 56.967593,26 54.5,26 L53,26 L53,20 L41,20 L41,26 L35,26 L35,20 L23,20 Z M26,23 L32,23 L32,26 L26,26 L26,23 Z M44,23 L50,23 L50,26 L44,26 L44,23 Z M21.5,29 L54.5,29 C55.344407,29 56,29.6555942 56,30.5 L56,51.5 C56,52.344407 55.344407,53 54.5,53 L21.5,53 C20.6555942,53 20,52.344407 20,51.5 L20,30.5 C20,29.6555942 20.6555942,29 21.5,29 Z" id="Shape" fill="#FFFFFF" fill-rule="nonzero"></path>
                    </g>
                </g>
            </g>
        </g>
    </g>
</svg>
