<?xml version="1.0" encoding="UTF-8"?>
<svg width="75px" height="75px" viewBox="0 0 75 75" version="1.1" xmlns="http://www.w3.org/2000/svg" xmlns:xlink="http://www.w3.org/1999/xlink">
    <!-- Generator: Sketch 49.3 (51167) - http://www.bohemiancoding.com/sketch -->
    <title>Group 34</title>
    <desc>Created with Sketch.</desc>
    <defs></defs>
    <g id="Landing-3.0" stroke="none" stroke-width="1" fill="none" fill-rule="evenodd">
        <g id="Landing/minter-landing-3-en" transform="translate(-475.000000, -1403.000000)">
            <g id="2">
                <g id="Group-2" transform="translate(387.000000, 1403.000000)">
                    <g id="Group-34" transform="translate(88.000000, 0.000000)">
                        <path d="M38,16 C34.707032,16 32,18.707032 32,22 C32,23.640625 32.667968,25.140625 33.757814,26.230468 C33.757814,26.230468 33.757814,26.242189 33.757814,26.242189 C33.089843,26.664064 32.503907,27.203125 31.976564,27.8125 C31.882814,24.601564 29.234375,22 26,22 C22.707032,22 20,24.707032 20,28 C20,29.605468 20.65625,31.070314 21.6875,32.148439 C18.910157,33.683593 17,36.613282 17,40 L20,40 C20,36.671875 22.671875,34 26,34 C27.359375,34 28.589843,34.445314 29.597657,35.195314 L32,37 L32,34 C32,30.671875 34.671875,28 38,28 C41.328125,28 44,30.671875 44,34 L44,37 L46.402343,35.195314 C47.410157,34.445314 48.640625,34 50,34 C53.328125,34 56,36.671875 56,40 L59,40 C59,36.613282 57.089843,33.683593 54.3125,32.148439 C55.34375,31.070314 56,29.605468 56,28 C56,24.707032 53.292968,22 50,22 C46.765625,22 44.117189,24.601564 44.011718,27.8125 C43.496093,27.203125 42.910157,26.652343 42.242189,26.230468 C43.332032,25.140625 44,23.640625 44,22 C44,18.707032 41.292968,16 38,16 Z M38,19 C39.675782,19 41,20.324218 41,22 C41,23.675782 39.675782,25 38,25 C36.324218,25 35,23.675782 35,22 C35,20.324218 36.324218,19 38,19 Z M26,25 C27.675782,25 29,26.324218 29,28 C29,29.675782 27.675782,31 26,31 C24.324218,31 23,29.675782 23,28 C23,26.324218 24.324218,25 26,25 Z M50,25 C51.675782,25 53,26.324218 53,28 C53,29.675782 51.675782,31 50,31 C48.324218,31 47,29.675782 47,28 C47,26.324218 48.324218,25 50,25 Z M29,37 C25.707032,37 23,39.707032 23,43 C23,44.605468 23.65625,46.070314 24.6875,47.148439 C21.910157,48.683593 20,51.613282 20,55 L23,55 C23,51.671875 25.671875,49 29,49 C32.328125,49 35,51.671875 35,55 L38,55 C38,51.613282 36.089843,48.683593 33.3125,47.148439 C34.34375,46.070314 35,44.605468 35,43 C35,39.707032 32.292968,37 29,37 Z M38,55 L41,55 C41,51.671875 43.671875,49 47,49 C50.328125,49 53,51.671875 53,55 L56,55 C56,51.613282 54.089843,48.683593 51.3125,47.148439 C52.34375,46.070314 53,44.605468 53,43 C53,39.707032 50.292968,37 47,37 C43.707032,37 41,39.707032 41,43 C41,44.605468 41.65625,46.070314 42.6875,47.148439 C39.910157,48.683593 38,51.613282 38,55 Z M29,40 C30.675782,40 32,41.324218 32,43 C32,44.675782 30.675782,46 29,46 C27.324218,46 26,44.675782 26,43 C26,41.324218 27.324218,40 29,40 Z M47,40 C48.675782,40 50,41.324218 50,43 C50,44.675782 48.675782,46 47,46 C45.324218,46 44,44.675782 44,43 C44,41.324218 45.324218,40 47,40 Z" id="Shape" fill="#FFFFFF" fill-rule="nonzero"></path>
                    </g>
                </g>
            </g>
        </g>
    </g>
</svg>
