<?xml version="1.0" encoding="UTF-8"?>
<svg width="75px" height="75px" viewBox="0 0 75 75" version="1.1" xmlns="http://www.w3.org/2000/svg" xmlns:xlink="http://www.w3.org/1999/xlink">
    <!-- Generator: Sketch 49.3 (51167) - http://www.bohemiancoding.com/sketch -->
    <title>Group 29</title>
    <desc>Created with Sketch.</desc>
    <defs></defs>
    <g id="Landing-3.0" stroke="none" stroke-width="1" fill="none" fill-rule="evenodd">
        <g id="Landing/minter-landing-3-en" transform="translate(-740.000000, -853.000000)">
            <g id="2">
                <g id="Group-7" transform="translate(652.000000, 853.000000)">
                    <g id="Group-29" transform="translate(88.000000, 0.000000)">
                        <path d="M34.5,18 C25.40625,18 18,25.40625 18,34.5 C18,40.640625 21.386718,46.007814 26.378907,48.84375 C29.355468,53.882814 34.699218,57 40.5,57 C49.59375,57 57,49.59375 57,40.5 C57,34.699218 53.882814,29.355468 48.84375,26.378907 C46.007814,21.386718 40.640625,18 34.5,18 Z M34.5,21 C39.386718,21 43.628907,23.636718 45.996093,27.539064 L46.3125,28.089843 C46.746093,28.898439 47.074218,29.71875 47.34375,30.550782 C47.4375,30.832032 47.542968,31.113282 47.613282,31.40625 C47.671875,31.675782 47.71875,31.957032 47.765625,32.226564 C47.894532,32.976564 48,33.726564 48,34.5 C48,41.941407 41.941407,48 34.5,48 C33.726564,48 32.976564,47.894532 32.226564,47.765625 C31.957032,47.71875 31.675782,47.671875 31.40625,47.613282 C31.113282,47.542968 30.832032,47.4375 30.550782,47.34375 C29.71875,47.074218 28.898439,46.746093 28.089843,46.3125 L26.953125,45.691407 C23.367189,43.265625 21,39.152343 21,34.5 C21,27.058593 27.058593,21 34.5,21 Z M36,32.75 L40.25,32.75 C41.0784271,32.75 41.75,33.4215729 41.75,34.25 C41.75,35.0784271 41.0784271,35.75 40.25,35.75 L36,35.75 L36,40 C36,40.8284271 35.3284271,41.5 34.5,41.5 C33.6715729,41.5 33,40.8284271 33,40 L33,35.75 L28.25,35.75 C27.4215729,35.75 26.75,35.0784271 26.75,34.25 C26.75,33.4215729 27.4215729,32.75 28.25,32.75 L33,32.75 L33,28 C33,27.1715729 33.6715729,26.5 34.5,26.5 C35.3284271,26.5 36,27.1715729 36,28 L36,32.75 Z M50.9398097,32 C52.8912354,34.3812032 54,37.4244966 54,40.6187953 C54,47.9947205 48.2676878,54 41.2270319,54 C38.1779285,54 35.2729667,52.8384371 33,50.7940864 C33.0554375,50.8057013 33.110875,50.8057013 33.1552256,50.8057013 C33.9424492,50.9334739 34.7296728,51.026399 35.5501571,51.026399 C36.6256581,51.026399 37.6789852,50.9102442 38.6990486,50.7011613 C40.7280885,50.2597689 42.6129869,49.4002109 44.2650483,48.2270331 C48.4229134,45.2882797 51.1615626,40.3051726 51.1615626,34.6715932 C51.1615626,33.8120381 51.0728615,32.9873277 50.9508967,32.1626173 C50.9508967,32.1161548 50.9508967,32.0580774 50.9398097,32 Z" id="Shape" fill="#FFFFFF" fill-rule="nonzero"></path>
                    </g>
                </g>
            </g>
        </g>
    </g>
</svg>
