<?xml version="1.0" encoding="UTF-8"?>
<svg width="75px" height="75px" viewBox="0 0 75 75" version="1.1" xmlns="http://www.w3.org/2000/svg" xmlns:xlink="http://www.w3.org/1999/xlink">
    <!-- Generator: Sketch 49.3 (51167) - http://www.bohemiancoding.com/sketch -->
    <title>Group 28</title>
    <desc>Created with Sketch.</desc>
    <defs></defs>
    <g id="Landing-3.0" stroke="none" stroke-width="1" fill="none" fill-rule="evenodd">
        <g id="Landing/minter-landing-3-en" transform="translate(-475.000000, -853.000000)">
            <g id="2">
                <g id="Group-8" transform="translate(387.000000, 853.000000)">
                    <g id="Group-28" transform="translate(88.000000, 0.000000)">
                        <path d="M37.5,18 C26.753907,18 18,26.7423921 18,37.4941251 L18,38.9511905 L21,38.9511905 L21,37.4941251 C21,28.3757161 28.371093,21.0081349 37.5,21.0081349 C42.421875,21.0081349 46.792968,23.1819847 49.816407,26.5778862 L46.394532,29.9972904 L57,29.9972904 L57,19.3983135 L51.9375,24.4510416 C48.375,20.5028645 43.230468,18 37.5,18 Z M54,35.9430555 L57,35.9430555 L57,37.447123 C57,48.2341083 48.257814,57 37.5,57 C31.769532,57 26.636718,54.4853887 23.0625,50.5254588 L18,55.6016865 L18,44.9674603 L28.605468,44.9674603 L25.183593,48.3986142 C28.207032,51.8180183 32.578125,53.9918651 37.5,53.9918651 C46.628907,53.9918651 54,46.6007843 54,37.447123 L54,35.9430555 Z M37.0053333,47.9 C36.8453325,47.9 36.7093339,47.8480005 36.5973333,47.744 C36.4853328,47.6399995 36.4293333,47.5000009 36.4293333,47.324 L36.4293333,45.644 C35.2773276,45.5319994 34.2893374,45.2520022 33.4653333,44.804 C32.6413292,44.3559978 32.0173354,43.8080032 31.5933333,43.16 C31.1693312,42.5119968 30.9413335,41.8200037 30.9093333,41.084 C30.9093333,40.9559994 30.9613328,40.8400005 31.0653333,40.736 C31.1693338,40.6319995 31.2933326,40.58 31.4373333,40.58 L33.5973333,40.58 C33.7893343,40.58 33.9373328,40.6159996 34.0413333,40.688 C34.1453338,40.7600004 34.2453328,40.8759992 34.3413333,41.036 C34.5173342,41.5800027 34.8893305,42.0359982 35.4573333,42.404 C36.0253362,42.7720018 36.8053284,42.956 37.7973333,42.956 C38.9013388,42.956 39.7373305,42.7680019 40.3053333,42.392 C40.8733362,42.0159981 41.1573333,41.5000033 41.1573333,40.844 C41.1573333,40.4119978 41.0133348,40.0520014 40.7253333,39.764 C40.4373319,39.4759986 40.0013362,39.2240011 39.4173333,39.008 C38.8333304,38.7919989 37.973339,38.5320015 36.8373333,38.228 C34.9493239,37.7799978 33.5653377,37.1880037 32.6853333,36.452 C31.8053289,35.7159963 31.3653333,34.6600069 31.3653333,33.284 C31.3653333,32.0359938 31.8173288,30.9800043 32.7213333,30.116 C33.6253378,29.2519957 34.8613255,28.724001 36.4293333,28.532 L36.4293333,26.876 C36.4293333,26.6999991 36.4853328,26.5600005 36.5973333,26.456 C36.7093339,26.3519995 36.8453325,26.3 37.0053333,26.3 L38.4933333,26.3 C38.6693342,26.3 38.8093328,26.3519995 38.9133333,26.456 C39.0173338,26.5600005 39.0693333,26.6999991 39.0693333,26.876 L39.0693333,28.58 C40.1093385,28.7240007 41.0013296,29.0319976 41.7453333,29.504 C42.489337,29.9760024 43.0573314,30.5239969 43.4493333,31.148 C43.8413353,31.7720031 44.0533332,32.379997 44.0853333,32.972 C44.0853333,33.1160007 44.0373338,33.2359995 43.9413333,33.332 C43.8453328,33.4280005 43.725334,33.476 43.5813333,33.476 L41.3013333,33.476 C40.9653316,33.476 40.733334,33.3320014 40.6053333,33.044 C40.5093328,32.5319974 40.193336,32.1040017 39.6573333,31.76 C39.1213306,31.4159983 38.4533373,31.244 37.6533333,31.244 C36.7733289,31.244 36.0813358,31.4119983 35.5773333,31.748 C35.0733308,32.0840017 34.8213333,32.5719968 34.8213333,33.212 C34.8213333,33.6440022 34.9453321,34.0039986 35.1933333,34.292 C35.4413346,34.5800014 35.8413306,34.8359989 36.3933333,35.06 C36.9453361,35.2840011 37.7333282,35.5239987 38.7573333,35.78 C40.1813404,36.1000016 41.3133291,36.459998 42.1533333,36.86 C42.9933375,37.260002 43.6133313,37.763997 44.0133333,38.372 C44.4133353,38.980003 44.6133333,39.7559953 44.6133333,40.7 C44.6133333,42.092007 44.1133383,43.2199957 43.1133333,44.084 C42.1133283,44.9480043 40.7653418,45.4679991 39.0693333,45.644 L39.0693333,47.324 C39.0693333,47.5000009 39.0173338,47.6399995 38.9133333,47.744 C38.8093328,47.8480005 38.6693342,47.9 38.4933333,47.9 L37.0053333,47.9 Z" id="Combined-Shape" fill="#FFFFFF" fill-rule="nonzero"></path>
                    </g>
                </g>
            </g>
        </g>
    </g>
</svg>
