<svg width="437" height="587" viewBox="0 0 437 587" fill="none" xmlns="http://www.w3.org/2000/svg">
<path fill-rule="evenodd" clip-rule="evenodd" d="M321.705 369.705C288.082 398.162 264.732 415.889 226.439 424.286C188.146 432.683 127.437 408.891 120.432 403.293C120.432 403.293 130.706 400.961 129.772 389.765C128.838 378.568 98.4839 347.779 76.5356 335.183C54.5867 322.588 28.4356 318.856 28.4356 318.856C28.4356 318.856 35.9076 317.922 34.5066 303.461C33.1057 288.999 20.497 291.331 20.497 291.331C20.497 291.331 45.7144 276.403 48.9828 254.477C52.252 232.551 52.252 216.224 39.6433 188.7C27.0346 161.176 16.2941 146.248 12.0912 140.183C7.88829 134.119 1.34998 127.121 1.34998 127.121C1.34998 127.121 43.379 116.858 55.0539 136.918C55.0539 136.918 58.3231 142.049 51.3182 145.781C44.3134 149.514 35.4404 150.913 35.9076 153.245C36.3741 155.578 39.6433 160.71 39.6433 160.71C39.6433 160.71 44.7799 163.042 44.3134 166.774C43.8462 170.506 41.0443 170.972 41.0443 173.306C41.0443 175.638 41.0443 180.303 42.4452 180.769C43.8462 181.236 51.7848 188.234 51.7848 188.234C51.7848 188.234 61.125 192.899 69.0636 177.504C77.0022 162.109 81.205 148.114 81.205 148.114L82.1395 139.717C82.1395 139.717 118.565 142.982 148.451 161.643C178.339 180.303 179.273 184.035 179.273 184.035C179.273 184.035 154.99 194.764 146.584 212.492C138.178 230.219 152.323 261.627 183.009 275.004C208.693 286.2 243.251 272.205 243.251 272.205L280.142 195.231C280.142 195.231 298.822 184.035 301.624 183.568C304.426 183.102 322.638 187.301 322.638 187.301C322.638 187.301 366.536 206.427 367.469 208.294C368.403 210.159 377.743 225.554 377.743 227.42C377.743 229.286 374.007 273.138 374.007 273.138C374.007 273.138 355.328 341.248 321.705 369.705Z" fill="#992719"/>
<path fill-rule="evenodd" clip-rule="evenodd" d="M341.785 139.017L354.393 182.402L392.92 200.596C392.92 200.596 393.27 201.646 394.671 206.194C396.072 210.742 399.575 227.187 399.575 227.187C399.575 227.187 413.234 235.584 415.686 238.733C418.137 241.882 418.488 255.527 418.488 255.527C418.488 255.527 434.599 281.768 435.299 286.317C436 290.865 428.995 302.061 413.934 313.607C398.874 325.153 410.432 316.406 410.432 316.406L396.422 323.754C396.422 323.754 402.26 311.158 394.555 303.461C387.863 296.777 382.763 294.714 382.763 294.714L384.864 292.614C384.864 292.614 382.063 290.165 382.413 287.366C382.763 284.567 384.164 282.468 384.164 282.468L370.855 273.721L361.048 261.825L356.845 243.981C356.845 243.981 347.389 254.827 333.729 263.924C320.07 273.021 309.563 276.52 309.563 276.52L306.761 315.707C306.761 315.707 310.963 328.652 321.12 362.59C331.277 396.529 333.029 406.326 332.678 412.273C332.328 418.221 335.831 428.368 335.831 428.368C335.831 428.368 356.495 436.065 357.195 460.557C357.896 485.049 350.541 527.384 350.541 527.384C350.541 527.384 359.647 549.427 358.947 563.072L345.637 584.415L335.48 585.464L323.572 563.772C323.572 563.772 346.338 534.732 342.135 508.141C337.932 481.55 317.968 462.656 317.968 462.656C317.968 462.656 318.669 433.966 317.968 431.167C317.268 428.368 314.116 424.869 314.116 424.869L308.162 419.621C308.162 419.621 298.355 401.077 287.147 375.886C275.939 350.695 272.787 333.55 272.787 333.55C272.787 333.55 269.635 383.583 275.939 408.425C282.244 433.266 294.502 442.713 294.502 442.713C294.502 442.713 289.599 454.609 285.046 473.503C280.864 490.854 288.198 513.739 288.198 513.739C288.198 513.739 288.198 514.439 279.091 516.888C269.985 519.337 267.183 521.086 266.483 523.535C266.483 523.535 268.584 530.183 264.031 532.632C259.478 535.082 229.707 538.58 223.403 537.181C217.099 535.781 212.896 535.082 214.297 533.682C215.698 532.282 221.302 530.183 221.302 530.183C221.302 530.183 256.326 513.039 257.727 511.989C259.128 510.94 275.239 502.193 275.239 502.193C275.239 502.193 272.787 479.101 268.584 461.257C264.381 443.413 261.579 436.765 261.579 436.765L253.874 426.968L254.925 409.824C254.925 409.824 245.118 383.583 243.717 368.189C243.717 368.189 242.666 340.548 242.316 321.305C241.966 302.061 243.017 279.319 243.017 279.319C243.017 279.319 244.067 263.574 240.215 249.229C236.362 234.884 233.56 227.537 233.56 227.537C233.56 227.537 231.108 219.839 233.21 214.591C235.311 209.343 238.113 207.244 238.113 207.244L235.662 200.246C235.662 200.246 252.473 184.501 266.483 180.303C280.492 176.104 283.645 176.454 283.645 176.454L299.406 175.754L296.253 148.464L291 119.774C291 119.774 292.401 116.275 294.502 110.327C296.604 104.379 302.908 91.4332 319.369 88.2843C335.831 85.1354 343.186 97.0313 342.835 106.128L343.536 119.074L344.587 122.922L341.785 139.017Z" fill="#972619"/>
<path fill-rule="evenodd" clip-rule="evenodd" d="M206.592 237.683C206.592 237.683 211.845 243.631 221.652 239.083C231.459 234.534 234.961 229.286 234.961 229.286C234.961 229.286 240.915 245.73 241.616 254.477C242.316 263.224 241.266 266.373 241.266 266.373C241.266 266.373 227.606 267.073 224.104 266.723L220.601 266.373L201.338 264.274C201.338 264.274 209.043 262.175 210.094 257.626C211.145 253.078 208.343 247.83 208.343 247.83L202.039 241.882L207.292 240.132L206.592 237.683Z" fill="#FF7F4C"/>
<path fill-rule="evenodd" clip-rule="evenodd" d="M295.553 115.225C295.553 115.225 297.304 99.1306 314.116 93.5325C330.927 87.9344 338.632 107.878 338.632 107.878C338.632 107.878 323.572 107.528 314.466 108.227C305.359 108.927 295.553 115.225 295.553 115.225Z" fill="#72120C"/>
<path fill-rule="evenodd" clip-rule="evenodd" d="M340.734 143.216C340.033 144.265 331.978 178.903 331.978 178.903C331.978 178.903 320.42 179.253 317.268 180.653C314.116 182.052 312.364 183.452 312.364 183.452C312.364 183.452 307.811 178.204 306.761 176.804C305.71 175.405 304.309 175.405 304.309 175.405L300.806 157.91C300.806 157.91 313.065 175.405 312.364 174.005L311.664 172.605L319.719 170.506L340.734 143.216Z" fill="#72120C"/>
<path fill-rule="evenodd" clip-rule="evenodd" d="M358.596 236.284C355.444 228.936 387.316 199.896 392.92 202.345C398.524 204.794 400.625 229.286 400.625 229.286C400.625 229.286 401.326 241.532 385.565 245.031C369.804 248.529 358.596 236.284 358.596 236.284Z" fill="#72120C"/>
<path fill-rule="evenodd" clip-rule="evenodd" d="M233.56 227.537C233.56 215.291 277.34 223.688 292.751 248.529C308.162 273.371 309.212 283.518 308.862 285.967C308.512 288.416 307.461 294.014 307.461 294.014C307.461 294.014 269.285 304.86 259.828 298.562C250.372 292.265 242.316 281.768 242.316 281.768C242.316 281.768 243.717 261.475 240.215 249.229C236.712 236.983 233.56 227.537 233.56 227.537Z" fill="#72120C"/>
<path fill-rule="evenodd" clip-rule="evenodd" d="M235.662 232.785C227.256 240.832 214.297 240.832 214.297 240.832L207.292 240.132L202.038 241.882L203.089 243.281C203.089 243.281 207.992 242.931 209.393 250.979C210.794 259.026 208.343 260.425 208.343 260.425C208.343 260.425 216.398 261.125 228.306 260.425C240.215 259.726 241.966 259.026 241.966 259.026C241.966 259.026 238.113 240.482 237.763 239.433C237.413 238.383 236.012 231.035 236.012 231.035" fill="#EC5C24"/>
<path fill-rule="evenodd" clip-rule="evenodd" d="M301.157 292.264C301.157 294.014 300.456 317.106 300.456 317.106C300.456 317.106 314.116 354.193 321.821 383.933C329.526 413.674 330.227 424.52 330.227 425.919C330.227 427.319 329.876 434.666 328.476 433.967C327.075 433.267 314.116 424.87 314.116 424.87C314.116 424.87 320.07 440.265 319.019 449.711C317.968 459.158 317.268 461.257 317.268 461.257C317.268 461.257 332.678 474.552 338.282 493.796C343.886 513.039 342.485 525.985 342.485 525.985C342.485 525.985 334.78 546.278 330.227 553.275C325.674 560.273 322.872 565.171 323.572 563.772C324.273 562.372 327.425 562.722 342.835 560.273L331.978 564.471C331.978 564.471 341.434 563.772 348.089 566.571C354.744 569.37 352.642 572.169 352.642 572.169L358.947 563.072C358.947 563.072 361.398 550.126 350.541 527.384C350.541 527.384 357.195 487.498 356.845 467.555C356.495 447.612 351.591 440.964 351.591 440.964C351.591 440.964 336.181 429.768 335.831 428.369C335.48 426.969 332.328 419.272 332.328 419.272L331.628 416.123C331.628 416.123 334.43 401.427 328.826 385.333C323.222 369.238 307.111 316.756 306.761 315.706C306.41 314.657 308.161 289.465 308.161 289.465L301.157 292.264Z" fill="#72120C"/>
<path fill-rule="evenodd" clip-rule="evenodd" d="M242.316 308.009C243.717 309.059 261.93 331.801 262.98 332.151C264.031 332.501 275.239 334.25 275.239 334.25L304.659 310.808C304.659 310.808 308.862 297.163 307.811 297.863C306.76 298.563 283.294 318.156 270.335 314.307C257.376 310.459 245.818 305.21 244.768 302.411C243.717 299.612 243.017 298.213 243.017 298.213L242.316 308.009Z" fill="#72120C"/>
<path fill-rule="evenodd" clip-rule="evenodd" d="M248.971 313.957C248.62 315.357 247.92 372.038 254.925 393.38L261.93 414.723L253.874 426.969L261.579 436.765C261.579 436.765 274.188 477.701 275.239 490.297C276.29 502.893 275.939 504.292 275.939 504.292C275.939 504.292 251.773 516.188 251.072 517.588C250.372 518.987 261.93 521.436 261.93 521.436H241.616C243.017 521.436 261.579 528.084 261.579 528.084C261.579 528.084 224.804 530.883 221.652 534.382C218.5 537.881 241.265 537.531 253.174 535.082C265.082 532.633 267.183 532.633 267.884 528.784C268.584 524.935 264.732 521.786 271.036 519.337C277.34 516.888 287.848 516.888 288.198 513.739C288.548 510.59 283.294 495.895 283.294 495.895C283.294 495.895 278.041 494.146 282.594 477.352C287.147 460.557 294.502 442.713 294.502 442.713C294.502 442.713 280.843 431.517 274.538 411.224C268.234 390.931 273.838 341.948 273.488 340.898C273.137 339.849 272.787 333.551 272.787 333.551L264.381 331.102L248.971 313.957Z" fill="#72120C"/>
<path fill-rule="evenodd" clip-rule="evenodd" d="M342.719 126.188L341.318 141.583L319.719 170.506L312.364 174.005L297.888 156.045L294.619 141.583L308.161 122.456L329.176 126.188H342.719Z" fill="#FFBC77"/>
<path fill-rule="evenodd" clip-rule="evenodd" d="M279.208 125.255L281.077 130.386L284.345 126.188L286.213 130.853L281.077 135.052L282.01 138.784L287.147 135.985C287.147 135.985 288.081 142.982 298.355 139.717C308.629 136.451 310.963 125.255 310.963 125.255C310.963 125.255 317.968 135.985 329.643 133.185C341.318 130.386 343.186 121.523 343.186 121.523L347.388 121.989V116.391L340.851 117.325L341.318 112.193L348.323 113.126L347.856 107.994C347.856 107.994 310.03 97.7314 279.208 125.255Z" fill="#EC5C24"/>
<path fill-rule="evenodd" clip-rule="evenodd" d="M382.763 294.714C382.763 294.714 386.149 282.934 386.616 281.535C387.083 280.135 395.021 263.341 405.295 263.808C415.569 264.274 432.381 281.535 431.914 293.198C431.447 304.861 425.376 306.26 416.036 312.324C406.696 318.389 397.823 323.054 397.823 323.054C397.823 323.054 402.026 316.523 396.89 308.126C391.753 299.728 384.748 296.463 384.748 296.463L382.763 294.714Z" fill="#FF7F4C"/>
<path fill-rule="evenodd" clip-rule="evenodd" d="M399.224 316.523C400.625 315.59 426.31 296.929 428.178 288.532C430.046 280.135 424.442 275.004 415.569 269.406C406.696 263.808 410.432 261.941 406.696 263.808C402.961 265.673 393.154 279.668 389.418 287.6L385.682 295.53C385.682 295.53 387.55 297.396 392.219 303.927C396.89 310.459 399.224 316.523 399.224 316.523Z" fill="#EC5C24"/>
<path fill-rule="evenodd" clip-rule="evenodd" d="M243.017 279.319C243.017 279.319 245.585 296.93 268.934 297.863C292.284 298.795 308.162 289.465 308.162 289.465L307.811 297.863C307.811 297.863 284.345 318.855 265.666 313.257C246.986 307.659 243.017 298.212 243.017 298.212V279.319Z" fill="#EC5C24"/>
<path fill-rule="evenodd" clip-rule="evenodd" d="M293.218 138.317C294.941 139.177 301.157 118.724 315.166 112.193L305.36 126.188C305.36 126.188 321.237 109.394 332.445 107.528C332.445 107.528 301.624 104.729 279.208 125.255L281.077 130.387L284.345 126.188L286.213 130.853L281.077 135.051L282.01 138.784L287.147 135.985C287.147 135.985 291.35 137.384 293.218 138.317Z" fill="#FF7F4C"/>
<path fill-rule="evenodd" clip-rule="evenodd" d="M207.292 240.132C206.825 238.15 200.287 216.69 200.287 216.69C200.287 216.69 199.354 214.825 193.283 216.69C187.212 218.557 185.344 219.956 185.344 219.956L184.877 221.822L178.339 219.956C178.339 219.956 167.598 229.286 166.197 233.485C166.197 233.485 173.202 254.477 176.471 261.008C179.74 267.54 182.075 269.405 182.075 269.405C182.075 269.405 190.481 270.339 199.354 266.14C208.226 261.942 209.16 262.642 210.094 257.626C211.028 252.611 208.343 247.83 208.343 247.83L202.039 241.882L207.292 240.132Z" fill="#FFBC77"/>
<path fill-rule="evenodd" clip-rule="evenodd" d="M390.819 306.26C389.885 304.394 378.677 289.466 378.677 289.466C378.677 289.466 377.743 288.532 370.271 291.331C362.799 294.13 365.135 294.597 361.398 295.53C357.663 296.463 356.262 297.863 356.262 297.863L359.064 308.126C359.064 308.126 348.79 315.59 345.054 319.322C341.318 323.054 343.186 326.319 343.186 326.319L341.318 334.25C341.318 334.25 345.054 337.982 352.059 339.849C359.064 341.714 358.596 343.114 360.465 342.181C362.333 341.248 377.276 335.183 387.083 329.118C396.89 323.054 400.159 322.121 400.159 322.121L410.432 316.407C410.432 316.407 415.569 297.863 406.229 292.265C406.229 292.265 399.692 289.466 392.687 289.932C385.682 290.399 383.347 293.198 383.347 293.198L390.819 306.26Z" fill="#FFBC77"/>
<path fill-rule="evenodd" clip-rule="evenodd" d="M364.667 186.834C364.667 186.834 368.87 178.904 379.611 171.439C390.352 163.975 403.427 159.776 402.026 160.243C400.625 160.71 377.743 165.841 375.408 165.841C373.073 165.841 372.14 162.575 370.739 161.643C369.338 160.71 355.328 163.975 346.455 171.439C337.582 178.904 339.917 178.437 339.917 178.437C339.917 178.437 348.79 180.303 354.393 182.402C359.997 184.502 362.799 187.301 364.667 186.834Z" fill="#992719"/>
<path fill-rule="evenodd" clip-rule="evenodd" d="M319.369 181.236C314.354 183.565 309.562 189.633 334.78 189.633C359.997 189.633 364.667 185.434 358.596 183.568C352.526 181.703 332.678 175.055 319.369 181.236Z" fill="#EC5C24"/>
<path fill-rule="evenodd" clip-rule="evenodd" d="M350.658 189.633C352.059 189.166 392.92 200.596 392.92 200.596L358.596 183.568L350.658 189.633Z" fill="#992719"/>
<path fill-rule="evenodd" clip-rule="evenodd" d="M281.543 177.037C282.01 175.638 280.609 173.306 280.609 173.306L269.869 161.643C269.869 161.643 256.326 164.908 258.194 163.509C260.062 162.109 275.939 156.511 275.939 156.511L297.888 163.042L299.405 175.755L281.543 177.037Z" fill="#992719"/>
<path fill-rule="evenodd" clip-rule="evenodd" d="M299.405 175.754C299.405 175.754 316.148 176.838 310.963 188.233C303.959 203.628 275.939 209.226 265.666 208.76C255.392 208.293 246.986 196.164 268.934 184.501C290.883 172.838 299.405 175.754 299.405 175.754Z" fill="#FF7F4C"/>
<path fill-rule="evenodd" clip-rule="evenodd" d="M292.751 178.903C309.621 178.903 305.827 198.03 276.874 202.228C243.484 207.071 277.34 178.903 292.751 178.903Z" fill="#EC5C24"/>
<path fill-rule="evenodd" clip-rule="evenodd" d="M357.195 234.884L369.804 256.81C369.804 256.81 403.894 261.942 402.493 262.875C401.092 263.807 385.147 283.904 385.147 283.904L362.799 263.341L357.195 238.15" fill="#72120C"/>
<path fill-rule="evenodd" clip-rule="evenodd" d="M357.663 218.556C356.262 219.023 325.908 226.953 321.705 224.621C317.502 222.288 290.883 204.094 290.883 204.094C290.883 204.094 285.746 205.028 287.147 205.028C288.548 205.028 320.304 230.219 320.304 230.219C320.304 230.219 333.846 230.219 343.653 226.021C353.46 221.822 357.663 218.556 357.663 218.556Z" fill="#72120C"/>
<path fill-rule="evenodd" clip-rule="evenodd" d="M255.859 196.164C243.251 196.631 235.661 200.246 235.661 200.246L236.712 205.494C236.712 205.494 236.712 207.127 238.113 207.243C239.514 207.36 249.321 201.762 249.321 201.762L255.392 199.896L255.859 196.164Z" fill="#72120C"/>
<path fill-rule="evenodd" clip-rule="evenodd" d="M178.339 219.956C180.207 232.552 190.48 256.81 190.48 256.81L183.009 264.274C183.009 264.274 179.74 266.607 183.009 267.073C186.277 267.54 182.542 271.271 195.618 265.673C208.693 260.075 210.094 257.626 210.094 257.626C210.094 257.626 211.495 254.944 209.393 250.978C207.292 247.013 203.089 243.281 203.089 243.281H196.551L190.48 223.688L178.339 219.956Z" fill="#EF944A"/>
<path fill-rule="evenodd" clip-rule="evenodd" d="M190.481 223.688C193.283 218.09 197.953 212.492 200.287 216.69C202.622 220.889 205.424 240.016 205.424 240.016L196.552 243.281L190.481 223.688Z" fill="#EF944A"/>
<path fill-rule="evenodd" clip-rule="evenodd" d="M341.318 334.25C342.252 329.585 343.186 326.319 343.186 326.319C343.186 326.319 340.384 328.652 346.922 323.054C353.46 317.456 353.46 319.789 353.46 319.789C353.46 319.789 356.729 316.989 361.398 314.657L366.068 312.324C366.068 312.324 376.809 305.793 380.545 308.126C384.281 310.459 384.281 312.791 384.281 312.791L374.007 301.595C374.007 301.595 375.408 288.066 378.677 289.466C381.946 290.865 388.951 302.994 388.951 302.994L404.828 291.331C404.828 291.331 412.3 297.863 411.833 304.861C411.366 311.858 408.564 316.523 408.564 316.523C408.564 316.523 373.54 337.05 364.2 340.781L350.658 338.915L341.318 334.25Z" fill="#EF944A"/>
<path fill-rule="evenodd" clip-rule="evenodd" d="M146.117 146.714C134.288 148.065 159.193 159.777 170.867 169.107C182.542 178.437 162.461 144.848 146.117 146.714Z" fill="#992719"/>
<path d="M355.707 244.611C331.818 269.922 310.099 276.431 310.099 276.431L307.203 306.805L306.48 314.76C306.48 314.76 322.423 367.181 328.215 384.538C333.223 399.549 331.193 411.315 332.426 417.962C332.619 419.002 332.891 419.915 333.282 420.697C336.178 426.483 336.902 428.653 336.902 428.653C336.902 428.653 353.553 435.884 356.449 453.241C360.558 477.87 348.72 517.983 350.891 527.385C353.063 536.785 360.303 549.803 358.855 563.543L345.099 584.516L335.688 585.239L324.106 563.543C324.106 563.543 342.204 536.785 342.928 517.26C343.976 488.991 317.356 462.642 317.356 462.642C317.356 462.642 320.634 439.199 317.356 429.376C315.908 425.036 310.84 421.421 310.84 421.421C310.84 421.421 307.944 417.804 297.81 399.725C287.675 381.645 273.179 333.563 273.179 333.563C273.179 333.563 271.748 361.396 273.196 394.662C274.643 427.929 294.19 443.116 294.19 443.116C294.19 443.116 288.398 462.642 284.779 472.044C281.159 481.445 284.054 499.525 284.054 499.525C284.054 499.525 289.122 511.819 287.675 513.266C283.331 517.605 271.023 517.605 268.128 521.221C265.232 524.837 274.643 532.068 251.478 534.962C228.311 537.854 221.073 536.407 216.729 534.238C212.385 532.068 223.968 529.175 223.968 529.175C238.447 521.221 276.091 502.418 276.091 502.418C276.091 482.892 262.337 436.608 262.337 436.608L254.374 426.483L255.097 409.849C239.895 378.029 242.049 339.348 242.773 316.206C243.497 293.064 244.945 272.092 238.429 242.441C238.429 242.441 233.362 227.977 232.638 223.638C231.281 215.505 239.394 207.728 239.394 207.728" stroke="#48100A" stroke-width="2" stroke-linecap="round" stroke-linejoin="round"/>
<path d="M243.497 278.601C246.393 289.448 254.356 308.252 307.203 291.618" stroke="#48100A" stroke-width="2" stroke-linecap="round" stroke-linejoin="round"/>
<path d="M242.049 297.404C242.049 297.404 251.46 317.653 276.074 313.313C300.688 308.974 308.651 297.404 308.651 297.404" stroke="#48100A" stroke-width="2" stroke-linecap="round" stroke-linejoin="round"/>
<path d="M294.896 315.483C278.97 326.331 274.626 333.563 273.178 333.563L263.767 332.117L260.148 316.929" stroke="#48100A" stroke-width="2" stroke-linecap="round" stroke-linejoin="round"/>
<path d="M341.952 179.524C341.952 179.524 376.942 189.166 394.317 202.907L399.868 226.531L415.794 239.549C415.794 239.549 420.137 244.611 417.241 258.351" stroke="#48100A" stroke-width="2" stroke-linecap="round" stroke-linejoin="round"/>
<path d="M385.147 283.904C385.147 283.904 361.499 267.03 360.774 259.798C360.051 252.566 355.707 236.655 355.707 236.655" stroke="#48100A" stroke-width="2" stroke-linecap="round" stroke-linejoin="round"/>
<path d="M279.693 201.942C285.486 202.666 317.338 230.147 321.682 230.147C326.026 230.147 345.572 227.254 357.155 219.299" stroke="#48100A" stroke-width="2" stroke-linecap="round" stroke-linejoin="round"/>
<path d="M261.93 199.196C251.794 198.473 238.429 208.451 238.429 208.451L236.258 201.219C236.258 201.219 247.841 183.14 281.865 177.354" stroke="#48100A" stroke-width="2" stroke-linecap="round" stroke-linejoin="round"/>
<path d="M342.175 136.953C342.687 141.563 350.891 168.197 350.891 168.197" stroke="#48100A" stroke-width="2" stroke-linecap="round" stroke-linejoin="round"/>
<path d="M208.748 238.73C215.13 243.608 229.503 236.422 236.162 229.36" stroke="#48100A" stroke-width="2" stroke-linecap="round" stroke-linejoin="round"/>
<path fill-rule="evenodd" clip-rule="evenodd" d="M296.344 175.908C326.75 176.842 308.892 206.282 272.213 209.174C235.533 212.067 264.974 174.943 296.344 175.908Z" stroke="#48100A" stroke-width="2" stroke-linecap="round" stroke-linejoin="round"/>
<path d="M185.029 263.266L190.034 258.612L199.294 257.209C199.294 257.209 199.508 254.95 197.486 246.211C195.463 237.472 190.988 224.512 190.988 224.512L180.057 219.488C180.057 219.488 177.283 218.656 166.172 233.559C166.172 233.559 174.044 258.807 182.798 268.753C182.798 268.753 187.671 271.494 200.24 265.277C202.53 264.143 224.549 267.578 239.57 265.582" stroke="#48100A" stroke-width="2" stroke-linecap="round" stroke-linejoin="round"/>
<path d="M186.895 219.566C191.899 214.911 200.784 217.462 200.784 217.462L206.609 240.237L198.319 243.441" stroke="#48100A" stroke-width="2" stroke-linecap="round" stroke-linejoin="round"/>
<path d="M198.021 240.564L200.575 231.688L205.02 238.947" stroke="#48100A" stroke-width="2" stroke-linecap="round" stroke-linejoin="round"/>
<path d="M425.756 281.146C425.274 276.324 408.125 258.297 399.211 265.717C384.733 277.771 383.285 287.895 383.285 287.895" stroke="#48100A" stroke-width="2" stroke-linecap="round" stroke-linejoin="round"/>
<path d="M383.285 294.162C397.764 282.592 419.964 293.199 409.346 316.823" stroke="#48100A" stroke-width="2" stroke-linecap="round" stroke-linejoin="round"/>
<path d="M203.973 243.976C211.566 248.115 210.762 256.586 209.982 258.791C209.202 260.997 200.24 265.276 200.24 265.276" stroke="#48100A" stroke-width="2" stroke-linecap="round" stroke-linejoin="round"/>
<path d="M222.61 263.976C226.805 255.826 222.331 242.865 214.012 240.369" stroke="#48100A" stroke-width="2" stroke-linecap="round" stroke-linejoin="round"/>
<path d="M223.432 237.271C228.926 239.502 232.095 254.856 222.907 266.853" stroke="#48100A" stroke-width="2" stroke-linecap="round" stroke-linejoin="round"/>
<path d="M229.461 233.854C236.221 240.762 241.529 250.952 235.101 264.589" stroke="#48100A" stroke-width="2" stroke-linecap="round" stroke-linejoin="round"/>
<path d="M418.69 255.458C418.69 255.458 431.307 275.119 435.65 285.967C435.65 285.967 439.27 304.047 388.594 327.912C388.594 327.912 365.91 341.411 359.637 340.929C353.362 340.447 344.675 327.43 343.227 325.983C343.227 325.983 339.367 321.162 352.88 312.483C366.394 303.806 369.289 302.841 369.289 302.841" stroke="#48100A" stroke-width="2" stroke-linecap="round" stroke-linejoin="round"/>
<path d="M372.185 301.395C377.976 301.877 384.25 313.448 384.25 313.448L376.528 317.305L382.32 325.983" stroke="#48100A" stroke-width="2" stroke-linecap="round" stroke-linejoin="round"/>
<path d="M391.973 306.216C391.007 304.77 379.424 289.342 379.424 289.342C379.424 289.342 373.633 288.859 369.289 291.752C364.945 294.645 355.775 298.02 355.775 298.02C355.775 298.02 356.258 305.734 359.637 306.698" stroke="#48100A" stroke-width="2" stroke-linecap="round" stroke-linejoin="round"/>
<path d="M260.148 215.442L263.044 290.172" stroke="#48100A" stroke-width="2" stroke-linecap="round" stroke-linejoin="round"/>
<path d="M359.085 235.692C359.085 235.692 362.378 248.678 381.286 245.816C397.213 243.405 399.143 233.281 399.143 233.281" stroke="#48100A" stroke-width="2" stroke-linecap="round" stroke-linejoin="round"/>
<path d="M344.226 121.587C343.468 128.88 341.149 142.074 341.149 142.074L320.128 170.758L311.977 173.423L298.26 156.785L294.24 139.572" stroke="#48100A" stroke-width="2" stroke-linecap="round" stroke-linejoin="round"/>
<path d="M292.751 113.826C292.751 113.826 297.654 92.133 321.471 88.6341C332.966 86.9456 342.688 94.4401 342.688 106.733" stroke="#48100A" stroke-width="2" stroke-linecap="round" stroke-linejoin="round"/>
<path d="M295.811 147.487C297.281 156.295 298.26 173.423 299.24 176.359" stroke="#48100A" stroke-width="2" stroke-linecap="round" stroke-linejoin="round"/>
<path fill-rule="evenodd" clip-rule="evenodd" d="M328.632 137.21C315.895 136.721 300.219 142.104 300.219 142.104C300.219 142.104 301.2 150.912 306.588 154.827C306.588 154.827 314.916 155.806 322.753 151.891C322.753 151.891 325.203 147.976 327.162 144.062C329.122 140.147 328.632 137.21 328.632 137.21Z" fill="#13173F"/>
<path fill-rule="evenodd" clip-rule="evenodd" d="M304.139 141.615C305.118 145.529 304.628 151.402 308.547 153.36C312.467 155.317 319.815 151.402 319.815 151.402C319.815 151.402 329.122 141.615 328.632 137.21L304.139 141.615Z" fill="white"/>
<path fill-rule="evenodd" clip-rule="evenodd" d="M280.135 126.444C280.135 126.444 298.75 101.487 347.737 108.827L348.716 113.232L342.348 112.742V117.636L348.227 117.147V121.551H342.838C342.838 121.551 342.838 130.36 332.061 132.806C321.284 135.253 310.997 125.466 310.997 125.466C310.997 125.466 312.362 132.975 302.669 138.189C296.3 141.615 288.676 140.364 286.993 135.742L283.075 138.189L281.605 134.274L285.523 131.338L284.544 126.934L281.115 130.36L280.135 126.444Z" stroke="#48100A" stroke-width="2" stroke-linecap="round" stroke-linejoin="round"/>
<path d="M338.815 180.247C339.78 178.318 347.985 169.158 360.05 164.337C372.116 159.516 373.564 165.301 373.564 165.301C373.564 165.301 373.564 167.711 389.491 163.855L401.556 161.444C401.556 161.444 395.765 159.998 382.734 169.158C369.703 178.318 364.395 186.997 365.36 186.515" stroke="#48100A" stroke-width="2" stroke-linecap="round" stroke-linejoin="round"/>
<path fill-rule="evenodd" clip-rule="evenodd" d="M329.162 179.765C350.368 178.542 373.565 186.032 344.607 188.925C315.649 191.818 304.066 181.211 329.162 179.765Z" stroke="#48100A" stroke-width="2" stroke-linecap="round" stroke-linejoin="round"/>
<path d="M282.186 175.367C282.186 175.367 277.059 172.294 273.983 166.66C270.906 161.026 268.343 161.026 266.292 162.05C264.241 163.074 257.727 164.908 257.727 164.908C257.727 164.908 263.728 161.538 275.008 159.49C286.287 157.44 291.502 164.533 297.654 163.508" stroke="#48100A" stroke-width="2" stroke-linecap="round" stroke-linejoin="round"/>
<path d="M376.528 333.697C375.563 332.251 363.015 316.823 362.533 314.894C362.049 312.966 373.15 302.841 373.15 302.841" stroke="#48100A" stroke-width="2" stroke-linecap="round" stroke-linejoin="round"/>
<path d="M365.91 338.036C365.91 338.036 354.81 324.055 353.845 320.198C352.879 316.34 352.397 314.412 358.671 309.591" stroke="#48100A" stroke-width="2" stroke-linecap="round" stroke-linejoin="round"/>
<path d="M359.637 340.929C357.706 340.929 344.193 337.555 342.745 334.661C341.297 331.768 343.227 325.983 343.227 325.983" stroke="#48100A" stroke-width="2" stroke-linecap="round" stroke-linejoin="round"/>
<path d="M365.91 293.681C363.498 299.466 358.189 305.251 358.189 305.251" stroke="#48100A" stroke-width="2" stroke-linecap="round" stroke-linejoin="round"/>
<path d="M169.73 244.153C170.457 242.512 178.259 232.424 180.116 230.89C181.973 229.356 191.583 230.267 191.583 230.267" stroke="#48100A" stroke-width="2" stroke-linecap="round" stroke-linejoin="round"/>
<path d="M180.057 219.488C180.193 224.06 187.125 253.207 191.784 258.207" stroke="#48100A" stroke-width="2" stroke-linecap="round" stroke-linejoin="round"/>
<path d="M172.938 252.434C172.938 252.434 179.96 244.551 183.727 240.92C187.494 237.287 194.683 239.677 194.683 239.677" stroke="#48100A" stroke-width="2" stroke-linecap="round" stroke-linejoin="round"/>
<path d="M177.329 260.258C177.329 260.258 185.185 249.605 186.989 248.636C188.792 247.667 197.837 248.524 197.837 248.524" stroke="#48100A" stroke-width="2" stroke-linecap="round" stroke-linejoin="round"/>
<path d="M317.052 121.075C317.052 121.075 323.717 113.392 333.459 113.903" stroke="#48100A" stroke-width="2" stroke-linecap="round" stroke-linejoin="round"/>
<path d="M305.771 122.611C305.771 122.611 296.03 119.538 291.928 123.636" stroke="#48100A" stroke-width="2" stroke-linecap="round" stroke-linejoin="round"/>
<path d="M351.591 189.4C353.693 189.4 392.92 200.596 392.92 200.596" stroke="#48100A" stroke-width="2" stroke-linecap="round" stroke-linejoin="round"/>
<path d="M255.031 414.282C176.119 446.572 119.732 402.827 119.732 402.827C119.732 402.827 151.254 394.43 103.621 355.243C55.9878 316.057 26.5676 320.255 26.5676 320.255C26.5676 320.255 40.5772 316.057 34.2729 302.062C27.9685 288.066 19.5627 291.565 19.5627 291.565C19.5627 291.565 64.3936 271.971 47.582 211.792C30.7704 151.612 1.35016 129.22 1.35016 129.22C1.35016 129.22 18.1618 118.724 43.3791 128.52C68.5965 138.317 48.2825 148.813 39.8767 151.612C31.4709 154.411 36.3743 158.61 39.8767 161.409C43.3791 164.208 45.4806 167.007 42.6787 170.506C39.8767 174.005 39.8767 179.603 43.3791 181.002C46.8816 182.402 53.8864 197.797 67.896 178.903C81.9057 160.009 82.6062 141.116 82.6062 141.116C82.6062 141.116 153.355 153.012 178.572 183.801C178.572 183.801 133.741 204.094 142.147 232.785C142.147 232.785 162.461 298.563 243.017 273.371" stroke="#48100A" stroke-width="2" stroke-linecap="round" stroke-linejoin="round"/>
<path d="M294.474 392.493C288.325 396.823 281.692 400.988 274.538 404.927" stroke="#48100A" stroke-width="2" stroke-linecap="round" stroke-linejoin="round"/>
<path d="M346.103 338.775C339.96 348.397 332.384 358.33 323.048 368.035" stroke="#48100A" stroke-width="2" stroke-linecap="round" stroke-linejoin="round"/>
<path d="M371.205 272.671C371.205 272.671 371.089 280.126 367.274 292.835" stroke="#48100A" stroke-width="2" stroke-linecap="round" stroke-linejoin="round"/>
<path fill-rule="evenodd" clip-rule="evenodd" d="M425.865 73.209C412.75 91.3139 387.429 95.3697 369.306 82.2688C351.183 69.1679 347.124 43.8715 360.238 25.7673C373.352 7.66379 398.675 3.60798 416.798 16.7089C434.92 29.8098 438.98 55.1055 425.865 73.209Z" fill="#13173F"/>
<path fill-rule="evenodd" clip-rule="evenodd" d="M424.942 78.1258C411.827 96.2307 386.506 100.287 368.383 87.1856C350.26 74.0847 346.2 48.7883 359.316 30.6841C372.429 12.5806 397.752 8.52478 415.875 21.6257C433.998 34.7266 438.057 60.0223 424.942 78.1258Z" fill="#48100A"/>
<path fill-rule="evenodd" clip-rule="evenodd" d="M424.365 72.1238C411.85 89.4009 387.686 93.2706 370.392 80.7693C353.099 68.2674 349.223 44.1292 361.739 26.8514C374.254 9.57568 398.418 5.70531 415.711 18.2079C433.006 30.7092 436.879 54.8481 424.365 72.1238Z" fill="#FF7F4C"/>
<path fill-rule="evenodd" clip-rule="evenodd" d="M420.31 69.1929C409.415 84.2329 388.381 87.6015 373.326 76.7188C358.272 65.8354 354.899 44.823 365.793 29.7831C376.688 14.7438 397.723 11.3752 412.778 22.2578C427.832 33.1405 431.205 54.1543 420.31 69.1929Z" fill="#EC5C24"/>
<path fill-rule="evenodd" clip-rule="evenodd" d="M398.691 76.5838C397.611 78.0757 395.526 78.4088 394.034 77.3304C392.542 76.2514 392.207 74.1703 393.288 72.6777L413.882 44.2492C414.962 42.7595 417.045 42.4264 418.537 43.5047C420.03 44.5837 420.364 46.6655 419.284 48.1553L398.691 76.5838Z" fill="white"/>
<path fill-rule="evenodd" clip-rule="evenodd" d="M395.522 49.8948C395.812 51.7106 394.575 53.4188 392.758 53.7113C390.938 54.0024 389.227 52.7652 388.935 50.9472L385.528 27.5206C385.238 25.7033 386.475 23.9966 388.293 23.7048C390.112 23.4137 391.823 24.6502 392.114 26.4675L395.522 49.8948Z" fill="white"/>
<path fill-rule="evenodd" clip-rule="evenodd" d="M392.732 53.8412C390.913 54.1309 389.204 52.8951 388.911 51.0793C388.621 49.2606 389.859 47.5511 391.678 47.26L405.082 45.4658C406.901 45.1761 408.61 46.4119 408.903 48.2277L409.151 48.5069C409.443 50.3228 407.955 51.7538 406.138 52.0456L392.732 53.8412Z" fill="white"/>
<path fill-rule="evenodd" clip-rule="evenodd" d="M371.278 56.083C370.199 57.5728 368.114 57.908 366.621 56.8282C365.129 55.7499 364.796 53.6667 365.875 52.1769L378.323 34.9936C379.402 33.5031 381.487 33.1686 382.979 34.2469C384.473 35.3267 384.806 37.4092 383.727 38.899L371.278 56.083Z" fill="white"/>
<path fill-rule="evenodd" clip-rule="evenodd" d="M217.355 392.842C231.758 413.334 229.944 440.737 211.415 454.477C191.077 469.559 160.007 461.826 144.461 436.744C129.516 412.632 136.667 384.585 158.086 374.162C177.717 364.608 203.427 373.025 217.355 392.842Z" fill="#13173F"/>
<path fill-rule="evenodd" clip-rule="evenodd" d="M212.03 399.522C226.541 420.225 224.747 448.047 206.111 462.114C185.643 477.565 154.334 469.904 138.661 444.516C123.599 420.116 130.805 391.604 152.373 380.909C172.129 371.114 198.001 379.506 212.03 399.522Z" fill="#48100A"/>
<path fill-rule="evenodd" clip-rule="evenodd" d="M215.934 393.697C229.694 413.321 227.861 439.483 210.114 452.519C190.72 466.765 161.213 459.359 146.415 435.568C132.161 412.65 138.851 385.9 159.23 375.884C177.978 366.668 202.609 374.694 215.934 393.697Z" fill="#FF7F4C"/>
<path fill-rule="evenodd" clip-rule="evenodd" d="M212.047 396.039C224.058 413.282 222.223 436.089 206.622 447.26C189.773 459.323 164.412 452.816 151.618 432.434C139.23 412.699 144.741 389.446 162.337 380.563C178.697 372.305 200.37 379.276 212.047 396.039Z" fill="#EC5C24"/>
<path fill-rule="evenodd" clip-rule="evenodd" d="M213.673 420.283C214.899 422.076 214.681 424.35 213.174 425.367C211.655 426.39 209.415 425.748 208.18 423.925L185.329 390.209C184.166 388.493 184.502 386.413 186.067 385.562C187.621 384.718 189.808 385.404 190.965 387.095L213.673 420.283Z" fill="white"/>
<path fill-rule="evenodd" clip-rule="evenodd" d="M185.137 410.704C187.14 411.293 188.526 413.37 188.238 415.358C187.944 417.364 186.062 418.526 184.028 417.942L157.365 409.865C155.242 409.252 153.867 407.112 154.294 405.095C154.719 403.093 156.762 401.981 158.855 402.596L185.137 410.704Z" fill="white"/>
<path fill-rule="evenodd" clip-rule="evenodd" d="M188.366 415.447C188.073 417.451 186.193 418.612 184.161 418.029C182.119 417.442 180.723 415.326 181.043 413.317L183.7 399.135C184.002 397.247 185.831 396.21 187.783 396.803L188.148 396.701C190.094 397.293 191.086 399.398 190.814 401.285L188.366 415.447Z" fill="white"/>
<path fill-rule="evenodd" clip-rule="evenodd" d="M183.463 439.478C184.728 441.426 184.363 443.949 182.628 445.117C180.88 446.292 178.417 445.638 177.144 443.656L162.74 421.236C161.516 419.33 161.977 416.942 163.756 415.906C165.523 414.876 167.929 415.565 169.147 417.44L183.463 439.478Z" fill="white"/>
<path fill-rule="evenodd" clip-rule="evenodd" d="M128.921 229.569C116.909 249.423 91.7859 256.63 76.0727 246.007C62.5491 236.864 62.0532 217.985 72.8021 203.485C82.9906 189.741 101.521 182.395 116.259 186.932C133.119 192.124 140.128 211.046 128.921 229.569Z" fill="#13173F"/>
<path fill-rule="evenodd" clip-rule="evenodd" d="M131.267 233.803C119.152 253.68 94.2348 260.791 78.8298 250.042C65.5662 240.788 65.2993 221.815 76.1035 207.298C86.3453 193.537 104.76 186.251 119.278 190.895C135.88 196.204 142.571 215.254 131.267 233.803Z" fill="#48100A"/>
<path fill-rule="evenodd" clip-rule="evenodd" d="M127.271 228.802C115.85 247.56 92.0711 254.459 77.0954 244.503C64.1127 235.872 63.5257 217.854 73.799 203.948C83.5574 190.738 101.347 183.72 115.434 188.146C131.453 193.18 137.965 211.237 127.271 228.802Z" fill="#FF7F4C"/>
<path fill-rule="evenodd" clip-rule="evenodd" d="M122.922 226.781C113.079 242.684 92.8212 248.734 79.8314 240.482C68.3484 233.187 67.5646 217.495 76.5448 205.224C85.1257 193.498 100.868 187.371 113.183 191.455C126.966 196.024 132.228 211.747 122.922 226.781Z" fill="#EC5C24"/>
<path fill-rule="evenodd" clip-rule="evenodd" d="M102.445 236.893C101.454 238.431 99.5133 239.033 98.1292 238.242C96.7618 237.461 96.4655 235.62 97.4469 234.125L115.193 207.092C116.076 205.747 117.921 205.096 119.336 205.637C120.767 206.185 121.223 207.747 120.334 209.126L102.445 236.893Z" fill="white"/>
<path fill-rule="evenodd" clip-rule="evenodd" d="M99.355 214.751C99.6121 216.125 98.56 217.685 97.0077 218.22C95.461 218.751 94.03 218.054 93.8065 216.68L91.4143 200.239C91.2224 199.064 92.1982 197.695 93.5985 197.164C95.0064 196.631 96.3303 197.14 96.5524 198.314L99.355 214.751Z" fill="white"/>
<path fill-rule="evenodd" clip-rule="evenodd" d="M96.9858 218.328C95.4398 218.857 94.0094 218.16 93.7853 216.786C93.5653 215.426 94.6083 213.905 96.1207 213.373L107.494 209.645C109.069 209.093 110.614 209.735 110.945 211.096L111.177 211.271C111.513 212.651 110.239 214.057 108.628 214.611L96.9858 218.328Z" fill="white"/>
<path fill-rule="evenodd" clip-rule="evenodd" d="M79.2681 223.498C78.3281 224.836 76.656 225.411 75.5485 224.782C74.4544 224.16 74.3346 222.597 75.2648 221.292L85.6789 206.678C86.5559 205.447 88.1719 204.849 89.3025 205.343C90.4464 205.843 90.6671 207.269 89.7824 208.528L79.2681 223.498Z" fill="white"/>
<path fill-rule="evenodd" clip-rule="evenodd" d="M258.427 183.102L244.418 172.605L245.818 167.007L235.311 150.213L240.915 141.116C240.915 141.116 243.717 136.918 241.616 136.918H226.905C226.905 136.918 222.002 136.218 221.302 134.119C220.601 132.019 205.891 115.225 203.79 114.525C201.688 113.826 193.983 113.826 193.983 113.826L186.277 123.622L175.77 127.821L170.867 141.816L147.751 128.521L130.939 122.922L131.64 117.324L135.142 107.528L133.741 90.7334L124.635 76.0385L128.137 58.5444L124.635 42.4499L95.9151 38.2514L85.4079 34.7526L58.089 22.1569C58.089 22.1569 51.7847 24.2562 51.0842 22.1569C50.3837 20.0576 37.0745 3.96311 37.0745 3.96311L59.49 1.86382L66.4948 13.7598L88.2098 19.3578L92.4127 31.2538L102.219 36.8519H112.026C112.026 36.8519 114.128 23.5564 114.828 21.4571L119.031 8.86143L118.331 3.26334L139.345 1.16406L121.132 23.5564L116.229 34.7526L128.838 38.9511L128.137 44.5492L131.64 67.6413L136.543 66.9416L150.553 43.1497L161.06 24.2562L151.253 1.86382L190.48 2.56358L182.775 23.5564L172.968 31.2538L163.161 34.7526L149.152 53.6461L140.746 64.8423L136.543 76.7382L139.345 88.6342L140.046 92.8327L137.244 98.4308C137.244 98.4308 140.746 111.726 156.157 122.223C171.567 132.719 198.886 112.426 203.79 96.3315C203.79 96.3315 213.596 142.516 244.418 129.92L250.021 139.717V154.412L254.224 171.906L268.234 191.499L258.427 183.102Z" fill="#00ACF2"/>
<path fill-rule="evenodd" clip-rule="evenodd" d="M258.427 183.102L244.418 172.605L245.818 167.007L235.311 150.213L240.915 141.116C240.915 141.116 243.717 136.918 241.616 136.918H226.905C226.905 136.918 222.002 136.218 221.302 134.119C220.601 132.019 205.891 115.225 203.79 114.525C201.688 113.826 193.983 113.826 193.983 113.826L186.277 123.622L175.77 127.821L170.867 141.816L147.751 128.521L130.939 122.922L131.64 117.324L135.142 107.528L133.741 90.7334L124.635 76.0385L128.137 58.5444L124.635 42.4499L95.9151 38.2514L85.4079 34.7526L58.089 22.1569C58.089 22.1569 51.7847 24.2562 51.0842 22.1569C50.3837 20.0576 37.0745 3.96311 37.0745 3.96311L59.49 1.86382L66.4948 13.7598L88.2098 19.3578L92.4127 31.2538L102.219 36.8519H112.026C112.026 36.8519 114.128 23.5564 114.828 21.4571L119.031 8.86143L118.331 3.26334L139.345 1.16406L121.132 23.5564L116.229 34.7526L128.838 38.9511L128.137 44.5492L131.64 67.6413L136.543 66.9416L150.553 43.1497L161.06 24.2562L151.253 1.86382L190.48 2.56358L182.775 23.5564L172.968 31.2538L163.161 34.7526L149.152 53.6461L140.746 64.8423L136.543 76.7382L139.345 88.6342L140.046 92.8327L137.244 98.4308C137.244 98.4308 140.746 111.726 156.157 122.223C171.567 132.719 198.886 112.426 203.79 96.3315C203.79 96.3315 213.596 142.516 244.418 129.92L250.021 139.717V154.412L254.224 171.906L268.234 191.499L258.427 183.102Z" stroke="#CAEEFF" stroke-width="1.4"/>
<path fill-rule="evenodd" clip-rule="evenodd" d="M280.843 184.501L264.732 147.414C264.732 147.414 264.732 136.218 266.833 134.818C268.934 133.419 270.335 123.622 266.833 115.225C263.331 106.828 250.021 104.029 247.92 101.23C245.818 98.4308 236.712 85.8351 236.712 85.8351L236.012 78.8375C236.012 78.8375 243.017 97.0313 257.727 86.5349C272.437 76.0384 275.939 62.743 275.939 62.743L273.137 34.7526L292.05 40.3507L299.756 43.1497C299.756 43.1497 317.268 55.7454 322.872 49.4475C328.475 43.1497 321.471 38.2514 321.471 34.7526C321.471 31.2538 311.664 13.7597 311.664 13.7597L298.355 3.26333L311.664 4.66285C311.664 4.66285 316.567 23.5564 320.77 17.2585C324.973 10.9607 320.77 2.56357 320.77 2.56357C320.77 2.56357 333.379 1.86381 336.181 2.56357C338.983 3.26333 355.094 3.26333 352.992 3.96309C350.891 4.66285 338.983 13.06 336.881 19.3578C334.78 25.6557 334.079 37.5516 334.079 37.5516C334.079 37.5516 341.084 48.048 340.384 51.5468C339.683 55.0456 329.876 64.8423 329.876 64.8423L325.674 63.4428C325.674 63.4428 306.06 51.5468 302.558 48.7478C299.055 45.9487 294.852 43.8495 292.05 44.5492C289.248 45.249 277.34 69.0408 277.34 69.0408C277.34 69.0408 261.93 90.7334 261.229 94.2322C260.529 97.731 269.635 106.828 269.635 106.828L271.736 111.726L270.335 132.719L268.934 147.414L280.843 184.501Z" fill="#00ACF2"/>
<path fill-rule="evenodd" clip-rule="evenodd" d="M280.843 184.501L264.732 147.414C264.732 147.414 264.732 136.218 266.833 134.818C268.934 133.419 270.335 123.622 266.833 115.225C263.331 106.828 250.021 104.029 247.92 101.23C245.818 98.4308 236.712 85.8351 236.712 85.8351L236.012 78.8375C236.012 78.8375 243.017 97.0313 257.727 86.5349C272.437 76.0384 275.939 62.743 275.939 62.743L273.137 34.7526L292.05 40.3507L299.756 43.1497C299.756 43.1497 317.268 55.7454 322.872 49.4475C328.475 43.1497 321.471 38.2514 321.471 34.7526C321.471 31.2538 311.664 13.7597 311.664 13.7597L298.355 3.26333L311.664 4.66285C311.664 4.66285 316.567 23.5564 320.77 17.2585C324.973 10.9607 320.77 2.56357 320.77 2.56357C320.77 2.56357 333.379 1.86381 336.181 2.56357C338.983 3.26333 355.094 3.26333 352.992 3.96309C350.891 4.66285 338.983 13.06 336.881 19.3578C334.78 25.6557 334.079 37.5516 334.079 37.5516C334.079 37.5516 341.084 48.048 340.384 51.5468C339.683 55.0456 329.876 64.8423 329.876 64.8423L325.674 63.4428C325.674 63.4428 306.06 51.5468 302.558 48.7478C299.055 45.9487 294.852 43.8495 292.05 44.5492C289.248 45.249 277.34 69.0408 277.34 69.0408C277.34 69.0408 261.93 90.7334 261.229 94.2322C260.529 97.731 269.635 106.828 269.635 106.828L271.736 111.726L270.335 132.719L268.934 147.414L280.843 184.501Z" stroke="#CAEEFF" stroke-width="1.4"/>
<path fill-rule="evenodd" clip-rule="evenodd" d="M156.857 116.625C156.857 116.625 144.949 103.329 143.548 101.23C142.147 99.1306 143.548 96.3315 143.548 96.3315L150.553 99.8303L145.65 84.4356L150.553 75.3387C150.553 75.3387 149.152 71.8399 150.553 67.6413C151.107 65.9822 152.426 62.7934 153.819 59.543C155.952 54.5677 158.258 49.4475 158.258 49.4475L169.466 38.9511L182.775 29.1545L193.983 5.36261L180.674 38.9511L163.862 48.048L156.157 56.4451L154.056 71.1401L156.157 80.9368L158.258 89.3339L148.452 85.1353L156.857 116.625Z" fill="#00ACF2"/>
<path fill-rule="evenodd" clip-rule="evenodd" d="M156.857 116.625C156.857 116.625 144.949 103.329 143.548 101.23C142.147 99.1306 143.548 96.3315 143.548 96.3315L150.553 99.8303L145.65 84.4356L150.553 75.3387C150.553 75.3387 149.152 71.8399 150.553 67.6413C151.107 65.9822 152.426 62.7934 153.819 59.543C155.952 54.5677 158.258 49.4475 158.258 49.4475L169.466 38.9511L182.775 29.1545L193.983 5.36261L180.674 38.9511L163.862 48.048L156.157 56.4451L154.056 71.1401L156.157 80.9368L158.258 89.3339L148.452 85.1353L156.857 116.625Z" stroke="#CAEEFF" stroke-width="1.4"/>
<path fill-rule="evenodd" clip-rule="evenodd" d="M165.263 55.7454C171.568 43.1497 178.572 43.1497 178.572 43.1497L184.176 54.3459L205.891 68.3411L214.998 45.9487L214.297 20.7573L203.089 4.66284L212.196 21.4571L211.495 31.9535L208.693 41.7502L195.384 48.048L186.978 50.1473L180.674 42.4499L175.771 40.3506L165.263 55.7454Z" fill="#00ACF2"/>
<path fill-rule="evenodd" clip-rule="evenodd" d="M165.263 55.7454C171.568 43.1497 178.572 43.1497 178.572 43.1497L184.176 54.3459L205.891 68.3411L214.998 45.9487L214.297 20.7573L203.089 4.66284L212.196 21.4571L211.495 31.9535L208.693 41.7502L195.384 48.048L186.978 50.1473L180.674 42.4499L175.771 40.3506L165.263 55.7454Z" stroke="#CAEEFF" stroke-width="1.4"/>
<path fill-rule="evenodd" clip-rule="evenodd" d="M300.223 197.563C297.421 189.633 295.553 181.236 295.553 181.236L303.959 185.434L304.426 177.037L299.756 164.908L301.157 174.704C301.157 174.704 304.426 180.769 301.157 179.836C297.888 178.903 291.817 177.503 290.416 177.037C289.015 176.571 292.284 184.968 292.284 184.968C292.284 184.968 298.822 193.365 293.218 196.631C287.614 199.896 280.142 190.099 280.142 188.7C280.142 187.3 285.746 197.097 285.746 197.097C285.746 197.097 283.411 199.896 281.543 198.03C279.676 196.164 268.934 179.836 266.6 176.571C264.265 173.305 275.006 198.963 275.006 198.963L271.27 199.43L274.538 201.762L275.939 204.561C275.939 204.561 274.538 206.427 272.671 205.494C270.803 204.561 264.265 196.164 264.265 196.164L268.468 206.893C268.468 206.893 275.473 211.092 288.548 205.028C301.624 198.963 300.223 197.563 300.223 197.563Z" fill="#00ACF2"/>
<path fill-rule="evenodd" clip-rule="evenodd" d="M300.223 197.563C297.421 189.633 295.553 181.236 295.553 181.236L303.959 185.434L304.426 177.037L299.756 164.908L301.157 174.704C301.157 174.704 304.426 180.769 301.157 179.836C297.888 178.903 291.817 177.503 290.416 177.037C289.015 176.571 292.284 184.968 292.284 184.968C292.284 184.968 298.822 193.365 293.218 196.631C287.614 199.896 280.142 190.099 280.142 188.7C280.142 187.3 285.746 197.097 285.746 197.097C285.746 197.097 283.411 199.896 281.543 198.03C279.676 196.164 268.934 179.836 266.6 176.571C264.265 173.305 275.006 198.963 275.006 198.963L271.27 199.43L274.538 201.762L275.939 204.561C275.939 204.561 274.538 206.427 272.671 205.494C270.803 204.561 264.265 196.164 264.265 196.164L268.468 206.893C268.468 206.893 275.473 211.092 288.548 205.028C301.624 198.963 300.223 197.563 300.223 197.563Z" stroke="#CAEEFF" stroke-width="1.4"/>
<path fill-rule="evenodd" clip-rule="evenodd" d="M242.316 180.769C246.617 178.622 248.854 182.169 246.052 184.501C243.251 186.834 238.58 182.635 242.316 180.769Z" fill="#00ACF2"/>
<path fill-rule="evenodd" clip-rule="evenodd" d="M242.316 180.769C246.617 178.622 248.854 182.169 246.052 184.501C243.251 186.834 238.58 182.635 242.316 180.769Z" stroke="#CAEEFF" stroke-width="1.4"/>
<path fill-rule="evenodd" clip-rule="evenodd" d="M287.614 10.0276C292.679 8.76241 294.619 14.2261 291.35 14.6929C288.081 15.1589 283.879 10.9604 287.614 10.0276Z" fill="#00ACF2"/>
<path fill-rule="evenodd" clip-rule="evenodd" d="M287.614 10.0276C292.679 8.76241 294.619 14.2261 291.35 14.6929C288.081 15.1589 283.879 10.9604 287.614 10.0276Z" stroke="#CAEEFF" stroke-width="1.4"/>
<path fill-rule="evenodd" clip-rule="evenodd" d="M268.468 52.0132C271.783 49.1148 273.137 58.5441 270.335 60.4104C267.534 62.2766 264.732 55.279 268.468 52.0132Z" fill="#00ACF2"/>
<path fill-rule="evenodd" clip-rule="evenodd" d="M268.468 52.0132C271.783 49.1148 273.137 58.5441 270.335 60.4104C267.534 62.2766 264.732 55.279 268.468 52.0132Z" stroke="#CAEEFF" stroke-width="1.4"/>
<path fill-rule="evenodd" clip-rule="evenodd" d="M22.8316 5.82901C26.3992 3.56108 38.7095 11.4271 32.1712 11.8938C25.6336 12.3599 17.695 9.09479 22.8316 5.82901Z" fill="#00ACF2"/>
<path fill-rule="evenodd" clip-rule="evenodd" d="M22.8316 5.82901C26.3992 3.56108 38.7095 11.4271 32.1712 11.8938C25.6336 12.3599 17.695 9.09479 22.8316 5.82901Z" stroke="#CAEEFF" stroke-width="1.4"/>
<path fill-rule="evenodd" clip-rule="evenodd" d="M71.3986 51.5468C76.0687 51.0801 78.8707 50.1473 78.8707 51.5468C78.8707 52.9464 77.9362 59.4772 77.9362 59.4772C77.9362 59.4772 77.0025 62.743 73.7333 61.8102C70.4649 60.8768 69.5304 58.0777 69.5304 58.0777C69.5304 58.0777 67.6629 52.4796 69.5304 51.5468" fill="#00ACF2"/>
<path d="M71.3986 51.5468C76.0687 51.0801 78.8707 50.1473 78.8707 51.5468C78.8707 52.9464 77.9362 59.4772 77.9362 59.4772C77.9362 59.4772 77.0025 62.743 73.7333 61.8102C70.4649 60.8768 69.5304 58.0777 69.5304 58.0777C69.5304 58.0777 67.6629 52.4796 69.5304 51.5468" stroke="#CAEEFF" stroke-width="1.4"/>
</svg>
