<svg width="1024" height="621" viewBox="0 0 1024 621" xmlns="http://www.w3.org/2000/svg" xmlns:xlink="http://www.w3.org/1999/xlink">
    <defs>
        <path d="M173.614 77.8574L172 94.4578l8.0702 2.3715.807 6.324L172 100.7818l1.614 15.0194 7.2632.7905s0 26.0864 19.3684 30.0388c18.3258 3.739 26.6316-22.1338 26.6316-22.1338s17.593 27.0444 43.579 17.3909c23.4034-8.6955 21.7894-32.4103 21.7894-32.4103l14.5263-11.8575 1.614-10.2764-10.4912 6.324.807-7.905L310 75.4859 307.579 66l-15.3334 10.2764s-25.0175 20.553-62.9474 18.1814c-37.9298-2.3714-55.6842-16.6004-55.6842-16.6004" id="a"/>
        <filter x="-2.2%" y="-3.7%" width="104.3%" height="107.4%" filterUnits="objectBoundingBox" id="b">
            <feOffset dx="-2" dy="6" in="SourceAlpha" result="shadowOffsetInner1"/>
            <feComposite in="shadowOffsetInner1" in2="SourceAlpha" operator="arithmetic" k2="-1" k3="1" result="shadowInnerInner1"/>
            <feColorMatrix values="0 0 0 0 0.921568627 0 0 0 0 0.494117647 0 0 0 0 0.31372549 0 0 0 1 0" in="shadowInnerInner1"/>
        </filter>
    </defs>
    <g fill="none" fill-rule="evenodd">
        <path d="M675.8385 514c-73.4594-40.167-137.3364-181.5531-121.368-241 0 0-7.985 117.2867 140.5295 208.8684L675.8385 514z" fill="#EB7E50"/>
        <path d="M762 474s-119.5542-22.3056-161-94c0 0 55.7926 55.7616 149.8421 60.5408L762 474z" fill="#EB7E50"/>
        <path d="M733.5688 92.756c-.7125 6.4107-.7125 9.975-.7125 9.975s-28.4729-19.95-35.59-21.3748c-7.1185-1.4264-64.7769 4.2743-71.8939 7.837l-7.1202 3.5628s-32.0338.7132-34.8806 3.5627c-2.8468 2.848-2.1343 7.124-2.1343 7.124s-6.4062.7131-9.2546 5.7006c-2.8468 4.9876-.7109 7.8371-.7109 7.8371S567 119.1168 567 124.8191c0 5.7007 2.136 9.2619 2.136 9.2619s-2.1344 9.9766-1.4235 14.2525c.711 4.2744 4.9827 14.2494 10.678 14.2494 5.6936 0 9.2545-1.4264 14.948-3.5643 5.6937-2.138 14.2358-9.2619 14.2358-9.2619s1.425 8.5519 7.1186 7.837c5.6952-.7131 4.9827-3.561 4.9827-3.561s7.8295-10.6899 12.8122-16.3874c4.9844-5.7007 8.5437-8.5519 8.5437-8.5519s14.9481 6.414 27.7604 14.9642c12.8122 8.5503 19.22 7.837 19.22 7.837l2.8484 5.6992 13.5231 10.6898 4.9827 10.6882 16.3732 24.9377s-.7125 33.4878 4.9811 45.6008c5.6968 12.113 10.6795 25.6508 10.6795 25.6508l-1.4234 3.5628-40.5758 14.2494s-1.4234-1.4248-7.117.7116l-5.6953 2.138-6.406 6.4138s-17.0841 7.8387-29.898 9.9767c-12.8122 2.1363-27.762-4.276-27.762-4.276l-34.879 2.138s.7125 13.5378 7.8311 14.9626c7.117 1.4231 23.4902-2.8496 28.473 0 4.9826 2.848 9.9653 7.1238 9.9653 7.1238s-2.8484-4.2759-7.831 4.2744c-4.9812 8.5518-16.3716 21.378-16.3716 21.378s7.8295 9.975 14.9481 4.986c7.1186-4.986 20.6434-21.3765 20.6434-21.3765l23.4902-2.138s-2.8468 11.4015-4.2702 16.389c-1.4234 4.989-7.8296 27.0771-9.9655 33.4879-2.1359 6.4138 1.4234 7.127 1.4234 7.127s7.1202 4.2744 14.2373-4.9875c7.117-9.2634 7.117-27.0772 7.117-27.0772l12.103-14.9625s2.1343 19.2369 3.5577 27.7871c1.4234 8.5519 4.9827 27.7888 4.9827 27.7888s11.3888 0 12.1013-12.8246c.7125-12.8262-1.4234-39.9018-1.4234-39.9018l11.3889-12.8262s.7125 7.8403 4.9827 2.8512l4.2718-4.986s21.3543-2.1379 31.3213-1.4247c0 0 11.3873 14.2478 32.7447 30.6367 21.3527 16.389 39.8602 33.4863 47.693 42.7497 7.8294 9.265 19.9276 6.8874 19.9276 6.8874s17.4691 12.8262 38.8234 0c21.3559-12.8246 45.8876-16.1492 45.1751-31.8234l-.7125-15.6773s-18.5059-33.4879-20.6418-39.9002c-2.1359-6.4123 0-13.5378 0-13.5378s11.3889-22.088 8.5405-44.8877c-2.8469-22.8012-5.6953-32.7763-5.6953-32.7763s2.136.7116-4.981-19.9517c-7.1187-20.6616-14.9482-22.7996-14.9482-22.7996s-2.136-9.2634-17.0857-22.8012c-14.9466-13.5362-28.4745-19.9501-28.4745-19.9501l-7.1154-6.4123s1.4234-17.1006-2.136-36.339c-3.5608-19.237-10.6763-54.8628-43.421-61.9883-32.7447-7.1255-46.9836 5.7007-46.9836 5.7007-17.795 13.5362-27.0479 33.4863-27.7604 39.9002z" fill="#822A20"/>
        <path d="M663.8242 313.7577s-38.3288 18.8286-60.3342 23.713c0 0-9.2266-2.0924-5.6774 6.9721 3.5476 9.0646 24.8425 9.0646 44.0077-2.0924l9.937-4.1833s14.9055 3.4837 31.9409 2.7873c17.0353-.6949 33.3618-14.6438 18.4547-26.4972-14.9055-11.8565-38.3287-.6995-38.3287-.6995" fill="#48100A"/>
        <path d="M742.2848 185.0168s-6.3586-26.3735-9.8915-39.9162c-3.5345-13.5426-1.4144-27.7988-1.4144-27.7988s0-9.2636-4.9458-13.541c-4.9457-4.2775-21.9015-14.2578-21.9015-14.2578s7.0642 14.2578 6.3586 32.0763C709.7846 139.398 690 148.6663 690 148.6663l14.1237 17.8185s1.4192-7.1264 2.128-17.1067c.7056-9.9802 12.01-27.7988 12.7172-29.9375.7056-2.1388-1.4129-2.849-7.0658 24.2347-5.6514 27.0854 4.9457 35.6372 4.9457 35.6372l11.3044-2.1356 2.8257 32.7865c2.8272 32.7897 18.3701 64.1494 18.3701 64.1494 8.4787 39.9146 49.4607 93.3734 72.775 111.1936 23.3175 17.8185 28.9625 41.3415 28.9625 41.3415h42.3997s33.209 12.1157 47.339-13.5427c14.13-25.6617 5.653-39.9146 5.653-39.9146l-5.653 20.6691-24.0231-51.3217s-3.533-9.977 2.8272-22.0944c6.3586-12.1174 5.6514-58.4482 5.6514-58.4482l-4.2401 23.523c-4.2385 12.1189-21.1943 28.509-23.3143 29.9375-2.12 1.4252 12.0115-9.2668 14.8372-42.7668 2.8257-33.5016-12.0115-57.0245-12.0115-57.0245l9.8915 7.128s1.4144-8.5533-16.9573-25.6584c-18.3718-17.1067-36.7404-8.5534-36.7404-8.5534s8.4787-4.9925 16.9574-5.7027c8.4802-.7119 14.8372 1.4269 14.8372 1.4269-7.0642-12.8309-27.556-19.247-27.556-19.247l-8.4787-12.1159-4.237 12.1158s.7057-27.7972-5.6545-63.4359c-6.3586-35.637-40.9788-61.2987-77.0135-44.192-30.7282 14.5865-32.9986 59.0084-26.0404 101.9188.193 1.1875.3956 2.3781.6044 3.5704" fill="#621910"/>
        <path d="M751.2155 208.287c8.5075 13.5 24.1064 27.7112 24.1064 27.7112l10.0903 2.1734 13.305.6698c-.0001 0 4.2544 2.132 13.4684-9.2376 9.2187-11.368 19.8502-34.815 19.8502-34.815l1.4209-4.972C834.8743 184.8398 837 155 837 155s-4.9642 4.2624-12.762 14.9208c-7.7979 10.6552-15.2767 12.2987-15.2767 12.2987l-33.6394-23.6667-23.3968 24.1583L742 173.472l3.545 22.0263 5.6705 12.7888z" fill="#FFBB7A"/>
        <path d="M841.8953 252.4556c-21.3466-2.8445-39.8504 8.5335-41.9857 9.247-2.1337.7103-91.0881 34.1388-91.0881 34.1388s9.2503 11.3812 7.1166 9.247c-2.1353-2.1342-10.6893-12.8019-16.3765-11.3812-5.684 1.4238-2.1273 5.6922-2.1273 5.6922s-3.5567-.7135-12.8087 4.9787c-9.2519 5.6905-32.0247 13.5137-32.0247 13.5137s-12.0963 0-22.059-2.846c-9.9625-2.8462-29.8894-2.843-35.5814-1.4223-5.6936 1.4222-1.423 4.977-1.423 4.977s4.9797 4.9803 12.0964 4.9803c7.1182 0 22.062 1.4223 22.062 1.4223l8.538 5.6906s-7.1133 3.5564-14.9422 14.224c-7.8305 10.6693-11.3952 13.5154-11.3952 13.5154s3.5503 14.2225 14.9455 4.9771c11.392-9.2454 20.636-21.337 20.636-21.337l25.6267-3.558-7.1166 21.3402s-4.269 23.4711-7.1166 30.584c-2.846 7.1128 7.1166 7.1144 13.5225-4.2684 6.4043-11.3796 6.4043-19.2028 6.4043-19.2028l12.8023-17.0702 4.9877 19.2044 5.6936 34.8507s10.659 1.4207 9.9546-11.3796c-.7043-12.8034-2.1273-36.9865-2.1273-36.9865l12.09-15.6479 4.9812 2.8445 6.4123-7.1128s22.0956-4.3353 58.3543 6.4025c38.429 11.3796 75.4319 2.1326 75.4319 2.1326s24.5464-24.0875 12.0995-54.0535c-15.6563-37.6968-35.583-37.6968-35.583-37.6968" fill="#CF5C2C"/>
        <path d="M709.1295 292s27.091-9.6455 76.2808-26.8706c49.193-17.2237 56.321-15.8444 65.5897-12.401 0 0-26.3773-8.9573-37.0732-6.202-10.6927 2.7586-39.9212 19.9822-39.9212 19.9822s-59.1753 18.6013-62.025 19.291c-2.851.6896-9.9806 3.445-9.9806 3.445L709.1295 292zM770.1609 336c-7.0418-4.2754-.7033-15.6754 11.2673-18.5246C793.3972 314.6278 811 313.2 811 313.2s-36.615-2.1345-39.4295-.71c-2.8177 1.423-8.4514 19.9477-8.4514 19.9477L761 335.2885l9.1609.7115z" fill="#EB7E50"/>
        <path d="M630.263 93.0241s42.5005-10.7107 60.917-3.5686c18.4167 7.1389 21.957 16.422 20.5405 31.416-1.4164 14.9958-17.7219 31.4161-23.3812 31.4161l-4.2429-2.8556s-24.0838-17.1366-32.584-19.9921c-8.4984-2.8556-9.9228-.0016-9.9228-.0016s-4.2587 1.4277-8.5016 8.5699c-4.243 7.1405-14.1594 19.9922-14.1594 19.9922s-5.6657 3.5686-7.7911 0c-2.1239-3.5703-2.1239-10.7108-2.1239-10.7108s-3.5418 4.9996-12.7509 9.9977c-9.2075 4.9964-17.008 5.7127-17.008 5.7127s-2.8266-3.5735-5.6594-7.1405c-2.8328-3.5719-3.5403-17.1366-1.4164-15.7089 2.1254 1.4262-1.4164-3.5702-2.1239-12.8516-.709-9.283 5.6657-4.285 5.6657-4.285s-2.8344-6.4274 0-12.1401c2.8328-5.7112 8.5001 1.431 8.5001 1.431s-4.2651-12.8533-.008-15.7105c4.2572-2.8572 28.341-.7147 28.341-.7147l17.7093-2.8556z" fill="#CF5C2C"/>
        <path d="M608.669 123.4303c-8.4951-13.9235-9.2021-21.5805-5.6624-25.7566 3.5398-4.1777 18.4057-5.5697 26.9007 0 8.495 5.5682 9.2036 12.53 7.0795 11.1363 0 0-11.3278-6.265-15.5745-4.1761-4.2483 2.0873 4.2467 23.6693 4.2467 23.6693l-7.0779.6968-9.9122-5.5697z" fill="#48100A"/>
        <path d="M711 288c8.4865-1.467 73.5489-24.8886 93.3502-37.3328 0 0 41.0201-18.2976 63.6498 17.5665M874.5008 277c9.8947 20.1825 9.8947 50.81-9.8978 64.7273 0 0-27.5678 6.9602-77.7583-3.4801C733.7337 327.199 731 336.1588 731 336.1588M826 247.506c7.8565-9.022 38.5706-8.3288 60 12.494M823 225.878c5.0465-15.6939 39.8426-55.5548 75.7239-37.0988C934.7812 207.331 923.2428 243 923.2428 243" stroke="#48100A" stroke-width="3" stroke-linecap="round" stroke-linejoin="round"/>
        <path d="M914.5533 222c8.1474 16.2856 15.5567 33.2783 11.1115 54.5183C921.2212 297.7583 899 315.4597 899 319" stroke="#48100A" stroke-width="3" stroke-linecap="round" stroke-linejoin="round"/>
        <path d="M872 338c17.3994-2.1417 29-10.7134 29-10.7134L899.5487 308M695 291.3559c7.2504-2.8329 28.276 11.3266 29 39.6441M687 294.0502c8.4693-.7116 33.8835 5.6761 36 48.9498M682 301c-12.8181 8.5717-32.754 13.57-35.6034 13.57-2.8478 0-22.0741-6.4267-24.9203-6.4267-2.8494 0-22.7869.7118-33.4684 2.8551 0 0-.7127 11.43 11.3927 14.2882 0 0 15.6658-2.1433 22.0757-.7165 5.9379 1.3243 14.2404 6.4299 14.2404 6.4299M654.9771 326c-14.8946 3.6441-24.1176 9.4777-24.1176 9.4777S616.6748 355.1646 611 358.8103c0 0 4.9649 10.9374 17.0229 5.832 0 0 16.2224-15.5415 18.4428-17.499 4.9648-4.374 25.5343-8.0214 25.5343-8.0214M629 333.6228c9.3236-7.1088 20.799 1.425 15.7776 11.3772M628.6124 308c6.4495 2.799 2.4194 11.9-1.6124 14M672.3881 339c-4.1757 5.6515-11.8291 25.4366-11.8291 25.4366s-6.262 27.5567-8.3483 29.6768c-2.0879 2.1201 11.8291 11.3062 20.1774-9.1861l4.1757-16.252L687 350.3061M660 364.609c6.6045-6.2176 18.3415-3.9582 16.8744 3.391M675 335.256c10.1102-2.39 13 12.744 13 12.744M658 320.6452c9.2473-3.4161 17.0707 7.5195 12.8038 14.3548M690 352s5.3322 40.3098 5.3322 46.6741c0 6.3628 12.6678 4.2424 12.6678-12.0209 0-16.268-2.6676-30.4092-2.6676-30.4092M695 370.7709c2.7997-8.3024 11.8995-1.3853 14 6.2291" stroke="#48100A" stroke-width="3" stroke-linecap="round" stroke-linejoin="round"/>
        <path d="M720 335c-.6983 7.2405-9.7672 13.033-13.954 21 0 0-8.3722-12.313-16.046-5.794M722.5205 121c-15.5375 11.9633-25.8958 45.7402 1.4795 76M726 179c0 27.613.7134 63.7223 7.1417 77.1745C739.5701 269.6267 741 276 741 276M767 339c8.628 14.1078 35.9515 32.4474 61.1175 54.3176C853.282 415.1846 854 430 854 430M924.379 237c6.5654 24.948 8.0262 47.0421-4.379 86.9579 0 0 10.2157 30.6506 27 47.0421M731.0204 126.6116c.3123 22.2543 13.5674 64.644 14.8639 68.755 0 0 14.1569 27.646 30.4377 41.1136 0 0 19.1083 5.6695 28.3122 0 9.2007-5.6711 34.6807-42.531 38.2215-52.4543 0 0 12.033-48.199 8.4922-80.0956-3.5376-31.8983-29.7244-64.5045-66.5337-58.1239-36.806 6.379-54.5022 30.4793-53.7938 80.8052z" stroke="#48100A" stroke-width="3" stroke-linecap="round" stroke-linejoin="round"/>
        <path d="M769 191.3286c2.7733 4.6687 10.405 8.6714 10.405 8.6714s8.2841-5.5141 11.595-9" stroke="#48100A" stroke-width="3" stroke-linecap="round" stroke-linejoin="round"/>
        <path d="M737 165.4212c5.028 10.872 15.084 18.8456 15.084 18.8456s15.0857-18.8456 21.5501-23.1951c6.4628-4.3479 5.028-.7238 5.028-.7238s27.712 24.3165 32.74 24.3165c0 0 25.4442-25.0387 27.5979-28.6644l-5.747 42.0375L810.9872 235M853 147c8.2096 5.7778 13 13 13 13M859 155s27.6979 3.5608 49 42M686 151c10.5008 12.8916 21 19 21 19M696.3033 89c12.7367 2.114 16.479 17.2117 15.5663 29.5912C710.6798 134.7443 696.4554 151 680.0303 151c0 0-32.5413-23.2508-41.0303-19.0228M624 90c-14.466.699-33.997 2.7978-38.3364 4.2006-4.341 1.3997-3.6186 9.7994-3.6186 9.7994M584 111c5 13.8293 10 26.2759 12.8567 27.657 2.8583 1.3841 10.715 4.8414 17.1433-.6906M597 139c7.1444-4.3344 10.3916-7.9426 8.443-13" stroke="#48100A" stroke-width="3" stroke-linecap="round" stroke-linejoin="round"/>
        <path d="M578.8563 100c-4.9981 4.211-7.8563 9.1247-7.8563 9.1247s8.5713 35.1 17.8559 39.308C598.1437 152.6453 606 147.032 606 147.032" stroke="#48100A" stroke-width="3" stroke-linecap="round" stroke-linejoin="round"/>
        <path d="M572.3167 112c-4.1834 7.8702-3.487 14.3111-2.7905 17.1727.6996 2.8616 13.253 25.7575 16.0405 26.4721 2.789.7162 12.5518.7162 17.4333-3.5762" stroke="#48100A" stroke-width="3" stroke-linecap="round" stroke-linejoin="round"/>
        <path d="M569.7036 130C569 134.2282 569 148.3185 569 148.3185S576.0456 161 583.0912 161 600 154.6608 600 154.6608M627 87.1835s57.6237-11.8165 78.9651-2.7798c0 0 23.4777 7.6468 27.0349 14.5963M607 114l3.5717 10.0016L622 129" stroke="#48100A" stroke-width="3" stroke-linecap="round" stroke-linejoin="round"/>
        <path d="M616.583 114.3579c-9.7244-12.1099-2.0824-27.067 11.8067-17.0961 11.2934 8.1094 16.6665 27.7815 13.889 32.0547-2.7775 4.2749-20.8343 20.6564-21.5295 24.9312-.6936 4.2732-9.0292 7.1252-9.7228-4.2748-.6936-11.3937 12.5003-20.6564 12.5003-20.6564s-2.7775-3.5618-3.471-12.8212M761 335.166c9.0147-12.1044 7.6269-18.5114 10.3994-21.3625 2.7726-2.8495 33.971 2.8511 47.8369 2.1351 13.8644-.7111 6.9314 16.3794-3.468 27.0614" stroke="#48100A" stroke-width="3" stroke-linecap="round" stroke-linejoin="round"/>
        <path d="M827.5937 619.9917c-87.5241 7.6368-184.7082-28.933-217.0668-81.6828-16.12-26.272-13.1056-51.6035 4.8013-71.3535 18.0352-19.8916 51.1773-34.1215 95.0925-37.948 87.521-7.6336 184.6955 28.941 217.046 81.6702 32.3634 52.7466-12.3504 101.6915-99.873 109.314z" fill="#1B1D40"/>
        <path d="M912.6877 488.68c28.6196 47.0123-10.9396 90.6229-88.3616 97.423-77.4284 6.7986-163.389-25.7864-192.0134-72.7954-28.6228-46.9995 10.946-90.6084 88.3728-97.4102 77.4156-6.8002 163.3746 25.7832 192.0022 72.7827" fill="#FF4D00"/>
        <path d="M942.6995 525.8083c-5.9032 55.3572-95.4042 86.2281-196.8035 63.841-98.7747-21.7908-156.7224-82.9396-133.9651-132.273 20.6055-44.6932 101.9516-65.0687 184.975-48.8357 84.8848 16.5812 151.1239 67.3458 145.7936 117.2677" fill="#EB7E50"/>
        <path d="M925.6285 521.7868c-6.1672 48.5458-85.4496 75.283-174.6517 55.808-87.1656-19.048-139.315-72.7454-119.9474-116.589 17.7473-40.171 90.5833-58.669 165.3124-44.0173 76.2043 14.945 134.9005 60.4782 129.2867 104.7983" fill="#CF5C2C"/>
        <path d="M844.9703 549.6302c-.8528 4.2647-7.5944 6.4442-15.0868 4.8447-7.4652-1.5962-12.7227-6.3323-11.7726-10.5443l16.8069-74.4482c.8337-3.6096 7.0253-5.3992 13.8705-4.0139 6.8627 1.3838 11.8619 5.4312 11.143 9.0664l-14.961 75.0953zM784.4616 490.6046c4.2367 3.6904 3.0556 8.053-2.689 9.7377-5.7686 1.6863-13.8883.0174-18.0804-3.7204l-50.5559-46.2116c-3.8255-3.4199-2.3686-7.3586 3.2135-8.844 5.5661-1.479 13.19.0364 17.049 3.4104l51.0628 45.6279z" fill="#FFF"/>
        <path d="M780.9924 500.3132c-5.6152 1.761-13.514.0181-17.611-3.8856-4.0596-3.8806-2.7959-8.4072 2.7774-10.127l41.039-11.66c5.4025-1.657 13.1243.0083 17.2926 3.7485l1.3243.446c4.2164 3.76 1.942 7.753-3.4992 9.4662l-41.323 12.0119zM709.5268 518.9376c-1.3885 4.0386-8.4587 6.0913-15.7665 4.549-7.298-1.5232-11.9727-6.0198-10.484-10.0203l16.35-43.9512c1.3578-3.6364 8.0255-5.4347 14.9178-4.0466 6.9053 1.3897 11.517 5.468 10.2448 9.1315l-15.2621 44.3376z" fill="#FFF"/>
        <path d="M761 197.4391s10.3904 11.3224 25.6 8.9434C807.4 203.1304 821 195 821 195s-14.3888 27.2856-35.1936 26.9977C773.8 221.8303 761 197.4391 761 197.4391" fill="#48100A"/>
        <path d="M796 164s3.9474-16.1133 16.579-16.919c12.8257-.8185 13.421 4.834 13.421 4.834s-9.4737 1.6114-17.3684 6.4453C800.7368 163.1943 796 164 796 164M761 166s-8.5556-23.5325-16.3333-18.2187L740 156.8906s3.8889 0 8.5556 1.5183C753.2222 159.927 761 166 761 166" fill="#515151"/>
        <path d="M791.5556 216.961C798.5556 213.3798 804 205 804 205s-7.7778 5.694-20.2222 6.5893C776.619 212.103 769 206.2175 769 206.2175c6.2222 8.0576 15.5198 14.3443 22.5556 10.7435z" fill="#FFF"/>
        <g transform="translate(552 45)">
            <use fill="#CF5C2C" xlink:href="#a"/>
            <use fill="#000" filter="url(#b)" xlink:href="#a"/>
        </g>
        <path d="M725.614 122.8574L724 139.4578l8.0702 2.3715.807 6.324L724 145.7818l1.614 15.0194 7.2632.7905s0 26.0864 19.3684 30.0388c18.3258 3.739 26.6316-22.1338 26.6316-22.1338s17.593 27.0444 43.579 17.3909c23.4034-8.6955 21.7894-32.4103 21.7894-32.4103l14.5263-11.8575 1.614-10.2764-10.4912 6.324.807-7.905L862 120.4859 859.579 111l-15.3334 10.2764s-25.0175 20.553-62.9474 18.1814c-37.9298-2.3714-55.6842-16.6004-55.6842-16.6004z" stroke="#48100A" stroke-width="3" stroke-linecap="round" stroke-linejoin="round"/>
        <path d="M790 163.2455s31.772-11.3028 39.104-16.1468c2.8759-1.9005-.8146 24.2202-16.2933 29.0642C797.332 181.007 790 163.2455 790 163.2455M740.0167 147L767 160.779s-5.0794 20.6897-17.9889 12.158c-9.812-6.4842-8.9944-25.937-8.9944-25.937" fill="#48100A"/>
    </g>
</svg>
