<svg width="24" height="24" viewBox="0 0 24 24" xmlns="http://www.w3.org/2000/svg">
    <path d="M19.5 0h-15C2.0156 0 0 2.0156 0 4.5v15C0 21.9844 2.0156 24 4.5 24h15c2.4844 0 4.5-2.0156 4.5-4.5v-15C24 2.0156 21.9844 0 19.5 0zM7.4207 20.3726H3.6923L3.6707 9.2091H7.399l.0217 11.1635zM5.4627 7.7488h-.0216c-1.2187 0-2.0048-.8401-2.0048-1.8858 0-1.071.8113-1.8822 2.0517-1.8822 1.2404 0 2.0012.8113 2.0264 1.8822 0 1.0457-.7896 1.8858-2.0517 1.8858zm14.8847 12.6238h-3.7609v-6.065c0-1.4675-.3894-2.4663-1.7019-2.4663-1.0024 0-1.5433.6743-1.8029 1.327-.0973.2343-.1226.5553-.1226.8834v6.3209H9.1803L9.1587 9.2091h3.7788l.0216 1.5758c.4832-.7464 1.2873-1.803 3.2128-1.803 2.387 0 4.1719 1.5578 4.1719 4.9075v6.4832h.0036z" fill="#FFF"/>
</svg>
