<svg width="24" height="24" viewBox="0 0 24 24" xmlns="http://www.w3.org/2000/svg">
    <path d="M21.8008 0H2.1992C.9844 0 0 .9844 0 2.1992v19.6016C0 23.0156.9844 24 2.1992 24h19.6016C23.0156 24 24 23.0156 24 21.8008V2.1992C24 .9844 23.0156 0 21.8008 0zm-2.75 14.0898c1.4414 1.3399 1.7383 1.9883 1.789 2.0704.5977.9882-.6601 1.0664-.6601 1.0664l-2.4063.0351s-.5156.1016-1.1953-.3672c-.8984-.6172-1.75-2.2226-2.4062-2.0117-.6719.211-.6524 1.6563-.6524 1.6563s.0078.2539-.1445.4218c-.168.1758-.4922.1563-.4922.1563h-1.0742s-2.375.1992-4.4649-1.9766c-2.2812-2.375-4.293-7.0625-4.293-7.0625s-.1171-.293.0079-.4414c.1406-.168.5273-.1719.5273-.1719l2.5703-.0156s.2422.043.418.168c.1445.1055.2227.3047.2227.3047s.418 1.0508.9648 2.0039c1.0781 1.8554 1.5781 2.2617 1.9414 2.0625.5313-.293.3711-2.625.3711-2.625s.0117-.8477-.2656-1.2266c-.2149-.289-.6211-.375-.8008-.3984-.1445-.0195.0938-.3555.4024-.5078.4609-.2227 1.2773-.2383 2.246-.2266.75.0078.9688.0547 1.2618.125.8867.2149.586 1.043.586 3.0234 0 .6368-.1134 1.5274.3437 1.8243.1992.1289.6796.0195 1.8828-2.0274.5742-.9687 1-2.1094 1-2.1094s.0937-.203.2422-.289c.1484-.0899.3476-.0625.3476-.0625l2.707-.0156s.8125-.0977.9454.2695c.1367.3867-.3047 1.2851-1.4102 2.7578-1.8164 2.418-2.0156 2.1914-.5117 3.5898z" fill="#FFF"/>
</svg>
