<?xml version="1.0" encoding="UTF-8"?>
<svg width="32px" height="32px" viewBox="0 0 32 32" version="1.1" xmlns="http://www.w3.org/2000/svg" xmlns:xlink="http://www.w3.org/1999/xlink">
    <!-- Generator: Sketch 49.3 (51167) - http://www.bohemiancoding.com/sketch -->
    <title>icon-coin-mnt-21</title>
    <desc>Created with Sketch.</desc>
    <defs></defs>
    <g id="Landing-3.0" stroke="none" stroke-width="1" fill="none" fill-rule="evenodd">
        <g id="Landing/minter-landing-3-en" transform="translate(-187.000000, -2299.000000)">
            <g id="3" transform="translate(0.000000, 1663.000000)">
                <g id="Group-14" transform="translate(122.000000, 360.000000)">
                    <g id="legend" transform="translate(65.000000, 40.000000)">
                        <g id="Group-12" transform="translate(0.000000, 44.000000)">
                            <g id="icon-coin-mnt-21" transform="translate(0.000000, 192.000000)">
                                <g id="Group">
                                    <circle id="Oval" fill="#BC1ADA" cx="16" cy="16" r="16"></circle>
                                    <path d="M16.0604421,14.1081347 L17.9467348,12.2797557 C18.4352221,11.8062661 19.2272165,11.8062661 19.7157038,12.2797557 C20.2041911,12.7532453 20.2041911,13.5209236 19.7157038,13.9944132 L17.0414607,16.5865507 C17.0131968,16.6206184 16.9827546,16.6535493 16.950134,16.6851684 C16.4616467,17.158658 15.6696523,17.158658 15.181165,16.6851684 L8.68636548,10.3897747 C8.19787817,9.9162851 8.19787817,9.14860679 8.68636548,8.67511719 C9.1748528,8.2016276 9.96684721,8.2016276 10.4553345,8.67511719 L16.0604421,14.1081347 Z M9.57085,13.2236703 C10.2616754,13.2236703 10.8217,13.8416576 10.8217,14.6039836 L10.8217,22.51778 C10.8217,23.280106 10.2616754,23.8980933 9.57085,23.8980933 C8.88002462,23.8980933 8.32,23.280106 8.32,22.51778 L8.32,14.6039836 C8.32,13.8416576 8.88002462,13.2236703 9.57085,13.2236703 Z M22.74647,8.32 C23.4372954,8.32 23.99732,8.91217877 23.99732,9.6426683 L23.99732,22.575425 C23.99732,23.3059145 23.4372954,23.8980933 22.74647,23.8980933 C22.0556447,23.8980933 21.49562,23.3059145 21.49562,22.575425 L21.49562,9.6426683 C21.49562,8.91217877 22.0556447,8.32 22.74647,8.32 Z" id="Combined-Shape" fill="#FFFFFF"></path>
                                </g>
                            </g>
                        </g>
                    </g>
                </g>
            </g>
        </g>
    </g>
</svg>