<svg width="24" height="24" viewBox="0 0 24 24" fill="#d15c22" xmlns="http://www.w3.org/2000/svg">
    <path d="M5.7273 8.0266a.6245.6245 0 0 0-.2033-.5268L4.0186 5.6863v-.271H8.693l3.613 7.9239 3.1764-7.9238h4.456v.2709l-1.287 1.234a.3762.3762 0 0 0-.143.3613v9.0676a.3762.3762 0 0 0 .143.3612l1.257 1.234v.271h-6.3228v-.271l1.3022-1.2641c.128-.128.128-.1656.128-.3612V8.9898l-3.6206 9.1955h-.4893L6.6907 8.9898v6.163a.8502.8502 0 0 0 .2334.7073l1.6936 2.0543v.2709H3.8154v-.271l1.6936-2.0542a.82.82 0 0 0 .2183-.7074V8.0266z"/>
</svg>
