<?xml version="1.0" encoding="UTF-8"?>
<svg width="32px" height="32px" viewBox="0 0 32 32" version="1.1" xmlns="http://www.w3.org/2000/svg" xmlns:xlink="http://www.w3.org/1999/xlink">
    <!-- Generator: Sketch 49.3 (51167) - http://www.bohemiancoding.com/sketch -->
    <title>icon-coin-btc</title>
    <desc>Created with Sketch.</desc>
    <defs></defs>
    <g id="Landing-3.0" stroke="none" stroke-width="1" fill="none" fill-rule="evenodd">
        <g id="Landing/minter-landing-3-en" transform="translate(-187.000000, -2107.000000)" fill-rule="nonzero">
            <g id="3" transform="translate(0.000000, 1663.000000)">
                <g id="Group-14" transform="translate(122.000000, 360.000000)">
                    <g id="legend" transform="translate(65.000000, 40.000000)">
                        <g id="Group-12" transform="translate(0.000000, 44.000000)">
                            <g id="icon-coin-btc">
                                <path d="M16.0001411,0 C7.1635453,0 0,7.16334106 0,16 C0,24.8365179 7.1635453,32 16.0001411,32 C24.8367369,32 32,24.8365179 32,16 C32,7.16334106 24.8367369,0 16.0001411,0 Z" id="Shape" fill="#F7931A"></path>
                                <path d="M19.3572737,24.0945291 C17.9282423,24.3438381 16.7127594,23.9400574 16.171952,23.7689123 C15.9049595,23.6846971 15.4577558,23.5186257 14.9830125,23.3302242 L13.6283702,26.235264 L11.8399654,25.4013172 L13.1726837,22.5432936 L11.8107467,21.9082119 L10.4780284,24.7662355 L8.68975135,23.9323482 L10.0224697,21.0743246 L6.50455813,19.4338955 L7.87372193,17.4573706 L8.94321303,17.9560825 C9.30273375,18.1237297 9.46840283,18.160386 9.68496715,18.0885641 C9.90165062,18.0164867 10.036344,17.815029 10.1183208,17.6392292 L13.5687326,10.2397971 C13.7848749,9.77627854 13.805689,9.63324183 13.7035733,9.29584925 C13.6016958,8.95794561 13.1150838,8.69292685 12.8328588,8.56132315 L11.7991409,8.07929258 L12.664961,6.22253542 L16.1828725,7.86296451 L17.5194037,4.99676414 L19.3075529,5.83059183 L17.9710218,8.6967922 L19.3329588,9.33187388 L20.66949,6.46567351 L22.4578948,7.29962036 L21.1053376,10.2001886 C22.3999826,10.9045273 23.2739962,11.6213045 23.8417423,12.6653156 C24.5759437,14.0148155 23.8470014,15.424599 23.6621769,15.7555783 C23.4774802,16.0866171 23.0192155,16.6767672 22.5195145,16.9621751 C22.0202139,17.248392 21.086073,17.3316839 21.086073,17.3316839 C21.086073,17.3316839 21.8693081,17.9205823 22.2652696,18.6648632 C22.6604646,19.4087867 22.7343376,20.4298388 22.1553143,21.6045123 C21.5774409,22.779722 20.7857344,23.8451095 19.3572737,24.0945291 Z M18.3641842,18.260103 C18.1082605,17.9370034 17.4693979,17.3647203 16.6112287,16.8931556 C15.7526167,16.4215399 14.5890205,15.9501844 14.5890205,15.9501844 L12.8005447,19.7855831 C12.8005447,19.7855831 13.9752692,20.3641635 14.7967203,20.6759741 C15.6174047,20.9874272 16.5299584,21.1689121 17.0447644,21.1339714 C17.5591958,21.0991671 18.2160107,20.9781703 18.6250605,20.1009602 C19.034289,19.2233668 18.6206103,18.5831257 18.3641842,18.260103 Z M16.9063064,14.8637378 C17.5701373,15.1426454 18.333688,15.3157772 18.9632655,15.2735383 C19.5932946,15.2316655 20.0798076,14.9298421 20.3674712,14.2702496 C20.6543086,13.6104275 20.4773058,12.8565694 19.8473693,12.2878264 C19.2170581,11.7192198 18.7322144,11.4727575 18.1758529,11.2032116 C17.6198151,10.9339722 17.0281783,10.71906 17.0281783,10.71906 L15.4189076,14.1701523 C15.4190353,14.1702119 16.2428587,14.5850089 16.9063064,14.8637378 Z" id="Combined-Shape" fill="#FFFFFF"></path>
                            </g>
                        </g>
                    </g>
                </g>
            </g>
        </g>
    </g>
</svg>