<svg width="24" height="24" viewBox="0 0 24 24" xmlns="http://www.w3.org/2000/svg">
    <path d="M14.1256 2c-1.6786 0-2.9258 1.3656-2.9258 2.925v2.7c-2.207.1156-4.2075.7-5.8267 1.625-.619-.5969-1.4442-.85-2.2507-.85-.8721 0-1.7599.2844-2.3757.975V9.4l-.025.025c-.5908.7375-.8315 1.7219-.6752 2.7.1438.8969.669 1.8094 1.5755 2.4-.0063.0906-.025.1813-.025.275 0 2.0844 1.2597 3.9094 3.1509 5.175C6.639 21.2406 9.1899 22 12 22c2.8102 0 5.361-.7594 7.2521-2.025 1.8912-1.2656 3.151-3.0906 3.151-5.175 0-.0937-.0188-.1844-.025-.275.9064-.5906 1.4316-1.5031 1.5754-2.4.1563-.9781-.0844-1.9625-.6752-2.7l-.025-.025c-.6158-.6906-1.5036-1-2.3757-1-.8065 0-1.6317.2531-2.2507.85-1.6192-.925-3.6198-1.5094-5.8267-1.625v-2.7c0-.7844.447-1.325 1.3254-1.325.4158 0 .9315.1969 1.7255.475.6752.2375 1.5505.5 2.6758.575.272.7813 1.0065 1.35 1.8756 1.35 1.1003 0 2.0005-.9 2.0005-2s-.9002-2-2.0005-2c-.7565 0-1.4098.4281-1.7506 1.05-.9596-.0562-1.6536-.2562-2.2756-.475-.7221-.2531-1.388-.575-2.2507-.575zM12 9.2c2.5226 0 4.7733.6938 6.3519 1.75 1.5785 1.0563 2.4507 2.4125 2.4507 3.85s-.8722 2.7938-2.4507 3.85C16.7733 19.7063 14.5226 20.4 12 20.4c-2.5226 0-4.7733-.6937-6.3519-1.75-1.5785-1.0562-2.4507-2.4125-2.4507-3.85s.8722-2.7937 2.4507-3.85C7.2267 9.8938 9.4774 9.2 12 9.2zm-8.8776.8c.3032 0 .6033.075.8503.2-.869.7281-1.5442 1.5938-1.9506 2.55-.2032-.2562-.3251-.5625-.3751-.875-.0875-.5375.0688-1.0937.325-1.425.0032-.0062-.003-.0187 0-.025.2439-.2562.6753-.425 1.1504-.425zm17.7552 0c.4751 0 .9065.1688 1.1503.425.0031.0031-.0031.0219 0 .025.2563.3313.4126.8875.3251 1.425-.05.3125-.172.6188-.375.875-.4065-.9562-1.0817-1.8219-1.9507-2.55.247-.125.547-.2.8503-.2zM7.9988 11.6c-.8846 0-1.6004.7156-1.6004 1.6 0 .8844.7158 1.6 1.6004 1.6.8847 0 1.6005-.7156 1.6005-1.6 0-.8844-.7158-1.6-1.6005-1.6zm8.0024 0c-.8847 0-1.6005.7156-1.6005 1.6 0 .8844.7158 1.6 1.6005 1.6.8846 0 1.6004-.7156 1.6004-1.6 0-.8844-.7158-1.6-1.6004-1.6zm.2 4.425c-.919.8531-2.4632 1.4-4.2012 1.4s-3.2822-.5531-4.2012-1.3C8.3114 17.5125 9.9557 18.8 12 18.8c2.0443 0 3.6886-1.2812 4.2012-2.775z" fill="#FFF"/>
</svg>
