<svg width="24" height="24" viewBox="0 0 24 24" xmlns="http://www.w3.org/2000/svg" fill="#FFF">
    <path d="M22 5.89c-.75.32-1.5.57-2.33.65.83-.49 1.5-1.3 1.83-2.21-.83.5-1.67.82-2.58.98A4.4 4.4 0 0 0 15.83 4a4.06 4.06 0 0 0-4 4.92 11.46 11.46 0 0 1-8.41-4.18 3.5 3.5 0 0 0-.59 2.05c0 1.4.75 2.63 1.84 3.36a6 6 0 0 1-1.84-.49v.08a4 4 0 0 0 3.25 3.94c-.33.08-.66.17-1.08.17-.25 0-.5 0-.75-.09.5 1.64 2 2.8 3.83 2.8A8.41 8.41 0 0 1 3 18.27c-.33 0-.67 0-1-.08C3.83 19.34 6 20 8.25 20c7.58 0 11.67-6.15 11.67-11.49v-.5A8.48 8.48 0 0 0 22 5.9"/>
</svg>
