<?xml version="1.0" encoding="UTF-8"?>
<svg width="555px" height="140px" viewBox="0 0 555 140" version="1.1" xmlns="http://www.w3.org/2000/svg" xmlns:xlink="http://www.w3.org/1999/xlink">
    <!-- Generator: Sketch 49.3 (51167) - http://www.bohemiancoding.com/sketch -->
    <title>Group 21</title>
    <desc>Created with Sketch.</desc>
    <defs></defs>
    <g id="Landing-3.0" stroke="none" stroke-width="1" fill="none" fill-rule="evenodd">
        <g id="Landing/minter-landing-3-en" transform="translate(-235.000000, -2860.000000)">
            <g id="4" transform="translate(0.000000, 2534.000000)">
                <g id="Group-10" transform="translate(235.000000, 326.000000)">
                    <g id="Group-21">
                        <rect id="Rectangle-8" fill="#171838" x="213" y="11" width="128" height="128" rx="64"></rect>
                        <text id="Validators’-Decentra" font-family="Roboto-Bold, Roboto" font-size="14" font-weight="bold" letter-spacing="0.21875" fill="#FFB74D">
                            <tspan x="242.478516" y="92">Validators’</tspan>
                            <tspan x="232.446777" y="111">Decentralized</tspan>
                            <tspan x="260.61084" y="130">Bank</tspan>
                        </text>
                        <g id="bank-icons---free-download--png-and-svg" transform="translate(235.000000, 0.000000)" fill-rule="nonzero">
                            <polygon id="Shape" fill="#805A26" points="12 28 72 28 72 58 12 58"></polygon>
                            <polygon id="Shape" fill="#E89419" points="0 64 84 64 84 68 0 68"></polygon>
                            <polygon id="Shape" fill="#E89419" points="8 56 76 56 76 60 8 60"></polygon>
                            <polygon id="Shape" fill="#E89419" points="10 22 74 22 74 30 10 30"></polygon>
                            <polygon id="Shape" fill="#E89419" points="78 20 42 4 6 20 6 24 78 24"></polygon>
                            <polygon id="Shape" fill="#FFB74D" points="22 30 26 30 26 56 22 56"></polygon>
                            <polygon id="Shape" fill="#FFB74D" points="34 30 38 30 38 56 34 56"></polygon>
                            <polygon id="Shape" fill="#FFB74D" points="46 30 50 30 50 56 46 56"></polygon>
                            <polygon id="Shape" fill="#FFB74D" points="58 30 62 30 62 56 58 56"></polygon>
                            <path d="M28,32 C28,33.101562 27.101562,34 26,34 C24.898438,34 24,33.101562 24,32 C24,30.890626 24.898438,30 26,30 C27.101562,30 28,30.890626 28,32 Z" id="Shape" fill="#FFB74D"></path>
                            <path d="M40,32 C40,33.101562 39.101562,34 38,34 C36.898438,34 36,33.101562 36,32 C36,30.890626 36.898438,30 38,30 C39.101562,30 40,30.890626 40,32 Z" id="Shape" fill="#FFB74D"></path>
                            <path d="M24,32 C24,33.101562 23.101562,34 22,34 C20.898438,34 20,33.101562 20,32 C20,30.898438 20.898438,30 22,30 C23.101562,30 24,30.898438 24,32 Z" id="Shape" fill="#FFB74D"></path>
                            <polygon id="Shape" fill="#FFB74D" points="10 30 14 30 14 56 10 56"></polygon>
                            <path d="M16,32 C16,33.101562 15.101562,34 14,34 C12.898438,34 12,33.101562 12,32 C12,30.898438 12.898438,30 14,30 C15.101562,30 16,30.898438 16,32 Z" id="Shape" fill="#FFB74D"></path>
                            <path d="M12,32 C12,33.109376 11.101562,34 10,34 C8.898438,34 8,33.109376 8,32 C8,30.898438 8.898438,30 10,30 C11.101562,30 12,30.898438 12,32 Z" id="Shape" fill="#FFB74D"></path>
                            <path d="M36,32 C36,33.101562 35.101562,34 34,34 C32.898438,34 32,33.101562 32,32 C32,30.898438 32.898438,30 34,30 C35.101562,30 36,30.898438 36,32 Z" id="Shape" fill="#FFB74D"></path>
                            <path d="M52,32 C52,33.101562 51.101562,34 50,34 C48.898438,34 48,33.101562 48,32 C48,30.898438 48.898438,30 50,30 C51.101562,30 52,30.898438 52,32 Z" id="Shape" fill="#FFB74D"></path>
                            <path d="M48,32 C48,33.101562 47.101562,34 46,34 C44.898438,34 44,33.101562 44,32 C44,30.890626 44.898438,30 46,30 C47.101562,30 48,30.890626 48,32 Z" id="Shape" fill="#FFB74D"></path>
                            <path d="M64,32 C64,33.109376 63.101562,34 62,34 C60.898438,34 60,33.109376 60,32 C60,30.898438 60.898438,30 62,30 C63.101562,30 64,30.898438 64,32 Z" id="Shape" fill="#FFB74D"></path>
                            <path d="M60,32 C60,33.101562 59.101562,34 58,34 C56.898438,34 56,33.101562 56,32 C56,30.898438 56.898438,30 58,30 C59.101562,30 60,30.898438 60,32 Z" id="Shape" fill="#FFB74D"></path>
                            <polygon id="Shape" fill="#FFB74D" points="70 30 74 30 74 56 70 56"></polygon>
                            <path d="M76,32 C76,33.109376 75.101562,34 74,34 C72.898438,34 72,33.109376 72,32 C72,30.898438 72.898438,30 74,30 C75.101562,30 76,30.898438 76,32 Z" id="Shape" fill="#FFB74D"></path>
                            <path d="M72,32 C72,33.101562 71.101562,34 70,34 C68.898438,34 68,33.101562 68,32 C68,30.898438 68.898438,30 70,30 C71.101562,30 72,30.898438 72,32 Z" id="Shape" fill="#FFB74D"></path>
                            <path d="M42,8.421876 L70,20 L14,20 L42,8.421876 Z M42,4 L6,20 L6,24 L78,24 L78,20 L42,4 Z" id="Shape" fill="#FFB74D"></path>
                            <polygon id="Shape" fill="#FFB74D" points="14 60 70 60 70 64 14 64"></polygon>
                            <polygon id="Shape" fill="#C97911" points="8 56 16 56 16 60 8 60"></polygon>
                            <polygon id="Shape" fill="#C97911" points="4 60 14 60 14 64 4 64"></polygon>
                            <polygon id="Shape" fill="#C97911" points="0 64 12 64 12 68 0 68"></polygon>
                            <polygon id="Shape" fill="#C97911" points="68 56 76 56 76 60 68 60"></polygon>
                            <polygon id="Shape" fill="#C97911" points="70 60 80 60 80 64 70 64"></polygon>
                            <polygon id="Shape" fill="#C97911" points="72 64 84 64 84 68 72 68"></polygon>
                            <path d="M44,2 C44,3.101562 43.101562,4 42,4 C40.898438,4 40,3.101562 40,2 C40,0.898438 40.898438,0 42,0 C43.101562,0 44,0.898438 44,2 Z" id="Shape" fill="#C97911"></path>
                        </g>
                        <g id="Group-23" transform="translate(27.000000, 11.000000)">
                            <path d="M122,0 L128,0 C137.941125,0 146,8.0588745 146,18 L146,110 C146,119.941125 137.941125,128 128,128 L122,128" id="Rectangle-8-Copy" stroke="#5AC012" stroke-width="2" stroke-linecap="round" stroke-linejoin="round"></path>
                            <text id="$" font-family="Rubik-Regular, Rubik" font-size="60" font-weight="normal" letter-spacing="0.9375" fill="#5AC012">
                                <tspan x="87.08125" y="56">$</tspan>
                            </text>
                            <path d="M146,64 L194,64" id="Path-3-Copy" stroke="#5AC012"></path>
                            <path id="Path-3-Copy-decoration-1" d="M146,64 L156.8,61 L156.8,67 L146,64 Z" stroke="#5AC012"></path>
                            <path id="Path-3-Copy-decoration-2" d="M194,64 L183.2,61 L183.2,67 L194,64 Z" stroke="#5AC012"></path>
                            <path d="M47.7827174,87 C46.2527661,87 45,88.2412086 45,89.757045 L45,104.920792 C45,106.267006 45.9891691,107.378978 47.2826978,107.613219 L48.195777,112.71806 C48.4620921,114.209665 49.9078007,115.222017 51.4132939,114.958159 L74.6968118,110.844131 C76.2023057,110.580274 77.2240847,109.147903 76.9577696,107.656298 L74.2837522,92.7294841 C74.2728822,92.6621736 74.2511422,92.5975554 74.2185322,92.5356294 L74.2185322,89.757045 C74.2185322,88.2412086 72.9657661,87 71.4358149,87 L47.7827174,87 Z M47.7827174,88.3785225 L71.4358149,88.3785225 C72.2130195,88.3785225 72.8271735,88.9870113 72.8271735,89.757045 L72.8271735,91.8248287 L46.3913587,91.8248287 L46.3913587,89.757045 C46.3913587,88.9870113 47.0055134,88.3785225 47.7827174,88.3785225 Z M46.3913587,95.2711349 L72.8271735,95.2711349 L72.8271735,104.920792 C72.8271735,105.690827 72.2130195,106.299315 71.4358149,106.299315 L47.7827174,106.299315 C47.0055134,106.299315 46.3913587,105.690827 46.3913587,104.920792 L46.3913587,95.2711349 Z M49.8697554,97.3389187 L49.8697554,98.7174412 L61.0006248,98.7174412 L61.0006248,97.3389187 L49.8697554,97.3389187 Z M74.2185322,100.24674 L75.5881509,107.893231 C75.7240261,108.649803 75.2240066,109.352527 74.457672,109.487148 L51.1741541,113.601176 C50.4105375,113.735798 49.7012709,113.240391 49.5653957,112.481127 L48.6957965,107.677837 L71.4358149,107.677837 C72.9657661,107.677837 74.2185322,106.436629 74.2185322,104.920792 L74.2185322,100.24674 Z" id="Shape" fill="#FFFFFF" fill-rule="nonzero"></path>
                            <path d="M26.6529552,51.610003 C26.0939545,52.2940038 25.1999535,52.8340044 24.3049525,52.7560043 C24.1939524,51.8320032 24.6319529,50.8480021 25.1449534,50.2420014 C25.7029541,49.5390006 26.6809552,49.038 27.4729561,49 C27.5659562,49.9630011 27.2029558,50.9070022 26.6529552,51.610003 Z M27.368956,53.2350048 L27.368956,53.2340048 L27.4879561,53.2340048 C27.8429565,53.2340048 29.3699583,53.423005 30.2929593,54.7800066 C30.2189592,54.8350066 28.5859574,55.7720077 28.6039574,57.73501 C28.6229574,60.0840126 30.6709597,60.8640135 30.6889598,60.8820135 C30.6709597,60.9370136 30.3669594,61.9930148 29.6189585,63.075016 C28.9639578,64.0300171 28.3169571,65.0000182 27.2499558,65.0000182 C26.1829546,65.0000182 25.8309542,64.4120176 24.6409529,64.4120176 C23.4599515,64.4120176 23.1289511,64.9630182 22.15095,65.0000182 C21.0839488,65.0000182 20.2929479,63.9930171 19.6369472,63.039016 C18.2989456,61.1120138 17.2749445,57.6070098 18.6589461,55.2400071 C19.3329468,54.0560058 20.6099483,53.2440048 21.9139498,53.2440048 C22.980951,53.2440048 23.903952,53.9410056 24.5229527,53.9410056 C25.1319534,53.9410056 26.0649545,53.2350048 27.368956,53.2350048 Z M40.6879712,51.0000023 C43.4949744,51.0000023 45.5009766,52.9380045 45.5009766,55.6670076 C45.5009766,58.3960107 43.4579743,60.3330129 40.6139711,60.3330129 L37.5149675,60.3330129 L37.5149675,64.9990182 L35.249965,64.9990182 L35.249965,51.0000023 L40.6879712,51.0000023 Z M40.1369705,58.4660108 C42.0979728,58.4660108 43.2359741,57.4350096 43.2359741,55.6660076 C43.2359741,53.8970056 42.0889728,52.8660044 40.1369705,52.8660044 L37.5149675,52.8660044 L37.5149675,58.4660108 L40.1369705,58.4660108 Z M50.7519826,54.5000063 C53.3269856,54.5000063 55.0009875,55.8060078 54.9999875,57.8350101 L54.9999875,64.827018 L52.9169851,64.827018 L52.9169851,63.1420161 L52.870985,63.1420161 C52.2769844,64.2420174 50.9649829,64.9350182 49.5519813,64.9350182 C47.4599789,64.9350182 45.9999772,63.7270168 45.9999772,61.9070147 C45.9999772,60.1050127 47.4139788,59.0680115 50.0279818,58.9150113 L52.841985,58.7680111 L52.840985,57.9780102 C52.840985,56.8330089 52.0629841,56.2120082 50.6869825,56.2120082 C49.5519813,56.2120082 48.7239803,56.7790089 48.5569801,57.6440099 L46.5299778,57.6440099 C46.5959779,55.8240078 48.3619799,54.5000063 50.7519826,54.5000063 Z M52.833985,61.0140137 L52.840985,60.1910128 L50.3329821,60.375013 C48.9279805,60.4570131 48.1939797,60.9700136 48.1939797,61.8530146 C48.1939797,62.7080156 48.9569806,63.2670163 50.1559819,63.2670163 C51.6809837,63.2670163 52.833985,62.3300152 52.833985,61.0140137 Z M63.6909974,54.5000063 L66,54.5000063 L62.0109955,65.6150189 C61.0999944,68.1610218 60.0589932,69.0000228 57.8439907,69.0000228 C57.6799905,69.0000228 57.1519899,68.9820228 57.0009897,68.9480227 L57.0009897,67.2030207 C57.1509899,67.2220208 57.4759903,67.2390208 57.6479905,67.2390208 C58.6519916,67.2390208 59.2139923,66.8190203 59.5619927,65.7280191 L59.7679929,65.0840183 L55.9199885,54.5000063 L58.2939912,54.5000063 L60.9699943,63.0880161 L61.0159943,63.0880161 L63.6909974,54.5000063 Z" id="Combined-Shape" fill="#FFFFFF" fill-rule="nonzero"></path>
                            <path d="M63.9424787,13.5271055 C60.6450141,13.5997172 57.2055606,15.0481621 54.8169776,18.25807 C50.9497538,23.457304 51.9699331,30.6471324 57.140032,34.6252719 C59.3353434,36.3145627 61.8380848,37.0391719 64.2220039,37.0391719 C66.8303099,37.0391719 69.2879996,36.1640185 71.0514046,34.7430719 L71.0753639,34.7710242 L71.84306,34.0961706 L69.2414785,31.1342013 L68.1573202,32.127514 C67.5843414,32.6498908 67.0323665,33.1536031 66.4941446,33.6718908 C65.6241981,32.6787621 64.7418092,31.6953361 63.8606178,30.7119184 C63.4358672,30.2380992 63.0115077,29.763689 62.5877793,29.2883364 C62.563245,29.2612464 62.5399006,29.2331019 62.5168997,29.2044786 L63.7587907,28.0434507 L60.5612217,24.4325835 L61.8130951,23.2595757 L58.563614,19.6417204 L62.9871011,15.6455075 L64.6203275,17.4125064 L67.3267309,15.0095876 C67.3497318,15.0167435 67.3716144,15.0243944 67.3946154,15.0315503 L68.9429856,16.7276696 L70.390527,15.4029195 C70.390527,15.4029195 70.0075455,15.0473954 69.6298191,14.8398758 C69.5720612,14.8081857 69.5182088,14.7994325 69.4670957,14.7999437 C67.8482132,13.9356835 65.9209572,13.4835385 63.9424787,13.5271055 Z M71.2410826,16.1925784 L69.9482783,17.3755691 L71.1142979,18.6693717 L72.4120934,17.5023538 L71.2410826,16.1925784 Z M67.3067646,16.5419849 L65.3071609,18.358899 L67.1061054,20.3575044 L69.1027143,18.5545669 L67.3067646,16.5419849 Z M62.8603164,17.2777353 L60.1638964,19.7205865 L62.596764,22.4269894 L65.2991745,19.9871336 L62.8603164,17.2777353 Z M73.0240542,20.3774707 L71.7352434,21.5514767 L72.9102477,22.8512693 L74.2090414,21.6732698 L73.0240542,20.3774707 Z M69.2404802,20.7877736 L67.2438713,22.5976998 L69.0418176,24.6042916 L71.0434182,22.7943655 L69.2404802,20.7877736 Z M64.8669087,22.0775832 L62.16949,24.5264238 L64.6073493,27.2328272 L67.2967816,24.7869814 L64.8669087,22.0775832 Z M74.8210022,24.5593682 L73.5252032,25.7253879 L74.7012057,27.0251799 L76,25.8561655 L74.8210022,24.5593682 Z M71.0374282,25.2491964 L69.0408193,27.0541309 L70.8407626,29.0637179 L72.839368,27.2497983 L71.0374282,25.2491964 Z M66.8595242,26.9423208 L64.1631036,29.3811784 L66.5899818,32.09457 L69.2963853,29.6517189 L66.8595242,26.9423208 Z M72.8773037,29.5109583 L70.8886812,31.3238787 L72.6906204,33.3184911 L74.6932193,31.5135567 L72.8773037,29.5109583 Z" id="Shape" fill="#FFFFFF" fill-rule="nonzero"></path>
                            <path d="M5.42334423,80 C4.83138445,80 4.30185807,80.4184783 4.18392843,81.0271739 C4.18392843,81.0271739 0.692290939,97.4667123 0.0402099428,100.752717 C-0.0777196935,101.423234 0.0841446061,101.784647 0.262194862,102.027174 C0.498054135,102.331522 0.861091823,102.521739 1.33512197,102.521739 L5.77482036,102.521739 L9.27108283,85.9728261 C9.38901247,85.3641304 9.92547602,84.2608696 11.5834257,84.2608696 L21.1657748,84.2608696 C20.3379563,81.4599188 17.6764495,80 15.1906807,80 L5.42334423,80 Z M11.6944182,85.5353261 L10.7509823,85.7255435 C10.572932,85.8468072 10.4596274,86.0940898 10.3995062,86.2771739 L8.97510294,93.0869565 C9.38901247,92.9038724 9.79598482,92.8396739 10.270015,92.8396739 L14.5432247,92.8396739 C18.3308426,92.8396739 20.4558853,91.2656253 21.1657748,87.8559783 C21.2837044,87.2472826 21.3507622,86.7646058 21.3507622,86.2771739 L21.2767672,85.5923913 L21.2767672,85.5353261 L11.6944182,85.5353261 Z M22.4051906,85.6684783 L22.4606868,86.0869565 C22.520808,86.6956522 22.4121277,87.2401493 22.2941981,87.9701087 C21.4663796,91.9266304 18.7909984,93.9429348 14.4692297,93.9429348 L10.2145187,93.9429348 C9.26645844,93.9429348 8.61668964,94.3685463 8.43863939,95.1603261 C8.20278071,96.2564537 6.13092146,106.295177 6.07080025,106.478261 C6.01067963,106.782609 6.07542523,107.201087 6.31128391,107.505435 C6.48933417,107.747962 6.77375249,108 7.36571228,108 L12.1013906,108 C12.6933503,108 13.2413755,107.567256 13.3593051,106.896739 C13.8911443,104.58322 14.5940965,101.068954 14.6542171,100.88587 C14.6542171,100.824049 14.7097134,100.695652 14.7097134,100.695652 L17.8544997,100.695652 C22.4722483,100.695652 25.9615742,97.8423913 26.7893927,93.2771739 C27.3813525,90.4762231 26.6159668,88.6976905 25.8459568,87.7228261 C24.7799669,86.3223507 22.8191001,85.6684783 22.4051906,85.6684783 Z" id="Shape" fill="#FFFFFF" fill-rule="nonzero"></path>
                        </g>
                        <g id="Group-22" transform="translate(333.000000, 11.000000)">
                            <path d="M48,0 L54,0 C63.9411255,0 72,8.0588745 72,18 L72,110 C72,119.941125 63.9411255,128 54,128 L48,128" id="Rectangle-8-Copy-2" stroke="#FFA05D" stroke-width="2" stroke-linecap="round" stroke-linejoin="round" transform="translate(60.000000, 64.000000) scale(-1, 1) translate(-60.000000, -64.000000) "></path>
                            <path d="M0,64 L48,64" id="Path-3" stroke="#FFA05D"></path>
                            <path id="Path-3-decoration-1" d="M0,64 L10.8,61 L10.8,67 L0,64 Z" stroke="#FFA05D"></path>
                            <path id="Path-3-decoration-2" d="M48,64 L37.2,61 L37.2,67 L48,64 Z" stroke="#FFA05D"></path>
                            <g id="Group-2" transform="translate(64.000000, 43.000000)">
                                <g id="Group">
                                    <path d="M16.4441245,21.789881 C16.4911078,21.272619 16.538091,20.802381 16.538091,20.3791667 C16.538091,18.2160714 15.5514435,17.4636905 13.9540143,17.4636905 C13.01435,17.4636905 11.8397697,18.075 10.9940718,18.6863095 L9.7725083,27.0095238 C10.5242397,27.1505952 11.1350215,27.197619 11.7458032,27.197619 C14.6117792,27.197619 15.880326,25.3166667 16.4441245,21.789881 Z M13.3448543,2.80448417 C13.2466976,3.40991213 13.1528056,3.98643652 13.0631784,4.53405736 C12.2955777,9.22408573 11.8407916,11.7940825 11.69882,12.2440476 L11.8397697,12.2910714 C13.8130646,10.9744048 15.7863596,10.2690476 18.0415538,10.2690476 C22.8338415,10.2690476 25.7937839,12.8083333 25.7937839,18.4511905 C25.7937839,27.8089286 20.1088152,34.2041667 10.0544076,34.2041667 C7.09446516,34.2041667 3.80564025,34.0630952 0,33.4517857 C1.85894565,20.8531914 3.25315488,11.4042457 4.18262771,5.10494858 L4.35073126,3.9656638 L13.3448543,2.80448417 Z" id="Combined-Shape" fill="#FFFFFF"></path>
                                    <path d="M38.3807946,9.91964286 L34.9633196,33.4224448 L25.9141104,34.606612 L29.2837369,11.0941118 L38.3807946,9.91964286 Z" id="Combined-Shape" fill="#FFFFFF"></path>
                                    <path d="M41.1786196,10.9822004 L49.4088477,9.91964286 L49.1404883,12.0683728 C49.1874715,12.0683728 49.2344548,12.1153966 49.281438,12.1153966 C49.3284212,12.1153966 49.3754044,12.0683728 49.3754044,12.0683728 C51.3486993,10.6576585 53.69786,9.95230133 55.8590878,9.95230133 C60.4164594,9.95230133 63.9402004,12.7267061 63.9402004,18.7927775 C63.9402004,28.4326585 57.5504835,33.7933728 50.831884,33.7933728 C49.4693708,33.7933728 48.1068576,33.6052775 46.7443445,33.2761109 L45.3986806,42.7423781 L36.3190184,43.9233929 L41.1786196,10.9822004 Z M50.174119,26.9278966 C53.69786,26.9278966 54.7784739,23.2130156 54.7784739,20.0624204 C54.7784739,17.8052775 53.6508768,17.3350394 52.147414,17.3350394 C51.4426658,17.3350394 50.174119,17.7112299 48.9525555,18.4636109 L47.7309919,26.6927775 C48.4827233,26.833849 49.0935051,26.9278966 50.174119,26.9278966 Z" id="Combined-Shape" fill="#FFFFFF"></path>
                                    <path d="M30.116567,3.15052647 C30.1185442,3.14446357 30.1205339,3.13840619 30.122536,3.13235435 L34.3003116,2.58565635 C34.649714,2.53993403 34.895916,2.21946407 34.8502192,1.86986666 C34.8097227,1.56005335 34.5535732,1.33133378 34.2526216,1.31511128 L22.9091057,2.79950827 C22.5597032,2.84523059 22.239412,2.59889117 22.1937152,2.24929376 C22.1480184,1.89969636 22.3942204,1.5792264 22.7436228,1.53350408 L33.5587592,0.118250117 C33.7216123,0.0872558958 33.8877108,0.0649315724 34.0565804,0.051789942 L34.0813925,0.049859033 L34.1348287,0.0428664442 C34.169479,0.0383321589 34.2038429,0.0366702131 34.2376812,0.0376964652 L34.5678867,0.0119994851 C36.6943223,-0.153482249 38.5522885,1.436185 38.7177702,3.56262067 C38.7255281,3.66230937 38.7294114,3.76226175 38.7294114,3.86225186 C38.7294114,6.2181579 36.9166911,8.17742704 34.5678867,8.36021377 L34.0565804,8.40000423 C32.2321919,8.5419803 30.6054208,7.392011 30.0755777,5.71954245 L31.7939315,5.49468103 C32.1433339,5.4489587 32.3895359,5.12848875 32.3438391,4.77889134 C32.3035317,4.47052496 32.049581,4.24249663 31.7504553,4.22437714 L25.8496843,4.99654395 C25.5002819,5.04226628 25.1799907,4.79592685 25.1342939,4.44632945 C25.088597,4.09673204 25.3347991,3.77626208 25.6842015,3.73053976 L30.116567,3.15052647 Z M20.3250145,1.84999985 C20.674417,1.80427753 20.9947082,2.05061695 21.040405,2.40021436 C21.0861018,2.74981176 20.8398998,3.07028172 20.4904974,3.11600404 L17.9969236,3.4423097 C17.6475212,3.48803203 17.3272299,3.2416926 17.2815331,2.8920952 C17.2358363,2.54249779 17.4820383,2.22202783 17.8314408,2.17630551 L20.3250145,1.84999985 Z" id="Combined-Shape" fill="#FFA05D"></path>
                                </g>
                            </g>
                            <g id="Group-20" transform="translate(139.000000, 13.000000)" fill="#FFFFFF">
                                <path d="M21.9130422,5.26006122 L21.9130422,5.23076892 L21.8921726,5.23076892 C21.0553031,4.01043053 19.9998249,2.95224598 18.7826076,2.11323064 L18.7826076,2.09230757 L18.7539119,2.09230757 C16.8281729,0.773107646 14.5027817,0 11.9999993,0 C7.89860822,0 4.27252148,2.07452295 2.10782596,5.23076892 L2.0869564,5.23076892 L2.0869564,5.26006122 C0.771130389,7.19021496 0,9.52156866 0,12.0307685 L0,15.1692299 C0,21.8034141 5.38278229,27.1999984 11.9999993,27.1999984 C18.6172163,27.1999984 23.9999986,21.8034141 23.9999986,15.1692299 L23.9999986,12.0307685 C23.9999986,9.52156866 23.2288682,7.19021496 21.9130422,5.26006122 Z M20.869564,5.60790736 L20.869564,7.07461496 C20.2393031,6.381015 19.5286945,5.76221504 18.7539119,5.231292 L18.7826076,5.231292 L18.7826076,3.42144595 C19.5751293,4.0496613 20.2758249,4.78615356 20.869564,5.60790736 Z M6.26086919,4.60621511 L6.26086919,2.69123061 C6.91460828,2.28584602 7.6126952,1.94846142 8.34782559,1.68692298 L8.34782559,3.71018439 C7.61947781,3.94399976 6.92139089,4.2442459 6.26086919,4.60621511 Z M9.39130379,1.374123 C10.0653907,1.20830762 10.7624341,1.1068307 11.4782602,1.07283071 L11.4782602,3.15206135 C10.7645211,3.18292289 10.0674777,3.2775998 9.39130379,3.42824595 L9.39130379,1.374123 Z M12.5217384,1.07283071 C13.2375644,1.1068307 13.9346079,1.20830762 14.6086948,1.374123 L14.6086948,3.42824595 C13.9325209,3.27707673 13.2354775,3.18239981 12.5217384,3.15206135 L12.5217384,1.07283071 Z M15.652173,1.68692298 C16.3873034,1.94846142 17.0853903,2.28636909 17.7391294,2.69123061 L17.7391294,4.60621511 C17.0786077,4.2442459 16.3805208,3.94347669 15.652173,3.71018439 L15.652173,1.68692298 Z M5.21739099,3.42092287 L5.21739099,5.25169199 C4.45356495,5.77790735 3.75286934,6.38938423 3.1304346,7.07461496 L3.1304346,5.60790736 C3.72417369,4.78615356 4.4248693,4.0496613 5.21739099,3.42092287 Z M2.0869564,7.38270725 L2.0869564,8.36923027 L2.10782596,8.36923027 C1.79999989,8.81750717 1.52347817,9.28827637 1.27773905,9.77735326 C1.45252165,8.93886101 1.73217381,8.14012259 2.0869564,7.38270725 Z M11.9999993,26.1538446 C5.95878225,26.1538446 1.0434782,21.2259372 1.0434782,15.1692299 C1.0434782,9.11252253 5.95878225,4.18461514 11.9999993,4.18461514 C18.0412163,4.18461514 22.9565204,9.11252253 22.9565204,15.1692299 C22.9565204,21.2259372 18.0412163,26.1538446 11.9999993,26.1538446 Z M21.8921726,8.36923027 L21.9130422,8.36923027 L21.9130422,7.38270725 C22.2678248,8.14012259 22.5474769,8.93886101 22.7227813,9.77735326 C22.4770421,9.28827637 22.1999987,8.81750717 21.8921726,8.36923027 Z M11.9999993,5.23076892 C6.53373874,5.23076892 2.0869564,9.68895327 2.0869564,15.1692299 C2.0869564,20.6495065 6.53373874,25.1076908 11.9999993,25.1076908 C17.4662598,25.1076908 21.9130422,20.6495065 21.9130422,15.1692299 C21.9130422,9.68895327 17.4662598,5.23076892 11.9999993,5.23076892 Z M11.9999993,24.061537 C7.10921697,24.061537 3.1304346,20.0725526 3.1304346,15.1692299 C3.1304346,10.2659071 7.10921697,6.2769227 11.9999993,6.2769227 C16.8907816,6.2769227 20.869564,10.2659071 20.869564,15.1692299 C20.869564,20.0725526 16.8907816,24.061537 11.9999993,24.061537 Z" id="Shape" fill-rule="nonzero"></path>
                                <text id="A" font-family="Roboto-Bold, Roboto" font-size="11.1999993" font-weight="bold" letter-spacing="0.17499999">
                                    <tspan x="9.12773383" y="19.9999995">A</tspan>
                                </text>
                            </g>
                            <g id="Group-20-Copy" transform="translate(163.000000, 47.000000)" fill="#FFFFFF">
                                <path d="M21.9130422,5.26006122 L21.9130422,5.23076892 L21.8921726,5.23076892 C21.0553031,4.01043053 19.9998249,2.95224598 18.7826076,2.11323064 L18.7826076,2.09230757 L18.7539119,2.09230757 C16.8281729,0.773107646 14.5027817,0 11.9999993,0 C7.89860822,0 4.27252148,2.07452295 2.10782596,5.23076892 L2.0869564,5.23076892 L2.0869564,5.26006122 C0.771130389,7.19021496 0,9.52156866 0,12.0307685 L0,15.1692299 C0,21.8034141 5.38278229,27.1999984 11.9999993,27.1999984 C18.6172163,27.1999984 23.9999986,21.8034141 23.9999986,15.1692299 L23.9999986,12.0307685 C23.9999986,9.52156866 23.2288682,7.19021496 21.9130422,5.26006122 Z M20.869564,5.60790736 L20.869564,7.07461496 C20.2393031,6.381015 19.5286945,5.76221504 18.7539119,5.231292 L18.7826076,5.231292 L18.7826076,3.42144595 C19.5751293,4.0496613 20.2758249,4.78615356 20.869564,5.60790736 Z M6.26086919,4.60621511 L6.26086919,2.69123061 C6.91460828,2.28584602 7.6126952,1.94846142 8.34782559,1.68692298 L8.34782559,3.71018439 C7.61947781,3.94399976 6.92139089,4.2442459 6.26086919,4.60621511 Z M9.39130379,1.374123 C10.0653907,1.20830762 10.7624341,1.1068307 11.4782602,1.07283071 L11.4782602,3.15206135 C10.7645211,3.18292289 10.0674777,3.2775998 9.39130379,3.42824595 L9.39130379,1.374123 Z M12.5217384,1.07283071 C13.2375644,1.1068307 13.9346079,1.20830762 14.6086948,1.374123 L14.6086948,3.42824595 C13.9325209,3.27707673 13.2354775,3.18239981 12.5217384,3.15206135 L12.5217384,1.07283071 Z M15.652173,1.68692298 C16.3873034,1.94846142 17.0853903,2.28636909 17.7391294,2.69123061 L17.7391294,4.60621511 C17.0786077,4.2442459 16.3805208,3.94347669 15.652173,3.71018439 L15.652173,1.68692298 Z M5.21739099,3.42092287 L5.21739099,5.25169199 C4.45356495,5.77790735 3.75286934,6.38938423 3.1304346,7.07461496 L3.1304346,5.60790736 C3.72417369,4.78615356 4.4248693,4.0496613 5.21739099,3.42092287 Z M2.0869564,7.38270725 L2.0869564,8.36923027 L2.10782596,8.36923027 C1.79999989,8.81750717 1.52347817,9.28827637 1.27773905,9.77735326 C1.45252165,8.93886101 1.73217381,8.14012259 2.0869564,7.38270725 Z M11.9999993,26.1538446 C5.95878225,26.1538446 1.0434782,21.2259372 1.0434782,15.1692299 C1.0434782,9.11252253 5.95878225,4.18461514 11.9999993,4.18461514 C18.0412163,4.18461514 22.9565204,9.11252253 22.9565204,15.1692299 C22.9565204,21.2259372 18.0412163,26.1538446 11.9999993,26.1538446 Z M21.8921726,8.36923027 L21.9130422,8.36923027 L21.9130422,7.38270725 C22.2678248,8.14012259 22.5474769,8.93886101 22.7227813,9.77735326 C22.4770421,9.28827637 22.1999987,8.81750717 21.8921726,8.36923027 Z M11.9999993,5.23076892 C6.53373874,5.23076892 2.0869564,9.68895327 2.0869564,15.1692299 C2.0869564,20.6495065 6.53373874,25.1076908 11.9999993,25.1076908 C17.4662598,25.1076908 21.9130422,20.6495065 21.9130422,15.1692299 C21.9130422,9.68895327 17.4662598,5.23076892 11.9999993,5.23076892 Z M11.9999993,24.061537 C7.10921697,24.061537 3.1304346,20.0725526 3.1304346,15.1692299 C3.1304346,10.2659071 7.10921697,6.2769227 11.9999993,6.2769227 C16.8907816,6.2769227 20.869564,10.2659071 20.869564,15.1692299 C20.869564,20.0725526 16.8907816,24.061537 11.9999993,24.061537 Z" id="Shape" fill-rule="nonzero"></path>
                                <text id="B" font-family="Roboto-Bold, Roboto" font-size="11.1999993" font-weight="bold" letter-spacing="0.17499999">
                                    <tspan x="9.11953071" y="19.9999995">B</tspan>
                                </text>
                            </g>
                            <g id="Group-20-Copy-2" transform="translate(139.000000, 80.000000)" fill="#FFFFFF">
                                <path d="M21.9130422,5.26006122 L21.9130422,5.23076892 L21.8921726,5.23076892 C21.0553031,4.01043053 19.9998249,2.95224598 18.7826076,2.11323064 L18.7826076,2.09230757 L18.7539119,2.09230757 C16.8281729,0.773107646 14.5027817,0 11.9999993,0 C7.89860822,0 4.27252148,2.07452295 2.10782596,5.23076892 L2.0869564,5.23076892 L2.0869564,5.26006122 C0.771130389,7.19021496 0,9.52156866 0,12.0307685 L0,15.1692299 C0,21.8034141 5.38278229,27.1999984 11.9999993,27.1999984 C18.6172163,27.1999984 23.9999986,21.8034141 23.9999986,15.1692299 L23.9999986,12.0307685 C23.9999986,9.52156866 23.2288682,7.19021496 21.9130422,5.26006122 Z M20.869564,5.60790736 L20.869564,7.07461496 C20.2393031,6.381015 19.5286945,5.76221504 18.7539119,5.231292 L18.7826076,5.231292 L18.7826076,3.42144595 C19.5751293,4.0496613 20.2758249,4.78615356 20.869564,5.60790736 Z M6.26086919,4.60621511 L6.26086919,2.69123061 C6.91460828,2.28584602 7.6126952,1.94846142 8.34782559,1.68692298 L8.34782559,3.71018439 C7.61947781,3.94399976 6.92139089,4.2442459 6.26086919,4.60621511 Z M9.39130379,1.374123 C10.0653907,1.20830762 10.7624341,1.1068307 11.4782602,1.07283071 L11.4782602,3.15206135 C10.7645211,3.18292289 10.0674777,3.2775998 9.39130379,3.42824595 L9.39130379,1.374123 Z M12.5217384,1.07283071 C13.2375644,1.1068307 13.9346079,1.20830762 14.6086948,1.374123 L14.6086948,3.42824595 C13.9325209,3.27707673 13.2354775,3.18239981 12.5217384,3.15206135 L12.5217384,1.07283071 Z M15.652173,1.68692298 C16.3873034,1.94846142 17.0853903,2.28636909 17.7391294,2.69123061 L17.7391294,4.60621511 C17.0786077,4.2442459 16.3805208,3.94347669 15.652173,3.71018439 L15.652173,1.68692298 Z M5.21739099,3.42092287 L5.21739099,5.25169199 C4.45356495,5.77790735 3.75286934,6.38938423 3.1304346,7.07461496 L3.1304346,5.60790736 C3.72417369,4.78615356 4.4248693,4.0496613 5.21739099,3.42092287 Z M2.0869564,7.38270725 L2.0869564,8.36923027 L2.10782596,8.36923027 C1.79999989,8.81750717 1.52347817,9.28827637 1.27773905,9.77735326 C1.45252165,8.93886101 1.73217381,8.14012259 2.0869564,7.38270725 Z M11.9999993,26.1538446 C5.95878225,26.1538446 1.0434782,21.2259372 1.0434782,15.1692299 C1.0434782,9.11252253 5.95878225,4.18461514 11.9999993,4.18461514 C18.0412163,4.18461514 22.9565204,9.11252253 22.9565204,15.1692299 C22.9565204,21.2259372 18.0412163,26.1538446 11.9999993,26.1538446 Z M21.8921726,8.36923027 L21.9130422,8.36923027 L21.9130422,7.38270725 C22.2678248,8.14012259 22.5474769,8.93886101 22.7227813,9.77735326 C22.4770421,9.28827637 22.1999987,8.81750717 21.8921726,8.36923027 Z M11.9999993,5.23076892 C6.53373874,5.23076892 2.0869564,9.68895327 2.0869564,15.1692299 C2.0869564,20.6495065 6.53373874,25.1076908 11.9999993,25.1076908 C17.4662598,25.1076908 21.9130422,20.6495065 21.9130422,15.1692299 C21.9130422,9.68895327 17.4662598,5.23076892 11.9999993,5.23076892 Z M11.9999993,24.061537 C7.10921697,24.061537 3.1304346,20.0725526 3.1304346,15.1692299 C3.1304346,10.2659071 7.10921697,6.2769227 11.9999993,6.2769227 C16.8907816,6.2769227 20.869564,10.2659071 20.869564,15.1692299 C20.869564,20.0725526 16.8907816,24.061537 11.9999993,24.061537 Z" id="Shape" fill-rule="nonzero"></path>
                                <text id="C" font-family="Roboto-Bold, Roboto" font-size="11.1999993" font-weight="bold" letter-spacing="0.17499999">
                                    <tspan x="9.13320258" y="19.9999995">C</tspan>
                                </text>
                            </g>
                            <g id="Group-20-Copy-3" transform="translate(175.000000, 100.000000)" fill="#FFFFFF">
                                <path d="M21.9130422,5.26006122 L21.9130422,5.23076892 L21.8921726,5.23076892 C21.0553031,4.01043053 19.9998249,2.95224598 18.7826076,2.11323064 L18.7826076,2.09230757 L18.7539119,2.09230757 C16.8281729,0.773107646 14.5027817,0 11.9999993,0 C7.89860822,0 4.27252148,2.07452295 2.10782596,5.23076892 L2.0869564,5.23076892 L2.0869564,5.26006122 C0.771130389,7.19021496 0,9.52156866 0,12.0307685 L0,15.1692299 C0,21.8034141 5.38278229,27.1999984 11.9999993,27.1999984 C18.6172163,27.1999984 23.9999986,21.8034141 23.9999986,15.1692299 L23.9999986,12.0307685 C23.9999986,9.52156866 23.2288682,7.19021496 21.9130422,5.26006122 Z M20.869564,5.60790736 L20.869564,7.07461496 C20.2393031,6.381015 19.5286945,5.76221504 18.7539119,5.231292 L18.7826076,5.231292 L18.7826076,3.42144595 C19.5751293,4.0496613 20.2758249,4.78615356 20.869564,5.60790736 Z M6.26086919,4.60621511 L6.26086919,2.69123061 C6.91460828,2.28584602 7.6126952,1.94846142 8.34782559,1.68692298 L8.34782559,3.71018439 C7.61947781,3.94399976 6.92139089,4.2442459 6.26086919,4.60621511 Z M9.39130379,1.374123 C10.0653907,1.20830762 10.7624341,1.1068307 11.4782602,1.07283071 L11.4782602,3.15206135 C10.7645211,3.18292289 10.0674777,3.2775998 9.39130379,3.42824595 L9.39130379,1.374123 Z M12.5217384,1.07283071 C13.2375644,1.1068307 13.9346079,1.20830762 14.6086948,1.374123 L14.6086948,3.42824595 C13.9325209,3.27707673 13.2354775,3.18239981 12.5217384,3.15206135 L12.5217384,1.07283071 Z M15.652173,1.68692298 C16.3873034,1.94846142 17.0853903,2.28636909 17.7391294,2.69123061 L17.7391294,4.60621511 C17.0786077,4.2442459 16.3805208,3.94347669 15.652173,3.71018439 L15.652173,1.68692298 Z M5.21739099,3.42092287 L5.21739099,5.25169199 C4.45356495,5.77790735 3.75286934,6.38938423 3.1304346,7.07461496 L3.1304346,5.60790736 C3.72417369,4.78615356 4.4248693,4.0496613 5.21739099,3.42092287 Z M2.0869564,7.38270725 L2.0869564,8.36923027 L2.10782596,8.36923027 C1.79999989,8.81750717 1.52347817,9.28827637 1.27773905,9.77735326 C1.45252165,8.93886101 1.73217381,8.14012259 2.0869564,7.38270725 Z M11.9999993,26.1538446 C5.95878225,26.1538446 1.0434782,21.2259372 1.0434782,15.1692299 C1.0434782,9.11252253 5.95878225,4.18461514 11.9999993,4.18461514 C18.0412163,4.18461514 22.9565204,9.11252253 22.9565204,15.1692299 C22.9565204,21.2259372 18.0412163,26.1538446 11.9999993,26.1538446 Z M21.8921726,8.36923027 L21.9130422,8.36923027 L21.9130422,7.38270725 C22.2678248,8.14012259 22.5474769,8.93886101 22.7227813,9.77735326 C22.4770421,9.28827637 22.1999987,8.81750717 21.8921726,8.36923027 Z M11.9999993,5.23076892 C6.53373874,5.23076892 2.0869564,9.68895327 2.0869564,15.1692299 C2.0869564,20.6495065 6.53373874,25.1076908 11.9999993,25.1076908 C17.4662598,25.1076908 21.9130422,20.6495065 21.9130422,15.1692299 C21.9130422,9.68895327 17.4662598,5.23076892 11.9999993,5.23076892 Z M11.9999993,24.061537 C7.10921697,24.061537 3.1304346,20.0725526 3.1304346,15.1692299 C3.1304346,10.2659071 7.10921697,6.2769227 11.9999993,6.2769227 C16.8907816,6.2769227 20.869564,10.2659071 20.869564,15.1692299 C20.869564,20.0725526 16.8907816,24.061537 11.9999993,24.061537 Z" id="Shape" fill-rule="nonzero"></path>
                                <text id="D" font-family="Roboto-Bold, Roboto" font-size="11.1999993" font-weight="bold" letter-spacing="0.17499999">
                                    <tspan x="9.04296821" y="19.9999995">D</tspan>
                                </text>
                            </g>
                            <g id="Group-20-Copy-5" transform="translate(198.000000, 65.000000)" fill="#FFFFFF">
                                <path d="M21.9130422,5.26006122 L21.9130422,5.23076892 L21.8921726,5.23076892 C21.0553031,4.01043053 19.9998249,2.95224598 18.7826076,2.11323064 L18.7826076,2.09230757 L18.7539119,2.09230757 C16.8281729,0.773107646 14.5027817,0 11.9999993,0 C7.89860822,0 4.27252148,2.07452295 2.10782596,5.23076892 L2.0869564,5.23076892 L2.0869564,5.26006122 C0.771130389,7.19021496 0,9.52156866 0,12.0307685 L0,15.1692299 C0,21.8034141 5.38278229,27.1999984 11.9999993,27.1999984 C18.6172163,27.1999984 23.9999986,21.8034141 23.9999986,15.1692299 L23.9999986,12.0307685 C23.9999986,9.52156866 23.2288682,7.19021496 21.9130422,5.26006122 Z M20.869564,5.60790736 L20.869564,7.07461496 C20.2393031,6.381015 19.5286945,5.76221504 18.7539119,5.231292 L18.7826076,5.231292 L18.7826076,3.42144595 C19.5751293,4.0496613 20.2758249,4.78615356 20.869564,5.60790736 Z M6.26086919,4.60621511 L6.26086919,2.69123061 C6.91460828,2.28584602 7.6126952,1.94846142 8.34782559,1.68692298 L8.34782559,3.71018439 C7.61947781,3.94399976 6.92139089,4.2442459 6.26086919,4.60621511 Z M9.39130379,1.374123 C10.0653907,1.20830762 10.7624341,1.1068307 11.4782602,1.07283071 L11.4782602,3.15206135 C10.7645211,3.18292289 10.0674777,3.2775998 9.39130379,3.42824595 L9.39130379,1.374123 Z M12.5217384,1.07283071 C13.2375644,1.1068307 13.9346079,1.20830762 14.6086948,1.374123 L14.6086948,3.42824595 C13.9325209,3.27707673 13.2354775,3.18239981 12.5217384,3.15206135 L12.5217384,1.07283071 Z M15.652173,1.68692298 C16.3873034,1.94846142 17.0853903,2.28636909 17.7391294,2.69123061 L17.7391294,4.60621511 C17.0786077,4.2442459 16.3805208,3.94347669 15.652173,3.71018439 L15.652173,1.68692298 Z M5.21739099,3.42092287 L5.21739099,5.25169199 C4.45356495,5.77790735 3.75286934,6.38938423 3.1304346,7.07461496 L3.1304346,5.60790736 C3.72417369,4.78615356 4.4248693,4.0496613 5.21739099,3.42092287 Z M2.0869564,7.38270725 L2.0869564,8.36923027 L2.10782596,8.36923027 C1.79999989,8.81750717 1.52347817,9.28827637 1.27773905,9.77735326 C1.45252165,8.93886101 1.73217381,8.14012259 2.0869564,7.38270725 Z M11.9999993,26.1538446 C5.95878225,26.1538446 1.0434782,21.2259372 1.0434782,15.1692299 C1.0434782,9.11252253 5.95878225,4.18461514 11.9999993,4.18461514 C18.0412163,4.18461514 22.9565204,9.11252253 22.9565204,15.1692299 C22.9565204,21.2259372 18.0412163,26.1538446 11.9999993,26.1538446 Z M21.8921726,8.36923027 L21.9130422,8.36923027 L21.9130422,7.38270725 C22.2678248,8.14012259 22.5474769,8.93886101 22.7227813,9.77735326 C22.4770421,9.28827637 22.1999987,8.81750717 21.8921726,8.36923027 Z M11.9999993,5.23076892 C6.53373874,5.23076892 2.0869564,9.68895327 2.0869564,15.1692299 C2.0869564,20.6495065 6.53373874,25.1076908 11.9999993,25.1076908 C17.4662598,25.1076908 21.9130422,20.6495065 21.9130422,15.1692299 C21.9130422,9.68895327 17.4662598,5.23076892 11.9999993,5.23076892 Z M11.9999993,24.061537 C7.10921697,24.061537 3.1304346,20.0725526 3.1304346,15.1692299 C3.1304346,10.2659071 7.10921697,6.2769227 11.9999993,6.2769227 C16.8907816,6.2769227 20.869564,10.2659071 20.869564,15.1692299 C20.869564,20.0725526 16.8907816,24.061537 11.9999993,24.061537 Z" id="Shape" fill-rule="nonzero"></path>
                                <text id="X" font-family="Roboto-Bold, Roboto" font-size="11.1999993" font-weight="bold" letter-spacing="0.17499999">
                                    <tspan x="9.14960883" y="19.9999995">X</tspan>
                                </text>
                            </g>
                            <g id="Group-20-Copy-4" transform="translate(198.000000, 24.000000)" fill="#FFFFFF">
                                <path d="M21.9130422,5.26006122 L21.9130422,5.23076892 L21.8921726,5.23076892 C21.0553031,4.01043053 19.9998249,2.95224598 18.7826076,2.11323064 L18.7826076,2.09230757 L18.7539119,2.09230757 C16.8281729,0.773107646 14.5027817,0 11.9999993,0 C7.89860822,0 4.27252148,2.07452295 2.10782596,5.23076892 L2.0869564,5.23076892 L2.0869564,5.26006122 C0.771130389,7.19021496 0,9.52156866 0,12.0307685 L0,15.1692299 C0,21.8034141 5.38278229,27.1999984 11.9999993,27.1999984 C18.6172163,27.1999984 23.9999986,21.8034141 23.9999986,15.1692299 L23.9999986,12.0307685 C23.9999986,9.52156866 23.2288682,7.19021496 21.9130422,5.26006122 Z M20.869564,5.60790736 L20.869564,7.07461496 C20.2393031,6.381015 19.5286945,5.76221504 18.7539119,5.231292 L18.7826076,5.231292 L18.7826076,3.42144595 C19.5751293,4.0496613 20.2758249,4.78615356 20.869564,5.60790736 Z M6.26086919,4.60621511 L6.26086919,2.69123061 C6.91460828,2.28584602 7.6126952,1.94846142 8.34782559,1.68692298 L8.34782559,3.71018439 C7.61947781,3.94399976 6.92139089,4.2442459 6.26086919,4.60621511 Z M9.39130379,1.374123 C10.0653907,1.20830762 10.7624341,1.1068307 11.4782602,1.07283071 L11.4782602,3.15206135 C10.7645211,3.18292289 10.0674777,3.2775998 9.39130379,3.42824595 L9.39130379,1.374123 Z M12.5217384,1.07283071 C13.2375644,1.1068307 13.9346079,1.20830762 14.6086948,1.374123 L14.6086948,3.42824595 C13.9325209,3.27707673 13.2354775,3.18239981 12.5217384,3.15206135 L12.5217384,1.07283071 Z M15.652173,1.68692298 C16.3873034,1.94846142 17.0853903,2.28636909 17.7391294,2.69123061 L17.7391294,4.60621511 C17.0786077,4.2442459 16.3805208,3.94347669 15.652173,3.71018439 L15.652173,1.68692298 Z M5.21739099,3.42092287 L5.21739099,5.25169199 C4.45356495,5.77790735 3.75286934,6.38938423 3.1304346,7.07461496 L3.1304346,5.60790736 C3.72417369,4.78615356 4.4248693,4.0496613 5.21739099,3.42092287 Z M2.0869564,7.38270725 L2.0869564,8.36923027 L2.10782596,8.36923027 C1.79999989,8.81750717 1.52347817,9.28827637 1.27773905,9.77735326 C1.45252165,8.93886101 1.73217381,8.14012259 2.0869564,7.38270725 Z M11.9999993,26.1538446 C5.95878225,26.1538446 1.0434782,21.2259372 1.0434782,15.1692299 C1.0434782,9.11252253 5.95878225,4.18461514 11.9999993,4.18461514 C18.0412163,4.18461514 22.9565204,9.11252253 22.9565204,15.1692299 C22.9565204,21.2259372 18.0412163,26.1538446 11.9999993,26.1538446 Z M21.8921726,8.36923027 L21.9130422,8.36923027 L21.9130422,7.38270725 C22.2678248,8.14012259 22.5474769,8.93886101 22.7227813,9.77735326 C22.4770421,9.28827637 22.1999987,8.81750717 21.8921726,8.36923027 Z M11.9999993,5.23076892 C6.53373874,5.23076892 2.0869564,9.68895327 2.0869564,15.1692299 C2.0869564,20.6495065 6.53373874,25.1076908 11.9999993,25.1076908 C17.4662598,25.1076908 21.9130422,20.6495065 21.9130422,15.1692299 C21.9130422,9.68895327 17.4662598,5.23076892 11.9999993,5.23076892 Z M11.9999993,24.061537 C7.10921697,24.061537 3.1304346,20.0725526 3.1304346,15.1692299 C3.1304346,10.2659071 7.10921697,6.2769227 11.9999993,6.2769227 C16.8907816,6.2769227 20.869564,10.2659071 20.869564,15.1692299 C20.869564,20.0725526 16.8907816,24.061537 11.9999993,24.061537 Z" id="Shape" fill-rule="nonzero"></path>
                                <text id="Z" font-family="Roboto-Bold, Roboto" font-size="11.1999993" font-weight="bold" letter-spacing="0.17499999">
                                    <tspan x="9.41484319" y="19.9999995">Z</tspan>
                                </text>
                            </g>
                        </g>

                    </g>
                </g>
            </g>
        </g>
    </g>
</svg>
