<svg width="556" height="140" viewBox="0 0 556 140" xmlns="http://www.w3.org/2000/svg">
    <g transform="translate(28)">
        <rect fill="#171838" x="186" y="11" width="128" height="128" rx="64"/>
        <path d="M219.8022 87.5322l2.256-7.4853h2.2831L220.8755 90h-2.1397l-3.4521-9.9531h2.2764l2.2421 7.4853zM229.3384 90c-.0912-.1777-.1572-.3988-.1983-.663-.2005.2232-.4523.4123-.7553.5673-.3031.155-.6734.2324-1.1109.2324-.3554 0-.687-.0547-.9946-.164-.3076-.1094-.5742-.262-.7998-.458a2.1057 2.1057 0 0 1-.5298-.7007c-.1276-.2712-.1914-.5686-.1914-.8921 0-.3874.0718-.7315.2153-1.0323.1436-.3007.359-.556.646-.7656.2871-.2096.6437-.3691 1.0699-.4785.426-.1094.9217-.164 1.4868-.164h.8818v-.4239c0-.3418-.0877-.6152-.2632-.8203-.1754-.205-.4523-.3076-.8305-.3076-.3327 0-.5936.0797-.7828.2392-.189.1596-.2837.3783-.2837.6563h-1.9755c0-.319.074-.622.2221-.9092.1481-.2871.359-.5377.6324-.752.2734-.2141.6038-.3839.9912-.5092.3873-.1253.8203-.188 1.2988-.188.4284 0 .8249.0547 1.1894.164.3646.1094.679.2724.9434.4888.2643.2165.4705.4877.6187.8135.148.3259.2221.7052.2221 1.1382v3.1308c0 .2097.0069.3977.0205.564.0137.1664.032.3167.0547.4512.0228.1344.0524.2552.0889.3623a2.142 2.142 0 0 0 .1299.3042V90h-1.9961zm-1.6338-1.374c.1686 0 .3247-.0205.4683-.0615.1435-.041.2722-.0946.3862-.1607.114-.066.213-.1424.2973-.229.0844-.0866.1516-.1755.2017-.2666v-1.2715h-.8135c-.2597 0-.4853.0285-.6767.0855-.1914.057-.3487.1367-.4717.2392-.123.1026-.2142.2233-.2734.3623-.0593.139-.089.2906-.089.4546 0 .2461.0867.449.2599.6084.1731.1595.4101.2393.7109.2393zM234.8618 90h-1.9824V79.5h1.9824V90zm3.9307 0H236.81v-7.3965h1.9824V90zm-2.0987-9.3105c0-.2963.0992-.54.2974-.7315.1983-.1914.4683-.2871.81-.2871.1687 0 .3214.025.458.0752.1368.0501.253.1208.3487.212a.9479.9479 0 0 1 .2222.3246c.0524.1253.0786.261.0786.4068 0 .1503-.0262.2882-.0786.4135a.9479.9479 0 0 1-.2222.3247c-.0957.0912-.2119.1618-.3486.212-.1367.05-.2894.0751-.458.0751-.1687 0-.3213-.025-.458-.0752-.1368-.05-.253-.1207-.3487-.2119a.9479.9479 0 0 1-.2221-.3247c-.0524-.1253-.0787-.2632-.0787-.4135zm3.6368 5.5576c0-.5606.065-1.0733.1948-1.5381.1299-.4649.3179-.8636.564-1.1963.246-.3327.5491-.5902.9091-.7725.36-.1823.7702-.2734 1.2305-.2734.3783 0 .7144.0706 1.0083.212.294.1412.5526.3394.7759.5946V79.5h1.9824V90h-1.7842l-.0957-.7861c-.2324.2916-.5036.5184-.8135.6801-.3099.1618-.6722.2427-1.0869.2427-.4557 0-.8624-.0945-1.2202-.2837-.3577-.1891-.6596-.45-.9057-.7827-.2461-.3327-.4341-.728-.564-1.186-.1299-.458-.1948-.956-.1948-1.4937v-.1435zm1.9756.1435c0 .3008.025.581.0751.8408.0502.2598.131.4865.2427.6802.1117.1937.2575.3464.4375.458.18.1117.4.1675.6597.1675.319 0 .5845-.0683.7964-.205.2119-.1368.377-.326.4956-.5675v-2.9189c-.1185-.246-.2837-.4364-.4956-.5708-.212-.1344-.4728-.2017-.7827-.2017-.2598 0-.4808.0559-.6631.1675-.1823.1117-.3293.2655-.441.4614-.1116.196-.1936.4262-.246.6905s-.0786.5491-.0786.8545v.1435zM253.0317 90c-.0911-.1777-.1572-.3988-.1982-.663-.2005.2232-.4523.4123-.7554.5673-.303.155-.6733.2324-1.1108.2324-.3555 0-.687-.0547-.9946-.164-.3077-.1094-.5743-.262-.7998-.458a2.1057 2.1057 0 0 1-.5298-.7007c-.1276-.2712-.1914-.5686-.1914-.8921 0-.3874.0717-.7315.2153-1.0323.1435-.3007.3589-.556.646-.7656.2871-.2096.6437-.3691 1.0698-.4785.4261-.1094.9217-.164 1.4868-.164h.8819v-.4239c0-.3418-.0878-.6152-.2632-.8203-.1755-.205-.4523-.3076-.8306-.3076-.3327 0-.5936.0797-.7827.2392-.1891.1596-.2837.3783-.2837.6563h-1.9756c0-.319.074-.622.2222-.9092.1481-.2871.3589-.5377.6323-.752.2735-.2141.6039-.3839.9912-.5092.3874-.1253.8203-.188 1.2989-.188.4283 0 .8248.0547 1.1894.164.3646.1094.679.2724.9434.4888.2643.2165.4705.4877.6186.8135.1481.3259.2222.7052.2222 1.1382v3.1308c0 .2097.0068.3977.0205.564.0137.1664.0319.3167.0547.4512.0228.1344.0524.2552.0888.3623.0365.107.0798.2085.13.3042V90h-1.9962zm-1.6338-1.374c.1687 0 .3248-.0205.4683-.0615.1436-.041.2723-.0946.3862-.1607.114-.066.213-.1424.2974-.229.0843-.0866.1515-.1755.2017-.2666v-1.2715h-.8135c-.2598 0-.4854.0285-.6768.0855-.1914.057-.3486.1367-.4716.2392-.1231.1026-.2142.2233-.2735.3623-.0592.139-.0889.2906-.0889.4546 0 .2461.0866.449.2598.6084.1732.1595.4102.2393.711.2393zm7.4375-7.8408v1.8183h1.2647v1.4492h-1.2647v3.6914c0 .155.016.2826.0479.3829.0319.1002.0798.1788.1436.2358.0638.057.1424.0957.2358.1162.0934.0205.204.0308.3315.0308.1185 0 .2268-.0046.3247-.0137a2.8347 2.8347 0 0 0 .2564-.0342v1.497a4.5382 4.5382 0 0 1-.5366.1265c-.1937.0342-.4136.0513-.6597.0513-.3236 0-.6152-.0399-.875-.1196-.2598-.0798-.482-.2062-.6665-.3794-.1846-.1732-.327-.3988-.4272-.6768-.1003-.278-.1504-.613-.1504-1.0048v-3.9034h-1.0801v-1.4492h1.08v-1.8183h1.9756zm2.0713 5.4482c0-.5378.0775-1.0368.2325-1.497.155-.4604.3805-.858.6767-1.193.2962-.335.662-.598 1.0972-.7895.4352-.1914.9308-.2871 1.4868-.2871.5606 0 1.0596.0957 1.497.2871.4376.1914.8056.4546 1.104.7896.2986.335.5253.7325.6803 1.1928.1549.4603.2324.9593.2324 1.4971v.1436c0 .5423-.0775 1.0424-.2324 1.5004-.155.458-.3817.8545-.6802 1.1895-.2985.335-.6642.597-1.0972.7861-.433.1892-.9297.2837-1.4902.2837-.5606 0-1.0585-.0945-1.4937-.2837-.4352-.1891-.802-.4511-1.1006-.7861-.2985-.335-.5252-.7314-.6801-1.1895-.155-.458-.2325-.9581-.2325-1.5004v-.1436zm1.9756.1436c0 .3007.0274.5833.082.8476.0547.2643.1425.4933.2632.687a1.364 1.364 0 0 0 .4717.4614c.1937.114.4318.171.7144.171.2734 0 .507-.057.7007-.171.1936-.1139.352-.2677.475-.4614.1231-.1937.212-.4227.2667-.687.0546-.2643.082-.5469.082-.8476v-.1436c0-.2917-.0274-.5685-.082-.8306-.0547-.262-.1436-.4922-.2666-.6904s-.2826-.3555-.4786-.4717c-.196-.1162-.4329-.1743-.7109-.1743-.2734 0-.507.0581-.7007.1743-.1937.1162-.3509.2735-.4717.4717-.1207.1982-.2085.4284-.2631.6904-.0547.262-.082.539-.082.8306v.1436zm10.623-1.921a7.0525 7.0525 0 0 0-.352-.0375 4.3002 4.3002 0 0 0-.3589-.0171c-.3873 0-.7006.065-.94.1948-.2392.1299-.4158.3179-.5297.564V90h-1.9756v-7.3965h1.8662l.0547.8819c.1869-.319.417-.5686.6904-.7486.2735-.18.5925-.27.957-.27.1049 0 .2154.0091.3316.0273.1162.0183.2108.0388.2837.0616l-.0273 1.9004zm5.1749 3.5c0-.1048-.0205-.2005-.0615-.287-.041-.0866-.1185-.1675-.2325-.2427-.1139-.0752-.2688-.147-.4648-.2154-.196-.0683-.449-.1344-.7588-.1982-.3783-.082-.728-.1846-1.0493-.3076-.3213-.123-.5993-.2757-.834-.458-.2347-.1823-.4181-.3942-.5503-.6358-.1322-.2415-.1982-.5218-.1982-.8408a2 2 0 0 1 .2016-.8818c.1345-.278.3281-.523.581-.7349.253-.212.5629-.3794.9298-.5024.3668-.123.7804-.1846 1.2407-.1846.4785 0 .9092.0592 1.292.1777.3828.1185.7075.2837.9741.4956.2666.212.4717.4637.6152.7554.1436.2917.2154.6107.2154.957h-1.9756c0-.2825-.0912-.516-.2735-.7006-.1823-.1846-.467-.2769-.8544-.2769-.3327 0-.5902.0752-.7725.2256-.1823.1504-.2734.3418-.2734.5742 0 .1094.0239.2062.0717.2905.0479.0843.1254.1618.2325.2325.107.0706.2483.1355.4238.1948.1754.0592.3908.114.646.164.401.0775.7724.1732 1.1142.2871.3418.114.637.261.8853.441.2484.18.4432.3987.5845.6562.1412.2575.2119.5685.2119.9331 0 .3282-.073.63-.2188.9058-.1458.2757-.3543.5138-.6255.7143-.2711.2006-.5981.3578-.981.4717-.3827.114-.8111.171-1.285.171-.5196 0-.9776-.073-1.3741-.2188-.3965-.1459-.7303-.3373-1.0015-.5743-.2711-.237-.475-.5035-.6118-.7998-.1367-.2962-.205-.5947-.205-.8955h1.873c.0091.1914.0513.3566.1265.4956.0751.139.1743.2518.2973.3384.123.0866.2655.1504.4273.1914a2.065 2.065 0 0 0 .5092.0616c.3783 0 .6643-.0718.858-.2154.1936-.1435.2905-.3315.2905-.564zm5.2295-7.3964c0 .2233-.033.4534-.0992.6904-.066.237-.1549.4683-.2666.6938a3.807 3.807 0 0 1-.3964.6358c-.1527.1982-.3156.3725-.4888.523l-.9297-.5401a4.8215 4.8215 0 0 0 .2393-.4238 3.6285 3.6285 0 0 0 .1914-.4615c.0547-.1617.098-.335.1299-.5195.0319-.1846.0478-.384.0478-.5981V79.5h1.5723v1.0596zM206.2637 106v-9.9531h3.0625c.6699 0 1.284.115 1.8423.3452.5582.2301 1.0367.5537 1.4355.9707.3988.417.7098.9171.9331 1.5005.2233.5833.335 1.2304.335 1.9414v.4512c0 .7109-.1105 1.3569-.3316 1.938-.221.581-.5332 1.08-.9365 1.497-.4033.417-.8852.7394-1.4458.9673-.5605.2279-1.178.3418-1.8525.3418h-3.042zm2.0508-8.292v6.6445h.9912c.8112 0 1.4287-.2677 1.8525-.8032.4238-.5355.6357-1.3.6357-2.2934v-.4649c0-1.0117-.2096-1.7785-.6289-2.3003-.4192-.5218-1.0322-.7827-1.8388-.7827h-1.0117zm10.541 8.4287c-.5743 0-1.088-.0934-1.5415-.2803-.4535-.1868-.8386-.442-1.1553-.7656-.3167-.3235-.5583-.703-.7246-1.1382-.1664-.4352-.2495-.9012-.2495-1.398v-.2665c0-.5606.0809-1.0744.2426-1.5415.1618-.4671.392-.8693.6905-1.2066.2985-.3372.6608-.6004 1.0869-.7895.4261-.1891.9035-.2837 1.4321-.2837.5332 0 1.0026.0877 1.4082.2632.4056.1754.7463.4215 1.022.7383.2757.3167.483.6984.622 1.145s.2086.9433.2086 1.4902v.8408h-4.71c.0319.2416.0968.4603.1948.6563s.2233.3634.376.5024c.1527.139.3315.2473.5366.3247.2051.0775.4352.1162.6905.1162.36 0 .6927-.0672.998-.2016.3053-.1345.5674-.343.7861-.6255l.9707 1.087c-.1185.1685-.2666.3326-.4443.4921-.1777.1595-.3874.302-.629.4272-.2414.1254-.5137.2256-.8168.3008-.303.0752-.6346.1128-.9946.1128zm-.2256-6.0703c-.2142 0-.4022.0376-.564.1128a1.2305 1.2305 0 0 0-.417.3145c-.1162.1344-.2107.295-.2837.4819-.0729.1868-.1253.3942-.1572.622h2.748v-.1572c-.0045-.196-.033-.3782-.0854-.5468-.0524-.1687-.1322-.3145-.2393-.4375-.107-.123-.2438-.2188-.4101-.2872-.1664-.0683-.3635-.1025-.5913-.1025zm7.6836 4.4775c.1823 0 .3486-.0262.499-.0786.1504-.0524.2803-.1264.3896-.2221a1.0134 1.0134 0 0 0 .2564-.3453c.0615-.1344.0946-.286.0991-.4545h1.8526c-.0046.3919-.0866.753-.2461 1.0835a2.6597 2.6597 0 0 1-.6495.8544c-.2734.2393-.5958.425-.9672.5572-.3715.1321-.7714.1982-1.1997.1982-.5743 0-1.0756-.0968-1.504-.2905-.4283-.1937-.7838-.458-1.0664-.793-.2825-.335-.4944-.7291-.6357-1.1826-.1413-.4534-.212-.9422-.212-1.4663v-.1914c0-.5241.0707-1.014.212-1.4697.1413-.4558.3532-.8522.6357-1.1895.2826-.3372.637-.6027 1.063-.7964.4261-.1937.924-.2905 1.4937-.2905.4557 0 .8716.0672 1.2475.2017.376.1344.6984.327.9673.5776.269.2506.4785.5548.629.9126.1503.3577.2278.7576.2324 1.1997h-1.8526c-.0045-.1777-.0353-.3452-.0923-.5024-.057-.1573-.1378-.294-.2426-.4102-.1049-.1162-.2347-.2085-.3897-.2769-.155-.0683-.3327-.1025-.5332-.1025-.2871 0-.5218.0592-.7041.1777-.1823.1185-.3247.2769-.4272.4751-.1026.1983-.172.4273-.2085.687a5.7994 5.7994 0 0 0-.0547.8067v.1914c0 .2826.0182.5537.0547.8135.0364.2597.106.4876.2085.6836s.245.352.4272.4682c.1823.1162.4216.1743.7178.1743zm7.8476 1.5928c-.5742 0-1.088-.0934-1.5415-.2803-.4534-.1868-.8385-.442-1.1552-.7656-.3168-.3235-.5583-.703-.7247-1.1382-.1663-.4352-.2495-.9012-.2495-1.398v-.2665c0-.5606.081-1.0744.2427-1.5415.1618-.4671.392-.8693.6904-1.2066.2985-.3372.6608-.6004 1.087-.7895.426-.1891.9034-.2837 1.432-.2837.5333 0 1.0027.0877 1.4083.2632.4056.1754.7462.4215 1.022.7383.2757.3167.483.6984.622 1.145s.2085.9433.2085 1.4902v.8408h-4.71c.032.2416.097.4603.1949.6563.098.196.2233.3634.376.5024.1526.139.3315.2473.5366.3247.205.0775.4352.1162.6904.1162.36 0 .6927-.0672.998-.2016.3054-.1345.5674-.343.7862-.6255l.9707 1.087c-.1185.1685-.2666.3326-.4443.4921-.1778.1595-.3874.302-.629.4272-.2415.1254-.5138.2256-.8168.3008-.3031.0752-.6346.1128-.9947.1128zm-.2256-6.0703c-.2141 0-.4021.0376-.564.1128a1.2305 1.2305 0 0 0-.417.3145c-.1161.1344-.2107.295-.2836.4819-.073.1868-.1253.3942-.1572.622h2.748v-.1572c-.0045-.196-.033-.3782-.0854-.5468-.0524-.1687-.1322-.3145-.2393-.4375-.107-.123-.2438-.2188-.4101-.2872-.1664-.0683-.3635-.1025-.5914-.1025zm6.4258-1.4629l.0616.8545c.2552-.319.5628-.564.9228-.7349.36-.1709.761-.2563 1.2031-.2563.351 0 .67.049.957.147a1.758 1.758 0 0 1 .7383.4819c.2051.2233.3635.515.4751.875.1117.36.1675.802.1675 1.3262V106h-1.9756v-4.7168c0-.237-.0262-.433-.0786-.5879-.0524-.155-.1287-.278-.229-.3691-.1002-.0912-.2233-.1561-.3691-.1949-.1459-.0387-.3145-.058-.5059-.058-.2917 0-.5412.0637-.7485.1913-.2074.1277-.3749.3008-.5025.5196V106h-1.9755v-7.3965h1.8593zm8.6065-1.8183v1.8183h1.2646v1.4492h-1.2646v3.6914c0 .155.016.2826.0478.3829.032.1002.0798.1788.1436.2358.0638.057.1424.0957.2358.1162.0934.0205.204.0308.3316.0308a3.526 3.526 0 0 0 .3247-.0137 2.8348 2.8348 0 0 0 .2563-.0342v1.497a4.538 4.538 0 0 1-.5366.1265c-.1937.0342-.4136.0513-.6597.0513-.3235 0-.6152-.0399-.875-.1196-.2597-.0798-.482-.2062-.6665-.3794-.1845-.1732-.327-.3988-.4272-.6768-.1003-.278-.1504-.613-.1504-1.0048v-3.9034h-1.08v-1.4492h1.08v-1.8183h1.9756zm6.7402 3.6709a7.052 7.052 0 0 0-.352-.0376 4.3003 4.3003 0 0 0-.359-.0171c-.3873 0-.7006.065-.9399.1948-.2392.1299-.4158.3179-.5298.564V106h-1.9755v-7.3965h1.8662l.0547.8819c.1868-.319.417-.5686.6904-.7486.2734-.18.5924-.27.957-.27.1048 0 .2153.0091.3316.0273.1162.0183.2107.0388.2837.0616l-.0274 1.9004zm5.25 5.5439c-.0911-.1777-.1572-.3988-.1982-.663-.2006.2232-.4523.4123-.7554.5673-.303.155-.6733.2324-1.1108.2324-.3555 0-.687-.0547-.9947-.164-.3076-.1094-.5742-.262-.7998-.458a2.1057 2.1057 0 0 1-.5298-.7007c-.1276-.2712-.1914-.5686-.1914-.8921 0-.3874.0718-.7315.2154-1.0323.1435-.3007.3588-.556.646-.7656.287-.2096.6437-.3691 1.0698-.4785.426-.1094.9217-.164 1.4868-.164h.8818v-.4239c0-.3418-.0877-.6152-.2631-.8203-.1755-.205-.4524-.3076-.8306-.3076-.3327 0-.5936.0797-.7827.2392-.1892.1596-.2837.3783-.2837.6563h-1.9756c0-.319.074-.622.2222-.9092.148-.2871.3588-.5377.6323-.752.2734-.2141.6038-.3839.9912-.5092.3874-.1253.8203-.188 1.2988-.188.4284 0 .8249.0547 1.1895.164.3646.1094.679.2724.9433.4888.2644.2165.4706.4877.6187.8135.1481.3259.2222.7052.2222 1.1382v3.1308c0 .2097.0068.3977.0205.564.0136.1664.0319.3167.0547.4512.0227.1344.0524.2552.0888.3623a2.142 2.142 0 0 0 .1299.3042V106h-1.996zm-1.6338-1.374c.1686 0 .3247-.0205.4683-.0615.1435-.041.2723-.0946.3862-.1607.114-.066.213-.1424.2974-.229.0843-.0866.1515-.1755.2016-.2666v-1.2715h-.8134c-.2598 0-.4854.0285-.6768.0855-.1914.057-.3486.1367-.4717.2392-.123.1026-.2142.2233-.2734.3623-.0593.139-.0889.2906-.0889.4546 0 .2461.0866.449.2598.6084.1732.1595.4101.2393.711.2393zm7.1572 1.374h-1.9824V95.5h1.9824V106zm3.9307 0h-1.9824v-7.3965h1.9824V106zm-2.0986-9.3105c0-.2963.0991-.54.2973-.7315.1983-.1914.4683-.2871.8101-.2871.1686 0 .3213.025.458.0752.1367.0501.253.1208.3486.212a.9479.9479 0 0 1 .2222.3246c.0524.1253.0786.261.0786.4068 0 .1503-.0262.2882-.0786.4135a.9479.9479 0 0 1-.2222.3247c-.0957.0912-.2119.1618-.3486.212-.1367.05-.2894.0751-.458.0751-.1686 0-.3213-.025-.458-.0752-.1367-.05-.253-.1207-.3486-.2119a.9479.9479 0 0 1-.2222-.3247c-.0524-.1253-.0786-.2632-.0786-.4135zm6.2138 7.7177h3.6163V106h-6.1387v-1.2031l3.4795-4.5938h-3.377v-1.5996h5.9268v1.169l-3.5069 4.6347zm8.3672 1.7295c-.5742 0-1.088-.0934-1.5415-.2803-.4534-.1868-.8385-.442-1.1552-.7656-.3168-.3235-.5583-.703-.7247-1.1382-.1663-.4352-.2495-.9012-.2495-1.398v-.2665c0-.5606.081-1.0744.2427-1.5415.1618-.4671.392-.8693.6904-1.2066.2985-.3372.6608-.6004 1.087-.7895.426-.1891.9034-.2837 1.432-.2837.5333 0 1.0027.0877 1.4083.2632.4056.1754.7462.4215 1.022.7383.2757.3167.483.6984.622 1.145s.2085.9433.2085 1.4902v.8408h-4.71c.032.2416.0969.4603.1949.6563.098.196.2233.3634.376.5024.1526.139.3315.2473.5366.3247.205.0775.4352.1162.6904.1162.36 0 .6927-.0672.998-.2016.3054-.1345.5674-.343.7862-.6255l.9707 1.087c-.1185.1685-.2666.3326-.4443.4921-.1778.1595-.3874.302-.629.4272-.2415.1254-.5138.2256-.8168.3008-.3031.0752-.6346.1128-.9947.1128zm-.2256-6.0703c-.2141 0-.4021.0376-.564.1128a1.2305 1.2305 0 0 0-.417.3145c-.1161.1344-.2107.295-.2836.4819-.073.1868-.1253.3942-.1572.622h2.748v-.1572c-.0045-.196-.033-.3782-.0854-.5468-.0524-.1687-.1322-.3145-.2393-.4375-.107-.123-.2438-.2188-.4101-.2872-.1664-.0683-.3635-.1025-.5914-.1025zm4.2998 2.1807c0-.5606.065-1.0733.1949-1.5381.1299-.4649.3178-.8636.564-1.1963.246-.3327.549-.5902.9091-.7725.36-.1823.7702-.2734 1.2305-.2734.3782 0 .7143.0706 1.0083.212.294.1412.5526.3394.7759.5946V95.5h1.9824V106h-1.7842l-.0957-.7861c-.2324.2916-.5036.5184-.8135.6801-.3099.1618-.6722.2427-1.0869.2427-.4557 0-.8625-.0945-1.2202-.2837-.3577-.1891-.6597-.45-.9058-.7827-.246-.3327-.434-.728-.564-1.186-.1298-.458-.1947-.956-.1947-1.4937v-.1435zm1.9756.1435c0 .3008.0251.581.0752.8408.0502.2598.131.4865.2427.6802.1117.1937.2575.3464.4375.458.18.1117.4.1675.6597.1675.319 0 .5844-.0683.7964-.205.2119-.1368.377-.326.4956-.5675v-2.9189c-.1185-.246-.2837-.4364-.4956-.5708-.212-.1344-.4729-.2017-.7828-.2017-.2597 0-.4807.0559-.663.1675-.1823.1117-.3293.2655-.441.4614-.1116.196-.1936.4262-.246.6905-.0525.2643-.0787.5491-.0787.8545v.1435zM234.5713 122v-9.9531h3.4863c.5788 0 1.096.0547 1.5518.164.4557.1094.842.2769 1.1587.5025.3167.2256.5582.5093.7246.851.1663.3419.2495.7452.2495 1.21 0 .2279-.0285.4466-.0855.6563a2.1228 2.1228 0 0 1-.2597.5879c-.1162.1822-.2632.3474-.441.4956-.1777.148-.3896.27-.6357.3657.2917.0729.5412.1834.7485.3315.2074.1481.3783.3202.5127.5161.1345.196.2325.409.294.6392.0615.2301.0923.466.0923.7075 0 .9662-.311 1.6953-.9331 2.1875-.6221.4922-1.5074.7383-2.6558.7383h-3.8076zm2.0508-4.334v2.6865h1.7568c.2643 0 .4922-.033.6836-.099.1914-.0662.351-.1573.4785-.2735a1.0818 1.0818 0 0 0 .2837-.4102c.0615-.1572.0923-.3292.0923-.516 0-.2143-.0274-.4068-.082-.5777-.0547-.171-.1402-.3168-.2564-.4375-.1162-.1208-.2677-.213-.4546-.2769-.1868-.0638-.4101-.0957-.6699-.0957h-1.832zm0-1.4492h1.5175c.5241-.0091.9138-.1196 1.169-.3315.2552-.212.3828-.5139.3828-.9058 0-.4512-.131-.7759-.393-.9741-.2621-.1983-.6757-.2974-1.2408-.2974h-1.4355v2.5088zM247.8809 122c-.0912-.1777-.1573-.3988-.1983-.663-.2005.2232-.4523.4123-.7554.5673-.303.155-.6733.2324-1.1108.2324-.3555 0-.687-.0547-.9946-.164-.3076-.1094-.5742-.262-.7998-.458a2.1057 2.1057 0 0 1-.5298-.7007c-.1276-.2712-.1914-.5686-.1914-.8921 0-.3874.0718-.7315.2153-1.0323.1436-.3007.3589-.556.646-.7656.2871-.2096.6437-.3691 1.0698-.4785.4261-.1094.9217-.164 1.4869-.164h.8818v-.4239c0-.3418-.0877-.6152-.2632-.8203-.1755-.205-.4523-.3076-.8306-.3076-.3326 0-.5935.0797-.7827.2392-.1891.1596-.2837.3783-.2837.6563h-1.9756c0-.319.0741-.622.2222-.9092.1481-.287.3589-.5377.6323-.752.2735-.2141.6039-.3839.9912-.5092.3874-.1253.8204-.188 1.2989-.188.4284 0 .8248.0547 1.1894.164.3646.1094.679.2724.9434.4888.2643.2165.4705.4877.6186.8135.1482.3259.2222.7052.2222 1.1382v3.1308c0 .2097.0068.3977.0205.564.0137.1664.032.3167.0547.4512.0228.1344.0524.2552.0889.3623.0364.107.0797.2085.1299.3042V122h-1.9961zm-1.6338-1.374c.1686 0 .3247-.0205.4682-.0615.1436-.041.2723-.0946.3863-.1607.1139-.066.213-.1424.2973-.229.0843-.0866.1516-.1755.2017-.2666v-1.2715h-.8135c-.2598 0-.4853.0285-.6767.0855-.1915.057-.3487.1367-.4717.2392-.123.1026-.2142.2233-.2735.3623-.0592.139-.0888.2906-.0888.4546 0 .2461.0866.449.2597.6084.1732.1595.4102.2393.711.2393zm6.8906-6.0225l.0615.8545c.2552-.319.5628-.564.9229-.7349.36-.1709.761-.2563 1.2031-.2563.351 0 .67.049.957.147a1.758 1.758 0 0 1 .7383.4819c.205.2233.3635.515.4751.875.1117.36.1675.802.1675 1.3262V122h-1.9756v-4.7168c0-.237-.0262-.433-.0786-.5879-.0524-.155-.1288-.278-.229-.3691-.1003-.0912-.2233-.1561-.3692-.1949-.1458-.0387-.3144-.058-.5058-.058-.2917 0-.5412.0637-.7486.1913-.2073.1277-.3748.3008-.5024.5196V122h-1.9756v-7.3965h1.8594zm8.9277 4.4297l-.711.711V122h-1.9755v-10.5h1.9756v5.8174l.3828-.4922 1.8936-2.2217h2.372l-2.6728 3.083L266.2354 122h-2.2696l-1.9004-2.9668z" fill="#FFB74D"/>
        <path fill="#805A26" d="M220 28h60v30h-60z"/>
        <path fill="#E89419" d="M208 64h84v4h-84zM216 56h68v4h-68zM218 22h64v8h-64z"/>
        <path fill="#E89419" d="M286 20L250 4l-36 16v4h72z"/>
        <path fill="#FFB74D" d="M230 30h4v26h-4zM242 30h4v26h-4zM254 30h4v26h-4zM266 30h4v26h-4z"/>
        <path d="M236 32c0 1.1016-.8984 2-2 2s-2-.8984-2-2c0-1.1094.8984-2 2-2s2 .8906 2 2zM248 32c0 1.1016-.8984 2-2 2s-2-.8984-2-2c0-1.1094.8984-2 2-2s2 .8906 2 2zM232 32c0 1.1016-.8984 2-2 2s-2-.8984-2-2 .8984-2 2-2 2 .8984 2 2zM218 30h4v26h-4z" fill="#FFB74D"/>
        <path d="M224 32c0 1.1016-.8984 2-2 2s-2-.8984-2-2 .8984-2 2-2 2 .8984 2 2zM220 32c0 1.1094-.8984 2-2 2s-2-.8906-2-2c0-1.1016.8984-2 2-2s2 .8984 2 2zM244 32c0 1.1016-.8984 2-2 2s-2-.8984-2-2 .8984-2 2-2 2 .8984 2 2zM260 32c0 1.1016-.8984 2-2 2s-2-.8984-2-2 .8984-2 2-2 2 .8984 2 2zM256 32c0 1.1016-.8984 2-2 2s-2-.8984-2-2c0-1.1094.8984-2 2-2s2 .8906 2 2zM272 32c0 1.1094-.8984 2-2 2s-2-.8906-2-2c0-1.1016.8984-2 2-2s2 .8984 2 2zM268 32c0 1.1016-.8984 2-2 2s-2-.8984-2-2 .8984-2 2-2 2 .8984 2 2zM278 30h4v26h-4z" fill="#FFB74D"/>
        <path d="M284 32c0 1.1094-.8984 2-2 2s-2-.8906-2-2c0-1.1016.8984-2 2-2s2 .8984 2 2zM280 32c0 1.1016-.8984 2-2 2s-2-.8984-2-2 .8984-2 2-2 2 .8984 2 2zM250 8.4219L278 20h-56l28-11.5781zM250 4l-36 16v4h72v-4L250 4zM222 60h56v4h-56z" fill="#FFB74D"/>
        <path fill="#C97911" d="M216 56h8v4h-8zM212 60h10v4h-10zM208 64h12v4h-12zM276 56h8v4h-8zM278 60h10v4h-10zM280 64h12v4h-12zM252 2c0 1.1016-.8984 2-2 2s-2-.8984-2-2 .8984-2 2-2 2 .8984 2 2z"/>
        <g>
            <path d="M122 11h6c9.9411 0 18 8.0589 18 18v92c0 9.9411-8.0589 18-18 18h-6" fill="none" stroke="#5AC012" stroke-width="2" stroke-linecap="round" stroke-linejoin="round"/>
            <path d="M104.4813 102c-.4 0-.73-.12-.99-.36s-.39-.58-.39-1.02v-4.2c-2.8-.24-5.21-.89-7.23-1.95-2.02-1.06-3.56-2.38-4.62-3.96s-1.63-3.27-1.71-5.07c0-.32.12-.6.36-.84s.54-.36.9-.36h2.88c.76 0 1.28.4 1.56 1.2.36 1.68 1.39 3.13 3.09 4.35 1.7 1.22 4.13 1.83 7.29 1.83 3.4 0 5.94-.6 7.62-1.8 1.68-1.2 2.52-2.86 2.52-4.98 0-1.36-.41-2.48-1.23-3.36-.82-.88-2.04-1.65-3.66-2.31-1.62-.66-4.05-1.47-7.29-2.43-3.08-.88-5.54-1.82-7.38-2.82-1.84-1-3.22-2.23-4.14-3.69-.92-1.46-1.38-3.31-1.38-5.55 0-3 1.1-5.52 3.3-7.56 2.2-2.04 5.24-3.24 9.12-3.6v-4.14c0-.44.13-.78.39-1.02s.59-.36.99-.36h2.16c.4 0 .72.13.96.39s.36.59.36.99v4.2c2.56.32 4.76 1.04 6.6 2.16 1.84 1.12 3.23 2.43 4.17 3.93s1.45 3.01 1.53 4.53c0 .36-.12.66-.36.9s-.54.36-.9.36h-3c-.32 0-.63-.1-.93-.3-.3-.2-.49-.5-.57-.9-.24-1.72-1.2-3.14-2.88-4.26-1.68-1.12-3.78-1.68-6.3-1.68-2.72 0-4.88.53-6.48 1.59-1.6 1.06-2.4 2.63-2.4 4.71 0 1.4.37 2.54 1.11 3.42.74.88 1.88 1.66 3.42 2.34 1.54.68 3.77 1.46 6.69 2.34 3.4.96 6.08 1.92 8.04 2.88 1.96.96 3.42 2.15 4.38 3.57s1.44 3.25 1.44 5.49c0 3.4-1.21 6.14-3.63 8.22-2.42 2.08-5.73 3.28-9.93 3.6v4.14c0 .4-.12.73-.36.99s-.56.39-.96.39h-2.16zM154.5 74.5h31v-4l9 4.5-9 4.5v-4h-31v4l-9-4.5 9-4.5v4z" fill="#5AC012"/>
            <path d="M47.7827 98C46.2527 98 45 99.2412 45 100.757v15.1638c0 1.3462.9892 2.4582 2.2827 2.6924l.913 5.1049c.2664 1.4916 1.7121 2.504 3.2176 2.24l23.2835-4.114c1.5055-.2638 2.5273-1.6962 2.261-3.1878l-2.674-14.9268a.6288.6288 0 0 0-.0653-.1939v-2.7786c0-1.5158-1.2527-2.757-2.7827-2.757h-23.653zm0 1.3785h23.6531c.7772 0 1.3914.6085 1.3914 1.3785v2.0678H46.3914v-2.0678c0-.77.6141-1.3785 1.3913-1.3785zm-1.3913 6.8926h26.4358v9.6497c0 .77-.6142 1.3785-1.3914 1.3785h-23.653c-.7773 0-1.3914-.6085-1.3914-1.3785v-9.6497zm3.4784 2.0678v1.3785h11.1308v-1.3785H49.8698zm24.3487 2.9078l1.3697 7.6465c.1358.7566-.3642 1.4593-1.1305 1.594l-23.2835 4.114c-.7637.1346-1.473-.3608-1.6088-1.12l-.8696-4.8034h22.74c1.53 0 2.7827-1.2412 2.7827-2.757v-4.674zM26.653 62.61c-.559.684-1.453 1.224-2.348 1.146-.111-.924.327-1.908.84-2.514.558-.703 1.536-1.204 2.328-1.242.093.963-.27 1.907-.82 2.61zm.716 1.625v-.001h.119c.355 0 1.882.189 2.805 1.546-.074.055-1.707.992-1.689 2.955.019 2.349 2.067 3.129 2.085 3.147-.018.055-.322 1.111-1.07 2.193C28.964 75.03 28.317 76 27.25 76c-1.067 0-1.419-.588-2.609-.588-1.181 0-1.512.551-2.49.588-1.067 0-1.858-1.007-2.514-1.961-1.338-1.927-2.362-5.432-.978-7.799.674-1.184 1.951-1.996 3.255-1.996 1.067 0 1.99.697 2.609.697.609 0 1.542-.706 2.846-.706zM40.688 62c2.807 0 4.813 1.938 4.813 4.667s-2.043 4.666-4.887 4.666h-3.099v4.666H35.25V62h5.438zm-.551 7.466c1.961 0 3.099-1.031 3.099-2.8s-1.147-2.8-3.099-2.8h-2.622v5.6h2.622zM50.752 65.5c2.575 0 4.249 1.306 4.248 3.335v6.992h-2.083v-1.685h-.046c-.594 1.1-1.906 1.793-3.319 1.793-2.092 0-3.552-1.208-3.552-3.028 0-1.802 1.414-2.839 4.028-2.992l2.814-.147-.001-.79c0-1.145-.778-1.766-2.154-1.766-1.135 0-1.963.567-2.13 1.432H46.53c.066-1.82 1.832-3.144 4.222-3.144zm2.082 6.514l.007-.823-2.508.184c-1.405.082-2.139.595-2.139 1.478 0 .855.763 1.414 1.962 1.414 1.525 0 2.678-.937 2.678-2.253zM63.691 65.5H66l-3.989 11.115C61.1 79.161 60.059 80 57.844 80c-.164 0-.692-.018-.843-.052v-1.745c.15.019.475.036.647.036 1.004 0 1.566-.42 1.914-1.511l.206-.644L55.92 65.5h2.374l2.676 8.588h.046l2.675-8.588zM63.9425 24.5271c-3.2975.0726-6.737 1.521-9.1255 4.731-3.8672 5.1992-2.847 12.389 2.323 16.3672 2.1953 1.6893 4.698 2.4139 7.082 2.4139 2.6083 0 5.066-.8752 6.8294-2.2961l.024.028.7677-.675-2.6016-2.9619-1.0842.9933c-.573.5224-1.125 1.0261-1.6632 1.5444-.8699-.9931-1.7523-1.9766-2.6335-2.96a681.3388 681.3388 0 0 1-1.2728-1.4236 1.8601 1.8601 0 0 1-.0709-.0838l1.2419-1.161-3.1976-3.611 1.2519-1.173-3.2495-3.6178 4.4235-3.9962 1.6332 1.767 2.7064-2.403c.023.0072.045.0149.068.022l1.5483 1.6962 1.4475-1.3248s-.383-.3555-.7607-.563a.3195.3195 0 0 0-.1627-.04c-1.6189-.8642-3.5461-1.3164-5.5246-1.2728zm7.2986 2.6655l-1.2928 1.183 1.166 1.2938 1.2978-1.167-1.171-1.3098zm-3.9343.3494l-1.9996 1.8169 1.799 1.9986 1.9965-1.803-1.796-2.0125zm-4.4465.7357l-2.6964 2.4429 2.4329 2.7064 2.7024-2.4399-2.4389-2.7094zm10.1638 3.0998l-1.2889 1.174 1.175 1.2998 1.2988-1.178-1.185-1.2958zm-3.7836.4103l-1.9966 1.8099 1.798 2.0066 2.0015-1.81-1.803-2.0065zm-4.3736 1.2898l-2.6974 2.4488 2.4378 2.7064 2.6895-2.4458-2.4299-2.7094zm9.9541 2.4818l-1.2958 1.166 1.176 1.2998L76 36.8562l-1.179-1.2968zm-3.7836.6898l-1.9966 1.805 1.8 2.0095 1.9986-1.8139-1.802-2.0006zm-4.1779 1.6931l-2.6964 2.4389 2.4269 2.7134 2.7064-2.4429-2.4369-2.7094zm6.0178 2.5687l-1.9886 1.8129 1.802 1.9946 2.0025-1.805-1.8159-2.0025zM5.4233 91c-.592 0-1.1214.4185-1.2394 1.0272 0 0-3.4916 16.4395-4.1437 19.7255-.118.6705.044 1.032.222 1.2745.2359.3043.5989.4945 1.073.4945h4.4396l3.4963-16.5489c.118-.6087.6544-1.712 2.3123-1.712h9.5824C20.338 92.46 17.6764 91 15.1907 91H5.4233zm6.2711 5.5353l-.9434.1902c-.178.1213-.2914.3686-.3515.5517l-1.4244 6.8098c.414-.1831.8209-.2473 1.295-.2473h4.2731c3.7876 0 5.9127-1.574 6.6226-4.9837.1179-.6087.185-1.0914.185-1.5788l-.074-.6848v-.057h-9.5824zm10.7108.1332l.0555.4185c.0601.6087-.0486 1.1531-.1665 1.8831-.8278 3.9565-3.5032 5.9728-7.825 5.9728h-4.2547c-.948 0-1.5978.4256-1.7759 1.2174-.2358 1.0962-2.3077 11.1349-2.3678 11.318-.0601.3043.0046.7228.2405 1.0271.178.2426.4625.4946 1.0544.4946h4.7357c.592 0 1.14-.4327 1.258-1.1033.5317-2.3135 1.2347-5.8277 1.2948-6.0108 0-.0619.0555-.1902.0555-.1902h3.1448c4.6177 0 8.107-2.8533 8.9349-7.4185.592-2.801-.1734-4.5795-.9434-5.5544-1.066-1.4004-3.0269-2.0543-3.4408-2.0543z" fill="#FFF"/>
        </g>
        <g>
            <path d="M378 11h-6c-9.9411 0-18 8.0589-18 18v92c0 9.9411 8.0589 18 18 18h6" fill="none" stroke="#FFA05D" stroke-width="2" stroke-linecap="round" stroke-linejoin="round"/>
            <path d="M314.5 74.5h31v-4l9 4.5-9 4.5v-4h-31v4l-9-4.5 9-4.5v4z" fill="#FFA05D"/>
            <path d="M386.4441 75.7899c.047-.5173.094-.9875.094-1.4107 0-2.1631-.9867-2.9155-2.584-2.9155-.9398 0-2.1143.6113-2.96 1.2226l-1.2216 8.3232c.7517.1411 1.3625.1881 1.9733.1881 2.866 0 4.1345-1.881 4.6983-5.4077zm-3.0992-18.9854c-.0982.6054-.192 1.182-.2817 1.7296-.7676 4.69-1.2224 7.26-1.3644 7.71l.141.047c1.9733-1.3167 3.9466-2.022 6.2018-2.022 4.7922 0 7.7522 2.5392 7.7522 8.182 0 9.3578-5.685 15.753-15.7394 15.753-2.96 0-6.2488-.141-10.0544-.7523l4.1826-28.3469.1681-1.1392 8.9942-1.1612zM408.3808 63.9196l-3.4175 23.5028-9.0492 1.1842 3.3696-23.5125 9.097-1.1745zM411.1786 64.9822l8.2302-1.0626-.2683 2.1488c.047 0 .094.047.141.047.047 0 .0939-.047.0939-.047 1.9733-1.4107 4.3225-2.1161 6.4837-2.1161 4.5574 0 8.0811 2.7744 8.0811 8.8405 0 9.6399-6.3897 15.0006-13.1083 15.0006-1.3625 0-2.725-.1881-4.0876-.5173l-1.3456 9.4663-9.0797 1.181 4.8596-32.9412zm8.9955 15.9457c3.5238 0 4.6044-3.7149 4.6044-6.8655 0-2.2571-1.1276-2.7274-2.631-2.7274-.7048 0-1.9734.3762-3.195 1.1286l-1.2215 8.2292c.7517.141 1.3625.2351 2.4431.2351z" fill="#FFF"/>
            <path d="M400.1166 57.1505l.006-.0181 4.1777-.5467a.6383.6383 0 0 0 .55-.7158.6384.6384 0 0 0-.5977-.5548l-11.3435 1.4844a.6381.6381 0 0 1-.7154-.5502.6383.6383 0 0 1 .55-.7158l10.815-1.4152c.163-.031.329-.0534.4979-.0665l.0248-.002.0534-.007a.6423.6423 0 0 1 .1029-.0051l.3302-.0257c2.1264-.1655 3.9844 1.4242 4.1499 3.5506.0077.0997.0116.1997.0116.2997 0 2.3559-1.8127 4.3151-4.1615 4.498l-.5113.0397c-1.8244.142-3.4512-1.008-3.981-2.6805l1.7183-.2248a.6383.6383 0 0 0 .55-.7158.6384.6384 0 0 0-.5934-.5545l-5.9008.7721a.6381.6381 0 0 1-.7154-.5502.6383.6383 0 0 1 .5499-.7158l4.4324-.58zM390.325 55.85a.6381.6381 0 0 1 .7154.5502.6383.6383 0 0 1-.5499.7158l-2.4936.3263a.6381.6381 0 0 1-.7154-.5502.6383.6383 0 0 1 .55-.7158l2.4935-.3263z" fill="#FFA05D"/>
            <g fill="#FFF">
                <path d="M466.913 29.26v-.0292h-.0208a12.1007 12.1007 0 0 0-3.1096-3.1176v-.0209h-.0287C461.8282 24.7731 459.5028 24 457 24c-4.1014 0-7.7275 2.0745-9.8922 5.2308h-.0208v.0293C445.771 31.1902 445 33.5216 445 36.0308v3.1384c0 6.6342 5.3828 12.0308 12 12.0308s12-5.3966 12-12.0308v-3.1384c0-2.5092-.7711-4.8406-2.087-6.7707zm-1.0434.348v1.4666a12.1029 12.1029 0 0 0-2.1157-1.8433h.0287v-1.8099c.7925.6283 1.4932 1.3648 2.087 2.1865zm-14.6087-1.0018v-1.915a10.873 10.873 0 0 1 2.087-1.0043v2.0233a11.9246 11.9246 0 0 0-2.087.896zm3.1304-3.232a10.8883 10.8883 0 0 1 2.087-.3014v2.0793a11.9666 11.9666 0 0 0-2.087.2761v-2.054zm3.1304-.3014c.7159.034 1.413.1355 2.087.3013v2.0541a11.8675 11.8675 0 0 0-2.087-.2761v-2.0793zm3.1305.6141a10.904 10.904 0 0 1 2.087 1.0043v1.915a11.8852 11.8852 0 0 0-2.087-.896v-2.0233zm-10.4348 1.734v1.8308a12.0688 12.0688 0 0 0-2.087 1.823v-1.4668c.5938-.8217 1.2945-1.5582 2.087-2.187zm-3.1304 3.9618v.9865h.0208a12.016 12.016 0 0 0-.83 1.4082c.1747-.8385.4544-1.6373.8092-2.3947zM457 50.1538c-6.0412 0-10.9565-4.9279-10.9565-10.9846S450.9588 28.1846 457 28.1846s10.9565 4.928 10.9565 10.9846c0 6.0567-4.9153 10.9846-10.9565 10.9846zm9.8922-17.7846h.0208v-.9865c.3548.7574.6345 1.5562.8098 2.3947a12.0198 12.0198 0 0 0-.8306-1.4082zM457 29.2308c-5.4663 0-9.913 4.4582-9.913 9.9384 0 5.4803 4.4467 9.9385 9.913 9.9385s9.913-4.4582 9.913-9.9385c0-5.4802-4.4467-9.9384-9.913-9.9384zm0 18.8307c-4.8908 0-8.8696-3.989-8.8696-8.8923 0-4.9033 3.9788-8.8923 8.8696-8.8923 4.8908 0 8.8696 3.989 8.8696 8.8923 0 4.9034-3.9788 8.8923-8.8696 8.8923z"/>
                <path d="M459.1426 42.2828h-2.7946L455.8066 44h-1.6132l2.7398-7.9625h1.6352L461.2973 44h-1.6133l-.5414-1.7172zm-2.4008-1.2523h2.007l-.9843-3.1282h-.0329l-.9898 3.1282z"/>
                <path d="M490.913 63.26v-.0292h-.0208a12.1007 12.1007 0 0 0-3.1096-3.1176v-.0209h-.0287C485.8282 58.7731 483.5028 58 481 58c-4.1014 0-7.7275 2.0745-9.8922 5.2308h-.0208v.0293C469.771 65.1902 469 67.5216 469 70.0308v3.1384c0 6.6342 5.3828 12.0308 12 12.0308s12-5.3966 12-12.0308v-3.1384c0-2.5092-.7711-4.8406-2.087-6.7707zm-1.0434.348v1.4666a12.1029 12.1029 0 0 0-2.1157-1.8433h.0287v-1.8099c.7925.6283 1.4932 1.3648 2.087 2.1865zm-14.6087-1.0018v-1.915a10.873 10.873 0 0 1 2.087-1.0043v2.0233a11.9246 11.9246 0 0 0-2.087.896zm3.1304-3.232a10.8883 10.8883 0 0 1 2.087-.3014v2.0793a11.9666 11.9666 0 0 0-2.087.2761v-2.054zm3.1304-.3014c.7159.034 1.413.1355 2.087.3013v2.0541a11.8675 11.8675 0 0 0-2.087-.2761v-2.0793zm3.1305.6141a10.904 10.904 0 0 1 2.087 1.0043v1.915a11.8852 11.8852 0 0 0-2.087-.896v-2.0233zm-10.4348 1.734v1.8308a12.0688 12.0688 0 0 0-2.087 1.823v-1.4668c.5938-.8217 1.2945-1.5582 2.087-2.187zm-3.1304 3.9618v.9865h.0208a12.016 12.016 0 0 0-.83 1.4082c.1747-.8385.4544-1.6373.8092-2.3947zM481 84.1538c-6.0412 0-10.9565-4.9279-10.9565-10.9846S474.9588 62.1846 481 62.1846s10.9565 4.928 10.9565 10.9846c0 6.0567-4.9153 10.9846-10.9565 10.9846zm9.8922-17.7846h.0208v-.9865c.3548.7574.6345 1.5562.8098 2.3947a12.0198 12.0198 0 0 0-.8306-1.4082zM481 63.2308c-5.4663 0-9.913 4.4582-9.913 9.9384 0 5.4803 4.4467 9.9385 9.913 9.9385s9.913-4.4582 9.913-9.9385c0-5.4802-4.4467-9.9384-9.913-9.9384zm0 18.8307c-4.8908 0-8.8696-3.989-8.8696-8.8923 0-4.9033 3.9788-8.8923 8.8696-8.8923 4.8908 0 8.8696 3.989 8.8696 8.8923 0 4.9034-3.9788 8.8923-8.8696 8.8923z"/>
                <path d="M478.8633 78v-7.9625h2.6906c.937 0 1.668.1823 2.193.5469.525.3646.7875.9096.7875 1.6351 0 .3683-.0976.6973-.2926.9871-.195.2899-.4785.5077-.8504.6536.4776.102.8358.3208 1.0746.6562.2388.3354.3582.7237.3582 1.1648 0 .762-.2515 1.339-.7547 1.731-.5031.3918-1.2159.5878-2.1383.5878h-3.068zm1.5969-3.5219v2.2969h1.471c.423 0 .7456-.092.968-.2762.2224-.184.3336-.4566.3336-.8176 0-.39-.0948-.6881-.2844-.894-.1895-.206-.4885-.309-.8968-.309h-1.5914zm0-1.1047h1.1484c.4266 0 .7547-.0875.9844-.2625.2297-.175.3445-.4302.3445-.7656 0-.3682-.1158-.6398-.3473-.8148-.2315-.175-.577-.2625-1.0363-.2625h-1.0937v2.1054z"/>
                <path d="M466.913 96.26v-.0292h-.0208a12.1007 12.1007 0 0 0-3.1096-3.1176v-.0209h-.0287C461.8282 91.7731 459.5028 91 457 91c-4.1014 0-7.7275 2.0745-9.8922 5.2308h-.0208v.0293c-1.3159 1.9301-2.087 4.2615-2.087 6.7707v3.1384c0 6.6342 5.3828 12.0308 12 12.0308s12-5.3966 12-12.0308v-3.1384c0-2.5092-.7711-4.8406-2.087-6.7707zm-1.0434.348v1.4666a12.1029 12.1029 0 0 0-2.1157-1.8433h.0287v-1.8099c.7925.6283 1.4932 1.3648 2.087 2.1865zm-14.6087-1.0018v-1.915a10.873 10.873 0 0 1 2.087-1.0043v2.0233a11.9246 11.9246 0 0 0-2.087.896zm3.1304-3.232a10.8883 10.8883 0 0 1 2.087-.3014v2.0793a11.9666 11.9666 0 0 0-2.087.2761v-2.054zm3.1304-.3014c.7159.034 1.413.1355 2.087.3013v2.0541a11.8675 11.8675 0 0 0-2.087-.2761v-2.0793zm3.1305.6141a10.904 10.904 0 0 1 2.087 1.0043v1.915a11.8852 11.8852 0 0 0-2.087-.896v-2.0233zm-10.4348 1.734v1.8308a12.0688 12.0688 0 0 0-2.087 1.823v-1.4668c.5938-.8217 1.2945-1.5582 2.087-2.187zm-3.1304 3.9618v.9865h.0208a12.016 12.016 0 0 0-.83 1.4082c.1747-.8385.4544-1.6373.8092-2.3947zM457 117.1538c-6.0412 0-10.9565-4.9279-10.9565-10.9846S450.9588 95.1846 457 95.1846s10.9565 4.928 10.9565 10.9846c0 6.0567-4.9153 10.9846-10.9565 10.9846zm9.8922-17.7846h.0208v-.9865c.3548.7574.6345 1.5562.8098 2.3947a12.0198 12.0198 0 0 0-.8306-1.4082zM457 96.2308c-5.4663 0-9.913 4.4582-9.913 9.9384 0 5.4803 4.4467 9.9385 9.913 9.9385s9.913-4.4582 9.913-9.9385c0-5.4802-4.4467-9.9384-9.913-9.9384zm0 18.8307c-4.8908 0-8.8696-3.989-8.8696-8.8923 0-4.9033 3.9788-8.8923 8.8696-8.8923 4.8908 0 8.8696 3.989 8.8696 8.8923 0 4.9034-3.9788 8.8923-8.8696 8.8923z"/>
                <path d="M460.8871 108.293l.011.0328c.0145.8568-.247 1.5358-.7848 2.037-.5378.5014-1.2843.752-2.2395.752-.9588 0-1.7372-.308-2.3351-.9242-.598-.6161-.8969-1.409-.8969-2.3789v-1.5805c0-.9661.2917-1.759.875-2.3789.5833-.6198 1.3417-.9296 2.275-.9296.9844 0 1.7536.2524 2.3078.7574.5542.505.824 1.193.8094 2.0644l-.011.0328h-1.553c0-.525-.1259-.927-.3774-1.2058-.2516-.279-.6435-.4184-1.1758-.4184-.4776 0-.8568.1942-1.1375.5824-.2807.3883-.4211.8832-.4211 1.4848v1.5914c0 .6089.1477 1.1074.443 1.4957.2953.3883.6945.5824 1.1976.5824.4995 0 .8686-.134 1.1074-.402.2389-.2679.3583-.6662.3583-1.1948h1.5476z"/>
                <path d="M502.913 116.26v-.0292h-.0208a12.1007 12.1007 0 0 0-3.1096-3.1176v-.0209h-.0287C497.8282 111.7731 495.5028 111 493 111c-4.1014 0-7.7275 2.0745-9.8922 5.2308h-.0208v.0293c-1.3159 1.9301-2.087 4.2615-2.087 6.7707v3.1384c0 6.6342 5.3828 12.0308 12 12.0308s12-5.3966 12-12.0308v-3.1384c0-2.5092-.7711-4.8406-2.087-6.7707zm-1.0434.348v1.4666a12.1029 12.1029 0 0 0-2.1157-1.8433h.0287v-1.8099c.7925.6283 1.4932 1.3648 2.087 2.1865zm-14.6087-1.0018v-1.915a10.873 10.873 0 0 1 2.087-1.0043v2.0233a11.9246 11.9246 0 0 0-2.087.896zm3.1304-3.232a10.8883 10.8883 0 0 1 2.087-.3014v2.0793a11.9666 11.9666 0 0 0-2.087.2761v-2.054zm3.1304-.3014c.7159.034 1.413.1355 2.087.3013v2.0541a11.8675 11.8675 0 0 0-2.087-.2761v-2.0793zm3.1305.6141a10.904 10.904 0 0 1 2.087 1.0043v1.915a11.8852 11.8852 0 0 0-2.087-.896v-2.0233zm-10.4348 1.734v1.8308a12.0688 12.0688 0 0 0-2.087 1.823v-1.4668c.5938-.8217 1.2945-1.5582 2.087-2.187zm-3.1304 3.9618v.9865h.0208a12.016 12.016 0 0 0-.83 1.4082c.1747-.8385.4544-1.6373.8092-2.3947zM493 137.1538c-6.0412 0-10.9565-4.9279-10.9565-10.9846s4.9153-10.9846 10.9565-10.9846 10.9565 4.928 10.9565 10.9846c0 6.0567-4.9153 10.9846-10.9565 10.9846zm9.8922-17.7846h.0208v-.9865c.3548.7574.6345 1.5562.8098 2.3947a12.0198 12.0198 0 0 0-.8306-1.4082zM493 116.2308c-5.4663 0-9.913 4.4582-9.913 9.9384 0 5.4803 4.4467 9.9385 9.913 9.9385s9.913-4.4582 9.913-9.9385c0-5.4802-4.4467-9.9384-9.913-9.9384zm0 18.8307c-4.8908 0-8.8696-3.989-8.8696-8.8923 0-4.9033 3.9788-8.8923 8.8696-8.8923 4.8908 0 8.8696 3.989 8.8696 8.8923 0 4.9034-3.9788 8.8923-8.8696 8.8923z"/>
                <path d="M490.7867 131v-7.9625h2.7344c.9734 0 1.7755.3108 2.4062.9324.6308.6216.9461 1.4192.9461 2.3926v1.318c0 .977-.3153 1.7746-.946 2.3925-.6308.618-1.4329.927-2.4063.927h-2.7344zm1.5969-6.732v5.507h1.0555c.5724 0 1.0208-.1932 1.3453-.5797.3245-.3864.4867-.8914.4867-1.5148v-1.329c0-.616-.1622-1.1174-.4867-1.5038-.3245-.3865-.773-.5797-1.3453-.5797h-1.0555z"/>
                <path d="M525.913 81.26v-.0292h-.0208a12.1007 12.1007 0 0 0-3.1096-3.1176v-.0209h-.0287C520.8282 76.7731 518.5028 76 516 76c-4.1014 0-7.7275 2.0745-9.8922 5.2308h-.0208v.0293C504.771 83.1902 504 85.5216 504 88.0308v3.1384c0 6.6342 5.3828 12.0308 12 12.0308s12-5.3966 12-12.0308v-3.1384c0-2.5092-.7711-4.8406-2.087-6.7707zm-1.0434.348v1.4666a12.1029 12.1029 0 0 0-2.1157-1.8433h.0287v-1.8099c.7925.6283 1.4932 1.3648 2.087 2.1865zm-14.6087-1.0018v-1.915a10.873 10.873 0 0 1 2.087-1.0043v2.0233a11.9246 11.9246 0 0 0-2.087.896zm3.1304-3.232a10.8883 10.8883 0 0 1 2.087-.3014v2.0793a11.9666 11.9666 0 0 0-2.087.2761v-2.054zm3.1304-.3014c.7159.034 1.413.1355 2.087.3013v2.0541a11.8675 11.8675 0 0 0-2.087-.2761v-2.0793zm3.1305.6141a10.904 10.904 0 0 1 2.087 1.0043v1.915a11.8852 11.8852 0 0 0-2.087-.896v-2.0233zm-10.4348 1.734v1.8308a12.0688 12.0688 0 0 0-2.087 1.823v-1.4668c.5938-.8217 1.2945-1.5582 2.087-2.187zm-3.1304 3.9618v.9865h.0208a12.016 12.016 0 0 0-.83 1.4082c.1747-.8385.4544-1.6373.8092-2.3947zM516 102.1538c-6.0412 0-10.9565-4.9279-10.9565-10.9846S509.9588 80.1846 516 80.1846s10.9565 4.928 10.9565 10.9846c0 6.0567-4.9153 10.9846-10.9565 10.9846zm9.8922-17.7846h.0208v-.9865c.3548.7574.6345 1.5562.8098 2.3947a12.0198 12.0198 0 0 0-.8306-1.4082zM516 81.2308c-5.4663 0-9.913 4.4582-9.913 9.9384 0 5.4803 4.4467 9.9385 9.913 9.9385s9.913-4.4582 9.913-9.9385c0-5.4802-4.4467-9.9384-9.913-9.9384zm0 18.8307c-4.8908 0-8.8696-3.989-8.8696-8.8923 0-4.9033 3.9788-8.8923 8.8696-8.8923 4.8908 0 8.8696 3.989 8.8696 8.8923 0 4.9034-3.9788 8.8923-8.8696 8.8923z"/>
                <path d="M516.6988 90.8594l1.493-2.8219h1.8594l-2.3625 3.9484L520.1879 96h-1.9305l-1.5367-2.871L515.184 96h-1.8649l2.4227-4.014-2.3625-3.9485h1.8484z"/>
                <path d="M525.913 40.26v-.0292h-.0208a12.1007 12.1007 0 0 0-3.1096-3.1176v-.0209h-.0287C520.8282 35.7731 518.5028 35 516 35c-4.1014 0-7.7275 2.0745-9.8922 5.2308h-.0208v.0293C504.771 42.1902 504 44.5216 504 47.0308v3.1384c0 6.6342 5.3828 12.0308 12 12.0308s12-5.3966 12-12.0308v-3.1384c0-2.5092-.7711-4.8406-2.087-6.7707zm-1.0434.348v1.4666a12.1029 12.1029 0 0 0-2.1157-1.8433h.0287v-1.8099c.7925.6283 1.4932 1.3648 2.087 2.1865zm-14.6087-1.0018v-1.915a10.873 10.873 0 0 1 2.087-1.0043v2.0233a11.9246 11.9246 0 0 0-2.087.896zm3.1304-3.232a10.8883 10.8883 0 0 1 2.087-.3014v2.0793a11.9666 11.9666 0 0 0-2.087.2761v-2.054zm3.1304-.3014c.7159.034 1.413.1355 2.087.3013v2.0541a11.8675 11.8675 0 0 0-2.087-.2761v-2.0793zm3.1305.6141a10.904 10.904 0 0 1 2.087 1.0043v1.915a11.8852 11.8852 0 0 0-2.087-.896v-2.0233zm-10.4348 1.734v1.8308a12.0688 12.0688 0 0 0-2.087 1.823v-1.4668c.5938-.8217 1.2945-1.5582 2.087-2.187zm-3.1304 3.9618v.9865h.0208a12.016 12.016 0 0 0-.83 1.4082c.1747-.8385.4544-1.6373.8092-2.3947zM516 61.1538c-6.0412 0-10.9565-4.9279-10.9565-10.9846S509.9588 39.1846 516 39.1846s10.9565 4.928 10.9565 10.9846c0 6.0567-4.9153 10.9846-10.9565 10.9846zm9.8922-17.7846h.0208v-.9865c.3548.7574.6345 1.5562.8098 2.3947a12.0198 12.0198 0 0 0-.8306-1.4082zM516 40.2308c-5.4663 0-9.913 4.4582-9.913 9.9384 0 5.4803 4.4467 9.9385 9.913 9.9385s9.913-4.4582 9.913-9.9385c0-5.4802-4.4467-9.9384-9.913-9.9384zm0 18.8307c-4.8908 0-8.8696-3.989-8.8696-8.8923 0-4.9033 3.9788-8.8923 8.8696-8.8923 4.8908 0 8.8696 3.989 8.8696 8.8923 0 4.9034-3.9788 8.8923-8.8696 8.8923z"/>
                <path d="M515.7664 53.775h3.8938V55h-5.8243v-.8313l3.7844-5.9007h-3.7789v-1.2305h5.7258v.7984z"/>
            </g>
        </g>
    </g>
</svg>
