<svg width="296" height="199" viewBox="0 0 296 199" xmlns="http://www.w3.org/2000/svg">
    <rect fill="#171838" y="164" width="296" height="2" rx="1"/>
    <path d="M12.6367 194.0078c0-.4219-.121-.7656-.3633-1.0312-.2422-.2657-.6575-.513-1.246-.7422-1.1563-.4219-2.0144-.892-2.5743-1.4102-.5599-.5182-.8398-1.2487-.8398-2.1914 0-.875.28-1.5924.8398-2.1523.56-.56 1.3138-.8894 2.2617-.9883v-1.6797h1.2422v1.6953c.9167.1354 1.6367.5182 2.1602 1.1484.5234.6303.78 1.448.7695 2.4532l-.0234.039h-2.2266c0-.6145-.1263-1.0885-.3789-1.4218-.2526-.3334-.5976-.5-1.0351-.5-.448 0-.7813.1289-1 .3867-.2188.2578-.3282.6002-.3282 1.0273 0 .4063.116.7357.3477.9883.2318.2526.6575.5013 1.2773.7461 1.151.4531 2.004.9375 2.5586 1.4531.5547.5157.832 1.237.832 2.164 0 .9063-.2786 1.6303-.8359 2.172-.5573.5416-1.315.862-2.2734.9609v1.5469h-1.2422v-1.539c-.974-.099-1.7786-.4441-2.414-1.0352-.6355-.5912-.9428-1.4597-.922-2.6055l.0157-.039h2.2265c0 .6978.1602 1.1978.4805 1.5.3203.302.7279.453 1.2227.453.474 0 .8372-.1263 1.0898-.3789.2526-.2526.379-.5924.379-1.0195zm11.7031-1.4375c0 1.5052-.345 2.6471-1.0351 3.4258-.6901.7786-1.6237 1.168-2.8008 1.168-1.1875 0-2.1276-.3894-2.8203-1.168-.6927-.7787-1.039-1.9206-1.039-3.4258v-2.5078c0-1.5.345-2.642 1.035-3.4258.6902-.7838 1.6264-1.1758 2.8087-1.1758 1.177 0 2.1133.392 2.8086 1.1758.6953.7839 1.043 1.9258 1.043 3.4258v2.5078zm-2.2734-2.7422c0-.901-.1354-1.5612-.4062-1.9804-.2709-.4193-.6615-.629-1.172-.629-.5155 0-.9062.2084-1.1718.625-.2656.4167-.3984 1.0782-.3984 1.9844v2.961c0 .9166.134 1.5833.4023 2 .2682.4166.6628.625 1.1836.625.5104 0 .8984-.2084 1.164-.625.2657-.4167.3985-1.0834.3985-2v-2.961zM28.7383 197H26.457v-2h2.2813v2zm9.9375-4.4297c0 1.5052-.345 2.6471-1.0352 3.4258-.69.7786-1.6237 1.168-2.8008 1.168-1.1875 0-2.1276-.3894-2.8203-1.168-.6927-.7787-1.039-1.9206-1.039-3.4258v-2.5078c0-1.5.345-2.642 1.0351-3.4258.6901-.7838 1.6263-1.1758 2.8086-1.1758 1.1771 0 2.1133.392 2.8086 1.1758.6953.7839 1.043 1.9258 1.043 3.4258v2.5078zm-2.2735-2.7422c0-.901-.1354-1.5612-.4062-1.9804-.2708-.4193-.6615-.629-1.1719-.629-.5156 0-.9062.2084-1.1719.625-.2656.4167-.3984 1.0782-.3984 1.9844v2.961c0 .9166.1341 1.5833.4023 2 .2683.4166.6628.625 1.1836.625.5105 0 .8985-.2084 1.1641-.625.2656-.4167.3984-1.0834.3984-2v-2.961zm11.7032 2.7422c0 1.5052-.345 2.6471-1.0352 3.4258-.6901.7786-1.6237 1.168-2.8008 1.168-1.1875 0-2.1276-.3894-2.8203-1.168-.6927-.7787-1.039-1.9206-1.039-3.4258v-2.5078c0-1.5.345-2.642 1.0351-3.4258.6901-.7838 1.6263-1.1758 2.8086-1.1758 1.1771 0 2.1133.392 2.8086 1.1758.6953.7839 1.043 1.9258 1.043 3.4258v2.5078zm-2.2735-2.7422c0-.901-.1354-1.5612-.4062-1.9804-.2709-.4193-.6615-.629-1.1719-.629-.5156 0-.9062.2084-1.1719.625-.2656.4167-.3984 1.0782-.3984 1.9844v2.961c0 .9166.1341 1.5833.4023 2 .2683.4166.6628.625 1.1836.625.5105 0 .8985-.2084 1.164-.625.2657-.4167.3985-1.0834.3985-2v-2.961zM55.0273 197h-2.2812v-9.3594h-2.3125v-1.6094l4.5937-.4062V197zm35.6094-2.9922c0-.4219-.121-.7656-.3633-1.0312-.2422-.2657-.6575-.513-1.246-.7422-1.1563-.4219-2.0144-.892-2.5743-1.4102-.5599-.5182-.8398-1.2487-.8398-2.1914 0-.875.28-1.5924.8398-2.1523.56-.56 1.3138-.8894 2.2617-.9883v-1.6797h1.2422v1.6953c.9167.1354 1.6367.5182 2.1602 1.1484.5234.6303.78 1.448.7695 2.4532l-.0234.039h-2.2266c0-.6145-.1263-1.0885-.3789-1.4218-.2526-.3334-.5976-.5-1.0351-.5-.448 0-.7813.1289-1 .3867-.2188.2578-.3282.6002-.3282 1.0273 0 .4063.116.7357.3477.9883.2318.2526.6575.5013 1.2773.7461 1.151.4531 2.004.9375 2.5586 1.4531.5547.5157.832 1.237.832 2.164 0 .9063-.2786 1.6303-.8359 2.172-.5573.5416-1.315.862-2.2734.9609v1.5469h-1.2422v-1.539c-.974-.099-1.7786-.4441-2.414-1.0352-.6355-.5912-.9428-1.4597-.922-2.6055l.0157-.039h2.2265c0 .6978.1602 1.1978.4805 1.5.3203.302.7279.453 1.2227.453.474 0 .8372-.1263 1.0898-.3789.2526-.2526.379-.5924.379-1.0195zm11.7031-1.4375c0 1.5052-.345 2.6471-1.0351 3.4258-.6901.7786-1.6237 1.168-2.8008 1.168-1.1875 0-2.1276-.3894-2.8203-1.168-.6927-.7787-1.039-1.9206-1.039-3.4258v-2.5078c0-1.5.345-2.642 1.035-3.4258.6902-.7838 1.6264-1.1758 2.8087-1.1758 1.177 0 2.1133.392 2.8086 1.1758.6953.7839 1.043 1.9258 1.043 3.4258v2.5078zm-2.2734-2.7422c0-.901-.1354-1.5612-.4062-1.9804-.2709-.4193-.6615-.629-1.172-.629-.5155 0-.9062.2084-1.1718.625-.2656.4167-.3984 1.0782-.3984 1.9844v2.961c0 .9166.134 1.5833.4023 2 .2682.4166.6628.625 1.1836.625.5104 0 .8984-.2084 1.164-.625.2657-.4167.3985-1.0834.3985-2v-2.961zM106.7383 197h-2.2813v-2h2.2813v2zm9.9375-4.4297c0 1.5052-.345 2.6471-1.0352 3.4258-.69.7786-1.6237 1.168-2.8008 1.168-1.1875 0-2.1276-.3894-2.8203-1.168-.6927-.7787-1.039-1.9206-1.039-3.4258v-2.5078c0-1.5.345-2.642 1.0351-3.4258.6901-.7838 1.6263-1.1758 2.8086-1.1758 1.1771 0 2.1133.392 2.8086 1.1758.6953.7839 1.043 1.9258 1.043 3.4258v2.5078zm-2.2735-2.7422c0-.901-.1354-1.5612-.4062-1.9804-.2708-.4193-.6615-.629-1.1719-.629-.5156 0-.9062.2084-1.1719.625-.2656.4167-.3984 1.0782-.3984 1.9844v2.961c0 .9166.1341 1.5833.4023 2 .2683.4166.6628.625 1.1836.625.5105 0 .8985-.2084 1.1641-.625.2656-.4167.3984-1.0834.3984-2v-2.961zm6.3438.5156h1.2812c.5417 0 .9428-.1419 1.2032-.4257.2604-.2839.3906-.6784.3906-1.1836 0-.4584-.1302-.8255-.3906-1.1016-.2604-.276-.638-.414-1.1328-.414-.4271 0-.7865.125-1.0782.375-.2916.25-.4375.578-.4375.9843h-2.211l-.0155-.0469c-.0313-.8906.3099-1.625 1.0234-2.203.7136-.5782 1.599-.8673 2.6563-.8673 1.177 0 2.1158.2813 2.8164.8438.7005.5625 1.0507 1.3646 1.0507 2.4062 0 .4948-.1562.9649-.4687 1.4102-.3125.4453-.7422.793-1.289 1.043.6301.224 1.1106.5677 1.4413 1.0312.3308.4636.4961 1.0026.4961 1.6172 0 1.0417-.3789 1.8607-1.1367 2.457-.7578.5964-1.7278.8946-2.9101.8946-1.0573 0-1.9649-.28-2.7227-.8399s-1.1237-1.3502-1.0977-2.371l.0157-.047h2.211c0 .4376.1562.7982.4687 1.082.3125.284.7083.4259 1.1875.4259.526 0 .9414-.1459 1.246-.4375.3047-.2917.457-.6875.457-1.1875 0-.599-.1497-1.0378-.4491-1.3164-.2995-.2787-.741-.418-1.3243-.418h-1.2812v-1.711zm14.789 2.2266c0 1.5052-.345 2.6471-1.0351 3.4258-.6901.7786-1.6237 1.168-2.8008 1.168-1.1875 0-2.1276-.3894-2.8203-1.168-.6927-.7787-1.039-1.9206-1.039-3.4258v-2.5078c0-1.5.345-2.642 1.0351-3.4258.6901-.7838 1.6263-1.1758 2.8086-1.1758 1.177 0 2.1133.392 2.8086 1.1758.6953.7839 1.043 1.9258 1.043 3.4258v2.5078zm-2.2734-2.7422c0-.901-.1354-1.5612-.4062-1.9804-.2709-.4193-.6615-.629-1.172-.629-.5155 0-.9062.2084-1.1718.625-.2656.4167-.3984 1.0782-.3984 1.9844v2.961c0 .9166.134 1.5833.4023 2 .2683.4166.6628.625 1.1836.625.5104 0 .8985-.2084 1.164-.625.2657-.4167.3985-1.0834.3985-2v-2.961zm74.375 4.1797c0-.4219-.121-.7656-.3633-1.0312-.2422-.2657-.6575-.513-1.246-.7422-1.1563-.4219-2.0144-.892-2.5743-1.4102-.5599-.5182-.8398-1.2487-.8398-2.1914 0-.875.28-1.5924.8398-2.1523.56-.56 1.3138-.8894 2.2617-.9883v-1.6797h1.2422v1.6953c.9167.1354 1.6367.5182 2.1602 1.1484.5234.6303.78 1.448.7695 2.4532l-.0234.039h-2.2266c0-.6145-.1263-1.0885-.3789-1.4218-.2526-.3334-.5976-.5-1.0351-.5-.448 0-.7813.1289-1 .3867-.2188.2578-.3282.6002-.3282 1.0273 0 .4063.116.7357.3477.9883.2318.2526.6575.5013 1.2773.7461 1.151.4531 2.004.9375 2.5586 1.4531.5547.5157.832 1.237.832 2.164 0 .9063-.2786 1.6303-.8359 2.172-.5573.5416-1.315.862-2.2734.9609v1.5469h-1.2422v-1.539c-.974-.099-1.7786-.4441-2.414-1.0352-.6355-.5912-.9428-1.4597-.922-2.6055l.0157-.039h2.2265c0 .6978.1602 1.1978.4805 1.5.3203.302.7279.453 1.2227.453.474 0 .8372-.1263 1.0898-.3789.2526-.2526.379-.5924.379-1.0195zm11.7031-1.4375c0 1.5052-.345 2.6471-1.0351 3.4258-.6901.7786-1.6237 1.168-2.8008 1.168-1.1875 0-2.1276-.3894-2.8203-1.168-.6927-.7787-1.039-1.9206-1.039-3.4258v-2.5078c0-1.5.345-2.642 1.035-3.4258.6902-.7838 1.6264-1.1758 2.8087-1.1758 1.177 0 2.1133.392 2.8086 1.1758.6953.7839 1.043 1.9258 1.043 3.4258v2.5078zm-2.2734-2.7422c0-.901-.1354-1.5612-.4062-1.9804-.2709-.4193-.6615-.629-1.172-.629-.5155 0-.9062.2084-1.1718.625-.2656.4167-.3984 1.0782-.3984 1.9844v2.961c0 .9166.134 1.5833.4023 2 .2682.4166.6628.625 1.1836.625.5104 0 .8984-.2084 1.164-.625.2657-.4167.3985-1.0834.3985-2v-2.961zM223.7383 197h-2.2813v-2h2.2813v2zm7.4297 0h-2.2813v-9.3594h-2.3125v-1.6094l4.5938-.4062V197zm11.9375-4.4297c0 1.5052-.345 2.6471-1.0352 3.4258-.6901.7786-1.6237 1.168-2.8008 1.168-1.1875 0-2.1276-.3894-2.8203-1.168-.6927-.7787-1.039-1.9206-1.039-3.4258v-2.5078c0-1.5.345-2.642 1.0351-3.4258.6901-.7838 1.6263-1.1758 2.8086-1.1758 1.1771 0 2.1133.392 2.8086 1.1758.6953.7839 1.043 1.9258 1.043 3.4258v2.5078zm-2.2735-2.7422c0-.901-.1354-1.5612-.4062-1.9804-.2709-.4193-.6615-.629-1.1719-.629-.5156 0-.9062.2084-1.1719.625-.2656.4167-.3984 1.0782-.3984 1.9844v2.961c0 .9166.1341 1.5833.4023 2 .2683.4166.6628.625 1.1836.625.5105 0 .8985-.2084 1.164-.625.2657-.4167.3985-1.0834.3985-2v-2.961zm11.7032 2.7422c0 1.5052-.345 2.6471-1.0352 3.4258-.6901.7786-1.6237 1.168-2.8008 1.168-1.1875 0-2.1276-.3894-2.8203-1.168-.6927-.7787-1.039-1.9206-1.039-3.4258v-2.5078c0-1.5.345-2.642 1.0351-3.4258.6901-.7838 1.6263-1.1758 2.8086-1.1758 1.177 0 2.1133.392 2.8086 1.1758.6953.7839 1.043 1.9258 1.043 3.4258v2.5078zm-2.2735-2.7422c0-.901-.1354-1.5612-.4062-1.9804-.2709-.4193-.6615-.629-1.172-.629-.5155 0-.9062.2084-1.1718.625-.2656.4167-.3984 1.0782-.3984 1.9844v2.961c0 .9166.134 1.5833.4023 2 .2683.4166.6628.625 1.1836.625.5104 0 .8985-.2084 1.164-.625.2657-.4167.3985-1.0834.3985-2v-2.961z" fill="#FFF"/>
    <g transform="translate(20 40)" fill="#FFB513">
        <rect y="120" width="25" height="4" rx="1"/>
        <path d="M235 120h23c.5523 0 1 .4477 1 1v2c0 .5523-.4477 1-1 1h-23c-.5523 0-1-.4477-1-1v-2c0-.5523.4477-1 1-1zm-26 0h23c.5523 0 1 .4477 1 1v2c0 .5523-.4477 1-1 1h-23c-.5523 0-1-.4477-1-1v-2c0-.5523.4477-1 1-1zm-26 0h23c.5523 0 1 .4477 1 1v2c0 .5523-.4477 1-1 1h-23c-.5523 0-1-.4477-1-1v-2c0-.5523.4477-1 1-1zm-26 0h23c.5523 0 1 .4477 1 1v2c0 .5523-.4477 1-1 1h-23c-.5523 0-1-.4477-1-1v-2c0-.5523.4477-1 1-1zm78-5h23c.5523 0 1 .4477 1 1v2c0 .5523-.4477 1-1 1h-23c-.5523 0-1-.4477-1-1v-2c0-.5523.4477-1 1-1zm-26 0h23c.5523 0 1 .4477 1 1v2c0 .5523-.4477 1-1 1h-23c-.5523 0-1-.4477-1-1v-2c0-.5523.4477-1 1-1zm-26 0h23c.5523 0 1 .4477 1 1v2c0 .5523-.4477 1-1 1h-23c-.5523 0-1-.4477-1-1v-2c0-.5523.4477-1 1-1zm-26 0h23c.5523 0 1 .4477 1 1v2c0 .5523-.4477 1-1 1h-23c-.5523 0-1-.4477-1-1v-2c0-.5523.4477-1 1-1zm78-5h23c.5523 0 1 .4477 1 1v2c0 .5523-.4477 1-1 1h-23c-.5523 0-1-.4477-1-1v-2c0-.5523.4477-1 1-1zm-26 0h23c.5523 0 1 .4477 1 1v2c0 .5523-.4477 1-1 1h-23c-.5523 0-1-.4477-1-1v-2c0-.5523.4477-1 1-1zm-26 0h23c.5523 0 1 .4477 1 1v2c0 .5523-.4477 1-1 1h-23c-.5523 0-1-.4477-1-1v-2c0-.5523.4477-1 1-1zm-26 0h23c.5523 0 1 .4477 1 1v2c0 .5523-.4477 1-1 1h-23c-.5523 0-1-.4477-1-1v-2c0-.5523.4477-1 1-1zm78-5h23c.5523 0 1 .4477 1 1v2c0 .5523-.4477 1-1 1h-23c-.5523 0-1-.4477-1-1v-2c0-.5523.4477-1 1-1zm-26 0h23c.5523 0 1 .4477 1 1v2c0 .5523-.4477 1-1 1h-23c-.5523 0-1-.4477-1-1v-2c0-.5523.4477-1 1-1zm-26 0h23c.5523 0 1 .4477 1 1v2c0 .5523-.4477 1-1 1h-23c-.5523 0-1-.4477-1-1v-2c0-.5523.4477-1 1-1zm-26 0h23c.5523 0 1 .4477 1 1v2c0 .5523-.4477 1-1 1h-23c-.5523 0-1-.4477-1-1v-2c0-.5523.4477-1 1-1zm78-5h23c.5523 0 1 .4477 1 1v2c0 .5523-.4477 1-1 1h-23c-.5523 0-1-.4477-1-1v-2c0-.5523.4477-1 1-1zm-26 0h23c.5523 0 1 .4477 1 1v2c0 .5523-.4477 1-1 1h-23c-.5523 0-1-.4477-1-1v-2c0-.5523.4477-1 1-1zm-26 0h23c.5523 0 1 .4477 1 1v2c0 .5523-.4477 1-1 1h-23c-.5523 0-1-.4477-1-1v-2c0-.5523.4477-1 1-1zm-26 0h23c.5523 0 1 .4477 1 1v2c0 .5523-.4477 1-1 1h-23c-.5523 0-1-.4477-1-1v-2c0-.5523.4477-1 1-1zm78-5h23c.5523 0 1 .4477 1 1v2c0 .5523-.4477 1-1 1h-23c-.5523 0-1-.4477-1-1v-2c0-.5523.4477-1 1-1zm-26 0h23c.5523 0 1 .4477 1 1v2c0 .5523-.4477 1-1 1h-23c-.5523 0-1-.4477-1-1v-2c0-.5523.4477-1 1-1zm-26 0h23c.5523 0 1 .4477 1 1v2c0 .5523-.4477 1-1 1h-23c-.5523 0-1-.4477-1-1v-2c0-.5523.4477-1 1-1zm-26 0h23c.5523 0 1 .4477 1 1v2c0 .5523-.4477 1-1 1h-23c-.5523 0-1-.4477-1-1v-2c0-.5523.4477-1 1-1zm78-5h23c.5523 0 1 .4477 1 1v2c0 .5523-.4477 1-1 1h-23c-.5523 0-1-.4477-1-1v-2c0-.5523.4477-1 1-1zm-26 0h23c.5523 0 1 .4477 1 1v2c0 .5523-.4477 1-1 1h-23c-.5523 0-1-.4477-1-1v-2c0-.5523.4477-1 1-1zm-26 0h23c.5523 0 1 .4477 1 1v2c0 .5523-.4477 1-1 1h-23c-.5523 0-1-.4477-1-1v-2c0-.5523.4477-1 1-1zm-26 0h23c.5523 0 1 .4477 1 1v2c0 .5523-.4477 1-1 1h-23c-.5523 0-1-.4477-1-1v-2c0-.5523.4477-1 1-1zm78-5h23c.5523 0 1 .4477 1 1v2c0 .5523-.4477 1-1 1h-23c-.5523 0-1-.4477-1-1v-2c0-.5523.4477-1 1-1zm-26 0h23c.5523 0 1 .4477 1 1v2c0 .5523-.4477 1-1 1h-23c-.5523 0-1-.4477-1-1v-2c0-.5523.4477-1 1-1zm-26 0h23c.5523 0 1 .4477 1 1v2c0 .5523-.4477 1-1 1h-23c-.5523 0-1-.4477-1-1v-2c0-.5523.4477-1 1-1zm-26 0h23c.5523 0 1 .4477 1 1v2c0 .5523-.4477 1-1 1h-23c-.5523 0-1-.4477-1-1v-2c0-.5523.4477-1 1-1zm78-5h23c.5523 0 1 .4477 1 1v2c0 .5523-.4477 1-1 1h-23c-.5523 0-1-.4477-1-1v-2c0-.5523.4477-1 1-1zm-26 0h23c.5523 0 1 .4477 1 1v2c0 .5523-.4477 1-1 1h-23c-.5523 0-1-.4477-1-1v-2c0-.5523.4477-1 1-1zm-26 0h23c.5523 0 1 .4477 1 1v2c0 .5523-.4477 1-1 1h-23c-.5523 0-1-.4477-1-1v-2c0-.5523.4477-1 1-1zm-26 0h23c.5523 0 1 .4477 1 1v2c0 .5523-.4477 1-1 1h-23c-.5523 0-1-.4477-1-1v-2c0-.5523.4477-1 1-1zm78-5h23c.5523 0 1 .4477 1 1v2c0 .5523-.4477 1-1 1h-23c-.5523 0-1-.4477-1-1v-2c0-.5523.4477-1 1-1zm-26 0h23c.5523 0 1 .4477 1 1v2c0 .5523-.4477 1-1 1h-23c-.5523 0-1-.4477-1-1v-2c0-.5523.4477-1 1-1zm-26 0h23c.5523 0 1 .4477 1 1v2c0 .5523-.4477 1-1 1h-23c-.5523 0-1-.4477-1-1v-2c0-.5523.4477-1 1-1zm-26 0h23c.5523 0 1 .4477 1 1v2c0 .5523-.4477 1-1 1h-23c-.5523 0-1-.4477-1-1v-2c0-.5523.4477-1 1-1zm78-5h23c.5523 0 1 .4477 1 1v2c0 .5523-.4477 1-1 1h-23c-.5523 0-1-.4477-1-1v-2c0-.5523.4477-1 1-1zm-26 0h23c.5523 0 1 .4477 1 1v2c0 .5523-.4477 1-1 1h-23c-.5523 0-1-.4477-1-1v-2c0-.5523.4477-1 1-1zm-26 0h23c.5523 0 1 .4477 1 1v2c0 .5523-.4477 1-1 1h-23c-.5523 0-1-.4477-1-1v-2c0-.5523.4477-1 1-1zm-26 0h23c.5523 0 1 .4477 1 1v2c0 .5523-.4477 1-1 1h-23c-.5523 0-1-.4477-1-1v-2c0-.5523.4477-1 1-1zm78-5h23c.5523 0 1 .4477 1 1v2c0 .5523-.4477 1-1 1h-23c-.5523 0-1-.4477-1-1v-2c0-.5523.4477-1 1-1zm-26 0h23c.5523 0 1 .4477 1 1v2c0 .5523-.4477 1-1 1h-23c-.5523 0-1-.4477-1-1v-2c0-.5523.4477-1 1-1zm-26 0h23c.5523 0 1 .4477 1 1v2c0 .5523-.4477 1-1 1h-23c-.5523 0-1-.4477-1-1v-2c0-.5523.4477-1 1-1zm-26 0h23c.5523 0 1 .4477 1 1v2c0 .5523-.4477 1-1 1h-23c-.5523 0-1-.4477-1-1v-2c0-.5523.4477-1 1-1zm78-5h23c.5523 0 1 .4477 1 1v2c0 .5523-.4477 1-1 1h-23c-.5523 0-1-.4477-1-1v-2c0-.5523.4477-1 1-1zm-26 0h23c.5523 0 1 .4477 1 1v2c0 .5523-.4477 1-1 1h-23c-.5523 0-1-.4477-1-1v-2c0-.5523.4477-1 1-1zm-26 0h23c.5523 0 1 .4477 1 1v2c0 .5523-.4477 1-1 1h-23c-.5523 0-1-.4477-1-1v-2c0-.5523.4477-1 1-1zm-26 0h23c.5523 0 1 .4477 1 1v2c0 .5523-.4477 1-1 1h-23c-.5523 0-1-.4477-1-1v-2c0-.5523.4477-1 1-1zm78-5h23c.5523 0 1 .4477 1 1v2c0 .5523-.4477 1-1 1h-23c-.5523 0-1-.4477-1-1v-2c0-.5523.4477-1 1-1zm-26 0h23c.5523 0 1 .4477 1 1v2c0 .5523-.4477 1-1 1h-23c-.5523 0-1-.4477-1-1v-2c0-.5523.4477-1 1-1zm-26 0h23c.5523 0 1 .4477 1 1v2c0 .5523-.4477 1-1 1h-23c-.5523 0-1-.4477-1-1v-2c0-.5523.4477-1 1-1zm-26 0h23c.5523 0 1 .4477 1 1v2c0 .5523-.4477 1-1 1h-23c-.5523 0-1-.4477-1-1v-2c0-.5523.4477-1 1-1zm78-5h23c.5523 0 1 .4477 1 1v2c0 .5523-.4477 1-1 1h-23c-.5523 0-1-.4477-1-1v-2c0-.5523.4477-1 1-1zm-26 0h23c.5523 0 1 .4477 1 1v2c0 .5523-.4477 1-1 1h-23c-.5523 0-1-.4477-1-1v-2c0-.5523.4477-1 1-1zm-26 0h23c.5523 0 1 .4477 1 1v2c0 .5523-.4477 1-1 1h-23c-.5523 0-1-.4477-1-1v-2c0-.5523.4477-1 1-1zm-26 0h23c.5523 0 1 .4477 1 1v2c0 .5523-.4477 1-1 1h-23c-.5523 0-1-.4477-1-1v-2c0-.5523.4477-1 1-1zm78-5h23c.5523 0 1 .4477 1 1v2c0 .5523-.4477 1-1 1h-23c-.5523 0-1-.4477-1-1v-2c0-.5523.4477-1 1-1zm-26 0h23c.5523 0 1 .4477 1 1v2c0 .5523-.4477 1-1 1h-23c-.5523 0-1-.4477-1-1v-2c0-.5523.4477-1 1-1zm-26 0h23c.5523 0 1 .4477 1 1v2c0 .5523-.4477 1-1 1h-23c-.5523 0-1-.4477-1-1v-2c0-.5523.4477-1 1-1zm-26 0h23c.5523 0 1 .4477 1 1v2c0 .5523-.4477 1-1 1h-23c-.5523 0-1-.4477-1-1v-2c0-.5523.4477-1 1-1zm78-5h23c.5523 0 1 .4477 1 1v2c0 .5523-.4477 1-1 1h-23c-.5523 0-1-.4477-1-1v-2c0-.5523.4477-1 1-1zm-26 0h23c.5523 0 1 .4477 1 1v2c0 .5523-.4477 1-1 1h-23c-.5523 0-1-.4477-1-1v-2c0-.5523.4477-1 1-1zm-26 0h23c.5523 0 1 .4477 1 1v2c0 .5523-.4477 1-1 1h-23c-.5523 0-1-.4477-1-1v-2c0-.5523.4477-1 1-1zm-26 0h23c.5523 0 1 .4477 1 1v2c0 .5523-.4477 1-1 1h-23c-.5523 0-1-.4477-1-1v-2c0-.5523.4477-1 1-1zm78-5h23c.5523 0 1 .4477 1 1v2c0 .5523-.4477 1-1 1h-23c-.5523 0-1-.4477-1-1v-2c0-.5523.4477-1 1-1zm-26 0h23c.5523 0 1 .4477 1 1v2c0 .5523-.4477 1-1 1h-23c-.5523 0-1-.4477-1-1v-2c0-.5523.4477-1 1-1zm-26 0h23c.5523 0 1 .4477 1 1v2c0 .5523-.4477 1-1 1h-23c-.5523 0-1-.4477-1-1v-2c0-.5523.4477-1 1-1zm-26 0h23c.5523 0 1 .4477 1 1v2c0 .5523-.4477 1-1 1h-23c-.5523 0-1-.4477-1-1v-2c0-.5523.4477-1 1-1zm78-5h23c.5523 0 1 .4477 1 1v2c0 .5523-.4477 1-1 1h-23c-.5523 0-1-.4477-1-1v-2c0-.5523.4477-1 1-1zm-26 0h23c.5523 0 1 .4477 1 1v2c0 .5523-.4477 1-1 1h-23c-.5523 0-1-.4477-1-1v-2c0-.5523.4477-1 1-1zm-26 0h23c.5523 0 1 .4477 1 1v2c0 .5523-.4477 1-1 1h-23c-.5523 0-1-.4477-1-1v-2c0-.5523.4477-1 1-1zm-26 0h23c.5523 0 1 .4477 1 1v2c0 .5523-.4477 1-1 1h-23c-.5523 0-1-.4477-1-1v-2c0-.5523.4477-1 1-1zm78-5h23c.5523 0 1 .4477 1 1v2c0 .5523-.4477 1-1 1h-23c-.5523 0-1-.4477-1-1v-2c0-.5523.4477-1 1-1zm-26 0h23c.5523 0 1 .4477 1 1v2c0 .5523-.4477 1-1 1h-23c-.5523 0-1-.4477-1-1v-2c0-.5523.4477-1 1-1zm-26 0h23c.5523 0 1 .4477 1 1v2c0 .5523-.4477 1-1 1h-23c-.5523 0-1-.4477-1-1v-2c0-.5523.4477-1 1-1zm-26 0h23c.5523 0 1 .4477 1 1v2c0 .5523-.4477 1-1 1h-23c-.5523 0-1-.4477-1-1v-2c0-.5523.4477-1 1-1zm78-5h23c.5523 0 1 .4477 1 1v2c0 .5523-.4477 1-1 1h-23c-.5523 0-1-.4477-1-1v-2c0-.5523.4477-1 1-1zm-26 0h23c.5523 0 1 .4477 1 1v2c0 .5523-.4477 1-1 1h-23c-.5523 0-1-.4477-1-1v-2c0-.5523.4477-1 1-1zm-26 0h23c.5523 0 1 .4477 1 1v2c0 .5523-.4477 1-1 1h-23c-.5523 0-1-.4477-1-1v-2c0-.5523.4477-1 1-1zm-26 0h23c.5523 0 1 .4477 1 1v2c0 .5523-.4477 1-1 1h-23c-.5523 0-1-.4477-1-1v-2c0-.5523.4477-1 1-1zm78-5h23c.5523 0 1 .4477 1 1v2c0 .5523-.4477 1-1 1h-23c-.5523 0-1-.4477-1-1v-2c0-.5523.4477-1 1-1zm-26 0h23c.5523 0 1 .4477 1 1v2c0 .5523-.4477 1-1 1h-23c-.5523 0-1-.4477-1-1v-2c0-.5523.4477-1 1-1zm-26 0h23c.5523 0 1 .4477 1 1v2c0 .5523-.4477 1-1 1h-23c-.5523 0-1-.4477-1-1v-2c0-.5523.4477-1 1-1zm-26 0h23c.5523 0 1 .4477 1 1v2c0 .5523-.4477 1-1 1h-23c-.5523 0-1-.4477-1-1v-2c0-.5523.4477-1 1-1zm78-5h23c.5523 0 1 .4477 1 1v2c0 .5523-.4477 1-1 1h-23c-.5523 0-1-.4477-1-1v-2c0-.5523.4477-1 1-1zm-26 0h23c.5523 0 1 .4477 1 1v2c0 .5523-.4477 1-1 1h-23c-.5523 0-1-.4477-1-1v-2c0-.5523.4477-1 1-1zm-26 0h23c.5523 0 1 .4477 1 1v2c0 .5523-.4477 1-1 1h-23c-.5523 0-1-.4477-1-1v-2c0-.5523.4477-1 1-1zm-26 0h23c.5523 0 1 .4477 1 1v2c0 .5523-.4477 1-1 1h-23c-.5523 0-1-.4477-1-1v-2c0-.5523.4477-1 1-1zm78-5h23c.5523 0 1 .4477 1 1v2c0 .5523-.4477 1-1 1h-23c-.5523 0-1-.4477-1-1V6c0-.5523.4477-1 1-1zm-26 0h23c.5523 0 1 .4477 1 1v2c0 .5523-.4477 1-1 1h-23c-.5523 0-1-.4477-1-1V6c0-.5523.4477-1 1-1zm-26 0h23c.5523 0 1 .4477 1 1v2c0 .5523-.4477 1-1 1h-23c-.5523 0-1-.4477-1-1V6c0-.5523.4477-1 1-1zm-26 0h23c.5523 0 1 .4477 1 1v2c0 .5523-.4477 1-1 1h-23c-.5523 0-1-.4477-1-1V6c0-.5523.4477-1 1-1zm78-5h23c.5523 0 1 .4477 1 1v2c0 .5523-.4477 1-1 1h-23c-.5523 0-1-.4477-1-1V1c0-.5523.4477-1 1-1zm-26 0h23c.5523 0 1 .4477 1 1v2c0 .5523-.4477 1-1 1h-23c-.5523 0-1-.4477-1-1V1c0-.5523.4477-1 1-1zm-26 0h23c.5523 0 1 .4477 1 1v2c0 .5523-.4477 1-1 1h-23c-.5523 0-1-.4477-1-1V1c0-.5523.4477-1 1-1zm-26 0h23c.5523 0 1 .4477 1 1v2c0 .5523-.4477 1-1 1h-23c-.5523 0-1-.4477-1-1V1c0-.5523.4477-1 1-1zM92 120h23c.5523 0 1 .4477 1 1v2c0 .5523-.4477 1-1 1H92c-.5523 0-1-.4477-1-1v-2c0-.5523.4477-1 1-1zm-26 0h23c.5523 0 1 .4477 1 1v2c0 .5523-.4477 1-1 1H66c-.5523 0-1-.4477-1-1v-2c0-.5523.4477-1 1-1zm26-5h23c.5523 0 1 .4477 1 1v2c0 .5523-.4477 1-1 1H92c-.5523 0-1-.4477-1-1v-2c0-.5523.4477-1 1-1zm-26 0h23c.5523 0 1 .4477 1 1v2c0 .5523-.4477 1-1 1H66c-.5523 0-1-.4477-1-1v-2c0-.5523.4477-1 1-1zm26-5h23c.5523 0 1 .4477 1 1v2c0 .5523-.4477 1-1 1H92c-.5523 0-1-.4477-1-1v-2c0-.5523.4477-1 1-1zm-26 0h23c.5523 0 1 .4477 1 1v2c0 .5523-.4477 1-1 1H66c-.5523 0-1-.4477-1-1v-2c0-.5523.4477-1 1-1zm26-5h23c.5523 0 1 .4477 1 1v2c0 .5523-.4477 1-1 1H92c-.5523 0-1-.4477-1-1v-2c0-.5523.4477-1 1-1zm-26 0h23c.5523 0 1 .4477 1 1v2c0 .5523-.4477 1-1 1H66c-.5523 0-1-.4477-1-1v-2c0-.5523.4477-1 1-1zm26-5h23c.5523 0 1 .4477 1 1v2c0 .5523-.4477 1-1 1H92c-.5523 0-1-.4477-1-1v-2c0-.5523.4477-1 1-1zm-26 0h23c.5523 0 1 .4477 1 1v2c0 .5523-.4477 1-1 1H66c-.5523 0-1-.4477-1-1v-2c0-.5523.4477-1 1-1zm26-5h23c.5523 0 1 .4477 1 1v2c0 .5523-.4477 1-1 1H92c-.5523 0-1-.4477-1-1v-2c0-.5523.4477-1 1-1zm-26 0h23c.5523 0 1 .4477 1 1v2c0 .5523-.4477 1-1 1H66c-.5523 0-1-.4477-1-1v-2c0-.5523.4477-1 1-1zm26-5h23c.5523 0 1 .4477 1 1v2c0 .5523-.4477 1-1 1H92c-.5523 0-1-.4477-1-1v-2c0-.5523.4477-1 1-1zm-26 0h23c.5523 0 1 .4477 1 1v2c0 .5523-.4477 1-1 1H66c-.5523 0-1-.4477-1-1v-2c0-.5523.4477-1 1-1zm26-5h23c.5523 0 1 .4477 1 1v2c0 .5523-.4477 1-1 1H92c-.5523 0-1-.4477-1-1v-2c0-.5523.4477-1 1-1zm-26 0h23c.5523 0 1 .4477 1 1v2c0 .5523-.4477 1-1 1H66c-.5523 0-1-.4477-1-1v-2c0-.5523.4477-1 1-1zm26-5h23c.5523 0 1 .4477 1 1v2c0 .5523-.4477 1-1 1H92c-.5523 0-1-.4477-1-1v-2c0-.5523.4477-1 1-1zm-26 0h23c.5523 0 1 .4477 1 1v2c0 .5523-.4477 1-1 1H66c-.5523 0-1-.4477-1-1v-2c0-.5523.4477-1 1-1zm26-5h23c.5523 0 1 .4477 1 1v2c0 .5523-.4477 1-1 1H92c-.5523 0-1-.4477-1-1v-2c0-.5523.4477-1 1-1zm-26 0h23c.5523 0 1 .4477 1 1v2c0 .5523-.4477 1-1 1H66c-.5523 0-1-.4477-1-1v-2c0-.5523.4477-1 1-1zm26-5h23c.5523 0 1 .4477 1 1v2c0 .5523-.4477 1-1 1H92c-.5523 0-1-.4477-1-1v-2c0-.5523.4477-1 1-1zm-26 0h23c.5523 0 1 .4477 1 1v2c0 .5523-.4477 1-1 1H66c-.5523 0-1-.4477-1-1v-2c0-.5523.4477-1 1-1zm26-5h23c.5523 0 1 .4477 1 1v2c0 .5523-.4477 1-1 1H92c-.5523 0-1-.4477-1-1v-2c0-.5523.4477-1 1-1zm-26 0h23c.5523 0 1 .4477 1 1v2c0 .5523-.4477 1-1 1H66c-.5523 0-1-.4477-1-1v-2c0-.5523.4477-1 1-1zm26-5h23c.5523 0 1 .4477 1 1v2c0 .5523-.4477 1-1 1H92c-.5523 0-1-.4477-1-1v-2c0-.5523.4477-1 1-1zm-26 0h23c.5523 0 1 .4477 1 1v2c0 .5523-.4477 1-1 1H66c-.5523 0-1-.4477-1-1v-2c0-.5523.4477-1 1-1zm26-5h23c.5523 0 1 .4477 1 1v2c0 .5523-.4477 1-1 1H92c-.5523 0-1-.4477-1-1v-2c0-.5523.4477-1 1-1zm-26 0h23c.5523 0 1 .4477 1 1v2c0 .5523-.4477 1-1 1H66c-.5523 0-1-.4477-1-1v-2c0-.5523.4477-1 1-1zm26-5h23c.5523 0 1 .4477 1 1v2c0 .5523-.4477 1-1 1H92c-.5523 0-1-.4477-1-1v-2c0-.5523.4477-1 1-1zm-26 0h23c.5523 0 1 .4477 1 1v2c0 .5523-.4477 1-1 1H66c-.5523 0-1-.4477-1-1v-2c0-.5523.4477-1 1-1z"/>
    </g>
    <path d="M228.0001 0C219.1635 0 212 7.1633 212 16c0 8.8365 7.1635 16 16.0001 16S244 24.8365 244 16c0-8.8367-7.1633-16-15.9999-16z" fill="#F7931A"/>
    <path d="M231.3573 24.0945c-1.429.2493-2.6445-.1544-3.1853-.3256-.267-.0842-.7142-.2503-1.189-.4387l-1.3546 2.905-1.7884-.8339 1.3327-2.858-1.362-.635-1.3327 2.858-1.7882-.834 1.3327-2.858-3.518-1.6404 1.3692-1.9765 1.0695.4987c.3595.1676.5252.2043.7418.1325.2167-.0721.3513-.2736.4333-.4494l3.4504-7.3994c.2162-.4635.237-.6066.1349-.944-.1019-.3379-.5885-.6029-.8707-.7345l-1.0338-.482.8659-1.8568 3.5179 1.6405 1.3365-2.8662 1.7882.8338-1.3366 2.8662 1.362.635 1.3365-2.8661 1.7884.834-1.3526 2.9005c1.2947.7043 2.1687 1.4211 2.7364 2.4651.7342 1.3495.0053 2.7593-.1795 3.0903-.1847.331-.643.9212-1.1427 1.2066-.4993.2862-1.4334.3695-1.4334.3695s.7832.5889 1.1792 1.3332c.3952.7439.469 1.765-.11 2.9396-.5779 1.1752-1.3696 2.2406-2.798 2.49zm-.9931-5.8344c-.256-.3231-.8948-.8954-1.753-1.367-.8586-.4716-2.0222-.943-2.0222-.943l-1.7885 3.8355s1.1748.5786 1.9962.8904c.8207.3114 1.7333.493 2.248.458.5145-.0348 1.1713-.1558 1.5804-1.033.4092-.8776-.0045-1.5179-.261-1.8409zm-1.4579-3.3964c.6638.279 1.4274.452 2.057.4098.63-.0418 1.1165-.3437 1.4042-1.0033.2868-.6598.1098-1.4136-.5201-1.9824-.6303-.5686-1.1152-.815-1.6715-1.0846-.556-.2692-1.1477-.4841-1.1477-.4841l-1.6093 3.451c.0001.0001.824.415 1.4874.6936z" fill="#FFF"/>
    <path d="M111 50c-8.8366 0-16 7.1634-16 16s7.1634 16 16 16 16-7.1634 16-16-7.1634-16-16-16z" fill="#62688F"/>
    <path d="M111.765 70.597v-6.5065l6.36 2.7858-6.36 3.7208zm0 6.5423v-5.2336l6.3126-3.696-6.3126 8.9296zm0-22.1393l6.237 10.3753-6.237-2.7322V55zm-1.4097 7.643l-6.1506 2.694 6.1506-10.3339v7.64zm0 7.954L104 66.8741l6.3553-2.7838v6.5065zm0 6.5423l-6.3126-8.9295 6.3126 3.6959v5.2336z" fill="#FFF"/>
    <g transform="translate(17 120)">
        <circle fill="#D15C22" cx="16" cy="16" r="16"/>
        <path d="M16.0604 14.1081l1.8863-1.8283c.4885-.4735 1.2805-.4735 1.769 0 .4885.4734.4885 1.2411 0 1.7146l-2.6742 2.5922a1.2399 1.2399 0 0 1-.0914.0986c-.4885.4735-1.2804.4735-1.769 0l-6.4947-6.2954c-.4885-.4735-.4885-1.2412 0-1.7147.4885-.4735 1.2804-.4735 1.769 0l5.605 5.433zm-6.4896-.8844c.6909 0 1.2509.618 1.2509 1.3803v7.9138c0 .7623-.56 1.3803-1.2508 1.3803-.6909 0-1.2509-.618-1.2509-1.3803V14.604c0-.7623.56-1.3803 1.2508-1.3803zM22.7465 8.32c.6908 0 1.2508.5922 1.2508 1.3227v12.9327c0 .7305-.56 1.3227-1.2508 1.3227-.6909 0-1.2509-.5922-1.2509-1.3227V9.6427c0-.7305.56-1.3227 1.2509-1.3227z" fill="#FFF"/>
    </g>
</svg>
