<?xml version="1.0" encoding="UTF-8"?>
<svg width="550px" height="332px" viewBox="0 0 550 332" version="1.1" xmlns="http://www.w3.org/2000/svg" xmlns:xlink="http://www.w3.org/1999/xlink">
    <!-- Generator: Sketch 49.3 (51167) - http://www.bohemiancoding.com/sketch -->
    <title>sup_bat</title>
    <desc>Created with Sketch.</desc>
    <defs>
        <polygon id="path-1" points="0.13467674 7.0384919e-05 264.303892 7.0384919e-05 264.303892 303.359071 0.13467674 303.359071"></polygon>
        <polygon id="path-3" points="0.171159186 0.0515179205 259.926142 0.0515179205 259.926142 298.783981 0.171159186 298.783981"></polygon>
        <polygon id="path-5" points="0.0397925294 0.0313075063 35.6405416 0.0313075063 35.6405416 139.010215 0.0397925294 139.010215"></polygon>
    </defs>
    <g id="Landing-3.0" stroke="none" stroke-width="1" fill="none" fill-rule="evenodd">
        <g id="Landing/minter-landing-3-en" transform="translate(-236.000000, -3161.000000)">
            <g id="4" transform="translate(0.000000, 2534.000000)">
                <g id="sup_bat" transform="translate(237.000000, 628.000000)">
                    <g id="Group-280">
                        <path d="M186.133519,55.9555883 C186.133519,73.7105361 200.51099,88.1035482 218.247119,88.1035482 C235.982545,88.1035482 250.360368,73.7105361 250.360368,55.9555883 C250.360368,38.2006406 235.982545,23.8076285 218.247119,23.8076285 C200.51099,23.8076285 186.133519,38.2006406 186.133519,55.9555883" id="Fill-1" fill="#FFFFFF"></path>
                        <path d="M190.649531,55.9555883 C190.649531,71.2136311 203.00527,83.5827248 218.246838,83.5827248 C233.488406,83.5827248 245.844144,71.2136311 245.844144,55.9555883 C245.844144,40.6975456 233.488406,28.3284518 218.246838,28.3284518 C203.00527,28.3284518 190.649531,40.6975456 190.649531,55.9555883" id="Fill-3" fill="#FF8D1D"></path>
                        <path d="M150.277867,67.2131986 C150.277867,67.2131986 148.1686,34.485619 123.913076,29.7349889 C123.913076,29.7349889 119.694893,16.5385204 111.258174,8.62056892 L109.676574,21.2891505 C109.676574,21.2891505 100.712538,5.45359949 91.7485024,0.174730561 C91.7485024,0.174730561 109.149257,42.9314573 92.2758193,95.7176831 C92.2758193,95.7176831 34.2741228,105.219295 26.8920376,114.192669 C26.8920376,114.192669 7.38201492,162.755799 14.7641002,219.236881 L1.58188043,370.205142 L226.207636,370.205142 C226.207636,370.205142 205.643331,346.979175 200.370513,287.331123 C195.097696,227.683072 192.988428,206.5683 192.988428,206.5683 L200.370513,210.263156 L210.388832,202.345205 L221.989452,189.148736 C221.989452,189.148736 234.644355,170.145864 232.535087,150.615105 C230.42582,131.084345 226.207636,112.60936 226.207636,112.60936 L243.081074,89.3833923 L240.971806,75.659037 L228.316903,66.1574248 L226.207636,71.9641806 L235.698989,79.8817802 L237.280588,87.2718448 L218.298234,67.7410855 L217.770917,77.2426976 L229.371537,90.967053 L217.770917,79.3538933 L216.189318,86.216071 L223.044086,96.24557 L217.2436,106.802604 L218.825551,113.664782 C218.825551,113.664782 210.388832,135.307089 203.006746,146.920248 C195.625013,158.533056 191.933794,168.034668 191.933794,168.034668 C191.933794,168.034668 192.461111,146.392361 191.406477,136.362862 C190.351843,126.333715 192.461111,123.694281 188.770244,122.11062 C185.079026,120.526959 136.568331,102.579861 136.568331,102.579861 L136.568331,90.4391661 L122.331477,85.688536 L123.913076,71.9641806 L121.276843,59.823134 L150.277867,67.2131986 Z" id="Fill-5" fill="#35245E"></path>
                        <path d="M188.242787,161.700166 C188.242787,160.116506 190.879371,130.556247 185.606202,125.805617 C180.333385,121.054987 129.713422,115.248583 129.713422,115.248583 C129.713422,115.248583 138.677458,121.582874 158.187129,136.89089 C177.6968,152.198554 191.406688,172.257552 190.352054,170.673891 C189.297421,169.090231 188.242787,161.700166 188.242787,161.700166" id="Fill-7" fill="#000000"></path>
                        <path d="M61.6930907,175.952408 L92.8030308,202.345345 L91.2214316,237.712008 L90.1667978,265.688605 L82.2573956,322.697574 L72.2387258,371.261057 L96.4942492,371.788944 C96.4942492,371.788944 109.149152,343.812346 112.84037,337.478055 C116.531237,331.143413 118.640505,326.392431 118.640505,326.392431 L118.640505,369.677396 C118.640505,369.677396 143.950311,372.316831 143.950311,370.73317 C143.950311,369.149509 159.769115,342.756572 165.041932,314.251736 C170.31475,285.747251 165.569249,263.577058 166.096566,261.993749 C166.623883,260.410088 163.459982,233.489264 165.569249,217.125475 C167.678517,200.762037 170.842067,193.899859 170.842067,193.899859 L200.370408,210.263297 L218.825797,194.955281 C218.825797,194.955281 216.189212,190.732538 209.334444,178.063956 C202.479675,165.395023 200.897725,151.670667 200.897725,151.670667 L190.351738,170.673891 L179.806103,156.421649 L131.822725,117.887666 L74.3479935,151.14278 L24.7826645,187.037681 L25.8372983,202.345345 L14.7639947,219.237022 C14.7639947,219.237022 21.618763,219.764909 32.6920666,226.0992 C43.7650187,232.433491 51.1471039,240.879329 51.1471039,240.879329 L51.1471039,204.98478 C51.1471039,204.98478 54.8383223,202.345345 55.8926046,198.122602 C56.9472384,193.899859 61.6930907,175.952408 61.6930907,175.952408" id="Fill-9" fill="#7499C0"></path>
                        <path d="M136.568296,90.4390253 L136.568296,102.580072 C136.568296,102.580072 136.568296,109.969785 128.131577,111.025558 C119.694857,112.081332 92.2757842,95.7178943 92.2757842,95.7178943 C92.2757842,95.7178943 101.23982,68.2688316 99.6578694,43.9874423 C98.0759187,19.705701 91.2211504,1.75860239 92.8031011,3.34191115 C94.3850518,4.92557183 101.767137,16.5387315 107.039955,25.5121049 C112.312772,34.4858301 114.42204,36.0694908 114.42204,36.0694908 C114.42204,36.0694908 124.440358,29.2073131 135.513662,37.6531515 C146.586965,46.0986379 148.168565,64.5739753 148.168565,64.5739753 L121.276808,59.8229933 L121.276808,73.5473486 L121.276808,83.5768477 L136.568296,90.4390253 Z" id="Fill-11" fill="#000000"></path>
                        <path d="M125.495168,115.248513 C123.913217,115.248513 35.8558626,111.553305 29.0010943,117.887947 C22.146326,124.222238 18.9824245,161.700096 16.8735084,177.008112 C14.7642408,192.316128 16.8735084,215.541743 16.8735084,215.541743 L25.8371929,202.345275 L24.782559,187.037611 L129.713703,115.248513 L125.495168,115.248513 Z" id="Fill-13" fill="#000000"></path>
                        <path d="M32.6920315,226.09927 C28.4734962,242.462708 42.7107013,293.665273 42.7107013,293.665273 L50.0927865,322.697645 L53.2563364,324.281305 L57.4748717,311.612372 L58.529154,331.143483 L50.0927865,333.254679 L47.9835189,325.336727 L31.1100807,317.419128 L33.7466653,289.970417 L23.7279955,263.577128 C23.7279955,263.577128 15.8185934,255.659528 10.5457758,246.157916 C5.2729582,236.656304 3.16369055,230.322013 3.16369055,230.322013 L15.8185934,239.295739 C15.8185934,239.295739 9.49114196,229.794127 4.74564129,219.237093 C0.000140617843,208.679707 0.000140617843,206.040624 0.000140617843,206.040624 L14.7639595,219.237093 L32.6920315,226.09927 Z" id="Fill-15" fill="#000000"></path>
                        <path d="M12.6550083,249.324921 C12.6550083,249.324921 2.10902157,346.979069 1.58170466,370.205037 L28.4738126,371.26081 C28.4738126,371.26081 22.1463612,339.589005 22.1463612,307.917551 C22.1463612,276.246097 23.200995,258.298646 23.200995,258.298646 L12.6550083,249.324921 Z" id="Fill-17" fill="#000000"></path>
                        <path d="M105.985461,240.351512 L105.985461,266.744449 C105.985461,266.744449 108.094729,265.688676 117.058414,275.190288 C126.022449,284.691548 129.713668,291.553726 129.713668,291.553726 L138.150035,290.497952 C138.150035,290.497952 152.914206,279.940918 158.71434,273.606627 C164.514826,267.272336 165.569109,265.160789 165.569109,265.160789 L165.569109,241.935173 L154.496157,239.823626 L154.496157,237.712078 L150.80529,238.767852 L149.750656,240.879399 L126.549766,240.351512 L126.022449,237.184191 L118.640364,238.239965 L116.004131,240.351512 L105.985461,240.351512 Z" id="Fill-19" fill="#000000"></path>
                        <path d="M243.081004,89.3832516 C243.081004,89.3832516 224.098298,103.635494 223.044016,96.2454292 L217.24353,106.802815 L218.82548,113.664993 L221.462065,118.94351 C221.462065,118.94351 211.443395,149.031655 202.479711,163.283897 C202.479711,163.283897 202.479711,172.257271 209.334479,180.703109 C216.189247,189.148947 218.298163,191.788382 218.298163,191.788382 C218.298163,191.788382 226.734882,211.847028 226.734882,210.263367 C226.734882,208.679707 229.898784,171.201849 229.898784,171.201849 L239.917102,190.732608 L232.535017,147.975881 L227.262199,111.025558 L243.081004,89.3832516 Z" id="Fill-21" fill="#000000"></path>
                        <path d="M189.297245,203.929041 C189.297245,203.929041 189.824562,270.439271 184.551744,308.973254 C179.278575,347.506886 171.89649,371.261092 171.89649,371.261092 L226.207671,370.205318 C226.207671,370.205318 208.279951,359.647932 200.897865,291.55369 C193.51578,223.459801 192.988463,206.568476 192.988463,206.568476 L189.297245,203.929041 Z" id="Fill-23" fill="#000000"></path>
                        <polygon id="Fill-25" fill="#000000" points="99.1306931 240.351512 99.1306931 265.688676 90.1666571 265.688676 91.7486079 239.295739"></polygon>
                        <path d="M143.423064,64.5739401 L141.841113,73.0197785 L145.005015,74.6034391 L145.005015,92.0226508 L121.276808,83.5768125 C121.276808,83.5768125 124.440358,79.8819561 123.913041,71.9640047 C123.386076,64.0460532 121.276808,59.8229581 121.276808,59.8229581 L143.423064,64.5739401 Z" id="Fill-27" fill="#FFFFFF"></path>
                        <path d="M140.740146,48.0377776 C136.750466,44.9654759 135.115432,55.4281941 139.333967,58.5955155 C143.552503,61.7628368 145.310226,51.5570236 140.740146,48.0377776" id="Fill-29" fill="#FFFFFF"></path>
                        <path d="M140.740146,48.0377776 C136.750466,44.9654759 135.115432,55.4281941 139.333967,58.5955155 C143.552503,61.7628368 145.310226,51.5570236 140.740146,48.0377776 Z" id="Stroke-31" stroke="#151637" stroke-width="1.98512523" stroke-linecap="round" stroke-linejoin="round"></path>
                        <path d="M141.313796,64.5739401 L140.259162,70.380344 L142.36843,75.658861 L142.895747,89.3832164 C142.895747,89.3832164 135.513662,87.7999076 129.713527,85.68836 L123.913041,83.5768125 C123.913041,83.5768125 126.549626,77.7704086 124.967675,70.380344 C123.386076,62.9902794 121.276808,59.8229581 121.276808,59.8229581 L141.313796,64.5739401 Z" id="Fill-33" fill="#FFBDB1"></path>
                        <path d="M143.950381,73.5475246 L126.549626,64.0459124 C126.549626,64.0459124 127.056553,75.445102 132.34976,78.2985066 C139.204529,81.9933629 145.005015,74.6032984 145.005015,74.6032984" id="Fill-35" fill="#A63320"></path>
                        <path d="M134.986345,78.8262176 C139.20488,77.7704438 133.931711,69.3246054 129.18621,68.7967185 C124.440358,68.2688316 127.076943,70.9082661 127.076943,70.9082661 L134.986345,78.8262176 Z" id="Fill-37" fill="#EB4C31"></path>
                        <polygon id="Fill-39" fill="#DBA49C" points="139.732021 72.4917508 139.204704 75.6590722 130.240668 66.15746"></polygon>
                        <path d="M164.514721,221.348605 C162.93277,221.87614 154.496051,221.348605 154.496051,221.348605 L155.023368,227.155009 L150.277867,226.099235 L150.277867,220.820718 L126.022344,220.820718 L127.076978,225.571348 L117.058308,225.043461 L117.058308,221.348605 L92.2758193,219.764944 L91.7485024,239.295703 L116.004026,240.351477 C116.004026,240.351477 114.422075,237.184156 117.058308,237.712043 C119.694893,238.23993 126.022344,237.184156 126.022344,237.184156 L126.549661,240.351477 L149.75055,240.879364 L150.805184,238.767817 L154.496051,239.82359 C154.496051,239.82359 153.968734,240.879364 156.605319,241.407251 C159.241552,241.935138 163.987404,241.407251 163.987404,241.407251 L164.514721,221.348605 Z" id="Fill-41" fill="#FFECAE"></path>
                        <polygon id="Fill-43" fill="#35245E" points="99.1306931 240.351512 99.1306931 265.688676 108.622046 269.911419 105.985461 240.351512"></polygon>
                        <path d="M179.806068,156.421649 C178.687453,155.301825 176.114849,159.061084 176.114849,159.061084 L88.5848119,156.421649 L76.457226,151.14278 L90.1667626,152.726441 L175.060567,151.670667 C175.060567,151.670667 180.333385,156.949536 179.806068,156.421649" id="Fill-45" fill="#54728E"></path>
                        <path d="M176.115025,159.060908 C176.115025,159.060908 180.33356,173.841037 178.75161,174.368924 C177.169659,174.896811 170.314891,193.900035 170.842207,193.900035 C171.369524,193.900035 200.370548,208.679812 200.370548,208.679812 L218.298269,191.788487 L212.498134,185.454197 C212.498134,185.454197 206.698,208.679812 196.67933,197.594891 C186.661012,186.50997 191.933829,168.034633 191.933829,168.034633 L178.75161,154.310278 L176.115025,159.060908 Z" id="Fill-47" fill="#54728E"></path>
                        <path d="M43.7651593,173.31315 L35.3284403,197.067004 L34.8011234,226.627263 L51.1472446,240.879505 L51.1472446,204.984956 C51.1472446,204.984956 53.7838291,201.817634 55.8927452,198.122778 C58.0020129,194.42757 67.4933658,156.421473 67.4933658,156.421473 L43.7651593,173.31315 Z" id="Fill-49" fill="#54728E"></path>
                        <path d="M108.62187,269.911454 C117.058589,291.553761 82.7843961,372.316584 82.7843961,372.316584 C82.7843961,372.316584 92.8030659,375.483554 93.8576998,373.899893 C94.9123336,372.316584 109.149187,347.506956 118.113223,329.559857 C127.076908,311.612407 134.98631,298.943825 131.82276,292.081648 C128.658858,285.21947 108.62187,269.911454 108.62187,269.911454" id="Fill-51" fill="#54728E"></path>
                        <path d="M140.259338,289.970487 C141.841289,305.278151 137.095437,354.369169 129.186035,371.788733 C129.186035,371.788733 144.477522,372.316619 143.950557,370.732959 C143.42324,369.149298 160.823643,343.812135 165.041827,314.251877 C169.260362,284.691618 166.096461,267.272407 166.096461,267.272407 L140.259338,289.970487 Z" id="Fill-53" fill="#54728E"></path>
                        <path d="M43.2378424,234.017222 C44.8197932,249.324886 49.0379769,296.304708 49.0379769,296.304708 L62.7475136,304.750194 C62.7475136,304.750194 65.3840981,316.363354 65.3840981,314.779693 C65.3840981,313.196032 64.8567812,303.166885 64.8567812,303.166885 L53.2565122,292.609499 L51.6745615,238.767852 L42.1832086,230.322013 L43.2378424,234.017222 Z" id="Fill-55" fill="#000000"></path>
                        <path d="M110.507309,20.2357346 C110.507309,18.4761116 110.155765,8.27029837 110.155765,8.27029837 C110.155765,8.27029837 117.827874,13.0800518 123.804133,29.9724324" id="Stroke-57" stroke="#151637" stroke-width="1.98512523" stroke-linecap="round" stroke-linejoin="round"></path>
                        <path d="M117.889746,30.4415479 C117.889746,30.4415479 146.364859,25.8665281 148.825672,65.985932 C148.825672,65.985932 138.630878,60.707063 121.756737,60.0032139" id="Stroke-59" stroke="#151637" stroke-width="1.98512523" stroke-linecap="round" stroke-linejoin="round"></path>
                        <path d="M144.427919,63.9916105 L142.084171,72.9069163 L143.72483,74.0802329 L144.896528,91.9108444 L121.929064,86.0456691 C121.929064,86.0456691 126.678432,71.9686853 120.350629,58.5955507" id="Stroke-61" stroke="#151637" stroke-width="1.98512523" stroke-linecap="round" stroke-linejoin="round"></path>
                        <path d="M137.2247,90.6206536 L137.2247,103.289939 C137.2247,103.289939 186.440945,119.47847 189.253302,123.349641 C192.065659,127.220812 191.406512,167.506676 191.406512,167.506676" id="Stroke-63" stroke="#151637" stroke-width="1.98512523" stroke-linecap="round" stroke-linejoin="round"></path>
                        <path d="M143.200958,74.0801977 L127.085099,63.9915753 C127.085099,63.9915753 124.975831,72.4377656 132.709812,78.0685591 C139.731564,83.1809677 143.200958,74.0801977 143.200958,74.0801977 Z" id="Stroke-65" stroke="#151637" stroke-width="1.98512523" stroke-linecap="round" stroke-linejoin="round"></path>
                        <path d="M130.767985,116.304287 C129.630387,117.443115 94.0888755,135.519369 65.8612496,153.967257 C41.7618121,169.716586 23.324352,187.400093 23.324352,187.400093 L24.0274412,202.532851 L15.238826,219.777156" id="Stroke-67" stroke="#151637" stroke-width="1.98512523" stroke-linecap="round" stroke-linejoin="round"></path>
                        <path d="M130.240844,115.7764 C130.943933,116.832173 164.864824,127.73902 190.879125,171.729595" id="Stroke-69" stroke="#151637" stroke-width="1.98512523" stroke-linecap="round" stroke-linejoin="round"></path>
                        <path d="M66.9659082,153.254469 C66.9659082,154.260973 59.4744926,185.572408 55.3652877,198.65063 C53.7274414,203.864393 51.2472942,204.683673 51.1471039,204.984921 C50.7955593,206.040694 46.8775947,272.565705 52.853853,292.273482 C52.853853,292.273482 64.1032805,302.479295 64.4548251,303.535069 C64.8063697,304.590843 63.7517359,319.7236 63.7517359,319.7236 L58.4785668,325.354394" id="Stroke-71" stroke="#151637" stroke-width="1.98512523" stroke-linecap="round" stroke-linejoin="round"></path>
                        <path d="M57.0725289,311.277375 C57.4240735,312.333149 58.1271628,331.337077 58.1271628,331.337077 L50.3931814,332.39285 L50.3931814,326.410132 C50.3931814,326.410132 31.4097725,319.37164 31.4097725,317.963942 C31.4097725,316.556244 34.9252186,291.217673 34.9252186,291.217673 C34.573674,289.106125 18.7541666,264.823328 14.8871759,217.665432 C10.3388918,162.196485 25.7850588,114.903451 25.7850588,114.903451 C31.4097725,106.45726 91.8754452,96.6033717 91.8754452,96.6033717 C109.452676,36.0723414 91.172356,0.176032682 91.172356,0.176032682 C91.172356,0.176032682 103.827962,7.91837378 116.132023,32.2011708" id="Stroke-73" stroke="#151637" stroke-width="1.98512523" stroke-linecap="round" stroke-linejoin="round"></path>
                        <polyline id="Stroke-75" stroke="#151637" stroke-width="1.98512523" stroke-linecap="round" stroke-linejoin="round" points="61.2910642 174.730632 92.930079 203.236524 89.7661775 264.119479"></polyline>
                        <path d="M177.300785,158.5421 C177.300785,158.5421 179.058508,156.430553 135.818521,156.430553 L88.3599991,156.430553 L73.2435809,149.743986" id="Stroke-77" stroke="#151637" stroke-width="1.98512523" stroke-linecap="round" stroke-linejoin="round"></path>
                        <path d="M177.65233,160.653648 L178.003874,174.730632 C178.003874,174.730632 163.239001,198.30958 164.645179,232.094341 C166.051358,265.879102 165.699813,269.398348 165.699813,269.398348 C165.699813,269.398348 174.136884,320.779339 141.79478,370.048782" id="Stroke-79" stroke="#151637" stroke-width="1.98512523" stroke-linecap="round" stroke-linejoin="round"></path>
                        <path d="M89.7661775,262.711781 C90.4692667,263.767554 84.4930084,320.779339 72.5404917,370.752631" id="Stroke-81" stroke="#151637" stroke-width="1.98512523" stroke-linecap="round" stroke-linejoin="round"></path>
                        <path d="M89.6393402,265.160824 C118.817543,263.049276 130.193878,291.921522 130.193878,291.921522 C130.193878,291.921522 131.248512,302.831184 115.429004,332.744775 C99.6094969,362.658366 95.3909616,372.16033 95.3909616,372.16033" id="Stroke-83" stroke="#151637" stroke-width="1.98512523" stroke-linecap="round" stroke-linejoin="round"></path>
                        <path d="M129.842263,290.161899 C130.896897,290.161899 137.2247,290.513824 137.2247,290.513824 C137.2247,290.513824 161.481278,273.973368 165.348268,265.175253" id="Stroke-85" stroke="#151637" stroke-width="1.98512523" stroke-linecap="round" stroke-linejoin="round"></path>
                        <path d="M225.813941,112.791903 C225.462396,114.199602 231.438655,128.980434 231.790199,154.67093 C232.141744,180.361425 213.861424,203.236524 199.79964,209.571167 L170.269893,194.438409" id="Stroke-89" stroke="#151637" stroke-width="1.98512523" stroke-linecap="round" stroke-linejoin="round"></path>
                        <path d="M15.2387205,219.77698 C15.2387205,219.425055 0.122302369,206.403845 0.825391586,207.459619 C1.5284808,208.515393 8.20782836,230.686642 17.3479882,240.892456 L3.28620385,229.982793 C3.28620385,229.982793 12.4263637,251.098269 21.2149789,260.600233 L24.3788804,264.471404 L15.2387205,219.77698 Z" id="Stroke-91" stroke="#151637" stroke-width="1.98512523" stroke-linecap="round" stroke-linejoin="round"></path>
                        <path d="M225.462396,112.439979 C226.165486,110.680356 243.391171,89.9168044 243.391171,89.9168044 L240.22727,76.1917452 L227.923209,66.6897812 L225.813941,72.3205747 L234.954101,79.3590666 C234.954101,79.3590666 238.469547,88.1571815 237.766458,87.1014077 C237.063368,86.0456339 218.07996,68.0974795 218.07996,68.0974795 L217.37687,76.1917452 L230.384021,90.9725782 L217.37687,79.007142 L217.025326,86.3975585 L223.704673,96.2514472 L217.37687,107.513034 L218.783049,111.03228 C214.916058,130.740057 201.019851,147.817902 194.043097,163.283932 C186.66066,179.64737 192.461146,194.4275 194.174926,201.124976" id="Stroke-93" stroke="#151637" stroke-width="1.98512523" stroke-linecap="round" stroke-linejoin="round"></path>
                        <path d="M231.790199,142.353569 C231.790199,143.761267 238.686801,192.668228 238.335257,191.26053 C237.983712,189.852832 230.735566,169.451763 230.735566,169.451763" id="Stroke-95" stroke="#151637" stroke-width="1.98512523" stroke-linecap="round" stroke-linejoin="round"></path>
                        <path d="M229.680932,172.971009 C229.680932,174.378707 227.086532,213.254762 226.734988,211.847063 C226.383443,210.439365 222.298495,188.455691 222.298495,188.455691 C222.298495,188.455691 201.425182,181.231031 200.370548,152.726547" id="Stroke-97" stroke="#151637" stroke-width="1.98512523" stroke-linecap="round" stroke-linejoin="round"></path>
                        <path d="M193.120292,206.403845 C193.471837,209.219242 199.79964,349.637156 226.165486,370.400707" id="Stroke-99" stroke="#151637" stroke-width="1.98512523" stroke-linecap="round" stroke-linejoin="round"></path>
                        <path d="M15.2387205,254.26559 C15.2387205,255.673289 1.5284808,355.619874 1.88002541,370.048782" id="Stroke-101" stroke="#151637" stroke-width="1.98512523" stroke-linecap="round" stroke-linejoin="round"></path>
                        <path d="M22.2696127,263.063705 C22.2696127,264.471404 19.1057112,355.971798 29.6520495,370.400707" id="Stroke-103" stroke="#151637" stroke-width="1.98512523" stroke-linecap="round" stroke-linejoin="round"></path>
                        <polyline id="Stroke-105" stroke="#151637" stroke-width="1.98512523" stroke-linecap="round" stroke-linejoin="round" points="164.996724 221.536603 153.747296 221.888528 154.450385 240.540531 164.996724 240.540531"></polyline>
                        <polygon id="Stroke-107" stroke="#151637" stroke-width="1.98512523" stroke-linecap="round" stroke-linejoin="round" points="150.23185 220.832754 150.583395 239.836682 126.678361 239.132833 126.326817 220.832754"></polygon>
                        <path d="M116.835112,222.240452 L116.835112,240.892456 C116.835112,240.892456 91.8754452,239.132833 91.8754452,238.077059 C91.8754452,237.021285 92.5785344,220.832754 92.5785344,220.832754 L116.835112,222.240452 Z" id="Stroke-109" stroke="#151637" stroke-width="1.98512523" stroke-linecap="round" stroke-linejoin="round"></path>
                        <path d="M125.272183,224.000075 C124.217549,224.000075 116.835112,224.703924 116.835112,224.703924" id="Stroke-111" stroke="#151637" stroke-width="1.98512523" stroke-linecap="round" stroke-linejoin="round"></path>
                        <path d="M125.623728,237.37321 L117.186657,238.077059" id="Stroke-113" stroke="#151637" stroke-width="1.98512523" stroke-linecap="round" stroke-linejoin="round"></path>
                        <path d="M153.747296,224.703924 L150.583395,225.407774" id="Stroke-115" stroke="#151637" stroke-width="1.98512523" stroke-linecap="round" stroke-linejoin="round"></path>
                        <path d="M154.450385,237.37321 L150.583395,238.428984" id="Stroke-117" stroke="#151637" stroke-width="1.98512523" stroke-linecap="round" stroke-linejoin="round"></path>
                        <path d="M146.364859,164.524819 C146.364859,165.932517 149.880306,183.176822 149.880306,183.176822 C149.880306,183.176822 144.607136,195.142258 144.255592,196.198032 C143.904047,197.253806 143.552503,218.369282 143.200958,217.313508" id="Stroke-119" stroke="#151637" stroke-width="1.98512523" stroke-linecap="round" stroke-linejoin="round"></path>
                        <path d="M130.896897,166.284442 C130.896897,166.284442 119.295925,183.528747 117.186657,197.253806" id="Stroke-121" stroke="#151637" stroke-width="1.98512523" stroke-linecap="round" stroke-linejoin="round"></path>
                        <path d="M158.668921,170.507537 C158.668921,170.507537 166.051358,177.546029 166.754447,184.584521" id="Stroke-123" stroke="#151637" stroke-width="1.98512523" stroke-linecap="round" stroke-linejoin="round"></path>
                        <path d="M189.253302,204.644222 C189.253302,206.051921 188.198668,342.246739 171.676071,370.400707" id="Stroke-125" stroke="#151637" stroke-width="1.98512523" stroke-linecap="round" stroke-linejoin="round"></path>
                        <path d="M50.6199277,240.879399 C49.5652938,239.295739 46.2962805,226.123201 15.2387205,219.776945" id="Stroke-127" stroke="#151637" stroke-width="1.98512523" stroke-linecap="round" stroke-linejoin="round"></path>
                        <path d="M198.063537,71.3675629 C198.063537,71.3675629 213.387366,61.1811055 224.238142,70.9311764 C224.238142,70.9311764 225.406677,57.8547142 243.604032,52.796502 C243.604032,52.796502 241.130564,41.4022394 228.162435,39.0126714 C228.162435,39.0126714 223.620478,48.1489858 223.414473,47.6425663 C223.208117,47.1361468 220.085346,39.9442158 220.085346,39.9442158 L214.962286,48.1363165 L206.222887,45.9909842 L209.008878,53.3201658 L199.994923,50.4994902 C199.994923,50.4994902 191.898499,59.1163639 198.063537,71.3675629" id="Fill-129" fill="#000000"></path>
                        <path d="M108.611078,146.624984 C108.611078,146.624984 126.462865,142.184751 133.410441,155.017681 C133.410441,155.017681 138.89981,143.094476 157.736976,144.450793 C157.736976,144.450793 159.231744,132.887255 147.8192,126.274592 C147.8192,126.274592 140.475081,133.352147 140.450825,132.805608 C140.426568,132.259422 139.8989,124.435082 139.8989,124.435082 L132.324519,130.428006 L124.813066,125.467981 L124.977237,133.308157 L117.433793,127.619648 C117.433793,127.619648 106.916281,133.01254 108.611078,146.624984" id="Fill-131" fill="#000000"></path>
                        <g id="Group-135" transform="translate(285.454222, 76.895524)">
                            <mask id="mask-2" fill="white">
                                <use xlink:href="#path-1"></use>
                            </mask>
                            <g id="Clip-134"></g>
                            <path d="M37.3984052,39.415625 C37.3984052,35.8963791 38.1014945,17.5963001 38.1014945,17.5963001 L53.5694572,12.6693558 L60.6003494,6.3347131 L85.9115612,8.44626067 L150.595769,7.03856229 L157.626661,7.0384919e-05 L182.234784,4.22316553 L192.781122,2.81546715 L228.638672,24.634792 L237.075743,47.1579661 L236.372654,52.7887597 L248.32517,95.7235603 L250.434438,118.950584 C250.434438,118.950584 260.188746,178.236153 263.090044,221.712565 C266.745053,276.490684 260.980776,303.359071 260.980776,303.359071 L0.13467674,294.209032 C0.13467674,294.209032 10.7801506,287.503813 14.9986859,270.611432 C19.2172212,253.719051 24.7427993,211.154827 26.852067,168.923876 C28.9613346,126.692925 27.5551562,100.650505 27.5551562,100.650505 L37.3984052,39.415625 Z" id="Fill-133" fill="#C42812" mask="url(#mask-2)"></path>
                        </g>
                        <path d="M526.133297,185.981908 C526.133297,187.565216 531.933432,256.71488 528.76953,307.389558 C525.60598,358.064588 519.278529,376.539574 519.278529,376.539574 L516.114627,376.011687 L310.471226,371.788944 C310.471226,371.788944 325.762714,267.800153 325.235397,224.515539 C324.70808,181.230925 322.598812,171.729313 322.598812,171.729313 L322.071847,148.503698 L352.65447,121.582874 C352.65447,121.582874 452.839762,115.77647 454.421712,115.77647 C456.003663,115.77647 495.023005,118.943439 495.023005,118.943439 L505.568992,134.779342 L526.133297,185.981908 Z" id="Fill-136" fill="#73130C"></path>
                        <g id="Group-140" transform="translate(273.853250, 87.101337)">
                            <mask id="mask-4" fill="white">
                                <use xlink:href="#path-3"></use>
                            </mask>
                            <g id="Clip-139"></g>
                            <path d="M190.32031,110.856318 C181.883239,120.710207 179.070882,123.525603 179.070882,123.525603 L171.336901,128.452548 L172.03999,115.079413 L165.009098,113.671715 L165.712187,107.337072 C165.712187,107.337072 181.18015,91.1485405 188.914131,82.7023502 C196.648113,74.25616 206.491362,57.3637794 206.491362,57.3637794 L204.382094,76.3677075 L207.194451,86.9254454 C207.194451,86.9254454 198.757381,101.002429 190.32031,110.856318 Z M249.379804,52.4368351 L247.973626,42.5829464 L235.31802,22.8751691 L169.930723,20.0597723 C169.930723,20.0597723 179.070882,8.09433607 176.961615,8.09433607 C174.852347,8.09433607 108.761961,26.394415 108.761961,26.394415 L77.8260352,15.8366772 L48.9993773,29.2098118 L39.8592175,39.0637004 C39.8592175,39.0637004 34.2345038,32.7290577 30.7190577,23.5790183 C27.2036116,14.4289788 27.2036116,8.09433607 27.2036116,8.09433607 C27.2036116,8.09433607 17.3603626,-5.27879854 11.0325596,2.46354255 C11.0325596,2.46354255 5.40784587,18.6520739 1.89239978,30.6175102 C-1.6230463,42.5829464 -0.919957086,72.1446124 15.2510949,93.2600881 L70.795143,84.1100486 L83.4507489,119.302508 L82.0445705,160.82961 C82.0445705,160.82961 76.4198568,202.356713 82.7476597,227.695283 C89.0754627,253.033854 105.949604,278.372425 105.949604,278.372425 L107.355782,284.707068 L106.652693,295.264806 L137.588619,294.560957 L128.448459,236.845323 L143.916422,269.926235 C143.916422,269.926235 145.3226,290.337861 146.728778,295.264806 L179.773972,298.784052 L175.555436,276.964727 C175.555436,276.964727 173.446169,254.441553 172.743079,210.099054 C172.03999,165.756555 170.633812,148.864174 170.633812,148.864174 C170.633812,148.864174 229.693306,143.93723 240.239644,125.637151 C250.785983,107.337072 259.926142,85.517747 259.926142,85.517747 L249.379804,52.4368351 Z" id="Fill-138" fill="#35245E" mask="url(#mask-4)"></path>
                        </g>
                        <path d="M357.927428,209.207558 L356.345829,225.043461 L389.03772,226.627122 L430.693647,224.515574 C430.693647,224.515574 438.075732,208.151785 436.493781,208.151785 C434.91183,208.151785 357.927428,209.207558 357.927428,209.207558" id="Fill-141" fill="#FFD54A"></path>
                        <path d="M284.885634,89.5648798 C284.106963,86.7438523 284.106963,77.2425921 284.106963,77.2425921 L288.852463,58.7672547 L285.688913,51.377542 C285.688913,51.377542 275.670243,47.6823338 276.19756,45.5707862 C276.724877,43.4595906 280.943061,32.3743177 280.943061,32.3743177 L288.325146,32.3743177 C288.325146,32.3743177 287.270512,35.5416391 287.270512,41.348043 C287.270512,47.1544469 290.961731,54.0166246 291.489048,54.5445115 C292.016365,55.0723984 290.961731,42.4038168 290.961731,42.4038168 C290.961731,42.4038168 293.070998,36.5974129 296.234548,33.9579784 C299.39845,31.318544 306.253218,33.4300915 306.253218,33.4300915 L319.962755,43.4595906 L316.798853,46.0986731 C316.798853,46.0986731 313.107987,64.0461236 313.635303,65.6294324 C314.16262,67.213093 322.598988,71.9640751 322.598988,71.9640751 C322.598988,71.9640751 324.180939,60.3509154 325.762889,59.2951416 C327.34484,58.2397197 330.50839,56.1281721 330.50839,56.1281721 L339.999743,62.4624629 L334.726925,64.0461236 L333.144975,71.4361882 L324.708256,80.9374484 L304.671267,88.327513 L300.980401,84.6326566 L301.056686,95.1956734 C301.056686,95.1956734 296.761865,89.9111736 291.489048,88.327513 C286.215879,86.7438523 284.885634,89.5648798 284.885634,89.5648798" id="Fill-143" fill="#FFFFFF"></path>
                        <path d="M283.579505,33.4301619 L279.888287,42.9317741 L288.325357,52.4330343 L288.325357,69.8525979 L286.21609,75.1311149 L285.688773,86.7439227 C285.688773,86.7439227 293.070858,86.2160358 296.234408,88.8554702 C299.398309,91.4949047 301.056897,95.1957438 301.056897,95.1957438 L300.98026,84.632727 L305.725761,86.2160358 L323.653481,78.8263231 L332.0902,68.7968241 L334.726785,61.4067595 L331.035566,58.7673251 L322.598847,71.9641455 C322.598847,71.9641455 314.16248,68.7968241 313.107846,68.2689372 C312.053212,67.7410503 312.580529,56.6561294 312.580529,56.6561294 C312.580529,56.6561294 296.761725,45.5708566 295.707091,41.8760003 L294.652809,38.180792 L290.96159,42.4038872 L291.488907,51.9051474 L286.21609,43.4596609 L288.325357,32.3743881 L283.579505,33.4301619 Z" id="Fill-145" fill="#FFB3A9"></path>
                        <path d="M447.566839,105.21919 C449.676106,103.635529 473.403961,81.9932222 473.403961,81.9932222 L512.423655,103.635529 L512.950972,111.025594 L447.566839,105.21919 Z" id="Fill-147" fill="#73130C"></path>
                        <path d="M356.872794,226.627157 L356.345829,247.21369 L376.382817,274.134514 L383.237585,274.662401 C383.237585,274.662401 391.146636,255.659528 409.602025,249.324886 C428.057062,242.990595 443.875866,251.436433 443.875866,251.436433 L444.487202,235.965476 L437.548415,239.295739 L433.857197,229.794127 L428.057062,227.155044 L428.057062,225.043496 L391.146636,227.155044 L356.872794,226.627157 Z" id="Fill-149" fill="#73130C"></path>
                        <path d="M478.149849,134.779307 C480.786082,134.25142 510.314423,145.336693 510.314423,145.336693 L521.387375,127.389243 L522.442008,134.25142 L515.059923,162.228018 L480.344542,144.464976 L478.149849,134.779307 Z" id="Fill-151" fill="#000000"></path>
                        <path d="M456.530875,109.442109 C456.530875,109.442109 469.713094,121.054917 474.458595,131.612303 C479.204447,142.169337 479.204447,143.752997 479.204447,143.752997 L454.421607,162.75587 L402.747362,154.837918 L377.964522,150.087288 L339.472496,157.477353 L329.453827,140.058141 C329.453827,140.058141 340.52713,119.999495 345.272631,112.60943 C350.018131,105.219014 351.67918,102.93819 351.67918,102.93819 L322.852522,116.311325 L313.712362,126.165214 L322.072093,145.864545 C322.072093,145.864545 313.108057,171.729595 309.944155,173.841142 C306.780254,175.952338 297.288901,156.949466 297.288901,156.949466 C297.288901,156.949466 288.325217,102.052044 291.488767,88.3276889 L285.688632,86.7440283 C285.688632,86.7440283 269.869828,119.999495 273.561046,138.47448 C277.251913,156.949466 287.270583,180.175433 287.270583,180.175433 L344.648288,171.211562 L342.109081,161.700096 C342.109081,161.700096 375.328289,153.782496 376.910239,153.782496 C378.491839,153.782496 438.603154,168.034739 438.603154,168.034739 L427.002534,199.178306 L438.862243,200.773228 C438.862243,200.773228 443.348655,190.732467 455.476241,178.063886 C467.603827,165.395304 479.731764,148.503627 479.731764,148.503627 L483.422631,139.002367 C483.422631,139.002367 473.403961,124.222238 471.295045,122.11069 C469.185777,119.999495 453.366973,108.914222 453.366973,108.914222" id="Fill-153" fill="#000000"></path>
                        <path d="M358.454745,208.151785 C358.454745,208.151785 347.90911,159.588654 374.800866,155.893798 C401.692623,152.198589 427.002428,199.178411 427.002428,199.178411 L412.765575,206.568476 L404.329207,208.151785 L358.454745,208.151785 Z" id="Fill-155" fill="#000000"></path>
                        <path d="M400.110707,228.210818 L398.001439,257.770724 C398.001439,257.770724 401.692658,246.685803 422.78428,247.741577 C443.875902,248.797351 445.457852,254.075868 445.457852,254.075868 L444.486886,235.965476 L437.54845,239.295739 L433.857232,229.794127 L428.057097,225.043496 C428.057097,225.043496 398.528756,229.794127 400.110707,228.210818" id="Fill-157" fill="#000000"></path>
                        <polygon id="Fill-159" fill="#FFFFFF" points="363.200597 33.9580488 365.309513 59.295212 369.000732 56.1282425 369.000732 71.9641455 365.309513 74.603228 371.109648 83.5769532 376.910134 82.5211795 351.679426 102.938085 380.601001 113.137212 453.366868 94.1339872 434.384513 81.4654057 416.98411 60.3509857 410.129342 42.4038872 409.602025 25.5122104 391.146636 24.4564367 362.67328 12.315742 355.818512 29.2070668"></polygon>
                        <path d="M366.364147,36.0694204 L366.891464,55.6001797 L373.218916,52.4332102 L368.473415,59.8232748 L371.109648,71.9639695 L366.891464,77.2424865 L371.109648,83.5767773 L383.764902,77.2424865 L379.01905,84.1046642 L351.679426,102.937909 L380.601001,113.137036 L449.148684,94.1341632 L435.439147,83.0488904 L418.565709,62.4623573 L403.80189,54.0168709 L403.80189,38.180968 L393.78322,46.6268063 L386.401135,40.2925156 C386.401135,40.2925156 394.837854,37.1251942 391.146636,32.3742122 C387.455769,27.6235821 381.128318,28.6793558 381.128318,28.6793558 L379.546367,31.3184384 L372.164282,40.8204024 C372.164282,40.8204024 364.782196,36.0694204 366.364147,36.0694204" id="Fill-161" fill="#FFB3A9"></path>
                        <path d="M371.636965,59.823134 C371.636965,59.823134 381.128318,56.6558127 386.928452,57.1836996 C386.928452,57.1836996 383.764902,70.38052 375.8555,69.8526331 C367.946098,69.3247462 371.636965,59.823134 371.636965,59.823134" id="Fill-163" fill="#73130C"></path>
                        <path d="M374.273549,59.823134 L376.910134,64.5741161 C376.910134,64.5741161 382.710268,64.0462292 385.346501,61.4067947 C387.983086,58.7673603 386.928452,57.1836996 386.928452,57.1836996 L374.273549,59.823134 Z" id="Fill-165" fill="#FFFFFF"></path>
                        <path d="M355.818512,29.2072427 L372.164282,40.8204024 L379.546367,31.3187903 C379.546367,31.3187903 376.382817,31.3187903 381.128318,28.6793558 C385.873818,26.0399214 389.03772,29.2072427 391.146636,32.3745641 C393.255904,35.5415335 386.401135,40.2925156 386.401135,40.2925156 L393.78322,46.6268063 L403.80189,38.180968 L403.80189,54.0168709 L418.565709,62.4623573 L410.129342,42.4037112 L410.129342,27.6235821 L391.146636,24.4562607 L376.382817,18.1219699 L362.67328,12.315566 L355.818512,29.2072427 Z" id="Fill-167" fill="#000000"></path>
                        <path d="M452.924132,210.626941 L445.458028,213.958611 L445.89324,202.18075 L427.002639,199.178482 L412.765786,206.568546 L414.875053,209.207629 L434.384724,203.929112 L411.711152,213.958611 L413.820419,220.292901 L435.439358,211.847063 L416.457004,222.931984 L421.729822,225.043532 L428.057273,225.043532 L431.221174,229.794162 L433.857408,229.794162 L436.493992,237.712113 L446.51231,234.017257 L460.749164,231.905709 C460.749164,231.905709 463.385748,223.459871 461.276481,217.653467 C459.167565,211.847063 452.924132,210.626941 452.924132,210.626941" id="Fill-169" fill="#FFFFFF"></path>
                        <g id="Group-173" transform="translate(417.986539, 246.875103)">
                            <mask id="mask-6" fill="white">
                                <use xlink:href="#path-5"></use>
                            </mask>
                            <g id="Clip-172"></g>
                            <path d="M0.0522746833,0.866473546 C0.0522746833,0.866473546 -0.475042229,46.2622828 5.32509227,77.9337368 C11.1252268,109.605543 13.7618113,118.051381 13.7618113,118.051381 L15.3434105,135.470593 L35.6405416,139.01025 L31.1622148,113.828286 L25.8893972,4.56132987 C25.8893972,4.56132987 5.32509227,-2.30084781 0.0522746833,0.866473546" id="Fill-171" fill="#000000" mask="url(#mask-6)"></path>
                        </g>
                        <path d="M370.582331,267.272371 C367.418781,293.137422 384.819185,340.644778 391.673953,357.536455 L395.892488,369.149263 L396.419805,382.345731 L413.820209,381.289958 L408.020074,360.175538 L402.747256,326.920423 L383.237585,274.662436 L376.382817,274.134549 L370.582331,267.272371 Z" id="Fill-174" fill="#000000"></path>
                        <path d="M443.348655,203.401154 L427.002534,199.178411 L412.76568,206.568476 L414.874948,209.207558 L436.493887,203.929041 L414.347631,214.486427 L413.820314,220.292831 L439.13012,209.735445 L421.202399,222.404027 L424.366301,223.987687 L439.657437,218.70917 L430.693752,224.515574 L435.96657,229.794091 L436.493887,237.712043 L446.512205,234.017186 L459.694425,231.377752 C459.694425,231.377752 461.276375,228.210783 459.167459,220.292831 C457.058192,212.37488 452.924027,210.62687 452.924027,210.62687 L444.403289,219.764944 L443.348655,203.401154 Z" id="Fill-176" fill="#FFB3A9"></path>
                        <path d="M503.987006,154.310242 L502.932372,181.758953 L515.587275,185.454161 L498.714189,189.149018 L461.276446,217.653502 L452.924097,210.626976 L481.047666,174.026818 L486.059286,178.064097 L479.204518,165.92305 L479.204518,143.752856 C479.204518,143.752856 497.132238,147.9756 498.714189,148.503487 C500.296139,149.031373 503.987006,154.310242 503.987006,154.310242" id="Fill-178" fill="#000000"></path>
                        <path d="M386.193126,153.662948 L362.19177,125.992172 L362.152045,125.947126 L362.193879,125.904191 L370.216478,117.745875 L370.235462,117.726167 L370.262882,117.726167 L402.221803,117.726167 L402.24852,117.726167 L402.268207,117.745875 L410.290455,125.904191 L410.332288,125.947126 L410.292915,125.992172 L386.290504,153.662948 L386.241991,153.718904 L386.193126,153.662948 Z M362.328169,125.952405 L386.241991,153.521474 L410.155813,125.952405 L402.195085,117.856028 L370.289248,117.856028 L362.328169,125.952405 Z" id="Fill-180" fill="#000000"></path>
                        <polyline id="Stroke-182" stroke="#151637" stroke-width="1.98512523" stroke-linecap="round" stroke-linejoin="round" points="374.006129 32.7354276 376.115397 26.9290237 379.806264 32.2075407 372.951496 41.1812659 356.078409 29.5681062 362.933177 12.1488945 392.988484 24.2895892 410.389239 26.9290237 410.916556 42.7649266 418.298641 62.2956859 405.643738 52.7940737"></polyline>
                        <polyline id="Stroke-184" stroke="#151637" stroke-width="1.98512523" stroke-linecap="round" stroke-linejoin="round" points="363.460494 35.902573 366.096727 59.6564274 370.842579 54.9057972"></polyline>
                        <path d="M379.806264,32.2075407 C379.806264,32.2075407 377.697348,25.345363 386.133715,28.5123324 C394.570434,31.6796538 393.515801,35.9027489 390.352251,38.0142965 L387.188349,40.1254921 C387.188349,40.1254921 396.679702,46.9876698 395.097751,45.931896 L397.207019,43.2928135 L403.53447,38.5418315 L405.643738,52.7940737 L400.897886,54.9056213 L402.479836,70.7415242 L372.424179,83.4101058 L365.56941,75.4921543 L369.787946,71.797298 L367.678678,57.5450557" id="Stroke-186" stroke="#151637" stroke-width="1.98512523" stroke-linecap="round" stroke-linejoin="round"></path>
                        <path d="M418.298676,62.2957211 C419.35331,62.2957211 433.590163,81.2985934 433.590163,81.2985934 L453.099834,94.4950619 L381.377352,113.504621 L349.223676,103.468787 L376.642749,83.410141 L379.806299,80.2428196" id="Stroke-188" stroke="#151637" stroke-width="1.98512523" stroke-linecap="round" stroke-linejoin="round"></path>
                        <path d="M404.061822,77.0757094 C403.007189,78.6593701 387.715701,101.357451 387.715701,101.357451" id="Stroke-190" stroke="#151637" stroke-width="1.98512523" stroke-linecap="round" stroke-linejoin="round"></path>
                        <path d="M522.702292,123.527504 L514.79289,102.413084 L474.718914,79.1871162 C474.718914,79.1871162 483.155281,78.6592293 472.609646,79.7150031 C462.063659,80.7707769 441.499355,107.691601 441.499355,107.691601 C444.663256,107.691601 507.410805,110.331035 507.410805,110.331035 L518.483757,123.527504 L522.702292,131.445455 L522.702292,123.527504 Z" id="Stroke-192" stroke="#151637" stroke-width="1.98512523" stroke-linecap="round" stroke-linejoin="round"></path>
                        <path d="M435.346902,83.9340863 C438.862348,81.8225388 439.917685,78.1315536 443.608552,77.0757798 L468.391041,80.7706361" id="Stroke-194" stroke="#151637" stroke-width="1.98512523" stroke-linecap="round" stroke-linejoin="round"></path>
                        <path d="M522.702292,131.445314 L522.702292,139.363266 L532.193293,171.562959 L517.429123,207.457156 C517.429123,207.457156 514.79289,228.571576 445.190573,234.37798" id="Stroke-196" stroke="#151637" stroke-width="1.98512523" stroke-linecap="round" stroke-linejoin="round"></path>
                        <path d="M446.772418,212.735743 C463.645505,204.290257 480.518943,173.674225 480.518943,173.674225 L486.846394,178.952742 L478.936992,165.756273 L478.936992,142.530306 C478.936992,145.16974 478.936992,151.504031 462.063554,169.979016 C445.190467,188.454354 438.335699,197.955966 438.335699,197.955966 L437.808382,202.178709" id="Stroke-198" stroke="#151637" stroke-width="1.98512523" stroke-linecap="round" stroke-linejoin="round"></path>
                        <path d="M531.665977,173.674189 C532.193293,175.785737 556.453387,303.53894 546.435069,379.550781" id="Stroke-200" stroke="#151637" stroke-width="1.98512523" stroke-linecap="round" stroke-linejoin="round"></path>
                        <path d="M349.750922,108.747375 C337.623337,121.415956 330.768568,139.891293 330.768568,140.947067 C330.768568,142.002489 340.786886,157.838392 340.786886,157.838392 L379.806229,150.448327 L453.627081,162.061487 C453.627081,162.061487 470.334942,155.447768 478.936887,142.530376 C479.99152,140.947067 480.518837,139.891293 481.046154,142.530376 C481.419143,144.396632 471.554801,115.609552 452.04513,108.747375" id="Stroke-202" stroke="#151637" stroke-width="1.98512523" stroke-linecap="round" stroke-linejoin="round"></path>
                        <path d="M340.786886,157.838427 L357.133008,207.457332 L356.078374,247.574624 C356.078374,247.574624 350.800283,270.103781 354.491501,302.831009 C358.182368,335.558588 376.990356,357.027748 379.099624,363.362391 C381.20854,369.696682 381.208892,370.400883 381.208892,370.400883 C381.208892,370.400883 379.806229,376.900578 381.388179,380.067547" id="Stroke-204" stroke="#151637" stroke-width="1.98512523" stroke-linecap="round" stroke-linejoin="round"></path>
                        <path d="M400.89553,319.723565 C401.949813,321.834761 409.332601,373.216104 412.144958,380.254595" id="Stroke-206" stroke="#151637" stroke-width="1.98512523" stroke-linecap="round" stroke-linejoin="round"></path>
                        <path d="M445.717784,218.542499 L445.717784,202.178709 L434.644481,199.011388 C434.644481,199.011388 421.462261,199.539275 419.880662,200.067162 C418.298711,200.595048 411.443943,206.401452 411.443943,206.401452 L414.080176,209.568774 L434.117164,203.234483 L411.97126,213.26363 L413.552859,220.653695 L435.699115,211.152434 L416.71676,223.293129 L421.462261,225.932212 L438.863016,220.653695 L428.317029,223.821016 L430.426297,229.62742 L434.117164,229.62742 L436.226431,238.601145 L446.772418,234.905937" id="Stroke-208" stroke="#151637" stroke-width="1.98512523" stroke-linecap="round" stroke-linejoin="round"></path>
                        <path d="M284.894036,79.187257 C284.894036,102.941111 272.76645,112.442372 274.348049,138.835309 C275.93,165.228597 289.112571,180.536262 289.112571,180.536262 L344.478035,171.035001" id="Stroke-210" stroke="#151637" stroke-width="1.98512523" stroke-linecap="round" stroke-linejoin="round"></path>
                        <path d="M370.842579,86.5773216 C368.205995,86.0494347 346.059739,83.9378871 346.059739,83.9378871 L334.986787,96.0789337 L337.096055,109.803289 L350.805591,103.468998 L370.842579,86.5773216 Z" id="Stroke-212" stroke="#151637" stroke-width="1.98512523" stroke-linecap="round" stroke-linejoin="round"></path>
                        <path d="M341.84152,88.6886932 C339.732253,88.6886932 323.386483,95.022984 323.9138,97.1345315 C324.440765,99.2460791 324.968082,115.609517 324.968082,115.609517 L337.09602,109.803113" id="Stroke-214" stroke="#151637" stroke-width="1.98512523" stroke-linecap="round" stroke-linejoin="round"></path>
                        <path d="M346.054571,106.45726 C344.472621,106.45726 322.149538,117.718847 322.149538,117.718847 C322.149538,117.718847 312.31332,129.861654 312.31332,128.277993" id="Stroke-216" stroke="#151637" stroke-width="1.98512523" stroke-linecap="round" stroke-linejoin="round"></path>
                        <path d="M308.622277,174.729963 C328.131948,154.671317 319.167912,136.19598 319.167912,136.19598 C298.603608,108.219382 300.712875,88.6886228 301.240192,86.5774271 C301.240192,86.5774271 297.021657,76.5479281 285.948705,77.075815" id="Stroke-218" stroke="#151637" stroke-width="1.98512523" stroke-linecap="round" stroke-linejoin="round"></path>
                        <path d="M300.185523,84.465774 L304.931024,88.6888691 L323.91373,81.8263395 L332.877414,71.7971924 L335.513999,63.879241 L340.259499,61.7676934 L332.350097,57.0170633 C332.350097,57.0170633 326.022646,57.0170633 325.495329,62.2955803 C324.968012,67.5740973 322.331779,73.9083881 322.331779,72.3250793 C322.331779,70.7414186 312.840426,67.0462104 312.840426,67.0462104 C312.840426,67.0462104 301.767474,74.9641619 299.130889,77.6035963" id="Stroke-220" stroke="#151637" stroke-width="1.98512523" stroke-linecap="round" stroke-linejoin="round"></path>
                        <polyline id="Stroke-222" stroke="#151637" stroke-width="1.98512523" stroke-linecap="round" stroke-linejoin="round" points="313.367778 68.6300118 290.166888 54.3777696 285.948705 74.4364157"></polyline>
                        <path d="M312.840461,67.0463512 L313.367778,58.0726259" id="Stroke-224" stroke="#151637" stroke-width="1.98512523" stroke-linecap="round" stroke-linejoin="round"></path>
                        <path d="M289.112571,60.7120604 C289.112571,59.1283997 285.94867,52.7941089 285.94867,52.7941089 L276.457317,45.9319312 L281.202817,32.2075759 L289.639536,33.2633497 C289.639536,33.2633497 281.202817,43.8203837 294.912706,56.4889652" id="Stroke-226" stroke="#151637" stroke-width="1.98512523" stroke-linecap="round" stroke-linejoin="round"></path>
                        <path d="M291.748804,55.4335434 C291.748804,53.8498827 289.639536,42.7646099 291.221487,41.709188 C292.803438,40.6534142 300.185523,32.2075759 300.185523,32.2075759 L311.785792,29.0402545" id="Stroke-228" stroke="#151637" stroke-width="1.98512523" stroke-linecap="round" stroke-linejoin="round"></path>
                        <path d="M305.985693,44.8762982 C302.294826,48.5715065 301.767509,57.5448798 302.822143,60.1843143" id="Stroke-230" stroke="#151637" stroke-width="1.98512523" stroke-linecap="round" stroke-linejoin="round"></path>
                        <path d="M303.349108,97.1343556 C292.803473,87.1048565 286.476022,85.5215478 283.839437,90.8000648" id="Stroke-232" stroke="#151637" stroke-width="1.98512523" stroke-linecap="round" stroke-linejoin="round"></path>
                        <path d="M445.190467,234.378085 L444.663151,252.325536 L449.935968,363.703687 C449.935968,363.703687 453.627187,379.53959 453.09987,385.346346" id="Stroke-234" stroke="#151637" stroke-width="1.98512523" stroke-linecap="round" stroke-linejoin="round"></path>
                        <path d="M444.487062,252.154043 C433.117055,238.297716 396.226666,247.009609 385.291168,270.181732 C384.562416,271.726329 383.958814,273.340959 383.497588,275.023159 L375.060869,273.43985 L356.078514,247.574448" id="Stroke-236" stroke="#151637" stroke-width="1.98512523" stroke-linecap="round" stroke-linejoin="round"></path>
                        <path d="M383.497482,275.0233 C384.552116,277.134847 396.679702,318.8358 418.298641,356.841545 L418.298641,368.454705 C418.298641,368.454705 421.462191,383.762721 421.462191,382.17906" id="Stroke-238" stroke="#151637" stroke-width="1.98512523" stroke-linecap="round" stroke-linejoin="round"></path>
                        <path d="M411.443908,206.401452 C401.952555,207.985113 376.115432,207.457226 357.133078,207.457226" id="Stroke-240" stroke="#151637" stroke-width="1.98512523" stroke-linecap="round" stroke-linejoin="round"></path>
                        <path d="M423.571529,226.987985 C423.571529,226.987985 375.060834,229.099533 357.66043,226.460098" id="Stroke-242" stroke="#151637" stroke-width="1.98512523" stroke-linecap="round" stroke-linejoin="round"></path>
                        <path d="M460.48199,232.794424 C465.227491,226.988021 461.009307,211.15247 452.572588,210.096696" id="Stroke-244" stroke="#151637" stroke-width="1.98512523" stroke-linecap="round" stroke-linejoin="round"></path>
                        <path d="M370.315263,41.7091528 C369.65928,41.7119682 368.956191,48.4573069 371.065459,48.9848419 C373.174726,49.5127288 373.522404,41.6950758 370.315263,41.7091528" id="Fill-246" fill="#000000"></path>
                        <path d="M370.315263,41.7091528 C369.65928,41.7119682 368.956191,48.4573069 371.065459,48.9848419 C373.174726,49.5127288 373.522404,41.6950758 370.315263,41.7091528 Z" id="Stroke-248" stroke="#151637" stroke-width="1.98512523" stroke-linecap="round" stroke-linejoin="round"></path>
                        <path d="M395.439031,49.9235304 C392.626674,49.4544149 388.17401,55.3195902 388.642619,63.5313987" id="Stroke-250" stroke="#151637" stroke-width="1.98512523" stroke-linecap="round" stroke-linejoin="round"></path>
                        <path d="M402.938883,43.5888877 C400.360655,44.7618523 398.251388,50.1582641 398.251388,50.1582641" id="Stroke-252" stroke="#151637" stroke-width="1.98512523" stroke-linecap="round" stroke-linejoin="round"></path>
                        <path d="M400.126527,45.934993 C401.298225,46.8735759 402.938883,50.1580881 402.938883,50.1580881" id="Stroke-254" stroke="#151637" stroke-width="1.98512523" stroke-linecap="round" stroke-linejoin="round"></path>
                        <path d="M387.705049,57.9004292 C387.00196,57.6656955 377.627672,56.9618463 371.768478,60.0119768 C371.768478,60.0119768 370.362299,70.5697146 376.455622,70.3349809 C382.549296,70.1005991 387.705049,57.9004292 387.705049,57.9004292 Z" id="Stroke-256" stroke="#151637" stroke-width="1.98512523" stroke-linecap="round" stroke-linejoin="round"></path>
                        <polyline id="Stroke-258" stroke="#151637" stroke-width="1.98512523" stroke-linecap="round" stroke-linejoin="round" points="374.815315 74.7928098 371.533997 73.1503777 369.190601 76.9043573 372.471567 79.0159049 374.580834 76.4352419 372.002958 75.7313927"></polyline>
                        <path d="M314.415557,176.842179 C315.118646,178.953727 315.821735,342.950588 291.213613,366.177612" id="Stroke-260" stroke="#151637" stroke-width="1.98512523" stroke-linecap="round" stroke-linejoin="round"></path>
                        <path d="M527.451589,183.176822 C527.451589,183.176822 535.185571,361.954516 514.795984,383.773841" id="Stroke-262" stroke="#151637" stroke-width="1.98512523" stroke-linecap="round" stroke-linejoin="round"></path>
                        <path d="M294.027657,16.3434486 C286.456441,30.1902737 291.530987,47.5574005 305.361807,55.1364486 C319.193329,62.7158486 336.542407,57.6358171 344.113975,43.788992 C351.684488,29.9432226 346.60959,12.5753919 332.778067,4.99599194 C318.947599,-2.58270422 301.598522,2.49767924 294.027657,16.3434486" id="Fill-264" fill="#FFFFFF"></path>
                        <path d="M297.270515,18.1202455 C290.679405,30.1743667 295.096915,45.2926954 307.136966,51.8902258 C319.177369,58.4881081 334.279725,54.0661755 340.870835,42.0120543 C347.461242,29.9593408 343.043733,14.8403083 331.00333,8.24242594 C318.963278,1.64489556 303.860922,6.06718002 297.270515,18.1202455" id="Fill-266" fill="#C42812"></path>
                        <polygon id="Fill-268" fill="#FFD54A" points="299.550774 19.7889663 314.968115 46.4796315 339.204654 27.4552917 333.878051 19.4342263 307.477754 14.3302639"></polygon>
                        <path d="M314.272056,46.8818461 L298.854364,20.190829 L298.483133,19.5478628 L299.095524,19.1262571 L307.022152,13.6682586 L307.301981,13.4747001 L307.629972,13.5380465 L334.030972,18.6420089 L334.359667,18.7057072 L334.548095,18.9900623 L339.873644,27.0100719 L340.286006,27.6294592 L339.701387,28.087665 L315.464496,47.1123567 L314.735392,47.6845861 L314.272056,46.8818461 Z M299.550071,19.7889311 L314.967763,46.4799482 L339.205006,27.4552565 L333.878051,19.4345431 L307.477402,14.3302287 L299.550071,19.7889311 Z" id="Fill-270" fill="#FFFFFF"></path>
                        <path d="M312.143208,35.9931232 C315.28004,36.2099087 320.970844,34.8676683 322.969024,33.7467885 C327.689565,31.0971482 325.376401,28.4883312 323.040036,25.4477027 C321.340669,23.2365604 325.36023,23.3533994 328.271723,24.382075 C329.889179,24.9528967 331.036621,25.3417734 331.461638,23.1387254 C331.587491,22.486961 331.607178,21.8985431 331.519292,21.3780466 L332.32468,21.5335973 L335.7772,26.7653083 L315.813685,42.2352097 L312.143208,35.9931232 Z M302.987931,20.4264425 L311.560347,34.99964 C313.634811,33.3624868 317.458914,32.4605041 316.975891,29.4160044 C316.417638,25.8995738 304.862016,23.2119257 307.12983,21.2788039 C309.656732,19.1250254 313.439001,19.1493082 316.836328,18.5394229 L308.138411,16.8575752 L302.987931,20.4264425 Z" id="Fill-272" fill="#C42812"></path>
                        <polygon id="Fill-274" fill="#FFD54A" points="350.164936 119.998967 375.832263 156.783533 420.274181 117.915573 411.581537 105.494043 363.496211 107.371209"></polygon>
                        <path d="M374.702363,157.565404 L349.033631,120.935333 L348.374133,119.993582 L349.364786,119.05148 L362.685514,106.370933 L363.17381,105.904281 L363.752804,105.881054 L412.012144,103.942654 L412.634378,103.917667 L412.948659,104.369186 L421.640248,116.84984 L422.299394,117.793702 L421.091135,118.844197 L376.612657,157.563996 L375.425139,158.597599 L374.702363,157.565404 Z M350.163847,119.998861 L375.831173,156.784132 L420.2752,117.915468 L411.581502,105.494641 L363.495473,107.371807 L350.163847,119.998861 Z" id="Fill-276" fill="#1F191A"></path>
                        <path d="M371.442666,141.852006 C376.650448,141.177367 386.357298,137.165778 389.891024,134.672744 C398.468712,128.618938 394.607698,125.06098 390.704498,120.731252 C387.833785,117.547742 395.098806,116.162567 400.317837,116.820666 C403.22722,117.187019 405.296763,117.418585 406.407996,113.311977 C406.740909,112.082001 406.86641,111.005112 406.778875,110.092571 L408.276807,110.039079 L413.92191,118.056273 L377.336663,150.254206 L371.442666,141.852006 Z M355.95572,119.780703 L370.490683,140.491818 C373.973787,137.226309 380.477714,134.484113 379.785874,129.678934 C378.969588,124.00767 359.208914,123.766601 363.005244,119.659289 C367.339437,114.969542 373.966053,113.507999 380.034416,111.049806 L364.684221,111.598808 L355.95572,119.780703 Z" id="Fill-278" fill="#C42812"></path>
                    </g>
                </g>
            </g>
        </g>
    </g>
</svg>