<svg width="394" height="343" viewBox="0 0 394 343" xmlns="http://www.w3.org/2000/svg" xmlns:xlink="http://www.w3.org/1999/xlink">
    <defs>
        <linearGradient x1="50%" y1="7.365%" x2="50%" y2="99.59%" id="c">
            <stop stop-color="#FFC32D" offset="0%"/>
            <stop stop-color="#D12222" offset="100%"/>
        </linearGradient>
        <path id="b" d="M0 24L33 0l33 24v276H0z"/>
        <linearGradient x1="50%" y1="9.809%" x2="50%" y2="87.728%" id="f">
            <stop stop-color="#2DC3FF" stop-opacity="0" offset="0%"/>
            <stop stop-color="#BD1ADA" offset="100%"/>
        </linearGradient>
        <path id="e" d="M0 0h66v380H0z"/>
        <path d="M0 0h66v138H0V0z" id="a"/>
        <mask id="g" x="0" y="0" width="66" height="138" fill="#fff">
            <use xlink:href="#a"/>
        </mask>
        <mask id="h" x="0" y="0" width="66" height="138" fill="#fff">
            <use xlink:href="#a"/>
        </mask>
    </defs>
    <g fill="none" fill-rule="evenodd">
        <path fill="#F7931A" d="M0 341h66v2H0z"/>
        <path fill="#62688F" d="M82 339h66v4H82z"/>
        <g transform="translate(246 43)">
            <mask id="d" fill="#fff">
                <use xlink:href="#b"/>
            </mask>
            <use fill="url(#c)" xlink:href="#b"/>
            <g mask="url(#d)">
                <path d="M5.746 244.68c22.785 13.606 28.957 29.245 18.515 46.916-10.442 17.67-8.043 33.305 7.2 46.903-9.022-25.606-9.022-38.409 0-38.409 9.02 0 10.736 8.742 5.145 26.225 10.818-6.16 11.335-20.071 1.551-41.736-14.676-32.497 11.094-52.725 15.98-40.87 4.886 11.855.989 16.45-4.277 25.139-5.265 8.688-2.876 23.113 10.02 31.242-6.884-9.906-5.472-24.385 3.334-24.385 8.805 0 3 10.62 0 13.957 7.4-1.182 12.853-15.905 1.882-35.568-7.314-13.108-1.574-27.03 17.218-41.762L78.842 168-6 185.792l11.746 58.887z" fill="#D12222"  transform="rotate(180 38.157 253.25)"/>
            </g>

        </g>
        <use fill="url(#f)" xlink:href="#e" transform="translate(328 -37)"/>
        <g stroke="#D15C22" mask="url(#g)" stroke-width="6" stroke-linejoin="round" stroke-dasharray="6,4" transform="translate(164 205)">
            <use mask="url(#h)" xlink:href="#a"/>
        </g>
        <text font-family="Roboto-Bold, Roboto" font-size="16" font-weight="bold" letter-spacing=".25" fill="#FFF" transform="translate(0 -37)">
            <tspan x="24" y="362">10</tspan>
        </text>
        <text font-family="Roboto-Bold, Roboto" font-size="16" font-weight="bold" letter-spacing=".25" fill="#FFF" transform="translate(0 -37)">
            <tspan x="106.07" y="362">25</tspan>
        </text>
        <text font-family="Roboto-Bold, Roboto" font-size="16" font-weight="bold" letter-spacing=".25" fill="#FFF" transform="translate(0 -37)">
            <tspan x="257.953" y="362">2,000</tspan>
        </text>
        <text font-family="Roboto-Bold, Roboto" font-size="16" font-weight="bold" letter-spacing=".25" fill="#FFF" transform="translate(0 -37)">
            <tspan x="175.953" y="362">1,000</tspan>
        </text>
        <text font-family="Roboto-Bold, Roboto" font-size="16" font-weight="bold" letter-spacing=".25" fill="#FFF" transform="translate(0 -37)">
            <tspan x="335.238" y="362">10,000</tspan>
        </text>
    </g>
</svg>
