<svg width="394" height="343" viewBox="0 0 394 343" xmlns="http://www.w3.org/2000/svg" xmlns:xlink="http://www.w3.org/1999/xlink">
    <defs>
        <linearGradient x1="50%" y1="7.365%" x2="50%" y2="99.59%" id="c">
            <stop stop-color="#FFC32D" offset="0%"/>
            <stop stop-color="#D12222" offset="100%"/>
        </linearGradient>
        <path id="b" d="M0 24L33 0l33 24v276H0z"/>
        <linearGradient x1="50%" y1="9.809%" x2="50%" y2="87.728%" id="f">
            <stop stop-color="#2DC3FF" stop-opacity="0" offset="0%"/>
            <stop stop-color="#BD1ADA" offset="100%"/>
        </linearGradient>
    </defs>
    <g >
        <path fill="#F7931A" d="M0 341h66v2H0z"/>
        <path fill="#62688F" d="M82 339h66v4H82z"/>
        <g transform="translate(246 43)">
            <mask id="d" fill="#fff">
                <use xlink:href="#b"/>
            </mask>
            <use fill="url(#c)" xlink:href="#b"/>
            <g mask="url(#d)">
                <path d="M5.746 244.68c22.785 13.606 28.957 29.245 18.515 46.916-10.442 17.67-8.043 33.305 7.2 46.903-9.022-25.606-9.022-38.409 0-38.409 9.02 0 10.736 8.742 5.145 26.225 10.818-6.16 11.335-20.071 1.551-41.736-14.676-32.497 11.094-52.725 15.98-40.87 4.886 11.855.989 16.45-4.277 25.139-5.265 8.688-2.876 23.113 10.02 31.242-6.884-9.906-5.472-24.385 3.334-24.385 8.805 0 3 10.62 0 13.957 7.4-1.182 12.853-15.905 1.882-35.568-7.314-13.108-1.574-27.03 17.218-41.762L78.842 168-6 185.792l11.746 58.887z" fill="#D12222"  transform="rotate(180 38.157 253.25)"/>
            </g>
        </g>
        <path fill="url(#f)" transform="translate(328 -37)" d="M0 0h66v380H0z"/>
        <path d="M0 0h62v135H0z" fill="none" stroke="#D15C22" stroke-width="3" stroke-linecap="square" stroke-dasharray="4,6" transform="translate(166 207)"/>
        <path d="M29.9297 325h-2.2813v-9.3594H25.336v-1.6094l4.5938-.4062V325zm11.9375-4.4297c0 1.5052-.345 2.6471-1.0352 3.4258-.69.7786-1.6237 1.168-2.8008 1.168-1.1875 0-2.1276-.3894-2.8203-1.168-.6927-.7787-1.039-1.9206-1.039-3.4258v-2.5078c0-1.5.345-2.642 1.0351-3.4258.6901-.7838 1.6263-1.1758 2.8086-1.1758 1.1771 0 2.1133.392 2.8086 1.1758.6953.7839 1.043 1.9258 1.043 3.4258v2.5078zm-2.2734-2.7422c0-.901-.1355-1.5612-.4063-1.9804-.2708-.4193-.6615-.629-1.1719-.629-.5156 0-.9062.2084-1.1718.625-.2657.4167-.3985 1.0782-.3985 1.9844v2.961c0 .9166.1341 1.5833.4024 2 .2682.4166.6627.625 1.1835.625.5105 0 .8985-.2084 1.1641-.625.2656-.4167.3984-1.0834.3984-2v-2.961zM114.6094 325h-7.7656v-1.4922l3.6796-3.9453c.5313-.6094.9089-1.1237 1.1329-1.543.224-.4192.3359-.8086.3359-1.168 0-.4791-.129-.871-.3867-1.1757-.2578-.3047-.6237-.457-1.0977-.457-.526 0-.9258.1783-1.1992.5351-.2734.3568-.4102.832-.4102 1.4258h-2.2187l-.0156-.0469c-.026-1.026.3112-1.8945 1.0117-2.6055.7005-.7109 1.6445-1.0664 2.832-1.0664 1.1719 0 2.0925.3047 2.7617.9141.6693.6094 1.004 1.4219 1.004 2.4375 0 .6875-.1889 1.3216-.5665 1.9023-.3776.5808-1.0013 1.3425-1.871 2.2852l-2.0235 2.211.0156.039h4.7813V325zm1.9531-5.039l.6563-6.336h6.3437v1.8281h-4.4766l-.3125 2.625c.2084-.1562.461-.2851.7579-.3867.2968-.1016.625-.155.9843-.1601 1.0938-.0157 1.9414.315 2.543.9921.6016.6771.9023 1.6198.9023 2.8282 0 1.0937-.3294 2.0026-.9882 2.7265-.6589.724-1.6081 1.086-2.8477 1.086-1.0469 0-1.9427-.2852-2.6875-.8555-.7448-.5703-1.1042-1.3555-1.0781-2.3555l.0156-.039 2.1953-.1094c0 .5052.1432.8997.4297 1.1836.2865.2838.6615.4258 1.125.4258.5313 0 .9232-.1888 1.1758-.5664.2526-.3776.3789-.8711.3789-1.4805 0-.6563-.1354-1.1823-.4063-1.5781-.2708-.3959-.6718-.5938-1.203-.5938-.4376 0-.7722.0807-1.004.2422s-.3971.3802-.496.6563l-2.0079-.1329zM266.4922 325h-7.7656v-1.4922l3.6796-3.9453c.5313-.6094.9089-1.1237 1.1329-1.543.224-.4192.3359-.8086.3359-1.168 0-.4791-.1289-.871-.3867-1.1757-.2578-.3047-.6237-.457-1.0977-.457-.526 0-.9258.1783-1.1992.5351-.2734.3568-.4101.832-.4101 1.4258h-2.2188l-.0156-.0469c-.026-1.026.3112-1.8945 1.0117-2.6055.7005-.7109 1.6445-1.0664 2.832-1.0664 1.172 0 2.0925.3047 2.7617.9141.6693.6094 1.004 1.4219 1.004 2.4375 0 .6875-.1889 1.3216-.5665 1.9023-.3776.5808-1.0013 1.3425-1.871 2.2852l-2.0235 2.211.0156.039h4.7813V325zm4.1484-.1016l-1.2422 2.461h-1.5234l.5469-2.5313v-1.7812h2.2187v1.8515zm9.5547-4.328c0 1.5051-.345 2.647-1.0351 3.4257-.6902.7786-1.6237 1.168-2.8008 1.168-1.1875 0-2.1276-.3894-2.8203-1.168-.6927-.7787-1.0391-1.9206-1.0391-3.4258v-2.5078c0-1.5.345-2.642 1.0352-3.4258.69-.7838 1.6263-1.1758 2.8086-1.1758 1.177 0 2.1132.392 2.8085 1.1758.6954.7839 1.043 1.9258 1.043 3.4258v2.5078zm-2.2734-2.7423c0-.901-.1354-1.5612-.4063-1.9804-.2708-.4193-.6614-.629-1.1719-.629-.5156 0-.9062.2084-1.1718.625-.2657.4167-.3985 1.0782-.3985 1.9844v2.961c0 .9166.1342 1.5833.4024 2 .2682.4166.6627.625 1.1836.625.5104 0 .8984-.2084 1.164-.625.2657-.4167.3985-1.0834.3985-2v-2.961zm11.7031 2.7422c0 1.5052-.345 2.6471-1.0352 3.4258-.69.7786-1.6236 1.168-2.8007 1.168-1.1875 0-2.1276-.3894-2.8204-1.168-.6927-.7787-1.039-1.9206-1.039-3.4258v-2.5078c0-1.5.345-2.642 1.0351-3.4258.6902-.7838 1.6263-1.1758 2.8086-1.1758 1.1771 0 2.1133.392 2.8086 1.1758.6953.7839 1.043 1.9258 1.043 3.4258v2.5078zm-2.2734-2.7422c0-.901-.1355-1.5612-.4063-1.9804-.2708-.4193-.6614-.629-1.1719-.629-.5156 0-.9062.2084-1.1718.625-.2657.4167-.3985 1.0782-.3985 1.9844v2.961c0 .9166.1341 1.5833.4024 2 .2682.4166.6627.625 1.1836.625.5104 0 .8984-.2084 1.164-.625.2657-.4167.3985-1.0834.3985-2v-2.961zm11.703 2.7422c0 1.5052-.345 2.6471-1.035 3.4258-.6902.7786-1.6238 1.168-2.8009 1.168-1.1875 0-2.1276-.3894-2.8203-1.168-.6927-.7787-1.039-1.9206-1.039-3.4258v-2.5078c0-1.5.345-2.642 1.0351-3.4258.6901-.7838 1.6263-1.1758 2.8086-1.1758 1.1771 0 2.1133.392 2.8086 1.1758.6953.7839 1.043 1.9258 1.043 3.4258v2.5078zm-2.2733-2.7422c0-.901-.1355-1.5612-.4063-1.9804-.2708-.4193-.6615-.629-1.1719-.629-.5156 0-.9062.2084-1.1719.625-.2656.4167-.3984 1.0782-.3984 1.9844v2.961c0 .9166.1341 1.5833.4024 2 .2682.4166.6627.625 1.1836.625.5104 0 .8984-.2084 1.164-.625.2656-.4167.3985-1.0834.3985-2v-2.961zM181.8828 325h-2.2812v-9.3594h-2.3125v-1.6094l4.5937-.4062V325zm6.7578-.1016l-1.2422 2.461h-1.5234l.5469-2.5313v-1.7812h2.2187v1.8515zm9.5547-4.328c0 1.5051-.345 2.647-1.0351 3.4257-.6902.7786-1.6237 1.168-2.8008 1.168-1.1875 0-2.1276-.3894-2.8203-1.168-.6927-.7787-1.0391-1.9206-1.0391-3.4258v-2.5078c0-1.5.345-2.642 1.0352-3.4258.69-.7838 1.6263-1.1758 2.8085-1.1758 1.1771 0 2.1133.392 2.8086 1.1758.6954.7839 1.043 1.9258 1.043 3.4258v2.5078zm-2.2734-2.7423c0-.901-.1354-1.5612-.4063-1.9804-.2708-.4193-.6614-.629-1.1719-.629-.5156 0-.9062.2084-1.1718.625-.2657.4167-.3985 1.0782-.3985 1.9844v2.961c0 .9166.1342 1.5833.4024 2 .2682.4166.6627.625 1.1836.625.5104 0 .8984-.2084 1.164-.625.2657-.4167.3985-1.0834.3985-2v-2.961zm11.7031 2.7422c0 1.5052-.345 2.6471-1.0352 3.4258-.69.7786-1.6236 1.168-2.8007 1.168-1.1875 0-2.1276-.3894-2.8203-1.168-.6928-.7787-1.0391-1.9206-1.0391-3.4258v-2.5078c0-1.5.345-2.642 1.0351-3.4258.6902-.7838 1.6263-1.1758 2.8086-1.1758 1.1771 0 2.1133.392 2.8086 1.1758.6953.7839 1.043 1.9258 1.043 3.4258v2.5078zm-2.2734-2.7422c0-.901-.1355-1.5612-.4063-1.9804-.2708-.4193-.6614-.629-1.1719-.629-.5156 0-.9062.2084-1.1718.625-.2657.4167-.3985 1.0782-.3985 1.9844v2.961c0 .9166.1341 1.5833.4024 2 .2682.4166.6627.625 1.1836.625.5104 0 .8984-.2084 1.164-.625.2657-.4167.3985-1.0834.3985-2v-2.961zm11.703 2.7422c0 1.5052-.345 2.6471-1.035 3.4258-.6902.7786-1.6238 1.168-2.8008 1.168-1.1876 0-2.1277-.3894-2.8204-1.168-.6927-.7787-1.039-1.9206-1.039-3.4258v-2.5078c0-1.5.345-2.642 1.0351-3.4258.6901-.7838 1.6263-1.1758 2.8086-1.1758 1.1771 0 2.1133.392 2.8086 1.1758.6953.7839 1.043 1.9258 1.043 3.4258v2.5078zm-2.2733-2.7422c0-.901-.1355-1.5612-.4063-1.9804-.2708-.4193-.6615-.629-1.1719-.629-.5156 0-.9062.2084-1.1719.625-.2656.4167-.3984 1.0782-.3984 1.9844v2.961c0 .9166.1341 1.5833.4024 2 .2682.4166.6627.625 1.1835.625.5105 0 .8985-.2084 1.1641-.625.2656-.4167.3984-1.0834.3984-2v-2.961zM341.168 325h-2.2813v-9.3594h-2.3125v-1.6094l4.5938-.4062V325zm11.9375-4.4297c0 1.5052-.345 2.6471-1.0352 3.4258-.69.7786-1.6237 1.168-2.8008 1.168-1.1875 0-2.1276-.3894-2.8203-1.168-.6927-.7787-1.039-1.9206-1.039-3.4258v-2.5078c0-1.5.345-2.642 1.0351-3.4258.6901-.7838 1.6263-1.1758 2.8086-1.1758 1.1771 0 2.1133.392 2.8086 1.1758.6953.7839 1.043 1.9258 1.043 3.4258v2.5078zm-2.2735-2.7422c0-.901-.1354-1.5612-.4062-1.9804-.2709-.4193-.6615-.629-1.1719-.629-.5156 0-.9062.2084-1.1719.625-.2656.4167-.3984 1.0782-.3984 1.9844v2.961c0 .9166.1341 1.5833.4023 2 .2683.4166.6628.625 1.1836.625.5104 0 .8985-.2084 1.164-.625.2657-.4167.3985-1.0834.3985-2v-2.961zm6.5235 7.0703l-1.2422 2.461h-1.5235l.547-2.5313v-1.7812h2.2187v1.8515zm9.5547-4.328c0 1.5051-.345 2.647-1.0352 3.4257-.6901.7786-1.6237 1.168-2.8008 1.168-1.1875 0-2.1276-.3894-2.8203-1.168-.6927-.7787-1.039-1.9206-1.039-3.4258v-2.5078c0-1.5.345-2.642 1.0351-3.4258.6901-.7838 1.6263-1.1758 2.8086-1.1758 1.177 0 2.1133.392 2.8086 1.1758.6953.7839 1.043 1.9258 1.043 3.4258v2.5078zm-2.2735-2.7423c0-.901-.1354-1.5612-.4062-1.9804-.2709-.4193-.6615-.629-1.172-.629-.5155 0-.9062.2084-1.1718.625-.2656.4167-.3984 1.0782-.3984 1.9844v2.961c0 .9166.134 1.5833.4023 2 .2683.4166.6628.625 1.1836.625.5104 0 .8985-.2084 1.164-.625.2657-.4167.3985-1.0834.3985-2v-2.961zm11.7031 2.7422c0 1.5052-.345 2.6471-1.0351 3.4258-.6901.7786-1.6237 1.168-2.8008 1.168-1.1875 0-2.1276-.3894-2.8203-1.168-.6927-.7787-1.039-1.9206-1.039-3.4258v-2.5078c0-1.5.345-2.642 1.035-3.4258.6902-.7838 1.6264-1.1758 2.8087-1.1758 1.177 0 2.1133.392 2.8086 1.1758.6953.7839 1.043 1.9258 1.043 3.4258v2.5078zm-2.2734-2.7422c0-.901-.1354-1.5612-.4062-1.9804-.2709-.4193-.6615-.629-1.172-.629-.5155 0-.9062.2084-1.1718.625-.2656.4167-.3984 1.0782-.3984 1.9844v2.961c0 .9166.134 1.5833.4023 2 .2682.4166.6628.625 1.1836.625.5104 0 .8984-.2084 1.164-.625.2657-.4167.3985-1.0834.3985-2v-2.961zm11.7031 2.7422c0 1.5052-.345 2.6471-1.0351 3.4258-.6901.7786-1.6237 1.168-2.8008 1.168-1.1875 0-2.1276-.3894-2.8203-1.168-.6927-.7787-1.039-1.9206-1.039-3.4258v-2.5078c0-1.5.345-2.642 1.035-3.4258.6902-.7838 1.6264-1.1758 2.8087-1.1758 1.177 0 2.1132.392 2.8086 1.1758.6953.7839 1.043 1.9258 1.043 3.4258v2.5078zm-2.2734-2.7422c0-.901-.1354-1.5612-.4063-1.9804-.2708-.4193-.6614-.629-1.1718-.629-.5157 0-.9063.2084-1.172.625-.2655.4167-.3983 1.0782-.3983 1.9844v2.961c0 .9166.134 1.5833.4023 2 .2682.4166.6628.625 1.1836.625.5104 0 .8984-.2084 1.164-.625.2657-.4167.3985-1.0834.3985-2v-2.961z" fill="#FFF"/>
    </g>
</svg>
