<?xml version="1.0" encoding="UTF-8"?>
<svg width="296px" height="199px" viewBox="0 0 296 199" version="1.1" xmlns="http://www.w3.org/2000/svg" xmlns:xlink="http://www.w3.org/1999/xlink">
    <!-- Generator: Sketch 49.3 (51167) - http://www.bohemiancoding.com/sketch -->
    <title>Group 27</title>
    <desc>Created with Sketch.</desc>
    <defs></defs>
    <g id="Landing-3.0" stroke="none" stroke-width="1" fill="none" fill-rule="evenodd">
        <g id="Landing/minter-landing-3-en" transform="translate(-582.000000, -3603.000000)">
            <g id="5" transform="translate(0.000000, 3453.000000)">
                <g id="legend" transform="translate(582.000000, 150.000000)">
                    <g id="Group-12">
                        <g id="Group-19">
                            <g id="Group-27">
                                <rect id="Rectangle-9" fill="#6F2C21" x="0" y="164" width="296" height="2" rx="1"></rect>
                                <g id="Group-16" transform="translate(6.000000, 0.000000)">
                                    <text id="$0.001" font-family="Roboto-Bold, Roboto" font-size="16" font-weight="bold" letter-spacing="0.25" fill="#FFFFFF">
                                        <tspan x="0.47265625" y="197">$0.001</tspan>
                                    </text>
                                    <text id="$0.030" font-family="Roboto-Bold, Roboto" font-size="16" font-weight="bold" letter-spacing="0.25" fill="#FFFFFF">
                                        <tspan x="78.4726562" y="197">$0.030</tspan>
                                    </text>
                                    <text id="$0.100" font-family="Roboto-Bold, Roboto" font-size="16" font-weight="bold" letter-spacing="0.25" fill="#FFFFFF">
                                        <tspan x="195.472656" y="197">$0.100</tspan>
                                    </text>
                                    <g id="Group-15" transform="translate(14.000000, 40.000000)" fill="#FFB513">
                                        <rect id="Rectangle-7" x="0" y="120" width="25" height="4" rx="1"></rect>
                                        <path d="M235,120 L258,120 C258.552285,120 259,120.447715 259,121 L259,123 C259,123.552285 258.552285,124 258,124 L235,124 C234.447715,124 234,123.552285 234,123 L234,121 C234,120.447715 234.447715,120 235,120 Z M209,120 L232,120 C232.552285,120 233,120.447715 233,121 L233,123 C233,123.552285 232.552285,124 232,124 L209,124 C208.447715,124 208,123.552285 208,123 L208,121 C208,120.447715 208.447715,120 209,120 Z M183,120 L206,120 C206.552285,120 207,120.447715 207,121 L207,123 C207,123.552285 206.552285,124 206,124 L183,124 C182.447715,124 182,123.552285 182,123 L182,121 C182,120.447715 182.447715,120 183,120 Z M157,120 L180,120 C180.552285,120 181,120.447715 181,121 L181,123 C181,123.552285 180.552285,124 180,124 L157,124 C156.447715,124 156,123.552285 156,123 L156,121 C156,120.447715 156.447715,120 157,120 Z M235,115 L258,115 C258.552285,115 259,115.447715 259,116 L259,118 C259,118.552285 258.552285,119 258,119 L235,119 C234.447715,119 234,118.552285 234,118 L234,116 C234,115.447715 234.447715,115 235,115 Z M209,115 L232,115 C232.552285,115 233,115.447715 233,116 L233,118 C233,118.552285 232.552285,119 232,119 L209,119 C208.447715,119 208,118.552285 208,118 L208,116 C208,115.447715 208.447715,115 209,115 Z M183,115 L206,115 C206.552285,115 207,115.447715 207,116 L207,118 C207,118.552285 206.552285,119 206,119 L183,119 C182.447715,119 182,118.552285 182,118 L182,116 C182,115.447715 182.447715,115 183,115 Z M157,115 L180,115 C180.552285,115 181,115.447715 181,116 L181,118 C181,118.552285 180.552285,119 180,119 L157,119 C156.447715,119 156,118.552285 156,118 L156,116 C156,115.447715 156.447715,115 157,115 Z M235,110 L258,110 C258.552285,110 259,110.447715 259,111 L259,113 C259,113.552285 258.552285,114 258,114 L235,114 C234.447715,114 234,113.552285 234,113 L234,111 C234,110.447715 234.447715,110 235,110 Z M209,110 L232,110 C232.552285,110 233,110.447715 233,111 L233,113 C233,113.552285 232.552285,114 232,114 L209,114 C208.447715,114 208,113.552285 208,113 L208,111 C208,110.447715 208.447715,110 209,110 Z M183,110 L206,110 C206.552285,110 207,110.447715 207,111 L207,113 C207,113.552285 206.552285,114 206,114 L183,114 C182.447715,114 182,113.552285 182,113 L182,111 C182,110.447715 182.447715,110 183,110 Z M157,110 L180,110 C180.552285,110 181,110.447715 181,111 L181,113 C181,113.552285 180.552285,114 180,114 L157,114 C156.447715,114 156,113.552285 156,113 L156,111 C156,110.447715 156.447715,110 157,110 Z M235,105 L258,105 C258.552285,105 259,105.447715 259,106 L259,108 C259,108.552285 258.552285,109 258,109 L235,109 C234.447715,109 234,108.552285 234,108 L234,106 C234,105.447715 234.447715,105 235,105 Z M209,105 L232,105 C232.552285,105 233,105.447715 233,106 L233,108 C233,108.552285 232.552285,109 232,109 L209,109 C208.447715,109 208,108.552285 208,108 L208,106 C208,105.447715 208.447715,105 209,105 Z M183,105 L206,105 C206.552285,105 207,105.447715 207,106 L207,108 C207,108.552285 206.552285,109 206,109 L183,109 C182.447715,109 182,108.552285 182,108 L182,106 C182,105.447715 182.447715,105 183,105 Z M157,105 L180,105 C180.552285,105 181,105.447715 181,106 L181,108 C181,108.552285 180.552285,109 180,109 L157,109 C156.447715,109 156,108.552285 156,108 L156,106 C156,105.447715 156.447715,105 157,105 Z M235,100 L258,100 C258.552285,100 259,100.447715 259,101 L259,103 C259,103.552285 258.552285,104 258,104 L235,104 C234.447715,104 234,103.552285 234,103 L234,101 C234,100.447715 234.447715,100 235,100 Z M209,100 L232,100 C232.552285,100 233,100.447715 233,101 L233,103 C233,103.552285 232.552285,104 232,104 L209,104 C208.447715,104 208,103.552285 208,103 L208,101 C208,100.447715 208.447715,100 209,100 Z M183,100 L206,100 C206.552285,100 207,100.447715 207,101 L207,103 C207,103.552285 206.552285,104 206,104 L183,104 C182.447715,104 182,103.552285 182,103 L182,101 C182,100.447715 182.447715,100 183,100 Z M157,100 L180,100 C180.552285,100 181,100.447715 181,101 L181,103 C181,103.552285 180.552285,104 180,104 L157,104 C156.447715,104 156,103.552285 156,103 L156,101 C156,100.447715 156.447715,100 157,100 Z M235,95 L258,95 C258.552285,95 259,95.4477153 259,96 L259,98 C259,98.5522847 258.552285,99 258,99 L235,99 C234.447715,99 234,98.5522847 234,98 L234,96 C234,95.4477153 234.447715,95 235,95 Z M209,95 L232,95 C232.552285,95 233,95.4477153 233,96 L233,98 C233,98.5522847 232.552285,99 232,99 L209,99 C208.447715,99 208,98.5522847 208,98 L208,96 C208,95.4477153 208.447715,95 209,95 Z M183,95 L206,95 C206.552285,95 207,95.4477153 207,96 L207,98 C207,98.5522847 206.552285,99 206,99 L183,99 C182.447715,99 182,98.5522847 182,98 L182,96 C182,95.4477153 182.447715,95 183,95 Z M157,95 L180,95 C180.552285,95 181,95.4477153 181,96 L181,98 C181,98.5522847 180.552285,99 180,99 L157,99 C156.447715,99 156,98.5522847 156,98 L156,96 C156,95.4477153 156.447715,95 157,95 Z M235,90 L258,90 C258.552285,90 259,90.4477153 259,91 L259,93 C259,93.5522847 258.552285,94 258,94 L235,94 C234.447715,94 234,93.5522847 234,93 L234,91 C234,90.4477153 234.447715,90 235,90 Z M209,90 L232,90 C232.552285,90 233,90.4477153 233,91 L233,93 C233,93.5522847 232.552285,94 232,94 L209,94 C208.447715,94 208,93.5522847 208,93 L208,91 C208,90.4477153 208.447715,90 209,90 Z M183,90 L206,90 C206.552285,90 207,90.4477153 207,91 L207,93 C207,93.5522847 206.552285,94 206,94 L183,94 C182.447715,94 182,93.5522847 182,93 L182,91 C182,90.4477153 182.447715,90 183,90 Z M157,90 L180,90 C180.552285,90 181,90.4477153 181,91 L181,93 C181,93.5522847 180.552285,94 180,94 L157,94 C156.447715,94 156,93.5522847 156,93 L156,91 C156,90.4477153 156.447715,90 157,90 Z M235,85 L258,85 C258.552285,85 259,85.4477153 259,86 L259,88 C259,88.5522847 258.552285,89 258,89 L235,89 C234.447715,89 234,88.5522847 234,88 L234,86 C234,85.4477153 234.447715,85 235,85 Z M209,85 L232,85 C232.552285,85 233,85.4477153 233,86 L233,88 C233,88.5522847 232.552285,89 232,89 L209,89 C208.447715,89 208,88.5522847 208,88 L208,86 C208,85.4477153 208.447715,85 209,85 Z M183,85 L206,85 C206.552285,85 207,85.4477153 207,86 L207,88 C207,88.5522847 206.552285,89 206,89 L183,89 C182.447715,89 182,88.5522847 182,88 L182,86 C182,85.4477153 182.447715,85 183,85 Z M157,85 L180,85 C180.552285,85 181,85.4477153 181,86 L181,88 C181,88.5522847 180.552285,89 180,89 L157,89 C156.447715,89 156,88.5522847 156,88 L156,86 C156,85.4477153 156.447715,85 157,85 Z M235,80 L258,80 C258.552285,80 259,80.4477153 259,81 L259,83 C259,83.5522847 258.552285,84 258,84 L235,84 C234.447715,84 234,83.5522847 234,83 L234,81 C234,80.4477153 234.447715,80 235,80 Z M209,80 L232,80 C232.552285,80 233,80.4477153 233,81 L233,83 C233,83.5522847 232.552285,84 232,84 L209,84 C208.447715,84 208,83.5522847 208,83 L208,81 C208,80.4477153 208.447715,80 209,80 Z M183,80 L206,80 C206.552285,80 207,80.4477153 207,81 L207,83 C207,83.5522847 206.552285,84 206,84 L183,84 C182.447715,84 182,83.5522847 182,83 L182,81 C182,80.4477153 182.447715,80 183,80 Z M157,80 L180,80 C180.552285,80 181,80.4477153 181,81 L181,83 C181,83.5522847 180.552285,84 180,84 L157,84 C156.447715,84 156,83.5522847 156,83 L156,81 C156,80.4477153 156.447715,80 157,80 Z M235,75 L258,75 C258.552285,75 259,75.4477153 259,76 L259,78 C259,78.5522847 258.552285,79 258,79 L235,79 C234.447715,79 234,78.5522847 234,78 L234,76 C234,75.4477153 234.447715,75 235,75 Z M209,75 L232,75 C232.552285,75 233,75.4477153 233,76 L233,78 C233,78.5522847 232.552285,79 232,79 L209,79 C208.447715,79 208,78.5522847 208,78 L208,76 C208,75.4477153 208.447715,75 209,75 Z M183,75 L206,75 C206.552285,75 207,75.4477153 207,76 L207,78 C207,78.5522847 206.552285,79 206,79 L183,79 C182.447715,79 182,78.5522847 182,78 L182,76 C182,75.4477153 182.447715,75 183,75 Z M157,75 L180,75 C180.552285,75 181,75.4477153 181,76 L181,78 C181,78.5522847 180.552285,79 180,79 L157,79 C156.447715,79 156,78.5522847 156,78 L156,76 C156,75.4477153 156.447715,75 157,75 Z M235,70 L258,70 C258.552285,70 259,70.4477153 259,71 L259,73 C259,73.5522847 258.552285,74 258,74 L235,74 C234.447715,74 234,73.5522847 234,73 L234,71 C234,70.4477153 234.447715,70 235,70 Z M209,70 L232,70 C232.552285,70 233,70.4477153 233,71 L233,73 C233,73.5522847 232.552285,74 232,74 L209,74 C208.447715,74 208,73.5522847 208,73 L208,71 C208,70.4477153 208.447715,70 209,70 Z M183,70 L206,70 C206.552285,70 207,70.4477153 207,71 L207,73 C207,73.5522847 206.552285,74 206,74 L183,74 C182.447715,74 182,73.5522847 182,73 L182,71 C182,70.4477153 182.447715,70 183,70 Z M157,70 L180,70 C180.552285,70 181,70.4477153 181,71 L181,73 C181,73.5522847 180.552285,74 180,74 L157,74 C156.447715,74 156,73.5522847 156,73 L156,71 C156,70.4477153 156.447715,70 157,70 Z M235,65 L258,65 C258.552285,65 259,65.4477153 259,66 L259,68 C259,68.5522847 258.552285,69 258,69 L235,69 C234.447715,69 234,68.5522847 234,68 L234,66 C234,65.4477153 234.447715,65 235,65 Z M209,65 L232,65 C232.552285,65 233,65.4477153 233,66 L233,68 C233,68.5522847 232.552285,69 232,69 L209,69 C208.447715,69 208,68.5522847 208,68 L208,66 C208,65.4477153 208.447715,65 209,65 Z M183,65 L206,65 C206.552285,65 207,65.4477153 207,66 L207,68 C207,68.5522847 206.552285,69 206,69 L183,69 C182.447715,69 182,68.5522847 182,68 L182,66 C182,65.4477153 182.447715,65 183,65 Z M157,65 L180,65 C180.552285,65 181,65.4477153 181,66 L181,68 C181,68.5522847 180.552285,69 180,69 L157,69 C156.447715,69 156,68.5522847 156,68 L156,66 C156,65.4477153 156.447715,65 157,65 Z M235,60 L258,60 C258.552285,60 259,60.4477153 259,61 L259,63 C259,63.5522847 258.552285,64 258,64 L235,64 C234.447715,64 234,63.5522847 234,63 L234,61 C234,60.4477153 234.447715,60 235,60 Z M209,60 L232,60 C232.552285,60 233,60.4477153 233,61 L233,63 C233,63.5522847 232.552285,64 232,64 L209,64 C208.447715,64 208,63.5522847 208,63 L208,61 C208,60.4477153 208.447715,60 209,60 Z M183,60 L206,60 C206.552285,60 207,60.4477153 207,61 L207,63 C207,63.5522847 206.552285,64 206,64 L183,64 C182.447715,64 182,63.5522847 182,63 L182,61 C182,60.4477153 182.447715,60 183,60 Z M157,60 L180,60 C180.552285,60 181,60.4477153 181,61 L181,63 C181,63.5522847 180.552285,64 180,64 L157,64 C156.447715,64 156,63.5522847 156,63 L156,61 C156,60.4477153 156.447715,60 157,60 Z M235,55 L258,55 C258.552285,55 259,55.4477153 259,56 L259,58 C259,58.5522847 258.552285,59 258,59 L235,59 C234.447715,59 234,58.5522847 234,58 L234,56 C234,55.4477153 234.447715,55 235,55 Z M209,55 L232,55 C232.552285,55 233,55.4477153 233,56 L233,58 C233,58.5522847 232.552285,59 232,59 L209,59 C208.447715,59 208,58.5522847 208,58 L208,56 C208,55.4477153 208.447715,55 209,55 Z M183,55 L206,55 C206.552285,55 207,55.4477153 207,56 L207,58 C207,58.5522847 206.552285,59 206,59 L183,59 C182.447715,59 182,58.5522847 182,58 L182,56 C182,55.4477153 182.447715,55 183,55 Z M157,55 L180,55 C180.552285,55 181,55.4477153 181,56 L181,58 C181,58.5522847 180.552285,59 180,59 L157,59 C156.447715,59 156,58.5522847 156,58 L156,56 C156,55.4477153 156.447715,55 157,55 Z M235,50 L258,50 C258.552285,50 259,50.4477153 259,51 L259,53 C259,53.5522847 258.552285,54 258,54 L235,54 C234.447715,54 234,53.5522847 234,53 L234,51 C234,50.4477153 234.447715,50 235,50 Z M209,50 L232,50 C232.552285,50 233,50.4477153 233,51 L233,53 C233,53.5522847 232.552285,54 232,54 L209,54 C208.447715,54 208,53.5522847 208,53 L208,51 C208,50.4477153 208.447715,50 209,50 Z M183,50 L206,50 C206.552285,50 207,50.4477153 207,51 L207,53 C207,53.5522847 206.552285,54 206,54 L183,54 C182.447715,54 182,53.5522847 182,53 L182,51 C182,50.4477153 182.447715,50 183,50 Z M157,50 L180,50 C180.552285,50 181,50.4477153 181,51 L181,53 C181,53.5522847 180.552285,54 180,54 L157,54 C156.447715,54 156,53.5522847 156,53 L156,51 C156,50.4477153 156.447715,50 157,50 Z M235,45 L258,45 C258.552285,45 259,45.4477153 259,46 L259,48 C259,48.5522847 258.552285,49 258,49 L235,49 C234.447715,49 234,48.5522847 234,48 L234,46 C234,45.4477153 234.447715,45 235,45 Z M209,45 L232,45 C232.552285,45 233,45.4477153 233,46 L233,48 C233,48.5522847 232.552285,49 232,49 L209,49 C208.447715,49 208,48.5522847 208,48 L208,46 C208,45.4477153 208.447715,45 209,45 Z M183,45 L206,45 C206.552285,45 207,45.4477153 207,46 L207,48 C207,48.5522847 206.552285,49 206,49 L183,49 C182.447715,49 182,48.5522847 182,48 L182,46 C182,45.4477153 182.447715,45 183,45 Z M157,45 L180,45 C180.552285,45 181,45.4477153 181,46 L181,48 C181,48.5522847 180.552285,49 180,49 L157,49 C156.447715,49 156,48.5522847 156,48 L156,46 C156,45.4477153 156.447715,45 157,45 Z M235,40 L258,40 C258.552285,40 259,40.4477153 259,41 L259,43 C259,43.5522847 258.552285,44 258,44 L235,44 C234.447715,44 234,43.5522847 234,43 L234,41 C234,40.4477153 234.447715,40 235,40 Z M209,40 L232,40 C232.552285,40 233,40.4477153 233,41 L233,43 C233,43.5522847 232.552285,44 232,44 L209,44 C208.447715,44 208,43.5522847 208,43 L208,41 C208,40.4477153 208.447715,40 209,40 Z M183,40 L206,40 C206.552285,40 207,40.4477153 207,41 L207,43 C207,43.5522847 206.552285,44 206,44 L183,44 C182.447715,44 182,43.5522847 182,43 L182,41 C182,40.4477153 182.447715,40 183,40 Z M157,40 L180,40 C180.552285,40 181,40.4477153 181,41 L181,43 C181,43.5522847 180.552285,44 180,44 L157,44 C156.447715,44 156,43.5522847 156,43 L156,41 C156,40.4477153 156.447715,40 157,40 Z M235,35 L258,35 C258.552285,35 259,35.4477153 259,36 L259,38 C259,38.5522847 258.552285,39 258,39 L235,39 C234.447715,39 234,38.5522847 234,38 L234,36 C234,35.4477153 234.447715,35 235,35 Z M209,35 L232,35 C232.552285,35 233,35.4477153 233,36 L233,38 C233,38.5522847 232.552285,39 232,39 L209,39 C208.447715,39 208,38.5522847 208,38 L208,36 C208,35.4477153 208.447715,35 209,35 Z M183,35 L206,35 C206.552285,35 207,35.4477153 207,36 L207,38 C207,38.5522847 206.552285,39 206,39 L183,39 C182.447715,39 182,38.5522847 182,38 L182,36 C182,35.4477153 182.447715,35 183,35 Z M157,35 L180,35 C180.552285,35 181,35.4477153 181,36 L181,38 C181,38.5522847 180.552285,39 180,39 L157,39 C156.447715,39 156,38.5522847 156,38 L156,36 C156,35.4477153 156.447715,35 157,35 Z M235,30 L258,30 C258.552285,30 259,30.4477153 259,31 L259,33 C259,33.5522847 258.552285,34 258,34 L235,34 C234.447715,34 234,33.5522847 234,33 L234,31 C234,30.4477153 234.447715,30 235,30 Z M209,30 L232,30 C232.552285,30 233,30.4477153 233,31 L233,33 C233,33.5522847 232.552285,34 232,34 L209,34 C208.447715,34 208,33.5522847 208,33 L208,31 C208,30.4477153 208.447715,30 209,30 Z M183,30 L206,30 C206.552285,30 207,30.4477153 207,31 L207,33 C207,33.5522847 206.552285,34 206,34 L183,34 C182.447715,34 182,33.5522847 182,33 L182,31 C182,30.4477153 182.447715,30 183,30 Z M157,30 L180,30 C180.552285,30 181,30.4477153 181,31 L181,33 C181,33.5522847 180.552285,34 180,34 L157,34 C156.447715,34 156,33.5522847 156,33 L156,31 C156,30.4477153 156.447715,30 157,30 Z M235,25 L258,25 C258.552285,25 259,25.4477153 259,26 L259,28 C259,28.5522847 258.552285,29 258,29 L235,29 C234.447715,29 234,28.5522847 234,28 L234,26 C234,25.4477153 234.447715,25 235,25 Z M209,25 L232,25 C232.552285,25 233,25.4477153 233,26 L233,28 C233,28.5522847 232.552285,29 232,29 L209,29 C208.447715,29 208,28.5522847 208,28 L208,26 C208,25.4477153 208.447715,25 209,25 Z M183,25 L206,25 C206.552285,25 207,25.4477153 207,26 L207,28 C207,28.5522847 206.552285,29 206,29 L183,29 C182.447715,29 182,28.5522847 182,28 L182,26 C182,25.4477153 182.447715,25 183,25 Z M157,25 L180,25 C180.552285,25 181,25.4477153 181,26 L181,28 C181,28.5522847 180.552285,29 180,29 L157,29 C156.447715,29 156,28.5522847 156,28 L156,26 C156,25.4477153 156.447715,25 157,25 Z M235,20 L258,20 C258.552285,20 259,20.4477153 259,21 L259,23 C259,23.5522847 258.552285,24 258,24 L235,24 C234.447715,24 234,23.5522847 234,23 L234,21 C234,20.4477153 234.447715,20 235,20 Z M209,20 L232,20 C232.552285,20 233,20.4477153 233,21 L233,23 C233,23.5522847 232.552285,24 232,24 L209,24 C208.447715,24 208,23.5522847 208,23 L208,21 C208,20.4477153 208.447715,20 209,20 Z M183,20 L206,20 C206.552285,20 207,20.4477153 207,21 L207,23 C207,23.5522847 206.552285,24 206,24 L183,24 C182.447715,24 182,23.5522847 182,23 L182,21 C182,20.4477153 182.447715,20 183,20 Z M157,20 L180,20 C180.552285,20 181,20.4477153 181,21 L181,23 C181,23.5522847 180.552285,24 180,24 L157,24 C156.447715,24 156,23.5522847 156,23 L156,21 C156,20.4477153 156.447715,20 157,20 Z M235,15 L258,15 C258.552285,15 259,15.4477153 259,16 L259,18 C259,18.5522847 258.552285,19 258,19 L235,19 C234.447715,19 234,18.5522847 234,18 L234,16 C234,15.4477153 234.447715,15 235,15 Z M209,15 L232,15 C232.552285,15 233,15.4477153 233,16 L233,18 C233,18.5522847 232.552285,19 232,19 L209,19 C208.447715,19 208,18.5522847 208,18 L208,16 C208,15.4477153 208.447715,15 209,15 Z M183,15 L206,15 C206.552285,15 207,15.4477153 207,16 L207,18 C207,18.5522847 206.552285,19 206,19 L183,19 C182.447715,19 182,18.5522847 182,18 L182,16 C182,15.4477153 182.447715,15 183,15 Z M157,15 L180,15 C180.552285,15 181,15.4477153 181,16 L181,18 C181,18.5522847 180.552285,19 180,19 L157,19 C156.447715,19 156,18.5522847 156,18 L156,16 C156,15.4477153 156.447715,15 157,15 Z M235,10 L258,10 C258.552285,10 259,10.4477153 259,11 L259,13 C259,13.5522847 258.552285,14 258,14 L235,14 C234.447715,14 234,13.5522847 234,13 L234,11 C234,10.4477153 234.447715,10 235,10 Z M209,10 L232,10 C232.552285,10 233,10.4477153 233,11 L233,13 C233,13.5522847 232.552285,14 232,14 L209,14 C208.447715,14 208,13.5522847 208,13 L208,11 C208,10.4477153 208.447715,10 209,10 Z M183,10 L206,10 C206.552285,10 207,10.4477153 207,11 L207,13 C207,13.5522847 206.552285,14 206,14 L183,14 C182.447715,14 182,13.5522847 182,13 L182,11 C182,10.4477153 182.447715,10 183,10 Z M157,10 L180,10 C180.552285,10 181,10.4477153 181,11 L181,13 C181,13.5522847 180.552285,14 180,14 L157,14 C156.447715,14 156,13.5522847 156,13 L156,11 C156,10.4477153 156.447715,10 157,10 Z M235,5 L258,5 C258.552285,5 259,5.44771525 259,6 L259,8 C259,8.55228475 258.552285,9 258,9 L235,9 C234.447715,9 234,8.55228475 234,8 L234,6 C234,5.44771525 234.447715,5 235,5 Z M209,5 L232,5 C232.552285,5 233,5.44771525 233,6 L233,8 C233,8.55228475 232.552285,9 232,9 L209,9 C208.447715,9 208,8.55228475 208,8 L208,6 C208,5.44771525 208.447715,5 209,5 Z M183,5 L206,5 C206.552285,5 207,5.44771525 207,6 L207,8 C207,8.55228475 206.552285,9 206,9 L183,9 C182.447715,9 182,8.55228475 182,8 L182,6 C182,5.44771525 182.447715,5 183,5 Z M157,5 L180,5 C180.552285,5 181,5.44771525 181,6 L181,8 C181,8.55228475 180.552285,9 180,9 L157,9 C156.447715,9 156,8.55228475 156,8 L156,6 C156,5.44771525 156.447715,5 157,5 Z M235,0 L258,0 C258.552285,1.86065652e-15 259,0.44771525 259,1 L259,3 C259,3.55228475 258.552285,4 258,4 L235,4 C234.447715,4 234,3.55228475 234,3 L234,1 C234,0.44771525 234.447715,1.01453063e-16 235,0 Z M209,0 L232,0 C232.552285,1.86065652e-15 233,0.44771525 233,1 L233,3 C233,3.55228475 232.552285,4 232,4 L209,4 C208.447715,4 208,3.55228475 208,3 L208,1 C208,0.44771525 208.447715,1.01453063e-16 209,0 Z M183,0 L206,0 C206.552285,1.86065652e-15 207,0.44771525 207,1 L207,3 C207,3.55228475 206.552285,4 206,4 L183,4 C182.447715,4 182,3.55228475 182,3 L182,1 C182,0.44771525 182.447715,1.01453063e-16 183,0 Z M157,0 L180,0 C180.552285,1.86065652e-15 181,0.44771525 181,1 L181,3 C181,3.55228475 180.552285,4 180,4 L157,4 C156.447715,4 156,3.55228475 156,3 L156,1 C156,0.44771525 156.447715,1.01453063e-16 157,0 Z" id="Combined-Shape"></path>
                                        <path d="M92,120 L115,120 C115.552285,120 116,120.447715 116,121 L116,123 C116,123.552285 115.552285,124 115,124 L92,124 C91.4477153,124 91,123.552285 91,123 L91,121 C91,120.447715 91.4477153,120 92,120 Z M66,120 L89,120 C89.5522847,120 90,120.447715 90,121 L90,123 C90,123.552285 89.5522847,124 89,124 L66,124 C65.4477153,124 65,123.552285 65,123 L65,121 C65,120.447715 65.4477153,120 66,120 Z M92,115 L115,115 C115.552285,115 116,115.447715 116,116 L116,118 C116,118.552285 115.552285,119 115,119 L92,119 C91.4477153,119 91,118.552285 91,118 L91,116 C91,115.447715 91.4477153,115 92,115 Z M66,115 L89,115 C89.5522847,115 90,115.447715 90,116 L90,118 C90,118.552285 89.5522847,119 89,119 L66,119 C65.4477153,119 65,118.552285 65,118 L65,116 C65,115.447715 65.4477153,115 66,115 Z M92,110 L115,110 C115.552285,110 116,110.447715 116,111 L116,113 C116,113.552285 115.552285,114 115,114 L92,114 C91.4477153,114 91,113.552285 91,113 L91,111 C91,110.447715 91.4477153,110 92,110 Z M66,110 L89,110 C89.5522847,110 90,110.447715 90,111 L90,113 C90,113.552285 89.5522847,114 89,114 L66,114 C65.4477153,114 65,113.552285 65,113 L65,111 C65,110.447715 65.4477153,110 66,110 Z M92,105 L115,105 C115.552285,105 116,105.447715 116,106 L116,108 C116,108.552285 115.552285,109 115,109 L92,109 C91.4477153,109 91,108.552285 91,108 L91,106 C91,105.447715 91.4477153,105 92,105 Z M66,105 L89,105 C89.5522847,105 90,105.447715 90,106 L90,108 C90,108.552285 89.5522847,109 89,109 L66,109 C65.4477153,109 65,108.552285 65,108 L65,106 C65,105.447715 65.4477153,105 66,105 Z M92,100 L115,100 C115.552285,100 116,100.447715 116,101 L116,103 C116,103.552285 115.552285,104 115,104 L92,104 C91.4477153,104 91,103.552285 91,103 L91,101 C91,100.447715 91.4477153,100 92,100 Z M66,100 L89,100 C89.5522847,100 90,100.447715 90,101 L90,103 C90,103.552285 89.5522847,104 89,104 L66,104 C65.4477153,104 65,103.552285 65,103 L65,101 C65,100.447715 65.4477153,100 66,100 Z M92,95 L115,95 C115.552285,95 116,95.4477153 116,96 L116,98 C116,98.5522847 115.552285,99 115,99 L92,99 C91.4477153,99 91,98.5522847 91,98 L91,96 C91,95.4477153 91.4477153,95 92,95 Z M66,95 L89,95 C89.5522847,95 90,95.4477153 90,96 L90,98 C90,98.5522847 89.5522847,99 89,99 L66,99 C65.4477153,99 65,98.5522847 65,98 L65,96 C65,95.4477153 65.4477153,95 66,95 Z M92,90 L115,90 C115.552285,90 116,90.4477153 116,91 L116,93 C116,93.5522847 115.552285,94 115,94 L92,94 C91.4477153,94 91,93.5522847 91,93 L91,91 C91,90.4477153 91.4477153,90 92,90 Z M66,90 L89,90 C89.5522847,90 90,90.4477153 90,91 L90,93 C90,93.5522847 89.5522847,94 89,94 L66,94 C65.4477153,94 65,93.5522847 65,93 L65,91 C65,90.4477153 65.4477153,90 66,90 Z M92,85 L115,85 C115.552285,85 116,85.4477153 116,86 L116,88 C116,88.5522847 115.552285,89 115,89 L92,89 C91.4477153,89 91,88.5522847 91,88 L91,86 C91,85.4477153 91.4477153,85 92,85 Z M66,85 L89,85 C89.5522847,85 90,85.4477153 90,86 L90,88 C90,88.5522847 89.5522847,89 89,89 L66,89 C65.4477153,89 65,88.5522847 65,88 L65,86 C65,85.4477153 65.4477153,85 66,85 Z M92,80 L115,80 C115.552285,80 116,80.4477153 116,81 L116,83 C116,83.5522847 115.552285,84 115,84 L92,84 C91.4477153,84 91,83.5522847 91,83 L91,81 C91,80.4477153 91.4477153,80 92,80 Z M66,80 L89,80 C89.5522847,80 90,80.4477153 90,81 L90,83 C90,83.5522847 89.5522847,84 89,84 L66,84 C65.4477153,84 65,83.5522847 65,83 L65,81 C65,80.4477153 65.4477153,80 66,80 Z M92,75 L115,75 C115.552285,75 116,75.4477153 116,76 L116,78 C116,78.5522847 115.552285,79 115,79 L92,79 C91.4477153,79 91,78.5522847 91,78 L91,76 C91,75.4477153 91.4477153,75 92,75 Z M66,75 L89,75 C89.5522847,75 90,75.4477153 90,76 L90,78 C90,78.5522847 89.5522847,79 89,79 L66,79 C65.4477153,79 65,78.5522847 65,78 L65,76 C65,75.4477153 65.4477153,75 66,75 Z M92,70 L115,70 C115.552285,70 116,70.4477153 116,71 L116,73 C116,73.5522847 115.552285,74 115,74 L92,74 C91.4477153,74 91,73.5522847 91,73 L91,71 C91,70.4477153 91.4477153,70 92,70 Z M66,70 L89,70 C89.5522847,70 90,70.4477153 90,71 L90,73 C90,73.5522847 89.5522847,74 89,74 L66,74 C65.4477153,74 65,73.5522847 65,73 L65,71 C65,70.4477153 65.4477153,70 66,70 Z M92,65 L115,65 C115.552285,65 116,65.4477153 116,66 L116,68 C116,68.5522847 115.552285,69 115,69 L92,69 C91.4477153,69 91,68.5522847 91,68 L91,66 C91,65.4477153 91.4477153,65 92,65 Z M66,65 L89,65 C89.5522847,65 90,65.4477153 90,66 L90,68 C90,68.5522847 89.5522847,69 89,69 L66,69 C65.4477153,69 65,68.5522847 65,68 L65,66 C65,65.4477153 65.4477153,65 66,65 Z M92,60 L115,60 C115.552285,60 116,60.4477153 116,61 L116,63 C116,63.5522847 115.552285,64 115,64 L92,64 C91.4477153,64 91,63.5522847 91,63 L91,61 C91,60.4477153 91.4477153,60 92,60 Z M66,60 L89,60 C89.5522847,60 90,60.4477153 90,61 L90,63 C90,63.5522847 89.5522847,64 89,64 L66,64 C65.4477153,64 65,63.5522847 65,63 L65,61 C65,60.4477153 65.4477153,60 66,60 Z M92,55 L115,55 C115.552285,55 116,55.4477153 116,56 L116,58 C116,58.5522847 115.552285,59 115,59 L92,59 C91.4477153,59 91,58.5522847 91,58 L91,56 C91,55.4477153 91.4477153,55 92,55 Z M66,55 L89,55 C89.5522847,55 90,55.4477153 90,56 L90,58 C90,58.5522847 89.5522847,59 89,59 L66,59 C65.4477153,59 65,58.5522847 65,58 L65,56 C65,55.4477153 65.4477153,55 66,55 Z M92,50 L115,50 C115.552285,50 116,50.4477153 116,51 L116,53 C116,53.5522847 115.552285,54 115,54 L92,54 C91.4477153,54 91,53.5522847 91,53 L91,51 C91,50.4477153 91.4477153,50 92,50 Z M66,50 L89,50 C89.5522847,50 90,50.4477153 90,51 L90,53 C90,53.5522847 89.5522847,54 89,54 L66,54 C65.4477153,54 65,53.5522847 65,53 L65,51 C65,50.4477153 65.4477153,50 66,50 Z" id="Combined-Shape"></path>
                                    </g>
                                    <g id="icons/ic-network" transform="translate(206.000000, 0.000000)" fill-rule="nonzero">
                                        <path d="M16.0001411,0 C7.1635453,0 0,7.16334106 0,16 C0,24.8365179 7.1635453,32 16.0001411,32 C24.8367369,32 32,24.8365179 32,16 C32,7.16334106 24.8367369,0 16.0001411,0 Z" id="Shape" fill="#F7931A"></path>
                                        <path d="M19.3572737,24.0945291 C17.9282423,24.3438381 16.7127594,23.9400574 16.171952,23.7689123 C15.9049595,23.6846971 15.4577558,23.5186257 14.9830125,23.3302242 L13.6283702,26.235264 L11.8399654,25.4013172 L13.1726837,22.5432936 L11.8107467,21.9082119 L10.4780284,24.7662355 L8.68975135,23.9323482 L10.0224697,21.0743246 L6.50455813,19.4338955 L7.87372193,17.4573706 L8.94321303,17.9560825 C9.30273375,18.1237297 9.46840283,18.160386 9.68496715,18.0885641 C9.90165062,18.0164867 10.036344,17.815029 10.1183208,17.6392292 L13.5687326,10.2397971 C13.7848749,9.77627854 13.805689,9.63324183 13.7035733,9.29584925 C13.6016958,8.95794561 13.1150838,8.69292685 12.8328588,8.56132315 L11.7991409,8.07929258 L12.664961,6.22253542 L16.1828725,7.86296451 L17.5194037,4.99676414 L19.3075529,5.83059183 L17.9710218,8.6967922 L19.3329588,9.33187388 L20.66949,6.46567351 L22.4578948,7.29962036 L21.1053376,10.2001886 C22.3999826,10.9045273 23.2739962,11.6213045 23.8417423,12.6653156 C24.5759437,14.0148155 23.8470014,15.424599 23.6621769,15.7555783 C23.4774802,16.0866171 23.0192155,16.6767672 22.5195145,16.9621751 C22.0202139,17.248392 21.086073,17.3316839 21.086073,17.3316839 C21.086073,17.3316839 21.8693081,17.9205823 22.2652696,18.6648632 C22.6604646,19.4087867 22.7343376,20.4298388 22.1553143,21.6045123 C21.5774409,22.779722 20.7857344,23.8451095 19.3572737,24.0945291 Z M18.3641842,18.260103 C18.1082605,17.9370034 17.4693979,17.3647203 16.6112287,16.8931556 C15.7526167,16.4215399 14.5890205,15.9501844 14.5890205,15.9501844 L12.8005447,19.7855831 C12.8005447,19.7855831 13.9752692,20.3641635 14.7967203,20.6759741 C15.6174047,20.9874272 16.5299584,21.1689121 17.0447644,21.1339714 C17.5591958,21.0991671 18.2160107,20.9781703 18.6250605,20.1009602 C19.034289,19.2233668 18.6206103,18.5831257 18.3641842,18.260103 Z M16.9063064,14.8637378 C17.5701373,15.1426454 18.333688,15.3157772 18.9632655,15.2735383 C19.5932946,15.2316655 20.0798076,14.9298421 20.3674712,14.2702496 C20.6543086,13.6104275 20.4773058,12.8565694 19.8473693,12.2878264 C19.2170581,11.7192198 18.7322144,11.4727575 18.1758529,11.2032116 C17.6198151,10.9339722 17.0281783,10.71906 17.0281783,10.71906 L15.4189076,14.1701523 C15.4190353,14.1702119 16.2428587,14.5850089 16.9063064,14.8637378 Z" id="Combined-Shape" fill="#FFFFFF"></path>
                                    </g>
                                    <g id="icons/ic-network" transform="translate(89.000000, 50.000000)" fill-rule="nonzero">
                                        <path d="M16,0 C7.16344991,0 0,7.16344991 0,16 C0,24.8365501 7.16344991,32 16,32 C24.8365501,32 32,24.8365501 32,16 C32,7.16344991 24.8365501,0 16,0 Z" id="Shape" fill="#62688F"></path>
                                        <path d="M16.7649692,20.5970749 L16.7649692,14.0905022 L23.1249339,16.8763348 L16.7649692,20.5970749 Z M16.7649692,27.1393128 L16.7649692,21.9056916 L23.0775683,18.2097621 L16.7649692,27.1393128 Z M16.7649692,5 L23.0020088,15.3753304 L16.7649692,12.6430661 L16.7649692,5 Z M15.3553128,12.6430661 L9.20468722,15.3369868 L15.3553128,5.00310132 L15.3553128,12.6430661 Z M15.3553128,20.5969339 L9,16.8742203 L15.3553128,14.0903612 L15.3553128,20.5969339 Z M15.3553128,27.1393128 L9.04271366,18.2097621 L15.3553128,21.9056916 L15.3553128,27.1393128 Z" id="Combined-Shape" fill="#FFFFFF"></path>
                                    </g>
                                    <g id="minter-logo-circle-copy" transform="translate(11.000000, 120.000000)">
                                        <g id="Group">
                                            <circle id="Oval" fill="#FFFFFF" cx="16" cy="16" r="16"></circle>
                                            <path d="M16.0604421,14.1081347 L17.9467348,12.2797557 C18.4352221,11.8062661 19.2272165,11.8062661 19.7157038,12.2797557 C20.2041911,12.7532453 20.2041911,13.5209236 19.7157038,13.9944132 L17.0414607,16.5865507 C17.0131968,16.6206184 16.9827546,16.6535493 16.950134,16.6851684 C16.4616467,17.158658 15.6696523,17.158658 15.181165,16.6851684 L8.68636548,10.3897747 C8.19787817,9.9162851 8.19787817,9.14860679 8.68636548,8.67511719 C9.1748528,8.2016276 9.96684721,8.2016276 10.4553345,8.67511719 L16.0604421,14.1081347 Z M9.57085,13.2236703 C10.2616754,13.2236703 10.8217,13.8416576 10.8217,14.6039836 L10.8217,22.51778 C10.8217,23.280106 10.2616754,23.8980933 9.57085,23.8980933 C8.88002462,23.8980933 8.32,23.280106 8.32,22.51778 L8.32,14.6039836 C8.32,13.8416576 8.88002462,13.2236703 9.57085,13.2236703 Z M22.74647,8.32 C23.4372954,8.32 23.99732,8.91217877 23.99732,9.6426683 L23.99732,22.575425 C23.99732,23.3059145 23.4372954,23.8980933 22.74647,23.8980933 C22.0556447,23.8980933 21.49562,23.3059145 21.49562,22.575425 L21.49562,9.6426683 C21.49562,8.91217877 22.0556447,8.32 22.74647,8.32 Z" id="Combined-Shape" fill="#D15C22"></path>
                                        </g>
                                    </g>
                                </g>
                            </g>
                        </g>
                    </g>
                </g>
            </g>
        </g>
    </g>
</svg>