<svg width="480" height="467" viewBox="0 0 480 467" xmlns="http://www.w3.org/2000/svg">
    <g transform="translate(0 2)" fill="none">
        <circle fill="#0D263E" fill-rule="nonzero" cx="262" cy="266" r="199"/>
        <path d="M243.9708 98.0851s7.854-29.846 14.923-36.129c7.069-6.284 100.535-52.624 126.453-58.907 25.919-6.284 62.049-3.142 66.762 58.121 4.712 61.263 1.57 153.943 7.855 180.648 6.283 26.704 16.493 85.612 16.493 85.612s-12.567-20.422-33.774-28.276c-21.206-7.854-47.91 1.571-59.691 9.425-11.782 7.855-19.636 20.421-19.636 20.421s0-34.559 8.64-76.186c8.64-41.627 13.351-76.187 13.351-76.187s-78.542-86.396-91.109-91.109c-12.566-4.712-50.267 12.567-50.267 12.567" fill="#414141"/>
        <path d="M257.3234 91.8019l11.782 12.567 36.914-10.211s-3.927-11.781-14.923-10.996c-10.996.786-33.773 8.64-33.773 8.64M212.5538 196.2633c-2.356.786-38.486 7.854-38.486 7.854l32.203 58.907s7.854-7.854 15.708-3.927c7.855 3.927 57.336 54.195 57.336 54.195s.785-5.498 10.996-2.357c10.211 3.142 22.778 14.138 22.778 14.138l50.267 3.927s1.571-34.559 7.069-66.761c5.498-32.203 8.639-57.336 8.639-57.336l-14.137 7.068-58.122 20.421s-14.137 2.357-17.279 0l-3.141-2.356-32.989-18.85s-7.854 2.356-15.708 0-25.134-14.923-25.134-14.923" fill="#1B1B1B"/>
        <path d="M289.526 232.3927c-3.928 17.279 2.356 71.474 10.21 84.041l13.352 8.64 50.268 3.926s9.425-76.186 12.566-91.109c3.142-14.923 3.927-34.559 3.142-32.988-.785 1.571-31.417 10.211-56.551 19.636-25.133 9.425-32.987 7.854-32.987 7.854" fill="#111"/>
        <path d="M306.0192 94.1579s-69.902 19.636-85.611 29.061c0 0-18.85 7.854-20.421 19.636-1.571 11.781 3.927 42.412 18.065 56.55 14.137 14.138 29.061 13.353 29.061 13.353l7.069-5.498s-4.713 10.996.785 18.85c5.498 7.854 28.276 8.639 47.125 4.712 18.851-3.927 76.972-25.919 76.972-25.919l6.283-28.275-79.328-82.47z" fill="#FFF"/>
        <path d="M308.3756 228.466l-.785 36.915 32.202 22.777s12.567-58.907 25.134-76.186l-56.551 16.494z" fill="#FFF"/>
        <path d="M247.1129 212.7575s-10.996 10.996-4.713 28.275c6.284 17.279 22.777 21.207 31.417 14.923 8.64-6.283 10.211-18.065 12.567-25.919 2.356-7.854 6.284-13.352 6.284-13.352s-14.138 1.571-21.207 0c-7.069-1.571-18.065-5.498-18.065-5.498l-6.283 1.571z" fill="#EFB2E1"/>
        <path d="M243.1857 124.0041s-26.705 2.356-32.988 15.708c-6.283 13.353 3.927 40.058 14.923 42.414 10.996 2.356 14.138 7.854 33.773-.786 19.636-8.639 25.134-16.494 20.421-25.919-4.712-9.425-21.991-31.417-36.129-31.417" fill="#1B1B1B"/>
        <path d="M305.234 37.6076c3.142-2.356 71.474-33.773 99.749-29.846 28.275 3.927 43.984 29.06 41.628 100.534-2.356 71.474 5.498 129.595 5.498 129.595l-17.279-11.781s23.562 29.846 28.275 50.268c4.712 20.42 8.64 40.841 8.64 36.915 0-3.928-3.928-23.564-7.07-51.053-3.141-27.49-11.781-105.247-12.566-154.729-.786-49.482-4.713-69.118-4.713-69.118s-10.996-23.562-24.348-32.988c-13.352-9.424-22.777-3.141-40.842-.785-18.065 2.356-76.972 32.988-76.972 32.988" fill="#535353"/>
        <path d="M285.5983 311.7209c-9.425 3.142-4.712 9.425-4.712 9.425s2.357 29.846-4.713 43.984c-7.068 14.138-21.992 30.632-21.992 30.632s16.494 15.708 21.992 14.923l5.498-.786s10.996 10.996 35.344 21.207c24.349 10.211 49.482 21.992 56.551 21.206 7.069-.785 47.126-20.421 65.975-31.417 18.851-10.996 21.993-18.065 24.349-21.991 2.356-3.928 11.781-67.547 9.425-75.402-2.357-7.854-38.486-32.987-59.693-29.06-21.206 3.926-50.266 34.558-50.266 34.558l-50.268-3.926-13.352-8.64-14.138-4.713z" fill="#414141"/>
        <path d="M94.7404 162.4899c2.356-2.356 40.057-18.85 44.769-17.279 4.712 1.571 47.911 87.182 53.409 94.251 5.498 7.069 14.138 27.489 14.138 27.489l5.497 17.28 15.709 35.344s-103.676 42.414-107.603 41.627c-3.927-.785-95.822-131.165-95.822-131.165s0-25.134 12.567-34.559c12.566-9.425 57.336-32.988 57.336-32.988" fill="#CD221E"/>
        <path d="M66.465 140.4982s21.207.786 30.631 7.854c9.426 7.069 12.567 4.713 9.426 7.069-3.142 2.356-11.782 7.069-11.782 7.069s18.85 17.279 8.64 32.202c-10.21 14.923-28.275 12.567-28.275 12.567s-6.284 12.567-17.28 14.923c-10.996 2.357-16.494.786-16.494.786s-8.639 10.21-24.348 3.927c-10.131-4.053-18.064-14.138-16.494-29.061 1.571-14.923 25.919-47.911 38.486-58.122 12.567-10.21 27.49.786 27.49.786M279.3151 313.2921s-34.559-37.701-49.481-46.341c-14.924-8.639-23.563-3.927-23.563-3.927l6.283 21.206s-36.915 6.285-40.842 22.778c-3.927 16.494 7.854 26.705 7.854 26.705s-3.927 8.64-2.356 17.279c1.571 8.64 8.64 14.138 8.64 14.138s2.356 14.138 7.069 19.636c4.712 5.498 36.915 19.635 56.55 8.639 19.636-10.996 26.704-22.777 29.846-48.696 3.142-25.919 0-31.417 0-31.417" fill="#FFF"/>
        <path d="M430.902 296.798c-18.85 7.068-46.34 104.461-47.125 102.105-.785-2.356 2.356-18.065-8.64-36.915-10.996-18.85-7.069 2.357-7.854 3.142-.785.785-14.923-35.345-12.567-34.559 2.356.786 13.352-4.712 26.705-18.85 13.352-14.138 21.206-16.494 32.202-17.279 10.996-.786 17.279 2.356 17.279 2.356" fill="#1B1B1B"/>
        <path d="M281.6715 332.9269c7.068-15.708 25.134 1.571 27.49 7.854 2.356 6.284.785 21.993.785 21.993s9.425-20.421 1.571-33.774c-7.854-13.352-29.061-16.494-29.061-16.494l-.785 20.421z" fill="#535353"/>
        <path d="M313.8737 351.7775c1.571-10.996 20.421-9.425 25.919-7.854 5.498 1.571 21.207 16.494 21.207 14.137 0-2.356-6.283-27.489-6.283-27.489l-41.628-5.498.785 26.704zM456.8209 309.3644c.786 12.567-3.142 84.041-7.068 92.681-3.927 8.639-28.276 28.275-28.276 28.275s36.13-12.567 42.413-31.417c6.284-18.851 7.855-66.762 7.855-69.118 0-2.356-2.357-11.781-2.357-11.781l-12.567-8.64z" fill="#535353"/>
        <path d="M65.4479 253.0431c.097.646.199 1.286.312 1.927l.356 1.887c1.268-1.773 1.936-3.312 2.001-4.612.006-.201-.006-.353-.046-.458-.135-.352-.422-.421-.858-.206-.416.206-1.005.692-1.765 1.462m-5.042-3.323c2.283-2.266 4.266-3.822 5.957-4.668 2.315-1.161 3.834-.792 4.548 1.131 1.483 3.919.276 9.422-3.684 16.507.596 2.885 1.231 5.556 1.909 8.006l-3.789 3.558c-.124-.533-.445-2.172-.959-4.891l-1.6-8.391c-1.446-7.408-2.225-11.092-2.382-11.252" fill="#FFD843"/>
        <path d="M78.716 257.7238l-3.63-12.589-.024.014 2.436 13.533 1.218-.958zm-5.132 13.143c-.525-9.735-1.416-18.555-2.648-26.518l7.318-5.515c1.683 6.611 4.451 14.4 8.405 23.542l-5.286 4.502-1.294-4.463-1.685 1.322.601 3.277-5.411 3.853z" fill="#FFD843"/>
        <path d="M92.7999 240.2355c-.47.539-1.031 1.185-1.674 1.934l-1.656 1.924c-.441-.982-.899-1.353-1.377-1.12-.669.331-1.15 1.099-1.439 2.309-.185.884-.108 1.615.232 2.191.232.376.671.409 1.317.096.351-.172.784-.46 1.297-.865.709-.579 1.366-1.018 1.981-1.315 1.555-.76 2.753-.591 3.589.518.253.349.484.737.681 1.168.649 1.384.894 3.108.731 5.174-.192 2.724-1.029 5.351-2.508 7.87-.778 1.336-1.713 2.262-2.81 2.775-.994.468-2.109.592-3.34.371-.111-1.592-.209-3.951-.296-7.053.813.2 1.556.14 2.231-.184.303-.144.591-.347.86-.611.505-.457.947-.979 1.332-1.562.537-.848.693-1.523.462-2.027-.243-.548-.75-.634-1.52-.265-.524.254-1.227.744-2.118 1.477-.886.732-1.592 1.223-2.114 1.473-.687.33-1.278.431-1.78.302-.958-.221-1.625-.96-2.002-2.211-.762-2.494-.62-5.837.418-10.016 1.039-4.236 2.376-6.829 4.029-7.828 1.61-.954 3.095.022 4.474 2.973.337.715.669 1.55 1 2.502" fill="#FFD843"/>
        <path d="M105.2496 234.1056c-.48.545-1.046 1.198-1.694 1.956l-1.666 1.946c-.489-.977-.975-1.343-1.459-1.103-.692.34-1.172 1.114-1.441 2.327-.17.887-.072 1.617.302 2.19.25.374.707.401 1.365.079.361-.175.802-.469 1.324-.881.723-.588 1.399-1.035 2.025-1.342 1.602-.779 2.851-.625 3.748.474.272.346.517.732.738 1.161.705 1.378 1.004 3.099.892 5.171-.134 2.729-.931 5.371-2.404 7.909-.779 1.349-1.728 2.288-2.855 2.815-1.022.481-2.177.616-3.462.412-.151-1.593-.312-3.954-.487-7.061.849.192 1.62.123 2.314-.209.31-.148.605-.357.877-.623.518-.465.965-.992 1.345-1.58.536-.857.68-1.534.428-2.036-.267-.544-.795-.624-1.586-.245-.533.259-1.257.76-2.164 1.504-.902.742-1.618 1.243-2.153 1.5-.706.34-1.321.448-1.847.325-1.001-.21-1.713-.941-2.13-2.19-.86-2.484-.797-5.831.175-10.025.971-4.249 2.298-6.861 3.984-7.88 1.648-.976 3.221-.018 4.728 2.916.364.711.735 1.541 1.103 2.49M110.9113 230.6178c.176.64.357 1.276.55 1.911l.599 1.869c1.281-1.836 1.895-3.407 1.84-4.711-.012-.201-.047-.353-.104-.456-.19-.345-.522-.401-1.002-.163-.458.225-1.086.742-1.883 1.55m-6.124-3.07c2.397-2.377 4.52-4.029 6.378-4.961 2.544-1.275 4.326-.983 5.341.901 2.1 3.842 1.265 9.407-2.583 16.697.976 2.862 1.976 5.511 2.999 7.935l-4.005 3.753c-.196-.528-.731-2.158-1.594-4.861l-2.679-8.331c-2.4-7.34-3.661-10.981-3.857-11.133" fill="#FFD843"/>
        <path d="M125.2008 224.0807c-1.08.533-1.645 1.992-1.688 4.399-.052 1.924.15 3.695.621 5.314.259.857.562 1.597.92 2.223.507.888 1.127 1.52 1.854 1.894.836.414 1.669.42 2.509.022 1.149-.548 1.799-1.688 1.967-3.416.126-1.37-.054-2.815-.542-4.338-.566-1.769-1.418-3.355-2.545-4.761-1.117-1.361-2.153-1.803-3.096-1.337m-3.345-7.916c2.033-1.023 4.181-.602 6.464 1.288 1.198.988 2.252 2.217 3.16 3.692.883 1.428 1.639 3.096 2.262 5.008 1.063 3.32 1.439 6.726 1.113 10.204-.399 4.302-1.899 7.084-4.478 8.297-2.218 1.04-4.536.437-6.926-1.777-1.154-1.077-2.169-2.401-3.037-3.972-.844-1.534-1.534-3.29-2.077-5.257-.911-3.297-1.168-6.56-.78-9.799.482-3.936 1.91-6.483 4.299-7.684M136.1871 218.0685c.259.777.542 1.546.836 2.309l.913 2.307c.475-.72.871-1.548 1.179-2.484.342-1.083.44-2.004.297-2.762-.018-.232-.078-.429-.184-.59-.29-.444-.728-.519-1.309-.23-.466.228-1.041.711-1.732 1.45zm-6.719-2.852c2.503-2.459 4.732-4.18 6.708-5.169 2.671-1.341 4.619-1.102 5.835.744 1.78 2.684 1.879 6.275.246 10.769.801.652 3.651 2.581 8.661 5.863-.409 1.574-1.063 3.921-1.954 7.051l-9.144-7.435-.027.02-.04.013c1.274 3.048 2.561 5.863 3.854 8.44l-4.11 3.856c-.263-.517-.934-2.115-2.013-4.772l-8.016-19.38z" fill="#FFD843"/>
        <path d="M152.1158 202.2887l3.77 5.536c-1.408.801-2.717 1.582-3.939 2.347 2.587 6.312 5.388 12.137 8.412 17.433l-4.54 4.084-8.573-18.351c-.494.354-.993.717-1.477 1.09l-1.423 1.105-4.095-5.391 11.865-7.853zM123.8009 266.9513c40.557-22.21 69.118 34.559 29.061 49.482-40.057 14.923-62.049-31.417-29.061-49.482" fill="#FFD843"/>
        <path d="M130.0846 150.7087c4.712-2.356 10.996 10.21 10.996 10.21l68.332 116.244s-47.911-91.11-58.907-113.101c-10.996-21.993-10.996-18.851-10.996-18.851l-9.425 5.498z" fill="#FF302B"/>
        <path d="M249.4689 125.5754c8.64 1.571 24.348 25.133 24.348 30.631 0 5.498-.785 9.426-.785 9.426l-12.566-5.498s-14.139 1.57-17.28 2.356c-3.142.785 10.21-20.421-6.283-29.847-8.734-4.99-16.495-1.57-16.495-1.57s6.284-7.069 17.28-6.284c10.996.786 11.781.786 11.781.786" fill="#535353"/>
        <path d="M235.3317 185.2672c-9.831-.46-7.069-26.704 11.781-35.344 18.85-8.639 30.656 11.29 22.778 24.348-4.036 6.688-22.337 11.569-34.559 10.996" fill="#000"/>
        <path d="M239.2579 134.215c8.687 1.201 10.048 9.765 3.142 9.425-5.491-.271-11.735-10.613-3.142-9.425M223.5499 137.3566c7.026-.781 4.712 6.283-.785 6.283-5.498 0-6.284-5.498.785-6.283" fill="#535353"/>
        <path d="M244.882 98.8317c1.445-8.601 2.231-10.957 2.231-10.957s42.413-13.352 51.053-13.352c8.639 0 91.109 98.963 91.109 98.963s-11.781 56.551-10.996 54.195c.785-2.357 7.424-49.9 7.424-49.9s-73.4-79.696-78.898-83.623c-5.498-3.927-12.768-9.8-12.768-9.8l-49.155 14.474" fill="#1B1B1B"/>
        <path d="M476.0406 326.4679s-7.903-53.288-13.286-73.686c-7.58-28.731-8.901-97.152-10.627-188.162-.075-3.946-3.985-55.264-39.856-63.159-35.869-7.894-147.462 56.581-154.105 61.844 0 0-14.613 21.053-13.285 35.527 0 0 37.198-15.79 49.155-14.474 11.956 1.316 91.666 93.423 91.666 93.423s-13.285 75.001-18.6 102.634c-5.313 27.632-2.656 48.685-2.656 48.685s27.899-34.211 55.797-35.527c27.899-1.316 55.797 32.895 55.797 32.895z" stroke="#000" stroke-width="3.966"/>
        <path d="M329.9059 173.8337c7.971 19.737-18.599 39.475-39.854 42.106-21.257 2.632-35.87-7.895-35.87-7.895s0 11.843-25.242 0c-25.241-11.842-31.884-55.264-25.241-71.054 6.643-15.79 103.106-42.833 103.106-42.833l78.898 83.623-5.315 27.633s-26.569 10.526-45.169 15.789c-18.598 5.263-39.854 15.79-46.497 11.842 0 0-4.694-4.579.018-9.292" stroke="#000" stroke-width="3.966"/>
        <path d="M247.5392 214.6237c-11.957 13.158-7.971 42.106 17.27 43.422 0 0 15.942 2.632 18.6-18.422 2.656-21.052 13.284-22.368 13.284-22.368s-13.45 1-22.091-.571c-8.64-1.571-20.42-8.64-20.42-8.64l-6.643 6.579zM365.7115 214.3283c-5.313 9.21-27.835 76.613-27.835 72.666 0-1.919-6.697-4.853-13.792-9.832-7.507-5.268-15.435-12.537-15.435-12.537l.512-34.589M257.3234 94.1579c5.498 3.142 11.782 11.782 11.782 11.782" stroke="#000" stroke-width="3.966"/>
        <path d="M255.7526 211.1867c-3.927 6.283 1.571 28.275 1.571 28.275s-2.357-21.206 2.356-25.133c4.713-3.928-3.927-3.142-3.927-3.142zM278.5299 158.5631s-15.709-29.061-29.061-32.988c-12.81-3.767-46.34 3.142-40.057 32.202 5.783 26.745 20.214 28.877 32.273 27.21 1.044-.145 2.07-.318 3.072-.505 12.566-2.357 41.627-10.996 33.773-25.919zM472.5299 323.5021s-3.142 59.692-7.854 73.83c-4.712 14.138-84.827 54.98-91.11 54.194-6.283-.785-76.186-25.133-91.109-44.769 0 0 18.85-10.995 28.275-36.129 9.425-25.134-1.57-47.126-1.57-47.126l55.285 5.598s15.402-30.732 49.176-35.444c33.773-4.713 54.98 21.206 58.907 29.846zM315.4449 228.466c0 2.356 1.57 16.494 8.64 27.489" stroke="#000" stroke-width="3.966"/>
        <path d="M281.6715 314.0773c1.267 16.464-.785 46.34-10.211 62.049-9.425 15.708-18.064 18.064-18.064 18.064s6.935 5.107 14.137 9.425c4.683 2.809 7.806 7.165 14.923 3.142 18.066-10.21 33.774-32.988 31.417-66.761-1.044-14.969-2.356-18.065-5.498-19.636-3.142-1.57-27.489-16.494-26.704-6.283z" stroke="#000" stroke-width="3.966"/>
        <path d="M213.3395 284.2306s-6.283-11.781-7.069-18.85c-.274-2.468 0-3.927 9.425-6.283 14.009-3.503 65.976 54.98 65.976 54.98" stroke="#000" stroke-width="3.966" stroke-linecap="round" stroke-linejoin="round"/>
        <path d="M238.4733 288.9435c-2.356 0-29.061-7.854-48.697 2.356-19.635 10.21-29.648 27.294-7.069 40.842 7.855 4.713 30.632-.785 30.632-.785M179.566 331.3566c-.785 3.142-5.355 12.853 2.356 28.275 4.713 9.425 22.778 10.21 31.417 10.21" stroke="#000" stroke-width="3.966" stroke-linecap="round" stroke-linejoin="round"/>
        <path d="M185.8497 365.9152s5.498 29.061 35.344 30.632c29.846 1.57 41.627-10.211 44.769-14.138M25.7213 229.734c29.767 42.353 95.723 133.825 95.723 133.825l54.98-22.778M214.9103 285.8019l-80.899-135.878-35.999 15.23" stroke="#000" stroke-width="3.966" stroke-linecap="round" stroke-linejoin="round"/>
        <path d="M91.5988 159.3483s-32.634-30.691-45.555-23.562c-22.777 12.566-45.554 50.267-43.984 67.546 1.147 12.613 13.925 28.375 30.632 26.704 7.854-.785 12.567-7.068 12.567-7.068" stroke="#000" stroke-width="3.966" stroke-linecap="round" stroke-linejoin="round"/>
        <path d="M17.7687 192.3361s14.138 32.203 36.129 29.846c21.993-2.356 23.563-18.064 23.563-18.064" stroke="#000" stroke-width="3.966" stroke-linecap="round" stroke-linejoin="round"/>
        <path d="M50.7565 172.7008s21.992 45.555 43.198 33.773c21.207-11.781 13.353-39.271-12.567-54.98M68.8214 142.069s34.559-2.356 37.7 18.065M212.5538 197.8341c-14.923 2.356-28.275 5.498-36.129 7.069" stroke="#000" stroke-width="3.966" stroke-linecap="round" stroke-linejoin="round"/>
        <path d="M93.9547 163.2755s42.413-21.207 46.34-17.279c3.927 3.927 65.19 115.457 65.19 115.457" stroke="#000" stroke-width="3.966" stroke-linecap="round" stroke-linejoin="round"/>
        <path d="M114.8053 197.0002c16-24 27.771-29.308 47.886-28.154 20.114 1.154 27.18-13.071 27.18-13.071s4.934 13.225-14.066 22.225c-15.893 7.528-28.609-1.664-40.305 6.168-11.695 7.832-20.695 12.832-20.695 12.832" fill="#FFF"/>
        <path d="M121.8053 169.0002c14-17 25-13 39-15s24-15 24-15-1 17-21 24c-13.514 4.73-32 1-38 7s-10.488 11.018-10.488 11.018l6.488-12.018zM168.8053 144.0002c12.872-3.51 13-25 9-17s-24 16-24 16 4 4 15 1" fill="#FFF"/>
    </g>
</svg>
