<svg width="124" height="84" viewBox="0 0 124 84" xmlns="http://www.w3.org/2000/svg" fill="#FFF">
    <path d="M15.94 75.96l.3-.04.02-.01v-.94c0-.04 0-.04-.04-.04H13.3c-.05 0-.05 0-.05.04v.88c0 .05.02.07.06.07l.27.04c.16.02.3.05.33.2v4.16c0 1.07-.5 1.58-1.53 1.58h-.02c-1.03 0-1.53-.51-1.53-1.58v-4.15c.04-.16.17-.2.33-.21l.27-.04c.04 0 .06-.02.06-.07v-.88c0-.04 0-.04-.05-.04h-2.9c-.05 0-.05 0-.05.04v.91l.01.03h.04l.28.05c.24.03.32.1.34.26l.01.06v4.05c0 1.88.82 2.64 2.82 2.64h.14c.26 0 .79-.01 1.3-.15.51-.14 2.16-.73 2.16-2.49v-4.1c.02-.18.12-.24.35-.27M4.82 78.68l-2.41-.66c-.54-.15-.76-.48-.76-1.14 0-.88.62-.95 1.57-.95.54 0 .96.05 1.23.08l.04.01.24 1.07c.03.14.07.17.22.17h.65c.07 0 .12-.03.13-.17l.12-1.87c0-.1 0-.15-.13-.19-.4-.1-1.76-.17-2.66-.17-2 0-2.96.31-2.96 2.11 0 .97.14 1.99 1.16 2.27l2.36.67c.55.15.84.26.84.92 0 .93-.87.93-1.97.93-.59 0-1.31-.09-1.85-.16l-.5-.06H.1c-.07 0-.1.03-.1.1v.99c0 .08.03.1.09.12.78.2 2.07.23 2.77.23 2.2 0 3.18-.7 3.18-2.27 0-1.17-.38-1.8-1.22-2.03m23.38-3.75h-2.25c-.08 0-.1.03-.15.13l-2.32 5.24-2.16-5c-.12-.25-.21-.37-.4-.37h-2.06c-.04 0-.07 0-.07.08v.83c0 .06.03.07.05.07l.24.03c.28.05.28.31.28.43v5.17c0 .21-.08.3-.3.34l-.24.03c-.02 0-.04 0-.04.07v.82s0 .05.05.05h2.2c.04 0 .04-.05.04-.05v-.82c0-.06-.02-.06-.05-.07l-.23-.03c-.24-.04-.3-.12-.3-.34v-4.43l2.35 5.43c.04.08.1.13.19.13h.42c.1 0 .15-.05.2-.14l2.34-5.42v4.38c0 .23-.14.3-.39.33l-.28.03c-.04 0-.05 0-.05.06v.89c0 .03 0 .05.06.05h2.88c.04 0 .06 0 .06-.07V81.85h-.06l-.27-.03c-.25-.02-.34-.1-.34-.33v-5.27c0-.2.09-.29.34-.32l.28-.04c.04 0 .06-.03.06-.07v-.82s0-.04-.07-.04m31.89 1.03l.3-.04.02-.01v-.94c0-.04 0-.04-.05-.04h-2.9c-.05 0-.05 0-.05.04v.88c0 .05.01.07.06.07l.26.04c.16.02.3.05.33.2l.01 4.16c0 1.07-.5 1.58-1.53 1.58h-.02c-1.04 0-1.54-.51-1.54-1.58v-4.15c.04-.16.18-.2.34-.21l.27-.04c.04 0 .05-.02.05-.07v-.88c0-.04 0-.04-.04-.04H52.7c-.05 0-.05 0-.05.04v.91a.1.1 0 0 0 0 .03h.04l.28.05c.24.03.33.1.35.26l.01.06v4.05c0 1.88.82 2.64 2.82 2.64h.13c.27 0 .8-.01 1.32-.15.5-.14 2.14-.73 2.14-2.49v-4.1h.01c.02-.18.1-.24.35-.27m-10.88 2.72l-2.41-.66c-.54-.15-.76-.48-.76-1.14 0-.88.62-.95 1.58-.95.4 0 .8.03 1.22.08l.04.01.25 1.07c.02.14.06.17.21.17H50c.08 0 .13-.03.14-.17l.1-1.87c.02-.1.02-.15-.11-.19-.41-.1-1.77-.17-2.67-.17-2 0-2.96.31-2.96 2.11 0 .97.14 1.99 1.16 2.27l2.36.67c.56.15.84.26.84.92 0 .93-.87.93-1.97.93-.59 0-1.31-.09-1.84-.16l-.5-.06h-.05c-.07 0-.1.03-.1.1v.99c0 .08.02.1.1.12.77.2 2.06.23 2.76.23 2.2 0 3.18-.7 3.18-2.27 0-1.17-.38-1.8-1.22-2.03m18.99 1.98c0 .85-.66 1.02-1.73 1.02h-1.24v-2.45h1.28c.79 0 1.69.11 1.69 1.02v.4zm-2.97-4.6h1.55c.78 0 1.12.26 1.12.87v.19c0 .63-.4.97-1.14.97h-1.53v-2.04zm2.93 2.57l.27-.1c.6-.21.98-.77.98-1.5v-.23c0-1.58-.78-1.87-2.3-1.87h-4.14c-.06 0-.06.04-.06.04v.9c0 .06.01.07.06.08l.26.04c.26.02.35.11.35.33v5.13c0 .22-.08.3-.35.33l-.26.04c-.05 0-.06.03-.06.07v.9c0 .01 0 .06.06.06h3.36c2.6 0 3.53-.6 3.53-2.28v-.26c0-.95-.53-1.56-1.42-1.65l-.28-.03zm9 .05l-2.42-.66c-.53-.15-.75-.48-.75-1.14 0-.88.62-.95 1.57-.95.54 0 .96.05 1.23.08l.04.01.24 1.07c.03.14.07.17.23.17h.64c.08 0 .13-.03.13-.17l.12-1.87c.01-.1 0-.15-.12-.19-.41-.1-1.77-.17-2.67-.17-2 0-2.96.31-2.96 2.11 0 .97.14 1.99 1.16 2.27l2.36.67c.53.15.84.27.84.92 0 .93-.87.93-1.97.93-.58 0-1.31-.09-1.84-.16l-.5-.06h-.05c-.07 0-.1.03-.1.1v.99c0 .08.03.1.09.12.78.2 2.07.23 2.77.23 2.2 0 3.17-.7 3.17-2.27 0-1.17-.37-1.8-1.2-2.03m10.42-3.75h-6.84c-.05 0-.06 0-.06.1l.09 2.14c0 .09.03.09.12.09h.8c.06 0 .1-.04.11-.1l.2-.99a.2.2 0 0 1 .2-.18l1.12-.03v5.5c0 .21-.1.3-.35.33l-.6.06c-.03 0-.05.02-.05.08v.87c0 .03 0 .05.06.05h3.54c.06 0 .06-.03.06-.05v-.89c0-.03-.02-.05-.06-.06l-.6-.06c-.26-.03-.34-.11-.34-.34v-5.49l1.12.03c.11 0 .19.07.2.19l.2.97c.01.07.05.1.1.1h.82c.1 0 .11 0 .12-.09l.1-2.13c0-.1-.02-.1-.07-.1m3.72 4.74l1.16-3.1 1.2 3.1h-2.36zm5.52 3.18c.03 0 .03-.03.03-.05v-.9c0-.04 0-.04-.04-.05l-.17-.02c-.3-.03-.43-.1-.57-.46l-2.53-6.28c-.05-.14-.06-.16-.17-.16h-1.4c-.07 0-.09.01-.12.12l-2.51 6.33c-.13.33-.22.42-.47.44l-.3.03c-.03 0-.04.05-.04.08v.87c0 .04.02.05.04.05h2.53c.06 0 .07 0 .07-.08v-.81c0-.07-.03-.07-.05-.08l-.27-.03a.23.23 0 0 1-.19-.1c-.05-.08-.05-.18 0-.3l.29-.8h3.1l.32.81c.05.11.05.2.01.28a.2.2 0 0 1-.16.1l-.33.04c-.01 0-.04 0-.04.07v.76l.01.14h2.95zm9.39-6.92l.32-.02c.02 0 .05-.01.05-.07v-.87c0-.02-.01-.04-.05-.04h-2.5c-.01 0-.05 0-.05.04v.77c0 .16.03.16.1.17l.27.03c.24.03.33.11.33.33v3.69l-3.19-4.66c-.23-.34-.34-.37-1-.37h-1.53c-.04 0-.05.03-.05.04v.84c0 .06.02.07.05.07l.5.05v5.57c0 .25-.06.3-.31.33l-.33.03c-.02 0-.04.02-.04.08v.86c0 .04.02.05.05.05h2.5c.04 0 .04 0 .04-.05v-.87c0-.04 0-.06-.1-.07l-.26-.03c-.24-.03-.31-.1-.31-.33v-4.54l3.99 5.77c.07.1.11.12.27.12h.82c.06 0 .13-.02.13-.16v-6.42c0-.24.04-.3.3-.34m9.1 6.32v-.81c0-.13-.06-.15-.11-.15-.03 0-.07 0-.1.02l-.2.05c-.54.17-1.06.32-1.92.34h-.1c-1.5 0-2.07-.5-2.07-1.75l-.01-2.23c0-.63.21-1.7 1.67-1.7.66 0 1.1.04 1.25.07h.04l.21 1.06c.02.1.05.1.1.1h.85c.1 0 .12-.04.12-.08l.09-2.05c0-.06 0-.07-.08-.1-.28-.1-1.77-.16-2.59-.16-2.35 0-3.44.91-3.44 2.89v2.19c0 1.08.2 1.74.64 2.2.53.55 1.46.82 2.84.82h.22a6.05 6.05 0 0 0 2.41-.45c.08-.04.18-.12.18-.26m8.67-1.74s-.03-.02-.08-.02h-.94c-.05 0-.07.01-.1.1l-.33.83c-.04.1-.09.2-.28.2l-2.39.06v-2.21h2.09c.16 0 .16-.03.16-.13v-.92c0-.1-.01-.12-.12-.12h-2.13v-2.21l2.21.06c.23 0 .27.08.31.26l.18.74c.03.1.05.1.1.1h.84c.1 0 .1 0 .11-.09l.1-2.13c0-.1 0-.1-.06-.1h-6.05c-.06 0-.07.02-.07.04v.9c0 .06.02.07.06.08l.27.04c.27.02.34.1.34.33v5.13c0 .26-.08.3-.34.33l-.27.04c-.04 0-.06.02-.06.07v.9c0 .04.02.06.07.06h6.08c.07 0 .07 0 .08-.11l.23-2.16-.01-.07m-87.58 0l-.93.82a.72.72 0 0 1-.48.16c-.14 0-.32-.03-.5-.28a.7.7 0 0 1-.18-.43c0-.25.17-.46.32-.6l.96-.84.86 1.12-.05.05zm3.94 1.22h-.4c-.4 0-.49-.1-.66-.29a.58.58 0 0 1-.08-.08l-.82-1.02.94-.87a.06.06 0 0 0 0-.1l-.66-.82a.06.06 0 0 0-.1 0l-.94.85-1.48-1.84c-.23-.3-.33-.6-.31-.9.02-.32.14-.55.35-.7.2-.12.43-.15.59-.15.3 0 .36.01.6.1h.04l.02.04.18.87c.02.1.04.1.07.1h.78c.1 0 .12-.02.12-.1l.08-1.65-.01-.01a5.9 5.9 0 0 0-2-.3c-.81 0-1.37.1-1.77.32-.5.27-.75.73-.75 1.4 0 .4.1 1 .57 1.61l.09.14-.04.03-1.55 1.46a1.2 1.2 0 0 0-.42.9c0 .2.07.77.66 1.45.45.5.94.77 1.47.77.4 0 .82-.16 1.13-.44l1.2-1.05.49.63c.3.4.47.57.72.66.26.1.63.1 1.3.1h.52c.16 0 .16-.05.16-.1v-.93c0-.08 0-.08-.09-.08zM51.42 1.67v1.68h3.36V0h-3.36v1.67m4.4 0v1.68h3.34V0H55.8v1.67m4.34 0v1.68h3.41V0h-3.4v1.67m4.39 0v1.68h3.3V0h-3.3v1.67m4.34 0v1.68h3.36V0h-3.36v1.67m-20.12 2.7h-1.7v3.36h3.41V4.35l-1.7.02m13.06 0l-1.69.02v3.34h3.41v-1.7c0-.93 0-1.69-.01-1.68l-1.7.02M51.42 6.04l.02 1.66 1.67.01 1.68.01-.01-1.67-.01-1.67h-3.36l.01 1.66m4.38 0v1.68h3.36V4.38H55.8v1.67m8.72 0l-.01 1.67h3.33V4.38h-3.3l-.02 1.67m4.36 0v1.67h3.36V4.38h-3.36v1.67m4.38 0l-.02 1.67h3.4V4.38h-3.36l-.01 1.67m-24.5 2.64l-1.7.01V12l1.71.02 1.7.01V8.67l-1.7.03m2.64 1.64V12h3.36l.01-1.66.01-1.66h-3.39v1.66m13.12 0l.02 1.66h3.3l.01-1.66.02-1.66h-3.36l.01 1.66m8.74 0l.01 1.66 1.68.02 1.68.01V8.67h-3.39l.02 1.66m-17.46.02v1.64h3.36V8.7h-3.36v1.65m4.34 0v1.64h3.41V8.7h-3.4v1.65m8.73 0v1.64h3.36V8.7h-3.36v1.65M38.34 14.7v1.67h3.41v-3.35h-3.4v1.68m4.34 0v1.67h3.35v-3.35H42.7v1.68m4.39 0v1.67h3.4v-3.35h-3.4v1.68m4.34 0v1.67h3.36v-3.35h-3.36v1.68m4.4 0v1.67h3.33v-3.35H55.8v1.68m4.34 0v1.67h3.41v-3.35h-3.4v1.68m4.39 0v1.67h3.3v-3.35h-3.3v1.68m4.34 0v1.67h3.36v-3.35h-3.36v1.68m4.39 0v1.67h3.36v-3.35h-3.36v1.68m4.29 0v1.67h3.4v-3.35h-3.4v1.68m4.39 0v1.67h3.41v-3.35h-3.41v1.68m-61.07 4.35l.01 1.67 1.7.01 1.69.02v-3.38h-3.41l.01 1.68m6.07-1.66l-1.69.01v3.35h1.68c1.3 0 1.69-.02 1.7-.07.02-.03.03-.8.02-1.68l-.01-1.63-1.7.02m69.8 0l-1.67.01-.02 1.67v1.68h3.38v-1.7c0-.94-.01-1.7-.02-1.69l-1.68.03m2.63 1.67v1.69l1.69-.02 1.7-.01v-1.66l.02-1.66-1.7-.01-1.71-.02v1.7m-78.5 4.29v1.68h3.41l-.01-1.67-.02-1.67-1.69-.02h-1.7v1.68m78.54-1.65c-.02.02-.03.77-.03 1.68v1.65l1.7-.01 1.7-.01v-3.35h-1.66c-.92 0-1.7.02-1.71.04m-69.75 6.01v1.67h3.32v-3.34h-3.31v1.67m4.34 0v1.67h3.36v-3.34H34v1.67m4.34 0v1.67h3.41v-3.34h-3.4v1.67m4.34 0v1.67h3.35v-3.34H42.7v1.67m4.39 0v1.67h3.4v-3.34h-3.4v1.67m8.73 0v1.67h3.36v-3.34h-3.36v1.67m4.34 0v1.67h3.41v-3.34h-3.4v1.67m4.39 0v1.67h3.3v-3.34h-3.3v1.67m8.73 0v1.67h3.36v-3.34h-3.36v1.67m4.29 0v1.67h3.4v-3.34h-3.4v1.67m4.39 0v1.67h3.41v-3.34h-3.41v1.67m4.4 0v1.67h3.3v-3.34h-3.32v1.67m4.34 0v1.67h3.36v-3.34H90.7v1.67m-52.35 4.36v1.69h3.41V30.4h-3.4v1.68m10.42-1.67l-1.7.02v3.34h3.41V30.38l-1.7.03m13.06 0l-1.69.02.01 1.65.02 1.66 1.7.02 1.68.01v-1.7c0-.93 0-1.7-.01-1.69l-1.7.03m2.67 1.67v1.69h3.36V30.4h-3.36v1.68m8.73 0v1.69h3.37v-1.69l.02-1.68h-3.4v1.68m10.4-1.67l-1.69.02v3.34h3.41v-1.7c0-.93 0-1.7-.01-1.69l-1.7.03m4.36 0l-1.66.02-.02 1.67-.01 1.67h3.33l.01-1.7.02-1.69-1.67.03M29.66 32.1v1.67H33l-.02-1.67-.01-1.68h-3.31v1.68m4.34 0v1.67h3.36v-3.35H34v1.68m21.81 0v1.67h3.36v-3.35h-3.36v1.68m34.88 0v1.67h3.36v-3.35H90.7v1.68M34 36.37v1.67h3.36V34.7H34v1.67m4.34 0v1.67h3.41v-1.66l-.02-1.66-1.7-.01-1.69-.01v1.67m8.74 0v1.67l1.7.01 1.7.02V34.7h-3.4v1.67m4.34.01v1.69l1.68-.02 1.68-.01.01-1.67.01-1.67h-3.39v1.68m4.4-.01v1.67h3.36V34.7h-3.36v1.67m4.34 0v1.67h3.41V34.7h-3.4v1.67m4.37.01l-.01 1.69 1.66-.02 1.67-.01.01-1.67.02-1.67h-3.33l-.02 1.68m4.36-.01v1.67h3.36V34.7h-3.36v1.67m4.38 0l.01 1.67h3.34l-.01-1.63c0-.9-.01-1.65-.02-1.67 0-.03-.75-.04-1.67-.04h-1.67l.02 1.67m8.69 0v1.67l1.7.01 1.71.02V34.7h-3.41v1.67m4.38.01l-.01 1.69 1.66-.02 1.67-.01.01-1.67.02-1.67h-3.33l-.02 1.68m-39.26 4.4v1.7l1.7-.02 1.68-.02.02-1.68.01-1.69h-3.41v1.7m4.34 0v1.7h3.38l-.01-1.7-.01-1.7h-3.36v1.7m17.47 0v1.7h3.36v-3.4h-3.36v1.7m4.38 0l-.02 1.7h3.38v-1.7l-.01-1.7h-3.34l-.01 1.7m-24.5 2.67h-1.7v3.36h3.41v-3.38l-1.7.03m24.49 1.68l-.02 1.68 1.68-.02 1.68-.01V45.1l.02-1.66h-3.35l-.01 1.67m-30.58 4.3v1.7h3.35l.02-1.7.01-1.7h-3.38v1.7m4.39 0v1.7h3.4v-3.4h-3.4v1.7m26.2 0v1.7l1.67-.01 1.66-.02v-3.34l-1.66-.02-1.67-.01v1.7m4.29 0v1.7h3.4v-3.4h-3.4v1.7M29.7 53.8v1.7h3.34l-.02-1.7-.01-1.7H29.7v1.7m12.98 0v1.7h3.36v-3.4H42.7v1.7m34.88 0v1.7h3.4v-3.4h-3.4v1.7m13.12 0v1.7h3.34L94 53.8v-1.7h-3.31v1.7M34 58.12v1.7h3.36v-3.4H34v1.7m4.34 0v1.7h3.41v-1.69l-.02-1.68-1.7-.02-1.69-.01v1.7m4.35 0v1.7h3.38l-.01-1.7-.02-1.7H42.7v1.7m34.9-1.63c-.01.03-.02.79-.01 1.68l.01 1.62 1.7.02h1.69v-3.38H79.3c-1.3 0-1.69.02-1.7.07m4.37 1.62l.02 1.68 1.69.02h1.7v-3.39h-3.42l.01 1.69m4.37 0l.02 1.7h3.3l.01-1.7.02-1.69h-3.36l.01 1.7"/>
</svg>
