<svg width="135" height="40" viewBox="0 0 135 40" xmlns="http://www.w3.org/2000/svg">
    <g>
        <rect stroke="#A6A6A6" stroke-width="1.1" fill="#000" x=".5" y=".5" width="134" height="39" rx="6"/>
        <path d="M53.65 7.86L51.87 15h-.91l-1.27-4.68a20.3066 20.3066 0 0 1-.155-.575c-.05-.1967-.0917-.37-.125-.52-.0333-.15-.0533-.255-.06-.315-.0133.0867-.05.2717-.11.555-.06.2833-.13.5783-.21.885L47.79 15h-.92L45.1 7.86h.93l1.03 4.36c.0667.3067.1267.6033.18.89.0533.2867.0967.5567.13.81.0333-.26.0817-.5433.145-.85s.135-.6067.215-.9l1.16-4.31h.92l1.21 4.34c.0867.3067.16.6133.22.92.06.3067.1067.5733.14.8.0267-.2467.07-.515.13-.805.06-.29.1267-.5917.2-.905l1.02-4.35h.92zm5.12 4.45c0 .8867-.2133 1.5733-.64 2.06-.4267.4867-1.0033.73-1.73.73-.4467 0-.845-.1083-1.195-.325-.35-.2167-.625-.5333-.825-.95-.2-.4167-.3-.9217-.3-1.515 0-.8867.21-1.57.63-2.05.42-.48.9933-.72 1.72-.72.4533 0 .8567.1083 1.21.325.3533.2167.63.53.83.94.2.41.3.9117.3 1.505zm-3.79 0c0 .6333.115 1.135.345 1.505.23.37.595.555 1.095.555s.8667-.185 1.1-.555c.2333-.37.35-.8717.35-1.505 0-.6333-.1167-1.13-.35-1.49-.2333-.36-.6033-.54-1.11-.54-.5 0-.8633.18-1.09.54-.2267.36-.34.8567-.34 1.49zm7.47-2.77c.0933 0 .1933.005.3.015.1067.01.2.025.28.045l-.1.81a2.5117 2.5117 0 0 0-.265-.05 2.0162 2.0162 0 0 0-.275-.02c-.2533 0-.4917.075-.715.225-.2233.15-.4033.36-.54.63-.1367.27-.205.585-.205.945V15h-.87V9.64h.71l.1.98h.04c.16-.2933.37-.5467.63-.76.26-.2133.5633-.32.91-.32zm2.38-2.14v3.97c0 .1067-.005.2467-.015.42a90.986 90.986 0 0 0-.025.45h.04c.04-.0533.0967-.13.17-.23.0733-.1.15-.2017.23-.305.08-.1033.15-.1883.21-.255l1.59-1.81h1.01L66 11.93 68.18 15h-1.04l-1.73-2.5-.58.53V15h-.86V7.4h.86zm7.53 6.12c0 .52-.18.9133-.54 1.18-.36.2667-.8533.4-1.48.4-.3533 0-.6583-.03-.915-.09-.2567-.06-.4817-.1433-.675-.25v-.8c.2067.1067.4533.205.74.295s.5767.135.87.135c.4067 0 .7017-.0717.885-.215.1833-.1433.275-.335.275-.575 0-.1333-.035-.2533-.105-.36-.07-.1067-.1933-.2133-.37-.32-.1767-.1067-.4317-.2267-.765-.36-.32-.1333-.595-.2667-.825-.4-.23-.1333-.4067-.2933-.53-.48-.1233-.1867-.185-.4267-.185-.72 0-.4533.1733-.8033.52-1.05.3467-.2467.8067-.37 1.38-.37.3067 0 .5933.0333.86.1.2667.0667.52.1533.76.26l-.29.7a5.3064 5.3064 0 0 0-.67-.24c-.2333-.0667-.47-.1-.71-.1-.3267 0-.5767.0583-.75.175s-.26.275-.26.475c0 .1533.04.2817.12.385.08.1033.2117.2033.395.3.1833.0967.435.2083.755.335s.5917.2567.815.39c.2233.1333.395.295.515.485s.18.4283.18.715zm8.06-1.21c0 .8867-.2133 1.5733-.64 2.06-.4267.4867-1.0033.73-1.73.73-.4467 0-.845-.1083-1.195-.325-.35-.2167-.625-.5333-.825-.95-.2-.4167-.3-.9217-.3-1.515 0-.8867.21-1.57.63-2.05.42-.48.9933-.72 1.72-.72.4533 0 .8567.1083 1.21.325.3533.2167.63.53.83.94.2.41.3.9117.3 1.505zm-3.79 0c0 .6333.115 1.135.345 1.505.23.37.595.555 1.095.555s.8667-.185 1.1-.555c.2333-.37.35-.8717.35-1.505 0-.6333-.1167-1.13-.35-1.49-.2333-.36-.6033-.54-1.11-.54-.5 0-.8633.18-1.09.54-.2267.36-.34.8567-.34 1.49zm7.54-2.77c.6 0 1.055.1567 1.365.47.31.3133.465.8133.465 1.5V15h-.87v-3.43c0-.86-.3667-1.29-1.1-1.29-.5533 0-.9333.1667-1.14.5-.2067.3333-.31.8133-.31 1.44V15h-.87V9.64h.7l.13.73h.05c.16-.28.3833-.4883.67-.625.2867-.1367.59-.205.91-.205zM51.565 30l-.871-2.678h-3.315L46.508 30H45l3.263-9.321h1.56L53.073 30h-1.508zm-1.248-3.9l-.858-2.613c-.026-.104-.0672-.2492-.1235-.4355a33.2058 33.2058 0 0 1-.169-.5785 12.3512 12.3512 0 0 1-.1365-.52 14.468 14.468 0 0 1-.2015.8515c-.0737.273-.1365.5005-.1885.6825l-.858 2.613h2.535zm7.189-3.237c.7627 0 1.3498.2037 1.7615.611.4117.4073.6175 1.0617.6175 1.963V30h-1.404v-4.368c0-1.092-.4333-1.638-1.3-1.638-.65 0-1.0963.2123-1.339.637-.2427.4247-.364 1.0357-.364 1.833V30h-1.404v-7.007h1.105l.195.936h.078c.208-.364.4962-.6327.8645-.806.3683-.1733.7648-.26 1.1895-.26zm3.341.13h1.508l1.339 3.978c.208.6067.351 1.1743.429 1.703h.039c.0433-.2253.104-.4897.182-.793s.1647-.611.26-.923l1.274-3.965h1.521l-2.808 7.956c-.2427.676-.5655 1.2068-.9685 1.5925-.403.3857-.9425.5785-1.6185.5785-.1907 0-.3618-.0108-.5135-.0325a4.8157 4.8157 0 0 1-.3965-.0715v-1.092c.0867.0173.195.0347.325.052.13.0173.2643.026.403.026.3813 0 .6803-.1148.897-.3445.2167-.2297.3857-.5308.507-.9035l.26-.754-2.639-7.007zm10.855-2.275h2.626c1.1267 0 1.9717.1733 2.535.52.5633.3467.845.9447.845 1.794 0 .5373-.1365.988-.4095 1.352-.273.364-.6522.5937-1.1375.689v.065c.3293.0693.6305.1842.9035.3445.273.1603.4918.39.6565.689.1647.299.247.6912.247 1.1765 0 .8493-.2773 1.5037-.832 1.963-.5547.4593-1.313.689-2.275.689h-3.159v-9.282zm1.443 3.874h1.365c.6587 0 1.1093-.117 1.352-.351.2427-.234.364-.5807.364-1.04 0-.4593-.1495-.7908-.4485-.9945-.299-.2037-.7648-.3055-1.3975-.3055h-1.235v2.691zm0 1.144v3.094h1.508c.676 0 1.1483-.1473 1.417-.442.2687-.2947.403-.6847.403-1.17 0-.442-.1387-.7995-.416-1.0725s-.767-.4095-1.469-.4095h-1.443zm9.802-2.873c.1127 0 .2383.0065.377.0195.1387.013.2557.0282.351.0455l-.143 1.287c-.0953-.026-.2058-.0477-.3315-.065a2.621 2.621 0 0 0-.3575-.026c-.312 0-.6088.0867-.8905.26-.2817.1733-.5092.4225-.6825.7475-.1733.325-.26.7172-.26 1.1765V30h-1.404v-7.007h1.105l.182 1.248h.078c.1993-.3727.468-.6955.806-.9685s.728-.4095 1.17-.4095zM90.5 26.49c0 1.1613-.2838 2.0583-.8515 2.691-.5677.6327-1.3368.949-2.3075.949-.598 0-1.1288-.1408-1.5925-.4225-.4637-.2817-.8298-.6933-1.0985-1.235-.2687-.5417-.403-1.2025-.403-1.9825 0-1.1613.2795-2.0562.8385-2.6845.559-.6283 1.3238-.9425 2.2945-.9425.6067 0 1.144.1408 1.612.4225.468.2817.8363.6912 1.105 1.2285.2687.5373.403 1.196.403 1.976zm-4.797 0c0 .7887.13 1.404.39 1.846.26.442.6847.663 1.274.663s1.0162-.221 1.2805-.663c.2643-.442.3965-1.0573.3965-1.846 0-.7973-.1343-1.4105-.403-1.8395-.2687-.429-.6977-.6435-1.287-.6435-.5807 0-1.001.2145-1.261.6435-.26.429-.39 1.0422-.39 1.8395zm11.583 3.497l-.988-3.874a66.3141 66.3141 0 0 1-.247-.9945c-.078-.325-.1343-.5958-.169-.8125h-.052c-.026.2167-.0758.4897-.1495.819a21.653 21.653 0 0 1-.2535 1.014l-1.04 3.848h-1.612l-1.781-7.007h1.417l.832 3.692c.0867.364.1647.728.234 1.092.0693.364.117.6717.143.923h.052c.026-.1473.0607-.3358.104-.5655.0433-.2297.091-.4593.143-.689.052-.2297.0997-.4268.143-.5915l1.04-3.861h1.547l1.001 3.861c.0693.26.143.5698.221.9295.078.3597.13.6608.156.9035h.039c.026-.2253.0758-.52.1495-.884.0737-.364.1582-.7367.2535-1.118l.858-3.692h1.391l-1.794 7.007h-1.638zm9.009-1.963c0 .6933-.2318 1.2177-.6955 1.573-.4637.3553-1.1288.533-1.9955.533-.468 0-.871-.0347-1.209-.104-.338-.0693-.65-.1777-.936-.325v-1.209c.3033.1473.65.2795 1.04.3965.39.117.7627.1755 1.118.1755.4593 0 .793-.0823 1.001-.247.208-.1647.312-.3857.312-.663 0-.156-.0412-.2968-.1235-.4225-.0823-.1257-.2362-.2557-.4615-.39-.2253-.1343-.5503-.2882-.975-.4615-.416-.1733-.767-.351-1.053-.533-.286-.182-.5027-.3987-.65-.65s-.221-.5677-.221-.949c0-.6067.234-1.0725.702-1.3975.468-.325 1.0833-.4875 1.846-.4875.3987 0 .7778.0433 1.1375.13a5.65 5.65 0 0 1 1.0465.364l-.429 1.053a8.5383 8.5383 0 0 0-.91-.3315c-.3033-.091-.6023-.1365-.897-.1365-.754 0-1.131.247-1.131.741 0 .1647.0455.3098.1365.4355.091.1257.2513.2492.481.3705.2297.1213.5482.2643.9555.429s.754.3358 1.04.5135c.286.1777.5027.3922.65.6435.1473.2513.221.5677.221.949zm4.16-5.161c.8667 0 1.5557.2838 2.067.8515.5113.5677.767 1.3412.767 2.3205v.754h-4.407c.0173.7193.1907 1.2697.52 1.651.3293.3813.793.572 1.391.572.4247 0 .8038-.0412 1.1375-.1235s.6738-.2058 1.0205-.3705v1.144c-.3293.1647-.6652.2838-1.0075.3575-.3423.0737-.7562.1105-1.2415.1105-.6413 0-1.2068-.1343-1.6965-.403-.4897-.2687-.8732-.6673-1.1505-1.196-.2773-.5287-.416-1.1873-.416-1.976 0-1.1787.2773-2.0887.832-2.73.5547-.6413 1.2827-.962 2.184-.962zm.013 1.066c-.4593 0-.8212.1603-1.0855.481-.2643.3207-.4182.7757-.4615 1.365h2.977c-.0087-.546-.1278-.9902-.3575-1.3325-.2297-.3423-.5872-.5135-1.0725-.5135zm7.735-1.066c.1127 0 .2383.0065.377.0195.1387.013.2557.0282.351.0455l-.143 1.287c-.0953-.026-.2058-.0477-.3315-.065a2.621 2.621 0 0 0-.3575-.026c-.312 0-.6088.0867-.8905.26-.2817.1733-.5092.4225-.6825.7475-.1733.325-.26.7172-.26 1.1765V30h-1.404v-7.007h1.105l.182 1.248h.078c.1993-.3727.468-.6955.806-.9685s.728-.4095 1.17-.4095z" fill="#FFF"/>
        <path d="M24 8c-3.7985 0-7.1897 1.7764-9.3895 4.5404-.021.0226-.0453.0388-.0615.0647-.0048.008-.0064.0194-.0113.0274C12.9504 14.6675 12 17.2247 12 20c0 2.777.9504 5.3357 2.541 7.3707.0048.008.0032.0162.0096.0242a.4411.4411 0 0 0 .0809.0922C16.833 30.2349 20.2128 32 24 32c3.8098 0 7.209-1.7861 9.409-4.5647.0129-.0145.029-.0258.0387-.042.0049-.0048.0049-.0113.0065-.0178C35.048 25.339 36 22.7802 36 20c0-2.7786-.952-5.3373-2.5426-7.374-.0048-.0064-.0032-.0129-.008-.0193-.0114-.0178-.0308-.0291-.0437-.0453C31.2058 9.7844 27.8082 8 24 8zm-.4138.86v5.7542c-1.5792-.0275-3.0986-.2133-4.4806-.543.9763-2.9629 2.6412-4.9494 4.4806-5.2113zm.8276 0c1.8378.2618 3.5043 2.2483 4.4806 5.2111-1.382.3298-2.9014.5156-4.4806.5431V8.86zm-3.3475.362c-1.1477 1.0118-2.1126 2.6088-2.7689 4.6341-1.0248-.299-1.9607-.6772-2.7656-1.1314 1.437-1.6681 3.3524-2.9095 5.5345-3.5027zm5.8658 0c2.1821.5932 4.0992 1.8346 5.5361 3.5027-.805.4542-1.7408.8324-2.7656 1.1314-.6579-2.0253-1.6229-3.6223-2.7705-4.6341zm-11.9224 4.1525c.8858.5156 1.917.9423 3.055 1.2737a18.9272 18.9272 0 0 0-.422 1.9768c-.0371.2247.1165.4364.3428.472a.3024.3024 0 0 0 .0646.0064.4145.4145 0 0 0 .409-.349c.105-.6612.244-1.2916.4073-1.8913 1.4596.3524 3.0598.5512 4.7198.5787v1.2479c0 .2279.1843.4137.4138.4137a.4146.4146 0 0 0 .4138-.4137v-1.2479c1.6584-.0275 3.2602-.2263 4.7182-.5787.1633.5997.3039 1.2285.409 1.8912.0355.2247.2473.3815.4735.3427.2263-.0356.3799-.2473.3427-.472a19.3515 19.3515 0 0 0-.4219-1.9768c1.1364-.3298 2.1692-.7581 3.0534-1.2721C34.361 15.23 35.1724 17.522 35.1724 20c0 2.478-.813 4.77-2.1837 6.6255-.8842-.5156-1.9187-.944-3.0566-1.2753a18.564 18.564 0 0 0 .354-1.5533c.042-.2247-.1083-.4397-.333-.48a.4154.4154 0 0 0-.4817.3329 17.6317 17.6317 0 0 1-.3362 1.487c-1.4596-.3523-3.0614-.5511-4.7214-.5786v-.834A.4136.4136 0 0 0 24 23.3102a.4136.4136 0 0 0-.4138.4138v.834c-1.66.0276-3.2618.2264-4.7214.5788a17.6317 17.6317 0 0 1-.3362-1.4871c-.042-.2247-.257-.3718-.4817-.333-.2247.0404-.3734.257-.333.4817.0986.5382.2182 1.0555.354 1.5533-1.1396.3298-2.1724.7581-3.0582 1.2737C13.639 24.77 12.8276 22.478 12.8276 20c0-2.478.813-4.77 2.1821-6.6255zm4.8071 4.1444a.4134.4134 0 0 0-.3507.2941l-.889 2.9612-.8099-2.161a.4145.4145 0 0 0-.7758 0l-.8098 2.161-.889-2.9612a.4144.4144 0 0 0-.5157-.278.4138.4138 0 0 0-.2764.514l1.2414 4.138a.412.412 0 0 0 .3831.2958c.1843.0145.3394-.1019.4009-.2684l.8534-2.2774.8535 2.2774a.416.416 0 0 0 .3879.2684h.013a.412.412 0 0 0 .383-.2958l1.2414-4.138a.4134.4134 0 0 0-.278-.514c-.055-.0161-.11-.0226-.1633-.0161zm6.6207 0a.4134.4134 0 0 0-.3508.2941l-.889 2.9612-.8098-2.161a.4145.4145 0 0 0-.7758 0l-.8098 2.161-.889-2.9612a.4134.4134 0 0 0-.514-.278.4134.4134 0 0 0-.278.514l1.2413 4.138a.412.412 0 0 0 .383.2958c.1779.0145.338-.1019.401-.2684L24 19.937l.8534 2.2774a.416.416 0 0 0 .388.2684h.013a.412.412 0 0 0 .383-.2958l1.2414-4.138a.4134.4134 0 0 0-.278-.514c-.055-.0161-.11-.0226-.1633-.0161zm6.6207 0a.4134.4134 0 0 0-.3508.2941l-.889 2.9612-.8098-2.161a.4145.4145 0 0 0-.7758 0l-.8098 2.161-.889-2.9612a.4134.4134 0 0 0-.514-.278.4134.4134 0 0 0-.278.514l1.2413 4.138a.412.412 0 0 0 .383.2958c.1876.0145.3395-.1019.401-.2684l.8534-2.2774.8534 2.2774a.416.416 0 0 0 .388.2684h.0129a.412.412 0 0 0 .383-.2958l1.2415-4.138a.4134.4134 0 0 0-.278-.514c-.055-.0161-.11-.0226-.1633-.0161zm-9.472 7.8669V31.14c-1.8491-.257-3.5108-2.2225-4.487-5.2112 1.3836-.3298 2.9062-.5156 4.487-.5431zm.8276 0c1.5808.0275 3.1034.215 4.487.5447-.9762 2.987-2.6379 4.9542-4.487 5.2096v-5.7543zm-6.1083.7564c.6611 2.0237 1.6325 3.6288 2.785 4.6423-2.1918-.5916-4.1169-1.8346-5.5587-3.5092.8066-.4558 1.7457-.8356 2.7737-1.133zm11.389 0c1.028.2975 1.9671.6773 2.7737 1.1331-1.4418 1.6746-3.367 2.9176-5.5587 3.5092 1.1508-1.0135 2.124-2.6186 2.785-4.6423z" fill="#FFF"/>
    </g>
</svg>
