<svg width="135" height="40" viewBox="0 0 135 40" xmlns="http://www.w3.org/2000/svg">
    <g>
        <rect stroke="#A6A6A6" stroke-width="1.1" fill="#000" x=".5" y=".5" width="134" height="39" rx="6"/>
        <path d="M47.004 23.88h-1.43v-8.073H43v-1.209h6.565v1.209h-2.561v8.073zm5.525-7.137c.8667 0 1.5557.2838 2.067.8515.5113.5677.767 1.3412.767 2.3205v.754h-4.407c.0173.7193.1907 1.2697.52 1.651.3293.3813.793.572 1.391.572.4247 0 .8038-.0412 1.1375-.1235s.6738-.2058 1.0205-.3705v1.144c-.3293.1647-.6652.2838-1.0075.3575-.3423.0737-.7562.1105-1.2415.1105-.6413 0-1.2068-.1343-1.6965-.403-.4897-.2687-.8732-.6673-1.1505-1.196-.2773-.5287-.416-1.1873-.416-1.976 0-1.1787.2773-2.0887.832-2.73.5547-.6413 1.2827-.962 2.184-.962zm.013 1.066c-.4593 0-.8212.1603-1.0855.481-.2643.3207-.4182.7757-.4615 1.365h2.977c-.0087-.546-.1278-.9902-.3575-1.3325-.2297-.3423-.5872-.5135-1.0725-.5135zm5.798 6.071h-1.404V14h1.404v9.88zm4.628-7.137c.8667 0 1.5557.2838 2.067.8515.5113.5677.767 1.3412.767 2.3205v.754h-4.407c.0173.7193.1907 1.2697.52 1.651.3293.3813.793.572 1.391.572.4247 0 .8038-.0412 1.1375-.1235s.6738-.2058 1.0205-.3705v1.144c-.3293.1647-.6652.2838-1.0075.3575-.3423.0737-.7562.1105-1.2415.1105-.6413 0-1.2068-.1343-1.6965-.403-.4897-.2687-.8732-.6673-1.1505-1.196-.2773-.5287-.416-1.1873-.416-1.976 0-1.1787.2773-2.0887.832-2.73.5547-.6413 1.2827-.962 2.184-.962zm.013 1.066c-.4593 0-.8212.1603-1.0855.481-.2643.3207-.4182.7757-.4615 1.365h2.977c-.0087-.546-.1278-.9902-.3575-1.3325-.2297-.3423-.5872-.5135-1.0725-.5135zm6.656-1.066c.8753 0 1.5427.351 2.002 1.053h.052l.156-.923h1.157v7.098c0 .9967-.2535 1.7507-.7605 2.262-.507.5113-1.2892.767-2.3465.767-.4853 0-.9273-.0347-1.326-.104-.3987-.0693-.7627-.1777-1.092-.325v-1.209c.6933.364 1.5123.546 2.457.546.5287 0 .9403-.1625 1.235-.4875.2947-.325.442-.7822.442-1.3715v-.234c0-.1127.0043-.26.013-.442s.0173-.3207.026-.416H71.6c-.2167.364-.4897.6305-.819.7995-.3293.169-.7107.2535-1.144.2535-.8147 0-1.456-.3185-1.924-.9555-.468-.637-.702-1.5232-.702-2.6585 0-1.1267.234-2.0172.702-2.6715.468-.6543 1.1093-.9815 1.924-.9815zm.351 1.144c-.494 0-.871.2145-1.131.6435-.26.429-.39 1.0552-.39 1.8785 0 .8147.13 1.4343.39 1.859.26.4247.6457.637 1.157.637.5807 0 1.001-.1755 1.261-.5265s.39-.9252.39-1.7225v-.26c0-.9013-.1343-1.5448-.403-1.9305-.2687-.3857-.6933-.5785-1.274-.5785zm8.333-1.144c.1127 0 .2383.0065.377.0195.1387.013.2557.0282.351.0455l-.143 1.287c-.0953-.026-.2058-.0477-.3315-.065a2.621 2.621 0 0 0-.3575-.026c-.312 0-.6088.0867-.8905.26-.2817.1733-.5092.4225-.6825.7475-.1733.325-.26.7172-.26 1.1765v3.692H74.98v-7.007h1.105l.182 1.248h.078c.1993-.3727.468-.6955.806-.9685s.728-.4095 1.17-.4095zm4.316 0c.8233 0 1.4452.1928 1.8655.5785.4203.3857.6305.9902.6305 1.8135v4.745h-1.001l-.273-.975h-.052c-.286.3813-.5872.6608-.9035.8385-.3163.1777-.7518.2665-1.3065.2665-.5893 0-1.0812-.1712-1.4755-.5135-.3943-.3423-.5915-.8775-.5915-1.6055 0-1.4127 1.027-2.158 3.081-2.236l1.118-.039v-.39c0-.5113-.1062-.8732-.3185-1.0855-.2123-.2123-.5092-.3185-.8905-.3185-.3207 0-.6392.052-.9555.156a6.192 6.192 0 0 0-.9035.377l-.429-1.001c.3207-.1733.6868-.3185 1.0985-.4355.4117-.117.8472-.1755 1.3065-.1755zm1.092 3.77l-.845.026c-.7193.0347-1.2155.169-1.4885.403-.273.234-.4095.5547-.4095.962 0 .364.0975.6283.2925.793.195.1647.4485.247.7605.247.4767 0 .8775-.1517 1.2025-.455.325-.3033.4875-.7583.4875-1.365v-.611zm10.816-3.77c.7453 0 1.3065.2037 1.6835.611s.5655 1.0617.5655 1.963v4.563H95.39v-4.381c0-1.0833-.3987-1.625-1.196-1.625-.5633 0-.9642.1928-1.2025.5785-.2383.3857-.3575.9382-.3575 1.6575v3.77h-1.417v-4.381c0-1.0833-.3943-1.625-1.183-1.625-.5893 0-.9967.2123-1.222.637-.2253.4247-.338 1.0357-.338 1.833v3.536H87.07v-7.007h1.105l.208.936h.065c.1907-.364.4615-.6327.8125-.806s.7302-.26 1.1375-.26c1.0053 0 1.6727.377 2.002 1.131h.091c.208-.3813.4962-.6652.8645-.8515.3683-.1863.7648-.2795 1.1895-.2795zm7.488-2.145h2.626c1.1267 0 1.9717.1733 2.535.52.5633.3467.845.9447.845 1.794 0 .5373-.1365.988-.4095 1.352-.273.364-.6522.5937-1.1375.689v.065c.3293.0693.6305.1842.9035.3445.273.1603.4918.39.6565.689.1647.299.247.6912.247 1.1765 0 .8493-.2773 1.5037-.832 1.963-.5547.4593-1.313.689-2.275.689h-3.159v-9.282zm1.443 3.874h1.365c.6587 0 1.1093-.117 1.352-.351.2427-.234.364-.5807.364-1.04 0-.4593-.1495-.7908-.4485-.9945-.299-.2037-.7648-.3055-1.3975-.3055h-1.235v2.691zm0 1.144v3.094h1.508c.676 0 1.1483-.1473 1.417-.442.2687-.2947.403-.6847.403-1.17 0-.442-.1387-.7995-.416-1.0725s-.767-.4095-1.469-.4095h-1.443zm12.35.754c0 1.1613-.2838 2.0583-.8515 2.691-.5677.6327-1.3368.949-2.3075.949-.598 0-1.1288-.1408-1.5925-.4225-.4637-.2817-.8298-.6933-1.0985-1.235-.2687-.5417-.403-1.2025-.403-1.9825 0-1.1613.2795-2.0562.8385-2.6845.559-.6283 1.3238-.9425 2.2945-.9425.6067 0 1.144.1408 1.612.4225.468.2817.8363.6912 1.105 1.2285.2687.5373.403 1.196.403 1.976zm-4.797 0c0 .7887.13 1.404.39 1.846.26.442.6847.663 1.274.663s1.0162-.221 1.2805-.663c.2643-.442.3965-1.0573.3965-1.846 0-.7973-.1343-1.4105-.403-1.8395-.2687-.429-.6977-.6435-1.287-.6435-.5807 0-1.001.2145-1.261.6435-.26.429-.39 1.0422-.39 1.8395zm8.879 2.522c.3727 0 .702-.0563.988-.169v1.04c-.1473.0693-.3402.1278-.5785.1755a3.8043 3.8043 0 0 1-.7475.0715c-.3727 0-.7085-.065-1.0075-.195-.299-.13-.5395-.3553-.7215-.676-.182-.3207-.273-.767-.273-1.339v-3.874h-.897v-.624l.975-.52.468-1.482h.871v1.573h1.859v1.053h-1.859v3.848c0 .3813.0867.663.26.845.1733.182.3943.273.663.273z" fill="#FFF"/>
        <path d="M32.5196 11.0017c-.2585.012-.502.0873-.7183.1716h-.003c-.2194.0874-1.2623.527-2.8462 1.1926l-5.6804 2.397c-4.0754 1.7196-8.0817 3.412-8.0817 3.412l.048-.018s-.2764.0903-.565.289c-.1472.0964-.3095.229-.4508.4367-.1412.2078-.2554.527-.2134.8553.0692.5571.4298.8914.6883 1.075.2615.1868.511.2741.511.2741h.006l3.7568 1.2678c.1683.5421 1.145 3.7583 1.3795 4.4991.1383.4427.2735.7198.4418.9306.0812.1084.1773.1987.2915.271a.8599.8599 0 0 0 .1413.0663c.015.009.03.012.048.015l-.039-.009c.012.003.021.012.03.015.0301.009.0512.012.0902.0181.5951.1807 1.073-.1897 1.073-.1897l.027-.021 2.218-2.0238 3.7179 2.8579.0841.0361c.7754.3403 1.5599.1506 1.9746-.1837.4178-.3373.58-.7679.58-.7679l.0271-.0693 2.8733-14.747c.0811-.3644.1021-.7047.012-1.036-.0902-.3312-.3216-.6414-.6011-.807-.2825-.1687-.562-.2199-.8205-.2078zm-.0782 1.581c-.003.0482.006.0421-.015.1355v.009l-2.8462 14.5935c-.012.0211-.033.0663-.0901.1114-.0601.0482-.1082.0783-.3577-.021l-4.5473-3.4933-2.747 2.5085.577-3.692s7.123-6.6523 7.4296-6.9384c.3066-.286.2044-.3463.2044-.3463.021-.3493-.4629-.1024-.4629-.1024l-9.368 5.8151-.003-.015-4.4902-1.5148v-.003c-.003 0-.009-.003-.012-.003.003 0 .024-.009.024-.009l.024-.0121.024-.009s4.0094-1.6925 8.0848-3.412c2.0407-.8613 4.0965-1.7286 5.6774-2.3971a815.6236 815.6236 0 0 1 2.8161-1.1805c.0631-.0241.033-.0241.0781-.0241z" fill="#FFF"/>
    </g>
</svg>
