<svg xmlns="http://www.w3.org/2000/svg" width="135" height="40" viewBox="0 0 135 40">
    <defs>
        <linearGradient x1="31.7997" y1="183.2903" x2="15.0173" y2="166.5079" gradientUnits="userSpaceOnUse" gradientTransform="matrix(.8 0 0 -.8 0 161.6)" id="a">
            <stop offset="0" stop-color="#00a0ff"/>
            <stop offset=".0066" stop-color="#00a1ff"/>
            <stop offset=".2601" stop-color="#00beff"/>
            <stop offset=".5122" stop-color="#00d2ff"/>
            <stop offset=".7604" stop-color="#00dfff"/>
            <stop offset="1" stop-color="#00e3ff"/>
        </linearGradient>
        <linearGradient x1="43.8344" y1="171.9986" x2="19.6375" y2="171.9986" gradientUnits="userSpaceOnUse" gradientTransform="matrix(.8 0 0 -.8 0 161.6)" id="b">
            <stop offset="0" stop-color="#ffe000"/>
            <stop offset=".4087" stop-color="#ffbd00"/>
            <stop offset=".7754" stop-color="orange"/>
            <stop offset="1" stop-color="#ff9c00"/>
        </linearGradient>
        <linearGradient x1="34.827" y1="169.7039" x2="12.0687" y2="146.9456" gradientUnits="userSpaceOnUse" gradientTransform="matrix(.8 0 0 -.8 0 161.6)" id="c">
            <stop offset="0" stop-color="#ff3a44"/>
            <stop offset="1" stop-color="#c31162"/>
        </linearGradient>
        <linearGradient x1="17.2973" y1="191.8238" x2="27.4599" y2="181.6613" gradientUnits="userSpaceOnUse" gradientTransform="matrix(.8 0 0 -.8 0 161.6)" id="d">
            <stop offset="0" stop-color="#32a071"/>
            <stop offset=".0685" stop-color="#2da771"/>
            <stop offset=".4762" stop-color="#15cf74"/>
            <stop offset=".8009" stop-color="#06e775"/>
            <stop offset="1" stop-color="#00f076"/>
        </linearGradient>
    </defs>
    <rect stroke="#A6A6A6" stroke-width="1.1" fill="#000" x=".5" y=".5" width="134" height="39" rx="6"/>
    <path d="M45.934 16.195c0 .668-.2 1.203-.594 1.602-.453.473-1.043.711-1.766.711-.691 0-1.281-.242-1.765-.719-.485-.484-.727-1.078-.727-1.789 0-.711.242-1.305.727-1.785.484-.481 1.074-.723 1.765-.723.344 0 .672.071.985.203.312.133.566.313.75.535l-.418.422c-.321-.379-.758-.566-1.317-.566-.504 0-.941.176-1.312.531-.367.356-.551.817-.551 1.383 0 .566.184 1.031.551 1.387.371.351.808.531 1.312.531.535 0 .985-.18 1.34-.535.234-.235.367-.559.402-.973h-1.742v-.578h2.324c.028.125.036.246.036.363zm3.687-2.004h-2.183v1.52h1.968v.578h-1.968v1.52h2.183v.589H46.82v-4.796h2.801v.589zm2.602 4.207h-.618v-4.207h-1.339v-.589h3.297v.589h-1.34v4.207zm3.726 0v-4.796h.617v4.796h-.617zm3.352 0h-.613v-4.207h-1.344v-.589h3.301v.589h-1.344v4.207zm7.586-.617c-.473.485-1.059.727-1.758.727-.703 0-1.289-.242-1.762-.727-.472-.484-.707-1.078-.707-1.781 0-.703.235-1.297.707-1.781.473-.485 1.059-.727 1.762-.727.695 0 1.281.242 1.754.731.476.488.711 1.078.711 1.777 0 .703-.235 1.297-.707 1.781zm-3.063-.402c.356.359.789.539 1.305.539.512 0 .949-.18 1.301-.539.355-.359.535-.82.535-1.379s-.18-1.02-.535-1.379c-.352-.359-.789-.539-1.301-.539-.516 0-.949.18-1.305.539-.355.359-.535.82-.535 1.379s.18 1.02.535 1.379zm4.637 1.019v-4.796h.75l2.332 3.73h.027l-.027-.922v-2.808h.617v4.796h-.644l-2.442-3.914h-.027l.027.926v2.988h-.613z" fill="#fff" stroke="#fff" stroke-width=".16" stroke-miterlimit="10" transform="matrix(1.25299 0 0 1.23841 -9.7956 -9.5935)"/>
    <path d="M68.5263 21.8646c-2.3543 0-4.2777 1.771-4.2777 4.2143 0 2.4236 1.9234 4.2131 4.2777 4.2131 2.3594 0 4.2828-1.7895 4.2828-4.213 0-2.4435-1.9234-4.2144-4.2828-4.2144zm0 6.768c-1.2918 0-2.4032-1.054-2.4032-2.5537 0-1.5195 1.1114-2.5548 2.4032-2.5548 1.2919 0 2.4083 1.0353 2.4083 2.5548 0 1.4997-1.1164 2.5536-2.4083 2.5536zm-9.3335-6.768c-2.3594 0-4.2777 1.771-4.2777 4.2143 0 2.4236 1.9183 4.2131 4.2777 4.2131 2.3582 0 4.2777-1.7895 4.2777-4.213 0-2.4435-1.9195-4.2144-4.2777-4.2144zm0 6.768c-1.293 0-2.4082-1.054-2.4082-2.5537 0-1.5195 1.1151-2.5548 2.4082-2.5548 1.2919 0 2.4033 1.0353 2.4033 2.5548 0 1.4997-1.1114 2.5536-2.4033 2.5536zm-11.1065-5.4763v1.7907h4.3266c-.1266 1.0007-.4649 1.7363-.9836 2.249-.6315.6192-1.6151 1.3065-3.343 1.3065-2.6626 0-4.7476-2.1239-4.7476-4.7555 0-2.6316 2.085-4.7555 4.7476-4.7555 1.4397 0 2.4872.556 3.2603 1.2768l1.2768-1.262c-1.0813-1.0204-2.5198-1.8043-4.537-1.8043-3.6513 0-6.7199 2.9363-6.7199 6.545s3.0686 6.545 6.7198 6.545c1.9735 0 3.4558-.639 4.621-1.8378 1.1941-1.1802 1.5663-2.8397 1.5663-4.1796 0-.4161-.0351-.7988-.0977-1.1183h-6.0896zm45.416 1.3882c-.3522-.9424-1.4385-2.6799-3.6513-2.6799-2.1927 0-4.0183 1.7078-4.0183 4.2143 0 2.3604 1.8068 4.2131 4.2288 4.2131 1.9584 0 3.0886-1.1802 3.5535-1.8675l-1.4535-.9573c-.4849.701-1.1452 1.1653-2.1 1.1653-.9485 0-1.6289-.4297-2.065-1.2768l5.7024-2.3319-.1967-.4793zm-5.814 1.4032c-.0488-1.6248 1.2768-2.457 2.2266-2.457.7443 0 1.3758.3678 1.5863.894l-3.8129 1.563zm-4.6348 4.088h1.8745V17.6515h-1.8745v12.3842zm-3.0698-7.2324h-.0627c-.421-.4929-1.2241-.9387-2.2416-.9387-2.135 0-4.0872 1.8527-4.0872 4.228 0 2.3616 1.9521 4.1994 4.0872 4.1994 1.0175 0 1.8206-.4495 2.2416-.9573h.0627v.6044c0 1.6111-.8708 2.4768-2.2754 2.4768-1.1453 0-1.8557-.8174-2.149-1.5047l-1.63.6725c.4698 1.117 1.714 2.4917 3.779 2.4917 2.1977 0 4.0521-1.278 4.0521-4.3877V22.121h-1.7767v.6823zm-2.1439 5.8292c-1.2918 0-2.3731-1.0687-2.3731-2.54 0-1.4848 1.0813-2.5684 2.3731-2.5684 1.273 0 2.2767 1.0836 2.2767 2.5685 0 1.4712-1.0036 2.54-2.2767 2.54zm24.4384-10.981H97.795v12.3842h1.8694v-4.6924h2.6138c2.0762 0 4.1123-1.4848 4.1123-3.8465 0-2.3604-2.0412-3.8453-4.1123-3.8453zm.0488 5.9692h-2.6626v-4.2465h2.6626c1.3958 0 2.1928 1.1455 2.1928 2.1226 0 .9585-.797 2.1239-2.1928 2.1239zm11.5563-1.7796c-1.3507 0-2.7553.5895-3.333 1.896l1.659.6873c.3572-.6873 1.0137-.9102 1.7079-.9102.9698 0 1.9534.5758 1.9684 1.5926v.13c-.3383-.1932-1.0625-.4793-1.9534-.4793-1.7867 0-3.6073.9722-3.6073 2.7865 0 1.6594 1.4634 2.7282 3.1086 2.7282 1.258 0 1.9522-.561 2.3882-1.2137h.064v.9573h1.8055v-4.7505c0-2.1957-1.659-3.4242-3.8079-3.4242zm-.2255 6.7865c-.6114 0-1.4635-.2997-1.4635-1.049 0-.9585 1.0626-1.3263 1.9822-1.3263.8233 0 1.2092.1796 1.7091.4161-.1466 1.1468-1.1452 1.9592-2.2278 1.9592zm10.6116-6.5153l-2.1489 5.3685h-.0639l-2.2215-5.3685h-2.0161l3.338 7.5023-1.9046 4.1747h1.9534l5.1435-11.677h-2.08zm-16.8515 7.9234h1.8745V17.6515h-1.8745v12.3842z" fill="#fff"/>
    <path d="M16.348 33.969c-.235-.246-.371-.629-.371-1.125V15.152c0-.496.136-.879.371-1.125l.058-.054 9.914 9.91v.234l-9.914 9.91-.058-.058z" fill="url(#a)" transform="matrix(1.25299 0 0 -1.23841 -9.7956 49.8503)"/>
    <path d="M29.621 20.578l-3.301 3.305v.234l3.305 3.305.074-.043 3.914-2.227c1.117-.632 1.117-1.672 0-2.308l-3.914-2.223-.078-.043z" fill="url(#b)" transform="matrix(1.25299 0 0 -1.23841 -9.7956 49.8503)"/>
    <path d="M29.699 20.621L26.32 24l-9.972-9.973c.371-.39.976-.437 1.664-.047l11.687 6.641" fill="url(#c)" transform="matrix(1.25299 0 0 -1.23841 -9.7956 49.8503)"/>
    <path d="M29.699 27.379L18.012 34.02c-.688.386-1.293.339-1.664-.051L26.32 24l3.379 3.379z" fill="url(#d)" transform="matrix(1.25299 0 0 -1.23841 -9.7956 49.8503)"/>
</svg>
