<svg width="372" height="346" viewBox="0 0 372 346" xmlns="http://www.w3.org/2000/svg">
    <g fill="none">
        <circle fill="#E1E1E1" cx="186" cy="174" r="135"/>
        <g transform="translate(44 153.503)">

            <path d="M111.9924 1.5301c-2.666.666-38 8.333-65.333 32.333s-27.333 26.333-30 38.333c-2.667 12-2.667 19.334 0 18.667 2.667-.667-7.333 1.333-16 11.333 0 0 26 4.667 23.333 4-2.666-.666-22.666 4-22.666 4s15.333 40.667 100 55.334c84.666 14.666 130 0 144.666-1.334l-14-6 30.667-.666s35.483-39.597 32-60c-4.667-27.334-38.667-47.334-38.667-47.334s-3.333-17.333-32-36.666c-28.932-19.513-112-12-112-12" fill="#FFF" />
        </g>
        <path d="M281.3264 123.0331c.666-4.667-1.334-5.334-1.334-7.334s3.334-38-3.333-50-8.667-12-8.667-12-1.333-6.666-7.333-11.333-7.333-6.667-9.333-7.333c-2-.667-26.667-18.667-51.334-11.334-24.666 7.334-33.333 17.334-35.333 21.334s-2.667 6.666-2.667 6.666-4-.666-8.666 9.334c-4.667 10-4 25.333-4 30 0 4.666 5.333 26 5.333 26l-6.667-4-6.666 8 2 20 2.666 6v7.333s3.334 6.667 10 8.667c1.679.503 3.612.668 5.563.634.382 10.936 1.104 12.032 1.104 12.032l-.667 16s-10.666 5.334-12.666 22c-2 16.667-3.334 43.334 23.333 60 26.667 16.667 52 30 52 30s28-55.333 37.333-74.666c9.334-19.334-10.666-28.667-10.666-28.667s8-11.333 12.666-22.667c4.667-11.333 4.667-14.666 4.667-14.666s6 5.333 9.333-1.334c3.334-6.666 2-30.666 2-30.666v-4s.667.666 1.334-4" fill="#FFF"/>
        <path d="M158.6594 134.3661s-8-16-10.667-14.667c-2.666 1.334-2 18.667 1.334 24.667l3.333 6s-3.333-2 0 4 8.896 9.301 8.896 9.301-4.896-27.301-2.896-29.301" fill="silver"/>
        <path d="M161.3264 99.6991c-.667 13.334-1.54 49.936.229 63.968 1.771 14.032 5.771 18.032 5.771 18.032s11.333 55.334 37.333 60.667c26 5.333 46.667-42 46.667-42l-2.667-3.333s7.333-18 14.667-56c7.333-38 6.666-66.667-.667-78.667 0 0-14-24-40.667-23.333-26.666.666-34 2.666-46.666 13.333-12.667 10.667-17.334 20.667-17.334 23.333 0 2.667.667 12 .667 12l2.667 12z" fill="#E1E1E1"/>
        <path d="M274.6594 122.3661c0-2 2-4.667-2-28s-8.667-29.333-8.667-29.333 1.334 4-7.333-4-8.667-10.667-11.333-10.667c-2.667 0-24-.667-35.334 2-11.333 2.667-16.666 11.333-17.333 16.667l-.667 5.333s-6-2-1.333-12 8.667-12 8.667-12-5.334 2.667-10.667 9.333c-5.333 6.667-7.333 21.334-7.333 21.334s-2-11.334-.667-16.667c1.333-5.333 1.333 0-3.333 2.667-4.667 2.666-6 4.666-4.667 2.666 1.333-2 3.333-8 3.333-8s-4.666 0-7.333 4-1.333 10-1.333 12.667 1.333 10 1.333 10-13.333 25.333-13.333 23.333 4.666-16 4.666-16-2.666-26.666 0-32.666c2.667-6 8-10.667 8-10.667s16.667-24 44-24c27.334 0 43.334 12 49.334 18l-8-.667s6.666-.666 14.666 8c8 8.667 13.334 16.667 14 28.667.667 12-1.333 29.333-2 33.333-.666 4-4 11.334-4 11.334l-4 10.666 2.667-15.333z" fill="#929292"/>
        <path d="M63.9924 243.6991c6.667-10-.666-17.333 6-13.333 6.667 4 6.667 6 6.667 6s-12-20 22.667-43.333c34.666-23.334 61.333-22 61.333-22s-25.333 22.666-26 46c-.667 23.333 27.333 67.333 54.667 78 27.333 10.666 46.666.666 46.666-2 0-2.667 26.667-62.667 26.667-76 0-13.334.667-16.667.667-16.667l20 40.667s17.333-12.667 27.333 6.666c10 19.334-6.667 46-16.667 58l-7.333 8.667s-26.667-2.667-24.667-2.667 16.667 4.667 16.667 4.667-98.667 7.333-142.667-3.333c-44-10.667-96-38-98.666-47.334-2.667-9.333-2.667 0-2.667 0s10.667-9.333 20-16c9.333-6.666 8-4 9.333-6" fill="silver"/>
        <path d="M221.1594 164.8661c2.667-1 5.861-4.772 8-6.5 2.139-1.728 4.054-1.91 4.607-3.154 1.108-2.488 4.56-6.013-.107-5.346-4.667.667-8.333 10.5-13 9.833-4.667-.666-7.333-10-10.667-10.666-3.333-.667-3.333 3.333-1.333 6 0 0 .5-.167 4.5 3.333s8 6.5 8 6.5" fill="#929292"/>
        <path d="M199.1594 172.3661s5 8.5 19 8.5 18-5 18-5l-1-2.5s-8-2-17-1.5-19 .5-19 .5" fill="#FFF"/>
        <path d="M194.1594 168.8661c5-1 14-2.5 21-1s9 1 14.5 0 12 3 15 3.5c0 0-5 6-8.5 4.5s-12-3.5-18-4-11.5 2-16.5 1.5-6-.5-7-2-2.5-3-2.5-3" fill="#929292"/>
        <path d="M86.6594 285.0331c.667-2 6-8.667 6-8.667l10.667 10-6 6.667-10.667-8z" fill="#D15C22"/>
        <path d="M163.3264 178.3661c12 15.333 22.666 18.667 22.666 18.667l2.667-4s-1.378 16.062 25.333 17.333c28 1.333 31.334-20 31.334-20l6 10 7.333-10s-12.667 26-42.667 30-52.666-42-52.666-42" fill="#929292"/>
        <path d="M275.1858 121.1562c-1.613 28.095-8.903 57.902-13.499 65.044-5.15 8.002-16.875 20.249-16.875 20.249M159.5188 111.9521c1.228 50.624 2.762 60.441 2.762 60.441s8.283 21.784 25.771 31.909" stroke="#515151" stroke-width="3" stroke-linecap="round" stroke-linejoin="round"/>
        <path d="M189.5862 201.8476c.307 2.147 6.137 13.192 26.999 13.192 23.963 0 30.374-10.738 32.216-19.022" stroke="#515151" stroke-width="3" stroke-linecap="round" stroke-linejoin="round"/>
        <path d="M210.7561 154.9052s-3.682-2.147-1.534-2.761c2.147-.614 3.068 0 5.522 2.761 2.455 2.762 3.375 4.296 3.375 4.296s-4.909-4.296-6.135-4.603l-1.228-.306M227.3235 157.6669c1.841-2.147 3.683-5.522 5.83-5.522 2.148 0 2.454 2.147.613 3.067-1.84.921-2.76 0-3.988 1.227-1.227 1.228-2.455 1.228-2.455 1.228" fill="#515151"/>
        <path d="M216.5852 157.9735c3.375 2.762 7.364 3.375 10.738-.307l3.375-3.375s-.613 2.454-4.295 6.136c-3.681 3.682-6.136 3.682-7.363 2.762-1.227-.921-3.682-5.829-3.682-5.829" fill="#515151"/>
        <path d="M243.5852 53.6581c-14.728-2.147-33.136-4.602-40.192 1.228-11.971 9.888-10.739 16.874-10.739 15.954M199.4045 43.8407c-15.647 3.988-21.17 6.75-22.091 15.033-.92 8.284-3.681 11.353-3.988 11.045M184.3703 55.1923c-4.602 4.603-5.216 11.045-9.511 13.193" stroke="#515151" stroke-width="3" stroke-linecap="round" stroke-linejoin="round"/>
        <path d="M191.7336 49.0565c-9.817 6.749-12.579 8.897-11.045 18.102 1.534 9.204 1.534 12.272-.307 13.806M200.0178 51.204c-8.284 6.442-10.125 14.113-7.057 22.09" stroke="#515151" stroke-width="3" stroke-linecap="round" stroke-linejoin="round"/>
        <path d="M162.8938 49.0565c4.909-12.579 17.488-19.943 41.727-25.466 24.237-5.522 46.634 11.659 47.554 12.887 0 0 14.114 5.522 16.875 18.408 0 0 11.045 6.443 12.579 31.602 1.535 25.158.614 26.999-3.988 39.884M161.9738 51.5106c-2.148 1.841-11.353 5.522-11.353 28.227 0 22.704 5.216 28.226 3.99 35.896M166.5754 70.5331c0 13.499 2.455 17.795 2.455 17.795s-11.966 15.34-11.966 29.146M265.9817 65.0106c-12.272-1.534-15.34-19.943-38.658-22.704M266.5959 67.4647s6.136 7.057 7.057 31.602M233.4602 120.5429c.92-.613 2.475-4.019 13.199-4.844 8.667-.666 10.118 6.378 12.88 6.378" stroke="#515151" stroke-width="3" stroke-linecap="round" stroke-linejoin="round"/>
        <path d="M241.3264 116.3661c-4.603 2.147-.503 4.79-.503 4.79s5.336 1.21 11.659.614c0 0 2.832-5.15-1.156-6.071-3.989-.92-10 .667-10 .667" fill="#515151"/>
        <path d="M182.2229 117.1679c2.147.921 2.762 1.534 3.682.921.921-.614 4.111-5.67 12.088-5.056 7.977.614 10.616 7.203 10.616 7.203" stroke="#515151" stroke-width="3" stroke-linecap="round" stroke-linejoin="round"/>
        <path d="M190.6594 113.6991c-2.68 1.674-1.073 5.003.461 6.537 0 0 7.057 0 9.204.307 0 0 6.789-4.59 4.335-5.51-2.454-.921-8.768-4.602-14-1.334" fill="#515151"/>
        <path d="M157.6779 122.3837c-1.534-1.841-7.67-9.511-9.511-8.284-1.841 1.227-4.296 4.296-4.296 4.296s-.613 12.579.921 19.329c1.534 6.749 6.75 9.511 6.444 14.112M146.3264 119.3153c1.228.614 9.511 5.216 9.817 13.5" stroke="#515151" stroke-width="3" stroke-linecap="round" stroke-linejoin="round"/>
        <path d="M146.9397 141.4062s-3.375 8.59 1.841 15.954c5.216 7.363 11.966 6.136 12.272 3.682M157.3713 132.2011s-7.363 4.603-2.454 9.512M281.3225 119.0087c2.454 2.147 2.147 5.829 2.147 5.829s-7.976 5.83-9.817 19.636" stroke="#515151" stroke-width="3" stroke-linecap="round" stroke-linejoin="round"/>
        <path d="M280.4016 128.5194c-1.227 10.125 2.455 15.341-.92 23.625 0 0 .613 9.817-3.988 12.579-4.603 2.761-6.75.307-6.75.307M245.426 171.4735s-1.534 2.147-7.057 2.454c-5.522.307-11.998-3.455-23.043-2.228-11.046 1.227-19.603 1.001-19.603 1.001l-3.682-3.989" stroke="#515151" stroke-width="3" stroke-linecap="round" stroke-linejoin="round"/>
        <path d="M195.7229 172.7001c3.067 1.841 6.749 3.988 6.749 3.988l-.307-3.067-6.442-.921zM234.3801 173.9276l-.92 3.682s4.909-.614 6.75-3.069l-5.83-.613z" fill="#515151"/>
        <path d="M252.4826 200.3134s-9.205 41.726-23.625 65.657c-14.42 23.931-13.192 26.999-12.886 28.533M161.6662 169.3251c.308 1.228 3.068 33.749-7.363 61.056M239.2893 245.1073c-.307 1.228 0 13.192-8.897 31.602-8.898 18.408-11.659 26.692-11.659 26.692" stroke="#515151" stroke-width="3" stroke-linecap="round" stroke-linejoin="round"/>
        <path d="M161.3264 173.6991c-10.394-4.564-37.652 16.205-41.334 34-3.682 17.795-6.966 44.424 29.334 77.334 19.821 17.971 39.033 15.913 42.407 18.062l-4.295-3.682s9.819 8.897 9.204 7.363c-.613-1.534-4.295-7.671-3.681-6.75.613.92 8.284 10.125 7.67 8.591-.614-1.534-3.374-8.284-2.148-6.75 1.228 1.534 11.353 5.829 10.739 4.909-.614-.921-9.205-8.284-7.364-6.137 1.841 2.148 11.966 7.978 11.966 7.978s-6.137-7.363-4.602-6.75c1.534.613 7.67 8.591 7.67 7.363 0-1.227-3.682-9.204-2.148-7.67 1.534 1.535 5.216 8.898 4.909 7.977-.306-.92 5.216-6.136-1.841-11.045-7.056-4.909-13.806-7.977-13.806-7.977s7.056 0 5.83-.307c-1.228-.307-8.591-3.375-8.591-3.375s7.363.307 5.522 0c-1.84-.307-8.897-1.227-9.51-1.227-.615 0 15.748.026 8.283-1.841-1.228-.306-2.761 2.148-9.818-2.147-7.056-4.296-14.113-6.75-14.113-6.75l8.283.613s-12.579-6.136-11.658-5.829l11.045 3.682s-11.966-6.75-10.738-6.75c1.227 0 10.738 3.068 9.511 3.068-1.227 0-10.124-3.375-15.034-6.137-4.909-2.76-14.113-13.805-20.25-25.771-6.135-11.966-3.374-19.636-3.374-19.636.614-18.101 12.579-26.386 12.579-26.386l-.647-18.023z" fill="#515151"/>
        <path d="M266.9026 176.6884s3.375 4.909 9.817 6.137l-2.147 1.841s4.909-.921 11.351 2.454l-5.522.614s2.762 4.295 9.512 3.067l-4.296 2.455 5.83.92s-6.137.921-5.216 1.228c.92.306 8.59 3.375 7.363 2.762-1.227-.615-6.443-.615-6.443-.615s6.137 3.375 9.818 2.455l-5.522 2.148s6.749.306 7.057 2.147c0 0-7.671-.306-6.75-.306.919 0 6.135 5.829 6.135 5.829s-6.135-2.761-4.909-1.841c1.228.921 3.682 8.591 3.068 7.363-.613-1.226-4.294-2.147-3.681-1.226.613.92 3.068 6.135 3.068 6.135s-3.681-1.534-3.068-.306c.613 1.227 1.534 8.283 1.227 7.363-.306-.921-3.068-1.841-2.455-.921.615.921 1.228 7.364 1.228 7.364s-.307 6.136.921 7.67c1.226 1.534-3.683-2.761-3.069-1.841.614.92.307 9.511 0 8.285-.306-1.228-2.761-5.83-2.761-3.375 0 2.454.921 8.897.306 8.283-.613-.613-3.681-3.068-3.067-1.841.613 1.228.92 9.204.92 9.204l-4.602-3.067.307 8.591s-2.455-7.057-2.455-5.83c0 1.227-1.533 11.965-1.841 9.511-.307-2.455-1.841-7.977-1.841-5.216s-.92 8.898-.92 8.898-2.455-3.682-2.455-2.455c0 1.227 0 7.671-.306 6.75-.307-.92-.92.306-3.682 4.909-2.761 4.602.307-5.522-.613-4.603-.921.921-3.069 7.671-3.375 6.75-.307-.919-.307-4.294-1.228-2.454-.92 1.841-2.147 5.829-2.147 5.829 0-2.147 1.227-5.215 0-2.147-1.228 3.068-3.375 5.522-3.375 5.522s1.84-3.681-3.069 1.535c-4.908 5.215-5.522 3.681-9.204 7.976-3.681 4.296-5.829 5.216-6.75 7.363-.92 2.149-1.533 6.137-1.533 4.603 0-1.534 1.227 1.841-6.75-3.988-7.978-5.83-9.512-8.898-9.512-8.898s16.875-35.59 17.795-45.101c.921-9.511.921-10.739.921-10.739s9.204-26.078 11.045-34.362c1.841-8.284 3.375-12.886 3.375-12.886s7.363-8.284 9.511-13.5c2.148-5.215 3.989-6.443 3.989-6.443" fill="#515151"/>
        <path d="M146.3264 157.0526c-12.579 3.989-54.612 17.795-73.941 48.477-19.33 30.68-12.886 37.43-9.511 39.271" stroke="#515151" stroke-width="3" stroke-linecap="round" stroke-linejoin="round"/>
        <path d="M64.4084 232.8349c3.375-6.75 6.892 2.331 33.584 30.864 26.692 28.533 46 38 67.049 42.157 29.16 5.757 59.828 3.068 65.044 11.044M243.2776 315.6737c9.818-16.875 22.704-26.386 29.147-32.522 6.443-6.136 38.965-58.601 23.931-85.907" stroke="#515151" stroke-width="3" stroke-linecap="round" stroke-linejoin="round"/>
        <path d="M298.5041 204.3017c1.533-1.228 47.515 24.488 38.701 58.187-5.411 20.687-27.469 42.597-31.499 49.497M74.5324 237.4374c-1.841.307-22.09 8.283-42.032 31.908M196.0295 172.3935s12.272 8.591 23.931 8.284c11.659-.306 19.022-3.989 21.784-6.75" stroke="#515151" stroke-width="3" stroke-linecap="round" stroke-linejoin="round"/>
        <path fill="#515151" d="M71.3264 281.0331l10.666 6 3.334-6.667-8-5.333-8.667 8M81.9924 269.0331l7.334 6.666 5.333-6.666-6-8zM39.3264 260.3661c2.666.667 7.333 5.333 7.333 5.333l8-8.666-5.333-5.334-10 8.667zM55.3264 245.6991l6 7.334 9.333-9.334-2.667-5.333zM206.1594 95.8661c4.5 6 3.5 11.5 3.5 11.5s-22.5-5-28-4.5-13 9.5-12.5 8 2-13 13.5-18l-3.5 4.5s4.5-2.5 9-3.5 12 5 15 5.5 3-3.5 3-3.5M236.6594 95.8661c-1.5 4-3 11-1.5 10.5s15-2.5 20-3 7-2 10 3 5 12 5 10.5-.5-19-6-21-20.5 0-23 1-4.5-1-4.5-1"/>
    </g>
</svg>
