<svg width="372" height="346" viewBox="0 0 372 346" xmlns="http://www.w3.org/2000/svg">
    <g fill="none">
        <circle fill="#E1E1E1" cx="186" cy="174" r="135"/>
        <path d="M296.128 264.1642c-3.9154.9789-65.582 25.4498-65.582 25.4498s54.8148-10.7672 49.9206-9.7884c-4.8942.9789-4.8942 11.746-58.7302 24.471-53.836 12.7248-70.4762 10.7671-70.4762 10.7671s7.8307-7.8307 18.598-12.7249c10.7671-4.8941 16.6401-8.8095 16.6401-8.8095l-13.7037-10.7672 14.6826 2.9365 11.746-20.5555 8.8095-11.746 47.963-24.471 14.6825-1.9576 15.6614 3.9153-23.492 22.5132 33.2804 10.7672z" fill="#515151"/>
        <path d="M304.9375 123.212c-14.6826-9.7884-51.8783-20.5556-63.6244-21.5344-11.746-.9789-136.0582 27.4074-170.3174 58.7301-34.2593 31.3228-48.9418 44.0476-56.7725 58.7302-5.5559 10.4168-9.6308 19.842-11.5307 24.4435 2.9404-5.646 12.5037-16.9486 40.8958-11.7186 37.1957 6.8518 52.8571 11.746 69.4973 22.5132 16.6402 10.7672 18.598 19.5767 18.598 19.5767s37.1957 5.873 49.9205-.9788c12.725-6.8519 21.5344-18.598 21.5344-18.598l-1.9576 4.8943c2.9365-3.9154 30.3439-23.4921 46.984-41.1112 16.6403-17.619 39.1535-37.1957 56.7726-45.0264 17.619-7.8307 27.4074-8.8095 35.238-9.7884 7.8308-.9788 13.7038 1.9577 13.7038 1.9577s-34.2593-32.3016-48.9418-42.09M2.6925 243.5815c-.9113 1.7501-1.1942 2.9639-1.1942 2.9639s.416-1.0797 1.1942-2.964" fill="#FFF"/>
        <path d="M97.71 69.9222c-4.5104 5.0752-5.639 6.2029-6.2028 13.5334-.5638 7.3305-4.5105 36.0887-4.5105 36.0887l10.1496 19.7362-5.0753 16.3525s5.0753 9.0229 6.7667 15.7886c1.6924 6.7667 1.6924 9.5867 3.3828 13.5344 1.6925 3.9466 5.0763 7.3295 6.203 16.9162 1.1285 9.5857 3.9486 23.1191 3.9486 23.1191h22.5543s6.2029 9.023 7.8953 12.9696c1.6904 3.9476 10.1495 29.8868 10.1495 29.8868l39.4716 25.3734 37.7811-47.9297s-18.0448-21.9915-19.7363-43.4192c-1.6914-21.4277 0-37.7801 0-37.7801s13.5334-9.023 21.4277-29.322c7.8943-20.3011 9.022-38.345 9.022-40.6012v-7.8933s-10.1496 14.661-10.1496 13.5324c0-1.1276 6.7667-18.6077-3.9467-32.141-10.7143-13.5335-18.6086-12.4058-18.6086-12.4058s-30.4496-9.5858-46.2392-8.4582c-15.7887 1.1277-40.6002 12.4058-42.2906 12.9696-1.6924.5638-14.0982 7.3305-14.0982 7.3305l-7.8943 2.819z" fill="#FFF"/>
        <path d="M97.146 162.9638l12.4058-1.1277s3.9477-2.819 6.7667-1.1276c2.82 1.6915 5.0743 7.3305 6.7667 5.6391 1.6924-1.6914 3.9467-4.5115 3.9467-4.5115l-9.022 12.4048-3.3838 7.8953-6.7667-10.1505s-1.6904-1.1276-4.5104-3.3829c-2.8191-2.2552-6.203-5.639-6.203-5.639M114.6265 118.9806l2.2562 7.8944s7.3305 8.458 15.7887 9.5857l8.458 1.1286-9.5857-4.5115 18.6077-6.2028 10.7143 1.1276s.5639-7.8943-3.9476-12.9696c-4.5105-5.0743-7.8933-11.841-14.0962-10.1496-6.2029 1.6915-23.1191 12.4048-23.1191 12.4048l-5.0763 1.6924zM87.5603 121.8c6.203-2.819 16.3525-2.2552 17.48.5639 1.1287 2.82.5649 4.5114.5649 4.5114l-3.9477 11.841-4.5114.5638-9.5858-17.48zM111.2436 195.1057l9.0219-.5638 6.7667-2.82-3.3829 12.4057s-5.639 0-7.3305 1.1276c-1.6924 1.1277-5.0752-10.1495-5.0752-10.1495" fill="#E1E1E1"/>
        <path d="M164.8129 53.0057c9.022 1.1276 9.5857 7.8943 9.022 20.3001-.5629 12.4058-5.6391 23.683-5.6391 23.683s9.0229 7.3304 15.7896 20.3 9.0219 25.9392 9.0219 28.1944c0 2.2553-.5638 6.2029-.5638 6.2029s-.5648-14.0972 10.7143-28.1944c11.2772-14.0972 16.9163-18.0448 20.863-20.3 3.9476-2.2553 6.7666-3.384 6.7666-3.384s4.5115-21.4276-3.9466-32.141c-8.4582-10.7133-15.2258-12.4057-16.9173-12.4057h-1.6914s-10.1505-5.0743-19.1725-5.0743c-9.0219 0-24.2467 2.819-24.2467 2.819" fill="#929292"/>
        <path d="M195.3078 157.4712c-.9788 14.6826-10.7671 35.2381-10.7671 35.2381l-35.2381 47.963-8.8096-20.5556 31.3228-20.5555s14.6825-14.6826 17.619-24.471c2.9365-9.7883 3.008-23.4039 3.008-23.4039M229.5671 107.5506c-1.9577-6.8519-24.4709 25.4497-24.4709 25.4497s3.9154 1.9577 3.9154 6.8519c0 4.8941-6.8519 11.746-6.8519 11.746l3.9153.9788s6.8519-.9788 15.6614-13.7037c8.8095-12.7248 8.6813-28.346 7.8307-31.3227" fill="silver"/>
        <path d="M182.583 47.8415c37.1957 12.7249 52.8571 32.3016 38.1746 56.7725 0 0-7.8307 2.9365-15.6614 14.6825-7.8307 11.746-10.4745 27.9027-12.0896 26.1868-1.614-1.7159-.7684-14.5406-9.021-28.1944-8.2545-13.6538-16.0852-26.3786-16.0852-26.3786s8.8096-6.8519 4.8942-20.5556c-3.9153-13.7037-10.8014-23.5518-10.8014-23.5518l20.5898 1.0386z" fill="#515151"/>
        <path d="M129.7258 266.122s-51.8783-52.8572-99.8412-46.0054c0 0 19.5767-32.3016 38.1746-46.9841C86.657 158.45 92.071 155.6338 92.071 155.6338l6.7667 15.7877 3.3828 13.5344 6.203 16.9162 4.6621 23.1387 20.5556 2.9365 6.8518-7.8307 6.8519 26.4286s-6.8519 2.9365-10.7672 9.7884c-3.9154 6.8518-6.8519 9.7883-6.8519 9.7883M201.1809 259.27s21.5344-11.746 46.984-41.111c25.4498-29.3651 39.1535-40.1323 61.6668-47.963 22.5132-7.8307 40.1322-4.8942 40.1322-4.8942s-13.3425-15.7964-46.0053-35.238c-41.111-24.471-64.6031-17.6191-64.6031-17.6191s-5.873 24.4709-14.6826 36.2169c-8.8095 11.746-17.619 15.6614-17.619 15.6614s.9788 5.873.9788 21.5344c0 15.6613 1.9577 40.1322 1.9577 40.1322l7.8307-3.9153v12.7249L201.1809 259.27z" fill="#D15C22"/>
        <path d="M147.3449 246.5452c-13.7037 9.7884-19.5767 28.3862-19.5767 28.3862l13.7037-1.9576-20.5556 18.5978 8.8095 9.7884s-11.746 4.8942-10.7672 10.7672c.9789 5.873 12.725 33.2804 12.725 33.2804s9.7883-26.4285 26.4285-36.2169c16.6402-9.7884 28.3862-15.6614 28.3862-15.6614l-13.7037-10.7672 14.6826 2.9365s9.7883-16.6402 11.746-20.5555c1.9577-3.9154 11.746-18.598 12.7249-21.5344.9788-2.9365 5.873-13.7037 5.873-13.7037s4.8942-8.8095 0-7.8307c-4.8942.9788-14.6826 25.4497-31.3228 36.217-16.6402 10.7671-30.3439 11.746-30.3439 11.746l-8.8095-23.4921z" fill="#929292"/>
        <path d="M160.0698 170.196c7.6877-3.2947 4.8941 6.852 0 9.7884-4.8942 2.9366-6.8519-6.8518 0-9.7883" fill="#D15C22"/>
        <path d="M94.3271 73.3056c-6.2029 23.1191-7.3305 47.3669-7.3305 47.3669l10.1496 20.3-5.0753 15.7887s7.8953 11.841 9.5867 23.1191c1.6914 11.2781 5.639 13.5334 7.8943 28.1944 2.2553 14.661 2.2553 17.481 2.2553 17.481l23.7837 1.5407s43.8832-25.2246 56.8518-51.1628l2.82-17.481M199.2098 130.8223c7.8943-18.0448 19.7363-22.5553 31.0144-31.0144 11.2772-8.4581 10.1496-14.0962 10.1496-14.0962s2.82 30.4496-10.7144 54.6964c-13.5334 24.2477-24.8105 27.0667-26.502 19.7362M205.9766 137.025c5.0752-12.4057 11.842-27.6305 24.2467-28.1943" stroke="#515151" stroke-width="3" stroke-linecap="round" stroke-linejoin="round"/>
        <path d="M208.2325 135.3332c9.022-8.4581 16.3524.5638 10.7134 6.7667-5.6381 6.2029-15.2249 12.4057-15.2249 10.1505 0-2.2552 2.2553-1.6924 5.0753-7.8953 2.819-6.2019-.5638-9.022-.5638-9.022zM111.2436 108.8305c1.1276 6.2029 4.5104 7.3305 4.5104 7.3305s11.2782-8.4581 21.9915-14.0972c10.7144-5.639 10.7144-2.2552 10.7144-2.2552l11.2781 17.48s-10.1495-11.842-15.2258-12.4048c-5.0743-.5638-28.1934 15.2249-29.8858 15.2249-1.6904 0-3.3828-11.2782-3.3828-11.2782zM101.658 118.4166c-9.5868-2.819-14.662 2.2553-14.662 2.2553v2.2562l7.8952-2.2562 9.5858 1.6924-2.819-3.9477z" stroke="#515151" stroke-width="3" stroke-linecap="round" stroke-linejoin="round"/>
        <path d="M128.724 117.8527l1.6924 5.0753-3.9486 3.9467s4.5124-1.1277 21.9925-2.2553" stroke="#515151" stroke-width="3" stroke-linecap="round" stroke-linejoin="round"/>
        <path d="M130.98 126.311c-3.384 2.82 6.7656 5.639 12.4057-1.1277l-12.4058 1.1277zM93.1992 130.8223l10.7134.5638s-2.819 3.9467-6.203 3.3839c-3.3828-.5639-4.5104-3.9477-4.5104-3.9477z" stroke="#515151" stroke-width="3" stroke-linecap="round" stroke-linejoin="round"/>
        <path d="M104.4768 120.1086c3.9466 3.9466-.5638 6.7667-.5638 11.2771 0 4.5115-5.6391 24.2478-5.6391 31.0144 0 0 3.9466 6.202 6.2029 7.3305M128.16 157.3249c1.6925 2.2552-5.0752 11.2771-5.0752 11.2771l-5.638-4.5104s-2.82-2.2553-6.7668 1.1276" stroke="#515151" stroke-width="3" stroke-linecap="round" stroke-linejoin="round"/>
        <path d="M133.7989 178.7528l9.5867 6.7667-3.9477-2.2562s-3.9466-1.6915-8.458-1.6915c-4.5115 0-12.9697-1.1276-12.9697-1.1276s-2.2562 3.9476-3.9476 4.5115c-1.6914.5638-4.5105-2.819-4.5105-2.819-3.9476 1.6913-3.3838 9.0218-3.3838 9.0218 2.2552-3.9476 3.3838-2.2552 5.639-2.2552 5.6665 0 3.9467 1.1266 8.4582-1.6924 4.5114-2.819 17.48-4.5105 17.48-4.5105" fill="#515151"/>
        <path stroke="#515151" stroke-width="3" stroke-linecap="round" stroke-linejoin="round" d="M123.6492 184.9556l1.1276 7.8943 3.9477-7.8943"/>
        <path d="M104.4768 77.253c-7.3305-10.7144-16.3525-9.022-14.662-22.5554 1.6924-13.5333 15.2258-27.0667 23.121-39.4725l-7.3314 16.9172s8.4581-12.4057 26.503-23.12l-12.9687 15.7885S142.8217 7.8946 145.077.0003c0 0-3.9476 18.0448 0 25.9391l1.6915-12.4057s5.0752 11.2771 8.459 16.3524c3.383 5.0753-3.3838-14.661-3.3838-14.661s24.2468 15.7886 25.3744 23.684c1.1286 7.8942.5648-2.8201.5648-2.8201s-10.1506-14.661-8.4591-14.0972c1.6924.5638 10.7133 5.0753 14.662 11.2772l-3.9487-6.202s10.7153-.5637 14.0982 7.3306l-.5638-5.6391s18.6077 19.1725 17.48 27.0668l-4.5104-.5638s-10.1506-7.8944-43.984-1.6915c-33.8335 6.203-58.0802 23.683-58.0802 23.683" fill="#515151"/>
        <path d="M211.0513 55.8252s24.8116 3.9476 20.3001 41.7277M165.3768 54.1337c12.9696 2.2553 10.1496 31.5773 3.9467 42.8554 0 0 15.7896 17.48 20.3 31.0135 4.5115 13.5334 3.9477 26.503 3.3839 24.8115-.5648-1.6924 2.2552-20.8639 13.5334-33.2696M142.4507 221.0955s7.7005 29.271 11.0843 47.8787M186.8042 206.9474c5.3092-2.9493 1.6924 9.0219-1.1266 9.0219-2.82 0-3.9487-6.2029 1.1266-9.022zM198.0818 213.7137c2.6702-1.068-.5629 10.7143-3.3829 10.7143s.5638-9.5867 3.3829-10.7143zM209 162.4968c0 19.0863-4.4048 38.1726 7.3413 80.75" stroke="#515151" stroke-width="3" stroke-linecap="round" stroke-linejoin="round"/>
        <path d="M147.3449 247.524c-13.7037 7.8307-19.5767 33.2805-18.5979 30.344.9788-2.9366 28.3862-7.8307 28.3862-7.8307l-9.7883-22.5133z" stroke="#515151" stroke-width="3" stroke-linecap="round" stroke-linejoin="round"/>
        <path d="M155.1756 269.0584s9.7883 4.8942 34.2592-13.7037c24.471-18.5979 25.4498-32.3016 25.4498-32.3016s3.9153 0 1.9576 7.8307c-1.9576 7.8307-29.365 56.7725-29.365 56.7725l-32.3016-18.5979zM155.1756 269.0584c-12.7249-.9788-27.4074 13.7037-34.2593 20.5556-6.8518 6.8518-.9788 2.9365 5.873 6.8518 6.8519 3.9154 1.9577 7.8307-3.9153 12.7249-5.873 4.8942 0 9.7884 1.9577 15.6614 1.9576 5.873 8.8095 18.5979 8.8095 18.5979s13.7037-29.3651 34.2592-39.1535c20.5556-9.7883 19.5768-9.7883 12.725-12.7249-6.852-2.9365-5.8731-6.8518-2.9366-6.8518s-22.5132-15.6614-22.5132-15.6614z" stroke="#515151" stroke-width="3" stroke-linecap="round" stroke-linejoin="round"/>
        <path d="M151.2602 276.8891h6.8519c2.9365 7.8307-10.7672 17.619-15.6614 12.7249-4.8942-4.8942-2.9365-9.7884 8.8095-12.7249zM240.8304 103.5033c56.4064 2.4735 89.1837 38.0787 106.1968 57.8835 8.6314 10.0457 23.492 3.9153 23.492 3.9153-11.746 1.9577-22.4573-1.013-33.2803-.9788-18.038.0567-42.3347 10.5225-65.582 31.3227-37.1958 33.2804-52.8572 50.8995-69.4974 60.6878M129.7258 267.1007s-23.492-25.4497-76.3492-34.2592C.5195 224.032 2.4772 249.4817 2.4772 249.4817c5.6704-17.0102 24.9847-66.3484 91.0317-102.7778" stroke="#515151" stroke-width="3" stroke-linecap="round" stroke-linejoin="round"/>
        <path d="M199.2232 266.122c26.4286-4.8943 91.0317 0 107.672 3.9153l.9788-11.746-14.6826-4.8943c-5.873-1.9576 16.6403-1.9576 16.6403-1.9576l-12.725-9.7884s-5.873-21.5344-.9787-40.1323c0 0-9.9998-10.0947-25.4498-3.9153-9.7883 3.9153-36.217 31.3227-36.217 31.3227l-31.3227 24.471-3.9153 12.7248zM123.8528 305.2754c-12.7248-20.5556-56.7725-37.1958-61.6666-44.0477-4.8942-6.8518-2.9366-1.9576 10.7672-7.8307 13.7037-5.873 20.5555-6.8518 20.5555-6.8518l17.619 6.8518 19.5768 13.7037s-4.8942 12.725-1.9577 10.7672c2.9365-1.9576 6.8519-2.9365 6.8519-2.9365l-14.6826 14.6826s.9789 1.9576 5.873 6.8518c4.8942 4.8942-2.9365 8.8096-2.9365 8.8096M89.5936 82.1007c-7.8307-6.8518-14.2382-8.8016.2222-27.4034l8.5873 12.721-8.8095 14.6824z" fill="#515151"/>
    </g>
</svg>
