<svg width="372" height="346" viewBox="0 0 372 346" xmlns="http://www.w3.org/2000/svg">
    <g transform="translate(50 16)" fill="none">
        <circle fill="#E1E1E1" cx="136" cy="158" r="135"/>
        <path d="M81.5771 89.0386s-7-20-3-25 14-15 14-15-2-13 10-27 37-22 61-22 31 12 31 12 24 8 34 28 8 31 6 38-11 17-11 17 7-4 9 1 3 13 2 16-12 18-12 18-3 31-5 37l-2 6-4 22s3-8 15 4 21 24 22 31l1 7s3-5 0 0-4 13-4 13-53 75-120 62-86-32-103-58l15 8-24-34h-13s17-10 27-14 21-10 21-10l5 1s0-4 6-8 10-1 10-1l6-4-4-30 11-16 18-3-4-4-18-17s-9-3-10-12 8-20 8-20l5-1z" fill="#FFF"/>
        <path d="M122.5771 61.0386c-9.675 10.555-8 89 6 111s45 34 61 25 30-29 30-44 3-23 3-23 9-10 8-22l-1-12-10 3 5-16s10-22-18-37-73 3-84 15" fill="#E1E1E1"/>
        <path d="M77.5771 99.0386c7-9 27 16 27 16s-9-6-9 0 8 13 8 13-2 6-8 3-14-10-16-18-2-14-2-14" fill="silver"/>
        <path d="M90.5771 87.0386c-8-11-3-33 2-38l13-15s4-24 41-30 39 6 39 6 27 9 37 24 8 33 4 35c0 0-12-36-60-28s-57 30-63 35-5 11-5 11l6 8v4l-14-8v-4z" fill="#D15C22"/>
        <path d="M95.5771 149.0386c-18-2-17 10-14 24s5 33 5 33l-11-14-4 14s-7-6-13 3l-6 9s-10-6-24 0-15 10-15 10 27 36 24 34-15-8-15-8 46 66 121 61c73.66-4.911 103-61 103-61l-10 3 12-16s-3-17-18-29c-15.617-12.494-25-16-25-16l-61-12-30-20-8 7-11-22z" fill="#929292"/>
        <path d="M223.7207 86.7056c-4.01 10.359-4.344 10.358-3.342 16.04 1.003 5.681 3.676 43.775-2.005 62.154-5.68 18.379-10.537 32.737-40.767 36.423-27.402 3.342-71.511-22.388-70.175-55.47 1.229-30.401-5.012-57.81-8.354-61.152" stroke="#515151" stroke-width="3" stroke-linecap="round" stroke-linejoin="round"/>
        <path d="M96.0703 89.3804c-1.337-6.016 31.077-45.114 74.853-47.787 43.775-2.673 59.146 25.062 53.465 43.441M103.4218 99.7378c-11.361-9.69-20.741-12.09-24.06-10.692-6.349 2.672-11.361 21.051-8.019 26.398 3.342 5.348 14.035 13.367 16.039 16.374 2.006 3.007 9.691 11.361 14.704 7.686 5.012-3.676 4.344-8.689 4.344-8.689" stroke="#515151" stroke-width="3" stroke-linecap="round" stroke-linejoin="round"/>
        <path d="M77.0234 99.7378c5.347-11.361 24.06 5.014 25.396 16.708 0 0-4.01-5.681-6.683-1.002-2.674 4.679 4.679 14.702 7.017 11.361M85.0429 97.3999c-4.677 1.67-6.683 11.361-.668 20.383M220.3789 99.0699c8.354-8.688 12.03-3.007 12.364 2.34 0 0 4.678 9.021-2.674 17.375-7.35 8.355-7.016 13.033-7.016 13.033s.668 4.678-.668 6.015M222.0498 109.4292c2.005-6.35 4.678-10.359 8.02-9.356M226.3945 102.7456c4.344-2.005 3.007 10.025.334 13.7M221.0468 113.439c3.008-4.678 4.011 6.35 1.338 9.691M81.0332 86.3726c-.667-4.011-1.671-15.371-.334-21.053 1.337-5.681 30.075-49.122 85.211-54.135 55.137-5.011 86.883 51.461 59.481 81.202" stroke="#515151" stroke-width="3" stroke-linecap="round" stroke-linejoin="round"/>
        <path d="M91.0586 48.6119s1.959-36.75 55.137-46.784c35.421-6.682 52.129 14.036 52.129 14.036M164.5742 159.2193c5.013-1.003 15.036-4.01 24.394-3.008 9.356 1.003 11.361 4.011 11.361 4.011" stroke="#515151" stroke-width="3" stroke-linecap="round" stroke-linejoin="round"/>
        <path d="M181.6162 141.1744c3.008 4.01 2.339 7.018 2.339 7.018s-10.355 1.791-15.368 4.798c-5.012 3.007-14.706 10.573-14.706 10.573s.338-9.236 8.692-16.588c8.354-7.351 19.043-5.801 19.043-5.801M188.2998 140.1724c-3.008 3.342.003 8.725 1.34 9.059 1.335.335 18.041 7.982 19.378 11.659 0 0 .334-9.024-7.687-15.371-8.019-6.35-13.031-5.347-13.031-5.347" fill="#515151"/>
        <path d="M108.4355 132.8199c1.002 19.716 14.368 35.088 28.069 34.753 13.701-.334 16.04-5.347 16.04-5.347s-4.344 14.704 3.007 14.035c7.352-.668 11.028-8.688 11.028-8.688s8.353-.334 19.715-1.337c11.362-1.002 15.037.335 15.037.335s0 10.359 2.673 8.02c2.674-2.339 4.345-9.023 4.345-9.023s0 12.364 3.341 9.356c3.342-3.006 7.352-10.024 6.683-8.688-.667 1.337-3.675 15.037-3.007 19.716.669 4.679-12.364 27.401-33.416 30.409l2.339-2.339s-13.701 5.347-26.064 1.671c-12.365-3.676-22.39-18.713-22.39-18.713s-15.706-16.374-24.727-25.396c-9.023-9.023-9.358-26.734-6.016-35.422 3.343-8.688 2.674-8.688 2.674-8.688l.669 5.346zM167.916 81.3589c3.007 3.008 1.671 8.021 1.671 8.021s-15.038-3.342-20.719-3.007c-5.681.333-15.037 6.013-15.037 6.013s8.688-11.36 14.035-13.032c5.346-1.671 18.713 3.677 18.713 3.677l1.337-1.672zM198.6582 84.7007c-2.673 4.011-1.337 6.35-.334 6.015 1.003-.333 10.025-3.342 12.364-3.007 2.339.334 10.359 4.344 10.359 4.344s-1.002-10.026-4.678-11.028c-3.676-1.002-12.364 3.342-14.034 3.342-1.671 0-3.677.334-3.677.334M96.0703 104.7505c-9.022-1.671-10.023 9.022-.668 17.042 0 0-2.674-3.341.334-6.349 3.008-3.007 6.684 1.002 6.684 1.002s-1.337-7.016-3.342-8.688l-2.005-1.67M80.3662 96.731c-3.042 5.069-2.34 8.688-.335 12.698s2.339 6.683 2.339 5.346c0-1.336-2.673-11.695.668-15.371 3.342-3.676 7.685-1.002 7.685-1.002s-8.353-5.014-10.357-1.671M223.0527 106.4224c4.01-3.677 5.681 3.675 4.678 6.349-1.002 2.672 4.01-6.349 1.671-9.692-2.339-3.342-5.347-.334-5.347-.334l-1.002 3.677z" fill="#515151"/>
        <path d="M98.4101 144.5162c-.334 1.337 2.673 15.037 2.673 15.037s16.04 20.718 25.062 26.399c9.023 5.681-9.022-5.681-9.022-5.681s22.724 42.105 48.454 40.767c25.73-1.335 32.412-11.695 32.412-11.695l-.333 11.362-3.008 71.177s-13.701-28.405-31.411-38.763c-17.71-10.359-29.406-17.71-29.406-17.71s-18.379-30.745-33.416-51.796c-15.037-21.052-22.389-28.07-22.389-28.07s9.691 8.355 9.691 3.341c0-5.012-5.681-12.363-5.681-12.363l9.022 4.01 7.352-6.015z" fill="#515151"/>
        <path d="M98.4101 144.5162c-4.679-1.337-15.706-.334-17.711 1.003-2.005 1.336-8.02 16.373-8.02 16.373l4.679 31.746s24.393 39.766 53.465 52.129c0 0 27.067-.668 42.439 15.037M196.3193 250.4448c6.016-20.717 21.721-41.102 30.409-38.094M199.9951 240.4214s1.671-28.739 14.703-33.418" stroke="#515151" stroke-width="3" stroke-linecap="round" stroke-linejoin="round"/>
        <path d="M215.3662 191.9663c10.36 6.016 35.756 25.063 34.419 49.122 0 0-29.739 1.337-35.087 4.679 0 0 5.013.335 1.671 4.01-3.342 3.675-20.384 36.424-18.045 48.454M139.5117 103.7476s13.032-12.029 28.404-2.34" stroke="#515151" stroke-width="3" stroke-linecap="round" stroke-linejoin="round"/>
        <path d="M147.8662 99.0699c-3.008 2.673 1.336 6.35 5.346 4.678 4.009-1.67 4.678-5.68 2.34-5.68-2.34 0-7.686 1.002-7.686 1.002" fill="#515151"/>
        <path d="M194.3144 101.4078s6.683-6.348 19.715 1.672" stroke="#515151" stroke-width="3" stroke-linecap="round" stroke-linejoin="round"/>
        <path d="M198.9931 99.4038c-3.677 2.004.668 5.681 5.012 4.344 4.343-1.336 2.34-3.675 2.34-3.675l-7.352-.669z" fill="#515151"/>
        <path d="M189.6367 96.396c1.337 6.35 2.673 18.045 2.673 18.045s7.351 10.025 6.015 14.703c-1.337 4.679-7.351 6.684-10.025 7.687" stroke="#515151" stroke-width="3" stroke-linecap="round" stroke-linejoin="round"/>
        <path d="M182.9531 135.4927s-5.347-3.341-7.018-1.67c-2.229 2.229 8.02 3.008 8.02 3.008l-1.002-1.338z" fill="#515151"/>
        <path d="M76.6894 190.9644c-6.015 2.339-6.35 6.016-6.35 6.016s-6.682-1.672-10.358 1.67c-3.676 3.341-4.345 5.345-4.345 5.345s-5.346-1.67-11.695 2.34c-6.35 4.01-9.023 5.682-9.023 5.682s-22.722 5.011-34.418 15.705" stroke="#515151" stroke-width="3" stroke-linecap="round" stroke-linejoin="round"/>
        <path d="M158.5771 185.0386c-4.611 3.311-8.32 17.672-4.219 21.924.056-1.628.669-3.199 1.219-4.599 1.052 3.646 1.05 7.798 4.952 9.727 3.28 1.622 9.292 1.067 13.048.948 4.137-.131 8.306-1.102 12-2.977 3.589-1.822 6.391-5.064 9.872-6.919-.622 1.908-2.574 6.035-4.547 7.015 11.258-4.757 19.804-19.044 11.62-29.765.185 2.084-.54 5.758-1.945 7.292-1.908-2.957-2.46-7.864-4.048-11.343 1.174 10.546-9.286 15.635-17.952 16.72-3.915.491-8.276-.647-10.774-3.975-2.91-3.877-1.79-8.299-2.377-12.742-3.26 2.157-3.637 6.738-6.646 8.614-.596-1.947-.256-3.936.901-5.617-.972 1.382-1.393 3.022-1.104 4.697" fill="#929292"/>
    </g>
</svg>
