<svg width="372" height="346" viewBox="0 0 372 346" xmlns="http://www.w3.org/2000/svg">
    <g fill="none">
        <circle fill="#E1E1E1" cx="186" cy="174" r="135"/>
        <path d="M126.5 115.1548c-6.5 13.5-7 32.5-7 32.5l-1 8-8.5-5.5s-5 6.5-5 12 2.5 10.5 2.5 10.5 5 13 6 17 5 7.5 5 7.5 2.5 1.5 2.5 6.5 4 14.5 5 16 3 5 3 5 5.5 11 19 28 29 18.5 43.5 14 27.5-24.5 33.5-35 12.5-45.5 12.5-45.5 4.5-6.5 5.5-13 5.5-17 2.5-18.5-5.5-2-5.5-2-2-13-1.5-22.5 5-40-20.5-44.5-63.5-3-65-1.5-19 8.5-20.5 10.5-6 20.5-6 20.5" fill="#FFF"/>
        <path d="M208 98.1548c17 7.5 7.5 51 7.5 51s-10.5 6.5-12 9-4.5 10.5-4.5 10.5 5.5-7.5 12.5-8.5-14 13.5-14 13.5 9 4 15 2 8-2.5 8-2.5 7.5 37-4.5 61-24.5 32.5-24.5 32.5 13.5-9.5 20-16 10.5-14 10.5-14l-1 24s-22.5 32.5-44.5 31-37.5-16.5-39.5-21.5-3.5-14-3.5-14l-4-28.5s-6.5-13.5-8-22-2.5-12.5-2.5-12.5l-1-9s-.5 3-3.5-1-8.5-22-6-24.5 6.5 4.5 6.5 4.5l3 5 .5-12.5 1-8s-10.5-22 12.5-43 54-23.5 55.5-23.5 20.5 17 20.5 17" fill="#E1E1E1"/>
        <path d="M160 228.6548s9 12 21.5 11.5 20.5-8.5 20.5-8.5l-9.5-.5s-3.5 5-12 4.5-10-6-10-6l-12.5-.5" fill="#515151"/>
        <path d="M133 243.1548c-7.5-4-9-3.5-11 5.5s-11.5 17.5-15 12-11-6.5-16 2.5-10.5 19-10.5 19 40.5 42 84.5 40.5 48-3 46.5-3.5 4-.5 11-4c15.401-7.7 11.5-23 13.5-20.5s0 14.5 0 14.5 10.5 0 30.5-20 27-28 22.5-40.5-26-12-26-12 22-12 9.5-21-22.5-9.5-27.5-1.5-14 8-13.5 6-.5-4-.5-4l-6 15.5v2l-4 25c0 1.5 10.5-5 16.5-19.5s10.5-23 10.5-15-6.5 22-6.5 22 8-5 12-3 1.5 16.5-10 19.5-14 1-41.5 24-40 29.5-53.5 20.5-23-16 1-12.5 38 0 38.5-3.5-5.5 1-11.5.5-30-6.5-37.5-20-6-28.5-6-28.5" fill="#515151"/>
        <path d="M167.5 203.1548c-1 4-5 .5-4 4.5s6 3.5 9.5 6 4 5 7 4.5 11-6.5 11-6.5l2-1.5s-2-2.5-6.5.5-7 2.5-9 1.5-.5-3.5-5-3.5-6-1.5-6-1.5l1-4z" fill="#929292"/>
        <path d="M118.21 151.1499c0 22.229-3.919 53.951 8.698 69.264 17.092 20.741 24.162 37.692 37.371 43.813 13.208 6.12 26.416 4.188 33.504-.967 7.088-5.154 15.217-18.105 28.028-34.148 12.696-15.9 11.275-32.86 12.886-55.089 1.611-22.229.967-36.727.967-36.727M129.8076 224.6011c2.578 11.598 2.578 37.692 9.665 49.29M223.8779 231.689c-2.255 15.142-1.61 24.483-3.544 29.316" stroke="#515151" stroke-width="3" stroke-linecap="round" stroke-linejoin="round"/>
        <path d="M133.6738 263.9048c8.054 14.175 19.974 27.705 38.015 28.027 18.041.323 36.725-17.074 53.156-35.115 16.43-18.041 17.396-30.282 17.074-24.806-.322 5.477-3.866 18.685-14.175 27.383 0 0 7.409-10.308 21.584-10.953" stroke="#515151" stroke-width="3" stroke-linecap="round" stroke-linejoin="round"/>
        <path d="M199.3936 158.5591c4.511-4.832 13.553-14.371 21.606-13.404 8.054.966 10.61 9.538 10.61 9.538s-2.9-4.832-16.43-.322-8.054 3.543-11.92 4.51c-3.866.967-3.866-.322-3.866-.322M169.7559 159.8482s-18.779-16.16-24.256-15.193c-5.476.966-12.148 11.327-12.148 11.327s5.95-1.005 14.648-1.327c8.698-.323 18.534 7.448 20.789 6.481 2.255-.967.967-1.288.967-1.288" fill="#515151"/>
        <path d="M119.499 195.2847c-.967.322-5.477-.644-6.121-5.799-.645-5.154-5.799-16.107-7.732-19.973-1.933-3.866 1.289-15.463 2.9-18.041 1.61-2.578 2.577-.322 8.054 4.188" stroke="#515151" stroke-width="3" stroke-linecap="round" stroke-linejoin="round"/>
        <path d="M109.1904 158.5591c8.054 4.188 9.02 16.107 8.698 15.142-.322-.967-1.289-5.155-3.221-1.289-1.934 3.866 2.254 11.275 3.221 10.631M239.6641 155.0152c4.832-2.577 6.442 1.611 6.442 1.611s-1.932 4.51-2.577 8.376c-.644 3.866.322 7.732-1.288 12.564-1.611 4.833-4.511 9.02-4.511 9.02" stroke="#515151" stroke-width="3" stroke-linecap="round" stroke-linejoin="round"/>
        <path d="M117.5664 152.438c-.967-.322-11.598-13.53-12.564-23.195 0 0-24.526-27.739-30.002-56.088 0 0 28.712-13.498 62.217-8.022 0 0 17.075-8.053 28.028-7.731 0 0-4.832-3.866-3.866-4.189.966-.322 11.276 3.222 9.987 2.578-1.288-.644-5.799-4.51-4.832-3.866.966.645 8.376 3.222 8.376 3.222s-2.255-6.121-.967-5.155c1.289.966 4.833.322 12.564 3.544 7.732 3.221 10.954 1.289 10.954 1.289s16.925-12.705 34.539-22.67c6.887-3.897 15.933-9.121 16-8 0 0 26 51-4.793 86.403 0 0 .644-.322.322 9.342-.322 9.665-1.61 4.833-1.61 7.088s-.323 8.054-.323 8.054-.322 0-.644 1.611c-.323 1.61-.967 7.409-1.288 6.764-.323-.644-4.511-17.718-7.088-27.06-2.577-9.343-2.9-14.819-2.9-13.531 0 1.289-2.255 9.342-2.255 9.342s0-10.308-.322-9.02c-.322 1.289-4.511 5.154-9.343 5.799 0 0 6.122-9.987 5.477-9.987-.645 0-8.054 9.342-8.054 8.699 0-.645 4.51-8.055 4.51-8.055s-8.054 6.121-7.409 5.155c.644-.967 5.799-7.41 4.832-6.765-.966.644-6.765 3.866-6.765 3.866l-1.933-3.222-2.577 4.51-5.477-.645s-12.565-4.832-9.986-4.832c.321 0 5.798 8.376 5.798 8.376s-8.377-6.443-7.732-5.476c.645.967 4.578 15.277 2.255 10.631-.644-1.288-20.498-10.882-39.625-8.054-13.57 2.007-17.382 6.164-21.57 15.507-4.189 9.343-1.303 16.064-1.303 16.064s-4.189 4.511-6.766 14.497c-2.577 9.988-2.255 21.585-2.577 20.296-.322-1.288-1.288-17.074-1.288-17.074" fill="#515151"/>
        <path d="M196.4941 174.9888s8.045-14.04 19.008-14.497c7.731-.322 8.054 10.31 8.054 10.31" stroke="#515151" stroke-width="3" stroke-linecap="round" stroke-linejoin="round"/>
        <path d="M217.4346 160.814c-6.731.748-9.021 9.021-3.544 10.953 5.478 1.934 8.396-1.352 9.021-3.543 1.588-5.569-2.578-7.732-5.477-7.41" fill="#515151"/>
        <path d="M199.7158 174.9888s5.155 1.611 13.854 0c8.698-1.61 12.241-5.799 12.241-5.799" stroke="#515151" stroke-width="3" stroke-linecap="round" stroke-linejoin="round"/>
        <path d="M141 171.1548c-2.5 1 3.302-8.467 12-7.5 8.698.967 13.5 12.5 13.5 12.5s-6.5-8-13-8.5-14.5 4.5-14.5 4.5" fill="#515151"/>
        <path d="M141 171.1548c-2.5 1 3.302-8.467 12-7.5 8.698.967 13.5 12.5 13.5 12.5s-6.5-8-13-8.5-14.5 4.5-14.5 4.5M166.2119 204.3052c0 4.833.322 6.121 4.51 5.799 4.188-.322 6.09 3.728 10.278 4.051 4.189.322 6.796-3.407 9.374-3.729 2.577-.322 2.9 1.289 4.832.322 1.933-.966 2.577-4.509 1.288-5.154M154.9365 225.2456s6.121 4.832 13.208 4.51c7.088-.322 11.92-.644 20.618.644 8.698 1.289 15.464.645 17.719-.966 0 0-14.482 12.721-25.773 11.598-11.309-1.126-25.772-15.786-25.772-15.786zM156.2246 221.0571c-1.288 2.256-.966 2.578-3.543 3.866" stroke="#515151" stroke-width="3" stroke-linecap="round" stroke-linejoin="round"/>
        <path d="M171.0439 230.0777s3.222 4.511 9.987 4.833c6.765.322 10.953-3.866 10.953-3.866M78.5 276.6548c6-17 17-30 30-31.5s-1.5 15 6 9.5 1.5-13.5 8.5-15M233 213.1548c23.5-14 57.5-7.5 56 6s-6.5 20.5-.5 19 7.5-2.5 7.5 1.5-3.5 23-10 30.5M235.5 308.6548s-9-23-24-17 1 26.5 1 26.5" stroke="#515151" stroke-width="3" stroke-linecap="round" stroke-linejoin="round"/>
        <path d="M246 26.6548c-9 7-28.5 35.5-30 40s15.5 22.5 15.5 22.5 6.5 6 7.5 13c0 0 12.5-9 13.5-28.5s-4.5-27-4.5-27 7 5.5 5.5 4-7-10.5-7-10.5l4.5 2-5-15.5zM78.5 73.6548c14.5-2.5 38.5-5.5 48 5 0 0-9 6-14 15l8.5-7s-12.5 10.5-13 23l7-9.5s-3.5 4-5.5 13.5-1.5 15.5-2 14-11.5-12-19-28.5-10-25.5-10-25.5M224.5 286.1548c19.5-4.5 27.042 12.799 22.5 24-2.726 6.721-10.569 11.674-19 12.5-15.535 1.523-23.262-10.708-20.5-21.5 1.771-6.923 9.38-13.241 17-15" fill="#D15C22"/>
        <path d="M230 287.1548c.213.753.087 1.235.982 1.558 3.084-1.407 5.082-4.136 7.565-6.355-1.282 1.258-2.028 3.037-1.97 4.754 1.912-.651 3.405-2.474 4.767-4.199-1.109 1.689-2.131 3.468-3.165 5.21 2.052-1.303 4.102-3.084 6.289-3.938-.386 1.954-2.146 3.341-3.846 4.551 2.965-1.672 7.079-2.899 10.199-1.581-2.414.652-4.994 1.189-7.433 1.775 2.105-.438 5.217-.814 6.593.628-1.499.237-2.808.824-4.302.694 1.69.129 2.95 1.058 3.89 2.427-1.509.486-1.341 1.317-3.431.538 1.27.789 1.957 2.334 2.797 3.334-.188.168-.367.345-.537.53-.428-.146-.897-.278-1.348-.352.962 1.346 1.259 3.094.839 4.811-.069-.44-.285-1.221-.389-1.741.022 2.825-.696 7.074-2.879 8.361-1.725-4.426-5.491-10.475-11.121-8.005" fill="#D15C22"/>
        <path d="M127.5 183.1548l13.5 10M125 187.1548l14 10.5M123.5 193.6548l14 10" stroke="#D15C22" stroke-width="3" stroke-linecap="round" stroke-linejoin="round"/>
    </g>
</svg>
