<svg width="372" height="346" viewBox="0 0 372 346" xmlns="http://www.w3.org/2000/svg">
    <g fill="none">
        <circle fill="#E1E1E1" cx="186" cy="174" r="135"/>
        <path d="M70.5 219.5374s-25-177 115-185 117 180 117 180l10-4-7 22 8-3s-8 59-45 70-71 12-71 12l-4-8-8 10s-64-1-82-8-25-19-25-19l-20-48 4-3-4-18 12 2z" fill="#FFF"/>
        <path d="M125.5 237.5374c0-4 4-93 4-93s-5 5-10-12 1-33 12-34c0 0 2.785-11.139 11.293-22.101 7.615-9.812 19.815-19.482 38.707-20.899 40-3 59 19 61 36s1 26 1 26 4-38-28-47c-36.896-10.377-55-4-57 0 0 0-25 31-26 51s-3 57 21 92 30 31 53 27 27-32 30-43 5-31 5-31l-3 68s-37 14-63 13-50-10-50-10" fill="#D15C22"/>
        <path d="M244.5 107.5374c7-12 11-3 10 9s-4 31-8 29-2-38-2-38" fill="#D15C22"/>
        <path d="M178.5 179.5374s9-9 16-8 16 6 16 6l-16 7-16-5z" fill="silver"/>
        <path fill="silver" d="M188.5 138.5374l2 31-12 10zM180.5 187.5374c-3 1-15 11-15 11s4 1 13-4 15-2 15-2 9-7 19 1c0 0-5-9-10-8s-12 3-12 3l-10-1z"/>
        <path d="M138.5 176.5374c14 10 25 40 36 50s27 5 38 0 18-24 22-35 7-25 7-25-10 54-20 66-44 9-44 9-13 0-19-16c-2.591-6.91-8.197-14.776-12-24-5.003-12.134-8-25-8-25M86.5 225.5374c-7-14 15-83 43-75l-4 87-39-12zM254.5 134.5374c26 0 50 39 33 87l-49 13 4-85 12-15z" fill="silver"/>
        <path d="M163.5 245.5374c-27-1-54-7-72-16s-21-10-21-10l1 10-10-6 1 12s30 9 66 12 51-1 51-1l-16-1zM135.5 255.5374s-68-10-71-10 5 40 30 55 87 11 91 13 7-5 7-5l-38-25-14-28h-5zM238.5 252.5374c3-1 58-11 54-10s-27 11-23 11 38-11 38-11 2 21-15 40-33 27-63 28-37-2-37-2l36-31 10-25zM206.5 240.5374c5 1 47-4 70-14s26-12 26-12l-6 17s-24 7-49 10-49 5-49 5l8-6z" fill="#929292"/>
        <path d="M144.5 258.5374c-3-5 5-1 46-4s48-2 48-2l-10 25s-26 31-35 26-39-20-39-20l-10-25zM122.5 57.5374c17.338-7.706-3 20-18 36s0-28 18-36M154.5 42.5374c9.744-2.249-6 8-13 11s0-8 13-11" fill="silver"/>
        <path d="M236.5 287.5374c-1.723 14.935 55 4.249 55-28 0-16-52 2-55 28" fill="#515151"/>
        <path d="M261.5 261.5374c20-7 20 24 2 29s-25.35-20.827-2-29M90.5 258.5374c-4.836 5.441 10 36 17 33s-9-42-17-33" fill="#D15C22"/>
        <path d="M111.5 261.5374c-6.093 4.569 8 34 16 31s-8-37-16-31" fill="silver"/>
        <path d="M129.5 262.5374c-6.229 2.491 9 36 16 33s-6-37-16-33M172.5981 117.0521c4.313 5.751 2.396 13.418 0 12.939-2.396-.479-11.98-4.793-18.21-7.188-6.23-2.397-13.898 8.626-13.898 8.626s1.917-11.502 7.668-16.294c5.75-4.792 24.44 1.917 24.44 1.917M200.8726 116.5726c-.479 6.709 3.355 11.98 6.23 11.98 2.875 0 16.294-4.312 23.003-2.875 6.709 1.438 7.668 5.751 7.668 5.751s2.875-6.23-2.396-11.022c-5.272-4.792-22.045-1.917-27.317-.959-5.271.959-7.188-2.875-7.188-2.875" fill="#515151"/>
        <path d="M127.5508 94.5277c9.221-8.781 5.271 11.022 5.271 24.441 0 13.418 1.438 18.21-1.438 23.003-2.875 4.792-8.146 3.834-12.938-8.626-4.793-12.46-.959-29.233 9.105-38.818zM130.4258 141.972c-.958.958-2.875 96.805-2.875 96.805M242.0864 166.8919s-2.396 52.715-2.875 67.571M245.4409 94.0491c11.502.479 11.981 29.712 7.668 42.172-4.313 12.46-7.189 8.626-7.189 8.626" stroke="#515151" stroke-width="3" stroke-linecap="round" stroke-linejoin="round"/>
        <path d="M240.6489 105.5501c3.834 9.585 3.354 15.814 2.875 22.045-.479 6.229-.958 9.105-.958 9.105 4.313 10.064.479 21.086.958 15.815.222-2.434-4.313 40.255-9.584 57.508-3.296 10.787-10.064 24.44-23.482 31.629-11.926 6.388-34.984.958-42.173-5.272-7.188-6.23-19.455-26.596-23.482-36.9-3.389-8.675-12.474-38.053-11.981-63.259.479-24.441.959-57.508 22.524-63.258" stroke="#515151" stroke-width="3" stroke-linecap="round" stroke-linejoin="round"/>
        <path d="M207.582 141.4925s2.875-5.271 9.105-5.751c6.23-.478 15.335 5.272 15.335 5.272" stroke="#515151" stroke-width="3" stroke-linecap="round" stroke-linejoin="round"/>
        <path d="M211.416 137.6585c-3.834 1.917 1.437 8.626 6.709 6.23 5.271-2.396 4.313-6.709 1.437-8.147-2.875-1.437-8.146 1.917-8.146 1.917" fill="#515151"/>
        <path d="M174.5151 140.5345s-6.23-4.793-12.46-3.834c-6.23.958-11.022 5.751-11.022 5.751" stroke="#515151" stroke-width="3" stroke-linecap="round" stroke-linejoin="round"/>
        <path d="M157.7422 138.6175c-3.834 2.396 0 8.146 5.75 6.229 5.751-1.917 5.751-7.188 2.876-7.667-2.876-.479-8.626 1.438-8.626 1.438" fill="#515151"/>
        <path d="M193.6841 222.0032c11.502 0 13.898-7.188 4.792-10.063-9.105-2.876-12.938 7.667-4.313 6.709 8.626-.959 3.355-3.834.959-3.834M178.3491 179.8314c-.958-.959 12.46-8.147 15.814-8.147 3.355 0 16.294 5.751 16.294 5.751s-11.501 5.271-14.856 5.75c-3.355.479-17.252-3.354-17.252-3.354zM214.291 199.0003l-2.396-1.437c-2.396-1.439-7.188-4.314-9.584-4.314-2.397 0-4.793 4.314-6.71 4.792-1.917.48-6.23-4.312-8.147-3.354-1.916.959-5.271 3.834-7.667 5.75-2.396 1.917-3.834 1.917-6.23.48 0 0 4.792 0 11.022.479s9.105.958 15.335-1.438c6.231-2.395 16.294-.958 16.294-.958M181.2241 206.1888s6.709 2.396 16.294 1.437c9.584-.958 13.898-6.708 13.898-6.708M129.4678 136.221c1.437-.479 41.693-5.271 50.319-1.437 8.626 3.833 5.751 11.5 1.917 19.168M183.6206 136.7005c3.833 2.875 10.543 1.437 15.814 0" stroke="#515151" stroke-width="3" stroke-linecap="round" stroke-linejoin="round"/>
        <path d="M203.269 153.9525s-10.543-17.252.479-20.606c11.022-3.355 45.048-5.751 43.131 5.75M132.3428 101.2376c0-18.211 16.773-52.236 62.779-49.84 46.006 2.396 53.674 37.859 48.882 72.363 0 0 6.729-43.451-32.588-53.673-47.923-12.46-53.195 2.396-53.195 2.396M74.8354 237.8177c-1.917-6.709-3.834-18.689-3.834-18.689s48.881 30.191 122.204 23.96c73.322-6.229 109.743-28.274 109.743-28.274s-2.396 10.064-7.667 18.69" stroke="#515151" stroke-width="3" stroke-linecap="round" stroke-linejoin="round"/>
        <path d="M195.6011 305.8685l5.271 6.709s61.342 0 85.304-21.565c0 0 18.69-17.732 27.795-62.3 0 0-34.505 12.939-123.641 17.252-89.137 4.313-129.393-10.543-130.83-10.543 0 0 13.418 48.402 29.712 60.862s61.821 21.086 98.242 17.253c0 0 5.751-6.71 5.751-7.668" stroke="#515151" stroke-width="3" stroke-linecap="round" stroke-linejoin="round"/>
        <path d="M136.6558 247.8812c2.396 4.313 15.815 34.025 17.732 35.464 1.916 1.437 41.112 25.192 41.112 25.192s33.648-29.026 33.648-30.465c0-1.437 11.501-34.503 11.501-34.503M259.3164 261.6966c18.499-7.22 25.878 22.044 6.23 27.795-19.648 5.751-25.878-20.128-6.23-27.795zM91.6084 256.9866c8.327-1.665 22.044 33.067 14.377 33.067-7.668 0-21.565-31.63-14.377-33.067zM111.7773 261.4661c8.327-1.665 22.045 33.066 14.377 33.066-7.668 0-21.565-31.629-14.377-33.066zM130.123 262.471c8.327-1.666 22.044 33.066 14.377 33.066-7.668 0-21.565-31.629-14.377-33.066zM308.6992 231.1087l4.792-19.648-11.022 2.875s20.498-182.85-117.969-179.798c-135.954 2.996-114.936 183.152-113.499 184.591l-11.501-1.439 2.396 17.731" stroke="#515151" stroke-width="3" stroke-linecap="round" stroke-linejoin="round"/>
        <text font-family="LucidaGrande, Lucida Grande" font-size="24.9877" letter-spacing=".9952" fill="#515151" transform="translate(58 33)">
            <tspan x="113.9951" y="230.674">˜</tspan> <tspan x="130.3392" y="230.674" letter-spacing="1.1935">˚</tspan> <tspan x="146.8816" y="230.674" letter-spacing=".6537">˛</tspan> <tspan x="162.8842" y="230.674" letter-spacing=".6813">˝</tspan> <tspan x="178.9143" y="230.674">˙</tspan>
        </text>
        <text font-family="LucidaGrande, Lucida Grande" font-size="24.9877" letter-spacing="1.51" fill="#515151" transform="translate(58 33)">
            <tspan x="117.962" y="252.6632">ˆ</tspan> <tspan x="134.8209" y="252.6632" letter-spacing="1.0599">ˇ</tspan> <tspan x="151.2297" y="252.6632" letter-spacing="1.1772">˘</tspan> <tspan x="167.7557" y="252.6632" letter-spacing="-.025"> </tspan>
        </text>
    </g>
</svg>
