<svg width="372" height="346" viewBox="0 0 372 346" xmlns="http://www.w3.org/2000/svg">
    <g fill="none">
        <circle fill="#E1E1E1" cx="186" cy="174" r="135"/>
        <path d="M93.2598 112.282s-5.999-42 15.334-66.667 57.334-21.333 76-13.333c18.666 8 28 23.334 29.333 40 1.333 16.666.667 32 .667 32l2-5.334 6 2.667s1.999-5.333 4.666-5.333c2.667 0 5.334 4 5.334 4l6.666-24.667s6.668 6.666 5.334 19.333c-1.334 12.667-6 17.334-6 17.334l-3.334-4-6 7.333s8 8 0 24-15.333 14.667-15.333 14.667l-2 23.333s3.333 22.667 6 34c2.667 11.333 3.333 15.333 3.333 15.333l3.334-3.333 54 24.667s-11.334 52.666-96.667 59.333c-85.333 6.667-107.333-32.667-107.333-32.667s21.999-11.999 36.666-20.666c14.667-8.667 20-8.667 20-8.667s-4.666-22.666-8.666-33.333c-4-10.667-4.667-16-4.667-16l-12-16.667-3.333-14s-8.666 3.333-18-12.667-3.334-30-3.334-30-3.332-6-6.666-5.333l-3.334.667s-8.666-2-9.333-18c-.667-16 3.333-19.334 3.333-19.334s5.333 10 8 18.667c2.667 8.667 4.667 6 4.667 6 2.667-2.667 8.667 6 8.667 6l6.666.667z" fill="#FFF"/>
        <path d="M101.9249 133.6151s-15.334-65.333 19.333-89.333 88.667-12.667 90.667 72.667l-1.333 4s-.001 5.333-7.334 13.333c-7.333 8-17.333 14-17.333 14s-26.667-22.667-32.667-20c-6 2.667-27.333 22-27.333 22s-9.333-4-15.333-8-8.667-8.667-8.667-8.667" fill="#D15C22"/>
        <path d="M99.9249 121.6151s3.334-7.333 20.667-13.333c17.333-6 18-.667 18-.667l7.333 19.334s-6.667 12-20 11.333c-13.333-.667-26-16.667-26-16.667m66.6669-16.6661c-2.667 7.333-2.667 18.666-2.667 18.666s14.666 12.666 23.333 8c8.667-4.666 19.334-20.666 19.334-20.666s-2.667-6.667-12.667-8.667-24 .667-24 .667" fill="#FFF"/>
        <path d="M124.5918 203.6151s2.666 12.001 8.666 35.334c6 23.333 6.667 30 6.667 30l-10-20.667s-20.667 6.667-38 16-25.333 17.333-25.333 17.333 33.333 42.666 99.333 40c0 0-13.334-3.332-22.667-10.666 0 0 40.443 10.694 94-16.667 50.074-25.582 48.667-35.333 48.667-35.333s-39.999-24.668-61.333-29.334v6s-21.334-33.332-20.667-44.666l-26 28.666-15.333-8.666-17.334 13.333-20.666-20.667z" fill="#D15C22"/>
        <path d="M142.5918 161.6151c-4.667-4-2-5.333-2-5.333s-.232-1.772 5.333-.667c1.739.346 2.635 1.207 5.333 2 3.261.959 9.732.906 12.667-1.333 2.935-2.24 5.667-6 6.667-6 2 0 3.333 7.333-2.667 11.333s-6.666 7.333-11.333 6c-1.807-.517-3.606-2.949-6-4-3.788-1.664-8-2-8-2m75.3331-58.6661l-.667 44s8 .667 10.667-14 1.335-17.334 1.335-17.334l-8.002 11.334 2.667-26.667-6 2.667zm-136 27.333c.667 12 4.666 18.667 11.333 24 6.667 5.333 6 .667 6 .667l-5.333-36.667-6-3.333s4.666 14.666 3.333 18.666c-1.333 4-9.998-10.667-9.998-10.667l.665 7.334zm87.333-24c-3.333 5.333-2 8-2 8s12.668-8.666 21.334-9.333c8.666-.667 16.666 2.666 16.666 2.666s-11.333-8-23.333-6c-12 2-12.667 4.667-12.667 4.667m-30.6661 1.3331l2.666 8s-4.666-4.667-14.666-4c-10 .667-19.334 4.667-19.334 4.667s3.334-5.333 13.334-8 18-.667 18-.667" fill="silver"/>
        <path d="M215.2598 90.2693c.155 14.942-2.231 74.225-4.214 85.125-2.797 15.381-32.159 43.812-32.159 43.812-6.991 5.126-30.761 7.457-36.355 3.728-5.592-3.728-32.71-33.617-35.719-41.309-5.593-14.294-11.497-64.322-12.119-70.538 0 0-13.285-78.585 53.757-84.209 54.809-4.597 66.497 33.559 66.809 63.391z" stroke="#515151" stroke-width="3" stroke-linecap="round" stroke-linejoin="round"/>
        <path d="M97.1797 130.0438c6.216 8.39 18.644 17.711 29.52 19.887 0 0 23.927-21.13 28.278-22.063 4.348-.932 26.412 16.78 31.695 20.509 0 0 22.061-15.227 28.898-34.491" stroke="#515151" stroke-width="3" stroke-linecap="round" stroke-linejoin="round"/>
        <path d="M164.6094 121.3426s.933-15.227 4.972-16.78c4.04-1.553 27.344-8.078 38.22 5.904 0 0-8.389 18.645-21.752 21.44 0 0-16.468.933-21.44-10.564zm-26.7236-13.9834c6.216 6.837 7.77 18.645 7.77 18.645s-7.77 12.119-22.374 11.807c0 0-13.984-1.554-22.996-15.848 0 0 5.594-8.078 17.092-12.429 11.498-4.351 20.508-2.175 20.508-2.175z" stroke="#515151" stroke-width="3" stroke-linecap="round" stroke-linejoin="round"/>
        <path d="M169.2706 123.2068c.932-.621 3.418-4.039 13.052-5.903 9.632-1.865 12.118 2.174 12.118 2.174" stroke="#515151" stroke-width="3" stroke-linecap="round" stroke-linejoin="round"/>
        <path d="M179.2139 118.2361c-4.972 2.795-.934 5.903 4.039 3.728 4.972-2.175 2.797-4.661 2.797-4.661l-6.836.933z" fill="#515151"/>
        <path d="M137.8858 126.0037s-8.39-4.35-15.227-3.729c-6.835.621-9.32 4.661-9.32 4.661" stroke="#515151" stroke-width="3" stroke-linecap="round" stroke-linejoin="round"/>
        <path d="M122.6592 122.2742c-4.972 2.177-.932 7.458 4.04 5.283 4.972-2.176 3.418-3.418 3.418-3.418l-7.458-1.865z" fill="#515151"/>
        <path d="M80.3575 125.8914c-1.102 5.121-1.308 11.114-.269 16.892 2.797 15.538 18.335 25.791 21.442 22.375m-9.634-52.516c-1.316-.391-2.581-.299-3.765.194" stroke="#515151" stroke-width="3" stroke-linecap="round" stroke-linejoin="round"/>
        <path d="M90.9649 132.2186c-3.728-23.615-10.254-30.143-11.809-29.52-1.551.622-2.485 6.835-4.971 2.174-2.485-4.66-9.322-23.616-9.322-23.616s-9.011 27.347 5.283 38.842m.9313-4.9718c2.797-4.039 14.295 9.945 16.471 19.889m131.6032-8.3988c.9-23.893 6.605-31.146 8.222-30.714 1.616.434 3.28 6.493 5.194 1.57 1.916-4.923 6.454-24.555 6.454-24.555s12.192 26.082-.636 39.195m-1.5152-4.8251c-3.257-3.681-13.013 11.569-13.993 21.7m8.076-14.0174c4.144 11.986.898 29.758-15.693 39.311m.9313-54.6909c1.084-.062 2.229.238 3.389.818m-78.2767 58.8441c2.486 2.175 4.352 2.175 5.282 1.242.933-.932 3.109-.932 5.283 1.244 2.176 2.174 5.592 2.486 5.592 2.486m4.3517-2.1761c1.865-1.554 2.176-3.418 3.729-3.418s3.418-.933 3.418-.933 3.418-1.863 2.175-6.835m-41.0173 28.2778s16.779-.312 28.277-1.556c10.007-1.081 30.141-7.145 30.141-7.145s-12.118 17.453-31.694 17.09c-16.779-.311-26.724-8.389-26.724-8.389z" stroke="#515151" stroke-width="3" stroke-linecap="round" stroke-linejoin="round"/>
        <path fill="#515151" d="M137.5752 179.1404l.932 4.039-8.39-4.039zm42.2608-5.9043v3.418l.31 2.175s3.107-2.175 4.971-4.04c1.865-1.864 3.418-4.35 3.418-4.35l-8.699 2.797z"/>
        <path d="M153.1124 194.0545s9.944.933 14.293-1.553m22.995-27.656c2.486 1.865 3.729 5.904 2.176 8.391m-68.673.3092c-2.176 2.487-.311 4.972.621 6.526m-7.1464 15.848c5.593 20.508 14.604 54.998 22.373 74.576m5.9043-47.2312l14.915-12.119 18.316 8.06m32.0229-46.2799c.622 16.779 2.486 32.938 14.293 62.768m-5.5928-13.3618c.934 0 64.633 23.927 100.679 53.447m-187.3743-31.695c-6.524 3.106-60.903 30.763-80.791 47.231m69.916-12.7408s21.439 14.916 36.046 11.498c14.603-3.418 74.887-31.072 74.887-31.072" stroke="#515151" stroke-width="3" stroke-linecap="round" stroke-linejoin="round"/>
    </g>
</svg>
