<svg width="372" height="346" viewBox="0 0 372 346" xmlns="http://www.w3.org/2000/svg">
    <g fill="none">
        <circle fill="#E1E1E1" cx="186" cy="174" r="135"/>
        <path d="M286.834 210.462c-16-6-25.333-8-25.333-8l-.667-4 2-14 2.667 3.334s2.667-9.333 0-14l-2.667-4.667s13.999-2 11.333-2c-2.666 0-7.334-2.666-10-7.333-2.666-4.667-3.333-8-3.333-8s8-2 6-12.667-8.667-19.333-8.667-19.333l-7.333 2s4-18.001-2-33.334c-6-15.333-16.667-26.666-16.667-26.666s0-2.666-4.667-10.666c-2.718-4.659-12.331-9.684-17.333-12.666-4.623-1.017-22.478-9.294-36.667-6.667-18 3.333-34.087 13.344-35.333 14-.236.336-6.666 13.332-6.666 13.332.666 2-6 1.333-12.667 20s-4.667 38.667-4.667 38.667-2.667-8-6-4.667-9.332 13.333-10.666 24c-1.334 10.667 5.333 17.333 5.333 17.333s-4 6-8 10.667-7.333 3.333-7.333 3.333 5.333 5.334 7.333 3.334l2-2s-2.666 5.332-3.333 14.666c-.667 9.334 3.333 16 3.333 16s3.333-15.333 3.333-13.333 6 14.667 6 14.667-13.332 5.334-26.666 12-18.667 12-18.667 12 42.244 107.271 154 79.333c77.333-19.333 96.666-78.334 96.666-78.334s-8.666-10.333-24.666-16.333" fill="#FFF"/>
        <path d="M133.503 61.795c-6.667 4-14.666 18.666-18 38-3.334 19.334 3.333 32.667 3.333 32.667l1.333 10.667s4-47.334 10.667-62.667l6.667-15.333-4-3.334zM102.834 154.462c-3.998 12-15.331 17.333-15.331 17.333s3.996 3.335 9.331-1.999c5.335-5.334 1.336 5.333.669 11.333s-.667 8.666-.667 8.666l4-9.333s-1.333 6.666 2.667 15.333 5.333 11.334 5.333 11.334 9.334-16.001 12.667-21.334l3.333-5.333-2-14s-6.667 2.667-10.667 0-9.335-12-9.335-12M130.169 191.795c-14 14.667-18 33.334-18 36.667 0 3.333 12 18 12 18l-17.333-18 1.333-14S91.02 219.951 80.5 228.795c-14.669 12.333-16 20-16 20s32 67 123.003 62.334c82.111-4.21 111.997-58.001 117.997-69.334 0 0-31.997-25.332-35.997-26.666l4 12-16.667 16s13.334-12.668 8.667-21.334-11.334-16-11.334-16l-18.666-17.333-16 22-10 5.333s-10 20-32 18.667c-22-1.333-29.334-21.333-29.334-21.333s-2.667 0-8-6-10-15.334-10-15.334M225.503 64.462c.537.379 1.069.795 1.597 1.246 10.598 9.067 19.039 32.084 18.403 45.421-.667 14-5.334 43.999-5.334 40.666 0-3.333 6.668-31.332-4.666-54.666-11.334-23.334-20.667-30-20.667-30M251.503 166.462c5.333 5.333 5.333 15.333 5.333 15.333l-8-7.333 6.667 19.333-18-12 2.666-13.333 11.334-2z" fill="#929292"/>
        <path d="M107.503 121.129c-7.334 10.666-8 23.999-2 32.666 6 8.667 17.333 12.667 17.333 12.667s2.001-16.667-3.333-26.667-12-18.666-12-18.666" fill="silver"/>
        <path d="M137.503 65.129c-8 17.333-21.333 86-10 111.333 11.333 25.333 21.333 29.333 21.333 29.333s3.333 25.333 29.333 24c26-1.333 24.667-22 24.667-22s17.999-11.334 21.333-36c3.334-24.666-4.666-32.666-4.666-32.666s11.999-5.333 8.666-12-8-9.334-8-9.334 3.779-32.521-10.669-45c-22-19-71.997-7.666-71.997-7.666" fill="#E1E1E1"/>
        <path d="M171.503 163.129c-2.667 8.666 9.333 12 17.333 8 8-4 8.667-8 8.667-8l4 2.666s2.667 4.667-2 6.667l-4.667 2s-3.334 5.999-12.667 5.333c-9.333-.666-12.666-9.333-12.666-9.333s-5.334 1.333-5.334-4 4-7.333 4-7.333l3.334 4z" fill="#929292"/>
        <path d="M156.169 188.462s10 19.333 26 16c16-3.333 24-21.333 24-21.333s-5.999 4.666-16.666 9.333c-10.667 4.667-20.667 1.333-20.667 1.333l-4-4.666-8.667-.667zM104.169 222.462c-8.666 6-29.999 23.999-32.666 31.333 0 0 18 54.666 105.333 62l-13.333-8.666 29.333 3.333s7.333-1.333-8.667-18-23.999-20.666-40.666-31.333c-16.667-10.667-37.334-34.667-36.667-32.667.667 2-2.667-6-2.667-6" fill="#515151"/>
        <path d="M259.503 241.795c10.666 9.334 25.333 32.667 25.333 32.667l-15.333-11.333 10 16.666s-31.333 26-58 30.667c-26.667 4.667-38.666 8-52 0-13.334-8-12-14-12-14l36 4s11.332-15.334 30.666-28.667c19.334-13.333 35.334-30 35.334-30" fill="#515151"/>
        <path d="M173.503 203.795c-6-2.666 8.667-7.333 15.333-5.333s-4.667 5.333-6.667 6c-2 .667-8.666-.667-8.666-.667M142.834 62.464C131.5 61.131 137.5 45.462 173.5 36.795c36-8.667 62.821 36.795 37 30-19-5-20.065 3.905-31 0-28-10-34-.331-34-.331" fill="#929292"/>
        <path d="M148.834 55.13c-8 5.334-8.668 11.334-7.334 20.667 1.334 9.333 2 4.667 2 4.667s4.668-19.334 13.334-21.334-8-4-8-4" fill="#929292"/>
        <path d="M130.169 191.795c-14.668 17.334-19.998 29.334-18 36.667 1.998 7.333 13.999 26.667 41.332 42.667s33.333 18.666 33.333 18.666-45.333-37.334-44-58c1.333-20.666-.222-22.778-.222-22.778l-12.443-17.222zM247.501 201.129c14 14 20.666 21.334 19.333 28-1.333 6.666-33.333 36.666-55.333 51.333-22 14.667-8-4.667-8-4.667s34-60.666 32-68.666 2-10 2-10l10 4z" fill="#D15C22"/>
        <path d="M134.5889 72.1359c-10.528 26.574-15.544 72.703-11.031 100.279 4.512 27.577 19.555 38.106 25.572 42.619" stroke="#515151" stroke-width="3" stroke-linecap="round" stroke-linejoin="round"/>
        <path d="M148.127 211.0226s5.516 16.546 19.053 21.562c13.538 5.012 27.577-.503 33.594-6.519 6.016-6.018 10.529-15.043 10.529-15.043" stroke="#515151" stroke-width="3" stroke-linecap="round" stroke-linejoin="round"/>
        <path d="M217.8213 68.1241c12.033 8.523 21.56 28.079 22.062 54.652.501 26.575 1.002 52.648-6.017 69.194-7.019 16.545-25.07 24.569-25.07 24.569M121.5518 140.3263c-.501-2.508-9.524-19.556-7.521-37.606 2.006-18.05 10.03-37.103 15.544-40.112" stroke="#515151" stroke-width="3" stroke-linecap="round" stroke-linejoin="round"/>
        <path d="M229.3535 60.6027c7.521 7.02 21.059 16.546 21.059 47.133 0 30.585-11.032 56.156-11.032 56.156M114.0313 118.7648c-5.014-7.02-7.521-4.01-9.525-1.002-2.006 3.008-9.528 16.045-6.519 27.076 3.008 11.03 16.044 27.074 24.067 21.56M105.0059 128.2911c5.517-5.013 16.546 15.544 17.049 22.563M116.0371 138.8214c-5.515-4.012-4.513 9.526.502 13.538" stroke="#515151" stroke-width="3" stroke-linecap="round" stroke-linejoin="round"/>
        <path d="M250.9141 122.7765c6.519-8.021 13.036 5.515 14.541 13.538 1.503 8.022-5.016 20.056-9.528 25.07-4.511 5.014-16.043 10.529-16.043 9.024M245.3985 147.3449c7.02-13.537 13.037-15.543 13.037-15.543M249.9112 141.3273c5.516-4.01 2.507 11.533-2.507 13.036M103 153.3624c-4.512 9.525-9.526 16.044-15.542 15.543 0 0 2.006 9.025 9.526 1.503 0 0-10.029 17.551.501 28.581 0 0-1.003-7.521 2.507-12.034 0 0 5.014 20.558 11.532 22.061M143.1133 208.0148c0 2.506-.501 27.577 9.025 47.133 0 0 14.039 20.555 35.599 16.545 21.56-4.012 32.592-27.577 32.592-27.577s.501-31.588 1.504-35.601" stroke="#515151" stroke-width="3" stroke-linecap="round" stroke-linejoin="round"/>
        <path d="M126.0645 181.4406c-3.008 2.007-21.059 29.582-19.053 47.633 0 0 30.085 32.592 49.137 43.121 19.055 10.528 25.572 18.551 28.078 23.565M237.878 182.9445c11.031 2.006 32.089 28.078 35.599 43.121 0 0-17.047 20.558-36.102 36.602-19.052 16.045-39.609 26.574-44.624 42.117" stroke="#515151" stroke-width="3" stroke-linecap="round" stroke-linejoin="round"/>
        <path d="M135.0909 200.9952c-2.508 16.546-9.026 31.589-9.026 31.589l8.023-7.523-2.507 15.544s6.519 15.543 27.076 29.081c20.557 13.539 30.585 27.076 30.585 33.594v6.519s18.552-25.572 30.585-36.603c12.034-11.031 15.543-26.072 15.543-26.072s18.051-29.583 23.567-31.589c0 0-19.053 12.535-21.059 16.546-2.006 4.012 21.561-29.08 21.561-29.08s-5.517-13.538-17.551-19.054c-2.038-.934-5.515-1.003-5.515-1.003s-3.008 10.53-8.021 17.048c-5.016 6.519-8.023 9.527-8.023 9.527l-.502 35.098s-14.039 28.078-39.109 26.573c-25.069-1.504-33.093-26.072-33.093-26.072l-5.013-36.102-7.521-8.021z" fill="#515151"/>
        <path d="M261.9444 152.3595s3.01 16.045 12.536 15.041c0 0-12.035 4.513-14.542-2.005 0 0 10.028 9.025 5.517 22.062l-3.01-7.521s.503 17.047-2.006 19.554M156.1485 186.9552s8.524 18.553 25.07 18.05c16.547-.5 26.075-21.558 26.075-21.558s-33.094 9.525-51.145 3.508z" stroke="#515151" stroke-width="3" stroke-linecap="round" stroke-linejoin="round"/>
        <path d="M163.6709 188.9601s3.008 8.023 18.05 6.519c15.042-1.503 18.552-10.028 18.552-10.028M179.2139 137.8185s-4.011 18.05-7.521 23.566c-3.51 5.515 1.003 19.554 14.04 17.047 13.036-2.507 13.036-13.036 8.524-25.069-4.514-12.035-7.021-21.06-7.021-21.06M172.1934 157.8741c-6.016 0-11.029 9.526-1.002 13.037M197.2637 162.3868s11.031 7.02-.501 9.526" stroke="#515151" stroke-width="3" stroke-linecap="round" stroke-linejoin="round"/>
        <path d="M202.2784 119.2667s9.024-5.516 17.048-6.518c8.021-1.003 11.532 10.028 12.534 14.541 0 0-21.56-7.521-26.573-7.02-5.015.501-3.009-1.003-3.009-1.003M168.1826 120.7706s-16.044-10.528-24.067-6.517c-5.014 2.507-11.03 15.042-11.03 15.042s3.509-5.517 13.537-7.522c10.029-2.005 21.56-1.003 21.56-1.003" fill="#515151"/>
        <path d="M168.6846 135.3116s-7.02-7.021-14.542-5.516c-7.52 1.504-12.033 6.519-12.033 6.519" stroke="#515151" stroke-width="3" stroke-linecap="round" stroke-linejoin="round"/>
        <path d="M154.1426 129.796c-5.515 3.51-1.503 6.018 3.01 5.516 4.512-.502 3.008-5.015 3.008-5.015l-6.018-.501z" fill="#515151"/>
        <path d="M134.5889 137.3175s18.553-3.51 27.577-1.504M199.2696 136.3146s8.524-7.521 17.048-5.015c8.524 2.508 7.521 7.522 7.521 7.522" stroke="#515151" stroke-width="3" stroke-linecap="round" stroke-linejoin="round"/>
        <path d="M211.8057 130.7999c5.013.5 4.01 5.515-1.505 6.016-5.516.502-7.019-2.006-5.014-3.51 2.006-1.504 6.519-2.506 6.519-2.506" fill="#515151"/>
        <path d="M203.7823 136.8156s16.045-2.006 26.072 2.508M107.5127 203.0011s-32.013 5.794-51.013 25.794M261.4444 203.5021c2.005 0 31.056 5.293 54.056 26.293M140.167 65.1281c-13.333-4-15.333-12 10.667-24.667 26-12.667 43.333-8 56-2 12.667 6 43.334 23.334 2.667 28.667M180.167 65.797c-23.333-11.333-36.001-4.666-36.667 14.667" stroke="#515151" stroke-width="3" stroke-linecap="round" stroke-linejoin="round"/>
        <path d="M186.834 65.13s-35.334-21.333-42.667-7.333c-7.333 14-.667 26-.667 26" stroke="#515151" stroke-width="3" stroke-linecap="round" stroke-linejoin="round"/>
    </g>
</svg>
