<svg width="372" height="346" viewBox="0 0 372 346" xmlns="http://www.w3.org/2000/svg">
    <g fill="none">
        <circle fill="#E1E1E1" cx="186" cy="174" r="135"/>
        <path d="M137.0002 91.8305s-8.523 37.428-7.929 59.714c.596 22.286 7.262 36.953 21.929 53.619 14.667 16.667 18.667 22.667 18.667 22.667s9.333 2.667 21.333-.667c12-3.333 12.667-6.666 12.667-6.666s16-14.667 22.666-22c6.667-7.334 15.352-22.267 16.676-30.134l4.658-3.2s-.667-5.333 3.333-12c4-6.666 11.333-18 9.333-26s-8.666-9.333-8.666-9.333-4-31.333-10-42c-6-10.667-32-10-35.334-10.667-3.333-.666-46.666 6-50.666 7.334-4 1.333-18.667 19.333-18.667 19.333" fill="#FFF"/>
        <path d="M223.0002 81.1635c11.333 1.334 12 40.667 12 45.334 0 4.666-.667 36-4.667 48.666-4 12.667-24.666 42.667-31.333 48-6.667 5.334-28.667 5.334-29.333 4.667-.667-.667-20.667-22.667-27.334-30.667-6.666-8-10-22-10-22s-4-37.333-4-40c0-2.666 6-47.333 6-47.333s36-23.333 56-26c20-2.667 32.667 19.333 32.667 19.333" fill="#E1E1E1"/>
        <path d="M130.3332 167.8305l-4 6.667s-58.667-11.334-64-8c-5.333 3.333-2 28.666-2 28.666l-16 18 16-12 3.333 20.667s0-38 4.667-44 57.333 6 57.333 6l4.667-11.333v-7.334M185.6667 231.1635c0 5.334 2.667 12-2.667 14-5.333 2 6 12.667 6 12.667s20-3.333 31.334-17.333c11.333-14 12.666-20 12.666-20l.667-26.667-34.667 29.333-13.333 8zM247.6667 168.1635l28 18.667s47.333 2 51.333 1.333c4-.666 6 1.334 6.667 4 .666 2.667-2 29.334-5.334 34-3.333 4.667 0-21.333-8-26.666-8-5.334-48.666 3.333-48.666 3.333l-35.333-17.333 8-8.667 3.333-12" fill="#FFF"/>
        <path d="M130.3332 172.4975l-4.667 11.333s-53.333-8.667-57.333-6-5.333 26.667-5.333 26.667l-2.667-3.334-19.333 18-6 6.667s20.666 78.667 100 91.333c79.333 12.667 130.666-18.666 130-20.666-.667-2 .666-10.667.666-10.667s23.334-22 35.334-37.333c12-15.334 19.666-36.667 19.666-36.667l-13 37s16.667-21 20-33.667c3.334-12.666 10-30.666-11-26.333-22.025 4.545-32 6-32 6s-9.333 0-12-2c-2.666-2-29-26-29-26l-10 27-.666 30s-13.977 36.667-52.667 36.667c-20.667 0-23.333-6.667-25.333-8.667s-10.667-14-10.667-14l-2-38-6.667-12-5.333-15.333z" fill="#929292"/>
        <path d="M233.6667 193.8305c14 25 34 78 31 98l3-20 6-31-11-6 8-4s-3-23-12-39-15.657-23.467-15.657-23.467l-9.343 25.467zM135.6667 187.8305c-17 23-21 32-21 32s13 16 10 15-21 3-21 3l-4 45s-3 27-3 24-42-34-49-53-8-24-8-24l13-14s16 35 16 32-10-43-2-61 59-3 59-3l4.667-11.333 5.333 15.333z" fill="#515151"/>
        <path d="M233.0002 223.8305l-.333 48s4.343 24.063-1 37c-1.782 4.313-4.5 1.5-9 4-18 10-87.667 4.333-87.667 4.333l9.333-79.333s5.092 17.722 19.334 20c16.666 2.667 34.852-.344 34.852-.344l21.814-16.989" fill="#D15C22"/>
        <path d="M167.6667 162.4975c1.391-5.564 8.667 7.333 15.333 8.666 6.667 1.334 15.334-6 15.334-6s4 4.667 1.333 6.667-10.667 6.667-16 8c-5.333 1.333-15.333-9.333-15.333-9.333s-1.334-5.334-.667-8M168.3332 198.4975c5.333 3.333 12.667 4.666 19.333 4 6.667-.667 10-4.667 10-4.667s-7.333 7.333-6.666 10c0 0-6-1.333-10-.667-4 .667-6 2.667-6 2.667s2-1.333-1.334-5.333c-3.333-4-5.333-6-5.333-6" fill="#929292"/>
        <path d="M249.6667 126.4975c4.667-3.334 8 3.333 5.333 12.666-2.666 9.334-9.333 17.334-9.333 15.334s4-28 4-28" fill="silver"/>
        <path d="M136.6676 89.1498s-9.766 38.522-7.596 62.395c2.17 23.873 5.968 37.979 16.277 48.288 10.308 10.308 19.532 22.787 22.245 26.585 0 0 3.255 5.425 19.532 2.17s14.649-5.425 14.649-5.425 17.553-15.423 26.585-24.958c9.766-10.309 16.277-27.128 17.905-49.915 1.628-22.788 1.085-28.756-1.628-39.608-2.713-10.85-5.426-23.872-8.138-27.128" stroke="#515151" stroke-width="3" stroke-linecap="round" stroke-linejoin="round"/>
        <path d="M235.9557 41.9476c-5.425-8.139-8.681-11.937-8.681-11.937l2.713 7.053-7.053-8.137.542 4.339s4.341-2.17-5.968-5.424c-10.308-3.256-35.266-1.628-46.117.542-10.852 2.169-13.022 4.882-13.022 4.882h5.968l-7.053 4.341s-14.106 3.256-21.16 14.65c-7.053 11.393-10.851 23.33-10.851 23.33l-2.17 3.798 4.34-1.628-5.426 5.425 4.884-1.628-2.313 2.776-3.113 3.735 1.085 14.107c1.085 14.106 2.17 17.362 2.713 24.958.542 7.595-1.085 10.851-1.085 10.851l1.627-3.256 2.171 9.224s.542-21.16 5.968-37.98c2.477-7.676 2.918-10.719 3.131-12.12.254-1.668.183-1.006 2.837-3.071 0 0 .543-1.085 29.841-3.255 29.298-2.171 43.405-2.171 54.256-8.681 0 0-7.053 4.882-5.426 4.34 1.628-.543 2.713 1.628 11.937-2.713 9.223-4.34 9.766-5.425 9.223-4.34l-7.596 6.51s6.511 0 9.766 17.363c3.256 17.361 4.884 32.01 4.341 40.149-.543 8.139-.543 12.479-.543 12.479s3.798-3.798 5.426-14.649c1.627-10.851 1.085-13.021 1.085-13.021l3.255 4.883-1.627-8.681 4.34 2.712-1.085-3.798s3.256-.542 4.34-13.564c1.085-13.021-1.084-21.16-1.084-21.16l2.169-2.713-3.797-5.425 2.17-3.255-5.426-3.798s2.171-2.713.543-3.256l-1.628-.542.543-3.256-3.256-2.17s-.542-2.713-5.968-9.765c-5.425-7.054-9.766-9.224-9.766-9.224M155.6569 188.4389s3.798 3.798 18.447 3.798 17.905-1.085 24.958 0c7.053 1.085 10.308 1.085 10.308 1.085l-5.425-5.065s3.617 3.256-2.17 2.533c-5.787-.724-7.596-5.426-11.936-4.703-4.341.724-4.341 2.894-8.32 1.809-3.979-1.085-4.341-4.702-7.596-3.255-3.255 1.446-5.787 5.064-10.127 4.702-4.341-.362-4.702-2.171-2.533-5.788l-5.606 4.884z" fill="#515151"/>
        <path d="M166.6891 195.1303s2.532 5.063 13.745 6.148c11.213 1.086 17.362 1.086 18.085-6.872M178.6257 207.0668c5.787-2.894 9.404-1.447 11.936 1.085" stroke="#515151" stroke-width="3" stroke-linecap="round" stroke-linejoin="round"/>
        <path d="M192.3703 123.5121c0-4.124 2.532 5.426 3.979 4.702 1.447-.723 11.574-4.341 20.255-5.787 8.682-1.447 20.256 1.085 20.256 1.085s-8.186-6.234-12.527-7.682c-4.34-1.447-15.603 2.192-20.667 4-5.064 1.809-10.666 5.333-10.666 5.333s-.63-.204-.63-1.651M175.3703 124.2357c.723 1.809 1.085 3.255 0 3.255s-6.873-3.617-13.745-6.872c-6.873-3.256-11.213-5.787-17.362-4.341-6.149 1.447-11.575 6.149-11.575 6.149s7.297-11.618 15.978-15.596c8.682-3.979 12.851 6.936 19 12 6.149 5.063 7.704 5.405 7.704 5.405" fill="#515151"/>
        <path d="M171.0295 169.0873c.362-1.809.724-1.809 2.17-1.447 1.447.362 8.32 5.426 11.937 5.426 3.617 0 6.51-2.17 8.681-2.533 2.17-.361 4.34-.361 4.34-.361M169.2209 169.0873c-2.17-2.894-3.979-6.872 1.085-8.681M199.2428 163.6615c1.447 2.532.723 8.681-1.809 8.681M144.9865 133.64s-.361-6.511 7.958-7.958c8.319-1.446 14.468 3.979 16.638 7.597" stroke="#515151" stroke-width="3" stroke-linecap="round" stroke-linejoin="round"/>
        <path d="M159.8166 126.768c-3.579-.896-2.532 6.872 2.17 6.872 4.703 0 4.341-3.978 4.341-3.978s-3.617-2.171-6.511-2.894" fill="#515151"/>
        <path d="M200.6896 135.4486s6.149-5.787 15.553-5.787c9.405 0 9.766 5.425 9.766 5.425" stroke="#515151" stroke-width="3" stroke-linecap="round" stroke-linejoin="round"/>
        <path d="M214.7961 129.2992c-4.34 2.171-2.894 6.149 2.17 6.149s5.064-3.617 2.894-5.064c-2.17-1.446-5.064-1.085-5.064-1.085" fill="#515151"/>
        <path d="M256.7541 121.3422c3.979.361 3.979 4.34 3.979 5.426 0 1.085-1.085 13.744-3.255 17.723-2.171 3.979-4.703 8.319-6.15 10.49-1.447 2.17-1.808 3.978-1.808 3.978l-1.447 5.787s-4.34 3.617-5.064 3.617M253.4987 127.4906c2.894 3.256 2.532 14.469-2.532 21.341M248.3283 166.9809c7.234 4.34 26.405 19.532 28.575 19.532 2.17 0 36.171 3.617 49.916 1.809 13.744-1.809 8.68 19.17 2.893 37.978M242.6476 179.2152c8.681 11.213 23.873 40.873 25.319 48.106.724 3.618 1.447 5.426 1.447 5.426s-9.042 3.979-7.957 3.617c1.085-.361 12.297 5.426 12.297 5.426s-8.318 44.852-8.68 54.617M233.9665 194.4066c-.723 6.511-2.17 57.512-1.085 77.767M143.9015 198.3851c-.362 1.447 1.809 38.703 1.809 38.703s9.404 26.766 37.617 23.15c28.213-3.618 47.745-25.682 49.192-39.065M135.944 189.7045c-1.085 1.447-20.979 30.384-20.979 30.384l9.766 15.191-22.064 2.532s-1.085 24.596-3.255 39.426M130.5182 167.64c-2.532 3.979-3.617 5.788-3.617 5.788s-54.979-8.682-63.299-7.234c-8.319 1.446-2.531 22.787 1.809 64.384M58.9006 195.1303c-9.042 10.128-17 21.341-17 21.341" stroke="#515151" stroke-width="3" stroke-linecap="round" stroke-linejoin="round"/>
    </g>
</svg>
