<svg width="372" height="346" viewBox="0 0 372 346" xmlns="http://www.w3.org/2000/svg">
    <g fill="none">
        <circle fill="#E1E1E1" cx="186" cy="174" r="135"/>
        <path d="M141 199.1667l1.333 24L129 235.8327s-3.333-8-10-8-21.333 26-21.333 26-6 40 59.333 57.334c65.333 17.333 106-22 111.333-42 5.334-20 5.334-22 5.334-22s-4 0-8-6.667-6.667-10-13.334-11.333c-6.666-1.334-9.333-.667-13.333.666-4 1.334-10 5.334-10 5.334l-12-12 3.333-20s16-13.334 18-24.667c2-11.333 2-18.667 2-18.667s14-1.333 15.334-23.333c1.333-22 2-26.667-3.334-26.667-5.333 0-10.666 8.667-10 6.667.667-2 6-34.667 2.667-42-3.333-7.333-21.333-31.333-37.333-38.666-16-7.334-18.667-6.667-18.667-6.667-10.667 0-23.333 0-40 12s-25.333 21.333-29.333 31.333-3.334 26-2.667 28.667c.667 2.666 3.333 14.666 3.333 14.666s-6.666-9.333-12.666-6c-6 3.334-7.334 13.334-4.667 26 2.667 12.667 8 20 11.333 22.667 3.334 2.667 8 3.333 8 3.333s.667 11.334 4 20.667c3.334 9.333 9.334 14 12 15.333 2.667 1.334 4 4 4 4" fill="#FFF"/>
        <path d="M125.667 235.1667c-5.334-6.667-7.334-8-13.334 0s-12 18-12 18l-3.333 12s16 45.333 62 53.333 82.667-11.333 96.667-33.333 17.333-34 14-37.334c-3.334-3.333-8-.666-9.334-6-1.333-5.333-.666-4-7.333-8.666-6.667-4.667-17.333 2.666-17.333 2.666l7.333 14.667s-50.667 39.333-80.667 35.333-38.666-28.666-40.666-34c-2-5.333-.667-7.333-.667-7.333l4.667-9.333z" fill="#929292"/>
        <path d="M244.333 127.8328c2.667-8 7.334-11.333 7.334-11.333s3.333 13.333 1.333 20.667c-2 7.333-8.667 15.333-8.667 13.333s2-4.667 2.667-10.667c.667-6-2.667-12-2.667-12M134.333 110.4997c-.69 2.303 6 .667 14-2.667 8-3.333 8-6 3.334-6.666-4.667-.667-15.334 2.666-17.334 9.333M205 99.1667c-2 2.666 1.333 2.666 7.333 4.666 6 2 10 5.334 9.334 3.334-.667-2-6.667-11.334-10.667-11.334s-6 3.334-6 3.334" fill="silver"/>
        <path d="M167.667 32.4997v39.333l-9.334-2 23.334 30 20-30-10.667-.666 3.333-38s-5.089-3.268-11.333-3.334c-5.97-.062-13.053 3.038-15.333 4.667" fill="#D15C22"/>
        <path d="M117.1846 82.4939c-1.548 10.171 3.578 25.497 4.025 47.416.448 21.919 1.342 32.655 4.027 44.732 2.683 12.079 1.342 14.315 13.867 22.814 12.524 8.499 23.261 16.552 26.839 21.472 3.579 4.92 9.394 7.157 20.577 5.368 11.184-1.789 12.078-4.921 14.314-6.71 2.237-1.789 15.209-12.526 21.919-17.446 6.71-4.92 14.315-16.104 16.104-24.156 1.79-8.052 2.237-17.445 2.237-17.445s.895-24.155 2.237-41.602c1.341-17.445 1.789-32.654 1.341-37.128-.447-4.472-6.262-24.602-29.076-38.917-22.813-14.314-27.287-12.525-33.101-12.077-5.816.447-59.047 12.525-65.31 53.679z" stroke="#515151" stroke-width="3" stroke-linecap="round" stroke-linejoin="round"/>
        <path d="M119.4209 119.1746s-2.684-12.525-11.183-8.052c-8.5 4.473-6.71 27.734.895 39.364 7.604 11.63 12.524 10.289 12.524 10.289M107.79 118.7273c7.157-2.237 9.842 4.025 11.631 18.34" stroke="#515151" stroke-width="3" stroke-linecap="round" stroke-linejoin="round"/>
        <path d="M117.6318 129.4626c-4.474-1.789-5.368 7.604-2.236 14.314 3.131 6.71 5.367 9.841 5.814 8.052M243.3301 116.9372c6.71-8.052 10.288-8.052 12.525-3.131 2.237 4.921 2.237 25.05-4.026 35.339-6.263 10.288-11.63 10.288-10.735 9.394M243.3301 131.699c3.131-8.052 5.815-16.104 8.499-14.314M244.6719 129.9099c3.132-1.789 4.474 15.209.447 16.104M169.5215 148.698c-3.579 5.814-4.921 10.288.447 11.63 5.368 1.342 6.71.447 6.71.447M195.9141 147.8035s8.052 9.841-.896 12.524M186.0723 157.6443c4.026 0 8.052 2.236 5.815 2.236-2.236 0-5.815-2.236-5.815-2.236z" stroke="#515151" stroke-width="3" stroke-linecap="round" stroke-linejoin="round"/>
        <path d="M171.7578 158.5388s4.026-1.789 4.921 0c.894 1.789-4.921.447-4.921 0zM157.8906 178.2214s6.71 2.684 19.235 3.578c12.526.895 19.683.895 24.156 0 4.473-.894 5.368-2.683 5.368-2.683M208.4385 95.9128c-3.442 1.076-5.815 4.921-3.131 6.263 2.684 1.341 16.551 4.921 17.893 5.815 1.342.895-7.605-14.314-14.762-12.078zM149.8389 100.3865c4.988-.356 6.71 4.474 4.474 4.921-2.237.447-16.551 3.578-18.341 5.815-1.789 2.237 1.343-9.841 13.867-10.736zM155.207 113.8064c-7.173.755-13.867 7.157-14.762 12.078 0 0 4.921 5.367 13.867 3.578 8.947-1.789 10.736-4.026 10.736-4.026s-1.342-12.525-9.841-11.63zM199.0449 124.0945c.895-1.789 4.025-11.183 12.973-10.735 8.946.447 10.735 11.182 10.735 12.077 0 .895-2.236 4.026-10.288 3.579-8.052-.447-13.42-4.921-13.42-4.921z" stroke="#515151" stroke-width="3" stroke-linecap="round" stroke-linejoin="round"/>
        <path d="M151.1807 113.3591c7.374-3.933 14.314 8.499 5.368 10.288-8.946 1.789-12.078-6.71-5.368-10.288M208.8857 113.8064c9.842-2.236 11.184 12.525 2.685 11.63-8.5-.895-10.214-9.919-2.685-11.63" fill="#515151"/>
        <path d="M142.2344 200.1404s3.132 38.022-1.789 53.231M220.0693 202.8239c0 1.789-9.394 39.812-4.026 59.047M216.4902 223.8484c1.342 0 21.472 15.656 26.393 25.497M142.6816 221.612c-1.789 1.342-14.314 12.972-18.34 20.576" stroke="#515151" stroke-width="3" stroke-linecap="round" stroke-linejoin="round"/>
        <path d="M118.9736 234.5837c-.895 19.235 16.551 71.572 77.835 42.943 61.283-28.629 61.283-44.285 51.89-45.627-9.395-1.341-13.42 8.947-12.973 7.605" stroke="#515151" stroke-width="3" stroke-linecap="round" stroke-linejoin="round"/>
        <path d="M230.3574 234.1364c1.789-.895 15.656-9.394 25.498-3.578 9.841 5.815 8.946 11.182 11.63 13.42 2.685 2.236 6.71 1.789 5.815 4.92-.894 3.132-5.368 30.418-19.235 41.601M128.3672 232.7947c-1.342-.895-6.71-9.841-12.524-4.473-5.816 5.368-12.079 19.235-12.079 19.235M178.0205 199.2458c4.026-.448 7.604.895 7.604.895M152.5234 179.116s3.578-1.342 5.367-3.132M205.3076 175.9841l3.578 5.368" stroke="#515151" stroke-width="3" stroke-linecap="round" stroke-linejoin="round"/>
    </g>
</svg>
